  0
SECTION
  2
HEADER
  9
$ACADVER
  1
AC1024
  9
$ACADMAINTVER
 70
6
  9
$DWGCODEPAGE
  3
ANSI_1252
  9
$LASTSAVEDBY
  1
ezdxf
  9
$INSBASE
 10
0.0
 20
0.0
 30
0.0
  9
$EXTMIN
 10
1e+20
 20
1e+20
 30
1e+20
  9
$EXTMAX
 10
-1e+20
 20
-1e+20
 30
-1e+20
  9
$LIMMIN
 10
0.0
 20
0.0
  9
$LIMMAX
 10
420.0
 20
297.0
  9
$ORTHOMODE
 70
0
  9
$REGENMODE
 70
1
  9
$FILLMODE
 70
1
  9
$QTEXTMODE
 70
0
  9
$MIRRTEXT
 70
1
  9
$LTSCALE
 40
1.0
  9
$ATTMODE
 70
1
  9
$TEXTSIZE
 40
2.5
  9
$TRACEWID
 40
1.0
  9
$TEXTSTYLE
  7
Standard
  9
$CLAYER
  8
0
  9
$CELTYPE
  6
ByLayer
  9
$CECOLOR
 62
256
  9
$CELTSCALE
 40
1.0
  9
$DISPSILH
 70
0
  9
$DIMSCALE
 40
1.0
  9
$DIMASZ
 40
2.5
  9
$DIMEXO
 40
0.625
  9
$DIMDLI
 40
3.75
  9
$DIMRND
 40
0.0
  9
$DIMDLE
 40
0.0
  9
$DIMEXE
 40
1.25
  9
$DIMTP
 40
0.0
  9
$DIMTM
 40
0.0
  9
$DIMTXT
 40
2.5
  9
$DIMCEN
 40
2.5
  9
$DIMTSZ
 40
0.0
  9
$DIMTOL
 70
0
  9
$DIMLIM
 70
0
  9
$DIMTIH
 70
0
  9
$DIMTOH
 70
0
  9
$DIMSE1
 70
0
  9
$DIMSE2
 70
0
  9
$DIMTAD
 70
1
  9
$DIMZIN
 70
8
  9
$DIMBLK
  1

  9
$DIMASO
 70
1
  9
$DIMSHO
 70
1
  9
$DIMPOST
  1

  9
$DIMAPOST
  1

  9
$DIMALT
 70
0
  9
$DIMALTD
 70
3
  9
$DIMALTF
 40
0.03937007874
  9
$DIMLFAC
 40
1.0
  9
$DIMTOFL
 70
1
  9
$DIMTVP
 40
0.0
  9
$DIMTIX
 70
0
  9
$DIMSOXD
 70
0
  9
$DIMSAH
 70
0
  9
$DIMBLK1
  1

  9
$DIMBLK2
  1

  9
$DIMSTYLE
  2
ISO-25
  9
$DIMCLRD
 70
0
  9
$DIMCLRE
 70
0
  9
$DIMCLRT
 70
0
  9
$DIMTFAC
 40
1.0
  9
$DIMGAP
 40
0.625
  9
$DIMJUST
 70
0
  9
$DIMSD1
 70
0
  9
$DIMSD2
 70
0
  9
$DIMTOLJ
 70
0
  9
$DIMTZIN
 70
8
  9
$DIMALTZ
 70
0
  9
$DIMALTTZ
 70
0
  9
$DIMUPT
 70
0
  9
$DIMDEC
 70
2
  9
$DIMTDEC
 70
2
  9
$DIMALTU
 70
2
  9
$DIMALTTD
 70
3
  9
$DIMTXSTY
  7
Standard
  9
$DIMAUNIT
 70
0
  9
$DIMADEC
 70
0
  9
$DIMALTRND
 40
0.0
  9
$DIMAZIN
 70
0
  9
$DIMDSEP
 70
44
  9
$DIMATFIT
 70
3
  9
$DIMFRAC
 70
0
  9
$DIMLDRBLK
  1

  9
$DIMLUNIT
 70
2
  9
$DIMLWD
 70
-2
  9
$DIMLWE
 70
-2
  9
$DIMTMOVE
 70
0
  9
$DIMFXL
 40
1.0
  9
$DIMFXLON
 70
0
  9
$DIMJOGANG
 40
0.785398163397
  9
$DIMTFILL
 70
0
  9
$DIMTFILLCLR
 70
0
  9
$DIMARCSYM
 70
0
  9
$DIMLTYPE
  6

  9
$DIMLTEX1
  6

  9
$DIMLTEX2
  6

  9
$DIMTXTDIRECTION
 70
0
  9
$LUNITS
 70
2
  9
$LUPREC
 70
4
  9
$SKETCHINC
 40
1.0
  9
$FILLETRAD
 40
10.0
  9
$AUNITS
 70
0
  9
$AUPREC
 70
2
  9
$MENU
  1
.
  9
$ELEVATION
 40
0.0
  9
$PELEVATION
 40
0.0
  9
$THICKNESS
 40
0.0
  9
$LIMCHECK
 70
0
  9
$CHAMFERA
 40
0.0
  9
$CHAMFERB
 40
0.0
  9
$CHAMFERC
 40
0.0
  9
$CHAMFERD
 40
0.0
  9
$SKPOLY
 70
0
  9
$TDCREATE
 40
2461126.4698148146
  9
$TDUCREATE
 40
2458532.153996898
  9
$TDUPDATE
 40
2461126.4698148146
  9
$TDUUPDATE
 40
2458532.1544311
  9
$TDINDWG
 40
0.0
  9
$TDUSRTIMER
 40
0.0
  9
$USRTIMER
 70
1
  9
$ANGBASE
 50
0.0
  9
$ANGDIR
 70
0
  9
$PDMODE
 70
0
  9
$PDSIZE
 40
0.0
  9
$PLINEWID
 40
0.0
  9
$SPLFRAME
 70
0
  9
$SPLINETYPE
 70
6
  9
$SPLINESEGS
 70
8
  9
$HANDSEED
  5
50
  9
$SURFTAB1
 70
6
  9
$SURFTAB2
 70
6
  9
$SURFTYPE
 70
6
  9
$SURFU
 70
6
  9
$SURFV
 70
6
  9
$UCSBASE
  2

  9
$UCSNAME
  2

  9
$UCSORG
 10
0.0
 20
0.0
 30
0.0
  9
$UCSXDIR
 10
1.0
 20
0.0
 30
0.0
  9
$UCSYDIR
 10
0.0
 20
1.0
 30
0.0
  9
$UCSORTHOREF
  2

  9
$UCSORTHOVIEW
 70
0
  9
$UCSORGTOP
 10
0.0
 20
0.0
 30
0.0
  9
$UCSORGBOTTOM
 10
0.0
 20
0.0
 30
0.0
  9
$UCSORGLEFT
 10
0.0
 20
0.0
 30
0.0
  9
$UCSORGRIGHT
 10
0.0
 20
0.0
 30
0.0
  9
$UCSORGFRONT
 10
0.0
 20
0.0
 30
0.0
  9
$UCSORGBACK
 10
0.0
 20
0.0
 30
0.0
  9
$PUCSBASE
  2

  9
$PUCSNAME
  2

  9
$PUCSORG
 10
0.0
 20
0.0
 30
0.0
  9
$PUCSXDIR
 10
1.0
 20
0.0
 30
0.0
  9
$PUCSYDIR
 10
0.0
 20
1.0
 30
0.0
  9
$PUCSORTHOREF
  2

  9
$PUCSORTHOVIEW
 70
0
  9
$PUCSORGTOP
 10
0.0
 20
0.0
 30
0.0
  9
$PUCSORGBOTTOM
 10
0.0
 20
0.0
 30
0.0
  9
$PUCSORGLEFT
 10
0.0
 20
0.0
 30
0.0
  9
$PUCSORGRIGHT
 10
0.0
 20
0.0
 30
0.0
  9
$PUCSORGFRONT
 10
0.0
 20
0.0
 30
0.0
  9
$PUCSORGBACK
 10
0.0
 20
0.0
 30
0.0
  9
$USERI1
 70
0
  9
$USERI2
 70
0
  9
$USERI3
 70
0
  9
$USERI4
 70
0
  9
$USERI5
 70
0
  9
$USERR1
 40
0.0
  9
$USERR2
 40
0.0
  9
$USERR3
 40
0.0
  9
$USERR4
 40
0.0
  9
$USERR5
 40
0.0
  9
$WORLDVIEW
 70
1
  9
$SHADEDGE
 70
3
  9
$SHADEDIF
 70
70
  9
$TILEMODE
 70
1
  9
$MAXACTVP
 70
64
  9
$PINSBASE
 10
0.0
 20
0.0
 30
0.0
  9
$PLIMCHECK
 70
0
  9
$PEXTMIN
 10
1e+20
 20
1e+20
 30
1e+20
  9
$PEXTMAX
 10
-1e+20
 20
-1e+20
 30
-1e+20
  9
$PLIMMIN
 10
0.0
 20
0.0
  9
$PLIMMAX
 10
420.0
 20
297.0
  9
$UNITMODE
 70
0
  9
$VISRETAIN
 70
1
  9
$PLINEGEN
 70
0
  9
$PSLTSCALE
 70
1
  9
$TREEDEPTH
 70
3020
  9
$CMLSTYLE
  2
Standard
  9
$CMLJUST
 70
0
  9
$CMLSCALE
 40
20.0
  9
$PROXYGRAPHICS
 70
1
  9
$MEASUREMENT
 70
1
  9
$CELWEIGHT
370
-1
  9
$ENDCAPS
280
0
  9
$JOINSTYLE
280
0
  9
$LWDISPLAY
290
0
  9
$INSUNITS
 70
6
  9
$HYPERLINKBASE
  1

  9
$STYLESHEET
  1

  9
$XEDIT
290
1
  9
$CEPSNTYPE
380
0
  9
$PSTYLEMODE
290
1
  9
$FINGERPRINTGUID
  2
{5C871B5D-5F09-4C8B-AC66-693FF4870A33}
  9
$VERSIONGUID
  2
{D7008BD5-F845-44D2-AA38-F9A5CDB1419F}
  9
$EXTNAMES
290
1
  9
$PSVPSCALE
 40
0.0
  9
$OLESTARTUP
290
0
  9
$SORTENTS
280
127
  9
$INDEXCTL
280
0
  9
$HIDETEXT
280
1
  9
$XCLIPFRAME
280
1
  9
$HALOGAP
280
0
  9
$OBSCOLOR
 70
257
  9
$OBSLTYPE
280
0
  9
$INTERSECTIONDISPLAY
280
0
  9
$INTERSECTIONCOLOR
 70
257
  9
$DIMASSOC
280
2
  9
$PROJECTNAME
  1

  9
$CAMERADISPLAY
290
0
  9
$LENSLENGTH
 40
50.0
  9
$CAMERAHEIGHT
 40
0.0
  9
$STEPSPERSEC
 40
24.0
  9
$STEPSIZE
 40
100.0
  9
$3DDWFPREC
 40
2.0
  9
$PSOLWIDTH
 40
0.005
  9
$PSOLHEIGHT
 40
0.08
  9
$LOFTANG1
 40
1.570796326795
  9
$LOFTANG2
 40
1.570796326795
  9
$LOFTMAG1
 40
0.0
  9
$LOFTMAG2
 40
0.0
  9
$LOFTPARAM
 70
7
  9
$LOFTNORMALS
280
1
  9
$LATITUDE
 40
37.795
  9
$LONGITUDE
 40
-122.394
  9
$NORTHDIRECTION
 40
0.0
  9
$TIMEZONE
 70
-8000
  9
$LIGHTGLYPHDISPLAY
280
1
  9
$TILEMODELIGHTSYNCH
280
1
  9
$CMATERIAL
347
20
  9
$SOLIDHIST
280
0
  9
$SHOWHIST
280
1
  9
$DWFFRAME
280
2
  9
$DGNFRAME
280
2
  9
$REALWORLDSCALE
290
1
  9
$INTERFERECOLOR
 62
256
  9
$CSHADOW
280
0
  9
$SHADOWPLANELOCATION
 40
0.0
  0
ENDSEC
  0
SECTION
  2
CLASSES
  0
CLASS
  1
ACDBDICTIONARYWDFLT
  2
AcDbDictionaryWithDefault
  3
ObjectDBX Classes
 90
0
 91
0
280
0
281
0
  0
CLASS
  1
SUN
  2
AcDbSun
  3
SCENEOE
 90
1153
 91
0
280
0
281
0
  0
CLASS
  1
VISUALSTYLE
  2
AcDbVisualStyle
  3
ObjectDBX Classes
 90
4095
 91
0
280
0
281
0
  0
CLASS
  1
MATERIAL
  2
AcDbMaterial
  3
ObjectDBX Classes
 90
1153
 91
0
280
0
281
0
  0
CLASS
  1
SCALE
  2
AcDbScale
  3
ObjectDBX Classes
 90
1153
 91
0
280
0
281
0
  0
CLASS
  1
TABLESTYLE
  2
AcDbTableStyle
  3
ObjectDBX Classes
 90
4095
 91
0
280
0
281
0
  0
CLASS
  1
MLEADERSTYLE
  2
AcDbMLeaderStyle
  3
ACDB_MLEADERSTYLE_CLASS
 90
4095
 91
0
280
0
281
0
  0
CLASS
  1
DICTIONARYVAR
  2
AcDbDictionaryVar
  3
ObjectDBX Classes
 90
0
 91
0
280
0
281
0
  0
CLASS
  1
CELLSTYLEMAP
  2
AcDbCellStyleMap
  3
ObjectDBX Classes
 90
1152
 91
0
280
0
281
0
  0
CLASS
  1
MENTALRAYRENDERSETTINGS
  2
AcDbMentalRayRenderSettings
  3
SCENEOE
 90
1024
 91
0
280
0
281
0
  0
CLASS
  1
ACDBDETAILVIEWSTYLE
  2
AcDbDetailViewStyle
  3
ObjectDBX Classes
 90
1025
 91
0
280
0
281
0
  0
CLASS
  1
ACDBSECTIONVIEWSTYLE
  2
AcDbSectionViewStyle
  3
ObjectDBX Classes
 90
1025
 91
0
280
0
281
0
  0
CLASS
  1
RASTERVARIABLES
  2
AcDbRasterVariables
  3
ISM
 90
0
 91
0
280
0
281
0
  0
CLASS
  1
ACDBPLACEHOLDER
  2
AcDbPlaceHolder
  3
ObjectDBX Classes
 90
0
 91
0
280
0
281
0
  0
CLASS
  1
LAYOUT
  2
AcDbLayout
  3
ObjectDBX Classes
 90
0
 91
0
280
0
281
0
  0
ENDSEC
  0
SECTION
  2
TABLES
  0
TABLE
  2
VPORT
  5
8
330
0
100
AcDbSymbolTable
 70
1
  0
VPORT
  5
23
330
8
100
AcDbSymbolTableRecord
100
AcDbViewportTableRecord
  2
*Active
 70
0
 10
0.0
 20
0.0
 11
1.0
 21
1.0
 12
0.0
 22
0.0
 13
0.0
 23
0.0
 14
0.5
 24
0.5
 15
0.5
 25
0.5
 16
0.0
 26
0.0
 36
1.0
 17
0.0
 27
0.0
 37
0.0
 40
1000.0
 41
1.34
 42
50.0
 43
0.0
 44
0.0
 50
0.0
 51
0.0
 71
0
 72
1000
 73
1
 74
3
 75
0
 76
0
 77
0
 78
0
281
0
 65
0
146
0.0
  0
ENDTAB
  0
TABLE
  2
LTYPE
  5
2
330
0
100
AcDbSymbolTable
 70
3
  0
LTYPE
  5
24
330
2
100
AcDbSymbolTableRecord
100
AcDbLinetypeTableRecord
  2
ByBlock
 70
0
  3

 72
65
 73
0
 40
0.0
  0
LTYPE
  5
25
330
2
100
AcDbSymbolTableRecord
100
AcDbLinetypeTableRecord
  2
ByLayer
 70
0
  3

 72
65
 73
0
 40
0.0
  0
LTYPE
  5
26
330
2
100
AcDbSymbolTableRecord
100
AcDbLinetypeTableRecord
  2
Continuous
 70
0
  3

 72
65
 73
0
 40
0.0
  0
ENDTAB
  0
TABLE
  2
LAYER
  5
1
330
0
100
AcDbSymbolTable
 70
5
  0
LAYER
  5
27
330
1
100
AcDbSymbolTableRecord
100
AcDbLayerTableRecord
  2
0
 70
0
 62
7
  6
Continuous
370
-3
390
13
347
21
  0
LAYER
  5
28
330
1
100
AcDbSymbolTableRecord
100
AcDbLayerTableRecord
  2
Defpoints
 70
0
 62
7
  6
Continuous
290
0
370
-3
390
13
347
21
  0
LAYER
  5
2F
330
1
100
AcDbSymbolTableRecord
100
AcDbLayerTableRecord
  2
CUTS
 70
0
 62
7
  6
Continuous
370
-3
390
13
347
21
  0
LAYER
  5
30
330
1
100
AcDbSymbolTableRecord
100
AcDbLayerTableRecord
  2
ENGRAVE
 70
0
 62
1
  6
Continuous
370
-3
390
13
347
21
  0
LAYER
  5
31
330
1
100
AcDbSymbolTableRecord
100
AcDbLayerTableRecord
  2
GUIDE
 70
0
 62
3
  6
Continuous
370
-3
390
13
347
21
  0
ENDTAB
  0
TABLE
  2
STYLE
  5
5
330
0
100
AcDbSymbolTable
 70
1
  0
STYLE
  5
29
330
5
100
AcDbSymbolTableRecord
100
AcDbTextStyleTableRecord
  2
Standard
 70
0
 40
0.0
 41
1.0
 50
0.0
 71
0
 42
2.5
  3
txt
  4

  0
ENDTAB
  0
TABLE
  2
VIEW
  5
7
330
0
100
AcDbSymbolTable
 70
0
  0
ENDTAB
  0
TABLE
  2
UCS
  5
6
330
0
100
AcDbSymbolTable
 70
0
  0
ENDTAB
  0
TABLE
  2
APPID
  5
3
330
0
100
AcDbSymbolTable
 70
3
  0
APPID
  5
2A
330
3
100
AcDbSymbolTableRecord
100
AcDbRegAppTableRecord
  2
ACAD
 70
0
  0
APPID
  5
4D
330
3
100
AcDbSymbolTableRecord
100
AcDbRegAppTableRecord
  2
HATCHBACKGROUNDCOLOR
 70
0
  0
APPID
  5
4E
330
3
100
AcDbSymbolTableRecord
100
AcDbRegAppTableRecord
  2
EZDXF
 70
0
  0
ENDTAB
  0
TABLE
  2
DIMSTYLE
  5
4
330
0
100
AcDbSymbolTable
 70
1
100
AcDbDimStyleTable
  0
DIMSTYLE
105
2B
330
4
100
AcDbSymbolTableRecord
100
AcDbDimStyleTableRecord
  2
Standard
 70
0
 40
1.0
 41
2.5
 42
0.625
 43
3.75
 44
1.25
 45
0.0
 46
0.0
 47
0.0
 48
0.0
 49
2.5
140
2.5
141
2.5
142
0.0
143
0.03937007874
144
1.0
145
0.0
146
1.0
147
0.625
148
0.0
 69
0
 70
0
 71
0
 72
0
 73
0
 74
0
 75
0
 76
0
 77
1
 78
8
 79
3
170
0
171
3
172
1
173
0
174
0
175
0
176
0
177
0
178
0
179
2
271
2
272
2
273
2
274
3
275
0
276
0
277
2
278
44
279
0
280
0
281
0
282
0
283
0
284
8
285
0
286
0
288
0
289
3
290
0
371
-2
372
-2
  0
ENDTAB
  0
TABLE
  2
BLOCK_RECORD
  5
9
330
0
100
AcDbSymbolTable
 70
2
  0
BLOCK_RECORD
  5
17
330
9
100
AcDbSymbolTableRecord
100
AcDbBlockTableRecord
  2
*Model_Space
340
1A
 70
0
280
1
281
0
  0
BLOCK_RECORD
  5
1B
330
9
100
AcDbSymbolTableRecord
100
AcDbBlockTableRecord
  2
*Paper_Space
340
1E
 70
0
280
1
281
0
  0
ENDTAB
  0
ENDSEC
  0
SECTION
  2
BLOCKS
  0
BLOCK
  5
18
330
17
100
AcDbEntity
  8
0
100
AcDbBlockBegin
  2
*Model_Space
 70
0
 10
0.0
 20
0.0
 30
0.0
  3
*Model_Space
  1

  0
ENDBLK
  5
19
330
17
100
AcDbEntity
  8
0
100
AcDbBlockEnd
  0
BLOCK
  5
1C
330
1B
100
AcDbEntity
  8
0
100
AcDbBlockBegin
  2
*Paper_Space
 70
0
 10
0.0
 20
0.0
 30
0.0
  3
*Paper_Space
  1

  0
ENDBLK
  5
1D
330
1B
100
AcDbEntity
  8
0
100
AcDbBlockEnd
  0
ENDSEC
  0
SECTION
  2
ENTITIES
  0
LWPOLYLINE
  5
32
330
17
100
AcDbEntity
  8
CUTS
100
AcDbPolyline
 90
4
 70
1
 10
0.0
 20
0.0
 10
100.0
 20
0.0
 10
100.0
 20
80.0
 10
0.0
 20
80.0
  0
TEXT
  5
33
330
17
100
AcDbEntity
  8
ENGRAVE
100
AcDbText
 10
5.0
 20
72.0
 30
0.0
 40
3.0
  1
M3 BASE
 11
5.0
 21
72.0
 31
0.0
100
AcDbText
  0
LWPOLYLINE
  5
34
330
17
100
AcDbEntity
  8
CUTS
100
AcDbPolyline
 90
4
 70
1
 10
18.55
 20
35.0
 10
21.45
 20
35.0
 10
21.45
 20
45.0
 10
18.55
 20
45.0
  0
LWPOLYLINE
  5
35
330
17
100
AcDbEntity
  8
CUTS
100
AcDbPolyline
 90
4
 70
1
 10
78.55
 20
35.0
 10
81.45
 20
35.0
 10
81.45
 20
45.0
 10
78.55
 20
45.0
  0
LWPOLYLINE
  5
36
330
17
100
AcDbEntity
  8
CUTS
100
AcDbPolyline
 90
8
 70
1
 10
108.0
 20
120.0
 10
188.0
 20
120.0
 10
188.0
 20
0.0
 10
153.0
 20
0.0
 10
153.0
 20
-3.0
 10
143.0
 20
-3.0
 10
143.0
 20
0.0
 10
108.0
 20
0.0
  0
CIRCLE
  5
37
330
17
100
AcDbEntity
  8
CUTS
100
AcDbCircle
 10
148.0
 20
40.0
 30
0.0
 40
1.6
  0
LWPOLYLINE
  5
38
330
17
100
AcDbEntity
  8
CUTS
100
AcDbPolyline
 90
4
 70
1
 10
146.55
 20
85.0
 10
149.45000000000002
 20
85.0
 10
149.45000000000002
 20
115.0
 10
146.55
 20
115.0
  0
TEXT
  5
39
330
17
100
AcDbEntity
  8
ENGRAVE
100
AcDbText
 10
113.0
 20
110.0
 30
0.0
 40
3.0
  1
M3 FRAME L
 11
113.0
 21
110.0
 31
0.0
100
AcDbText
  0
LWPOLYLINE
  5
3A
330
17
100
AcDbEntity
  8
CUTS
100
AcDbPolyline
 90
8
 70
1
 10
196.0
 20
120.0
 10
276.0
 20
120.0
 10
276.0
 20
0.0
 10
241.0
 20
0.0
 10
241.0
 20
-3.0
 10
231.0
 20
-3.0
 10
231.0
 20
0.0
 10
196.0
 20
0.0
  0
CIRCLE
  5
3B
330
17
100
AcDbEntity
  8
CUTS
100
AcDbCircle
 10
236.0
 20
40.0
 30
0.0
 40
1.6
  0
LWPOLYLINE
  5
3C
330
17
100
AcDbEntity
  8
CUTS
100
AcDbPolyline
 90
4
 70
1
 10
234.55
 20
85.0
 10
237.45000000000002
 20
85.0
 10
237.45000000000002
 20
115.0
 10
234.55
 20
115.0
  0
TEXT
  5
3D
330
17
100
AcDbEntity
  8
ENGRAVE
100
AcDbText
 10
201.0
 20
110.0
 30
0.0
 40
3.0
  1
M3 FRAME R
 11
201.0
 21
110.0
 31
0.0
100
AcDbText
  0
LWPOLYLINE
  5
3E
330
17
100
AcDbEntity
  8
CUTS
100
AcDbPolyline
 90
72
 70
1
 10
48.0
 20
-63.0
 10
48.539273187485676
 20
-61.37802376608488
 10
48.923610055859584
 20
-59.663256974745934
 10
49.13666487320323
 20
-57.87234610140016
 10
49.16422380804924
 20
-56.02479297105439
 10
48.99469571757612
 20
-54.1426279225703
 10
48.619546181365436
 20
-52.25
 10
48.033660969952535
 20
-50.37269464732101
 10
47.23562711168433
 20
-48.53759164747655
 10
46.22792206135786
 20
-46.77207793864215
 10
45.017004109900434
 20
-45.10343140202414
 10
43.613300027069506
 20
-43.558192701158305
 10
42.03108891324554
 20
-42.161542731880104
 10
40.288284262249014
 20
-40.93670319943742
 10
38.406119213764924
 20
-39.90437727493723
 10
36.40874281184537
 20
-39.08224621355124
 10
34.32273769964459
 20
-38.484536273029576
 10
32.1765719912921
 20
-38.12166829880585
 10
30.0
 20
-38.0
 10
27.823428008707896
 20
-38.12166829880585
 10
25.677262300355416
 20
-38.484536273029576
 10
23.591257188154625
 20
-39.08224621355124
 10
21.593880786235076
 20
-39.904377274937225
 10
19.71171573775099
 20
-40.93670319943741
 10
17.968911086754467
 20
-42.161542731880104
 10
16.38669997293049
 20
-43.55819270115831
 10
14.982995890099565
 20
-45.10343140202414
 10
13.772077938642145
 20
-46.77207793864214
 10
12.76437288831567
 20
-48.537591647476546
 10
11.966339030047468
 20
-50.37269464732101
 10
11.380453818634567
 20
-52.25
 10
11.005304282423879
 20
-54.1426279225703
 10
10.835776191950764
 20
-56.02479297105438
 10
10.863335126796773
 20
-57.872346101400154
 10
11.076389944140416
 20
-59.663256974745934
 10
11.460726812514324
 20
-61.37802376608488
 10
12.0
 20
-63.0
 10
12.676264056182838
 20
-64.51563050500057
 10
13.470530947420098
 20
-65.91459137075543
 10
14.363335126796771
 20
-67.18983172509091
 10
15.335289459756536
 20
-68.33751813077846
 10
16.367615384256723
 20
-69.35688534523547
 10
17.44263164512564
 20
-70.25
 10
18.544187375548827
 20
-71.02144635595867
 10
19.658027159401122
 20
-71.67794559619196
 10
20.77207793864214
 20
-72.22792206135786
 10
21.87665016118502
 20
-72.68103135430735
 10
22.964548318431845
 20
-73.04766629556201
 10
24.03108891324553
 20
-73.3384572681199
 10
25.074026839583837
 20
-73.56378353275682
 10
26.093394054040854
 20
-73.73331162322992
 10
27.09125718815463
 20
-73.85557595995769
 10
28.071403303635094
 20
-73.93761538146907
 10
29.038965252376407
 20
-73.98467743010869
 10
29.999999999999996
 20
-74.0
 10
30.96103474762359
 20
-73.98467743010869
 10
31.928596696364902
 20
-73.93761538146907
 10
32.90874281184537
 20
-73.85557595995769
 10
33.90660594595915
 20
-73.73331162322992
 10
34.92597316041617
 20
-73.56378353275682
 10
35.96891108675447
 20
-73.3384572681199
 10
37.03545168156815
 20
-73.04766629556201
 10
38.123349838814974
 20
-72.68103135430735
 10
39.22792206135785
 20
-72.22792206135786
 10
40.34197284059887
 20
-71.67794559619196
 10
41.45581262445117
 20
-71.02144635595867
 10
42.557368354874356
 20
-70.25
 10
43.63238461574328
 20
-69.35688534523547
 10
44.66471054024346
 20
-68.33751813077846
 10
45.63666487320323
 20
-67.18983172509091
 10
46.5294690525799
 20
-65.91459137075543
 10
47.32373594381716
 20
-64.51563050500057
  0
CIRCLE
  5
3F
330
17
100
AcDbEntity
  8
CUTS
100
AcDbCircle
 10
30.0
 20
-63.0
 30
0.0
 40
1.6
  0
TEXT
  5
40
330
17
100
AcDbEntity
  8
ENGRAVE
100
AcDbText
 10
20.0
 20
-65.0
 30
0.0
 40
3.0
  1
M3 EGG
 11
20.0
 21
-65.0
 31
0.0
100
AcDbText
  0
CIRCLE
  5
41
330
17
100
AcDbEntity
  8
CUTS
100
AcDbCircle
 10
88.0
 20
-63.0
 30
0.0
 40
20.0
  0
CIRCLE
  5
42
330
17
100
AcDbEntity
  8
CUTS
100
AcDbCircle
 10
93.0
 20
-63.0
 30
0.0
 40
1.6
  0
TEXT
  5
43
330
17
100
AcDbEntity
  8
ENGRAVE
100
AcDbText
 10
76.0
 20
-65.0
 30
0.0
 40
3.0
  1
M3 ROUND
 11
76.0
 21
-65.0
 31
0.0
100
AcDbText
  0
LWPOLYLINE
  5
44
330
17
100
AcDbEntity
  8
CUTS
100
AcDbPolyline
 90
72
 70
1
 10
151.0
 20
-63.0
 10
151.1694875430199
 20
-62.11028512611766
 10
151.25841409387718
 20
-61.19116481596948
 10
151.26296190432134
 20
-60.25004764578572
 10
151.18000339184735
 20
-59.29478178063859
 10
151.007148481863
 20
-58.33359002661311
 10
150.74278579257492
 20
-57.375
 10
150.3861171741447
 20
-56.427770000144264
 10
149.9371851697214
 20
-55.50081122032371
 10
149.39689302659025
 20
-54.60310697340975
 10
148.76701695037903
 20
-53.74362964564568
 10
148.0502103634816
 20
-52.93125612228114
 10
147.25
 20
-52.17468245269452
 10
146.37077374295473
 20
-51.48233853974257
 10
145.41776018462323
 20
-50.86230364818202
 10
144.39699996697058
 20
-50.32222352995598
 10
143.31530903555907
 20
-49.86922995983723
 10
142.18023401637453
 20
-49.50986346334095
 10
141.0
 20
-49.25
 10
139.78345109081394
 20
-49.09478233913605
 10
138.5399841497185
 20
-49.04855683232705
 10
137.27947622665127
 20
-49.114816247094645
 10
136.01220624316733
 20
-49.2961492802055
 10
134.7487715450855
 20
-49.59419731674955
 10
133.5
 20
-50.00961894323342
 10
132.27685836382784
 20
-50.54206265977159
 10
131.09035768399917
 20
-51.190148168582425
 10
129.9514565439602
 20
-51.95145654396019
 10
128.8709629839495
 20
-52.82252951329646
 10
127.85943595619742
 20
-53.79887800020197
 10
126.92708718850287
 20
-54.875
 10
126.08368433835514
 20
-56.044407775517655
 10
125.33845632023487
 20
-57.29966427790552
 10
124.70000168137197
 20
-58.63242861389496
 10
124.17620088604144
 20
-60.03351029818994
 10
123.77413334549689
 20
-61.49293194832175
 10
123.5
 20
-63.0
 10
123.359052221292
 20
-64.54338294448978
 10
123.35552775853127
 20
-66.1111965165325
 10
123.49259439851063
 20
-67.69109519248319
 10
123.77230195225835
 20
-69.27036929430392
 10
124.19554311536211
 20
-70.83604693644213
 10
124.76202367904177
 20
-72.375
 10
125.47024249368786
 20
-73.87405327248858
 10
126.31748150688625
 20
-75.32009585232534
 10
127.29980611451064
 20
-76.70019388548936
 10
128.41207597697195
 20
-78.00170367774665
 10
129.64796636388553
 20
-79.2123842098863
 10
131.0
 20
-80.32050807568876
 10
132.45958929399004
 20
-81.3149698630323
 10
134.01708874043427
 20
-82.1853910077123
 10
135.6618571947605
 20
-82.92222016721203
 10
137.38232963193894
 20
-83.51682818775433
 10
139.16609791301804
 20
-83.96159677234715
 10
141.0
 20
-84.25
 10
142.8702169797935
 20
-84.37667789655204
 10
144.7623771827835
 20
-84.3375013152645
 10
146.66166661161762
 20
-84.12962745007337
 10
148.5529448317752
 20
-83.7515453756888
 10
150.42086541796976
 20
-83.20311108602532
 10
152.25
 20
-82.48557158514987
 10
154.024964908805
 20
-81.60157767239586
 10
155.73054938864985
 20
-80.55518515480992
 10
157.35184431493892
 20
-79.35184431493892
 10
158.8743703394428
 20
-77.99837755935259
 10
160.28420437597
 20
-76.50294527243088
 10
161.56810333988042
 20
-74.87500000000001
 10
162.71362406441975
 20
-73.12522918753758
 10
163.70923833565945
 20
-71.26548679703698
 10
164.54444201579605
 20
-69.30871422437394
 10
165.20985726155013
 20
-67.26885103431204
 10
165.6973268901912
 20
-65.1607361222857
  0
CIRCLE
  5
45
330
17
100
AcDbEntity
  8
CUTS
100
AcDbCircle
 10
141.0
 20
-63.0
 30
0.0
 40
1.6
  0
TEXT
  5
46
330
17
100
AcDbEntity
  8
ENGRAVE
100
AcDbText
 10
129.0
 20
-65.0
 30
0.0
 40
3.0
  1
M3 SNAIL
 11
129.0
 21
-65.0
 31
0.0
100
AcDbText
  0
LWPOLYLINE
  5
47
330
17
100
AcDbEntity
  8
CUTS
100
AcDbPolyline
 90
4
 70
1
 10
0.0
 20
-111.0
 10
80.0
 20
-111.0
 10
80.0
 20
-96.0
 10
0.0
 20
-96.0
  0
CIRCLE
  5
48
330
17
100
AcDbEntity
  8
CUTS
100
AcDbCircle
 10
75.0
 20
-103.5
 30
0.0
 40
1.5
  0
TEXT
  5
49
330
17
100
AcDbEntity
  8
ENGRAVE
100
AcDbText
 10
25.0
 20
-108.0
 30
0.0
 40
2.0
  1
FOL
 11
25.0
 21
-108.0
 31
0.0
100
AcDbText
  0
LWPOLYLINE
  5
4A
330
17
100
AcDbEntity
  8
CUTS
100
AcDbPolyline
 90
4
 70
1
 10
88.0
 20
-111.0
 10
148.0
 20
-111.0
 10
148.0
 20
-99.0
 10
88.0
 20
-99.0
  0
CIRCLE
  5
4B
330
17
100
AcDbEntity
  8
CUTS
100
AcDbCircle
 10
96.0
 20
-105.0
 30
0.0
 40
1.6
  0
TEXT
  5
4C
330
17
100
AcDbEntity
  8
ENGRAVE
100
AcDbText
 10
106.0
 20
-109.0
 30
0.0
 40
2.0
  1
M3 HANDLE
 11
106.0
 21
-109.0
 31
0.0
100
AcDbText
  0
ENDSEC
  0
SECTION
  2
OBJECTS
  0
DICTIONARY
  5
A
330
0
100
AcDbDictionary
281
1
  3
ACAD_COLOR
350
B
  3
ACAD_GROUP
350
C
  3
ACAD_LAYOUT
350
D
  3
ACAD_MATERIAL
350
E
  3
ACAD_MLEADERSTYLE
350
F
  3
ACAD_MLINESTYLE
350
10
  3
ACAD_PLOTSETTINGS
350
11
  3
ACAD_PLOTSTYLENAME
350
12
  3
ACAD_SCALELIST
350
14
  3
ACAD_TABLESTYLE
350
15
  3
ACAD_VISUALSTYLE
350
16
  3
EZDXF_META
350
2D
  0
DICTIONARY
  5
B
330
A
100
AcDbDictionary
281
1
  0
DICTIONARY
  5
C
330
A
100
AcDbDictionary
281
1
  0
DICTIONARY
  5
D
330
A
100
AcDbDictionary
281
1
  3
Model
350
1A
  3
Layout1
350
1E
  0
DICTIONARY
  5
E
330
A
100
AcDbDictionary
281
1
  3
ByBlock
350
1F
  3
ByLayer
350
20
  3
Global
350
21
  0
DICTIONARY
  5
F
330
A
100
AcDbDictionary
281
1
  3
Standard
350
2C
  0
DICTIONARY
  5
10
330
A
100
AcDbDictionary
281
1
  3
Standard
350
22
  0
DICTIONARY
  5
11
330
A
100
AcDbDictionary
281
1
  0
ACDBDICTIONARYWDFLT
  5
12
330
A
100
AcDbDictionary
281
1
  3
Normal
350
13
100
AcDbDictionaryWithDefault
340
13
  0
ACDBPLACEHOLDER
  5
13
330
12
  0
DICTIONARY
  5
14
330
A
100
AcDbDictionary
281
1
  0
DICTIONARY
  5
15
330
A
100
AcDbDictionary
281
1
  0
DICTIONARY
  5
16
330
A
100
AcDbDictionary
281
1
  0
LAYOUT
  5
1A
330
D
100
AcDbPlotSettings
  1

  4
A3
  6

 40
7.5
 41
20.0
 42
7.5
 43
20.0
 44
420.0
 45
297.0
 46
0.0
 47
0.0
 48
0.0
 49
0.0
140
0.0
141
0.0
142
1.0
143
1.0
 70
1024
 72
1
 73
0
 74
5
  7

 75
16
 76
0
 77
2
 78
300
147
1.0
148
0.0
149
0.0
100
AcDbLayout
  1
Model
 70
1
 71
0
 10
0.0
 20
0.0
 11
420.0
 21
297.0
 12
0.0
 22
0.0
 32
0.0
 14
1e+20
 24
1e+20
 34
1e+20
 15
-1e+20
 25
-1e+20
 35
-1e+20
146
0.0
 13
0.0
 23
0.0
 33
0.0
 16
1.0
 26
0.0
 36
0.0
 17
0.0
 27
1.0
 37
0.0
 76
1
330
17
  0
LAYOUT
  5
1E
330
D
100
AcDbPlotSettings
  1

  4
A3
  6

 40
7.5
 41
20.0
 42
7.5
 43
20.0
 44
420.0
 45
297.0
 46
0.0
 47
0.0
 48
0.0
 49
0.0
140
0.0
141
0.0
142
1.0
143
1.0
 70
0
 72
1
 73
0
 74
5
  7

 75
16
 76
0
 77
2
 78
300
147
1.0
148
0.0
149
0.0
100
AcDbLayout
  1
Layout1
 70
1
 71
1
 10
0.0
 20
0.0
 11
420.0
 21
297.0
 12
0.0
 22
0.0
 32
0.0
 14
1e+20
 24
1e+20
 34
1e+20
 15
-1e+20
 25
-1e+20
 35
-1e+20
146
0.0
 13
0.0
 23
0.0
 33
0.0
 16
1.0
 26
0.0
 36
0.0
 17
0.0
 27
1.0
 37
0.0
 76
1
330
1B
  0
MATERIAL
  5
1F
102
{ACAD_REACTORS
330
E
102
}
330
E
100
AcDbMaterial
  1
ByBlock
  2

 70
0
 40
1.0
 71
1
 41
1.0
 91
-1023410177
 42
1.0
 72
1
  3

 73
1
 74
1
 75
1
 44
0.5
 73
0
 45
1.0
 46
1.0
 77
1
  4

 78
1
 79
1
170
1
 48
1.0
171
1
  6

172
1
173
1
174
1
140
1.0
141
1.0
175
1
  7

176
1
177
1
178
1
143
1.0
179
1
  8

270
1
271
1
272
1
145
1.0
146
1.0
273
1
  9

274
1
275
1
276
1
 42
1.0
 72
1
  3

 73
1
 74
1
 75
1
 94
63
  0
MATERIAL
  5
20
102
{ACAD_REACTORS
330
E
102
}
330
E
100
AcDbMaterial
  1
ByLayer
  2

 70
0
 40
1.0
 71
1
 41
1.0
 91
-1023410177
 42
1.0
 72
1
  3

 73
1
 74
1
 75
1
 44
0.5
 73
0
 45
1.0
 46
1.0
 77
1
  4

 78
1
 79
1
170
1
 48
1.0
171
1
  6

172
1
173
1
174
1
140
1.0
141
1.0
175
1
  7

176
1
177
1
178
1
143
1.0
179
1
  8

270
1
271
1
272
1
145
1.0
146
1.0
273
1
  9

274
1
275
1
276
1
 42
1.0
 72
1
  3

 73
1
 74
1
 75
1
 94
63
  0
MATERIAL
  5
21
102
{ACAD_REACTORS
330
E
102
}
330
E
100
AcDbMaterial
  1
Global
  2

 70
0
 40
1.0
 71
1
 41
1.0
 91
-1023410177
 42
1.0
 72
1
  3

 73
1
 74
1
 75
1
 44
0.5
 73
0
 45
1.0
 46
1.0
 77
1
  4

 78
1
 79
1
170
1
 48
1.0
171
1
  6

172
1
173
1
174
1
140
1.0
141
1.0
175
1
  7

176
1
177
1
178
1
143
1.0
179
1
  8

270
1
271
1
272
1
145
1.0
146
1.0
273
1
  9

274
1
275
1
276
1
 42
1.0
 72
1
  3

 73
1
 74
1
 75
1
 94
63
  0
MLINESTYLE
  5
22
102
{ACAD_REACTORS
330
10
102
}
330
10
100
AcDbMlineStyle
  2
Standard
 70
0
  3

 62
256
 51
90.0
 52
90.0
 71
2
 49
0.5
 62
256
  6
BYLAYER
 49
-0.5
 62
256
  6
BYLAYER
  0
MLEADERSTYLE
  5
2C
102
{ACAD_REACTORS
330
F
102
}
330
F
100
AcDbMLeaderStyle
179
2
170
2
171
1
172
0
 90
2
 40
0.0
 41
0.0
173
1
 91
-1056964608
 92
-2
290
1
 42
2.0
291
1
 43
8.0
  3
Standard
 44
4.0
300

342
29
174
1
175
1
176
0
178
1
 93
-1056964608
 45
4.0
292
0
297
0
 46
4.0
 94
-1056964608
 47
1.0
 49
1.0
140
1.0
294
1
141
0.0
177
0
142
1.0
295
0
296
0
143
3.75
271
0
272
9
273
9
  0
DICTIONARY
  5
2D
330
A
100
AcDbDictionary
280
1
281
1
  3
CREATED_BY_EZDXF
350
2E
  3
WRITTEN_BY_EZDXF
350
4F
  0
DICTIONARYVAR
  5
2E
330
2D
100
DictionaryVariables
280
0
  1
1.4.3 @ 2026-03-26T11:16:32.961409+00:00
  0
DICTIONARYVAR
  5
4F
330
2D
100
DictionaryVariables
280
0
  1
1.4.3 @ 2026-03-26T11:16:32.962563+00:00
  0
ENDSEC
  0
EOF
