  0
SECTION
  2
HEADER
  9
$ACADVER
  1
AC1024
  9
$ACADMAINTVER
 70
6
  9
$DWGCODEPAGE
  3
ANSI_1252
  9
$LASTSAVEDBY
  1
ezdxf
  9
$INSBASE
 10
0.0
 20
0.0
 30
0.0
  9
$EXTMIN
 10
1e+20
 20
1e+20
 30
1e+20
  9
$EXTMAX
 10
-1e+20
 20
-1e+20
 30
-1e+20
  9
$LIMMIN
 10
0.0
 20
0.0
  9
$LIMMAX
 10
420.0
 20
297.0
  9
$ORTHOMODE
 70
0
  9
$REGENMODE
 70
1
  9
$FILLMODE
 70
1
  9
$QTEXTMODE
 70
0
  9
$MIRRTEXT
 70
1
  9
$LTSCALE
 40
1.0
  9
$ATTMODE
 70
1
  9
$TEXTSIZE
 40
2.5
  9
$TRACEWID
 40
1.0
  9
$TEXTSTYLE
  7
Standard
  9
$CLAYER
  8
0
  9
$CELTYPE
  6
ByLayer
  9
$CECOLOR
 62
256
  9
$CELTSCALE
 40
1.0
  9
$DISPSILH
 70
0
  9
$DIMSCALE
 40
1.0
  9
$DIMASZ
 40
2.5
  9
$DIMEXO
 40
0.625
  9
$DIMDLI
 40
3.75
  9
$DIMRND
 40
0.0
  9
$DIMDLE
 40
0.0
  9
$DIMEXE
 40
1.25
  9
$DIMTP
 40
0.0
  9
$DIMTM
 40
0.0
  9
$DIMTXT
 40
2.5
  9
$DIMCEN
 40
2.5
  9
$DIMTSZ
 40
0.0
  9
$DIMTOL
 70
0
  9
$DIMLIM
 70
0
  9
$DIMTIH
 70
0
  9
$DIMTOH
 70
0
  9
$DIMSE1
 70
0
  9
$DIMSE2
 70
0
  9
$DIMTAD
 70
1
  9
$DIMZIN
 70
8
  9
$DIMBLK
  1

  9
$DIMASO
 70
1
  9
$DIMSHO
 70
1
  9
$DIMPOST
  1

  9
$DIMAPOST
  1

  9
$DIMALT
 70
0
  9
$DIMALTD
 70
3
  9
$DIMALTF
 40
0.03937007874
  9
$DIMLFAC
 40
1.0
  9
$DIMTOFL
 70
1
  9
$DIMTVP
 40
0.0
  9
$DIMTIX
 70
0
  9
$DIMSOXD
 70
0
  9
$DIMSAH
 70
0
  9
$DIMBLK1
  1

  9
$DIMBLK2
  1

  9
$DIMSTYLE
  2
ISO-25
  9
$DIMCLRD
 70
0
  9
$DIMCLRE
 70
0
  9
$DIMCLRT
 70
0
  9
$DIMTFAC
 40
1.0
  9
$DIMGAP
 40
0.625
  9
$DIMJUST
 70
0
  9
$DIMSD1
 70
0
  9
$DIMSD2
 70
0
  9
$DIMTOLJ
 70
0
  9
$DIMTZIN
 70
8
  9
$DIMALTZ
 70
0
  9
$DIMALTTZ
 70
0
  9
$DIMUPT
 70
0
  9
$DIMDEC
 70
2
  9
$DIMTDEC
 70
2
  9
$DIMALTU
 70
2
  9
$DIMALTTD
 70
3
  9
$DIMTXSTY
  7
Standard
  9
$DIMAUNIT
 70
0
  9
$DIMADEC
 70
0
  9
$DIMALTRND
 40
0.0
  9
$DIMAZIN
 70
0
  9
$DIMDSEP
 70
44
  9
$DIMATFIT
 70
3
  9
$DIMFRAC
 70
0
  9
$DIMLDRBLK
  1

  9
$DIMLUNIT
 70
2
  9
$DIMLWD
 70
-2
  9
$DIMLWE
 70
-2
  9
$DIMTMOVE
 70
0
  9
$DIMFXL
 40
1.0
  9
$DIMFXLON
 70
0
  9
$DIMJOGANG
 40
0.785398163397
  9
$DIMTFILL
 70
0
  9
$DIMTFILLCLR
 70
0
  9
$DIMARCSYM
 70
0
  9
$DIMLTYPE
  6

  9
$DIMLTEX1
  6

  9
$DIMLTEX2
  6

  9
$DIMTXTDIRECTION
 70
0
  9
$LUNITS
 70
2
  9
$LUPREC
 70
4
  9
$SKETCHINC
 40
1.0
  9
$FILLETRAD
 40
10.0
  9
$AUNITS
 70
0
  9
$AUPREC
 70
2
  9
$MENU
  1
.
  9
$ELEVATION
 40
0.0
  9
$PELEVATION
 40
0.0
  9
$THICKNESS
 40
0.0
  9
$LIMCHECK
 70
0
  9
$CHAMFERA
 40
0.0
  9
$CHAMFERB
 40
0.0
  9
$CHAMFERC
 40
0.0
  9
$CHAMFERD
 40
0.0
  9
$SKPOLY
 70
0
  9
$TDCREATE
 40
2461119.632476852
  9
$TDUCREATE
 40
2458532.153996898
  9
$TDUPDATE
 40
2461119.632476852
  9
$TDUUPDATE
 40
2458532.1544311
  9
$TDINDWG
 40
0.0
  9
$TDUSRTIMER
 40
0.0
  9
$USRTIMER
 70
1
  9
$ANGBASE
 50
0.0
  9
$ANGDIR
 70
0
  9
$PDMODE
 70
0
  9
$PDSIZE
 40
0.0
  9
$PLINEWID
 40
0.0
  9
$SPLFRAME
 70
0
  9
$SPLINETYPE
 70
6
  9
$SPLINESEGS
 70
8
  9
$HANDSEED
  5
58
  9
$SURFTAB1
 70
6
  9
$SURFTAB2
 70
6
  9
$SURFTYPE
 70
6
  9
$SURFU
 70
6
  9
$SURFV
 70
6
  9
$UCSBASE
  2

  9
$UCSNAME
  2

  9
$UCSORG
 10
0.0
 20
0.0
 30
0.0
  9
$UCSXDIR
 10
1.0
 20
0.0
 30
0.0
  9
$UCSYDIR
 10
0.0
 20
1.0
 30
0.0
  9
$UCSORTHOREF
  2

  9
$UCSORTHOVIEW
 70
0
  9
$UCSORGTOP
 10
0.0
 20
0.0
 30
0.0
  9
$UCSORGBOTTOM
 10
0.0
 20
0.0
 30
0.0
  9
$UCSORGLEFT
 10
0.0
 20
0.0
 30
0.0
  9
$UCSORGRIGHT
 10
0.0
 20
0.0
 30
0.0
  9
$UCSORGFRONT
 10
0.0
 20
0.0
 30
0.0
  9
$UCSORGBACK
 10
0.0
 20
0.0
 30
0.0
  9
$PUCSBASE
  2

  9
$PUCSNAME
  2

  9
$PUCSORG
 10
0.0
 20
0.0
 30
0.0
  9
$PUCSXDIR
 10
1.0
 20
0.0
 30
0.0
  9
$PUCSYDIR
 10
0.0
 20
1.0
 30
0.0
  9
$PUCSORTHOREF
  2

  9
$PUCSORTHOVIEW
 70
0
  9
$PUCSORGTOP
 10
0.0
 20
0.0
 30
0.0
  9
$PUCSORGBOTTOM
 10
0.0
 20
0.0
 30
0.0
  9
$PUCSORGLEFT
 10
0.0
 20
0.0
 30
0.0
  9
$PUCSORGRIGHT
 10
0.0
 20
0.0
 30
0.0
  9
$PUCSORGFRONT
 10
0.0
 20
0.0
 30
0.0
  9
$PUCSORGBACK
 10
0.0
 20
0.0
 30
0.0
  9
$USERI1
 70
0
  9
$USERI2
 70
0
  9
$USERI3
 70
0
  9
$USERI4
 70
0
  9
$USERI5
 70
0
  9
$USERR1
 40
0.0
  9
$USERR2
 40
0.0
  9
$USERR3
 40
0.0
  9
$USERR4
 40
0.0
  9
$USERR5
 40
0.0
  9
$WORLDVIEW
 70
1
  9
$SHADEDGE
 70
3
  9
$SHADEDIF
 70
70
  9
$TILEMODE
 70
1
  9
$MAXACTVP
 70
64
  9
$PINSBASE
 10
0.0
 20
0.0
 30
0.0
  9
$PLIMCHECK
 70
0
  9
$PEXTMIN
 10
1e+20
 20
1e+20
 30
1e+20
  9
$PEXTMAX
 10
-1e+20
 20
-1e+20
 30
-1e+20
  9
$PLIMMIN
 10
0.0
 20
0.0
  9
$PLIMMAX
 10
420.0
 20
297.0
  9
$UNITMODE
 70
0
  9
$VISRETAIN
 70
1
  9
$PLINEGEN
 70
0
  9
$PSLTSCALE
 70
1
  9
$TREEDEPTH
 70
3020
  9
$CMLSTYLE
  2
Standard
  9
$CMLJUST
 70
0
  9
$CMLSCALE
 40
20.0
  9
$PROXYGRAPHICS
 70
1
  9
$MEASUREMENT
 70
1
  9
$CELWEIGHT
370
-1
  9
$ENDCAPS
280
0
  9
$JOINSTYLE
280
0
  9
$LWDISPLAY
290
0
  9
$INSUNITS
 70
6
  9
$HYPERLINKBASE
  1

  9
$STYLESHEET
  1

  9
$XEDIT
290
1
  9
$CEPSNTYPE
380
0
  9
$PSTYLEMODE
290
1
  9
$FINGERPRINTGUID
  2
{2CFF1BC4-C417-4B0C-ABDE-5DDEC0838867}
  9
$VERSIONGUID
  2
{6F782F5C-5BE4-4634-9F1A-8025671148B3}
  9
$EXTNAMES
290
1
  9
$PSVPSCALE
 40
0.0
  9
$OLESTARTUP
290
0
  9
$SORTENTS
280
127
  9
$INDEXCTL
280
0
  9
$HIDETEXT
280
1
  9
$XCLIPFRAME
280
1
  9
$HALOGAP
280
0
  9
$OBSCOLOR
 70
257
  9
$OBSLTYPE
280
0
  9
$INTERSECTIONDISPLAY
280
0
  9
$INTERSECTIONCOLOR
 70
257
  9
$DIMASSOC
280
2
  9
$PROJECTNAME
  1

  9
$CAMERADISPLAY
290
0
  9
$LENSLENGTH
 40
50.0
  9
$CAMERAHEIGHT
 40
0.0
  9
$STEPSPERSEC
 40
24.0
  9
$STEPSIZE
 40
100.0
  9
$3DDWFPREC
 40
2.0
  9
$PSOLWIDTH
 40
0.005
  9
$PSOLHEIGHT
 40
0.08
  9
$LOFTANG1
 40
1.570796326795
  9
$LOFTANG2
 40
1.570796326795
  9
$LOFTMAG1
 40
0.0
  9
$LOFTMAG2
 40
0.0
  9
$LOFTPARAM
 70
7
  9
$LOFTNORMALS
280
1
  9
$LATITUDE
 40
37.795
  9
$LONGITUDE
 40
-122.394
  9
$NORTHDIRECTION
 40
0.0
  9
$TIMEZONE
 70
-8000
  9
$LIGHTGLYPHDISPLAY
280
1
  9
$TILEMODELIGHTSYNCH
280
1
  9
$CMATERIAL
347
20
  9
$SOLIDHIST
280
0
  9
$SHOWHIST
280
1
  9
$DWFFRAME
280
2
  9
$DGNFRAME
280
2
  9
$REALWORLDSCALE
290
1
  9
$INTERFERECOLOR
 62
256
  9
$CSHADOW
280
0
  9
$SHADOWPLANELOCATION
 40
0.0
  0
ENDSEC
  0
SECTION
  2
CLASSES
  0
CLASS
  1
ACDBDICTIONARYWDFLT
  2
AcDbDictionaryWithDefault
  3
ObjectDBX Classes
 90
0
 91
0
280
0
281
0
  0
CLASS
  1
SUN
  2
AcDbSun
  3
SCENEOE
 90
1153
 91
0
280
0
281
0
  0
CLASS
  1
VISUALSTYLE
  2
AcDbVisualStyle
  3
ObjectDBX Classes
 90
4095
 91
0
280
0
281
0
  0
CLASS
  1
MATERIAL
  2
AcDbMaterial
  3
ObjectDBX Classes
 90
1153
 91
0
280
0
281
0
  0
CLASS
  1
SCALE
  2
AcDbScale
  3
ObjectDBX Classes
 90
1153
 91
0
280
0
281
0
  0
CLASS
  1
TABLESTYLE
  2
AcDbTableStyle
  3
ObjectDBX Classes
 90
4095
 91
0
280
0
281
0
  0
CLASS
  1
MLEADERSTYLE
  2
AcDbMLeaderStyle
  3
ACDB_MLEADERSTYLE_CLASS
 90
4095
 91
0
280
0
281
0
  0
CLASS
  1
DICTIONARYVAR
  2
AcDbDictionaryVar
  3
ObjectDBX Classes
 90
0
 91
0
280
0
281
0
  0
CLASS
  1
CELLSTYLEMAP
  2
AcDbCellStyleMap
  3
ObjectDBX Classes
 90
1152
 91
0
280
0
281
0
  0
CLASS
  1
MENTALRAYRENDERSETTINGS
  2
AcDbMentalRayRenderSettings
  3
SCENEOE
 90
1024
 91
0
280
0
281
0
  0
CLASS
  1
ACDBDETAILVIEWSTYLE
  2
AcDbDetailViewStyle
  3
ObjectDBX Classes
 90
1025
 91
0
280
0
281
0
  0
CLASS
  1
ACDBSECTIONVIEWSTYLE
  2
AcDbSectionViewStyle
  3
ObjectDBX Classes
 90
1025
 91
0
280
0
281
0
  0
CLASS
  1
RASTERVARIABLES
  2
AcDbRasterVariables
  3
ISM
 90
0
 91
0
280
0
281
0
  0
CLASS
  1
ACDBPLACEHOLDER
  2
AcDbPlaceHolder
  3
ObjectDBX Classes
 90
0
 91
0
280
0
281
0
  0
CLASS
  1
LAYOUT
  2
AcDbLayout
  3
ObjectDBX Classes
 90
0
 91
0
280
0
281
0
  0
ENDSEC
  0
SECTION
  2
TABLES
  0
TABLE
  2
VPORT
  5
8
330
0
100
AcDbSymbolTable
 70
1
  0
VPORT
  5
23
330
8
100
AcDbSymbolTableRecord
100
AcDbViewportTableRecord
  2
*Active
 70
0
 10
0.0
 20
0.0
 11
1.0
 21
1.0
 12
0.0
 22
0.0
 13
0.0
 23
0.0
 14
0.5
 24
0.5
 15
0.5
 25
0.5
 16
0.0
 26
0.0
 36
1.0
 17
0.0
 27
0.0
 37
0.0
 40
1000.0
 41
1.34
 42
50.0
 43
0.0
 44
0.0
 50
0.0
 51
0.0
 71
0
 72
1000
 73
1
 74
3
 75
0
 76
0
 77
0
 78
0
281
0
 65
0
146
0.0
  0
ENDTAB
  0
TABLE
  2
LTYPE
  5
2
330
0
100
AcDbSymbolTable
 70
3
  0
LTYPE
  5
24
330
2
100
AcDbSymbolTableRecord
100
AcDbLinetypeTableRecord
  2
ByBlock
 70
0
  3

 72
65
 73
0
 40
0.0
  0
LTYPE
  5
25
330
2
100
AcDbSymbolTableRecord
100
AcDbLinetypeTableRecord
  2
ByLayer
 70
0
  3

 72
65
 73
0
 40
0.0
  0
LTYPE
  5
26
330
2
100
AcDbSymbolTableRecord
100
AcDbLinetypeTableRecord
  2
Continuous
 70
0
  3

 72
65
 73
0
 40
0.0
  0
ENDTAB
  0
TABLE
  2
LAYER
  5
1
330
0
100
AcDbSymbolTable
 70
5
  0
LAYER
  5
27
330
1
100
AcDbSymbolTableRecord
100
AcDbLayerTableRecord
  2
0
 70
0
 62
7
  6
Continuous
370
-3
390
13
347
21
  0
LAYER
  5
28
330
1
100
AcDbSymbolTableRecord
100
AcDbLayerTableRecord
  2
Defpoints
 70
0
 62
7
  6
Continuous
290
0
370
-3
390
13
347
21
  0
LAYER
  5
2F
330
1
100
AcDbSymbolTableRecord
100
AcDbLayerTableRecord
  2
CUTS
 70
0
 62
7
  6
Continuous
370
-3
390
13
347
21
  0
LAYER
  5
30
330
1
100
AcDbSymbolTableRecord
100
AcDbLayerTableRecord
  2
ENGRAVE
 70
0
 62
1
  6
Continuous
370
-3
390
13
347
21
  0
LAYER
  5
31
330
1
100
AcDbSymbolTableRecord
100
AcDbLayerTableRecord
  2
GUIDE
 70
0
 62
3
  6
Continuous
370
-3
390
13
347
21
  0
ENDTAB
  0
TABLE
  2
STYLE
  5
5
330
0
100
AcDbSymbolTable
 70
1
  0
STYLE
  5
29
330
5
100
AcDbSymbolTableRecord
100
AcDbTextStyleTableRecord
  2
Standard
 70
0
 40
0.0
 41
1.0
 50
0.0
 71
0
 42
2.5
  3
txt
  4

  0
ENDTAB
  0
TABLE
  2
VIEW
  5
7
330
0
100
AcDbSymbolTable
 70
0
  0
ENDTAB
  0
TABLE
  2
UCS
  5
6
330
0
100
AcDbSymbolTable
 70
0
  0
ENDTAB
  0
TABLE
  2
APPID
  5
3
330
0
100
AcDbSymbolTable
 70
3
  0
APPID
  5
2A
330
3
100
AcDbSymbolTableRecord
100
AcDbRegAppTableRecord
  2
ACAD
 70
0
  0
APPID
  5
55
330
3
100
AcDbSymbolTableRecord
100
AcDbRegAppTableRecord
  2
HATCHBACKGROUNDCOLOR
 70
0
  0
APPID
  5
56
330
3
100
AcDbSymbolTableRecord
100
AcDbRegAppTableRecord
  2
EZDXF
 70
0
  0
ENDTAB
  0
TABLE
  2
DIMSTYLE
  5
4
330
0
100
AcDbSymbolTable
 70
1
100
AcDbDimStyleTable
  0
DIMSTYLE
105
2B
330
4
100
AcDbSymbolTableRecord
100
AcDbDimStyleTableRecord
  2
Standard
 70
0
 40
1.0
 41
2.5
 42
0.625
 43
3.75
 44
1.25
 45
0.0
 46
0.0
 47
0.0
 48
0.0
 49
2.5
140
2.5
141
2.5
142
0.0
143
0.03937007874
144
1.0
145
0.0
146
1.0
147
0.625
148
0.0
 69
0
 70
0
 71
0
 72
0
 73
0
 74
0
 75
0
 76
0
 77
1
 78
8
 79
3
170
0
171
3
172
1
173
0
174
0
175
0
176
0
177
0
178
0
179
2
271
2
272
2
273
2
274
3
275
0
276
0
277
2
278
44
279
0
280
0
281
0
282
0
283
0
284
8
285
0
286
0
288
0
289
3
290
0
371
-2
372
-2
  0
ENDTAB
  0
TABLE
  2
BLOCK_RECORD
  5
9
330
0
100
AcDbSymbolTable
 70
2
  0
BLOCK_RECORD
  5
17
330
9
100
AcDbSymbolTableRecord
100
AcDbBlockTableRecord
  2
*Model_Space
340
1A
 70
0
280
1
281
0
  0
BLOCK_RECORD
  5
1B
330
9
100
AcDbSymbolTableRecord
100
AcDbBlockTableRecord
  2
*Paper_Space
340
1E
 70
0
280
1
281
0
  0
ENDTAB
  0
ENDSEC
  0
SECTION
  2
BLOCKS
  0
BLOCK
  5
18
330
17
100
AcDbEntity
  8
0
100
AcDbBlockBegin
  2
*Model_Space
 70
0
 10
0.0
 20
0.0
 30
0.0
  3
*Model_Space
  1

  0
ENDBLK
  5
19
330
17
100
AcDbEntity
  8
0
100
AcDbBlockEnd
  0
BLOCK
  5
1C
330
1B
100
AcDbEntity
  8
0
100
AcDbBlockBegin
  2
*Paper_Space
 70
0
 10
0.0
 20
0.0
 30
0.0
  3
*Paper_Space
  1

  0
ENDBLK
  5
1D
330
1B
100
AcDbEntity
  8
0
100
AcDbBlockEnd
  0
ENDSEC
  0
SECTION
  2
ENTITIES
  0
LWPOLYLINE
  5
32
330
17
100
AcDbEntity
  8
CUTS
100
AcDbPolyline
 90
4
 70
1
 10
0.0
 20
0.0
 10
160.0
 20
0.0
 10
160.0
 20
100.0
 10
0.0
 20
100.0
  0
TEXT
  5
33
330
17
100
AcDbEntity
  8
ENGRAVE
100
AcDbText
 10
5.0
 20
92.0
 30
0.0
 40
3.0
  1
M4 BASE
 11
5.0
 21
92.0
 31
0.0
100
AcDbText
  0
LWPOLYLINE
  5
34
330
17
100
AcDbEntity
  8
CUTS
100
AcDbPolyline
 90
4
 70
1
 10
38.55
 20
30.0
 10
41.449999999999996
 20
30.0
 10
41.449999999999996
 20
40.0
 10
38.55
 20
40.0
  0
LWPOLYLINE
  5
35
330
17
100
AcDbEntity
  8
CUTS
100
AcDbPolyline
 90
4
 70
1
 10
38.55
 20
60.0
 10
41.449999999999996
 20
60.0
 10
41.449999999999996
 20
70.0
 10
38.55
 20
70.0
  0
LWPOLYLINE
  5
36
330
17
100
AcDbEntity
  8
CUTS
100
AcDbPolyline
 90
4
 70
1
 10
118.55
 20
30.0
 10
121.45
 20
30.0
 10
121.45
 20
40.0
 10
118.55
 20
40.0
  0
LWPOLYLINE
  5
37
330
17
100
AcDbEntity
  8
CUTS
100
AcDbPolyline
 90
4
 70
1
 10
118.55
 20
60.0
 10
121.45
 20
60.0
 10
121.45
 20
70.0
 10
118.55
 20
70.0
  0
LWPOLYLINE
  5
38
330
17
100
AcDbEntity
  8
CUTS
100
AcDbPolyline
 90
4
 70
1
 10
78.55
 20
20.0
 10
81.45
 20
20.0
 10
81.45
 20
30.0
 10
78.55
 20
30.0
  0
LWPOLYLINE
  5
39
330
17
100
AcDbEntity
  8
CUTS
100
AcDbPolyline
 90
4
 70
1
 10
168.0
 20
0.0
 10
218.0
 20
0.0
 10
218.0
 20
70.0
 10
168.0
 20
70.0
  0
LWPOLYLINE
  5
3A
330
17
100
AcDbEntity
  8
CUTS
100
AcDbPolyline
 90
4
 70
1
 10
173.0
 20
-3.0
 10
183.0
 20
-3.0
 10
183.0
 20
0.0
 10
173.0
 20
0.0
  0
LWPOLYLINE
  5
3B
330
17
100
AcDbEntity
  8
CUTS
100
AcDbPolyline
 90
4
 70
1
 10
203.0
 20
-3.0
 10
213.0
 20
-3.0
 10
213.0
 20
0.0
 10
203.0
 20
0.0
  0
CIRCLE
  5
3C
330
17
100
AcDbEntity
  8
CUTS
100
AcDbCircle
 10
183.0
 20
45.0
 30
0.0
 40
2.9
  0
CIRCLE
  5
3D
330
17
100
AcDbEntity
  8
CUTS
100
AcDbCircle
 10
203.0
 20
45.0
 30
0.0
 40
1.6
  0
TEXT
  5
3E
330
17
100
AcDbEntity
  8
ENGRAVE
100
AcDbText
 10
171.0
 20
60.0
 30
0.0
 40
3.0
  1
M4 AX L
 11
171.0
 21
60.0
 31
0.0
100
AcDbText
  0
LWPOLYLINE
  5
3F
330
17
100
AcDbEntity
  8
CUTS
100
AcDbPolyline
 90
4
 70
1
 10
226.0
 20
0.0
 10
276.0
 20
0.0
 10
276.0
 20
70.0
 10
226.0
 20
70.0
  0
LWPOLYLINE
  5
40
330
17
100
AcDbEntity
  8
CUTS
100
AcDbPolyline
 90
4
 70
1
 10
231.0
 20
-3.0
 10
241.0
 20
-3.0
 10
241.0
 20
0.0
 10
231.0
 20
0.0
  0
LWPOLYLINE
  5
41
330
17
100
AcDbEntity
  8
CUTS
100
AcDbPolyline
 90
4
 70
1
 10
261.0
 20
-3.0
 10
271.0
 20
-3.0
 10
271.0
 20
0.0
 10
261.0
 20
0.0
  0
CIRCLE
  5
42
330
17
100
AcDbEntity
  8
CUTS
100
AcDbCircle
 10
241.0
 20
45.0
 30
0.0
 40
2.9
  0
CIRCLE
  5
43
330
17
100
AcDbEntity
  8
CUTS
100
AcDbCircle
 10
261.0
 20
45.0
 30
0.0
 40
1.6
  0
TEXT
  5
44
330
17
100
AcDbEntity
  8
ENGRAVE
100
AcDbText
 10
229.0
 20
60.0
 30
0.0
 40
3.0
  1
M4 AX R
 11
229.0
 21
60.0
 31
0.0
100
AcDbText
  0
LWPOLYLINE
  5
45
330
17
100
AcDbEntity
  8
CUTS
100
AcDbPolyline
 90
4
 70
1
 10
0.0
 20
-58.0
 10
80.0
 20
-58.0
 10
80.0
 20
-18.0
 10
0.0
 20
-18.0
  0
LWPOLYLINE
  5
46
330
17
100
AcDbEntity
  8
CUTS
100
AcDbPolyline
 90
4
 70
1
 10
28.0
 20
-48.0
 10
52.0
 20
-48.0
 10
52.0
 20
-28.0
 10
28.0
 20
-28.0
  0
CIRCLE
  5
47
330
17
100
AcDbEntity
  8
CUTS
100
AcDbCircle
 10
12.0
 20
-38.0
 30
0.0
 40
1.6
  0
CIRCLE
  5
48
330
17
100
AcDbEntity
  8
CUTS
100
AcDbCircle
 10
68.0
 20
-38.0
 30
0.0
 40
1.6
  0
LWPOLYLINE
  5
49
330
17
100
AcDbEntity
  8
CUTS
100
AcDbPolyline
 90
4
 70
1
 10
35.0
 20
-61.0
 10
45.0
 20
-61.0
 10
45.0
 20
-58.0
 10
35.0
 20
-58.0
  0
TEXT
  5
4A
330
17
100
AcDbEntity
  8
ENGRAVE
100
AcDbText
 10
5.0
 20
-26.0
 30
0.0
 40
3.0
  1
M4 TT MOUNT
 11
5.0
 21
-26.0
 31
0.0
100
AcDbText
  0
LWPOLYLINE
  5
4B
330
17
100
AcDbEntity
  8
CUTS
100
AcDbPolyline
 90
72
 70
1
 10
115.99222294236016
 20
-38.466580251714554
 10
116.0
 20
-38.0
 10
115.99222294236016
 20
-37.533419748285446
 10
111.25314206736495
 20
-35.84840480546149
 10
111.17629534974614
 20
-35.54121907152605
 10
111.08925369243376
 20
-35.2367650634484
 10
114.35091064935662
 20
-31.40795887970886
 10
114.12435565298215
 20
-31.0
 10
113.88433039764207
 20
-30.59981817793098
 10
108.93765849789524
 20
-31.510092869186657
 10
108.7175144212722
 20
-31.2824855787278
 10
108.48990713081335
 20
-31.062341502104754
 10
109.40018182206902
 20
-26.115669602357933
 10
109.0
 20
-25.87564434701786
 10
108.59204112029114
 20
-25.64908935064338
 10
104.7632349365516
 20
-28.910746307566242
 10
104.45878092847394
 20
-28.823704650253852
 10
104.15159519453852
 20
-28.746857932635056
 10
102.46658025171455
 20
-24.007777057639842
 10
102.0
 20
-24.0
 10
101.53341974828545
 20
-24.007777057639842
 10
99.84840480546148
 20
-28.746857932635056
 10
99.54121907152606
 20
-28.823704650253852
 10
99.2367650634484
 20
-28.910746307566242
 10
95.40795887970886
 20
-25.64908935064338
 10
95.0
 20
-25.875644347017857
 10
94.59981817793098
 20
-26.11566960235793
 10
95.51009286918665
 20
-31.062341502104754
 10
95.2824855787278
 20
-31.282485578727798
 10
95.06234150210476
 20
-31.510092869186654
 10
90.11566960235794
 20
-30.599818177930977
 10
89.87564434701787
 20
-30.999999999999996
 10
89.64908935064338
 20
-31.407958879708854
 10
92.91074630756624
 20
-35.2367650634484
 10
92.82370465025386
 20
-35.54121907152605
 10
92.74685793263505
 20
-35.848404805461485
 10
88.00777705763984
 20
-37.533419748285446
 10
88.0
 20
-38.0
 10
88.00777705763984
 20
-38.46658025171455
 10
92.74685793263505
 20
-40.151595194538515
 10
92.82370465025386
 20
-40.45878092847395
 10
92.91074630756624
 20
-40.7632349365516
 10
89.64908935064338
 20
-44.59204112029114
 10
89.87564434701785
 20
-45.0
 10
90.11566960235793
 20
-45.400181822069015
 10
95.06234150210476
 20
-44.48990713081334
 10
95.2824855787278
 20
-44.7175144212722
 10
95.51009286918665
 20
-44.93765849789524
 10
94.59981817793098
 20
-49.88433039764207
 10
95.0
 20
-50.12435565298214
 10
95.40795887970886
 20
-50.350910649356614
 10
99.23676506344839
 20
-47.08925369243376
 10
99.54121907152604
 20
-47.17629534974615
 10
99.84840480546148
 20
-47.25314206736494
 10
101.53341974828545
 20
-51.99222294236016
 10
102.0
 20
-52.0
 10
102.46658025171455
 20
-51.99222294236016
 10
104.1515951945385
 20
-47.25314206736495
 10
104.45878092847394
 20
-47.17629534974615
 10
104.7632349365516
 20
-47.08925369243376
 10
108.59204112029113
 20
-50.35091064935662
 10
108.99999999999999
 20
-50.124355652982146
 10
109.400181822069
 20
-49.884330397642074
 10
108.48990713081334
 20
-44.93765849789525
 10
108.7175144212722
 20
-44.71751442127221
 10
108.93765849789524
 20
-44.48990713081335
 10
113.88433039764206
 20
-45.40018182206902
 10
114.12435565298213
 20
-45.00000000000001
 10
114.35091064935662
 20
-44.59204112029115
 10
111.08925369243376
 20
-40.763234936551605
 10
111.17629534974614
 20
-40.458780928473956
 10
111.25314206736493
 20
-40.15159519453852
  0
CIRCLE
  5
4C
330
17
100
AcDbEntity
  8
CUTS
100
AcDbCircle
 10
102.0
 20
-38.0
 30
0.0
 40
2.9
  0
TEXT
  5
4D
330
17
100
AcDbEntity
  8
ENGRAVE
100
AcDbText
 10
96.0
 20
-40.0
 30
0.0
 40
2.0
  1
M4 SM
 11
96.0
 21
-40.0
 31
0.0
100
AcDbText
  0
LWPOLYLINE
  5
4E
330
17
100
AcDbEntity
  8
CUTS
100
AcDbPolyline
 90
216
 70
1
 10
199.99765434512005
 20
-38.4222135345758
 10
200.0
 20
-38.0
 10
199.99765434512005
 20
-37.5777864654242
 10
195.4029030117536
 20
-35.451261020155016
 10
195.37252238607348
 20
-35.08028261795345
 10
195.33802173828855
 20
-34.70966467097953
 10
199.49370120621765
 20
-31.817575729628924
 10
199.42269461446392
 20
-31.401369248656646
 10
199.34706798448684
 20
-30.985977405075047
 10
194.45285397989105
 20
-29.689628855468
 10
194.35851518068378
 20
-29.329561989065553
 10
194.26018154415857
 20
-28.970565536096352
 10
197.8505209288926
 20
-25.400787757679637
 10
197.70831958986452
 20
-25.003234553624587
 10
197.56170986167328
 20
-24.607285872006003
 10
192.51674140178596
 20
-24.18050311275688
 10
192.36131086572777
 20
-23.842288231686567
 10
192.20213205824885
 20
-23.505821198284583
 10
195.11804071438203
 20
-19.36682047420424
 10
194.9089653438087
 20
-19.000000000000004
 10
194.69582717980623
 20
-18.63552518067571
 10
189.65339307840387
 20
-19.091275789961802
 10
189.44159348368123
 20
-18.785189382239956
 10
189.2264060727655
 20
-18.481475148954573
 10
191.3792855913022
 20
-13.899012921776354
 10
191.10968883852115
 20
-13.57407083191151
 10
190.83649833396763
 20
-13.252144257833521
 10
185.94981039962656
 20
-14.576580484012606
 10
185.68807716974933
 20
-14.311922830250658
 10
185.4234195159874
 20
-14.050189600373432
 10
186.74785574216648
 20
-9.163501666032374
 10
186.4259291680885
 20
-8.890311161478834
 10
186.10098707822365
 20
-8.620714408697804
 10
181.5185248510454
 20
-10.7735939272345
 10
181.21481061776004
 20
-10.558406516318776
 10
180.9087242100382
 20
-10.346606921596127
 10
181.3644748193243
 20
-5.304172820193777
 10
181.0
 20
-5.091034656191333
 10
180.63317952579575
 20
-4.881959285617974
 10
176.49417880171544
 20
-7.7978679417511465
 10
176.15771176831345
 20
-7.63868913427223
 10
175.81949688724313
 20
-7.483258598214036
 10
175.392714127994
 20
-2.438290138326728
 10
174.9967654463754
 20
-2.291680410135484
 10
174.59921224232036
 20
-2.1494790711074216
 10
171.02943446390364
 20
-5.739818455841437
 10
170.67043801093445
 20
-5.641484819316219
 10
170.310371144532
 20
-5.547146020108961
 10
169.01402259492497
 20
-0.6529320155131586
 10
168.59863075134336
 20
-0.5773053855360928
 10
168.1824242703711
 20
-0.5062987937823493
 10
165.29033532902048
 20
-4.661978261711454
 10
164.91971738204654
 20
-4.627477613926523
 10
164.54873897984498
 20
-4.597096988246385
 10
162.4222135345758
 20
-0.0023456548799458687
 10
162.0
 20
0.0
 10
161.5777864654242
 20
-0.0023456548799458687
 10
159.45126102015502
 20
-4.597096988246385
 10
159.08028261795346
 20
-4.627477613926523
 10
158.70966467097955
 20
-4.661978261711454
 10
155.8175757296289
 20
-0.5062987937823493
 10
155.40136924865664
 20
-0.5773053855360928
 10
154.98597740507506
 20
-0.6529320155131586
 10
153.68962885546802
 20
-5.547146020108954
 10
153.32956198906555
 20
-5.6414848193162115
 10
152.97056553609636
 20
-5.73981845584143
 10
149.40078775767964
 20
-2.1494790711074216
 10
149.0032345536246
 20
-2.291680410135477
 10
148.607285872006
 20
-2.438290138326728
 10
148.1805031127569
 20
-7.483258598214032
 10
147.84228823168658
 20
-7.638689134272223
 10
147.5058211982846
 20
-7.797867941751139
 10
143.36682047420425
 20
-4.881959285617967
 10
143.0
 20
-5.091034656191326
 10
142.6355251806757
 20
-5.30417282019377
 10
143.0912757899618
 20
-10.346606921596116
 10
142.78518938223996
 20
-10.558406516318769
 10
142.4814751489546
 20
-10.773593927234494
 10
137.89901292177635
 20
-8.620714408697804
 10
137.5740708319115
 20
-8.890311161478834
 10
137.25214425783352
 20
-9.163501666032374
 10
138.5765804840126
 20
-14.050189600373432
 10
138.31192283025067
 20
-14.311922830250655
 10
138.05018960037344
 20
-14.576580484012602
 10
133.16350166603237
 20
-13.25214425783351
 10
132.89031116147885
 20
-13.574070831911499
 10
132.6207144086978
 20
-13.899012921776347
 10
134.77359392723451
 20
-18.481475148954566
 10
134.55840651631877
 20
-18.785189382239945
 10
134.34660692159613
 20
-19.09127578996179
 10
129.30417282019377
 20
-18.63552518067571
 10
129.0910346561913
 20
-19.000000000000004
 10
128.88195928561797
 20
-19.36682047420424
 10
131.79786794175115
 20
-23.505821198284583
 10
131.63868913427223
 20
-23.842288231686567
 10
131.48325859821404
 20
-24.180503112756877
 10
126.43829013832672
 20
-24.607285872005995
 10
126.29168041013548
 20
-25.003234553624583
 10
126.14947907110742
 20
-25.40078775767963
 10
129.73981845584143
 20
-28.970565536096345
 10
129.64148481931622
 20
-29.329561989065546
 10
129.54714602010895
 20
-29.68962885546799
 10
124.65293201551316
 20
-30.985977405075033
 10
124.57730538553609
 20
-31.401369248656632
 10
124.50629879378235
 20
-31.81757572962891
 10
128.66197826171145
 20
-34.709664670979514
 10
128.62747761392652
 20
-35.080282617953436
 10
128.5970969882464
 20
-35.451261020155
 10
124.00234565487995
 20
-37.57778646542419
 10
124.0
 20
-37.99999999999999
 10
124.00234565487995
 20
-38.422213534575796
 10
128.5970969882464
 20
-40.54873897984498
 10
128.62747761392652
 20
-40.91971738204654
 10
128.66197826171145
 20
-41.29033532902046
 10
124.50629879378235
 20
-44.182424270371065
 10
124.57730538553609
 20
-44.59863075134334
 10
124.65293201551316
 20
-45.01402259492494
 10
129.54714602010895
 20
-46.310371144531985
 10
129.6414848193162
 20
-46.67043801093443
 10
129.73981845584143
 20
-47.029434463903634
 10
126.14947907110742
 20
-50.59921224232036
 10
126.29168041013548
 20
-50.996765446375406
 10
126.43829013832672
 20
-51.392714127994
 10
131.48325859821404
 20
-51.81949688724311
 10
131.63868913427223
 20
-52.157711768313426
 10
131.79786794175115
 20
-52.49417880171541
 10
128.88195928561797
 20
-56.633179525795754
 10
129.0910346561913
 20
-56.99999999999999
 10
129.30417282019377
 20
-57.36447481932428
 10
134.3466069215961
 20
-56.90872421003819
 10
134.55840651631877
 20
-57.21481061776004
 10
134.7735939272345
 20
-57.51852485104541
 10
132.6207144086978
 20
-62.100987078223646
 10
132.89031116147885
 20
-62.42592916808849
 10
133.16350166603237
 20
-62.74785574216648
 10
138.05018960037344
 20
-61.42341951598739
 10
138.31192283025064
 20
-61.68807716974934
 10
138.5765804840126
 20
-61.949810399626564
 10
137.25214425783352
 20
-66.83649833396761
 10
137.5740708319115
 20
-67.10968883852115
 10
137.89901292177635
 20
-67.37928559130219
 10
142.48147514895456
 20
-65.22640607276549
 10
142.78518938223993
 20
-65.44159348368122
 10
143.0912757899618
 20
-65.65339307840387
 10
142.6355251806757
 20
-70.69582717980622
 10
142.99999999999997
 20
-70.90896534380866
 10
143.36682047420422
 20
-71.11804071438202
 10
147.50582119828456
 20
-68.20213205824885
 10
147.84228823168655
 20
-68.36131086572777
 10
148.18050311275687
 20
-68.51674140178596
 10
148.60728587200597
 20
-73.56170986167326
 10
149.00323455362457
 20
-73.70831958986452
 10
149.4007877576796
 20
-73.85052092889256
 10
152.97056553609633
 20
-70.26018154415857
 10
153.32956198906552
 20
-70.35851518068378
 10
153.689628855468
 20
-70.45285397989105
 10
154.98597740507506
 20
-75.34706798448684
 10
155.40136924865664
 20
-75.42269461446391
 10
155.8175757296289
 20
-75.49370120621765
 10
158.70966467097952
 20
-71.33802173828855
 10
159.08028261795346
 20
-71.37252238607348
 10
159.45126102015502
 20
-71.40290301175361
 10
161.5777864654242
 20
-75.99765434512005
 10
162.0
 20
-76.0
 10
162.4222135345758
 20
-75.99765434512005
 10
164.54873897984498
 20
-71.40290301175361
 10
164.91971738204654
 20
-71.37252238607348
 10
165.29033532902045
 20
-71.33802173828855
 10
168.18242427037106
 20
-75.49370120621765
 10
168.59863075134334
 20
-75.42269461446391
 10
169.01402259492494
 20
-75.34706798448684
 10
170.31037114453198
 20
-70.45285397989105
 10
170.67043801093442
 20
-70.3585151806838
 10
171.02943446390364
 20
-70.26018154415857
 10
174.59921224232033
 20
-73.85052092889259
 10
174.99676544637538
 20
-73.70831958986452
 10
175.39271412799397
 20
-73.56170986167328
 10
175.8194968872431
 20
-68.51674140178598
 10
176.15771176831342
 20
-68.36131086572779
 10
176.4941788017154
 20
-68.20213205824888
 10
180.63317952579575
 20
-71.11804071438203
 10
181.0
 20
-70.90896534380866
 10
181.3644748193243
 20
-70.69582717980623
 10
180.9087242100382
 20
-65.65339307840387
 10
181.21481061776004
 20
-65.44159348368123
 10
181.5185248510454
 20
-65.2264060727655
 10
186.10098707822365
 20
-67.37928559130219
 10
186.4259291680885
 20
-67.10968883852117
 10
186.74785574216648
 20
-66.83649833396763
 10
185.4234195159874
 20
-61.94981039962657
 10
185.68807716974933
 20
-61.68807716974935
 10
185.94981039962656
 20
-61.423419515987405
 10
190.83649833396763
 20
-62.74785574216649
 10
191.10968883852115
 20
-62.4259291680885
 10
191.3792855913022
 20
-62.10098707822366
 10
189.22640607276549
 20
-57.51852485104544
 10
189.44159348368123
 20
-57.21481061776006
 10
189.65339307840387
 20
-56.908724210038216
 10
194.6958271798062
 20
-57.364474819324315
 10
194.90896534380866
 20
-57.000000000000014
 10
195.118040714382
 20
-56.63317952579578
 10
192.20213205824885
 20
-52.494178801715435
 10
192.36131086572777
 20
-52.15771176831345
 10
192.51674140178596
 20
-51.81949688724314
 10
197.56170986167325
 20
-51.392714127994026
 10
197.70831958986452
 20
-50.996765446375434
 10
197.85052092889256
 20
-50.59921224232039
 10
194.26018154415857
 20
-47.02943446390367
 10
194.35851518068378
 20
-46.670438010934475
 10
194.45285397989105
 20
-46.31037114453203
 10
199.34706798448684
 20
-45.01402259492495
 10
199.42269461446392
 20
-44.59863075134336
 10
199.49370120621765
 20
-44.18242427037108
 10
195.33802173828855
 20
-41.29033532902047
 10
195.37252238607348
 20
-40.91971738204656
 10
195.4029030117536
 20
-40.54873897984499
  0
CIRCLE
  5
4F
330
17
100
AcDbEntity
  8
CUTS
100
AcDbCircle
 10
162.0
 20
-38.0
 30
0.0
 40
1.6
  0
TEXT
  5
50
330
17
100
AcDbEntity
  8
ENGRAVE
100
AcDbText
 10
156.0
 20
-40.0
 30
0.0
 40
2.0
  1
M4 LG
 11
156.0
 21
-40.0
 31
0.0
100
AcDbText
  0
CIRCLE
  5
51
330
17
100
AcDbEntity
  8
CUTS
100
AcDbCircle
 10
228.0
 20
-38.0
 30
0.0
 40
20.0
  0
CIRCLE
  5
52
330
17
100
AcDbEntity
  8
CUTS
100
AcDbCircle
 10
228.0
 20
-38.0
 30
0.0
 40
1.6
  0
CIRCLE
  5
53
330
17
100
AcDbEntity
  8
CUTS
100
AcDbCircle
 10
243.0
 20
-38.0
 30
0.0
 40
1.5
  0
TEXT
  5
54
330
17
100
AcDbEntity
  8
ENGRAVE
100
AcDbText
 10
218.0
 20
-40.0
 30
0.0
 40
3.0
  1
M4 DRUM
 11
218.0
 21
-40.0
 31
0.0
100
AcDbText
  0
ENDSEC
  0
SECTION
  2
OBJECTS
  0
DICTIONARY
  5
A
330
0
100
AcDbDictionary
281
1
  3
ACAD_COLOR
350
B
  3
ACAD_GROUP
350
C
  3
ACAD_LAYOUT
350
D
  3
ACAD_MATERIAL
350
E
  3
ACAD_MLEADERSTYLE
350
F
  3
ACAD_MLINESTYLE
350
10
  3
ACAD_PLOTSETTINGS
350
11
  3
ACAD_PLOTSTYLENAME
350
12
  3
ACAD_SCALELIST
350
14
  3
ACAD_TABLESTYLE
350
15
  3
ACAD_VISUALSTYLE
350
16
  3
EZDXF_META
350
2D
  0
DICTIONARY
  5
B
330
A
100
AcDbDictionary
281
1
  0
DICTIONARY
  5
C
330
A
100
AcDbDictionary
281
1
  0
DICTIONARY
  5
D
330
A
100
AcDbDictionary
281
1
  3
Model
350
1A
  3
Layout1
350
1E
  0
DICTIONARY
  5
E
330
A
100
AcDbDictionary
281
1
  3
ByBlock
350
1F
  3
ByLayer
350
20
  3
Global
350
21
  0
DICTIONARY
  5
F
330
A
100
AcDbDictionary
281
1
  3
Standard
350
2C
  0
DICTIONARY
  5
10
330
A
100
AcDbDictionary
281
1
  3
Standard
350
22
  0
DICTIONARY
  5
11
330
A
100
AcDbDictionary
281
1
  0
ACDBDICTIONARYWDFLT
  5
12
330
A
100
AcDbDictionary
281
1
  3
Normal
350
13
100
AcDbDictionaryWithDefault
340
13
  0
ACDBPLACEHOLDER
  5
13
330
12
  0
DICTIONARY
  5
14
330
A
100
AcDbDictionary
281
1
  0
DICTIONARY
  5
15
330
A
100
AcDbDictionary
281
1
  0
DICTIONARY
  5
16
330
A
100
AcDbDictionary
281
1
  0
LAYOUT
  5
1A
330
D
100
AcDbPlotSettings
  1

  4
A3
  6

 40
7.5
 41
20.0
 42
7.5
 43
20.0
 44
420.0
 45
297.0
 46
0.0
 47
0.0
 48
0.0
 49
0.0
140
0.0
141
0.0
142
1.0
143
1.0
 70
1024
 72
1
 73
0
 74
5
  7

 75
16
 76
0
 77
2
 78
300
147
1.0
148
0.0
149
0.0
100
AcDbLayout
  1
Model
 70
1
 71
0
 10
0.0
 20
0.0
 11
420.0
 21
297.0
 12
0.0
 22
0.0
 32
0.0
 14
1e+20
 24
1e+20
 34
1e+20
 15
-1e+20
 25
-1e+20
 35
-1e+20
146
0.0
 13
0.0
 23
0.0
 33
0.0
 16
1.0
 26
0.0
 36
0.0
 17
0.0
 27
1.0
 37
0.0
 76
1
330
17
  0
LAYOUT
  5
1E
330
D
100
AcDbPlotSettings
  1

  4
A3
  6

 40
7.5
 41
20.0
 42
7.5
 43
20.0
 44
420.0
 45
297.0
 46
0.0
 47
0.0
 48
0.0
 49
0.0
140
0.0
141
0.0
142
1.0
143
1.0
 70
0
 72
1
 73
0
 74
5
  7

 75
16
 76
0
 77
2
 78
300
147
1.0
148
0.0
149
0.0
100
AcDbLayout
  1
Layout1
 70
1
 71
1
 10
0.0
 20
0.0
 11
420.0
 21
297.0
 12
0.0
 22
0.0
 32
0.0
 14
1e+20
 24
1e+20
 34
1e+20
 15
-1e+20
 25
-1e+20
 35
-1e+20
146
0.0
 13
0.0
 23
0.0
 33
0.0
 16
1.0
 26
0.0
 36
0.0
 17
0.0
 27
1.0
 37
0.0
 76
1
330
1B
  0
MATERIAL
  5
1F
102
{ACAD_REACTORS
330
E
102
}
330
E
100
AcDbMaterial
  1
ByBlock
  2

 70
0
 40
1.0
 71
1
 41
1.0
 91
-1023410177
 42
1.0
 72
1
  3

 73
1
 74
1
 75
1
 44
0.5
 73
0
 45
1.0
 46
1.0
 77
1
  4

 78
1
 79
1
170
1
 48
1.0
171
1
  6

172
1
173
1
174
1
140
1.0
141
1.0
175
1
  7

176
1
177
1
178
1
143
1.0
179
1
  8

270
1
271
1
272
1
145
1.0
146
1.0
273
1
  9

274
1
275
1
276
1
 42
1.0
 72
1
  3

 73
1
 74
1
 75
1
 94
63
  0
MATERIAL
  5
20
102
{ACAD_REACTORS
330
E
102
}
330
E
100
AcDbMaterial
  1
ByLayer
  2

 70
0
 40
1.0
 71
1
 41
1.0
 91
-1023410177
 42
1.0
 72
1
  3

 73
1
 74
1
 75
1
 44
0.5
 73
0
 45
1.0
 46
1.0
 77
1
  4

 78
1
 79
1
170
1
 48
1.0
171
1
  6

172
1
173
1
174
1
140
1.0
141
1.0
175
1
  7

176
1
177
1
178
1
143
1.0
179
1
  8

270
1
271
1
272
1
145
1.0
146
1.0
273
1
  9

274
1
275
1
276
1
 42
1.0
 72
1
  3

 73
1
 74
1
 75
1
 94
63
  0
MATERIAL
  5
21
102
{ACAD_REACTORS
330
E
102
}
330
E
100
AcDbMaterial
  1
Global
  2

 70
0
 40
1.0
 71
1
 41
1.0
 91
-1023410177
 42
1.0
 72
1
  3

 73
1
 74
1
 75
1
 44
0.5
 73
0
 45
1.0
 46
1.0
 77
1
  4

 78
1
 79
1
170
1
 48
1.0
171
1
  6

172
1
173
1
174
1
140
1.0
141
1.0
175
1
  7

176
1
177
1
178
1
143
1.0
179
1
  8

270
1
271
1
272
1
145
1.0
146
1.0
273
1
  9

274
1
275
1
276
1
 42
1.0
 72
1
  3

 73
1
 74
1
 75
1
 94
63
  0
MLINESTYLE
  5
22
102
{ACAD_REACTORS
330
10
102
}
330
10
100
AcDbMlineStyle
  2
Standard
 70
0
  3

 62
256
 51
90.0
 52
90.0
 71
2
 49
0.5
 62
256
  6
BYLAYER
 49
-0.5
 62
256
  6
BYLAYER
  0
MLEADERSTYLE
  5
2C
102
{ACAD_REACTORS
330
F
102
}
330
F
100
AcDbMLeaderStyle
179
2
170
2
171
1
172
0
 90
2
 40
0.0
 41
0.0
173
1
 91
-1056964608
 92
-2
290
1
 42
2.0
291
1
 43
8.0
  3
Standard
 44
4.0
300

342
29
174
1
175
1
176
0
178
1
 93
-1056964608
 45
4.0
292
0
297
0
 46
4.0
 94
-1056964608
 47
1.0
 49
1.0
140
1.0
294
1
141
0.0
177
0
142
1.0
295
0
296
0
143
3.75
271
0
272
9
273
9
  0
DICTIONARY
  5
2D
330
A
100
AcDbDictionary
280
1
281
1
  3
CREATED_BY_EZDXF
350
2E
  3
WRITTEN_BY_EZDXF
350
57
  0
DICTIONARYVAR
  5
2E
330
2D
100
DictionaryVariables
280
0
  1
1.4.3 @ 2026-03-19T12:10:46.570792+00:00
  0
DICTIONARYVAR
  5
57
330
2D
100
DictionaryVariables
280
0
  1
1.4.3 @ 2026-03-19T12:10:46.572125+00:00
  0
ENDSEC
  0
EOF
