  0
SECTION
  2
HEADER
  9
$ACADVER
  1
AC1024
  9
$ACADMAINTVER
 70
6
  9
$DWGCODEPAGE
  3
ANSI_1252
  9
$LASTSAVEDBY
  1
ezdxf
  9
$INSBASE
 10
0.0
 20
0.0
 30
0.0
  9
$EXTMIN
 10
1e+20
 20
1e+20
 30
1e+20
  9
$EXTMAX
 10
-1e+20
 20
-1e+20
 30
-1e+20
  9
$LIMMIN
 10
0.0
 20
0.0
  9
$LIMMAX
 10
420.0
 20
297.0
  9
$ORTHOMODE
 70
0
  9
$REGENMODE
 70
1
  9
$FILLMODE
 70
1
  9
$QTEXTMODE
 70
0
  9
$MIRRTEXT
 70
1
  9
$LTSCALE
 40
1.0
  9
$ATTMODE
 70
1
  9
$TEXTSIZE
 40
2.5
  9
$TRACEWID
 40
1.0
  9
$TEXTSTYLE
  7
Standard
  9
$CLAYER
  8
0
  9
$CELTYPE
  6
ByLayer
  9
$CECOLOR
 62
256
  9
$CELTSCALE
 40
1.0
  9
$DISPSILH
 70
0
  9
$DIMSCALE
 40
1.0
  9
$DIMASZ
 40
2.5
  9
$DIMEXO
 40
0.625
  9
$DIMDLI
 40
3.75
  9
$DIMRND
 40
0.0
  9
$DIMDLE
 40
0.0
  9
$DIMEXE
 40
1.25
  9
$DIMTP
 40
0.0
  9
$DIMTM
 40
0.0
  9
$DIMTXT
 40
2.5
  9
$DIMCEN
 40
2.5
  9
$DIMTSZ
 40
0.0
  9
$DIMTOL
 70
0
  9
$DIMLIM
 70
0
  9
$DIMTIH
 70
0
  9
$DIMTOH
 70
0
  9
$DIMSE1
 70
0
  9
$DIMSE2
 70
0
  9
$DIMTAD
 70
1
  9
$DIMZIN
 70
8
  9
$DIMBLK
  1

  9
$DIMASO
 70
1
  9
$DIMSHO
 70
1
  9
$DIMPOST
  1

  9
$DIMAPOST
  1

  9
$DIMALT
 70
0
  9
$DIMALTD
 70
3
  9
$DIMALTF
 40
0.03937007874
  9
$DIMLFAC
 40
1.0
  9
$DIMTOFL
 70
1
  9
$DIMTVP
 40
0.0
  9
$DIMTIX
 70
0
  9
$DIMSOXD
 70
0
  9
$DIMSAH
 70
0
  9
$DIMBLK1
  1

  9
$DIMBLK2
  1

  9
$DIMSTYLE
  2
ISO-25
  9
$DIMCLRD
 70
0
  9
$DIMCLRE
 70
0
  9
$DIMCLRT
 70
0
  9
$DIMTFAC
 40
1.0
  9
$DIMGAP
 40
0.625
  9
$DIMJUST
 70
0
  9
$DIMSD1
 70
0
  9
$DIMSD2
 70
0
  9
$DIMTOLJ
 70
0
  9
$DIMTZIN
 70
8
  9
$DIMALTZ
 70
0
  9
$DIMALTTZ
 70
0
  9
$DIMUPT
 70
0
  9
$DIMDEC
 70
2
  9
$DIMTDEC
 70
2
  9
$DIMALTU
 70
2
  9
$DIMALTTD
 70
3
  9
$DIMTXSTY
  7
Standard
  9
$DIMAUNIT
 70
0
  9
$DIMADEC
 70
0
  9
$DIMALTRND
 40
0.0
  9
$DIMAZIN
 70
0
  9
$DIMDSEP
 70
44
  9
$DIMATFIT
 70
3
  9
$DIMFRAC
 70
0
  9
$DIMLDRBLK
  1

  9
$DIMLUNIT
 70
2
  9
$DIMLWD
 70
-2
  9
$DIMLWE
 70
-2
  9
$DIMTMOVE
 70
0
  9
$DIMFXL
 40
1.0
  9
$DIMFXLON
 70
0
  9
$DIMJOGANG
 40
0.785398163397
  9
$DIMTFILL
 70
0
  9
$DIMTFILLCLR
 70
0
  9
$DIMARCSYM
 70
0
  9
$DIMLTYPE
  6

  9
$DIMLTEX1
  6

  9
$DIMLTEX2
  6

  9
$DIMTXTDIRECTION
 70
0
  9
$LUNITS
 70
2
  9
$LUPREC
 70
4
  9
$SKETCHINC
 40
1.0
  9
$FILLETRAD
 40
10.0
  9
$AUNITS
 70
0
  9
$AUPREC
 70
2
  9
$MENU
  1
.
  9
$ELEVATION
 40
0.0
  9
$PELEVATION
 40
0.0
  9
$THICKNESS
 40
0.0
  9
$LIMCHECK
 70
0
  9
$CHAMFERA
 40
0.0
  9
$CHAMFERB
 40
0.0
  9
$CHAMFERC
 40
0.0
  9
$CHAMFERD
 40
0.0
  9
$SKPOLY
 70
0
  9
$TDCREATE
 40
2461119.632476852
  9
$TDUCREATE
 40
2458532.153996898
  9
$TDUPDATE
 40
2461119.632476852
  9
$TDUUPDATE
 40
2458532.1544311
  9
$TDINDWG
 40
0.0
  9
$TDUSRTIMER
 40
0.0
  9
$USRTIMER
 70
1
  9
$ANGBASE
 50
0.0
  9
$ANGDIR
 70
0
  9
$PDMODE
 70
0
  9
$PDSIZE
 40
0.0
  9
$PLINEWID
 40
0.0
  9
$SPLFRAME
 70
0
  9
$SPLINETYPE
 70
6
  9
$SPLINESEGS
 70
8
  9
$HANDSEED
  5
71
  9
$SURFTAB1
 70
6
  9
$SURFTAB2
 70
6
  9
$SURFTYPE
 70
6
  9
$SURFU
 70
6
  9
$SURFV
 70
6
  9
$UCSBASE
  2

  9
$UCSNAME
  2

  9
$UCSORG
 10
0.0
 20
0.0
 30
0.0
  9
$UCSXDIR
 10
1.0
 20
0.0
 30
0.0
  9
$UCSYDIR
 10
0.0
 20
1.0
 30
0.0
  9
$UCSORTHOREF
  2

  9
$UCSORTHOVIEW
 70
0
  9
$UCSORGTOP
 10
0.0
 20
0.0
 30
0.0
  9
$UCSORGBOTTOM
 10
0.0
 20
0.0
 30
0.0
  9
$UCSORGLEFT
 10
0.0
 20
0.0
 30
0.0
  9
$UCSORGRIGHT
 10
0.0
 20
0.0
 30
0.0
  9
$UCSORGFRONT
 10
0.0
 20
0.0
 30
0.0
  9
$UCSORGBACK
 10
0.0
 20
0.0
 30
0.0
  9
$PUCSBASE
  2

  9
$PUCSNAME
  2

  9
$PUCSORG
 10
0.0
 20
0.0
 30
0.0
  9
$PUCSXDIR
 10
1.0
 20
0.0
 30
0.0
  9
$PUCSYDIR
 10
0.0
 20
1.0
 30
0.0
  9
$PUCSORTHOREF
  2

  9
$PUCSORTHOVIEW
 70
0
  9
$PUCSORGTOP
 10
0.0
 20
0.0
 30
0.0
  9
$PUCSORGBOTTOM
 10
0.0
 20
0.0
 30
0.0
  9
$PUCSORGLEFT
 10
0.0
 20
0.0
 30
0.0
  9
$PUCSORGRIGHT
 10
0.0
 20
0.0
 30
0.0
  9
$PUCSORGFRONT
 10
0.0
 20
0.0
 30
0.0
  9
$PUCSORGBACK
 10
0.0
 20
0.0
 30
0.0
  9
$USERI1
 70
0
  9
$USERI2
 70
0
  9
$USERI3
 70
0
  9
$USERI4
 70
0
  9
$USERI5
 70
0
  9
$USERR1
 40
0.0
  9
$USERR2
 40
0.0
  9
$USERR3
 40
0.0
  9
$USERR4
 40
0.0
  9
$USERR5
 40
0.0
  9
$WORLDVIEW
 70
1
  9
$SHADEDGE
 70
3
  9
$SHADEDIF
 70
70
  9
$TILEMODE
 70
1
  9
$MAXACTVP
 70
64
  9
$PINSBASE
 10
0.0
 20
0.0
 30
0.0
  9
$PLIMCHECK
 70
0
  9
$PEXTMIN
 10
1e+20
 20
1e+20
 30
1e+20
  9
$PEXTMAX
 10
-1e+20
 20
-1e+20
 30
-1e+20
  9
$PLIMMIN
 10
0.0
 20
0.0
  9
$PLIMMAX
 10
420.0
 20
297.0
  9
$UNITMODE
 70
0
  9
$VISRETAIN
 70
1
  9
$PLINEGEN
 70
0
  9
$PSLTSCALE
 70
1
  9
$TREEDEPTH
 70
3020
  9
$CMLSTYLE
  2
Standard
  9
$CMLJUST
 70
0
  9
$CMLSCALE
 40
20.0
  9
$PROXYGRAPHICS
 70
1
  9
$MEASUREMENT
 70
1
  9
$CELWEIGHT
370
-1
  9
$ENDCAPS
280
0
  9
$JOINSTYLE
280
0
  9
$LWDISPLAY
290
0
  9
$INSUNITS
 70
6
  9
$HYPERLINKBASE
  1

  9
$STYLESHEET
  1

  9
$XEDIT
290
1
  9
$CEPSNTYPE
380
0
  9
$PSTYLEMODE
290
1
  9
$FINGERPRINTGUID
  2
{17637EBE-95DF-4D7B-8A80-6A906764FC2C}
  9
$VERSIONGUID
  2
{8B6A7D98-2FB4-4985-92A2-A61FE1AE19C2}
  9
$EXTNAMES
290
1
  9
$PSVPSCALE
 40
0.0
  9
$OLESTARTUP
290
0
  9
$SORTENTS
280
127
  9
$INDEXCTL
280
0
  9
$HIDETEXT
280
1
  9
$XCLIPFRAME
280
1
  9
$HALOGAP
280
0
  9
$OBSCOLOR
 70
257
  9
$OBSLTYPE
280
0
  9
$INTERSECTIONDISPLAY
280
0
  9
$INTERSECTIONCOLOR
 70
257
  9
$DIMASSOC
280
2
  9
$PROJECTNAME
  1

  9
$CAMERADISPLAY
290
0
  9
$LENSLENGTH
 40
50.0
  9
$CAMERAHEIGHT
 40
0.0
  9
$STEPSPERSEC
 40
24.0
  9
$STEPSIZE
 40
100.0
  9
$3DDWFPREC
 40
2.0
  9
$PSOLWIDTH
 40
0.005
  9
$PSOLHEIGHT
 40
0.08
  9
$LOFTANG1
 40
1.570796326795
  9
$LOFTANG2
 40
1.570796326795
  9
$LOFTMAG1
 40
0.0
  9
$LOFTMAG2
 40
0.0
  9
$LOFTPARAM
 70
7
  9
$LOFTNORMALS
280
1
  9
$LATITUDE
 40
37.795
  9
$LONGITUDE
 40
-122.394
  9
$NORTHDIRECTION
 40
0.0
  9
$TIMEZONE
 70
-8000
  9
$LIGHTGLYPHDISPLAY
280
1
  9
$TILEMODELIGHTSYNCH
280
1
  9
$CMATERIAL
347
20
  9
$SOLIDHIST
280
0
  9
$SHOWHIST
280
1
  9
$DWFFRAME
280
2
  9
$DGNFRAME
280
2
  9
$REALWORLDSCALE
290
1
  9
$INTERFERECOLOR
 62
256
  9
$CSHADOW
280
0
  9
$SHADOWPLANELOCATION
 40
0.0
  0
ENDSEC
  0
SECTION
  2
CLASSES
  0
CLASS
  1
ACDBDICTIONARYWDFLT
  2
AcDbDictionaryWithDefault
  3
ObjectDBX Classes
 90
0
 91
0
280
0
281
0
  0
CLASS
  1
SUN
  2
AcDbSun
  3
SCENEOE
 90
1153
 91
0
280
0
281
0
  0
CLASS
  1
VISUALSTYLE
  2
AcDbVisualStyle
  3
ObjectDBX Classes
 90
4095
 91
0
280
0
281
0
  0
CLASS
  1
MATERIAL
  2
AcDbMaterial
  3
ObjectDBX Classes
 90
1153
 91
0
280
0
281
0
  0
CLASS
  1
SCALE
  2
AcDbScale
  3
ObjectDBX Classes
 90
1153
 91
0
280
0
281
0
  0
CLASS
  1
TABLESTYLE
  2
AcDbTableStyle
  3
ObjectDBX Classes
 90
4095
 91
0
280
0
281
0
  0
CLASS
  1
MLEADERSTYLE
  2
AcDbMLeaderStyle
  3
ACDB_MLEADERSTYLE_CLASS
 90
4095
 91
0
280
0
281
0
  0
CLASS
  1
DICTIONARYVAR
  2
AcDbDictionaryVar
  3
ObjectDBX Classes
 90
0
 91
0
280
0
281
0
  0
CLASS
  1
CELLSTYLEMAP
  2
AcDbCellStyleMap
  3
ObjectDBX Classes
 90
1152
 91
0
280
0
281
0
  0
CLASS
  1
MENTALRAYRENDERSETTINGS
  2
AcDbMentalRayRenderSettings
  3
SCENEOE
 90
1024
 91
0
280
0
281
0
  0
CLASS
  1
ACDBDETAILVIEWSTYLE
  2
AcDbDetailViewStyle
  3
ObjectDBX Classes
 90
1025
 91
0
280
0
281
0
  0
CLASS
  1
ACDBSECTIONVIEWSTYLE
  2
AcDbSectionViewStyle
  3
ObjectDBX Classes
 90
1025
 91
0
280
0
281
0
  0
CLASS
  1
RASTERVARIABLES
  2
AcDbRasterVariables
  3
ISM
 90
0
 91
0
280
0
281
0
  0
CLASS
  1
ACDBPLACEHOLDER
  2
AcDbPlaceHolder
  3
ObjectDBX Classes
 90
0
 91
0
280
0
281
0
  0
CLASS
  1
LAYOUT
  2
AcDbLayout
  3
ObjectDBX Classes
 90
0
 91
0
280
0
281
0
  0
ENDSEC
  0
SECTION
  2
TABLES
  0
TABLE
  2
VPORT
  5
8
330
0
100
AcDbSymbolTable
 70
1
  0
VPORT
  5
23
330
8
100
AcDbSymbolTableRecord
100
AcDbViewportTableRecord
  2
*Active
 70
0
 10
0.0
 20
0.0
 11
1.0
 21
1.0
 12
0.0
 22
0.0
 13
0.0
 23
0.0
 14
0.5
 24
0.5
 15
0.5
 25
0.5
 16
0.0
 26
0.0
 36
1.0
 17
0.0
 27
0.0
 37
0.0
 40
1000.0
 41
1.34
 42
50.0
 43
0.0
 44
0.0
 50
0.0
 51
0.0
 71
0
 72
1000
 73
1
 74
3
 75
0
 76
0
 77
0
 78
0
281
0
 65
0
146
0.0
  0
ENDTAB
  0
TABLE
  2
LTYPE
  5
2
330
0
100
AcDbSymbolTable
 70
3
  0
LTYPE
  5
24
330
2
100
AcDbSymbolTableRecord
100
AcDbLinetypeTableRecord
  2
ByBlock
 70
0
  3

 72
65
 73
0
 40
0.0
  0
LTYPE
  5
25
330
2
100
AcDbSymbolTableRecord
100
AcDbLinetypeTableRecord
  2
ByLayer
 70
0
  3

 72
65
 73
0
 40
0.0
  0
LTYPE
  5
26
330
2
100
AcDbSymbolTableRecord
100
AcDbLinetypeTableRecord
  2
Continuous
 70
0
  3

 72
65
 73
0
 40
0.0
  0
ENDTAB
  0
TABLE
  2
LAYER
  5
1
330
0
100
AcDbSymbolTable
 70
5
  0
LAYER
  5
27
330
1
100
AcDbSymbolTableRecord
100
AcDbLayerTableRecord
  2
0
 70
0
 62
7
  6
Continuous
370
-3
390
13
347
21
  0
LAYER
  5
28
330
1
100
AcDbSymbolTableRecord
100
AcDbLayerTableRecord
  2
Defpoints
 70
0
 62
7
  6
Continuous
290
0
370
-3
390
13
347
21
  0
LAYER
  5
2F
330
1
100
AcDbSymbolTableRecord
100
AcDbLayerTableRecord
  2
CUTS
 70
0
 62
7
  6
Continuous
370
-3
390
13
347
21
  0
LAYER
  5
30
330
1
100
AcDbSymbolTableRecord
100
AcDbLayerTableRecord
  2
ENGRAVE
 70
0
 62
1
  6
Continuous
370
-3
390
13
347
21
  0
LAYER
  5
31
330
1
100
AcDbSymbolTableRecord
100
AcDbLayerTableRecord
  2
GUIDE
 70
0
 62
3
  6
Continuous
370
-3
390
13
347
21
  0
ENDTAB
  0
TABLE
  2
STYLE
  5
5
330
0
100
AcDbSymbolTable
 70
1
  0
STYLE
  5
29
330
5
100
AcDbSymbolTableRecord
100
AcDbTextStyleTableRecord
  2
Standard
 70
0
 40
0.0
 41
1.0
 50
0.0
 71
0
 42
2.5
  3
txt
  4

  0
ENDTAB
  0
TABLE
  2
VIEW
  5
7
330
0
100
AcDbSymbolTable
 70
0
  0
ENDTAB
  0
TABLE
  2
UCS
  5
6
330
0
100
AcDbSymbolTable
 70
0
  0
ENDTAB
  0
TABLE
  2
APPID
  5
3
330
0
100
AcDbSymbolTable
 70
3
  0
APPID
  5
2A
330
3
100
AcDbSymbolTableRecord
100
AcDbRegAppTableRecord
  2
ACAD
 70
0
  0
APPID
  5
6E
330
3
100
AcDbSymbolTableRecord
100
AcDbRegAppTableRecord
  2
HATCHBACKGROUNDCOLOR
 70
0
  0
APPID
  5
6F
330
3
100
AcDbSymbolTableRecord
100
AcDbRegAppTableRecord
  2
EZDXF
 70
0
  0
ENDTAB
  0
TABLE
  2
DIMSTYLE
  5
4
330
0
100
AcDbSymbolTable
 70
1
100
AcDbDimStyleTable
  0
DIMSTYLE
105
2B
330
4
100
AcDbSymbolTableRecord
100
AcDbDimStyleTableRecord
  2
Standard
 70
0
 40
1.0
 41
2.5
 42
0.625
 43
3.75
 44
1.25
 45
0.0
 46
0.0
 47
0.0
 48
0.0
 49
2.5
140
2.5
141
2.5
142
0.0
143
0.03937007874
144
1.0
145
0.0
146
1.0
147
0.625
148
0.0
 69
0
 70
0
 71
0
 72
0
 73
0
 74
0
 75
0
 76
0
 77
1
 78
8
 79
3
170
0
171
3
172
1
173
0
174
0
175
0
176
0
177
0
178
0
179
2
271
2
272
2
273
2
274
3
275
0
276
0
277
2
278
44
279
0
280
0
281
0
282
0
283
0
284
8
285
0
286
0
288
0
289
3
290
0
371
-2
372
-2
  0
ENDTAB
  0
TABLE
  2
BLOCK_RECORD
  5
9
330
0
100
AcDbSymbolTable
 70
2
  0
BLOCK_RECORD
  5
17
330
9
100
AcDbSymbolTableRecord
100
AcDbBlockTableRecord
  2
*Model_Space
340
1A
 70
0
280
1
281
0
  0
BLOCK_RECORD
  5
1B
330
9
100
AcDbSymbolTableRecord
100
AcDbBlockTableRecord
  2
*Paper_Space
340
1E
 70
0
280
1
281
0
  0
ENDTAB
  0
ENDSEC
  0
SECTION
  2
BLOCKS
  0
BLOCK
  5
18
330
17
100
AcDbEntity
  8
0
100
AcDbBlockBegin
  2
*Model_Space
 70
0
 10
0.0
 20
0.0
 30
0.0
  3
*Model_Space
  1

  0
ENDBLK
  5
19
330
17
100
AcDbEntity
  8
0
100
AcDbBlockEnd
  0
BLOCK
  5
1C
330
1B
100
AcDbEntity
  8
0
100
AcDbBlockBegin
  2
*Paper_Space
 70
0
 10
0.0
 20
0.0
 30
0.0
  3
*Paper_Space
  1

  0
ENDBLK
  5
1D
330
1B
100
AcDbEntity
  8
0
100
AcDbBlockEnd
  0
ENDSEC
  0
SECTION
  2
ENTITIES
  0
LWPOLYLINE
  5
32
330
17
100
AcDbEntity
  8
CUTS
100
AcDbPolyline
 90
4
 70
1
 10
0.0
 20
0.0
 10
200.0
 20
0.0
 10
200.0
 20
150.0
 10
0.0
 20
150.0
  0
TEXT
  5
33
330
17
100
AcDbEntity
  8
ENGRAVE
100
AcDbText
 10
5.0
 20
142.0
 30
0.0
 40
3.0
  1
M6 BASE
 11
5.0
 21
142.0
 31
0.0
100
AcDbText
  0
LWPOLYLINE
  5
34
330
17
100
AcDbEntity
  8
CUTS
100
AcDbPolyline
 90
4
 70
1
 10
88.55
 20
50.0
 10
91.45
 20
50.0
 10
91.45
 20
60.0
 10
88.55
 20
60.0
  0
LWPOLYLINE
  5
35
330
17
100
AcDbEntity
  8
CUTS
100
AcDbPolyline
 90
4
 70
1
 10
88.55
 20
90.0
 10
91.45
 20
90.0
 10
91.45
 20
100.0
 10
88.55
 20
100.0
  0
LWPOLYLINE
  5
36
330
17
100
AcDbEntity
  8
CUTS
100
AcDbPolyline
 90
4
 70
1
 10
108.55
 20
50.0
 10
111.45
 20
50.0
 10
111.45
 20
60.0
 10
108.55
 20
60.0
  0
LWPOLYLINE
  5
37
330
17
100
AcDbEntity
  8
CUTS
100
AcDbPolyline
 90
4
 70
1
 10
108.55
 20
90.0
 10
111.45
 20
90.0
 10
111.45
 20
100.0
 10
108.55
 20
100.0
  0
CIRCLE
  5
38
330
17
100
AcDbEntity
  8
CUTS
100
AcDbCircle
 10
30.0
 20
75.0
 30
0.0
 40
5.0
  0
CIRCLE
  5
39
330
17
100
AcDbEntity
  8
CUTS
100
AcDbCircle
 10
55.0
 20
75.0
 30
0.0
 40
5.0
  0
CIRCLE
  5
3A
330
17
100
AcDbEntity
  8
CUTS
100
AcDbCircle
 10
170.0
 20
30.0
 30
0.0
 40
1.6
  0
LWPOLYLINE
  5
3B
330
17
100
AcDbEntity
  8
CUTS
100
AcDbPolyline
 90
4
 70
1
 10
208.0
 20
0.0
 10
248.0
 20
0.0
 10
248.0
 20
250.0
 10
208.0
 20
250.0
  0
LWPOLYLINE
  5
3C
330
17
100
AcDbEntity
  8
CUTS
100
AcDbPolyline
 90
4
 70
1
 10
213.0
 20
-3.0
 10
223.0
 20
-3.0
 10
223.0
 20
0.0
 10
213.0
 20
0.0
  0
LWPOLYLINE
  5
3D
330
17
100
AcDbEntity
  8
CUTS
100
AcDbPolyline
 90
4
 70
1
 10
233.0
 20
-3.0
 10
243.0
 20
-3.0
 10
243.0
 20
0.0
 10
233.0
 20
0.0
  0
LWPOLYLINE
  5
3E
330
17
100
AcDbEntity
  8
CUTS
100
AcDbPolyline
 90
4
 70
1
 10
223.0
 20
238.55
 10
233.0
 20
238.55
 10
233.0
 20
241.45000000000002
 10
223.0
 20
241.45000000000002
  0
LWPOLYLINE
  5
3F
330
17
100
AcDbEntity
  8
CUTS
100
AcDbPolyline
 90
4
 70
1
 10
223.0
 20
78.55
 10
233.0
 20
78.55
 10
233.0
 20
81.45
 10
223.0
 20
81.45
  0
LWPOLYLINE
  5
40
330
17
100
AcDbEntity
  8
CUTS
100
AcDbPolyline
 90
4
 70
1
 10
223.0
 20
158.55
 10
233.0
 20
158.55
 10
233.0
 20
161.45000000000002
 10
223.0
 20
161.45000000000002
  0
CIRCLE
  5
41
330
17
100
AcDbEntity
  8
CUTS
100
AcDbCircle
 10
228.0
 20
225.0
 30
0.0
 40
2.0
  0
TEXT
  5
42
330
17
100
AcDbEntity
  8
ENGRAVE
100
AcDbText
 10
210.0
 20
240.0
 30
0.0
 40
2.0
  1
M6 TWR L
 11
210.0
 21
240.0
 31
0.0
100
AcDbText
  0
LWPOLYLINE
  5
43
330
17
100
AcDbEntity
  8
CUTS
100
AcDbPolyline
 90
4
 70
1
 10
256.0
 20
0.0
 10
296.0
 20
0.0
 10
296.0
 20
250.0
 10
256.0
 20
250.0
  0
LWPOLYLINE
  5
44
330
17
100
AcDbEntity
  8
CUTS
100
AcDbPolyline
 90
4
 70
1
 10
261.0
 20
-3.0
 10
271.0
 20
-3.0
 10
271.0
 20
0.0
 10
261.0
 20
0.0
  0
LWPOLYLINE
  5
45
330
17
100
AcDbEntity
  8
CUTS
100
AcDbPolyline
 90
4
 70
1
 10
281.0
 20
-3.0
 10
291.0
 20
-3.0
 10
291.0
 20
0.0
 10
281.0
 20
0.0
  0
LWPOLYLINE
  5
46
330
17
100
AcDbEntity
  8
CUTS
100
AcDbPolyline
 90
4
 70
1
 10
271.0
 20
238.55
 10
281.0
 20
238.55
 10
281.0
 20
241.45000000000002
 10
271.0
 20
241.45000000000002
  0
LWPOLYLINE
  5
47
330
17
100
AcDbEntity
  8
CUTS
100
AcDbPolyline
 90
4
 70
1
 10
271.0
 20
78.55
 10
281.0
 20
78.55
 10
281.0
 20
81.45
 10
271.0
 20
81.45
  0
LWPOLYLINE
  5
48
330
17
100
AcDbEntity
  8
CUTS
100
AcDbPolyline
 90
4
 70
1
 10
271.0
 20
158.55
 10
281.0
 20
158.55
 10
281.0
 20
161.45000000000002
 10
271.0
 20
161.45000000000002
  0
CIRCLE
  5
49
330
17
100
AcDbEntity
  8
CUTS
100
AcDbCircle
 10
276.0
 20
225.0
 30
0.0
 40
2.0
  0
TEXT
  5
4A
330
17
100
AcDbEntity
  8
ENGRAVE
100
AcDbText
 10
258.0
 20
240.0
 30
0.0
 40
2.0
  1
M6 TWR R
 11
258.0
 21
240.0
 31
0.0
100
AcDbText
  0
LWPOLYLINE
  5
4B
330
17
100
AcDbEntity
  8
CUTS
100
AcDbPolyline
 90
4
 70
1
 10
0.0
 20
-38.0
 10
220.0
 20
-38.0
 10
220.0
 20
-13.0
 10
0.0
 20
-13.0
  0
LWPOLYLINE
  5
4C
330
17
100
AcDbEntity
  8
CUTS
100
AcDbPolyline
 90
4
 70
1
 10
5.0
 20
-41.0
 10
15.0
 20
-41.0
 10
15.0
 20
-38.0
 10
5.0
 20
-38.0
  0
CIRCLE
  5
4D
330
17
100
AcDbEntity
  8
CUTS
100
AcDbCircle
 10
205.0
 20
-25.5
 30
0.0
 40
1.6
  0
CIRCLE
  5
4E
330
17
100
AcDbEntity
  8
CUTS
100
AcDbCircle
 10
205.0
 20
-16.0
 30
0.0
 40
2.0
  0
TEXT
  5
4F
330
17
100
AcDbEntity
  8
ENGRAVE
100
AcDbText
 10
5.0
 20
-21.0
 30
0.0
 40
3.0
  1
M6 JIB
 11
5.0
 21
-21.0
 31
0.0
100
AcDbText
  0
LWPOLYLINE
  5
50
330
17
100
AcDbEntity
  8
CUTS
100
AcDbPolyline
 90
4
 70
1
 10
228.0
 20
-38.0
 10
248.0
 20
-38.0
 10
248.0
 20
-18.0
 10
228.0
 20
-18.0
  0
LWPOLYLINE
  5
51
330
17
100
AcDbEntity
  8
CUTS
100
AcDbPolyline
 90
4
 70
1
 10
225.0
 20
-33.0
 10
228.0
 20
-33.0
 10
228.0
 20
-23.0
 10
225.0
 20
-23.0
  0
LWPOLYLINE
  5
52
330
17
100
AcDbEntity
  8
CUTS
100
AcDbPolyline
 90
4
 70
1
 10
248.0
 20
-33.0
 10
251.0
 20
-33.0
 10
251.0
 20
-23.0
 10
248.0
 20
-23.0
  0
TEXT
  5
53
330
17
100
AcDbEntity
  8
ENGRAVE
100
AcDbText
 10
230.0
 20
-33.0
 30
0.0
 40
2.0
  1
BR1
 11
230.0
 21
-33.0
 31
0.0
100
AcDbText
  0
LWPOLYLINE
  5
54
330
17
100
AcDbEntity
  8
CUTS
100
AcDbPolyline
 90
4
 70
1
 10
256.0
 20
-38.0
 10
276.0
 20
-38.0
 10
276.0
 20
-18.0
 10
256.0
 20
-18.0
  0
LWPOLYLINE
  5
55
330
17
100
AcDbEntity
  8
CUTS
100
AcDbPolyline
 90
4
 70
1
 10
253.0
 20
-33.0
 10
256.0
 20
-33.0
 10
256.0
 20
-23.0
 10
253.0
 20
-23.0
  0
LWPOLYLINE
  5
56
330
17
100
AcDbEntity
  8
CUTS
100
AcDbPolyline
 90
4
 70
1
 10
276.0
 20
-33.0
 10
279.0
 20
-33.0
 10
279.0
 20
-23.0
 10
276.0
 20
-23.0
  0
TEXT
  5
57
330
17
100
AcDbEntity
  8
ENGRAVE
100
AcDbText
 10
258.0
 20
-33.0
 30
0.0
 40
2.0
  1
BR2
 11
258.0
 21
-33.0
 31
0.0
100
AcDbText
  0
CIRCLE
  5
58
330
17
100
AcDbEntity
  8
CUTS
100
AcDbCircle
 10
17.5
 20
-101.0
 30
0.0
 40
17.5
  0
CIRCLE
  5
59
330
17
100
AcDbEntity
  8
CUTS
100
AcDbCircle
 10
17.5
 20
-101.0
 30
0.0
 40
1.6
  0
LWPOLYLINE
  5
5A
330
17
100
AcDbEntity
  8
CUTS
100
AcDbPolyline
 90
4
 70
1
 10
24.5
 20
-102.45
 10
30.5
 20
-102.45
 10
30.5
 20
-99.55
 10
24.5
 20
-99.55
  0
TEXT
  5
5B
330
17
100
AcDbEntity
  8
ENGRAVE
100
AcDbText
 10
7.5
 20
-103.0
 30
0.0
 40
2.0
  1
DRUM
 11
7.5
 21
-103.0
 31
0.0
100
AcDbText
  0
LWPOLYLINE
  5
5C
330
17
100
AcDbEntity
  8
CUTS
100
AcDbPolyline
 90
72
 70
1
 10
70.99222294236016
 20
-101.46658025171455
 10
71.0
 20
-101.0
 10
70.99222294236016
 20
-100.53341974828545
 10
66.25314206736495
 20
-98.84840480546148
 10
66.17629534974614
 20
-98.54121907152606
 10
66.08925369243376
 20
-98.2367650634484
 10
69.35091064935662
 20
-94.40795887970886
 10
69.12435565298215
 20
-94.0
 10
68.88433039764207
 20
-93.59981817793098
 10
63.93765849789524
 20
-94.51009286918665
 10
63.7175144212722
 20
-94.2824855787278
 10
63.48990713081334
 20
-94.06234150210476
 10
64.40018182206902
 20
-89.11566960235794
 10
64.0
 20
-88.87564434701785
 10
63.59204112029114
 20
-88.64908935064338
 10
59.763234936551605
 20
-91.91074630756624
 10
59.45878092847395
 20
-91.82370465025386
 10
59.151595194538515
 20
-91.74685793263505
 10
57.466580251714554
 20
-87.00777705763984
 10
57.0
 20
-87.0
 10
56.533419748285446
 20
-87.00777705763984
 10
54.84840480546149
 20
-91.74685793263505
 10
54.54121907152605
 20
-91.82370465025386
 10
54.2367650634484
 20
-91.91074630756624
 10
50.40795887970886
 20
-88.64908935064338
 10
50.0
 20
-88.87564434701785
 10
49.599818177930985
 20
-89.11566960235793
 10
50.51009286918666
 20
-94.06234150210476
 10
50.2824855787278
 20
-94.2824855787278
 10
50.06234150210476
 20
-94.51009286918665
 10
45.11566960235793
 20
-93.59981817793098
 10
44.87564434701786
 20
-94.0
 10
44.649089350643386
 20
-94.40795887970886
 10
47.91074630756624
 20
-98.2367650634484
 10
47.82370465025385
 20
-98.54121907152604
 10
47.74685793263505
 20
-98.84840480546148
 10
43.00777705763984
 20
-100.53341974828545
 10
43.0
 20
-101.0
 10
43.00777705763984
 20
-101.46658025171455
 10
47.74685793263505
 20
-103.15159519453852
 10
47.82370465025385
 20
-103.45878092847394
 10
47.91074630756624
 20
-103.7632349365516
 10
44.64908935064338
 20
-107.59204112029114
 10
44.875644347017854
 20
-108.0
 10
45.115669602357926
 20
-108.40018182206902
 10
50.06234150210476
 20
-107.48990713081335
 10
50.282485578727794
 20
-107.7175144212722
 10
50.51009286918666
 20
-107.93765849789524
 10
49.59981817793098
 20
-112.88433039764206
 10
49.99999999999999
 20
-113.12435565298213
 10
50.40795887970885
 20
-113.35091064935662
 10
54.236765063448395
 20
-110.08925369243376
 10
54.541219071526044
 20
-110.17629534974614
 10
54.84840480546148
 20
-110.25314206736495
 10
56.533419748285446
 20
-114.99222294236016
 10
57.0
 20
-115.0
 10
57.46658025171455
 20
-114.99222294236016
 10
59.15159519453851
 20
-110.25314206736495
 10
59.45878092847394
 20
-110.17629534974616
 10
59.7632349365516
 20
-110.08925369243376
 10
63.59204112029113
 20
-113.35091064935662
 10
63.99999999999999
 20
-113.12435565298215
 10
64.400181822069
 20
-112.88433039764207
 10
63.489907130813336
 20
-107.93765849789526
 10
63.71751442127219
 20
-107.71751442127221
 10
63.937658497895235
 20
-107.48990713081335
 10
68.88433039764206
 20
-108.40018182206902
 10
69.12435565298213
 20
-108.0
 10
69.35091064935662
 20
-107.59204112029114
 10
66.08925369243376
 20
-103.76323493655161
 10
66.17629534974614
 20
-103.45878092847396
 10
66.25314206736493
 20
-103.15159519453852
  0
CIRCLE
  5
5D
330
17
100
AcDbEntity
  8
CUTS
100
AcDbCircle
 10
57.0
 20
-101.0
 30
0.0
 40
1.6
  0
TEXT
  5
5E
330
17
100
AcDbEntity
  8
ENGRAVE
100
AcDbText
 10
51.0
 20
-103.0
 30
0.0
 40
2.0
  1
SM
 11
51.0
 21
-103.0
 31
0.0
100
AcDbText
  0
LWPOLYLINE
  5
5F
330
17
100
AcDbEntity
  8
CUTS
100
AcDbPolyline
 90
144
 70
1
 10
130.99638897247866
 20
-101.43331327188358
 10
131.0
 20
-101.0
 10
130.99638897247866
 20
-100.56668672811642
 10
126.3598737437618
 20
-98.54932791859957
 10
126.31606451953692
 20
-98.1936868672689
 10
126.26633430334076
 20
-97.83882532931943
 10
130.22273322603263
 20
-94.69018791021553
 10
130.11407148351577
 20
-94.27070482733446
 10
129.9984337715143
 20
-93.85309094984322
 10
124.99777308740582
 20
-93.10449041893891
 10
124.86340994899267
 20
-92.77230620415057
 10
124.72352932442615
 20
-92.44240740695716
 10
127.73018989276994
 20
-88.3770658150088
 10
127.51666049839541
 20
-88.0
 10
127.29687662088637
 20
-87.62654521251255
 10
122.27285724302573
 20
-88.19771884928105
 10
122.05709681626156
 20
-87.91162927631251
 10
121.83659841672525
 20
-87.62917527772035
 10
123.68862168172984
 20
-82.92417582412418
 10
123.38477631085024
 20
-82.61522368914976
 10
123.07582417587584
 20
-82.31137831827016
 10
118.37082472227966
 20
-84.16340158327475
 10
118.08837072368749
 20
-83.94290318373845
 10
117.80228115071895
 20
-83.72714275697427
 10
118.37345478748745
 20
-78.70312337911363
 10
118.0
 20
-78.4833395016046
 10
117.62293418499121
 20
-78.26981010723007
 10
113.55759259304284
 20
-81.27647067557385
 10
113.22769379584943
 20
-81.13659005100733
 10
112.89550958106109
 20
-81.00222691259418
 10
112.14690905015678
 20
-76.0015662284857
 10
111.72929517266554
 20
-75.88592851648423
 10
111.30981208978447
 20
-75.77726677396738
 10
108.16117467068058
 20
-79.73366569665924
 10
107.8063131327311
 20
-79.68393548046308
 10
107.45067208140043
 20
-79.6401262562382
 10
105.43331327188358
 20
-75.00361102752134
 10
105.0
 20
-75.0
 10
104.56668672811644
 20
-75.00361102752134
 10
102.54932791859957
 20
-79.6401262562382
 10
102.1936868672689
 20
-79.68393548046308
 10
101.83882532931943
 20
-79.73366569665924
 10
98.69018791021554
 20
-75.77726677396738
 10
98.27070482733447
 20
-75.88592851648423
 10
97.85309094984322
 20
-76.00156622848569
 10
97.10449041893891
 20
-81.00222691259418
 10
96.77230620415057
 20
-81.13659005100733
 10
96.44240740695716
 20
-81.27647067557385
 10
92.3770658150088
 20
-78.26981010723006
 10
92.0
 20
-78.48333950160459
 10
91.62654521251255
 20
-78.70312337911363
 10
92.19771884928105
 20
-83.72714275697427
 10
91.91162927631251
 20
-83.94290318373844
 10
91.62917527772035
 20
-84.16340158327475
 10
86.92417582412416
 20
-82.31137831827016
 10
86.61522368914976
 20
-82.61522368914976
 10
86.31137831827016
 20
-82.92417582412416
 10
88.16340158327475
 20
-87.62917527772034
 10
87.94290318373845
 20
-87.9116292763125
 10
87.72714275697427
 20
-88.19771884928105
 10
82.70312337911363
 20
-87.62654521251254
 10
82.4833395016046
 20
-87.99999999999999
 10
82.26981010723007
 20
-88.37706581500879
 10
85.27647067557385
 20
-92.44240740695716
 10
85.13659005100735
 20
-92.77230620415055
 10
85.00222691259418
 20
-93.1044904189389
 10
80.0015662284857
 20
-93.8530909498432
 10
79.88592851648423
 20
-94.27070482733446
 10
79.77726677396738
 20
-94.69018791021553
 10
83.73366569665924
 20
-97.83882532931942
 10
83.68393548046308
 20
-98.19368686726888
 10
83.6401262562382
 20
-98.54932791859956
 10
79.00361102752134
 20
-100.56668672811642
 10
79.0
 20
-101.0
 10
79.00361102752134
 20
-101.43331327188356
 10
83.6401262562382
 20
-103.45067208140043
 10
83.68393548046308
 20
-103.8063131327311
 10
83.73366569665924
 20
-104.16117467068057
 10
79.77726677396738
 20
-107.30981208978446
 10
79.88592851648423
 20
-107.72929517266553
 10
80.00156622848569
 20
-108.14690905015678
 10
85.00222691259418
 20
-108.89550958106108
 10
85.13659005100733
 20
-109.22769379584942
 10
85.27647067557385
 20
-109.55759259304283
 10
82.26981010723006
 20
-113.6229341849912
 10
82.48333950160459
 20
-114.0
 10
82.70312337911363
 20
-114.37345478748745
 10
87.72714275697427
 20
-113.80228115071895
 10
87.94290318373844
 20
-114.08837072368749
 10
88.16340158327475
 20
-114.37082472227965
 10
86.31137831827014
 20
-119.07582417587582
 10
86.61522368914976
 20
-119.38477631085023
 10
86.92417582412415
 20
-119.68862168172983
 10
91.62917527772034
 20
-117.83659841672525
 10
91.9116292763125
 20
-118.05709681626155
 10
92.19771884928105
 20
-118.27285724302573
 10
91.62654521251254
 20
-123.29687662088637
 10
91.99999999999999
 20
-123.5166604983954
 10
92.37706581500879
 20
-123.73018989276993
 10
96.44240740695714
 20
-120.72352932442615
 10
96.77230620415055
 20
-120.86340994899265
 10
97.1044904189389
 20
-120.99777308740582
 10
97.85309094984319
 20
-125.9984337715143
 10
98.27070482733444
 20
-126.11407148351577
 10
98.69018791021551
 20
-126.22273322603262
 10
101.8388253293194
 20
-122.26633430334076
 10
102.19368686726887
 20
-122.31606451953692
 10
102.54932791859954
 20
-122.3598737437618
 10
104.56668672811642
 20
-126.99638897247866
 10
105.0
 20
-127.0
 10
105.43331327188356
 20
-126.99638897247866
 10
107.45067208140043
 20
-122.3598737437618
 10
107.8063131327311
 20
-122.31606451953692
 10
108.16117467068057
 20
-122.26633430334076
 10
111.30981208978446
 20
-126.22273322603262
 10
111.72929517266553
 20
-126.11407148351577
 10
112.14690905015676
 20
-125.99843377151431
 10
112.89550958106108
 20
-120.99777308740582
 10
113.22769379584942
 20
-120.86340994899267
 10
113.55759259304283
 20
-120.72352932442615
 10
117.62293418499118
 20
-123.73018989276994
 10
117.99999999999999
 20
-123.51666049839541
 10
118.37345478748743
 20
-123.29687662088638
 10
117.80228115071894
 20
-118.27285724302573
 10
118.08837072368748
 20
-118.05709681626156
 10
118.37082472227964
 20
-117.83659841672527
 10
123.07582417587582
 20
-119.68862168172984
 10
123.38477631085023
 20
-119.38477631085024
 10
123.68862168172984
 20
-119.07582417587584
 10
121.83659841672525
 20
-114.37082472227966
 10
122.05709681626155
 20
-114.0883707236875
 10
122.27285724302573
 20
-113.80228115071897
 10
127.29687662088637
 20
-114.37345478748746
 10
127.5166604983954
 20
-114.00000000000001
 10
127.73018989276993
 20
-113.62293418499121
 10
124.72352932442615
 20
-109.55759259304286
 10
124.86340994899265
 20
-109.22769379584945
 10
124.99777308740582
 20
-108.8955095810611
 10
129.9984337715143
 20
-108.14690905015681
 10
130.11407148351577
 20
-107.72929517266556
 10
130.2227332260326
 20
-107.30981208978449
 10
126.26633430334076
 20
-104.1611746706806
 10
126.31606451953692
 20
-103.80631313273113
 10
126.3598737437618
 20
-103.45067208140046
  0
CIRCLE
  5
60
330
17
100
AcDbEntity
  8
CUTS
100
AcDbCircle
 10
105.0
 20
-101.0
 30
0.0
 40
1.6
  0
TEXT
  5
61
330
17
100
AcDbEntity
  8
ENGRAVE
100
AcDbText
 10
99.0
 20
-103.0
 30
0.0
 40
2.0
  1
LG
 11
99.0
 21
-103.0
 31
0.0
100
AcDbText
  0
LWPOLYLINE
  5
62
330
17
100
AcDbEntity
  8
CUTS
100
AcDbPolyline
 90
4
 70
1
 10
139.0
 20
-121.0
 10
179.0
 20
-121.0
 10
179.0
 20
-81.0
 10
139.0
 20
-81.0
  0
CIRCLE
  5
63
330
17
100
AcDbEntity
  8
CUTS
100
AcDbCircle
 10
159.0
 20
-86.0
 30
0.0
 40
2.0
  0
LWPOLYLINE
  5
64
330
17
100
AcDbEntity
  8
CUTS
100
AcDbPolyline
 90
4
 70
0
 10
154.0
 20
-121.0
 10
154.0
 20
-109.0
 10
164.0
 20
-109.0
 10
164.0
 20
-121.0
  0
TEXT
  5
65
330
17
100
AcDbEntity
  8
ENGRAVE
100
AcDbText
 10
144.0
 20
-99.0
 30
0.0
 40
3.0
  1
M6 HOOK
 11
144.0
 21
-99.0
 31
0.0
100
AcDbText
  0
LWPOLYLINE
  5
66
330
17
100
AcDbEntity
  8
CUTS
100
AcDbPolyline
 90
4
 70
1
 10
187.0
 20
-108.0
 10
257.0
 20
-108.0
 10
257.0
 20
-94.0
 10
187.0
 20
-94.0
  0
CIRCLE
  5
67
330
17
100
AcDbEntity
  8
CUTS
100
AcDbCircle
 10
195.0
 20
-101.0
 30
0.0
 40
1.6
  0
CIRCLE
  5
68
330
17
100
AcDbEntity
  8
CUTS
100
AcDbCircle
 10
249.0
 20
-101.0
 30
0.0
 40
3.0
  0
TEXT
  5
69
330
17
100
AcDbEntity
  8
ENGRAVE
100
AcDbText
 10
205.0
 20
-106.0
 30
0.0
 40
2.0
  1
M6 CRANK
 11
205.0
 21
-106.0
 31
0.0
100
AcDbText
  0
CIRCLE
  5
6A
330
17
100
AcDbEntity
  8
CUTS
100
AcDbCircle
 10
290.0
 20
-101.0
 30
0.0
 40
25.0
  0
CIRCLE
  5
6B
330
17
100
AcDbEntity
  8
CUTS
100
AcDbCircle
 10
290.0
 20
-101.0
 30
0.0
 40
1.6
  0
CIRCLE
  5
6C
330
17
100
AcDbEntity
  8
ENGRAVE
100
AcDbCircle
 10
290.0
 20
-101.0
 30
0.0
 40
22.0
  0
TEXT
  5
6D
330
17
100
AcDbEntity
  8
ENGRAVE
100
AcDbText
 10
278.0
 20
-103.0
 30
0.0
 40
3.0
  1
M6 PUL
 11
278.0
 21
-103.0
 31
0.0
100
AcDbText
  0
ENDSEC
  0
SECTION
  2
OBJECTS
  0
DICTIONARY
  5
A
330
0
100
AcDbDictionary
281
1
  3
ACAD_COLOR
350
B
  3
ACAD_GROUP
350
C
  3
ACAD_LAYOUT
350
D
  3
ACAD_MATERIAL
350
E
  3
ACAD_MLEADERSTYLE
350
F
  3
ACAD_MLINESTYLE
350
10
  3
ACAD_PLOTSETTINGS
350
11
  3
ACAD_PLOTSTYLENAME
350
12
  3
ACAD_SCALELIST
350
14
  3
ACAD_TABLESTYLE
350
15
  3
ACAD_VISUALSTYLE
350
16
  3
EZDXF_META
350
2D
  0
DICTIONARY
  5
B
330
A
100
AcDbDictionary
281
1
  0
DICTIONARY
  5
C
330
A
100
AcDbDictionary
281
1
  0
DICTIONARY
  5
D
330
A
100
AcDbDictionary
281
1
  3
Model
350
1A
  3
Layout1
350
1E
  0
DICTIONARY
  5
E
330
A
100
AcDbDictionary
281
1
  3
ByBlock
350
1F
  3
ByLayer
350
20
  3
Global
350
21
  0
DICTIONARY
  5
F
330
A
100
AcDbDictionary
281
1
  3
Standard
350
2C
  0
DICTIONARY
  5
10
330
A
100
AcDbDictionary
281
1
  3
Standard
350
22
  0
DICTIONARY
  5
11
330
A
100
AcDbDictionary
281
1
  0
ACDBDICTIONARYWDFLT
  5
12
330
A
100
AcDbDictionary
281
1
  3
Normal
350
13
100
AcDbDictionaryWithDefault
340
13
  0
ACDBPLACEHOLDER
  5
13
330
12
  0
DICTIONARY
  5
14
330
A
100
AcDbDictionary
281
1
  0
DICTIONARY
  5
15
330
A
100
AcDbDictionary
281
1
  0
DICTIONARY
  5
16
330
A
100
AcDbDictionary
281
1
  0
LAYOUT
  5
1A
330
D
100
AcDbPlotSettings
  1

  4
A3
  6

 40
7.5
 41
20.0
 42
7.5
 43
20.0
 44
420.0
 45
297.0
 46
0.0
 47
0.0
 48
0.0
 49
0.0
140
0.0
141
0.0
142
1.0
143
1.0
 70
1024
 72
1
 73
0
 74
5
  7

 75
16
 76
0
 77
2
 78
300
147
1.0
148
0.0
149
0.0
100
AcDbLayout
  1
Model
 70
1
 71
0
 10
0.0
 20
0.0
 11
420.0
 21
297.0
 12
0.0
 22
0.0
 32
0.0
 14
1e+20
 24
1e+20
 34
1e+20
 15
-1e+20
 25
-1e+20
 35
-1e+20
146
0.0
 13
0.0
 23
0.0
 33
0.0
 16
1.0
 26
0.0
 36
0.0
 17
0.0
 27
1.0
 37
0.0
 76
1
330
17
  0
LAYOUT
  5
1E
330
D
100
AcDbPlotSettings
  1

  4
A3
  6

 40
7.5
 41
20.0
 42
7.5
 43
20.0
 44
420.0
 45
297.0
 46
0.0
 47
0.0
 48
0.0
 49
0.0
140
0.0
141
0.0
142
1.0
143
1.0
 70
0
 72
1
 73
0
 74
5
  7

 75
16
 76
0
 77
2
 78
300
147
1.0
148
0.0
149
0.0
100
AcDbLayout
  1
Layout1
 70
1
 71
1
 10
0.0
 20
0.0
 11
420.0
 21
297.0
 12
0.0
 22
0.0
 32
0.0
 14
1e+20
 24
1e+20
 34
1e+20
 15
-1e+20
 25
-1e+20
 35
-1e+20
146
0.0
 13
0.0
 23
0.0
 33
0.0
 16
1.0
 26
0.0
 36
0.0
 17
0.0
 27
1.0
 37
0.0
 76
1
330
1B
  0
MATERIAL
  5
1F
102
{ACAD_REACTORS
330
E
102
}
330
E
100
AcDbMaterial
  1
ByBlock
  2

 70
0
 40
1.0
 71
1
 41
1.0
 91
-1023410177
 42
1.0
 72
1
  3

 73
1
 74
1
 75
1
 44
0.5
 73
0
 45
1.0
 46
1.0
 77
1
  4

 78
1
 79
1
170
1
 48
1.0
171
1
  6

172
1
173
1
174
1
140
1.0
141
1.0
175
1
  7

176
1
177
1
178
1
143
1.0
179
1
  8

270
1
271
1
272
1
145
1.0
146
1.0
273
1
  9

274
1
275
1
276
1
 42
1.0
 72
1
  3

 73
1
 74
1
 75
1
 94
63
  0
MATERIAL
  5
20
102
{ACAD_REACTORS
330
E
102
}
330
E
100
AcDbMaterial
  1
ByLayer
  2

 70
0
 40
1.0
 71
1
 41
1.0
 91
-1023410177
 42
1.0
 72
1
  3

 73
1
 74
1
 75
1
 44
0.5
 73
0
 45
1.0
 46
1.0
 77
1
  4

 78
1
 79
1
170
1
 48
1.0
171
1
  6

172
1
173
1
174
1
140
1.0
141
1.0
175
1
  7

176
1
177
1
178
1
143
1.0
179
1
  8

270
1
271
1
272
1
145
1.0
146
1.0
273
1
  9

274
1
275
1
276
1
 42
1.0
 72
1
  3

 73
1
 74
1
 75
1
 94
63
  0
MATERIAL
  5
21
102
{ACAD_REACTORS
330
E
102
}
330
E
100
AcDbMaterial
  1
Global
  2

 70
0
 40
1.0
 71
1
 41
1.0
 91
-1023410177
 42
1.0
 72
1
  3

 73
1
 74
1
 75
1
 44
0.5
 73
0
 45
1.0
 46
1.0
 77
1
  4

 78
1
 79
1
170
1
 48
1.0
171
1
  6

172
1
173
1
174
1
140
1.0
141
1.0
175
1
  7

176
1
177
1
178
1
143
1.0
179
1
  8

270
1
271
1
272
1
145
1.0
146
1.0
273
1
  9

274
1
275
1
276
1
 42
1.0
 72
1
  3

 73
1
 74
1
 75
1
 94
63
  0
MLINESTYLE
  5
22
102
{ACAD_REACTORS
330
10
102
}
330
10
100
AcDbMlineStyle
  2
Standard
 70
0
  3

 62
256
 51
90.0
 52
90.0
 71
2
 49
0.5
 62
256
  6
BYLAYER
 49
-0.5
 62
256
  6
BYLAYER
  0
MLEADERSTYLE
  5
2C
102
{ACAD_REACTORS
330
F
102
}
330
F
100
AcDbMLeaderStyle
179
2
170
2
171
1
172
0
 90
2
 40
0.0
 41
0.0
173
1
 91
-1056964608
 92
-2
290
1
 42
2.0
291
1
 43
8.0
  3
Standard
 44
4.0
300

342
29
174
1
175
1
176
0
178
1
 93
-1056964608
 45
4.0
292
0
297
0
 46
4.0
 94
-1056964608
 47
1.0
 49
1.0
140
1.0
294
1
141
0.0
177
0
142
1.0
295
0
296
0
143
3.75
271
0
272
9
273
9
  0
DICTIONARY
  5
2D
330
A
100
AcDbDictionary
280
1
281
1
  3
CREATED_BY_EZDXF
350
2E
  3
WRITTEN_BY_EZDXF
350
70
  0
DICTIONARYVAR
  5
2E
330
2D
100
DictionaryVariables
280
0
  1
1.4.3 @ 2026-03-19T12:10:46.577877+00:00
  0
DICTIONARYVAR
  5
70
330
2D
100
DictionaryVariables
280
0
  1
1.4.3 @ 2026-03-19T12:10:46.579185+00:00
  0
ENDSEC
  0
EOF
