  0
SECTION
  2
HEADER
  9
$ACADVER
  1
AC1024
  9
$ACADMAINTVER
 70
6
  9
$DWGCODEPAGE
  3
ANSI_1252
  9
$LASTSAVEDBY
  1
ezdxf
  9
$INSBASE
 10
0.0
 20
0.0
 30
0.0
  9
$EXTMIN
 10
1e+20
 20
1e+20
 30
1e+20
  9
$EXTMAX
 10
-1e+20
 20
-1e+20
 30
-1e+20
  9
$LIMMIN
 10
0.0
 20
0.0
  9
$LIMMAX
 10
420.0
 20
297.0
  9
$ORTHOMODE
 70
0
  9
$REGENMODE
 70
1
  9
$FILLMODE
 70
1
  9
$QTEXTMODE
 70
0
  9
$MIRRTEXT
 70
1
  9
$LTSCALE
 40
1.0
  9
$ATTMODE
 70
1
  9
$TEXTSIZE
 40
2.5
  9
$TRACEWID
 40
1.0
  9
$TEXTSTYLE
  7
Standard
  9
$CLAYER
  8
0
  9
$CELTYPE
  6
ByLayer
  9
$CECOLOR
 62
256
  9
$CELTSCALE
 40
1.0
  9
$DISPSILH
 70
0
  9
$DIMSCALE
 40
1.0
  9
$DIMASZ
 40
2.5
  9
$DIMEXO
 40
0.625
  9
$DIMDLI
 40
3.75
  9
$DIMRND
 40
0.0
  9
$DIMDLE
 40
0.0
  9
$DIMEXE
 40
1.25
  9
$DIMTP
 40
0.0
  9
$DIMTM
 40
0.0
  9
$DIMTXT
 40
2.5
  9
$DIMCEN
 40
2.5
  9
$DIMTSZ
 40
0.0
  9
$DIMTOL
 70
0
  9
$DIMLIM
 70
0
  9
$DIMTIH
 70
0
  9
$DIMTOH
 70
0
  9
$DIMSE1
 70
0
  9
$DIMSE2
 70
0
  9
$DIMTAD
 70
1
  9
$DIMZIN
 70
8
  9
$DIMBLK
  1

  9
$DIMASO
 70
1
  9
$DIMSHO
 70
1
  9
$DIMPOST
  1

  9
$DIMAPOST
  1

  9
$DIMALT
 70
0
  9
$DIMALTD
 70
3
  9
$DIMALTF
 40
0.03937007874
  9
$DIMLFAC
 40
1.0
  9
$DIMTOFL
 70
1
  9
$DIMTVP
 40
0.0
  9
$DIMTIX
 70
0
  9
$DIMSOXD
 70
0
  9
$DIMSAH
 70
0
  9
$DIMBLK1
  1

  9
$DIMBLK2
  1

  9
$DIMSTYLE
  2
ISO-25
  9
$DIMCLRD
 70
0
  9
$DIMCLRE
 70
0
  9
$DIMCLRT
 70
0
  9
$DIMTFAC
 40
1.0
  9
$DIMGAP
 40
0.625
  9
$DIMJUST
 70
0
  9
$DIMSD1
 70
0
  9
$DIMSD2
 70
0
  9
$DIMTOLJ
 70
0
  9
$DIMTZIN
 70
8
  9
$DIMALTZ
 70
0
  9
$DIMALTTZ
 70
0
  9
$DIMUPT
 70
0
  9
$DIMDEC
 70
2
  9
$DIMTDEC
 70
2
  9
$DIMALTU
 70
2
  9
$DIMALTTD
 70
3
  9
$DIMTXSTY
  7
Standard
  9
$DIMAUNIT
 70
0
  9
$DIMADEC
 70
0
  9
$DIMALTRND
 40
0.0
  9
$DIMAZIN
 70
0
  9
$DIMDSEP
 70
44
  9
$DIMATFIT
 70
3
  9
$DIMFRAC
 70
0
  9
$DIMLDRBLK
  1

  9
$DIMLUNIT
 70
2
  9
$DIMLWD
 70
-2
  9
$DIMLWE
 70
-2
  9
$DIMTMOVE
 70
0
  9
$DIMFXL
 40
1.0
  9
$DIMFXLON
 70
0
  9
$DIMJOGANG
 40
0.785398163397
  9
$DIMTFILL
 70
0
  9
$DIMTFILLCLR
 70
0
  9
$DIMARCSYM
 70
0
  9
$DIMLTYPE
  6

  9
$DIMLTEX1
  6

  9
$DIMLTEX2
  6

  9
$DIMTXTDIRECTION
 70
0
  9
$LUNITS
 70
2
  9
$LUPREC
 70
4
  9
$SKETCHINC
 40
1.0
  9
$FILLETRAD
 40
10.0
  9
$AUNITS
 70
0
  9
$AUPREC
 70
2
  9
$MENU
  1
.
  9
$ELEVATION
 40
0.0
  9
$PELEVATION
 40
0.0
  9
$THICKNESS
 40
0.0
  9
$LIMCHECK
 70
0
  9
$CHAMFERA
 40
0.0
  9
$CHAMFERB
 40
0.0
  9
$CHAMFERC
 40
0.0
  9
$CHAMFERD
 40
0.0
  9
$SKPOLY
 70
0
  9
$TDCREATE
 40
2461126.4639583332
  9
$TDUCREATE
 40
2458532.153996898
  9
$TDUPDATE
 40
2461126.4639583332
  9
$TDUUPDATE
 40
2458532.1544311
  9
$TDINDWG
 40
0.0
  9
$TDUSRTIMER
 40
0.0
  9
$USRTIMER
 70
1
  9
$ANGBASE
 50
0.0
  9
$ANGDIR
 70
0
  9
$PDMODE
 70
0
  9
$PDSIZE
 40
0.0
  9
$PLINEWID
 40
0.0
  9
$SPLFRAME
 70
0
  9
$SPLINETYPE
 70
6
  9
$SPLINESEGS
 70
8
  9
$HANDSEED
  5
7D
  9
$SURFTAB1
 70
6
  9
$SURFTAB2
 70
6
  9
$SURFTYPE
 70
6
  9
$SURFU
 70
6
  9
$SURFV
 70
6
  9
$UCSBASE
  2

  9
$UCSNAME
  2

  9
$UCSORG
 10
0.0
 20
0.0
 30
0.0
  9
$UCSXDIR
 10
1.0
 20
0.0
 30
0.0
  9
$UCSYDIR
 10
0.0
 20
1.0
 30
0.0
  9
$UCSORTHOREF
  2

  9
$UCSORTHOVIEW
 70
0
  9
$UCSORGTOP
 10
0.0
 20
0.0
 30
0.0
  9
$UCSORGBOTTOM
 10
0.0
 20
0.0
 30
0.0
  9
$UCSORGLEFT
 10
0.0
 20
0.0
 30
0.0
  9
$UCSORGRIGHT
 10
0.0
 20
0.0
 30
0.0
  9
$UCSORGFRONT
 10
0.0
 20
0.0
 30
0.0
  9
$UCSORGBACK
 10
0.0
 20
0.0
 30
0.0
  9
$PUCSBASE
  2

  9
$PUCSNAME
  2

  9
$PUCSORG
 10
0.0
 20
0.0
 30
0.0
  9
$PUCSXDIR
 10
1.0
 20
0.0
 30
0.0
  9
$PUCSYDIR
 10
0.0
 20
1.0
 30
0.0
  9
$PUCSORTHOREF
  2

  9
$PUCSORTHOVIEW
 70
0
  9
$PUCSORGTOP
 10
0.0
 20
0.0
 30
0.0
  9
$PUCSORGBOTTOM
 10
0.0
 20
0.0
 30
0.0
  9
$PUCSORGLEFT
 10
0.0
 20
0.0
 30
0.0
  9
$PUCSORGRIGHT
 10
0.0
 20
0.0
 30
0.0
  9
$PUCSORGFRONT
 10
0.0
 20
0.0
 30
0.0
  9
$PUCSORGBACK
 10
0.0
 20
0.0
 30
0.0
  9
$USERI1
 70
0
  9
$USERI2
 70
0
  9
$USERI3
 70
0
  9
$USERI4
 70
0
  9
$USERI5
 70
0
  9
$USERR1
 40
0.0
  9
$USERR2
 40
0.0
  9
$USERR3
 40
0.0
  9
$USERR4
 40
0.0
  9
$USERR5
 40
0.0
  9
$WORLDVIEW
 70
1
  9
$SHADEDGE
 70
3
  9
$SHADEDIF
 70
70
  9
$TILEMODE
 70
1
  9
$MAXACTVP
 70
64
  9
$PINSBASE
 10
0.0
 20
0.0
 30
0.0
  9
$PLIMCHECK
 70
0
  9
$PEXTMIN
 10
1e+20
 20
1e+20
 30
1e+20
  9
$PEXTMAX
 10
-1e+20
 20
-1e+20
 30
-1e+20
  9
$PLIMMIN
 10
0.0
 20
0.0
  9
$PLIMMAX
 10
420.0
 20
297.0
  9
$UNITMODE
 70
0
  9
$VISRETAIN
 70
1
  9
$PLINEGEN
 70
0
  9
$PSLTSCALE
 70
1
  9
$TREEDEPTH
 70
3020
  9
$CMLSTYLE
  2
Standard
  9
$CMLJUST
 70
0
  9
$CMLSCALE
 40
20.0
  9
$PROXYGRAPHICS
 70
1
  9
$MEASUREMENT
 70
1
  9
$CELWEIGHT
370
-1
  9
$ENDCAPS
280
0
  9
$JOINSTYLE
280
0
  9
$LWDISPLAY
290
0
  9
$INSUNITS
 70
6
  9
$HYPERLINKBASE
  1

  9
$STYLESHEET
  1

  9
$XEDIT
290
1
  9
$CEPSNTYPE
380
0
  9
$PSTYLEMODE
290
1
  9
$FINGERPRINTGUID
  2
{23091857-854D-46D6-8B9A-192CD7BEAD56}
  9
$VERSIONGUID
  2
{A58D6FFE-6BFF-403A-8E55-9F235D9EA33C}
  9
$EXTNAMES
290
1
  9
$PSVPSCALE
 40
0.0
  9
$OLESTARTUP
290
0
  9
$SORTENTS
280
127
  9
$INDEXCTL
280
0
  9
$HIDETEXT
280
1
  9
$XCLIPFRAME
280
1
  9
$HALOGAP
280
0
  9
$OBSCOLOR
 70
257
  9
$OBSLTYPE
280
0
  9
$INTERSECTIONDISPLAY
280
0
  9
$INTERSECTIONCOLOR
 70
257
  9
$DIMASSOC
280
2
  9
$PROJECTNAME
  1

  9
$CAMERADISPLAY
290
0
  9
$LENSLENGTH
 40
50.0
  9
$CAMERAHEIGHT
 40
0.0
  9
$STEPSPERSEC
 40
24.0
  9
$STEPSIZE
 40
100.0
  9
$3DDWFPREC
 40
2.0
  9
$PSOLWIDTH
 40
0.005
  9
$PSOLHEIGHT
 40
0.08
  9
$LOFTANG1
 40
1.570796326795
  9
$LOFTANG2
 40
1.570796326795
  9
$LOFTMAG1
 40
0.0
  9
$LOFTMAG2
 40
0.0
  9
$LOFTPARAM
 70
7
  9
$LOFTNORMALS
280
1
  9
$LATITUDE
 40
37.795
  9
$LONGITUDE
 40
-122.394
  9
$NORTHDIRECTION
 40
0.0
  9
$TIMEZONE
 70
-8000
  9
$LIGHTGLYPHDISPLAY
280
1
  9
$TILEMODELIGHTSYNCH
280
1
  9
$CMATERIAL
347
20
  9
$SOLIDHIST
280
0
  9
$SHOWHIST
280
1
  9
$DWFFRAME
280
2
  9
$DGNFRAME
280
2
  9
$REALWORLDSCALE
290
1
  9
$INTERFERECOLOR
 62
256
  9
$CSHADOW
280
0
  9
$SHADOWPLANELOCATION
 40
0.0
  0
ENDSEC
  0
SECTION
  2
CLASSES
  0
CLASS
  1
ACDBDICTIONARYWDFLT
  2
AcDbDictionaryWithDefault
  3
ObjectDBX Classes
 90
0
 91
0
280
0
281
0
  0
CLASS
  1
SUN
  2
AcDbSun
  3
SCENEOE
 90
1153
 91
0
280
0
281
0
  0
CLASS
  1
VISUALSTYLE
  2
AcDbVisualStyle
  3
ObjectDBX Classes
 90
4095
 91
0
280
0
281
0
  0
CLASS
  1
MATERIAL
  2
AcDbMaterial
  3
ObjectDBX Classes
 90
1153
 91
0
280
0
281
0
  0
CLASS
  1
SCALE
  2
AcDbScale
  3
ObjectDBX Classes
 90
1153
 91
0
280
0
281
0
  0
CLASS
  1
TABLESTYLE
  2
AcDbTableStyle
  3
ObjectDBX Classes
 90
4095
 91
0
280
0
281
0
  0
CLASS
  1
MLEADERSTYLE
  2
AcDbMLeaderStyle
  3
ACDB_MLEADERSTYLE_CLASS
 90
4095
 91
0
280
0
281
0
  0
CLASS
  1
DICTIONARYVAR
  2
AcDbDictionaryVar
  3
ObjectDBX Classes
 90
0
 91
0
280
0
281
0
  0
CLASS
  1
CELLSTYLEMAP
  2
AcDbCellStyleMap
  3
ObjectDBX Classes
 90
1152
 91
0
280
0
281
0
  0
CLASS
  1
MENTALRAYRENDERSETTINGS
  2
AcDbMentalRayRenderSettings
  3
SCENEOE
 90
1024
 91
0
280
0
281
0
  0
CLASS
  1
ACDBDETAILVIEWSTYLE
  2
AcDbDetailViewStyle
  3
ObjectDBX Classes
 90
1025
 91
0
280
0
281
0
  0
CLASS
  1
ACDBSECTIONVIEWSTYLE
  2
AcDbSectionViewStyle
  3
ObjectDBX Classes
 90
1025
 91
0
280
0
281
0
  0
CLASS
  1
RASTERVARIABLES
  2
AcDbRasterVariables
  3
ISM
 90
0
 91
0
280
0
281
0
  0
CLASS
  1
ACDBPLACEHOLDER
  2
AcDbPlaceHolder
  3
ObjectDBX Classes
 90
0
 91
0
280
0
281
0
  0
CLASS
  1
LAYOUT
  2
AcDbLayout
  3
ObjectDBX Classes
 90
0
 91
0
280
0
281
0
  0
ENDSEC
  0
SECTION
  2
TABLES
  0
TABLE
  2
VPORT
  5
8
330
0
100
AcDbSymbolTable
 70
1
  0
VPORT
  5
23
330
8
100
AcDbSymbolTableRecord
100
AcDbViewportTableRecord
  2
*Active
 70
0
 10
0.0
 20
0.0
 11
1.0
 21
1.0
 12
0.0
 22
0.0
 13
0.0
 23
0.0
 14
0.5
 24
0.5
 15
0.5
 25
0.5
 16
0.0
 26
0.0
 36
1.0
 17
0.0
 27
0.0
 37
0.0
 40
1000.0
 41
1.34
 42
50.0
 43
0.0
 44
0.0
 50
0.0
 51
0.0
 71
0
 72
1000
 73
1
 74
3
 75
0
 76
0
 77
0
 78
0
281
0
 65
0
146
0.0
  0
ENDTAB
  0
TABLE
  2
LTYPE
  5
2
330
0
100
AcDbSymbolTable
 70
3
  0
LTYPE
  5
24
330
2
100
AcDbSymbolTableRecord
100
AcDbLinetypeTableRecord
  2
ByBlock
 70
0
  3

 72
65
 73
0
 40
0.0
  0
LTYPE
  5
25
330
2
100
AcDbSymbolTableRecord
100
AcDbLinetypeTableRecord
  2
ByLayer
 70
0
  3

 72
65
 73
0
 40
0.0
  0
LTYPE
  5
26
330
2
100
AcDbSymbolTableRecord
100
AcDbLinetypeTableRecord
  2
Continuous
 70
0
  3

 72
65
 73
0
 40
0.0
  0
ENDTAB
  0
TABLE
  2
LAYER
  5
1
330
0
100
AcDbSymbolTable
 70
5
  0
LAYER
  5
27
330
1
100
AcDbSymbolTableRecord
100
AcDbLayerTableRecord
  2
0
 70
0
 62
7
  6
Continuous
370
-3
390
13
347
21
  0
LAYER
  5
28
330
1
100
AcDbSymbolTableRecord
100
AcDbLayerTableRecord
  2
Defpoints
 70
0
 62
7
  6
Continuous
290
0
370
-3
390
13
347
21
  0
LAYER
  5
2F
330
1
100
AcDbSymbolTableRecord
100
AcDbLayerTableRecord
  2
CUTS
 70
0
 62
7
  6
Continuous
370
-3
390
13
347
21
  0
LAYER
  5
30
330
1
100
AcDbSymbolTableRecord
100
AcDbLayerTableRecord
  2
ENGRAVE
 70
0
 62
1
  6
Continuous
370
-3
390
13
347
21
  0
LAYER
  5
31
330
1
100
AcDbSymbolTableRecord
100
AcDbLayerTableRecord
  2
GUIDE
 70
0
 62
3
  6
Continuous
370
-3
390
13
347
21
  0
ENDTAB
  0
TABLE
  2
STYLE
  5
5
330
0
100
AcDbSymbolTable
 70
1
  0
STYLE
  5
29
330
5
100
AcDbSymbolTableRecord
100
AcDbTextStyleTableRecord
  2
Standard
 70
0
 40
0.0
 41
1.0
 50
0.0
 71
0
 42
2.5
  3
txt
  4

  0
ENDTAB
  0
TABLE
  2
VIEW
  5
7
330
0
100
AcDbSymbolTable
 70
0
  0
ENDTAB
  0
TABLE
  2
UCS
  5
6
330
0
100
AcDbSymbolTable
 70
0
  0
ENDTAB
  0
TABLE
  2
APPID
  5
3
330
0
100
AcDbSymbolTable
 70
3
  0
APPID
  5
2A
330
3
100
AcDbSymbolTableRecord
100
AcDbRegAppTableRecord
  2
ACAD
 70
0
  0
APPID
  5
7A
330
3
100
AcDbSymbolTableRecord
100
AcDbRegAppTableRecord
  2
HATCHBACKGROUNDCOLOR
 70
0
  0
APPID
  5
7B
330
3
100
AcDbSymbolTableRecord
100
AcDbRegAppTableRecord
  2
EZDXF
 70
0
  0
ENDTAB
  0
TABLE
  2
DIMSTYLE
  5
4
330
0
100
AcDbSymbolTable
 70
1
100
AcDbDimStyleTable
  0
DIMSTYLE
105
2B
330
4
100
AcDbSymbolTableRecord
100
AcDbDimStyleTableRecord
  2
Standard
 70
0
 40
1.0
 41
2.5
 42
0.625
 43
3.75
 44
1.25
 45
0.0
 46
0.0
 47
0.0
 48
0.0
 49
2.5
140
2.5
141
2.5
142
0.0
143
0.03937007874
144
1.0
145
0.0
146
1.0
147
0.625
148
0.0
 69
0
 70
0
 71
0
 72
0
 73
0
 74
0
 75
0
 76
0
 77
1
 78
8
 79
3
170
0
171
3
172
1
173
0
174
0
175
0
176
0
177
0
178
0
179
2
271
2
272
2
273
2
274
3
275
0
276
0
277
2
278
44
279
0
280
0
281
0
282
0
283
0
284
8
285
0
286
0
288
0
289
3
290
0
371
-2
372
-2
  0
ENDTAB
  0
TABLE
  2
BLOCK_RECORD
  5
9
330
0
100
AcDbSymbolTable
 70
2
  0
BLOCK_RECORD
  5
17
330
9
100
AcDbSymbolTableRecord
100
AcDbBlockTableRecord
  2
*Model_Space
340
1A
 70
0
280
1
281
0
  0
BLOCK_RECORD
  5
1B
330
9
100
AcDbSymbolTableRecord
100
AcDbBlockTableRecord
  2
*Paper_Space
340
1E
 70
0
280
1
281
0
  0
ENDTAB
  0
ENDSEC
  0
SECTION
  2
BLOCKS
  0
BLOCK
  5
18
330
17
100
AcDbEntity
  8
0
100
AcDbBlockBegin
  2
*Model_Space
 70
0
 10
0.0
 20
0.0
 30
0.0
  3
*Model_Space
  1

  0
ENDBLK
  5
19
330
17
100
AcDbEntity
  8
0
100
AcDbBlockEnd
  0
BLOCK
  5
1C
330
1B
100
AcDbEntity
  8
0
100
AcDbBlockBegin
  2
*Paper_Space
 70
0
 10
0.0
 20
0.0
 30
0.0
  3
*Paper_Space
  1

  0
ENDBLK
  5
1D
330
1B
100
AcDbEntity
  8
0
100
AcDbBlockEnd
  0
ENDSEC
  0
SECTION
  2
ENTITIES
  0
LWPOLYLINE
  5
32
330
17
100
AcDbEntity
  8
CUTS
100
AcDbPolyline
 90
4
 70
1
 10
0.0
 20
0.0
 10
150.0
 20
0.0
 10
150.0
 20
80.0
 10
0.0
 20
80.0
  0
TEXT
  5
33
330
17
100
AcDbEntity
  8
ENGRAVE
100
AcDbText
 10
5.0
 20
72.0
 30
0.0
 40
3.0
  1
M7 CHASSIS
 11
5.0
 21
72.0
 31
0.0
100
AcDbText
  0
LWPOLYLINE
  5
34
330
17
100
AcDbEntity
  8
CUTS
100
AcDbPolyline
 90
4
 70
1
 10
20.0
 20
8.55
 10
30.0
 20
8.55
 10
30.0
 20
11.450000000000001
 10
20.0
 20
11.450000000000001
  0
LWPOLYLINE
  5
35
330
17
100
AcDbEntity
  8
CUTS
100
AcDbPolyline
 90
4
 70
1
 10
120.0
 20
8.55
 10
130.0
 20
8.55
 10
130.0
 20
11.450000000000001
 10
120.0
 20
11.450000000000001
  0
LWPOLYLINE
  5
36
330
17
100
AcDbEntity
  8
CUTS
100
AcDbPolyline
 90
4
 70
1
 10
20.0
 20
68.55
 10
30.0
 20
68.55
 10
30.0
 20
71.45
 10
20.0
 20
71.45
  0
LWPOLYLINE
  5
37
330
17
100
AcDbEntity
  8
CUTS
100
AcDbPolyline
 90
4
 70
1
 10
120.0
 20
68.55
 10
130.0
 20
68.55
 10
130.0
 20
71.45
 10
120.0
 20
71.45
  0
LWPOLYLINE
  5
38
330
17
100
AcDbEntity
  8
CUTS
100
AcDbPolyline
 90
4
 70
1
 10
70.0
 20
38.55
 10
80.0
 20
38.55
 10
80.0
 20
41.449999999999996
 10
70.0
 20
41.449999999999996
  0
CIRCLE
  5
39
330
17
100
AcDbEntity
  8
CUTS
100
AcDbCircle
 10
20.0
 20
5.0
 30
0.0
 40
1.6
  0
CIRCLE
  5
3A
330
17
100
AcDbEntity
  8
CUTS
100
AcDbCircle
 10
20.0
 20
75.0
 30
0.0
 40
1.6
  0
CIRCLE
  5
3B
330
17
100
AcDbEntity
  8
CUTS
100
AcDbCircle
 10
130.0
 20
5.0
 30
0.0
 40
1.6
  0
CIRCLE
  5
3C
330
17
100
AcDbEntity
  8
CUTS
100
AcDbCircle
 10
130.0
 20
75.0
 30
0.0
 40
1.6
  0
CIRCLE
  5
3D
330
17
100
AcDbEntity
  8
CUTS
100
AcDbCircle
 10
55.0
 20
20.0
 30
0.0
 40
2.0
  0
CIRCLE
  5
3E
330
17
100
AcDbEntity
  8
CUTS
100
AcDbCircle
 10
95.0
 20
20.0
 30
0.0
 40
2.0
  0
LWPOLYLINE
  5
3F
330
17
100
AcDbEntity
  8
CUTS
100
AcDbPolyline
 90
12
 70
1
 10
158.0
 20
30.0
 10
308.0
 20
30.0
 10
308.0
 20
0.0
 10
288.0
 20
0.0
 10
288.0
 20
-3.0
 10
278.0
 20
-3.0
 10
278.0
 20
0.0
 10
188.0
 20
0.0
 10
188.0
 20
-3.0
 10
178.0
 20
-3.0
 10
178.0
 20
0.0
 10
158.0
 20
0.0
  0
LWPOLYLINE
  5
40
330
17
100
AcDbEntity
  8
CUTS
100
AcDbPolyline
 90
4
 70
0
 10
176.0
 20
30.0
 10
176.0
 20
22.0
 10
180.0
 20
22.0
 10
180.0
 20
30.0
  0
LWPOLYLINE
  5
41
330
17
100
AcDbEntity
  8
CUTS
100
AcDbPolyline
 90
4
 70
0
 10
286.0
 20
30.0
 10
286.0
 20
22.0
 10
290.0
 20
22.0
 10
290.0
 20
30.0
  0
TEXT
  5
42
330
17
100
AcDbEntity
  8
ENGRAVE
100
AcDbText
 10
163.0
 20
20.0
 30
0.0
 40
3.0
  1
M7 RAIL L
 11
163.0
 21
20.0
 31
0.0
100
AcDbText
  0
LWPOLYLINE
  5
43
330
17
100
AcDbEntity
  8
CUTS
100
AcDbPolyline
 90
12
 70
1
 10
158.0
 20
68.0
 10
308.0
 20
68.0
 10
308.0
 20
38.0
 10
288.0
 20
38.0
 10
288.0
 20
35.0
 10
278.0
 20
35.0
 10
278.0
 20
38.0
 10
188.0
 20
38.0
 10
188.0
 20
35.0
 10
178.0
 20
35.0
 10
178.0
 20
38.0
 10
158.0
 20
38.0
  0
LWPOLYLINE
  5
44
330
17
100
AcDbEntity
  8
CUTS
100
AcDbPolyline
 90
4
 70
0
 10
176.0
 20
68.0
 10
176.0
 20
60.0
 10
180.0
 20
60.0
 10
180.0
 20
68.0
  0
LWPOLYLINE
  5
45
330
17
100
AcDbEntity
  8
CUTS
100
AcDbPolyline
 90
4
 70
0
 10
286.0
 20
68.0
 10
286.0
 20
60.0
 10
290.0
 20
60.0
 10
290.0
 20
68.0
  0
TEXT
  5
46
330
17
100
AcDbEntity
  8
ENGRAVE
100
AcDbText
 10
163.0
 20
58.0
 30
0.0
 40
3.0
  1
M7 RAIL R
 11
163.0
 21
58.0
 31
0.0
100
AcDbText
  0
CIRCLE
  5
47
330
17
100
AcDbEntity
  8
CUTS
100
AcDbCircle
 10
35.0
 20
-43.0
 30
0.0
 40
30.0
  0
CIRCLE
  5
48
330
17
100
AcDbEntity
  8
CUTS
100
AcDbCircle
 10
35.0
 20
-43.0
 30
0.0
 40
1.6
  0
CIRCLE
  5
49
330
17
100
AcDbEntity
  8
ENGRAVE
100
AcDbCircle
 10
35.0
 20
-43.0
 30
0.0
 40
27.0
  0
CIRCLE
  5
4A
330
17
100
AcDbEntity
  8
CUTS
100
AcDbCircle
 10
52.0
 20
-43.0
 30
0.0
 40
5.0
  0
CIRCLE
  5
4B
330
17
100
AcDbEntity
  8
CUTS
100
AcDbCircle
 10
43.5
 20
-28.277568135664545
 30
0.0
 40
5.0
  0
CIRCLE
  5
4C
330
17
100
AcDbEntity
  8
CUTS
100
AcDbCircle
 10
26.500000000000004
 20
-28.27756813566454
 30
0.0
 40
5.0
  0
CIRCLE
  5
4D
330
17
100
AcDbEntity
  8
CUTS
100
AcDbCircle
 10
18.0
 20
-43.0
 30
0.0
 40
5.0
  0
CIRCLE
  5
4E
330
17
100
AcDbEntity
  8
CUTS
100
AcDbCircle
 10
26.499999999999993
 20
-57.72243186433545
 30
0.0
 40
5.0
  0
CIRCLE
  5
4F
330
17
100
AcDbEntity
  8
CUTS
100
AcDbCircle
 10
43.5
 20
-57.722431864335455
 30
0.0
 40
5.0
  0
TEXT
  5
50
330
17
100
AcDbEntity
  8
ENGRAVE
100
AcDbText
 10
29.0
 20
-45.0
 30
0.0
 40
2.0
  1
W1
 11
29.0
 21
-45.0
 31
0.0
100
AcDbText
  0
CIRCLE
  5
51
330
17
100
AcDbEntity
  8
CUTS
100
AcDbCircle
 10
103.0
 20
-43.0
 30
0.0
 40
30.0
  0
CIRCLE
  5
52
330
17
100
AcDbEntity
  8
CUTS
100
AcDbCircle
 10
103.0
 20
-43.0
 30
0.0
 40
1.6
  0
CIRCLE
  5
53
330
17
100
AcDbEntity
  8
ENGRAVE
100
AcDbCircle
 10
103.0
 20
-43.0
 30
0.0
 40
27.0
  0
CIRCLE
  5
54
330
17
100
AcDbEntity
  8
CUTS
100
AcDbCircle
 10
120.0
 20
-43.0
 30
0.0
 40
5.0
  0
CIRCLE
  5
55
330
17
100
AcDbEntity
  8
CUTS
100
AcDbCircle
 10
111.5
 20
-28.277568135664545
 30
0.0
 40
5.0
  0
CIRCLE
  5
56
330
17
100
AcDbEntity
  8
CUTS
100
AcDbCircle
 10
94.5
 20
-28.27756813566454
 30
0.0
 40
5.0
  0
CIRCLE
  5
57
330
17
100
AcDbEntity
  8
CUTS
100
AcDbCircle
 10
86.0
 20
-43.0
 30
0.0
 40
5.0
  0
CIRCLE
  5
58
330
17
100
AcDbEntity
  8
CUTS
100
AcDbCircle
 10
94.5
 20
-57.72243186433545
 30
0.0
 40
5.0
  0
CIRCLE
  5
59
330
17
100
AcDbEntity
  8
CUTS
100
AcDbCircle
 10
111.5
 20
-57.722431864335455
 30
0.0
 40
5.0
  0
TEXT
  5
5A
330
17
100
AcDbEntity
  8
ENGRAVE
100
AcDbText
 10
97.0
 20
-45.0
 30
0.0
 40
2.0
  1
W2
 11
97.0
 21
-45.0
 31
0.0
100
AcDbText
  0
CIRCLE
  5
5B
330
17
100
AcDbEntity
  8
CUTS
100
AcDbCircle
 10
171.0
 20
-43.0
 30
0.0
 40
30.0
  0
CIRCLE
  5
5C
330
17
100
AcDbEntity
  8
CUTS
100
AcDbCircle
 10
171.0
 20
-43.0
 30
0.0
 40
1.6
  0
CIRCLE
  5
5D
330
17
100
AcDbEntity
  8
ENGRAVE
100
AcDbCircle
 10
171.0
 20
-43.0
 30
0.0
 40
27.0
  0
CIRCLE
  5
5E
330
17
100
AcDbEntity
  8
CUTS
100
AcDbCircle
 10
188.0
 20
-43.0
 30
0.0
 40
5.0
  0
CIRCLE
  5
5F
330
17
100
AcDbEntity
  8
CUTS
100
AcDbCircle
 10
179.5
 20
-28.277568135664545
 30
0.0
 40
5.0
  0
CIRCLE
  5
60
330
17
100
AcDbEntity
  8
CUTS
100
AcDbCircle
 10
162.5
 20
-28.27756813566454
 30
0.0
 40
5.0
  0
CIRCLE
  5
61
330
17
100
AcDbEntity
  8
CUTS
100
AcDbCircle
 10
154.0
 20
-43.0
 30
0.0
 40
5.0
  0
CIRCLE
  5
62
330
17
100
AcDbEntity
  8
CUTS
100
AcDbCircle
 10
162.5
 20
-57.72243186433545
 30
0.0
 40
5.0
  0
CIRCLE
  5
63
330
17
100
AcDbEntity
  8
CUTS
100
AcDbCircle
 10
179.5
 20
-57.722431864335455
 30
0.0
 40
5.0
  0
TEXT
  5
64
330
17
100
AcDbEntity
  8
ENGRAVE
100
AcDbText
 10
165.0
 20
-45.0
 30
0.0
 40
2.0
  1
W3
 11
165.0
 21
-45.0
 31
0.0
100
AcDbText
  0
CIRCLE
  5
65
330
17
100
AcDbEntity
  8
CUTS
100
AcDbCircle
 10
239.0
 20
-43.0
 30
0.0
 40
30.0
  0
CIRCLE
  5
66
330
17
100
AcDbEntity
  8
CUTS
100
AcDbCircle
 10
239.0
 20
-43.0
 30
0.0
 40
1.6
  0
CIRCLE
  5
67
330
17
100
AcDbEntity
  8
ENGRAVE
100
AcDbCircle
 10
239.0
 20
-43.0
 30
0.0
 40
27.0
  0
CIRCLE
  5
68
330
17
100
AcDbEntity
  8
CUTS
100
AcDbCircle
 10
256.0
 20
-43.0
 30
0.0
 40
5.0
  0
CIRCLE
  5
69
330
17
100
AcDbEntity
  8
CUTS
100
AcDbCircle
 10
247.5
 20
-28.277568135664545
 30
0.0
 40
5.0
  0
CIRCLE
  5
6A
330
17
100
AcDbEntity
  8
CUTS
100
AcDbCircle
 10
230.5
 20
-28.27756813566454
 30
0.0
 40
5.0
  0
CIRCLE
  5
6B
330
17
100
AcDbEntity
  8
CUTS
100
AcDbCircle
 10
222.0
 20
-43.0
 30
0.0
 40
5.0
  0
CIRCLE
  5
6C
330
17
100
AcDbEntity
  8
CUTS
100
AcDbCircle
 10
230.5
 20
-57.72243186433545
 30
0.0
 40
5.0
  0
CIRCLE
  5
6D
330
17
100
AcDbEntity
  8
CUTS
100
AcDbCircle
 10
247.5
 20
-57.722431864335455
 30
0.0
 40
5.0
  0
TEXT
  5
6E
330
17
100
AcDbEntity
  8
ENGRAVE
100
AcDbText
 10
233.0
 20
-45.0
 30
0.0
 40
2.0
  1
W4
 11
233.0
 21
-45.0
 31
0.0
100
AcDbText
  0
LWPOLYLINE
  5
6F
330
17
100
AcDbEntity
  8
CUTS
100
AcDbPolyline
 90
8
 70
1
 10
0.0
 20
-93.0
 10
80.0
 20
-93.0
 10
80.0
 20
-133.0
 10
45.0
 20
-133.0
 10
45.0
 20
-136.0
 10
35.0
 20
-136.0
 10
35.0
 20
-133.0
 10
0.0
 20
-133.0
  0
LWPOLYLINE
  5
70
330
17
100
AcDbEntity
  8
CUTS
100
AcDbPolyline
 90
4
 70
1
 10
28.0
 20
-123.0
 10
52.0
 20
-123.0
 10
52.0
 20
-103.0
 10
28.0
 20
-103.0
  0
CIRCLE
  5
71
330
17
100
AcDbEntity
  8
CUTS
100
AcDbCircle
 10
12.0
 20
-113.0
 30
0.0
 40
1.6
  0
CIRCLE
  5
72
330
17
100
AcDbEntity
  8
CUTS
100
AcDbCircle
 10
68.0
 20
-113.0
 30
0.0
 40
1.6
  0
TEXT
  5
73
330
17
100
AcDbEntity
  8
ENGRAVE
100
AcDbText
 10
5.0
 20
-101.0
 30
0.0
 40
3.0
  1
M7 TT MOUNT
 11
5.0
 21
-101.0
 31
0.0
100
AcDbText
  0
LWPOLYLINE
  5
74
330
17
100
AcDbEntity
  8
CUTS
100
AcDbPolyline
 90
60
 70
1
 10
111.99040127993173
 20
-113.4798720102396
 10
112.0
 20
-113.0
 10
111.99040127993173
 20
-112.5201279897604
 10
107.21989867285109
 20
-110.9694672734075
 10
107.13292387221365
 20
-110.68237254218789
 10
107.03453791498995
 20
-110.39898552049996
 10
109.98250009544668
 20
-106.34044356999604
 10
109.70820393249937
 20
-105.94657697249032
 10
109.4183767142331
 20
-105.56399434717862
 10
104.64750353301336
 20
-107.1135145536043
 10
104.40838939219356
 20
-106.93237254218789
 10
104.16222276875247
 20
-106.76093744034583
 10
104.16162316720006
 20
-101.74473933601608
 10
103.70820393249937
 20
-101.58732180445816
 10
103.24885236254799
 20
-101.44816212343827
 10
100.29992000639976
 20
-105.50599920004267
 10
100.0
 20
-105.5
 10
99.70007999360024
 20
-105.50599920004267
 10
96.75114763745201
 20
-101.44816212343827
 10
96.29179606750063
 20
-101.58732180445816
 10
95.83837683279994
 20
-101.74473933601608
 10
95.83777723124753
 20
-106.76093744034583
 10
95.59161060780646
 20
-106.93237254218789
 10
95.35249646698664
 20
-107.1135145536043
 10
90.5816232857669
 20
-105.56399434717862
 10
90.29179606750063
 20
-105.94657697249032
 10
90.01749990455332
 20
-106.34044356999604
 10
92.96546208501005
 20
-110.39898552049996
 10
92.86707612778635
 20
-110.68237254218789
 10
92.78010132714891
 20
-110.9694672734075
 10
88.00959872006827
 20
-112.52012798976038
 10
88.0
 20
-113.0
 10
88.00959872006827
 20
-113.4798720102396
 10
92.78010132714891
 20
-115.0305327265925
 10
92.86707612778635
 20
-115.31762745781211
 10
92.96546208501005
 20
-115.60101447950004
 10
90.01749990455332
 20
-119.65955643000396
 10
90.29179606750063
 20
-120.05342302750968
 10
90.58162328576688
 20
-120.43600565282138
 10
95.35249646698664
 20
-118.8864854463957
 10
95.59161060780644
 20
-119.06762745781211
 10
95.83777723124753
 20
-119.23906255965417
 10
95.83837683279994
 20
-124.25526066398392
 10
96.29179606750063
 20
-124.41267819554184
 10
96.75114763745201
 20
-124.55183787656173
 10
99.70007999360024
 20
-120.49400079995733
 10
100.0
 20
-120.5
 10
100.29992000639976
 20
-120.49400079995733
 10
103.24885236254799
 20
-124.55183787656173
 10
103.70820393249937
 20
-124.41267819554184
 10
104.16162316720006
 20
-124.25526066398392
 10
104.16222276875247
 20
-119.23906255965417
 10
104.40838939219354
 20
-119.06762745781211
 10
104.64750353301336
 20
-118.8864854463957
 10
109.4183767142331
 20
-120.43600565282138
 10
109.70820393249937
 20
-120.05342302750968
 10
109.98250009544668
 20
-119.65955643000396
 10
107.03453791498995
 20
-115.60101447950004
 10
107.13292387221365
 20
-115.31762745781211
 10
107.21989867285109
 20
-115.0305327265925
  0
CIRCLE
  5
75
330
17
100
AcDbEntity
  8
CUTS
100
AcDbCircle
 10
100.0
 20
-113.0
 30
0.0
 40
2.9
  0
TEXT
  5
76
330
17
100
AcDbEntity
  8
ENGRAVE
100
AcDbText
 10
94.0
 20
-115.0
 30
0.0
 40
2.0
  1
SM
 11
94.0
 21
-115.0
 31
0.0
100
AcDbText
  0
LWPOLYLINE
  5
77
330
17
100
AcDbEntity
  8
CUTS
100
AcDbPolyline
 90
180
 70
1
 10
183.9971555976952
 20
-113.42665402480372
 10
184.0
 20
-113.0
 10
183.9971555976952
 20
-112.57334597519628
 10
179.38524707271125
 20
-110.4903699940909
 10
179.34935212262752
 20
-110.12546726013953
 10
179.30859513753055
 20
-109.76107554666005
 10
183.38664733788298
 20
-106.76474788902945
 10
183.30072322348178
 20
-106.3468258938317
 10
183.2092346185007
 20
-105.93008666761907
 10
178.26503230181945
 20
-104.85149840864095
 10
178.1540541981167
 20
-104.50203265468895
 10
178.03842655366148
 20
-104.15407762810587
 10
181.40439197956144
 20
-100.37535219056377
 10
181.23345464456324
 20
-99.9844274215744
 10
181.05732032795456
 20
-99.59581649787502
 10
175.99690958572995
 20
-99.5687554435822
 10
175.81569860407205
 20
-99.25
 10
175.63025378316422
 20
-98.93368896464847
 10
178.13702359380576
 20
-94.53771418115188
 10
177.88854381999832
 20
-94.19087192664085
 10
177.63546170658407
 20
-93.84737346758251
 10
172.68000677079615
 20
-94.87302231590094
 10
172.43648270062835
 20
-94.59890832513139
 10
172.18932553180457
 20
-94.32806559108501
 10
173.72734185764654
 20
-89.50696665390012
 10
173.41217940348346
 20
-89.21936558472339
 10
173.09321039604254
 20
-88.9359921212554
 10
168.45928842629627
 20
-90.96952509590433
 10
168.164094438043
 20
-90.75203265468895
 10
167.8660268755726
 20
-90.53849534907317
 10
168.36807102295452
 20
-85.50297741595435
 10
168.0
 20
-85.28718707889797
 10
167.62908457474072
 20
-85.07632339115062
 10
163.51922019713868
 20
-88.02886534316407
 10
163.1852576845845
 20
-87.87749991482848
 10
162.84930671123425
 20
-87.73060064256438
 10
162.29343694184044
 20
-82.70074001028483
 10
161.88854381999832
 20
-82.56619147855508
 10
161.48189276085415
 20
-82.43705332151919
 10
158.07570677001488
 20
-86.17956399972596
 10
157.7175714974884
 20
-86.10094097982035
 10
157.35841978286533
 20
-86.0270999440068
 10
155.7689302729774
 20
-81.22272565814629
 10
155.34491082456492
 20
-81.17529934821525
 10
154.92029673414876
 20
-81.1335306790269
 10
152.3666558025657
 20
-85.50244440823067
 10
152.0
 20
-85.5
 10
151.6333441974343
 20
-85.50244440823067
 10
149.07970326585124
 20
-81.13353067902689
 10
148.65508917543508
 20
-81.17529934821525
 10
148.23106972702263
 20
-81.22272565814629
 10
146.64158021713467
 20
-86.0270999440068
 10
146.28242850251164
 20
-86.10094097982034
 10
145.92429322998512
 20
-86.17956399972596
 10
142.51810723914585
 20
-82.43705332151919
 10
142.11145618000168
 20
-82.56619147855508
 10
141.70656305815956
 20
-82.70074001028483
 10
141.15069328876575
 20
-87.73060064256438
 10
140.8147423154155
 20
-87.87749991482848
 10
140.48077980286135
 20
-88.02886534316406
 10
136.37091542525928
 20
-85.07632339115062
 10
136.0
 20
-85.28718707889796
 10
135.6319289770455
 20
-85.50297741595435
 10
136.1339731244274
 20
-90.53849534907317
 10
135.835905561957
 20
-90.75203265468895
 10
135.54071157370373
 20
-90.96952509590433
 10
130.90678960395746
 20
-88.93599212125538
 10
130.58782059651654
 20
-89.21936558472338
 10
130.27265814235346
 20
-89.50696665390011
 10
131.81067446819543
 20
-94.32806559108501
 10
131.56351729937165
 20
-94.59890832513139
 10
131.31999322920385
 20
-94.87302231590093
 10
126.36453829341595
 20
-93.84737346758251
 10
126.11145618000168
 20
-94.19087192664085
 10
125.86297640619424
 20
-94.53771418115187
 10
128.36974621683578
 20
-98.93368896464847
 10
128.18430139592795
 20
-99.25
 10
128.00309041427008
 20
-99.5687554435822
 10
122.94267967204546
 20
-99.595816497875
 10
122.76654535543678
 20
-99.98442742157438
 10
122.59560802043856
 20
-100.37535219056376
 10
125.96157344633852
 20
-104.15407762810587
 10
125.84594580188327
 20
-104.50203265468895
 10
125.73496769818055
 20
-104.85149840864095
 10
120.79076538149931
 20
-105.93008666761905
 10
120.69927677651822
 20
-106.34682589383169
 10
120.61335266211702
 20
-106.76474788902942
 10
124.69140486246947
 20
-109.76107554666005
 10
124.65064787737248
 20
-110.12546726013952
 10
124.61475292728875
 20
-110.49036999409088
 10
120.00284440230477
 20
-112.57334597519628
 10
120.0
 20
-113.0
 10
120.00284440230477
 20
-113.42665402480372
 10
124.61475292728875
 20
-115.5096300059091
 10
124.65064787737248
 20
-115.87453273986047
 10
124.69140486246945
 20
-116.23892445333993
 10
120.61335266211701
 20
-119.23525211097055
 10
120.69927677651822
 20
-119.6531741061683
 10
120.7907653814993
 20
-120.06991333238092
 10
125.73496769818055
 20
-121.14850159135905
 10
125.84594580188327
 20
-121.49796734531105
 10
125.96157344633852
 20
-121.84592237189412
 10
122.59560802043856
 20
-125.62464780943621
 10
122.76654535543676
 20
-126.01557257842559
 10
122.94267967204544
 20
-126.40418350212497
 10
128.00309041427005
 20
-126.4312445564178
 10
128.18430139592795
 20
-126.75
 10
128.36974621683575
 20
-127.06631103535153
 10
125.86297640619422
 20
-131.4622858188481
 10
126.11145618000168
 20
-131.80912807335915
 10
126.36453829341593
 20
-132.1526265324175
 10
131.31999322920385
 20
-131.12697768409907
 10
131.56351729937165
 20
-131.4010916748686
 10
131.81067446819543
 20
-131.67193440891498
 10
130.27265814235346
 20
-136.49303334609988
 10
130.58782059651654
 20
-136.7806344152766
 10
130.90678960395744
 20
-137.0640078787446
 10
135.5407115737037
 20
-135.03047490409566
 10
135.835905561957
 20
-135.24796734531105
 10
136.1339731244274
 20
-135.46150465092683
 10
135.63192897704545
 20
-140.49702258404562
 10
136.0
 20
-140.71281292110203
 10
136.37091542525928
 20
-140.92367660884938
 10
140.48077980286132
 20
-137.97113465683591
 10
140.8147423154155
 20
-138.1225000851715
 10
141.15069328876572
 20
-138.26939935743562
 10
141.70656305815953
 20
-143.29925998971515
 10
142.11145618000168
 20
-143.43380852144492
 10
142.51810723914585
 20
-143.5629466784808
 10
145.92429322998512
 20
-139.82043600027404
 10
146.2824285025116
 20
-139.89905902017966
 10
146.64158021713467
 20
-139.9729000559932
 10
148.23106972702257
 20
-144.7772743418537
 10
148.65508917543505
 20
-144.82470065178475
 10
149.0797032658512
 20
-144.8664693209731
 10
151.63334419743427
 20
-140.49755559176933
 10
151.99999999999997
 20
-140.5
 10
152.36665580256567
 20
-140.49755559176933
 10
154.92029673414874
 20
-144.8664693209731
 10
155.3449108245649
 20
-144.82470065178475
 10
155.76893027297737
 20
-144.7772743418537
 10
157.3584197828653
 20
-139.9729000559932
 10
157.71757149748836
 20
-139.89905902017966
 10
158.07570677001485
 20
-139.82043600027404
 10
161.48189276085415
 20
-143.5629466784808
 10
161.88854381999832
 20
-143.43380852144492
 10
162.29343694184044
 20
-143.29925998971515
 10
162.84930671123425
 20
-138.26939935743562
 10
163.18525768458449
 20
-138.12250008517154
 10
163.51922019713865
 20
-137.97113465683594
 10
167.6290845747407
 20
-140.9236766088494
 10
167.99999999999997
 20
-140.71281292110206
 10
168.3680710229545
 20
-140.49702258404565
 10
167.86602687557257
 20
-135.46150465092686
 10
168.16409443804298
 20
-135.24796734531108
 10
168.45928842629627
 20
-135.03047490409568
 10
173.09321039604254
 20
-137.06400787874463
 10
173.41217940348344
 20
-136.78063441527664
 10
173.72734185764654
 20
-136.49303334609988
 10
172.18932553180457
 20
-131.671934408915
 10
172.43648270062832
 20
-131.4010916748686
 10
172.68000677079615
 20
-131.12697768409907
 10
177.63546170658404
 20
-132.15262653241751
 10
177.88854381999832
 20
-131.80912807335915
 10
178.13702359380576
 20
-131.4622858188481
 10
175.63025378316422
 20
-127.06631103535156
 10
175.81569860407205
 20
-126.75000000000001
 10
175.99690958572992
 20
-126.4312445564178
 10
181.05732032795453
 20
-126.40418350212502
 10
181.2334546445632
 20
-126.01557257842563
 10
181.40439197956144
 20
-125.62464780943624
 10
178.03842655366145
 20
-121.84592237189418
 10
178.1540541981167
 20
-121.49796734531108
 10
178.26503230181945
 20
-121.14850159135906
 10
183.2092346185007
 20
-120.06991333238096
 10
183.30072322348178
 20
-119.65317410616832
 10
183.38664733788298
 20
-119.23525211097056
 10
179.30859513753055
 20
-116.23892445333998
 10
179.34935212262752
 20
-115.8745327398605
 10
179.38524707271125
 20
-115.50963000590912
  0
CIRCLE
  5
78
330
17
100
AcDbEntity
  8
CUTS
100
AcDbCircle
 10
152.0
 20
-113.0
 30
0.0
 40
1.6
  0
TEXT
  5
79
330
17
100
AcDbEntity
  8
ENGRAVE
100
AcDbText
 10
146.0
 20
-115.0
 30
0.0
 40
2.0
  1
LG
 11
146.0
 21
-115.0
 31
0.0
100
AcDbText
  0
ENDSEC
  0
SECTION
  2
OBJECTS
  0
DICTIONARY
  5
A
330
0
100
AcDbDictionary
281
1
  3
ACAD_COLOR
350
B
  3
ACAD_GROUP
350
C
  3
ACAD_LAYOUT
350
D
  3
ACAD_MATERIAL
350
E
  3
ACAD_MLEADERSTYLE
350
F
  3
ACAD_MLINESTYLE
350
10
  3
ACAD_PLOTSETTINGS
350
11
  3
ACAD_PLOTSTYLENAME
350
12
  3
ACAD_SCALELIST
350
14
  3
ACAD_TABLESTYLE
350
15
  3
ACAD_VISUALSTYLE
350
16
  3
EZDXF_META
350
2D
  0
DICTIONARY
  5
B
330
A
100
AcDbDictionary
281
1
  0
DICTIONARY
  5
C
330
A
100
AcDbDictionary
281
1
  0
DICTIONARY
  5
D
330
A
100
AcDbDictionary
281
1
  3
Model
350
1A
  3
Layout1
350
1E
  0
DICTIONARY
  5
E
330
A
100
AcDbDictionary
281
1
  3
ByBlock
350
1F
  3
ByLayer
350
20
  3
Global
350
21
  0
DICTIONARY
  5
F
330
A
100
AcDbDictionary
281
1
  3
Standard
350
2C
  0
DICTIONARY
  5
10
330
A
100
AcDbDictionary
281
1
  3
Standard
350
22
  0
DICTIONARY
  5
11
330
A
100
AcDbDictionary
281
1
  0
ACDBDICTIONARYWDFLT
  5
12
330
A
100
AcDbDictionary
281
1
  3
Normal
350
13
100
AcDbDictionaryWithDefault
340
13
  0
ACDBPLACEHOLDER
  5
13
330
12
  0
DICTIONARY
  5
14
330
A
100
AcDbDictionary
281
1
  0
DICTIONARY
  5
15
330
A
100
AcDbDictionary
281
1
  0
DICTIONARY
  5
16
330
A
100
AcDbDictionary
281
1
  0
LAYOUT
  5
1A
330
D
100
AcDbPlotSettings
  1

  4
A3
  6

 40
7.5
 41
20.0
 42
7.5
 43
20.0
 44
420.0
 45
297.0
 46
0.0
 47
0.0
 48
0.0
 49
0.0
140
0.0
141
0.0
142
1.0
143
1.0
 70
1024
 72
1
 73
0
 74
5
  7

 75
16
 76
0
 77
2
 78
300
147
1.0
148
0.0
149
0.0
100
AcDbLayout
  1
Model
 70
1
 71
0
 10
0.0
 20
0.0
 11
420.0
 21
297.0
 12
0.0
 22
0.0
 32
0.0
 14
1e+20
 24
1e+20
 34
1e+20
 15
-1e+20
 25
-1e+20
 35
-1e+20
146
0.0
 13
0.0
 23
0.0
 33
0.0
 16
1.0
 26
0.0
 36
0.0
 17
0.0
 27
1.0
 37
0.0
 76
1
330
17
  0
LAYOUT
  5
1E
330
D
100
AcDbPlotSettings
  1

  4
A3
  6

 40
7.5
 41
20.0
 42
7.5
 43
20.0
 44
420.0
 45
297.0
 46
0.0
 47
0.0
 48
0.0
 49
0.0
140
0.0
141
0.0
142
1.0
143
1.0
 70
0
 72
1
 73
0
 74
5
  7

 75
16
 76
0
 77
2
 78
300
147
1.0
148
0.0
149
0.0
100
AcDbLayout
  1
Layout1
 70
1
 71
1
 10
0.0
 20
0.0
 11
420.0
 21
297.0
 12
0.0
 22
0.0
 32
0.0
 14
1e+20
 24
1e+20
 34
1e+20
 15
-1e+20
 25
-1e+20
 35
-1e+20
146
0.0
 13
0.0
 23
0.0
 33
0.0
 16
1.0
 26
0.0
 36
0.0
 17
0.0
 27
1.0
 37
0.0
 76
1
330
1B
  0
MATERIAL
  5
1F
102
{ACAD_REACTORS
330
E
102
}
330
E
100
AcDbMaterial
  1
ByBlock
  2

 70
0
 40
1.0
 71
1
 41
1.0
 91
-1023410177
 42
1.0
 72
1
  3

 73
1
 74
1
 75
1
 44
0.5
 73
0
 45
1.0
 46
1.0
 77
1
  4

 78
1
 79
1
170
1
 48
1.0
171
1
  6

172
1
173
1
174
1
140
1.0
141
1.0
175
1
  7

176
1
177
1
178
1
143
1.0
179
1
  8

270
1
271
1
272
1
145
1.0
146
1.0
273
1
  9

274
1
275
1
276
1
 42
1.0
 72
1
  3

 73
1
 74
1
 75
1
 94
63
  0
MATERIAL
  5
20
102
{ACAD_REACTORS
330
E
102
}
330
E
100
AcDbMaterial
  1
ByLayer
  2

 70
0
 40
1.0
 71
1
 41
1.0
 91
-1023410177
 42
1.0
 72
1
  3

 73
1
 74
1
 75
1
 44
0.5
 73
0
 45
1.0
 46
1.0
 77
1
  4

 78
1
 79
1
170
1
 48
1.0
171
1
  6

172
1
173
1
174
1
140
1.0
141
1.0
175
1
  7

176
1
177
1
178
1
143
1.0
179
1
  8

270
1
271
1
272
1
145
1.0
146
1.0
273
1
  9

274
1
275
1
276
1
 42
1.0
 72
1
  3

 73
1
 74
1
 75
1
 94
63
  0
MATERIAL
  5
21
102
{ACAD_REACTORS
330
E
102
}
330
E
100
AcDbMaterial
  1
Global
  2

 70
0
 40
1.0
 71
1
 41
1.0
 91
-1023410177
 42
1.0
 72
1
  3

 73
1
 74
1
 75
1
 44
0.5
 73
0
 45
1.0
 46
1.0
 77
1
  4

 78
1
 79
1
170
1
 48
1.0
171
1
  6

172
1
173
1
174
1
140
1.0
141
1.0
175
1
  7

176
1
177
1
178
1
143
1.0
179
1
  8

270
1
271
1
272
1
145
1.0
146
1.0
273
1
  9

274
1
275
1
276
1
 42
1.0
 72
1
  3

 73
1
 74
1
 75
1
 94
63
  0
MLINESTYLE
  5
22
102
{ACAD_REACTORS
330
10
102
}
330
10
100
AcDbMlineStyle
  2
Standard
 70
0
  3

 62
256
 51
90.0
 52
90.0
 71
2
 49
0.5
 62
256
  6
BYLAYER
 49
-0.5
 62
256
  6
BYLAYER
  0
MLEADERSTYLE
  5
2C
102
{ACAD_REACTORS
330
F
102
}
330
F
100
AcDbMLeaderStyle
179
2
170
2
171
1
172
0
 90
2
 40
0.0
 41
0.0
173
1
 91
-1056964608
 92
-2
290
1
 42
2.0
291
1
 43
8.0
  3
Standard
 44
4.0
300

342
29
174
1
175
1
176
0
178
1
 93
-1056964608
 45
4.0
292
0
297
0
 46
4.0
 94
-1056964608
 47
1.0
 49
1.0
140
1.0
294
1
141
0.0
177
0
142
1.0
295
0
296
0
143
3.75
271
0
272
9
273
9
  0
DICTIONARY
  5
2D
330
A
100
AcDbDictionary
280
1
281
1
  3
CREATED_BY_EZDXF
350
2E
  3
WRITTEN_BY_EZDXF
350
7C
  0
DICTIONARYVAR
  5
2E
330
2D
100
DictionaryVariables
280
0
  1
1.4.3 @ 2026-03-26T11:08:06.562980+00:00
  0
DICTIONARYVAR
  5
7C
330
2D
100
DictionaryVariables
280
0
  1
1.4.3 @ 2026-03-26T11:08:06.564517+00:00
  0
ENDSEC
  0
EOF
