  0
SECTION
  2
HEADER
  9
$ACADVER
  1
AC1024
  9
$ACADMAINTVER
 70
6
  9
$DWGCODEPAGE
  3
ANSI_1252
  9
$LASTSAVEDBY
  1
ezdxf
  9
$INSBASE
 10
0.0
 20
0.0
 30
0.0
  9
$EXTMIN
 10
1e+20
 20
1e+20
 30
1e+20
  9
$EXTMAX
 10
-1e+20
 20
-1e+20
 30
-1e+20
  9
$LIMMIN
 10
0.0
 20
0.0
  9
$LIMMAX
 10
420.0
 20
297.0
  9
$ORTHOMODE
 70
0
  9
$REGENMODE
 70
1
  9
$FILLMODE
 70
1
  9
$QTEXTMODE
 70
0
  9
$MIRRTEXT
 70
1
  9
$LTSCALE
 40
1.0
  9
$ATTMODE
 70
1
  9
$TEXTSIZE
 40
2.5
  9
$TRACEWID
 40
1.0
  9
$TEXTSTYLE
  7
Standard
  9
$CLAYER
  8
0
  9
$CELTYPE
  6
ByLayer
  9
$CECOLOR
 62
256
  9
$CELTSCALE
 40
1.0
  9
$DISPSILH
 70
0
  9
$DIMSCALE
 40
1.0
  9
$DIMASZ
 40
2.5
  9
$DIMEXO
 40
0.625
  9
$DIMDLI
 40
3.75
  9
$DIMRND
 40
0.0
  9
$DIMDLE
 40
0.0
  9
$DIMEXE
 40
1.25
  9
$DIMTP
 40
0.0
  9
$DIMTM
 40
0.0
  9
$DIMTXT
 40
2.5
  9
$DIMCEN
 40
2.5
  9
$DIMTSZ
 40
0.0
  9
$DIMTOL
 70
0
  9
$DIMLIM
 70
0
  9
$DIMTIH
 70
0
  9
$DIMTOH
 70
0
  9
$DIMSE1
 70
0
  9
$DIMSE2
 70
0
  9
$DIMTAD
 70
1
  9
$DIMZIN
 70
8
  9
$DIMBLK
  1

  9
$DIMASO
 70
1
  9
$DIMSHO
 70
1
  9
$DIMPOST
  1

  9
$DIMAPOST
  1

  9
$DIMALT
 70
0
  9
$DIMALTD
 70
3
  9
$DIMALTF
 40
0.03937007874
  9
$DIMLFAC
 40
1.0
  9
$DIMTOFL
 70
1
  9
$DIMTVP
 40
0.0
  9
$DIMTIX
 70
0
  9
$DIMSOXD
 70
0
  9
$DIMSAH
 70
0
  9
$DIMBLK1
  1

  9
$DIMBLK2
  1

  9
$DIMSTYLE
  2
ISO-25
  9
$DIMCLRD
 70
0
  9
$DIMCLRE
 70
0
  9
$DIMCLRT
 70
0
  9
$DIMTFAC
 40
1.0
  9
$DIMGAP
 40
0.625
  9
$DIMJUST
 70
0
  9
$DIMSD1
 70
0
  9
$DIMSD2
 70
0
  9
$DIMTOLJ
 70
0
  9
$DIMTZIN
 70
8
  9
$DIMALTZ
 70
0
  9
$DIMALTTZ
 70
0
  9
$DIMUPT
 70
0
  9
$DIMDEC
 70
2
  9
$DIMTDEC
 70
2
  9
$DIMALTU
 70
2
  9
$DIMALTTD
 70
3
  9
$DIMTXSTY
  7
Standard
  9
$DIMAUNIT
 70
0
  9
$DIMADEC
 70
0
  9
$DIMALTRND
 40
0.0
  9
$DIMAZIN
 70
0
  9
$DIMDSEP
 70
44
  9
$DIMATFIT
 70
3
  9
$DIMFRAC
 70
0
  9
$DIMLDRBLK
  1

  9
$DIMLUNIT
 70
2
  9
$DIMLWD
 70
-2
  9
$DIMLWE
 70
-2
  9
$DIMTMOVE
 70
0
  9
$DIMFXL
 40
1.0
  9
$DIMFXLON
 70
0
  9
$DIMJOGANG
 40
0.785398163397
  9
$DIMTFILL
 70
0
  9
$DIMTFILLCLR
 70
0
  9
$DIMARCSYM
 70
0
  9
$DIMLTYPE
  6

  9
$DIMLTEX1
  6

  9
$DIMLTEX2
  6

  9
$DIMTXTDIRECTION
 70
0
  9
$LUNITS
 70
2
  9
$LUPREC
 70
4
  9
$SKETCHINC
 40
1.0
  9
$FILLETRAD
 40
10.0
  9
$AUNITS
 70
0
  9
$AUPREC
 70
2
  9
$MENU
  1
.
  9
$ELEVATION
 40
0.0
  9
$PELEVATION
 40
0.0
  9
$THICKNESS
 40
0.0
  9
$LIMCHECK
 70
0
  9
$CHAMFERA
 40
0.0
  9
$CHAMFERB
 40
0.0
  9
$CHAMFERC
 40
0.0
  9
$CHAMFERD
 40
0.0
  9
$SKPOLY
 70
0
  9
$TDCREATE
 40
2461119.632476852
  9
$TDUCREATE
 40
2458532.153996898
  9
$TDUPDATE
 40
2461119.632476852
  9
$TDUUPDATE
 40
2458532.1544311
  9
$TDINDWG
 40
0.0
  9
$TDUSRTIMER
 40
0.0
  9
$USRTIMER
 70
1
  9
$ANGBASE
 50
0.0
  9
$ANGDIR
 70
0
  9
$PDMODE
 70
0
  9
$PDSIZE
 40
0.0
  9
$PLINEWID
 40
0.0
  9
$SPLFRAME
 70
0
  9
$SPLINETYPE
 70
6
  9
$SPLINESEGS
 70
8
  9
$HANDSEED
  5
4A
  9
$SURFTAB1
 70
6
  9
$SURFTAB2
 70
6
  9
$SURFTYPE
 70
6
  9
$SURFU
 70
6
  9
$SURFV
 70
6
  9
$UCSBASE
  2

  9
$UCSNAME
  2

  9
$UCSORG
 10
0.0
 20
0.0
 30
0.0
  9
$UCSXDIR
 10
1.0
 20
0.0
 30
0.0
  9
$UCSYDIR
 10
0.0
 20
1.0
 30
0.0
  9
$UCSORTHOREF
  2

  9
$UCSORTHOVIEW
 70
0
  9
$UCSORGTOP
 10
0.0
 20
0.0
 30
0.0
  9
$UCSORGBOTTOM
 10
0.0
 20
0.0
 30
0.0
  9
$UCSORGLEFT
 10
0.0
 20
0.0
 30
0.0
  9
$UCSORGRIGHT
 10
0.0
 20
0.0
 30
0.0
  9
$UCSORGFRONT
 10
0.0
 20
0.0
 30
0.0
  9
$UCSORGBACK
 10
0.0
 20
0.0
 30
0.0
  9
$PUCSBASE
  2

  9
$PUCSNAME
  2

  9
$PUCSORG
 10
0.0
 20
0.0
 30
0.0
  9
$PUCSXDIR
 10
1.0
 20
0.0
 30
0.0
  9
$PUCSYDIR
 10
0.0
 20
1.0
 30
0.0
  9
$PUCSORTHOREF
  2

  9
$PUCSORTHOVIEW
 70
0
  9
$PUCSORGTOP
 10
0.0
 20
0.0
 30
0.0
  9
$PUCSORGBOTTOM
 10
0.0
 20
0.0
 30
0.0
  9
$PUCSORGLEFT
 10
0.0
 20
0.0
 30
0.0
  9
$PUCSORGRIGHT
 10
0.0
 20
0.0
 30
0.0
  9
$PUCSORGFRONT
 10
0.0
 20
0.0
 30
0.0
  9
$PUCSORGBACK
 10
0.0
 20
0.0
 30
0.0
  9
$USERI1
 70
0
  9
$USERI2
 70
0
  9
$USERI3
 70
0
  9
$USERI4
 70
0
  9
$USERI5
 70
0
  9
$USERR1
 40
0.0
  9
$USERR2
 40
0.0
  9
$USERR3
 40
0.0
  9
$USERR4
 40
0.0
  9
$USERR5
 40
0.0
  9
$WORLDVIEW
 70
1
  9
$SHADEDGE
 70
3
  9
$SHADEDIF
 70
70
  9
$TILEMODE
 70
1
  9
$MAXACTVP
 70
64
  9
$PINSBASE
 10
0.0
 20
0.0
 30
0.0
  9
$PLIMCHECK
 70
0
  9
$PEXTMIN
 10
1e+20
 20
1e+20
 30
1e+20
  9
$PEXTMAX
 10
-1e+20
 20
-1e+20
 30
-1e+20
  9
$PLIMMIN
 10
0.0
 20
0.0
  9
$PLIMMAX
 10
420.0
 20
297.0
  9
$UNITMODE
 70
0
  9
$VISRETAIN
 70
1
  9
$PLINEGEN
 70
0
  9
$PSLTSCALE
 70
1
  9
$TREEDEPTH
 70
3020
  9
$CMLSTYLE
  2
Standard
  9
$CMLJUST
 70
0
  9
$CMLSCALE
 40
20.0
  9
$PROXYGRAPHICS
 70
1
  9
$MEASUREMENT
 70
1
  9
$CELWEIGHT
370
-1
  9
$ENDCAPS
280
0
  9
$JOINSTYLE
280
0
  9
$LWDISPLAY
290
0
  9
$INSUNITS
 70
6
  9
$HYPERLINKBASE
  1

  9
$STYLESHEET
  1

  9
$XEDIT
290
1
  9
$CEPSNTYPE
380
0
  9
$PSTYLEMODE
290
1
  9
$FINGERPRINTGUID
  2
{B8B48DFA-A004-472B-A379-78581872D971}
  9
$VERSIONGUID
  2
{22B89661-2096-4094-8556-21081BA19581}
  9
$EXTNAMES
290
1
  9
$PSVPSCALE
 40
0.0
  9
$OLESTARTUP
290
0
  9
$SORTENTS
280
127
  9
$INDEXCTL
280
0
  9
$HIDETEXT
280
1
  9
$XCLIPFRAME
280
1
  9
$HALOGAP
280
0
  9
$OBSCOLOR
 70
257
  9
$OBSLTYPE
280
0
  9
$INTERSECTIONDISPLAY
280
0
  9
$INTERSECTIONCOLOR
 70
257
  9
$DIMASSOC
280
2
  9
$PROJECTNAME
  1

  9
$CAMERADISPLAY
290
0
  9
$LENSLENGTH
 40
50.0
  9
$CAMERAHEIGHT
 40
0.0
  9
$STEPSPERSEC
 40
24.0
  9
$STEPSIZE
 40
100.0
  9
$3DDWFPREC
 40
2.0
  9
$PSOLWIDTH
 40
0.005
  9
$PSOLHEIGHT
 40
0.08
  9
$LOFTANG1
 40
1.570796326795
  9
$LOFTANG2
 40
1.570796326795
  9
$LOFTMAG1
 40
0.0
  9
$LOFTMAG2
 40
0.0
  9
$LOFTPARAM
 70
7
  9
$LOFTNORMALS
280
1
  9
$LATITUDE
 40
37.795
  9
$LONGITUDE
 40
-122.394
  9
$NORTHDIRECTION
 40
0.0
  9
$TIMEZONE
 70
-8000
  9
$LIGHTGLYPHDISPLAY
280
1
  9
$TILEMODELIGHTSYNCH
280
1
  9
$CMATERIAL
347
20
  9
$SOLIDHIST
280
0
  9
$SHOWHIST
280
1
  9
$DWFFRAME
280
2
  9
$DGNFRAME
280
2
  9
$REALWORLDSCALE
290
1
  9
$INTERFERECOLOR
 62
256
  9
$CSHADOW
280
0
  9
$SHADOWPLANELOCATION
 40
0.0
  0
ENDSEC
  0
SECTION
  2
CLASSES
  0
CLASS
  1
ACDBDICTIONARYWDFLT
  2
AcDbDictionaryWithDefault
  3
ObjectDBX Classes
 90
0
 91
0
280
0
281
0
  0
CLASS
  1
SUN
  2
AcDbSun
  3
SCENEOE
 90
1153
 91
0
280
0
281
0
  0
CLASS
  1
VISUALSTYLE
  2
AcDbVisualStyle
  3
ObjectDBX Classes
 90
4095
 91
0
280
0
281
0
  0
CLASS
  1
MATERIAL
  2
AcDbMaterial
  3
ObjectDBX Classes
 90
1153
 91
0
280
0
281
0
  0
CLASS
  1
SCALE
  2
AcDbScale
  3
ObjectDBX Classes
 90
1153
 91
0
280
0
281
0
  0
CLASS
  1
TABLESTYLE
  2
AcDbTableStyle
  3
ObjectDBX Classes
 90
4095
 91
0
280
0
281
0
  0
CLASS
  1
MLEADERSTYLE
  2
AcDbMLeaderStyle
  3
ACDB_MLEADERSTYLE_CLASS
 90
4095
 91
0
280
0
281
0
  0
CLASS
  1
DICTIONARYVAR
  2
AcDbDictionaryVar
  3
ObjectDBX Classes
 90
0
 91
0
280
0
281
0
  0
CLASS
  1
CELLSTYLEMAP
  2
AcDbCellStyleMap
  3
ObjectDBX Classes
 90
1152
 91
0
280
0
281
0
  0
CLASS
  1
MENTALRAYRENDERSETTINGS
  2
AcDbMentalRayRenderSettings
  3
SCENEOE
 90
1024
 91
0
280
0
281
0
  0
CLASS
  1
ACDBDETAILVIEWSTYLE
  2
AcDbDetailViewStyle
  3
ObjectDBX Classes
 90
1025
 91
0
280
0
281
0
  0
CLASS
  1
ACDBSECTIONVIEWSTYLE
  2
AcDbSectionViewStyle
  3
ObjectDBX Classes
 90
1025
 91
0
280
0
281
0
  0
CLASS
  1
RASTERVARIABLES
  2
AcDbRasterVariables
  3
ISM
 90
0
 91
0
280
0
281
0
  0
CLASS
  1
ACDBPLACEHOLDER
  2
AcDbPlaceHolder
  3
ObjectDBX Classes
 90
0
 91
0
280
0
281
0
  0
CLASS
  1
LAYOUT
  2
AcDbLayout
  3
ObjectDBX Classes
 90
0
 91
0
280
0
281
0
  0
ENDSEC
  0
SECTION
  2
TABLES
  0
TABLE
  2
VPORT
  5
8
330
0
100
AcDbSymbolTable
 70
1
  0
VPORT
  5
23
330
8
100
AcDbSymbolTableRecord
100
AcDbViewportTableRecord
  2
*Active
 70
0
 10
0.0
 20
0.0
 11
1.0
 21
1.0
 12
0.0
 22
0.0
 13
0.0
 23
0.0
 14
0.5
 24
0.5
 15
0.5
 25
0.5
 16
0.0
 26
0.0
 36
1.0
 17
0.0
 27
0.0
 37
0.0
 40
1000.0
 41
1.34
 42
50.0
 43
0.0
 44
0.0
 50
0.0
 51
0.0
 71
0
 72
1000
 73
1
 74
3
 75
0
 76
0
 77
0
 78
0
281
0
 65
0
146
0.0
  0
ENDTAB
  0
TABLE
  2
LTYPE
  5
2
330
0
100
AcDbSymbolTable
 70
5
  0
LTYPE
  5
24
330
2
100
AcDbSymbolTableRecord
100
AcDbLinetypeTableRecord
  2
ByBlock
 70
0
  3

 72
65
 73
0
 40
0.0
  0
LTYPE
  5
25
330
2
100
AcDbSymbolTableRecord
100
AcDbLinetypeTableRecord
  2
ByLayer
 70
0
  3

 72
65
 73
0
 40
0.0
  0
LTYPE
  5
26
330
2
100
AcDbSymbolTableRecord
100
AcDbLinetypeTableRecord
  2
Continuous
 70
0
  3

 72
65
 73
0
 40
0.0
  0
LTYPE
  5
2F
330
2
100
AcDbSymbolTableRecord
100
AcDbLinetypeTableRecord
  2
DASHED
 70
0
  3

 72
65
 73
2
 40
0.6
 49
0.5
 74
0
 49
-0.1
 74
0
  0
LTYPE
  5
30
330
2
100
AcDbSymbolTableRecord
100
AcDbLinetypeTableRecord
  2
DASHDOT
 70
0
  3

 72
65
 73
4
 40
1.0
 49
0.5
 74
0
 49
-0.1
 74
0
 49
0.0
 74
0
 49
-0.1
 74
0
  0
ENDTAB
  0
TABLE
  2
LAYER
  5
1
330
0
100
AcDbSymbolTable
 70
2
  0
LAYER
  5
27
330
1
100
AcDbSymbolTableRecord
100
AcDbLayerTableRecord
  2
0
 70
0
 62
7
  6
Continuous
370
-3
390
13
347
21
  0
LAYER
  5
28
330
1
100
AcDbSymbolTableRecord
100
AcDbLayerTableRecord
  2
Defpoints
 70
0
 62
7
  6
Continuous
290
0
370
-3
390
13
347
21
  0
ENDTAB
  0
TABLE
  2
STYLE
  5
5
330
0
100
AcDbSymbolTable
 70
1
  0
STYLE
  5
29
330
5
100
AcDbSymbolTableRecord
100
AcDbTextStyleTableRecord
  2
Standard
 70
0
 40
0.0
 41
1.0
 50
0.0
 71
0
 42
2.5
  3
txt
  4

  0
ENDTAB
  0
TABLE
  2
VIEW
  5
7
330
0
100
AcDbSymbolTable
 70
0
  0
ENDTAB
  0
TABLE
  2
UCS
  5
6
330
0
100
AcDbSymbolTable
 70
0
  0
ENDTAB
  0
TABLE
  2
APPID
  5
3
330
0
100
AcDbSymbolTable
 70
3
  0
APPID
  5
2A
330
3
100
AcDbSymbolTableRecord
100
AcDbRegAppTableRecord
  2
ACAD
 70
0
  0
APPID
  5
47
330
3
100
AcDbSymbolTableRecord
100
AcDbRegAppTableRecord
  2
HATCHBACKGROUNDCOLOR
 70
0
  0
APPID
  5
48
330
3
100
AcDbSymbolTableRecord
100
AcDbRegAppTableRecord
  2
EZDXF
 70
0
  0
ENDTAB
  0
TABLE
  2
DIMSTYLE
  5
4
330
0
100
AcDbSymbolTable
 70
1
100
AcDbDimStyleTable
  0
DIMSTYLE
105
2B
330
4
100
AcDbSymbolTableRecord
100
AcDbDimStyleTableRecord
  2
Standard
 70
0
 40
1.0
 41
2.5
 42
0.625
 43
3.75
 44
1.25
 45
0.0
 46
0.0
 47
0.0
 48
0.0
 49
2.5
140
2.5
141
2.5
142
0.0
143
0.03937007874
144
1.0
145
0.0
146
1.0
147
0.625
148
0.0
 69
0
 70
0
 71
0
 72
0
 73
0
 74
0
 75
0
 76
0
 77
1
 78
8
 79
3
170
0
171
3
172
1
173
0
174
0
175
0
176
0
177
0
178
0
179
2
271
2
272
2
273
2
274
3
275
0
276
0
277
2
278
44
279
0
280
0
281
0
282
0
283
0
284
8
285
0
286
0
288
0
289
3
290
0
371
-2
372
-2
  0
ENDTAB
  0
TABLE
  2
BLOCK_RECORD
  5
9
330
0
100
AcDbSymbolTable
 70
2
  0
BLOCK_RECORD
  5
17
330
9
100
AcDbSymbolTableRecord
100
AcDbBlockTableRecord
  2
*Model_Space
340
1A
 70
0
280
1
281
0
  0
BLOCK_RECORD
  5
1B
330
9
100
AcDbSymbolTableRecord
100
AcDbBlockTableRecord
  2
*Paper_Space
340
1E
 70
0
280
1
281
0
  0
ENDTAB
  0
ENDSEC
  0
SECTION
  2
BLOCKS
  0
BLOCK
  5
18
330
17
100
AcDbEntity
  8
0
100
AcDbBlockBegin
  2
*Model_Space
 70
0
 10
0.0
 20
0.0
 30
0.0
  3
*Model_Space
  1

  0
ENDBLK
  5
19
330
17
100
AcDbEntity
  8
0
100
AcDbBlockEnd
  0
BLOCK
  5
1C
330
1B
100
AcDbEntity
  8
0
100
AcDbBlockBegin
  2
*Paper_Space
 70
0
 10
0.0
 20
0.0
 30
0.0
  3
*Paper_Space
  1

  0
ENDBLK
  5
1D
330
1B
100
AcDbEntity
  8
0
100
AcDbBlockEnd
  0
ENDSEC
  0
SECTION
  2
ENTITIES
  0
LWPOLYLINE
  5
31
330
17
100
AcDbEntity
  8
0
  6
DASHED
 62
9
100
AcDbPolyline
 90
5
 70
0
 10
0.0
 20
0.0
 10
400.0
 20
0.0
 10
400.0
 20
600.0
 10
0.0
 20
600.0
 10
0.0
 20
0.0
  0
LWPOLYLINE
  5
32
330
17
100
AcDbEntity
  8
0
  6
DASHDOT
 62
9
100
AcDbPolyline
 90
5
 70
0
 10
5.0
 20
5.0
 10
395.0
 20
5.0
 10
395.0
 20
595.0
 10
5.0
 20
595.0
 10
5.0
 20
5.0
  0
LWPOLYLINE
  5
33
330
17
100
AcDbEntity
  8
0
 62
4
100
AcDbPolyline
 90
5
 70
0
 10
5.0
 20
5.0
 10
95.0
 20
5.0
 10
95.0
 20
128.0
 10
5.0
 20
128.0
 10
5.0
 20
5.0
  0
TEXT
  5
34
330
17
100
AcDbEntity
  8
0
 62
7
100
AcDbText
 10
50.0
 20
66.5
 30
0.0
 40
8.0
  1
Side Frame #1
 72
1
 11
50.0
 21
66.5
 31
0.0
100
AcDbText
 73
2
  0
LWPOLYLINE
  5
35
330
17
100
AcDbEntity
  8
0
 62
4
100
AcDbPolyline
 90
5
 70
0
 10
98.0
 20
5.0
 10
188.0
 20
5.0
 10
188.0
 20
128.0
 10
98.0
 20
128.0
 10
98.0
 20
5.0
  0
TEXT
  5
36
330
17
100
AcDbEntity
  8
0
 62
7
100
AcDbText
 10
143.0
 20
66.5
 30
0.0
 40
8.0
  1
Side Frame #2
 72
1
 11
143.0
 21
66.5
 31
0.0
100
AcDbText
 73
2
  0
LWPOLYLINE
  5
37
330
17
100
AcDbEntity
  8
0
 62
4
100
AcDbPolyline
 90
5
 70
0
 10
191.0
 20
5.0
 10
291.0
 20
5.0
 10
291.0
 20
85.0
 10
191.0
 20
85.0
 10
191.0
 20
5.0
  0
TEXT
  5
38
330
17
100
AcDbEntity
  8
0
 62
7
100
AcDbText
 10
241.0
 20
45.0
 30
0.0
 40
8.0
  1
Base
 72
1
 11
241.0
 21
45.0
 31
0.0
100
AcDbText
 73
2
  0
LWPOLYLINE
  5
39
330
17
100
AcDbEntity
  8
0
 62
4
100
AcDbPolyline
 90
5
 70
0
 10
294.0
 20
5.0
 10
309.0
 20
5.0
 10
309.0
 20
85.0
 10
294.0
 20
85.0
 10
294.0
 20
5.0
  0
TEXT
  5
3A
330
17
100
AcDbEntity
  8
0
 62
7
100
AcDbText
 10
301.5
 20
45.0
 30
0.0
 40
3.0
  1
Follower
 72
1
 11
301.5
 21
45.0
 31
0.0
100
AcDbText
 73
2
  0
LWPOLYLINE
  5
3B
330
17
100
AcDbEntity
  8
0
 62
4
100
AcDbPolyline
 90
81
 70
0
 10
349.5
 20
30.0
 10
349.6172350050599
 20
30.99299793030554
 10
349.6547568638752
 20
32.004316583327956
 10
349.61042240515735
 20
33.02749456250627
 10
349.4826167763739
 20
34.05584805117118
 10
349.2702750411655
 20
35.082514336098846
 10
348.97290016878117
 20
36.10049734025016
 10
348.59057723418846
 20
37.102714864107426
 10
348.1239836726555
 20
38.082047219021504
 10
347.5743954591254
 20
39.03138692209161
 10
346.9436891104358
 20
39.94368911043583
 10
346.2343394371948
 20
40.81202232337544
 10
345.44941300170433
 20
41.62961929413987
 10
344.59255726852865
 20
42.3899273882704
 10
343.6679854649246
 20
43.08665832401665
 10
342.6804571991693
 20
43.71383681071441
 10
341.6352549156242
 20
44.265847744427305
 10
340.53815629594106
 20
44.73748160602729
 10
339.39540274592855
 20
45.12397771536305
 10
338.2136641370401
 20
45.42106500618432
 10
337.0
 20
45.625
 10
335.76181739554494
 20
45.732601672975925
 10
334.50682571342134
 20
45.74128292823501
 10
333.242988675444
 20
45.64907840640011
 10
331.9784738414071
 20
45.45466838979625
 10
330.72159993776023
 20
45.1573985802633
 10
329.48078234806377
 20
44.75729555686984
 10
328.2644771211552
 20
44.25507774779498
 10
327.08112386756454
 20
43.652161780077236
 10
325.93908792687654
 20
42.95066410162553
 10
324.8466021983562
 20
42.153397801643784
 10
323.8117090341245
 20
41.263864588226625
 10
322.8422025984384
 20
40.28624191511828
 10
321.9455720981231
 20
39.22536528326597
 10
321.1289462878947
 20
38.08670577661068
 10
320.39903965018783
 20
36.87634292531021
 10
319.76210064215036
 20
35.600933023045926
 10
319.22386239273
 20
34.26767305799078
 10
318.78949622027716
 20
32.88426044917926
 10
318.46356832589964
 20
31.45884881118962
 10
318.25
 20
30.000000000000004
 10
318.15203165910805
 20
28.516632721395442
 10
318.17219100740516
 20
27.017968010170602
 10
318.31226559235716
 20
25.51347191339432
 10
318.57327999678137
 20
24.012795733985403
 10
318.9554778806389
 20
22.52571421161934
 10
319.4583090550415
 20
21.062062036377675
 10
320.0804217385985
 20
19.631669106417885
 10
320.819660112501
 20
18.24429495415054
 10
321.67306725587434
 20
16.909562775844744
 10
322.6368935071483
 20
15.636893507148255
 10
323.70661026074157
 20
14.435440391624374
 10
324.87692917146774
 20
13.31402449101671
 10
326.1418267019967
 20
12.281071584516518
 10
327.49457391170324
 20
11.344550899806048
 10
328.9277713485489
 20
10.511916111090041
 10
330.43338886953234
 20
9.790049028727989
 10
332.0028101799595
 20
9.185206391487238
 10
333.62688184757
 20
8.702970155917345
 10
335.29596651466085
 20
8.348201657983626
 10
337.0
 20
8.125
 10
338.7285519527541
 20
8.036664991192026
 10
340.4708896930801
 20
8.08566494304538
 10
342.2160448486554
 20
8.273609591114415
 10
343.9528823734363
 20
8.601228383359043
 10
345.67017151452154
 20
9.068354341541156
 10
347.3566582753084
 20
9.673913666952856
 10
349.00113890831943
 20
10.415921224991937
 10
350.59253395926345
 20
11.291482005079338
 10
352.1199623751871
 20
12.296798613374282
 10
353.5728151840597
 20
13.42718481594029
 10
354.9408282508757
 20
14.677085109709735
 10
356.214153616405
 20
16.04010025805376
 10
357.38342892909003
 20
17.509018687259335
 10
358.4398444882826
 20
19.07585360001715
 10
359.37520742800774
 20
20.731885622407965
 10
360.1820025846944
 20
22.46771076211065
 10
360.8534496097555
 20
24.273293417909827
 10
361.3835559084425
 20
26.138024144319296
 10
361.7671650099324
 20
28.050781840511355
 10
349.5
 20
30.0
  0
CIRCLE
  5
3C
330
17
100
AcDbEntity
  8
0
 62
4
100
AcDbCircle
 10
337.0
 20
30.0
 30
0.0
 40
1.5
  0
TEXT
  5
3D
330
17
100
AcDbEntity
  8
0
 62
7
100
AcDbText
 10
337.0
 20
30.0
 30
0.0
 40
8.0
  1
Snail Cam
 72
1
 11
337.0
 21
30.0
 31
0.0
100
AcDbText
 73
2
  0
CIRCLE
  5
3E
330
17
100
AcDbEntity
  8
0
 62
4
100
AcDbCircle
 10
25.0
 20
151.0
 30
0.0
 40
20.0
  0
TEXT
  5
3F
330
17
100
AcDbEntity
  8
0
 62
7
100
AcDbText
 10
25.0
 20
151.0
 30
0.0
 40
7.199999999999999
  1
Round Cam
 72
1
 11
25.0
 21
151.0
 31
0.0
100
AcDbText
 73
2
  0
LWPOLYLINE
  5
40
330
17
100
AcDbEntity
  8
0
 62
4
100
AcDbPolyline
 90
65
 70
0
 10
101.75
 20
149.0
 10
101.46683446118195
 20
151.8037384752179
 10
100.64245444225163
 20
154.4984260532926
 10
99.34572583424817
 20
156.99188855904745
 10
97.67293321492201
 20
159.2198635611463
 10
95.72866196876691
 20
161.14872292756715
 10
93.61030110334467
 20
162.77136291833946
 10
91.3990521383768
 20
164.09971186131656
 10
89.1569900233434
 20
165.1569900233434
 10
86.9281312858299
 20
165.97147707663592
 10
84.7414125775673
 20
166.57226572542027
 10
82.61412030067882
 20
166.98675397768312
 10
80.55500071023067
 20
167.23938517837723
 10
78.56676563669762
 20
167.35116695689132
 10
76.64797640919446
 20
167.33961586828673
 10
74.79440447947175
 20
167.21889442436526
 10
73.0
 20
167.0
 10
71.25759570285473
 20
166.69092771301786
 10
69.55945876915732
 20
166.29676880410267
 10
67.89779036960878
 20
165.81973104079032
 10
66.26526599881217
 20
165.2590861646429
 10
64.6557100947685
 20
164.61106840251068
 10
63.065002640405325
 20
163.8687743004358
 10
61.49231533649243
 20
163.02215433383867
 10
59.941753731089605
 20
162.0582462689104
 10
58.424409392404
 20
160.96187807545547
 10
56.96065851388772
 20
159.717145347313
 10
55.58223603854978
 20
158.3099888007575
 10
54.33317422613487
 20
156.7320524019906
 10
53.26827924681152
 20
154.9855520523459
 10
52.44783200055889
 20
153.0880803915533
 10
51.92818207414361
 20
151.07539291880425
 10
51.75
 20
149.0
 10
51.928182074143606
 20
146.92460708119575
 10
52.44783200055889
 20
144.9119196084467
 10
53.26827924681151
 20
143.0144479476541
 10
54.33317422613487
 20
141.2679475980094
 10
55.58223603854978
 20
139.6900111992425
 10
56.96065851388772
 20
138.282854652687
 10
58.424409392404
 20
137.03812192454455
 10
59.9417537310896
 20
135.9417537310896
 10
61.492315336492425
 20
134.97784566616136
 10
63.065002640405325
 20
134.1312256995642
 10
64.6557100947685
 20
133.38893159748932
 10
66.26526599881215
 20
132.7409138353571
 10
67.89779036960878
 20
132.18026895920968
 10
69.55945876915732
 20
131.70323119589733
 10
71.25759570285473
 20
131.30907228698214
 10
73.0
 20
131.0
 10
74.79440447947174
 20
130.78110557563474
 10
76.64797640919446
 20
130.66038413171327
 10
78.56676563669762
 20
130.64883304310868
 10
80.55500071023067
 20
130.76061482162277
 10
82.61412030067882
 20
131.01324602231688
 10
84.74141257756729
 20
131.42773427457973
 10
86.9281312858299
 20
132.02852292336408
 10
89.15699002334338
 20
132.8430099766566
 10
91.39905213837679
 20
133.90028813868344
 10
93.61030110334467
 20
135.22863708166054
 10
95.72866196876691
 20
136.85127707243282
 10
97.672933214922
 20
138.78013643885367
 10
99.34572583424816
 20
141.00811144095252
 10
100.64245444225163
 20
143.50157394670737
 10
101.46683446118195
 20
146.1962615247821
 10
101.75
 20
149.0
  0
CIRCLE
  5
41
330
17
100
AcDbEntity
  8
0
 62
4
100
AcDbCircle
 10
73.0
 20
149.0
 30
0.0
 40
1.5
  0
TEXT
  5
42
330
17
100
AcDbEntity
  8
0
 62
7
100
AcDbText
 10
73.0
 20
149.0
 30
0.0
 40
6.4799999999999995
  1
Egg Cam
 72
1
 11
73.0
 21
149.0
 31
0.0
100
AcDbText
 73
2
  0
LWPOLYLINE
  5
43
330
17
100
AcDbEntity
  8
0
 62
4
100
AcDbPolyline
 90
5
 70
0
 10
101.0
 20
131.0
 10
161.0
 20
131.0
 10
161.0
 20
143.0
 10
101.0
 20
143.0
 10
101.0
 20
131.0
  0
TEXT
  5
44
330
17
100
AcDbEntity
  8
0
 62
7
100
AcDbText
 10
131.0
 20
137.0
 30
0.0
 40
3.0
  1
Handle
 72
1
 11
131.0
 21
137.0
 31
0.0
100
AcDbText
 73
2
  0
TEXT
  5
45
330
17
100
AcDbEntity
  8
0
 62
7
100
AcDbText
 10
200.0
 20
598.0
 30
0.0
 40
8.0
  1
M3 Automata Card - Sheet 1/1
 72
1
 11
200.0
 21
598.0
 31
0.0
100
AcDbText
 73
3
  0
TEXT
  5
46
330
17
100
AcDbEntity
  8
0
 62
7
100
AcDbText
 10
200.0
 20
588.0
 30
0.0
 40
4.0
  1
Material: 3mm MDF (turquoise) / 3mm Birch Ply (brown)
 72
1
 11
200.0
 21
588.0
 31
0.0
100
AcDbText
 73
3
  0
ENDSEC
  0
SECTION
  2
OBJECTS
  0
DICTIONARY
  5
A
330
0
100
AcDbDictionary
281
1
  3
ACAD_COLOR
350
B
  3
ACAD_GROUP
350
C
  3
ACAD_LAYOUT
350
D
  3
ACAD_MATERIAL
350
E
  3
ACAD_MLEADERSTYLE
350
F
  3
ACAD_MLINESTYLE
350
10
  3
ACAD_PLOTSETTINGS
350
11
  3
ACAD_PLOTSTYLENAME
350
12
  3
ACAD_SCALELIST
350
14
  3
ACAD_TABLESTYLE
350
15
  3
ACAD_VISUALSTYLE
350
16
  3
EZDXF_META
350
2D
  0
DICTIONARY
  5
B
330
A
100
AcDbDictionary
281
1
  0
DICTIONARY
  5
C
330
A
100
AcDbDictionary
281
1
  0
DICTIONARY
  5
D
330
A
100
AcDbDictionary
281
1
  3
Model
350
1A
  3
Layout1
350
1E
  0
DICTIONARY
  5
E
330
A
100
AcDbDictionary
281
1
  3
ByBlock
350
1F
  3
ByLayer
350
20
  3
Global
350
21
  0
DICTIONARY
  5
F
330
A
100
AcDbDictionary
281
1
  3
Standard
350
2C
  0
DICTIONARY
  5
10
330
A
100
AcDbDictionary
281
1
  3
Standard
350
22
  0
DICTIONARY
  5
11
330
A
100
AcDbDictionary
281
1
  0
ACDBDICTIONARYWDFLT
  5
12
330
A
100
AcDbDictionary
281
1
  3
Normal
350
13
100
AcDbDictionaryWithDefault
340
13
  0
ACDBPLACEHOLDER
  5
13
330
12
  0
DICTIONARY
  5
14
330
A
100
AcDbDictionary
281
1
  0
DICTIONARY
  5
15
330
A
100
AcDbDictionary
281
1
  0
DICTIONARY
  5
16
330
A
100
AcDbDictionary
281
1
  0
LAYOUT
  5
1A
330
D
100
AcDbPlotSettings
  1

  4
A3
  6

 40
7.5
 41
20.0
 42
7.5
 43
20.0
 44
420.0
 45
297.0
 46
0.0
 47
0.0
 48
0.0
 49
0.0
140
0.0
141
0.0
142
1.0
143
1.0
 70
1024
 72
1
 73
0
 74
5
  7

 75
16
 76
0
 77
2
 78
300
147
1.0
148
0.0
149
0.0
100
AcDbLayout
  1
Model
 70
1
 71
0
 10
0.0
 20
0.0
 11
420.0
 21
297.0
 12
0.0
 22
0.0
 32
0.0
 14
1e+20
 24
1e+20
 34
1e+20
 15
-1e+20
 25
-1e+20
 35
-1e+20
146
0.0
 13
0.0
 23
0.0
 33
0.0
 16
1.0
 26
0.0
 36
0.0
 17
0.0
 27
1.0
 37
0.0
 76
1
330
17
  0
LAYOUT
  5
1E
330
D
100
AcDbPlotSettings
  1

  4
A3
  6

 40
7.5
 41
20.0
 42
7.5
 43
20.0
 44
420.0
 45
297.0
 46
0.0
 47
0.0
 48
0.0
 49
0.0
140
0.0
141
0.0
142
1.0
143
1.0
 70
0
 72
1
 73
0
 74
5
  7

 75
16
 76
0
 77
2
 78
300
147
1.0
148
0.0
149
0.0
100
AcDbLayout
  1
Layout1
 70
1
 71
1
 10
0.0
 20
0.0
 11
420.0
 21
297.0
 12
0.0
 22
0.0
 32
0.0
 14
1e+20
 24
1e+20
 34
1e+20
 15
-1e+20
 25
-1e+20
 35
-1e+20
146
0.0
 13
0.0
 23
0.0
 33
0.0
 16
1.0
 26
0.0
 36
0.0
 17
0.0
 27
1.0
 37
0.0
 76
1
330
1B
  0
MATERIAL
  5
1F
102
{ACAD_REACTORS
330
E
102
}
330
E
100
AcDbMaterial
  1
ByBlock
  2

 70
0
 40
1.0
 71
1
 41
1.0
 91
-1023410177
 42
1.0
 72
1
  3

 73
1
 74
1
 75
1
 44
0.5
 73
0
 45
1.0
 46
1.0
 77
1
  4

 78
1
 79
1
170
1
 48
1.0
171
1
  6

172
1
173
1
174
1
140
1.0
141
1.0
175
1
  7

176
1
177
1
178
1
143
1.0
179
1
  8

270
1
271
1
272
1
145
1.0
146
1.0
273
1
  9

274
1
275
1
276
1
 42
1.0
 72
1
  3

 73
1
 74
1
 75
1
 94
63
  0
MATERIAL
  5
20
102
{ACAD_REACTORS
330
E
102
}
330
E
100
AcDbMaterial
  1
ByLayer
  2

 70
0
 40
1.0
 71
1
 41
1.0
 91
-1023410177
 42
1.0
 72
1
  3

 73
1
 74
1
 75
1
 44
0.5
 73
0
 45
1.0
 46
1.0
 77
1
  4

 78
1
 79
1
170
1
 48
1.0
171
1
  6

172
1
173
1
174
1
140
1.0
141
1.0
175
1
  7

176
1
177
1
178
1
143
1.0
179
1
  8

270
1
271
1
272
1
145
1.0
146
1.0
273
1
  9

274
1
275
1
276
1
 42
1.0
 72
1
  3

 73
1
 74
1
 75
1
 94
63
  0
MATERIAL
  5
21
102
{ACAD_REACTORS
330
E
102
}
330
E
100
AcDbMaterial
  1
Global
  2

 70
0
 40
1.0
 71
1
 41
1.0
 91
-1023410177
 42
1.0
 72
1
  3

 73
1
 74
1
 75
1
 44
0.5
 73
0
 45
1.0
 46
1.0
 77
1
  4

 78
1
 79
1
170
1
 48
1.0
171
1
  6

172
1
173
1
174
1
140
1.0
141
1.0
175
1
  7

176
1
177
1
178
1
143
1.0
179
1
  8

270
1
271
1
272
1
145
1.0
146
1.0
273
1
  9

274
1
275
1
276
1
 42
1.0
 72
1
  3

 73
1
 74
1
 75
1
 94
63
  0
MLINESTYLE
  5
22
102
{ACAD_REACTORS
330
10
102
}
330
10
100
AcDbMlineStyle
  2
Standard
 70
0
  3

 62
256
 51
90.0
 52
90.0
 71
2
 49
0.5
 62
256
  6
BYLAYER
 49
-0.5
 62
256
  6
BYLAYER
  0
MLEADERSTYLE
  5
2C
102
{ACAD_REACTORS
330
F
102
}
330
F
100
AcDbMLeaderStyle
179
2
170
2
171
1
172
0
 90
2
 40
0.0
 41
0.0
173
1
 91
-1056964608
 92
-2
290
1
 42
2.0
291
1
 43
8.0
  3
Standard
 44
4.0
300

342
29
174
1
175
1
176
0
178
1
 93
-1056964608
 45
4.0
292
0
297
0
 46
4.0
 94
-1056964608
 47
1.0
 49
1.0
140
1.0
294
1
141
0.0
177
0
142
1.0
295
0
296
0
143
3.75
271
0
272
9
273
9
  0
DICTIONARY
  5
2D
330
A
100
AcDbDictionary
280
1
281
1
  3
CREATED_BY_EZDXF
350
2E
  3
WRITTEN_BY_EZDXF
350
49
  0
DICTIONARYVAR
  5
2E
330
2D
100
DictionaryVariables
280
0
  1
1.4.3 @ 2026-03-19T12:10:46.921908+00:00
  0
DICTIONARYVAR
  5
49
330
2D
100
DictionaryVariables
280
0
  1
1.4.3 @ 2026-03-19T12:10:46.923214+00:00
  0
ENDSEC
  0
EOF
