  0
SECTION
  2
HEADER
  9
$ACADVER
  1
AC1024
  9
$ACADMAINTVER
 70
6
  9
$DWGCODEPAGE
  3
ANSI_1252
  9
$LASTSAVEDBY
  1
ezdxf
  9
$INSBASE
 10
0.0
 20
0.0
 30
0.0
  9
$EXTMIN
 10
1e+20
 20
1e+20
 30
1e+20
  9
$EXTMAX
 10
-1e+20
 20
-1e+20
 30
-1e+20
  9
$LIMMIN
 10
0.0
 20
0.0
  9
$LIMMAX
 10
420.0
 20
297.0
  9
$ORTHOMODE
 70
0
  9
$REGENMODE
 70
1
  9
$FILLMODE
 70
1
  9
$QTEXTMODE
 70
0
  9
$MIRRTEXT
 70
1
  9
$LTSCALE
 40
1.0
  9
$ATTMODE
 70
1
  9
$TEXTSIZE
 40
2.5
  9
$TRACEWID
 40
1.0
  9
$TEXTSTYLE
  7
Standard
  9
$CLAYER
  8
0
  9
$CELTYPE
  6
ByLayer
  9
$CECOLOR
 62
256
  9
$CELTSCALE
 40
1.0
  9
$DISPSILH
 70
0
  9
$DIMSCALE
 40
1.0
  9
$DIMASZ
 40
2.5
  9
$DIMEXO
 40
0.625
  9
$DIMDLI
 40
3.75
  9
$DIMRND
 40
0.0
  9
$DIMDLE
 40
0.0
  9
$DIMEXE
 40
1.25
  9
$DIMTP
 40
0.0
  9
$DIMTM
 40
0.0
  9
$DIMTXT
 40
2.5
  9
$DIMCEN
 40
2.5
  9
$DIMTSZ
 40
0.0
  9
$DIMTOL
 70
0
  9
$DIMLIM
 70
0
  9
$DIMTIH
 70
0
  9
$DIMTOH
 70
0
  9
$DIMSE1
 70
0
  9
$DIMSE2
 70
0
  9
$DIMTAD
 70
1
  9
$DIMZIN
 70
8
  9
$DIMBLK
  1

  9
$DIMASO
 70
1
  9
$DIMSHO
 70
1
  9
$DIMPOST
  1

  9
$DIMAPOST
  1

  9
$DIMALT
 70
0
  9
$DIMALTD
 70
3
  9
$DIMALTF
 40
0.03937007874
  9
$DIMLFAC
 40
1.0
  9
$DIMTOFL
 70
1
  9
$DIMTVP
 40
0.0
  9
$DIMTIX
 70
0
  9
$DIMSOXD
 70
0
  9
$DIMSAH
 70
0
  9
$DIMBLK1
  1

  9
$DIMBLK2
  1

  9
$DIMSTYLE
  2
ISO-25
  9
$DIMCLRD
 70
0
  9
$DIMCLRE
 70
0
  9
$DIMCLRT
 70
0
  9
$DIMTFAC
 40
1.0
  9
$DIMGAP
 40
0.625
  9
$DIMJUST
 70
0
  9
$DIMSD1
 70
0
  9
$DIMSD2
 70
0
  9
$DIMTOLJ
 70
0
  9
$DIMTZIN
 70
8
  9
$DIMALTZ
 70
0
  9
$DIMALTTZ
 70
0
  9
$DIMUPT
 70
0
  9
$DIMDEC
 70
2
  9
$DIMTDEC
 70
2
  9
$DIMALTU
 70
2
  9
$DIMALTTD
 70
3
  9
$DIMTXSTY
  7
Standard
  9
$DIMAUNIT
 70
0
  9
$DIMADEC
 70
0
  9
$DIMALTRND
 40
0.0
  9
$DIMAZIN
 70
0
  9
$DIMDSEP
 70
44
  9
$DIMATFIT
 70
3
  9
$DIMFRAC
 70
0
  9
$DIMLDRBLK
  1

  9
$DIMLUNIT
 70
2
  9
$DIMLWD
 70
-2
  9
$DIMLWE
 70
-2
  9
$DIMTMOVE
 70
0
  9
$DIMFXL
 40
1.0
  9
$DIMFXLON
 70
0
  9
$DIMJOGANG
 40
0.785398163397
  9
$DIMTFILL
 70
0
  9
$DIMTFILLCLR
 70
0
  9
$DIMARCSYM
 70
0
  9
$DIMLTYPE
  6

  9
$DIMLTEX1
  6

  9
$DIMLTEX2
  6

  9
$DIMTXTDIRECTION
 70
0
  9
$LUNITS
 70
2
  9
$LUPREC
 70
4
  9
$SKETCHINC
 40
1.0
  9
$FILLETRAD
 40
10.0
  9
$AUNITS
 70
0
  9
$AUPREC
 70
2
  9
$MENU
  1
.
  9
$ELEVATION
 40
0.0
  9
$PELEVATION
 40
0.0
  9
$THICKNESS
 40
0.0
  9
$LIMCHECK
 70
0
  9
$CHAMFERA
 40
0.0
  9
$CHAMFERB
 40
0.0
  9
$CHAMFERC
 40
0.0
  9
$CHAMFERD
 40
0.0
  9
$SKPOLY
 70
0
  9
$TDCREATE
 40
2461120.001365741
  9
$TDUCREATE
 40
2458532.153996898
  9
$TDUPDATE
 40
2461120.001365741
  9
$TDUUPDATE
 40
2458532.1544311
  9
$TDINDWG
 40
0.0
  9
$TDUSRTIMER
 40
0.0
  9
$USRTIMER
 70
1
  9
$ANGBASE
 50
0.0
  9
$ANGDIR
 70
0
  9
$PDMODE
 70
0
  9
$PDSIZE
 40
0.0
  9
$PLINEWID
 40
0.0
  9
$SPLFRAME
 70
0
  9
$SPLINETYPE
 70
6
  9
$SPLINESEGS
 70
8
  9
$HANDSEED
  5
71
  9
$SURFTAB1
 70
6
  9
$SURFTAB2
 70
6
  9
$SURFTYPE
 70
6
  9
$SURFU
 70
6
  9
$SURFV
 70
6
  9
$UCSBASE
  2

  9
$UCSNAME
  2

  9
$UCSORG
 10
0.0
 20
0.0
 30
0.0
  9
$UCSXDIR
 10
1.0
 20
0.0
 30
0.0
  9
$UCSYDIR
 10
0.0
 20
1.0
 30
0.0
  9
$UCSORTHOREF
  2

  9
$UCSORTHOVIEW
 70
0
  9
$UCSORGTOP
 10
0.0
 20
0.0
 30
0.0
  9
$UCSORGBOTTOM
 10
0.0
 20
0.0
 30
0.0
  9
$UCSORGLEFT
 10
0.0
 20
0.0
 30
0.0
  9
$UCSORGRIGHT
 10
0.0
 20
0.0
 30
0.0
  9
$UCSORGFRONT
 10
0.0
 20
0.0
 30
0.0
  9
$UCSORGBACK
 10
0.0
 20
0.0
 30
0.0
  9
$PUCSBASE
  2

  9
$PUCSNAME
  2

  9
$PUCSORG
 10
0.0
 20
0.0
 30
0.0
  9
$PUCSXDIR
 10
1.0
 20
0.0
 30
0.0
  9
$PUCSYDIR
 10
0.0
 20
1.0
 30
0.0
  9
$PUCSORTHOREF
  2

  9
$PUCSORTHOVIEW
 70
0
  9
$PUCSORGTOP
 10
0.0
 20
0.0
 30
0.0
  9
$PUCSORGBOTTOM
 10
0.0
 20
0.0
 30
0.0
  9
$PUCSORGLEFT
 10
0.0
 20
0.0
 30
0.0
  9
$PUCSORGRIGHT
 10
0.0
 20
0.0
 30
0.0
  9
$PUCSORGFRONT
 10
0.0
 20
0.0
 30
0.0
  9
$PUCSORGBACK
 10
0.0
 20
0.0
 30
0.0
  9
$USERI1
 70
0
  9
$USERI2
 70
0
  9
$USERI3
 70
0
  9
$USERI4
 70
0
  9
$USERI5
 70
0
  9
$USERR1
 40
0.0
  9
$USERR2
 40
0.0
  9
$USERR3
 40
0.0
  9
$USERR4
 40
0.0
  9
$USERR5
 40
0.0
  9
$WORLDVIEW
 70
1
  9
$SHADEDGE
 70
3
  9
$SHADEDIF
 70
70
  9
$TILEMODE
 70
1
  9
$MAXACTVP
 70
64
  9
$PINSBASE
 10
0.0
 20
0.0
 30
0.0
  9
$PLIMCHECK
 70
0
  9
$PEXTMIN
 10
1e+20
 20
1e+20
 30
1e+20
  9
$PEXTMAX
 10
-1e+20
 20
-1e+20
 30
-1e+20
  9
$PLIMMIN
 10
0.0
 20
0.0
  9
$PLIMMAX
 10
420.0
 20
297.0
  9
$UNITMODE
 70
0
  9
$VISRETAIN
 70
1
  9
$PLINEGEN
 70
0
  9
$PSLTSCALE
 70
1
  9
$TREEDEPTH
 70
3020
  9
$CMLSTYLE
  2
Standard
  9
$CMLJUST
 70
0
  9
$CMLSCALE
 40
20.0
  9
$PROXYGRAPHICS
 70
1
  9
$MEASUREMENT
 70
1
  9
$CELWEIGHT
370
-1
  9
$ENDCAPS
280
0
  9
$JOINSTYLE
280
0
  9
$LWDISPLAY
290
0
  9
$INSUNITS
 70
6
  9
$HYPERLINKBASE
  1

  9
$STYLESHEET
  1

  9
$XEDIT
290
1
  9
$CEPSNTYPE
380
0
  9
$PSTYLEMODE
290
1
  9
$FINGERPRINTGUID
  2
{1D4C0598-AF2B-4B25-AF2A-F981315973E6}
  9
$VERSIONGUID
  2
{CDFD6EEB-806B-410B-B69D-2D3AFFE5DE6D}
  9
$EXTNAMES
290
1
  9
$PSVPSCALE
 40
0.0
  9
$OLESTARTUP
290
0
  9
$SORTENTS
280
127
  9
$INDEXCTL
280
0
  9
$HIDETEXT
280
1
  9
$XCLIPFRAME
280
1
  9
$HALOGAP
280
0
  9
$OBSCOLOR
 70
257
  9
$OBSLTYPE
280
0
  9
$INTERSECTIONDISPLAY
280
0
  9
$INTERSECTIONCOLOR
 70
257
  9
$DIMASSOC
280
2
  9
$PROJECTNAME
  1

  9
$CAMERADISPLAY
290
0
  9
$LENSLENGTH
 40
50.0
  9
$CAMERAHEIGHT
 40
0.0
  9
$STEPSPERSEC
 40
24.0
  9
$STEPSIZE
 40
100.0
  9
$3DDWFPREC
 40
2.0
  9
$PSOLWIDTH
 40
0.005
  9
$PSOLHEIGHT
 40
0.08
  9
$LOFTANG1
 40
1.570796326795
  9
$LOFTANG2
 40
1.570796326795
  9
$LOFTMAG1
 40
0.0
  9
$LOFTMAG2
 40
0.0
  9
$LOFTPARAM
 70
7
  9
$LOFTNORMALS
280
1
  9
$LATITUDE
 40
37.795
  9
$LONGITUDE
 40
-122.394
  9
$NORTHDIRECTION
 40
0.0
  9
$TIMEZONE
 70
-8000
  9
$LIGHTGLYPHDISPLAY
280
1
  9
$TILEMODELIGHTSYNCH
280
1
  9
$CMATERIAL
347
20
  9
$SOLIDHIST
280
0
  9
$SHOWHIST
280
1
  9
$DWFFRAME
280
2
  9
$DGNFRAME
280
2
  9
$REALWORLDSCALE
290
1
  9
$INTERFERECOLOR
 62
256
  9
$CSHADOW
280
0
  9
$SHADOWPLANELOCATION
 40
0.0
  0
ENDSEC
  0
SECTION
  2
CLASSES
  0
CLASS
  1
ACDBDICTIONARYWDFLT
  2
AcDbDictionaryWithDefault
  3
ObjectDBX Classes
 90
0
 91
0
280
0
281
0
  0
CLASS
  1
SUN
  2
AcDbSun
  3
SCENEOE
 90
1153
 91
0
280
0
281
0
  0
CLASS
  1
VISUALSTYLE
  2
AcDbVisualStyle
  3
ObjectDBX Classes
 90
4095
 91
0
280
0
281
0
  0
CLASS
  1
MATERIAL
  2
AcDbMaterial
  3
ObjectDBX Classes
 90
1153
 91
0
280
0
281
0
  0
CLASS
  1
SCALE
  2
AcDbScale
  3
ObjectDBX Classes
 90
1153
 91
0
280
0
281
0
  0
CLASS
  1
TABLESTYLE
  2
AcDbTableStyle
  3
ObjectDBX Classes
 90
4095
 91
0
280
0
281
0
  0
CLASS
  1
MLEADERSTYLE
  2
AcDbMLeaderStyle
  3
ACDB_MLEADERSTYLE_CLASS
 90
4095
 91
0
280
0
281
0
  0
CLASS
  1
DICTIONARYVAR
  2
AcDbDictionaryVar
  3
ObjectDBX Classes
 90
0
 91
0
280
0
281
0
  0
CLASS
  1
CELLSTYLEMAP
  2
AcDbCellStyleMap
  3
ObjectDBX Classes
 90
1152
 91
0
280
0
281
0
  0
CLASS
  1
MENTALRAYRENDERSETTINGS
  2
AcDbMentalRayRenderSettings
  3
SCENEOE
 90
1024
 91
0
280
0
281
0
  0
CLASS
  1
ACDBDETAILVIEWSTYLE
  2
AcDbDetailViewStyle
  3
ObjectDBX Classes
 90
1025
 91
0
280
0
281
0
  0
CLASS
  1
ACDBSECTIONVIEWSTYLE
  2
AcDbSectionViewStyle
  3
ObjectDBX Classes
 90
1025
 91
0
280
0
281
0
  0
CLASS
  1
RASTERVARIABLES
  2
AcDbRasterVariables
  3
ISM
 90
0
 91
0
280
0
281
0
  0
CLASS
  1
LAYOUT
  2
AcDbLayout
  3
ObjectDBX Classes
 90
0
 91
0
280
0
281
0
  0
CLASS
  1
ACDBPLACEHOLDER
  2
AcDbPlaceHolder
  3
ObjectDBX Classes
 90
0
 91
0
280
0
281
0
  0
ENDSEC
  0
SECTION
  2
TABLES
  0
TABLE
  2
VPORT
  5
8
330
0
100
AcDbSymbolTable
 70
1
  0
VPORT
  5
23
330
8
100
AcDbSymbolTableRecord
100
AcDbViewportTableRecord
  2
*Active
 70
0
 10
0.0
 20
0.0
 11
1.0
 21
1.0
 12
0.0
 22
0.0
 13
0.0
 23
0.0
 14
0.5
 24
0.5
 15
0.5
 25
0.5
 16
0.0
 26
0.0
 36
1.0
 17
0.0
 27
0.0
 37
0.0
 40
1000.0
 41
1.34
 42
50.0
 43
0.0
 44
0.0
 50
0.0
 51
0.0
 71
0
 72
1000
 73
1
 74
3
 75
0
 76
0
 77
0
 78
0
281
0
 65
0
146
0.0
  0
ENDTAB
  0
TABLE
  2
LTYPE
  5
2
330
0
100
AcDbSymbolTable
 70
3
  0
LTYPE
  5
24
330
2
100
AcDbSymbolTableRecord
100
AcDbLinetypeTableRecord
  2
ByBlock
 70
0
  3

 72
65
 73
0
 40
0.0
  0
LTYPE
  5
25
330
2
100
AcDbSymbolTableRecord
100
AcDbLinetypeTableRecord
  2
ByLayer
 70
0
  3

 72
65
 73
0
 40
0.0
  0
LTYPE
  5
26
330
2
100
AcDbSymbolTableRecord
100
AcDbLinetypeTableRecord
  2
Continuous
 70
0
  3

 72
65
 73
0
 40
0.0
  0
ENDTAB
  0
TABLE
  2
LAYER
  5
1
330
0
100
AcDbSymbolTable
 70
6
  0
LAYER
  5
27
330
1
100
AcDbSymbolTableRecord
100
AcDbLayerTableRecord
  2
0
 70
0
 62
7
  6
Continuous
370
-3
390
13
347
21
  0
LAYER
  5
28
330
1
100
AcDbSymbolTableRecord
100
AcDbLayerTableRecord
  2
Defpoints
 70
0
 62
7
  6
Continuous
290
0
370
-3
390
13
347
21
  0
LAYER
  5
2F
330
1
100
AcDbSymbolTableRecord
100
AcDbLayerTableRecord
  2
CUTS
 70
0
 62
7
  6
Continuous
370
-3
390
13
347
21
  0
LAYER
  5
30
330
1
100
AcDbSymbolTableRecord
100
AcDbLayerTableRecord
  2
ENGRAVE
 70
0
 62
1
  6
Continuous
370
-3
390
13
347
21
  0
LAYER
  5
31
330
1
100
AcDbSymbolTableRecord
100
AcDbLayerTableRecord
  2
GUIDE
 70
0
 62
3
  6
Continuous
370
-3
390
13
347
21
  0
LAYER
  5
32
330
1
100
AcDbSymbolTableRecord
100
AcDbLayerTableRecord
  2
SHEET
 70
0
 62
8
  6
Continuous
370
-3
390
13
347
21
  0
ENDTAB
  0
TABLE
  2
STYLE
  5
5
330
0
100
AcDbSymbolTable
 70
1
  0
STYLE
  5
29
330
5
100
AcDbSymbolTableRecord
100
AcDbTextStyleTableRecord
  2
Standard
 70
0
 40
0.0
 41
1.0
 50
0.0
 71
0
 42
2.5
  3
txt
  4

  0
ENDTAB
  0
TABLE
  2
VIEW
  5
7
330
0
100
AcDbSymbolTable
 70
0
  0
ENDTAB
  0
TABLE
  2
UCS
  5
6
330
0
100
AcDbSymbolTable
 70
0
  0
ENDTAB
  0
TABLE
  2
APPID
  5
3
330
0
100
AcDbSymbolTable
 70
3
  0
APPID
  5
2A
330
3
100
AcDbSymbolTableRecord
100
AcDbRegAppTableRecord
  2
ACAD
 70
0
  0
APPID
  5
6E
330
3
100
AcDbSymbolTableRecord
100
AcDbRegAppTableRecord
  2
HATCHBACKGROUNDCOLOR
 70
0
  0
APPID
  5
6F
330
3
100
AcDbSymbolTableRecord
100
AcDbRegAppTableRecord
  2
EZDXF
 70
0
  0
ENDTAB
  0
TABLE
  2
DIMSTYLE
  5
4
330
0
100
AcDbSymbolTable
 70
1
100
AcDbDimStyleTable
  0
DIMSTYLE
105
2B
330
4
100
AcDbSymbolTableRecord
100
AcDbDimStyleTableRecord
  2
Standard
 70
0
 40
1.0
 41
2.5
 42
0.625
 43
3.75
 44
1.25
 45
0.0
 46
0.0
 47
0.0
 48
0.0
 49
2.5
140
2.5
141
2.5
142
0.0
143
0.03937007874
144
1.0
145
0.0
146
1.0
147
0.625
148
0.0
 69
0
 70
0
 71
0
 72
0
 73
0
 74
0
 75
0
 76
0
 77
1
 78
8
 79
3
170
0
171
3
172
1
173
0
174
0
175
0
176
0
177
0
178
0
179
2
271
2
272
2
273
2
274
3
275
0
276
0
277
2
278
44
279
0
280
0
281
0
282
0
283
0
284
8
285
0
286
0
288
0
289
3
290
0
371
-2
372
-2
  0
ENDTAB
  0
TABLE
  2
BLOCK_RECORD
  5
9
330
0
100
AcDbSymbolTable
 70
2
  0
BLOCK_RECORD
  5
17
330
9
100
AcDbSymbolTableRecord
100
AcDbBlockTableRecord
  2
*Model_Space
340
1A
 70
0
280
1
281
0
  0
BLOCK_RECORD
  5
1B
330
9
100
AcDbSymbolTableRecord
100
AcDbBlockTableRecord
  2
*Paper_Space
340
1E
 70
0
280
1
281
0
  0
ENDTAB
  0
ENDSEC
  0
SECTION
  2
BLOCKS
  0
BLOCK
  5
18
330
17
100
AcDbEntity
  8
0
100
AcDbBlockBegin
  2
*Model_Space
 70
0
 10
0.0
 20
0.0
 30
0.0
  3
*Model_Space
  1

  0
ENDBLK
  5
19
330
17
100
AcDbEntity
  8
0
100
AcDbBlockEnd
  0
BLOCK
  5
1C
330
1B
100
AcDbEntity
  8
0
100
AcDbBlockBegin
  2
*Paper_Space
 70
0
 10
0.0
 20
0.0
 30
0.0
  3
*Paper_Space
  1

  0
ENDBLK
  5
1D
330
1B
100
AcDbEntity
  8
0
100
AcDbBlockEnd
  0
ENDSEC
  0
SECTION
  2
ENTITIES
  0
LWPOLYLINE
  5
33
330
17
100
AcDbEntity
  8
SHEET
 62
8
100
AcDbPolyline
 90
4
 70
1
 10
0.0
 20
0.0
 10
400.0
 20
0.0
 10
400.0
 20
600.0
 10
0.0
 20
600.0
  0
LWPOLYLINE
  5
34
330
17
100
AcDbEntity
  8
CUTS
100
AcDbPolyline
 90
4
 70
1
 10
62.0
 20
177.5
 10
162.0
 20
177.5
 10
162.0
 20
257.5
 10
62.0
 20
257.5
  0
TEXT
  5
35
330
17
100
AcDbEntity
  8
ENGRAVE
100
AcDbText
 10
67.0
 20
249.5
 30
0.0
 40
3.0
  1
M3 BASE
 11
67.0
 21
249.5
 31
0.0
100
AcDbText
  0
LWPOLYLINE
  5
36
330
17
100
AcDbEntity
  8
CUTS
100
AcDbPolyline
 90
4
 70
1
 10
80.55
 20
212.5
 10
83.45
 20
212.5
 10
83.45
 20
222.5
 10
80.55
 20
222.5
  0
LWPOLYLINE
  5
37
330
17
100
AcDbEntity
  8
CUTS
100
AcDbPolyline
 90
4
 70
1
 10
140.55
 20
212.5
 10
143.45
 20
212.5
 10
143.45
 20
222.5
 10
140.55
 20
222.5
  0
LWPOLYLINE
  5
38
330
17
100
AcDbEntity
  8
CUTS
100
AcDbPolyline
 90
4
 70
1
 10
170.0
 20
177.5
 10
250.0
 20
177.5
 10
250.0
 20
297.5
 10
170.0
 20
297.5
  0
LWPOLYLINE
  5
39
330
17
100
AcDbEntity
  8
CUTS
100
AcDbPolyline
 90
4
 70
1
 10
205.0
 20
174.5
 10
215.0
 20
174.5
 10
215.0
 20
177.5
 10
205.0
 20
177.5
  0
CIRCLE
  5
3A
330
17
100
AcDbEntity
  8
CUTS
100
AcDbCircle
 10
210.0
 20
217.5
 30
0.0
 40
1.6
  0
LWPOLYLINE
  5
3B
330
17
100
AcDbEntity
  8
CUTS
100
AcDbPolyline
 90
4
 70
1
 10
208.55
 20
262.5
 10
211.45000000000002
 20
262.5
 10
211.45000000000002
 20
292.5
 10
208.55
 20
292.5
  0
TEXT
  5
3C
330
17
100
AcDbEntity
  8
ENGRAVE
100
AcDbText
 10
175.0
 20
287.5
 30
0.0
 40
3.0
  1
M3 FRAME L
 11
175.0
 21
287.5
 31
0.0
100
AcDbText
  0
LWPOLYLINE
  5
3D
330
17
100
AcDbEntity
  8
CUTS
100
AcDbPolyline
 90
4
 70
1
 10
258.0
 20
177.5
 10
338.0
 20
177.5
 10
338.0
 20
297.5
 10
258.0
 20
297.5
  0
LWPOLYLINE
  5
3E
330
17
100
AcDbEntity
  8
CUTS
100
AcDbPolyline
 90
4
 70
1
 10
293.0
 20
174.5
 10
303.0
 20
174.5
 10
303.0
 20
177.5
 10
293.0
 20
177.5
  0
CIRCLE
  5
3F
330
17
100
AcDbEntity
  8
CUTS
100
AcDbCircle
 10
298.0
 20
217.5
 30
0.0
 40
1.6
  0
LWPOLYLINE
  5
40
330
17
100
AcDbEntity
  8
CUTS
100
AcDbPolyline
 90
4
 70
1
 10
296.55
 20
262.5
 10
299.45000000000005
 20
262.5
 10
299.45000000000005
 20
292.5
 10
296.55
 20
292.5
  0
TEXT
  5
41
330
17
100
AcDbEntity
  8
ENGRAVE
100
AcDbText
 10
263.0
 20
287.5
 30
0.0
 40
3.0
  1
M3 FRAME R
 11
263.0
 21
287.5
 31
0.0
100
AcDbText
  0
LWPOLYLINE
  5
42
330
17
100
AcDbEntity
  8
CUTS
100
AcDbPolyline
 90
72
 70
1
 10
110.0
 20
114.5
 10
110.53927318748568
 20
116.12197623391512
 10
110.92361005585958
 20
117.83674302525407
 10
111.13666487320323
 20
119.62765389859985
 10
111.16422380804924
 20
121.47520702894562
 10
110.99469571757612
 20
123.3573720774297
 10
110.61954618136544
 20
125.25
 10
110.03366096995254
 20
127.12730535267899
 10
109.23562711168432
 20
128.96240835252345
 10
108.22792206135786
 20
130.72792206135784
 10
107.01700410990043
 20
132.39656859797586
 10
105.6133000270695
 20
133.9418072988417
 10
104.03108891324554
 20
135.3384572681199
 10
102.28828426224902
 20
136.56329680056257
 10
100.40611921376492
 20
137.59562272506275
 10
98.40874281184537
 20
138.41775378644877
 10
96.32273769964459
 20
139.01546372697044
 10
94.17657199129209
 20
139.37833170119416
 10
92.0
 20
139.5
 10
89.8234280087079
 20
139.37833170119416
 10
87.67726230035541
 20
139.01546372697044
 10
85.59125718815463
 20
138.41775378644877
 10
83.59388078623508
 20
137.59562272506278
 10
81.71171573775099
 20
136.5632968005626
 10
79.96891108675447
 20
135.3384572681199
 10
78.38669997293049
 20
133.9418072988417
 10
76.98299589009956
 20
132.39656859797586
 10
75.77207793864214
 20
130.72792206135784
 10
74.76437288831568
 20
128.96240835252345
 10
73.96633903004746
 20
127.12730535267899
 10
73.38045381863456
 20
125.25
 10
73.00530428242388
 20
123.3573720774297
 10
72.83577619195077
 20
121.47520702894562
 10
72.86333512679677
 20
119.62765389859985
 10
73.07638994414042
 20
117.83674302525407
 10
73.46072681251432
 20
116.12197623391512
 10
74.0
 20
114.5
 10
74.67626405618284
 20
112.98436949499943
 10
75.4705309474201
 20
111.58540862924457
 10
76.36333512679677
 20
110.31016827490909
 10
77.33528945975654
 20
109.16248186922154
 10
78.36761538425672
 20
108.14311465476453
 10
79.44263164512564
 20
107.25
 10
80.54418737554883
 20
106.47855364404133
 10
81.65802715940112
 20
105.82205440380804
 10
82.77207793864214
 20
105.27207793864214
 10
83.87665016118501
 20
104.81896864569265
 10
84.96454831843184
 20
104.45233370443799
 10
86.03108891324553
 20
104.1615427318801
 10
87.07402683958384
 20
103.93621646724318
 10
88.09339405404086
 20
103.76668837677008
 10
89.09125718815463
 20
103.64442404004231
 10
90.0714033036351
 20
103.56238461853093
 10
91.03896525237641
 20
103.51532256989131
 10
92.0
 20
103.5
 10
92.96103474762359
 20
103.51532256989131
 10
93.9285966963649
 20
103.56238461853093
 10
94.90874281184537
 20
103.64442404004231
 10
95.90660594595914
 20
103.76668837677008
 10
96.92597316041616
 20
103.93621646724318
 10
97.96891108675447
 20
104.1615427318801
 10
99.03545168156815
 20
104.45233370443799
 10
100.12334983881497
 20
104.81896864569265
 10
101.22792206135784
 20
105.27207793864214
 10
102.34197284059887
 20
105.82205440380804
 10
103.45581262445117
 20
106.47855364404133
 10
104.55736835487436
 20
107.25
 10
105.63238461574328
 20
108.14311465476453
 10
106.66471054024346
 20
109.16248186922154
 10
107.63666487320323
 20
110.31016827490909
 10
108.5294690525799
 20
111.58540862924457
 10
109.32373594381716
 20
112.98436949499943
  0
CIRCLE
  5
43
330
17
100
AcDbEntity
  8
CUTS
100
AcDbCircle
 10
92.0
 20
114.5
 30
0.0
 40
1.6
  0
TEXT
  5
44
330
17
100
AcDbEntity
  8
ENGRAVE
100
AcDbText
 10
82.0
 20
112.5
 30
0.0
 40
3.0
  1
M3 EGG
 11
82.0
 21
112.5
 31
0.0
100
AcDbText
  0
CIRCLE
  5
45
330
17
100
AcDbEntity
  8
CUTS
100
AcDbCircle
 10
150.0
 20
114.5
 30
0.0
 40
20.0
  0
CIRCLE
  5
46
330
17
100
AcDbEntity
  8
CUTS
100
AcDbCircle
 10
155.0
 20
114.5
 30
0.0
 40
1.6
  0
TEXT
  5
47
330
17
100
AcDbEntity
  8
ENGRAVE
100
AcDbText
 10
138.0
 20
112.5
 30
0.0
 40
3.0
  1
M3 ROUND
 11
138.0
 21
112.5
 31
0.0
100
AcDbText
  0
LWPOLYLINE
  5
48
330
17
100
AcDbEntity
  8
CUTS
100
AcDbPolyline
 90
72
 70
1
 10
213.0
 20
114.5
 10
213.1694875430199
 20
115.38971487388234
 10
213.25841409387718
 20
116.30883518403053
 10
213.26296190432134
 20
117.24995235421429
 10
213.18000339184735
 20
118.20521821936141
 10
213.007148481863
 20
119.16640997338689
 10
212.74278579257492
 20
120.125
 10
212.3861171741447
 20
121.07222999985574
 10
211.9371851697214
 20
121.99918877967629
 10
211.39689302659025
 20
122.89689302659025
 10
210.76701695037903
 20
123.75637035435432
 10
210.0502103634816
 20
124.56874387771886
 10
209.25
 20
125.32531754730547
 10
208.37077374295473
 20
126.01766146025743
 10
207.41776018462323
 20
126.63769635181798
 10
206.39699996697058
 20
127.17777647004402
 10
205.31530903555907
 20
127.63077004016277
 10
204.18023401637453
 20
127.99013653665905
 10
203.0
 20
128.25
 10
201.78345109081394
 20
128.40521766086394
 10
200.5399841497185
 20
128.45144316767295
 10
199.27947622665127
 20
128.38518375290536
 10
198.01220624316733
 20
128.2038507197945
 10
196.7487715450855
 20
127.90580268325044
 10
195.5
 20
127.49038105676658
 10
194.27685836382784
 20
126.95793734022841
 10
193.09035768399917
 20
126.30985183141757
 10
191.9514565439602
 20
125.54854345603981
 10
190.8709629839495
 20
124.67747048670354
 10
189.85943595619742
 20
123.70112199979803
 10
188.92708718850287
 20
122.625
 10
188.08368433835514
 20
121.45559222448234
 10
187.33845632023485
 20
120.20033572209448
 10
186.700001681372
 20
118.86757138610504
 10
186.17620088604144
 20
117.46648970181006
 10
185.7741333454969
 20
116.00706805167826
 10
185.5
 20
114.5
 10
185.35905222129202
 20
112.95661705551022
 10
185.35552775853125
 20
111.3888034834675
 10
185.49259439851062
 20
109.80890480751681
 10
185.77230195225835
 20
108.22963070569608
 10
186.1955431153621
 20
106.66395306355787
 10
186.76202367904176
 20
105.125
 10
187.47024249368786
 20
103.62594672751142
 10
188.31748150688625
 20
102.17990414767466
 10
189.29980611451066
 20
100.79980611451064
 10
190.41207597697195
 20
99.49829632225335
 10
191.64796636388553
 20
98.2876157901137
 10
193.0
 20
97.17949192431124
 10
194.45958929399004
 20
96.1850301369677
 10
196.01708874043427
 20
95.3146089922877
 10
197.6618571947605
 20
94.57777983278797
 10
199.38232963193894
 20
93.98317181224567
 10
201.16609791301804
 20
93.53840322765285
 10
203.0
 20
93.25
 10
204.8702169797935
 20
93.12332210344796
 10
206.7623771827835
 20
93.1624986847355
 10
208.66166661161762
 20
93.37037254992663
 10
210.5529448317752
 20
93.7484546243112
 10
212.42086541796976
 20
94.29688891397468
 10
214.25
 20
95.01442841485013
 10
216.024964908805
 20
95.89842232760414
 10
217.73054938864985
 20
96.94481484519008
 10
219.35184431493892
 20
98.14815568506108
 10
220.8743703394428
 20
99.50162244064741
 10
222.28420437597
 20
100.99705472756912
 10
223.56810333988042
 20
102.62499999999999
 10
224.71362406441975
 20
104.37477081246242
 10
225.70923833565945
 20
106.23451320296302
 10
226.54444201579605
 20
108.19128577562606
 10
227.20985726155013
 20
110.23114896568796
 10
227.6973268901912
 20
112.3392638777143
  0
CIRCLE
  5
49
330
17
100
AcDbEntity
  8
CUTS
100
AcDbCircle
 10
203.0
 20
114.5
 30
0.0
 40
1.6
  0
TEXT
  5
4A
330
17
100
AcDbEntity
  8
ENGRAVE
100
AcDbText
 10
191.0
 20
112.5
 30
0.0
 40
3.0
  1
M3 SNAIL
 11
191.0
 21
112.5
 31
0.0
100
AcDbText
  0
LWPOLYLINE
  5
4B
330
17
100
AcDbEntity
  8
CUTS
100
AcDbPolyline
 90
4
 70
1
 10
62.0
 20
76.5
 10
77.0
 20
76.5
 10
77.0
 20
156.5
 10
62.0
 20
156.5
  0
CIRCLE
  5
4C
330
17
100
AcDbEntity
  8
CUTS
100
AcDbCircle
 10
69.5
 20
151.5
 30
0.0
 40
1.5
  0
TEXT
  5
4D
330
17
100
AcDbEntity
  8
ENGRAVE
100
AcDbText
 10
63.0
 20
111.5
 30
0.0
 40
2.0
  1
FOL
 11
63.0
 21
111.5
 31
0.0
100
AcDbText
  0
LWPOLYLINE
  5
4E
330
17
100
AcDbEntity
  8
CUTS
100
AcDbPolyline
 90
4
 70
1
 10
85.0
 20
76.5
 10
145.0
 20
76.5
 10
145.0
 20
88.5
 10
85.0
 20
88.5
  0
CIRCLE
  5
4F
330
17
100
AcDbEntity
  8
CUTS
100
AcDbCircle
 10
93.0
 20
82.5
 30
0.0
 40
1.6
  0
TEXT
  5
50
330
17
100
AcDbEntity
  8
ENGRAVE
100
AcDbText
 10
103.0
 20
78.5
 30
0.0
 40
2.0
  1
M3 HANDLE
 11
103.0
 21
78.5
 31
0.0
100
AcDbText
  0
LWPOLYLINE
  5
51
330
17
100
AcDbEntity
  8
CUTS
100
AcDbPolyline
 90
4
 70
1
 10
62.0
 20
403.5
 10
162.0
 20
403.5
 10
162.0
 20
483.5
 10
62.0
 20
483.5
  0
TEXT
  5
52
330
17
100
AcDbEntity
  8
ENGRAVE
100
AcDbText
 10
67.0
 20
475.5
 30
0.0
 40
3.0
  1
M3 BASE
 11
67.0
 21
475.5
 31
0.0
100
AcDbText
  0
LWPOLYLINE
  5
53
330
17
100
AcDbEntity
  8
CUTS
100
AcDbPolyline
 90
4
 70
1
 10
80.55
 20
438.5
 10
83.45
 20
438.5
 10
83.45
 20
448.5
 10
80.55
 20
448.5
  0
LWPOLYLINE
  5
54
330
17
100
AcDbEntity
  8
CUTS
100
AcDbPolyline
 90
4
 70
1
 10
140.55
 20
438.5
 10
143.45
 20
438.5
 10
143.45
 20
448.5
 10
140.55
 20
448.5
  0
LWPOLYLINE
  5
55
330
17
100
AcDbEntity
  8
CUTS
100
AcDbPolyline
 90
4
 70
1
 10
170.0
 20
403.5
 10
250.0
 20
403.5
 10
250.0
 20
523.5
 10
170.0
 20
523.5
  0
LWPOLYLINE
  5
56
330
17
100
AcDbEntity
  8
CUTS
100
AcDbPolyline
 90
4
 70
1
 10
205.0
 20
400.5
 10
215.0
 20
400.5
 10
215.0
 20
403.5
 10
205.0
 20
403.5
  0
CIRCLE
  5
57
330
17
100
AcDbEntity
  8
CUTS
100
AcDbCircle
 10
210.0
 20
443.5
 30
0.0
 40
1.6
  0
LWPOLYLINE
  5
58
330
17
100
AcDbEntity
  8
CUTS
100
AcDbPolyline
 90
4
 70
1
 10
208.55
 20
488.5
 10
211.45000000000002
 20
488.5
 10
211.45000000000002
 20
518.5
 10
208.55
 20
518.5
  0
TEXT
  5
59
330
17
100
AcDbEntity
  8
ENGRAVE
100
AcDbText
 10
175.0
 20
513.5
 30
0.0
 40
3.0
  1
M3 FRAME L
 11
175.0
 21
513.5
 31
0.0
100
AcDbText
  0
LWPOLYLINE
  5
5A
330
17
100
AcDbEntity
  8
CUTS
100
AcDbPolyline
 90
4
 70
1
 10
258.0
 20
403.5
 10
338.0
 20
403.5
 10
338.0
 20
523.5
 10
258.0
 20
523.5
  0
LWPOLYLINE
  5
5B
330
17
100
AcDbEntity
  8
CUTS
100
AcDbPolyline
 90
4
 70
1
 10
293.0
 20
400.5
 10
303.0
 20
400.5
 10
303.0
 20
403.5
 10
293.0
 20
403.5
  0
CIRCLE
  5
5C
330
17
100
AcDbEntity
  8
CUTS
100
AcDbCircle
 10
298.0
 20
443.5
 30
0.0
 40
1.6
  0
LWPOLYLINE
  5
5D
330
17
100
AcDbEntity
  8
CUTS
100
AcDbPolyline
 90
4
 70
1
 10
296.55
 20
488.5
 10
299.45000000000005
 20
488.5
 10
299.45000000000005
 20
518.5
 10
296.55
 20
518.5
  0
TEXT
  5
5E
330
17
100
AcDbEntity
  8
ENGRAVE
100
AcDbText
 10
263.0
 20
513.5
 30
0.0
 40
3.0
  1
M3 FRAME R
 11
263.0
 21
513.5
 31
0.0
100
AcDbText
  0
LWPOLYLINE
  5
5F
330
17
100
AcDbEntity
  8
CUTS
100
AcDbPolyline
 90
72
 70
1
 10
110.0
 20
340.5
 10
110.53927318748568
 20
342.1219762339151
 10
110.92361005585958
 20
343.83674302525407
 10
111.13666487320323
 20
345.6276538985998
 10
111.16422380804924
 20
347.4752070289456
 10
110.99469571757612
 20
349.3573720774297
 10
110.61954618136544
 20
351.25
 10
110.03366096995254
 20
353.127305352679
 10
109.23562711168432
 20
354.9624083525234
 10
108.22792206135786
 20
356.72792206135784
 10
107.01700410990043
 20
358.39656859797583
 10
105.6133000270695
 20
359.9418072988417
 10
104.03108891324554
 20
361.3384572681199
 10
102.28828426224902
 20
362.56329680056257
 10
100.40611921376492
 20
363.59562272506275
 10
98.40874281184537
 20
364.41775378644877
 10
96.32273769964459
 20
365.01546372697044
 10
94.17657199129209
 20
365.37833170119416
 10
92.0
 20
365.5
 10
89.8234280087079
 20
365.37833170119416
 10
87.67726230035541
 20
365.01546372697044
 10
85.59125718815463
 20
364.41775378644877
 10
83.59388078623508
 20
363.59562272506275
 10
81.71171573775099
 20
362.56329680056257
 10
79.96891108675447
 20
361.3384572681199
 10
78.38669997293049
 20
359.9418072988417
 10
76.98299589009956
 20
358.39656859797583
 10
75.77207793864214
 20
356.72792206135784
 10
74.76437288831568
 20
354.9624083525234
 10
73.96633903004746
 20
353.127305352679
 10
73.38045381863456
 20
351.25
 10
73.00530428242388
 20
349.3573720774297
 10
72.83577619195077
 20
347.47520702894565
 10
72.86333512679677
 20
345.6276538985999
 10
73.07638994414042
 20
343.83674302525407
 10
73.46072681251432
 20
342.1219762339151
 10
74.0
 20
340.5
 10
74.67626405618284
 20
338.98436949499944
 10
75.4705309474201
 20
337.58540862924457
 10
76.36333512679677
 20
336.3101682749091
 10
77.33528945975654
 20
335.16248186922155
 10
78.36761538425672
 20
334.14311465476453
 10
79.44263164512564
 20
333.25
 10
80.54418737554883
 20
332.4785536440413
 10
81.65802715940112
 20
331.822054403808
 10
82.77207793864214
 20
331.27207793864216
 10
83.87665016118501
 20
330.8189686456926
 10
84.96454831843184
 20
330.452333704438
 10
86.03108891324553
 20
330.1615427318801
 10
87.07402683958384
 20
329.9362164672432
 10
88.09339405404086
 20
329.76668837677005
 10
89.09125718815463
 20
329.6444240400423
 10
90.0714033036351
 20
329.5623846185309
 10
91.03896525237641
 20
329.5153225698913
 10
92.0
 20
329.5
 10
92.96103474762359
 20
329.5153225698913
 10
93.9285966963649
 20
329.5623846185309
 10
94.90874281184537
 20
329.6444240400423
 10
95.90660594595914
 20
329.76668837677005
 10
96.92597316041616
 20
329.9362164672432
 10
97.96891108675447
 20
330.1615427318801
 10
99.03545168156815
 20
330.452333704438
 10
100.12334983881497
 20
330.8189686456926
 10
101.22792206135784
 20
331.27207793864216
 10
102.34197284059887
 20
331.822054403808
 10
103.45581262445117
 20
332.4785536440413
 10
104.55736835487436
 20
333.25
 10
105.63238461574328
 20
334.14311465476453
 10
106.66471054024346
 20
335.16248186922155
 10
107.63666487320323
 20
336.3101682749091
 10
108.5294690525799
 20
337.58540862924457
 10
109.32373594381716
 20
338.98436949499944
  0
CIRCLE
  5
60
330
17
100
AcDbEntity
  8
CUTS
100
AcDbCircle
 10
92.0
 20
340.5
 30
0.0
 40
1.6
  0
TEXT
  5
61
330
17
100
AcDbEntity
  8
ENGRAVE
100
AcDbText
 10
82.0
 20
338.5
 30
0.0
 40
3.0
  1
M3 EGG
 11
82.0
 21
338.5
 31
0.0
100
AcDbText
  0
CIRCLE
  5
62
330
17
100
AcDbEntity
  8
CUTS
100
AcDbCircle
 10
150.0
 20
340.5
 30
0.0
 40
20.0
  0
CIRCLE
  5
63
330
17
100
AcDbEntity
  8
CUTS
100
AcDbCircle
 10
155.0
 20
340.5
 30
0.0
 40
1.6
  0
TEXT
  5
64
330
17
100
AcDbEntity
  8
ENGRAVE
100
AcDbText
 10
138.0
 20
338.5
 30
0.0
 40
3.0
  1
M3 ROUND
 11
138.0
 21
338.5
 31
0.0
100
AcDbText
  0
LWPOLYLINE
  5
65
330
17
100
AcDbEntity
  8
CUTS
100
AcDbPolyline
 90
72
 70
1
 10
213.0
 20
340.5
 10
213.1694875430199
 20
341.3897148738823
 10
213.25841409387718
 20
342.3088351840305
 10
213.26296190432134
 20
343.24995235421426
 10
213.18000339184735
 20
344.2052182193614
 10
213.007148481863
 20
345.16640997338686
 10
212.74278579257492
 20
346.125
 10
212.3861171741447
 20
347.0722299998557
 10
211.9371851697214
 20
347.9991887796763
 10
211.39689302659025
 20
348.89689302659025
 10
210.76701695037903
 20
349.7563703543543
 10
210.0502103634816
 20
350.5687438777189
 10
209.25
 20
351.3253175473055
 10
208.37077374295473
 20
352.01766146025744
 10
207.41776018462323
 20
352.63769635181797
 10
206.39699996697058
 20
353.177776470044
 10
205.31530903555907
 20
353.63077004016276
 10
204.18023401637453
 20
353.99013653665907
 10
203.0
 20
354.25
 10
201.78345109081394
 20
354.40521766086397
 10
200.5399841497185
 20
354.45144316767295
 10
199.27947622665127
 20
354.38518375290533
 10
198.01220624316733
 20
354.2038507197945
 10
196.7487715450855
 20
353.90580268325044
 10
195.5
 20
353.4903810567666
 10
194.27685836382784
 20
352.9579373402284
 10
193.09035768399917
 20
352.3098518314176
 10
191.9514565439602
 20
351.5485434560398
 10
190.8709629839495
 20
350.67747048670356
 10
189.85943595619742
 20
349.70112199979803
 10
188.92708718850287
 20
348.625
 10
188.08368433835514
 20
347.45559222448236
 10
187.33845632023485
 20
346.20033572209445
 10
186.700001681372
 20
344.86757138610506
 10
186.17620088604144
 20
343.4664897018101
 10
185.7741333454969
 20
342.00706805167823
 10
185.5
 20
340.5
 10
185.35905222129202
 20
338.9566170555102
 10
185.35552775853125
 20
337.3888034834675
 10
185.49259439851062
 20
335.8089048075168
 10
185.77230195225835
 20
334.2296307056961
 10
186.1955431153621
 20
332.66395306355787
 10
186.76202367904176
 20
331.125
 10
187.47024249368786
 20
329.6259467275114
 10
188.31748150688625
 20
328.1799041476747
 10
189.29980611451066
 20
326.79980611451066
 10
190.41207597697195
 20
325.49829632225334
 10
191.64796636388553
 20
324.2876157901137
 10
193.0
 20
323.17949192431126
 10
194.45958929399004
 20
322.1850301369677
 10
196.01708874043427
 20
321.31460899228773
 10
197.6618571947605
 20
320.577779832788
 10
199.38232963193894
 20
319.9831718122457
 10
201.16609791301804
 20
319.53840322765285
 10
203.0
 20
319.25
 10
204.8702169797935
 20
319.12332210344795
 10
206.7623771827835
 20
319.1624986847355
 10
208.66166661161762
 20
319.3703725499266
 10
210.5529448317752
 20
319.7484546243112
 10
212.42086541796976
 20
320.29688891397467
 10
214.25
 20
321.01442841485016
 10
216.024964908805
 20
321.8984223276041
 10
217.73054938864985
 20
322.9448148451901
 10
219.35184431493892
 20
324.14815568506106
 10
220.8743703394428
 20
325.5016224406474
 10
222.28420437597
 20
326.9970547275691
 10
223.56810333988042
 20
328.625
 10
224.71362406441975
 20
330.37477081246243
 10
225.70923833565945
 20
332.234513202963
 10
226.54444201579605
 20
334.19128577562606
 10
227.20985726155013
 20
336.23114896568796
 10
227.6973268901912
 20
338.3392638777143
  0
CIRCLE
  5
66
330
17
100
AcDbEntity
  8
CUTS
100
AcDbCircle
 10
203.0
 20
340.5
 30
0.0
 40
1.6
  0
TEXT
  5
67
330
17
100
AcDbEntity
  8
ENGRAVE
100
AcDbText
 10
191.0
 20
338.5
 30
0.0
 40
3.0
  1
M3 SNAIL
 11
191.0
 21
338.5
 31
0.0
100
AcDbText
  0
LWPOLYLINE
  5
68
330
17
100
AcDbEntity
  8
CUTS
100
AcDbPolyline
 90
4
 70
1
 10
62.0
 20
302.5
 10
77.0
 20
302.5
 10
77.0
 20
382.5
 10
62.0
 20
382.5
  0
CIRCLE
  5
69
330
17
100
AcDbEntity
  8
CUTS
100
AcDbCircle
 10
69.5
 20
377.5
 30
0.0
 40
1.5
  0
TEXT
  5
6A
330
17
100
AcDbEntity
  8
ENGRAVE
100
AcDbText
 10
63.0
 20
337.5
 30
0.0
 40
2.0
  1
FOL
 11
63.0
 21
337.5
 31
0.0
100
AcDbText
  0
LWPOLYLINE
  5
6B
330
17
100
AcDbEntity
  8
CUTS
100
AcDbPolyline
 90
4
 70
1
 10
85.0
 20
302.5
 10
145.0
 20
302.5
 10
145.0
 20
314.5
 10
85.0
 20
314.5
  0
CIRCLE
  5
6C
330
17
100
AcDbEntity
  8
CUTS
100
AcDbCircle
 10
93.0
 20
308.5
 30
0.0
 40
1.6
  0
TEXT
  5
6D
330
17
100
AcDbEntity
  8
ENGRAVE
100
AcDbText
 10
103.0
 20
304.5
 30
0.0
 40
2.0
  1
M3 HANDLE
 11
103.0
 21
304.5
 31
0.0
100
AcDbText
  0
ENDSEC
  0
SECTION
  2
OBJECTS
  0
DICTIONARY
  5
A
330
0
100
AcDbDictionary
281
1
  3
ACAD_COLOR
350
B
  3
ACAD_GROUP
350
C
  3
ACAD_LAYOUT
350
D
  3
ACAD_MATERIAL
350
E
  3
ACAD_MLEADERSTYLE
350
F
  3
ACAD_MLINESTYLE
350
10
  3
ACAD_PLOTSETTINGS
350
11
  3
ACAD_PLOTSTYLENAME
350
12
  3
ACAD_SCALELIST
350
14
  3
ACAD_TABLESTYLE
350
15
  3
ACAD_VISUALSTYLE
350
16
  3
EZDXF_META
350
2D
  0
DICTIONARY
  5
B
330
A
100
AcDbDictionary
281
1
  0
DICTIONARY
  5
C
330
A
100
AcDbDictionary
281
1
  0
DICTIONARY
  5
D
330
A
100
AcDbDictionary
281
1
  3
Model
350
1A
  3
Layout1
350
1E
  0
DICTIONARY
  5
E
330
A
100
AcDbDictionary
281
1
  3
ByBlock
350
1F
  3
ByLayer
350
20
  3
Global
350
21
  0
DICTIONARY
  5
F
330
A
100
AcDbDictionary
281
1
  3
Standard
350
2C
  0
DICTIONARY
  5
10
330
A
100
AcDbDictionary
281
1
  3
Standard
350
22
  0
DICTIONARY
  5
11
330
A
100
AcDbDictionary
281
1
  0
ACDBDICTIONARYWDFLT
  5
12
330
A
100
AcDbDictionary
281
1
  3
Normal
350
13
100
AcDbDictionaryWithDefault
340
13
  0
ACDBPLACEHOLDER
  5
13
330
12
  0
DICTIONARY
  5
14
330
A
100
AcDbDictionary
281
1
  0
DICTIONARY
  5
15
330
A
100
AcDbDictionary
281
1
  0
DICTIONARY
  5
16
330
A
100
AcDbDictionary
281
1
  0
LAYOUT
  5
1A
330
D
100
AcDbPlotSettings
  1

  4
A3
  6

 40
7.5
 41
20.0
 42
7.5
 43
20.0
 44
420.0
 45
297.0
 46
0.0
 47
0.0
 48
0.0
 49
0.0
140
0.0
141
0.0
142
1.0
143
1.0
 70
1024
 72
1
 73
0
 74
5
  7

 75
16
 76
0
 77
2
 78
300
147
1.0
148
0.0
149
0.0
100
AcDbLayout
  1
Model
 70
1
 71
0
 10
0.0
 20
0.0
 11
420.0
 21
297.0
 12
0.0
 22
0.0
 32
0.0
 14
1e+20
 24
1e+20
 34
1e+20
 15
-1e+20
 25
-1e+20
 35
-1e+20
146
0.0
 13
0.0
 23
0.0
 33
0.0
 16
1.0
 26
0.0
 36
0.0
 17
0.0
 27
1.0
 37
0.0
 76
1
330
17
  0
LAYOUT
  5
1E
330
D
100
AcDbPlotSettings
  1

  4
A3
  6

 40
7.5
 41
20.0
 42
7.5
 43
20.0
 44
420.0
 45
297.0
 46
0.0
 47
0.0
 48
0.0
 49
0.0
140
0.0
141
0.0
142
1.0
143
1.0
 70
0
 72
1
 73
0
 74
5
  7

 75
16
 76
0
 77
2
 78
300
147
1.0
148
0.0
149
0.0
100
AcDbLayout
  1
Layout1
 70
1
 71
1
 10
0.0
 20
0.0
 11
420.0
 21
297.0
 12
0.0
 22
0.0
 32
0.0
 14
1e+20
 24
1e+20
 34
1e+20
 15
-1e+20
 25
-1e+20
 35
-1e+20
146
0.0
 13
0.0
 23
0.0
 33
0.0
 16
1.0
 26
0.0
 36
0.0
 17
0.0
 27
1.0
 37
0.0
 76
1
330
1B
  0
MATERIAL
  5
1F
102
{ACAD_REACTORS
330
E
102
}
330
E
100
AcDbMaterial
  1
ByBlock
  2

 70
0
 40
1.0
 71
1
 41
1.0
 91
-1023410177
 42
1.0
 72
1
  3

 73
1
 74
1
 75
1
 44
0.5
 73
0
 45
1.0
 46
1.0
 77
1
  4

 78
1
 79
1
170
1
 48
1.0
171
1
  6

172
1
173
1
174
1
140
1.0
141
1.0
175
1
  7

176
1
177
1
178
1
143
1.0
179
1
  8

270
1
271
1
272
1
145
1.0
146
1.0
273
1
  9

274
1
275
1
276
1
 42
1.0
 72
1
  3

 73
1
 74
1
 75
1
 94
63
  0
MATERIAL
  5
20
102
{ACAD_REACTORS
330
E
102
}
330
E
100
AcDbMaterial
  1
ByLayer
  2

 70
0
 40
1.0
 71
1
 41
1.0
 91
-1023410177
 42
1.0
 72
1
  3

 73
1
 74
1
 75
1
 44
0.5
 73
0
 45
1.0
 46
1.0
 77
1
  4

 78
1
 79
1
170
1
 48
1.0
171
1
  6

172
1
173
1
174
1
140
1.0
141
1.0
175
1
  7

176
1
177
1
178
1
143
1.0
179
1
  8

270
1
271
1
272
1
145
1.0
146
1.0
273
1
  9

274
1
275
1
276
1
 42
1.0
 72
1
  3

 73
1
 74
1
 75
1
 94
63
  0
MATERIAL
  5
21
102
{ACAD_REACTORS
330
E
102
}
330
E
100
AcDbMaterial
  1
Global
  2

 70
0
 40
1.0
 71
1
 41
1.0
 91
-1023410177
 42
1.0
 72
1
  3

 73
1
 74
1
 75
1
 44
0.5
 73
0
 45
1.0
 46
1.0
 77
1
  4

 78
1
 79
1
170
1
 48
1.0
171
1
  6

172
1
173
1
174
1
140
1.0
141
1.0
175
1
  7

176
1
177
1
178
1
143
1.0
179
1
  8

270
1
271
1
272
1
145
1.0
146
1.0
273
1
  9

274
1
275
1
276
1
 42
1.0
 72
1
  3

 73
1
 74
1
 75
1
 94
63
  0
MLINESTYLE
  5
22
102
{ACAD_REACTORS
330
10
102
}
330
10
100
AcDbMlineStyle
  2
Standard
 70
0
  3

 62
256
 51
90.0
 52
90.0
 71
2
 49
0.5
 62
256
  6
BYLAYER
 49
-0.5
 62
256
  6
BYLAYER
  0
MLEADERSTYLE
  5
2C
102
{ACAD_REACTORS
330
F
102
}
330
F
100
AcDbMLeaderStyle
179
2
170
2
171
1
172
0
 90
2
 40
0.0
 41
0.0
173
1
 91
-1056964608
 92
-2
290
1
 42
2.0
291
1
 43
8.0
  3
Standard
 44
4.0
300

342
29
174
1
175
1
176
0
178
1
 93
-1056964608
 45
4.0
292
0
297
0
 46
4.0
 94
-1056964608
 47
1.0
 49
1.0
140
1.0
294
1
141
0.0
177
0
142
1.0
295
0
296
0
143
3.75
271
0
272
9
273
9
  0
DICTIONARY
  5
2D
330
A
100
AcDbDictionary
280
1
281
1
  3
CREATED_BY_EZDXF
350
2E
  3
WRITTEN_BY_EZDXF
350
70
  0
DICTIONARYVAR
  5
2E
330
2D
100
DictionaryVariables
280
0
  1
1.4.3 @ 2026-03-19T21:01:58.035649+00:00
  0
DICTIONARYVAR
  5
70
330
2D
100
DictionaryVariables
280
0
  1
1.4.3 @ 2026-03-19T21:01:58.037532+00:00
  0
ENDSEC
  0
EOF
