  0
SECTION
  2
HEADER
  9
$ACADVER
  1
AC1024
  9
$ACADMAINTVER
 70
6
  9
$DWGCODEPAGE
  3
ANSI_1252
  9
$LASTSAVEDBY
  1
ezdxf
  9
$INSBASE
 10
0.0
 20
0.0
 30
0.0
  9
$EXTMIN
 10
1e+20
 20
1e+20
 30
1e+20
  9
$EXTMAX
 10
-1e+20
 20
-1e+20
 30
-1e+20
  9
$LIMMIN
 10
0.0
 20
0.0
  9
$LIMMAX
 10
420.0
 20
297.0
  9
$ORTHOMODE
 70
0
  9
$REGENMODE
 70
1
  9
$FILLMODE
 70
1
  9
$QTEXTMODE
 70
0
  9
$MIRRTEXT
 70
1
  9
$LTSCALE
 40
1.0
  9
$ATTMODE
 70
1
  9
$TEXTSIZE
 40
2.5
  9
$TRACEWID
 40
1.0
  9
$TEXTSTYLE
  7
Standard
  9
$CLAYER
  8
0
  9
$CELTYPE
  6
ByLayer
  9
$CECOLOR
 62
256
  9
$CELTSCALE
 40
1.0
  9
$DISPSILH
 70
0
  9
$DIMSCALE
 40
1.0
  9
$DIMASZ
 40
2.5
  9
$DIMEXO
 40
0.625
  9
$DIMDLI
 40
3.75
  9
$DIMRND
 40
0.0
  9
$DIMDLE
 40
0.0
  9
$DIMEXE
 40
1.25
  9
$DIMTP
 40
0.0
  9
$DIMTM
 40
0.0
  9
$DIMTXT
 40
2.5
  9
$DIMCEN
 40
2.5
  9
$DIMTSZ
 40
0.0
  9
$DIMTOL
 70
0
  9
$DIMLIM
 70
0
  9
$DIMTIH
 70
0
  9
$DIMTOH
 70
0
  9
$DIMSE1
 70
0
  9
$DIMSE2
 70
0
  9
$DIMTAD
 70
1
  9
$DIMZIN
 70
8
  9
$DIMBLK
  1

  9
$DIMASO
 70
1
  9
$DIMSHO
 70
1
  9
$DIMPOST
  1

  9
$DIMAPOST
  1

  9
$DIMALT
 70
0
  9
$DIMALTD
 70
3
  9
$DIMALTF
 40
0.03937007874
  9
$DIMLFAC
 40
1.0
  9
$DIMTOFL
 70
1
  9
$DIMTVP
 40
0.0
  9
$DIMTIX
 70
0
  9
$DIMSOXD
 70
0
  9
$DIMSAH
 70
0
  9
$DIMBLK1
  1

  9
$DIMBLK2
  1

  9
$DIMSTYLE
  2
ISO-25
  9
$DIMCLRD
 70
0
  9
$DIMCLRE
 70
0
  9
$DIMCLRT
 70
0
  9
$DIMTFAC
 40
1.0
  9
$DIMGAP
 40
0.625
  9
$DIMJUST
 70
0
  9
$DIMSD1
 70
0
  9
$DIMSD2
 70
0
  9
$DIMTOLJ
 70
0
  9
$DIMTZIN
 70
8
  9
$DIMALTZ
 70
0
  9
$DIMALTTZ
 70
0
  9
$DIMUPT
 70
0
  9
$DIMDEC
 70
2
  9
$DIMTDEC
 70
2
  9
$DIMALTU
 70
2
  9
$DIMALTTD
 70
3
  9
$DIMTXSTY
  7
Standard
  9
$DIMAUNIT
 70
0
  9
$DIMADEC
 70
0
  9
$DIMALTRND
 40
0.0
  9
$DIMAZIN
 70
0
  9
$DIMDSEP
 70
44
  9
$DIMATFIT
 70
3
  9
$DIMFRAC
 70
0
  9
$DIMLDRBLK
  1

  9
$DIMLUNIT
 70
2
  9
$DIMLWD
 70
-2
  9
$DIMLWE
 70
-2
  9
$DIMTMOVE
 70
0
  9
$DIMFXL
 40
1.0
  9
$DIMFXLON
 70
0
  9
$DIMJOGANG
 40
0.785398163397
  9
$DIMTFILL
 70
0
  9
$DIMTFILLCLR
 70
0
  9
$DIMARCSYM
 70
0
  9
$DIMLTYPE
  6

  9
$DIMLTEX1
  6

  9
$DIMLTEX2
  6

  9
$DIMTXTDIRECTION
 70
0
  9
$LUNITS
 70
2
  9
$LUPREC
 70
4
  9
$SKETCHINC
 40
1.0
  9
$FILLETRAD
 40
10.0
  9
$AUNITS
 70
0
  9
$AUPREC
 70
2
  9
$MENU
  1
.
  9
$ELEVATION
 40
0.0
  9
$PELEVATION
 40
0.0
  9
$THICKNESS
 40
0.0
  9
$LIMCHECK
 70
0
  9
$CHAMFERA
 40
0.0
  9
$CHAMFERB
 40
0.0
  9
$CHAMFERC
 40
0.0
  9
$CHAMFERD
 40
0.0
  9
$SKPOLY
 70
0
  9
$TDCREATE
 40
2461120.035648148
  9
$TDUCREATE
 40
2458532.153996898
  9
$TDUPDATE
 40
2461120.035648148
  9
$TDUUPDATE
 40
2458532.1544311
  9
$TDINDWG
 40
0.0
  9
$TDUSRTIMER
 40
0.0
  9
$USRTIMER
 70
1
  9
$ANGBASE
 50
0.0
  9
$ANGDIR
 70
0
  9
$PDMODE
 70
0
  9
$PDSIZE
 40
0.0
  9
$PLINEWID
 40
0.0
  9
$SPLFRAME
 70
0
  9
$SPLINETYPE
 70
6
  9
$SPLINESEGS
 70
8
  9
$HANDSEED
  5
C3
  9
$SURFTAB1
 70
6
  9
$SURFTAB2
 70
6
  9
$SURFTYPE
 70
6
  9
$SURFU
 70
6
  9
$SURFV
 70
6
  9
$UCSBASE
  2

  9
$UCSNAME
  2

  9
$UCSORG
 10
0.0
 20
0.0
 30
0.0
  9
$UCSXDIR
 10
1.0
 20
0.0
 30
0.0
  9
$UCSYDIR
 10
0.0
 20
1.0
 30
0.0
  9
$UCSORTHOREF
  2

  9
$UCSORTHOVIEW
 70
0
  9
$UCSORGTOP
 10
0.0
 20
0.0
 30
0.0
  9
$UCSORGBOTTOM
 10
0.0
 20
0.0
 30
0.0
  9
$UCSORGLEFT
 10
0.0
 20
0.0
 30
0.0
  9
$UCSORGRIGHT
 10
0.0
 20
0.0
 30
0.0
  9
$UCSORGFRONT
 10
0.0
 20
0.0
 30
0.0
  9
$UCSORGBACK
 10
0.0
 20
0.0
 30
0.0
  9
$PUCSBASE
  2

  9
$PUCSNAME
  2

  9
$PUCSORG
 10
0.0
 20
0.0
 30
0.0
  9
$PUCSXDIR
 10
1.0
 20
0.0
 30
0.0
  9
$PUCSYDIR
 10
0.0
 20
1.0
 30
0.0
  9
$PUCSORTHOREF
  2

  9
$PUCSORTHOVIEW
 70
0
  9
$PUCSORGTOP
 10
0.0
 20
0.0
 30
0.0
  9
$PUCSORGBOTTOM
 10
0.0
 20
0.0
 30
0.0
  9
$PUCSORGLEFT
 10
0.0
 20
0.0
 30
0.0
  9
$PUCSORGRIGHT
 10
0.0
 20
0.0
 30
0.0
  9
$PUCSORGFRONT
 10
0.0
 20
0.0
 30
0.0
  9
$PUCSORGBACK
 10
0.0
 20
0.0
 30
0.0
  9
$USERI1
 70
0
  9
$USERI2
 70
0
  9
$USERI3
 70
0
  9
$USERI4
 70
0
  9
$USERI5
 70
0
  9
$USERR1
 40
0.0
  9
$USERR2
 40
0.0
  9
$USERR3
 40
0.0
  9
$USERR4
 40
0.0
  9
$USERR5
 40
0.0
  9
$WORLDVIEW
 70
1
  9
$SHADEDGE
 70
3
  9
$SHADEDIF
 70
70
  9
$TILEMODE
 70
1
  9
$MAXACTVP
 70
64
  9
$PINSBASE
 10
0.0
 20
0.0
 30
0.0
  9
$PLIMCHECK
 70
0
  9
$PEXTMIN
 10
1e+20
 20
1e+20
 30
1e+20
  9
$PEXTMAX
 10
-1e+20
 20
-1e+20
 30
-1e+20
  9
$PLIMMIN
 10
0.0
 20
0.0
  9
$PLIMMAX
 10
420.0
 20
297.0
  9
$UNITMODE
 70
0
  9
$VISRETAIN
 70
1
  9
$PLINEGEN
 70
0
  9
$PSLTSCALE
 70
1
  9
$TREEDEPTH
 70
3020
  9
$CMLSTYLE
  2
Standard
  9
$CMLJUST
 70
0
  9
$CMLSCALE
 40
20.0
  9
$PROXYGRAPHICS
 70
1
  9
$MEASUREMENT
 70
1
  9
$CELWEIGHT
370
-1
  9
$ENDCAPS
280
0
  9
$JOINSTYLE
280
0
  9
$LWDISPLAY
290
0
  9
$INSUNITS
 70
6
  9
$HYPERLINKBASE
  1

  9
$STYLESHEET
  1

  9
$XEDIT
290
1
  9
$CEPSNTYPE
380
0
  9
$PSTYLEMODE
290
1
  9
$FINGERPRINTGUID
  2
{34C19C76-4AAF-4F62-8DB6-5A757BCC834B}
  9
$VERSIONGUID
  2
{A482BF29-7297-4E93-810D-AB3D463A6E9E}
  9
$EXTNAMES
290
1
  9
$PSVPSCALE
 40
0.0
  9
$OLESTARTUP
290
0
  9
$SORTENTS
280
127
  9
$INDEXCTL
280
0
  9
$HIDETEXT
280
1
  9
$XCLIPFRAME
280
1
  9
$HALOGAP
280
0
  9
$OBSCOLOR
 70
257
  9
$OBSLTYPE
280
0
  9
$INTERSECTIONDISPLAY
280
0
  9
$INTERSECTIONCOLOR
 70
257
  9
$DIMASSOC
280
2
  9
$PROJECTNAME
  1

  9
$CAMERADISPLAY
290
0
  9
$LENSLENGTH
 40
50.0
  9
$CAMERAHEIGHT
 40
0.0
  9
$STEPSPERSEC
 40
24.0
  9
$STEPSIZE
 40
100.0
  9
$3DDWFPREC
 40
2.0
  9
$PSOLWIDTH
 40
0.005
  9
$PSOLHEIGHT
 40
0.08
  9
$LOFTANG1
 40
1.570796326795
  9
$LOFTANG2
 40
1.570796326795
  9
$LOFTMAG1
 40
0.0
  9
$LOFTMAG2
 40
0.0
  9
$LOFTPARAM
 70
7
  9
$LOFTNORMALS
280
1
  9
$LATITUDE
 40
37.795
  9
$LONGITUDE
 40
-122.394
  9
$NORTHDIRECTION
 40
0.0
  9
$TIMEZONE
 70
-8000
  9
$LIGHTGLYPHDISPLAY
280
1
  9
$TILEMODELIGHTSYNCH
280
1
  9
$CMATERIAL
347
20
  9
$SOLIDHIST
280
0
  9
$SHOWHIST
280
1
  9
$DWFFRAME
280
2
  9
$DGNFRAME
280
2
  9
$REALWORLDSCALE
290
1
  9
$INTERFERECOLOR
 62
256
  9
$CSHADOW
280
0
  9
$SHADOWPLANELOCATION
 40
0.0
  0
ENDSEC
  0
SECTION
  2
CLASSES
  0
CLASS
  1
ACDBDICTIONARYWDFLT
  2
AcDbDictionaryWithDefault
  3
ObjectDBX Classes
 90
0
 91
0
280
0
281
0
  0
CLASS
  1
SUN
  2
AcDbSun
  3
SCENEOE
 90
1153
 91
0
280
0
281
0
  0
CLASS
  1
VISUALSTYLE
  2
AcDbVisualStyle
  3
ObjectDBX Classes
 90
4095
 91
0
280
0
281
0
  0
CLASS
  1
MATERIAL
  2
AcDbMaterial
  3
ObjectDBX Classes
 90
1153
 91
0
280
0
281
0
  0
CLASS
  1
SCALE
  2
AcDbScale
  3
ObjectDBX Classes
 90
1153
 91
0
280
0
281
0
  0
CLASS
  1
TABLESTYLE
  2
AcDbTableStyle
  3
ObjectDBX Classes
 90
4095
 91
0
280
0
281
0
  0
CLASS
  1
MLEADERSTYLE
  2
AcDbMLeaderStyle
  3
ACDB_MLEADERSTYLE_CLASS
 90
4095
 91
0
280
0
281
0
  0
CLASS
  1
DICTIONARYVAR
  2
AcDbDictionaryVar
  3
ObjectDBX Classes
 90
0
 91
0
280
0
281
0
  0
CLASS
  1
CELLSTYLEMAP
  2
AcDbCellStyleMap
  3
ObjectDBX Classes
 90
1152
 91
0
280
0
281
0
  0
CLASS
  1
MENTALRAYRENDERSETTINGS
  2
AcDbMentalRayRenderSettings
  3
SCENEOE
 90
1024
 91
0
280
0
281
0
  0
CLASS
  1
ACDBDETAILVIEWSTYLE
  2
AcDbDetailViewStyle
  3
ObjectDBX Classes
 90
1025
 91
0
280
0
281
0
  0
CLASS
  1
ACDBSECTIONVIEWSTYLE
  2
AcDbSectionViewStyle
  3
ObjectDBX Classes
 90
1025
 91
0
280
0
281
0
  0
CLASS
  1
RASTERVARIABLES
  2
AcDbRasterVariables
  3
ISM
 90
0
 91
0
280
0
281
0
  0
CLASS
  1
LAYOUT
  2
AcDbLayout
  3
ObjectDBX Classes
 90
0
 91
0
280
0
281
0
  0
CLASS
  1
ACDBPLACEHOLDER
  2
AcDbPlaceHolder
  3
ObjectDBX Classes
 90
0
 91
0
280
0
281
0
  0
ENDSEC
  0
SECTION
  2
TABLES
  0
TABLE
  2
VPORT
  5
8
330
0
100
AcDbSymbolTable
 70
1
  0
VPORT
  5
23
330
8
100
AcDbSymbolTableRecord
100
AcDbViewportTableRecord
  2
*Active
 70
0
 10
0.0
 20
0.0
 11
1.0
 21
1.0
 12
0.0
 22
0.0
 13
0.0
 23
0.0
 14
0.5
 24
0.5
 15
0.5
 25
0.5
 16
0.0
 26
0.0
 36
1.0
 17
0.0
 27
0.0
 37
0.0
 40
1000.0
 41
1.34
 42
50.0
 43
0.0
 44
0.0
 50
0.0
 51
0.0
 71
0
 72
1000
 73
1
 74
3
 75
0
 76
0
 77
0
 78
0
281
0
 65
0
146
0.0
  0
ENDTAB
  0
TABLE
  2
LTYPE
  5
2
330
0
100
AcDbSymbolTable
 70
3
  0
LTYPE
  5
24
330
2
100
AcDbSymbolTableRecord
100
AcDbLinetypeTableRecord
  2
ByBlock
 70
0
  3

 72
65
 73
0
 40
0.0
  0
LTYPE
  5
25
330
2
100
AcDbSymbolTableRecord
100
AcDbLinetypeTableRecord
  2
ByLayer
 70
0
  3

 72
65
 73
0
 40
0.0
  0
LTYPE
  5
26
330
2
100
AcDbSymbolTableRecord
100
AcDbLinetypeTableRecord
  2
Continuous
 70
0
  3

 72
65
 73
0
 40
0.0
  0
ENDTAB
  0
TABLE
  2
LAYER
  5
1
330
0
100
AcDbSymbolTable
 70
6
  0
LAYER
  5
27
330
1
100
AcDbSymbolTableRecord
100
AcDbLayerTableRecord
  2
0
 70
0
 62
7
  6
Continuous
370
-3
390
13
347
21
  0
LAYER
  5
28
330
1
100
AcDbSymbolTableRecord
100
AcDbLayerTableRecord
  2
Defpoints
 70
0
 62
7
  6
Continuous
290
0
370
-3
390
13
347
21
  0
LAYER
  5
2F
330
1
100
AcDbSymbolTableRecord
100
AcDbLayerTableRecord
  2
CUTS
 70
0
 62
7
  6
Continuous
370
-3
390
13
347
21
  0
LAYER
  5
30
330
1
100
AcDbSymbolTableRecord
100
AcDbLayerTableRecord
  2
ENGRAVE
 70
0
 62
1
  6
Continuous
370
-3
390
13
347
21
  0
LAYER
  5
31
330
1
100
AcDbSymbolTableRecord
100
AcDbLayerTableRecord
  2
GUIDE
 70
0
 62
3
  6
Continuous
370
-3
390
13
347
21
  0
LAYER
  5
32
330
1
100
AcDbSymbolTableRecord
100
AcDbLayerTableRecord
  2
SHEET
 70
0
 62
8
  6
Continuous
370
-3
390
13
347
21
  0
ENDTAB
  0
TABLE
  2
STYLE
  5
5
330
0
100
AcDbSymbolTable
 70
1
  0
STYLE
  5
29
330
5
100
AcDbSymbolTableRecord
100
AcDbTextStyleTableRecord
  2
Standard
 70
0
 40
0.0
 41
1.0
 50
0.0
 71
0
 42
2.5
  3
txt
  4

  0
ENDTAB
  0
TABLE
  2
VIEW
  5
7
330
0
100
AcDbSymbolTable
 70
0
  0
ENDTAB
  0
TABLE
  2
UCS
  5
6
330
0
100
AcDbSymbolTable
 70
0
  0
ENDTAB
  0
TABLE
  2
APPID
  5
3
330
0
100
AcDbSymbolTable
 70
3
  0
APPID
  5
2A
330
3
100
AcDbSymbolTableRecord
100
AcDbRegAppTableRecord
  2
ACAD
 70
0
  0
APPID
  5
C0
330
3
100
AcDbSymbolTableRecord
100
AcDbRegAppTableRecord
  2
HATCHBACKGROUNDCOLOR
 70
0
  0
APPID
  5
C1
330
3
100
AcDbSymbolTableRecord
100
AcDbRegAppTableRecord
  2
EZDXF
 70
0
  0
ENDTAB
  0
TABLE
  2
DIMSTYLE
  5
4
330
0
100
AcDbSymbolTable
 70
1
100
AcDbDimStyleTable
  0
DIMSTYLE
105
2B
330
4
100
AcDbSymbolTableRecord
100
AcDbDimStyleTableRecord
  2
Standard
 70
0
 40
1.0
 41
2.5
 42
0.625
 43
3.75
 44
1.25
 45
0.0
 46
0.0
 47
0.0
 48
0.0
 49
2.5
140
2.5
141
2.5
142
0.0
143
0.03937007874
144
1.0
145
0.0
146
1.0
147
0.625
148
0.0
 69
0
 70
0
 71
0
 72
0
 73
0
 74
0
 75
0
 76
0
 77
1
 78
8
 79
3
170
0
171
3
172
1
173
0
174
0
175
0
176
0
177
0
178
0
179
2
271
2
272
2
273
2
274
3
275
0
276
0
277
2
278
44
279
0
280
0
281
0
282
0
283
0
284
8
285
0
286
0
288
0
289
3
290
0
371
-2
372
-2
  0
ENDTAB
  0
TABLE
  2
BLOCK_RECORD
  5
9
330
0
100
AcDbSymbolTable
 70
2
  0
BLOCK_RECORD
  5
17
330
9
100
AcDbSymbolTableRecord
100
AcDbBlockTableRecord
  2
*Model_Space
340
1A
 70
0
280
1
281
0
  0
BLOCK_RECORD
  5
1B
330
9
100
AcDbSymbolTableRecord
100
AcDbBlockTableRecord
  2
*Paper_Space
340
1E
 70
0
280
1
281
0
  0
ENDTAB
  0
ENDSEC
  0
SECTION
  2
BLOCKS
  0
BLOCK
  5
18
330
17
100
AcDbEntity
  8
0
100
AcDbBlockBegin
  2
*Model_Space
 70
0
 10
0.0
 20
0.0
 30
0.0
  3
*Model_Space
  1

  0
ENDBLK
  5
19
330
17
100
AcDbEntity
  8
0
100
AcDbBlockEnd
  0
BLOCK
  5
1C
330
1B
100
AcDbEntity
  8
0
100
AcDbBlockBegin
  2
*Paper_Space
 70
0
 10
0.0
 20
0.0
 30
0.0
  3
*Paper_Space
  1

  0
ENDBLK
  5
1D
330
1B
100
AcDbEntity
  8
0
100
AcDbBlockEnd
  0
ENDSEC
  0
SECTION
  2
ENTITIES
  0
LWPOLYLINE
  5
33
330
17
100
AcDbEntity
  8
SHEET
 62
8
100
AcDbPolyline
 90
4
 70
1
 10
0.0
 20
0.0
 10
400.0
 20
0.0
 10
400.0
 20
600.0
 10
0.0
 20
600.0
  0
LWPOLYLINE
  5
34
330
17
100
AcDbEntity
  8
CUTS
100
AcDbPolyline
 90
4
 70
1
 10
111.5
 20
21.5
 10
111.5
 20
181.5
 10
11.5
 20
181.5
 10
11.5
 20
21.5
  0
TEXT
  5
35
330
17
100
AcDbEntity
  8
ENGRAVE
100
AcDbText
 10
19.5
 20
26.5
 30
0.0
 40
3.0
  1
M4 BASE
 11
19.5
 21
26.5
 31
0.0
100
AcDbText
  0
LWPOLYLINE
  5
36
330
17
100
AcDbEntity
  8
CUTS
100
AcDbPolyline
 90
4
 70
1
 10
81.5
 20
60.05
 10
81.5
 20
62.949999999999996
 10
71.5
 20
62.949999999999996
 10
71.5
 20
60.05
  0
LWPOLYLINE
  5
37
330
17
100
AcDbEntity
  8
CUTS
100
AcDbPolyline
 90
4
 70
1
 10
51.5
 20
60.05
 10
51.5
 20
62.949999999999996
 10
41.5
 20
62.949999999999996
 10
41.5
 20
60.05
  0
LWPOLYLINE
  5
38
330
17
100
AcDbEntity
  8
CUTS
100
AcDbPolyline
 90
4
 70
1
 10
81.5
 20
140.05
 10
81.5
 20
142.95
 10
71.5
 20
142.95
 10
71.5
 20
140.05
  0
LWPOLYLINE
  5
39
330
17
100
AcDbEntity
  8
CUTS
100
AcDbPolyline
 90
4
 70
1
 10
51.5
 20
140.05
 10
51.5
 20
142.95
 10
41.5
 20
142.95
 10
41.5
 20
140.05
  0
LWPOLYLINE
  5
3A
330
17
100
AcDbEntity
  8
CUTS
100
AcDbPolyline
 90
4
 70
1
 10
91.5
 20
100.05
 10
91.5
 20
102.95
 10
81.5
 20
102.95
 10
81.5
 20
100.05
  0
LWPOLYLINE
  5
3B
330
17
100
AcDbEntity
  8
CUTS
100
AcDbPolyline
 90
4
 70
1
 10
111.5
 20
189.5
 10
111.5
 20
239.5
 10
41.5
 20
239.5
 10
41.5
 20
189.5
  0
LWPOLYLINE
  5
3C
330
17
100
AcDbEntity
  8
CUTS
100
AcDbPolyline
 90
4
 70
1
 10
114.5
 20
194.5
 10
114.5
 20
204.5
 10
111.5
 20
204.5
 10
111.5
 20
194.5
  0
LWPOLYLINE
  5
3D
330
17
100
AcDbEntity
  8
CUTS
100
AcDbPolyline
 90
4
 70
1
 10
114.5
 20
224.5
 10
114.5
 20
234.5
 10
111.5
 20
234.5
 10
111.5
 20
224.5
  0
CIRCLE
  5
3E
330
17
100
AcDbEntity
  8
CUTS
100
AcDbCircle
 10
66.5
 20
204.5
 30
0.0
 40
2.9
  0
CIRCLE
  5
3F
330
17
100
AcDbEntity
  8
CUTS
100
AcDbCircle
 10
66.5
 20
224.5
 30
0.0
 40
1.6
  0
TEXT
  5
40
330
17
100
AcDbEntity
  8
ENGRAVE
100
AcDbText
 10
51.5
 20
192.5
 30
0.0
 40
3.0
  1
M4 AX L
 11
51.5
 21
192.5
 31
0.0
100
AcDbText
  0
LWPOLYLINE
  5
41
330
17
100
AcDbEntity
  8
CUTS
100
AcDbPolyline
 90
4
 70
1
 10
111.5
 20
247.5
 10
111.5
 20
297.5
 10
41.5
 20
297.5
 10
41.5
 20
247.5
  0
LWPOLYLINE
  5
42
330
17
100
AcDbEntity
  8
CUTS
100
AcDbPolyline
 90
4
 70
1
 10
114.5
 20
252.5
 10
114.5
 20
262.5
 10
111.5
 20
262.5
 10
111.5
 20
252.5
  0
LWPOLYLINE
  5
43
330
17
100
AcDbEntity
  8
CUTS
100
AcDbPolyline
 90
4
 70
1
 10
114.5
 20
282.5
 10
114.5
 20
292.5
 10
111.5
 20
292.5
 10
111.5
 20
282.5
  0
CIRCLE
  5
44
330
17
100
AcDbEntity
  8
CUTS
100
AcDbCircle
 10
66.5
 20
262.5
 30
0.0
 40
2.9
  0
CIRCLE
  5
45
330
17
100
AcDbEntity
  8
CUTS
100
AcDbCircle
 10
66.5
 20
282.5
 30
0.0
 40
1.6
  0
TEXT
  5
46
330
17
100
AcDbEntity
  8
ENGRAVE
100
AcDbText
 10
51.5
 20
250.5
 30
0.0
 40
3.0
  1
M4 AX R
 11
51.5
 21
250.5
 31
0.0
100
AcDbText
  0
LWPOLYLINE
  5
47
330
17
100
AcDbEntity
  8
CUTS
100
AcDbPolyline
 90
4
 70
1
 10
179.5
 20
21.5
 10
179.5
 20
101.5
 10
139.5
 20
101.5
 10
139.5
 20
21.5
  0
LWPOLYLINE
  5
48
330
17
100
AcDbEntity
  8
CUTS
100
AcDbPolyline
 90
4
 70
1
 10
169.5
 20
49.5
 10
169.5
 20
73.5
 10
149.5
 20
73.5
 10
149.5
 20
49.5
  0
CIRCLE
  5
49
330
17
100
AcDbEntity
  8
CUTS
100
AcDbCircle
 10
159.5
 20
33.5
 30
0.0
 40
1.6
  0
CIRCLE
  5
4A
330
17
100
AcDbEntity
  8
CUTS
100
AcDbCircle
 10
159.5
 20
89.5
 30
0.0
 40
1.6
  0
LWPOLYLINE
  5
4B
330
17
100
AcDbEntity
  8
CUTS
100
AcDbPolyline
 90
4
 70
1
 10
182.5
 20
56.5
 10
182.5
 20
66.5
 10
179.5
 20
66.5
 10
179.5
 20
56.5
  0
TEXT
  5
4C
330
17
100
AcDbEntity
  8
ENGRAVE
100
AcDbText
 10
147.5
 20
26.5
 30
0.0
 40
3.0
  1
M4 TT MOUNT
 11
147.5
 21
26.5
 31
0.0
100
AcDbText
  0
LWPOLYLINE
  5
4D
330
17
100
AcDbEntity
  8
CUTS
100
AcDbPolyline
 90
72
 70
1
 10
159.96658025171456
 20
137.49222294236017
 10
159.5
 20
137.5
 10
159.03341974828544
 20
137.49222294236017
 10
157.34840480546148
 20
132.75314206736493
 10
157.04121907152606
 20
132.67629534974614
 10
156.7367650634484
 20
132.58925369243377
 10
152.90795887970887
 20
135.85091064935662
 10
152.5
 20
135.62435565298216
 10
152.09981817793098
 20
135.3843303976421
 10
153.01009286918665
 20
130.43765849789526
 10
152.7824855787278
 20
130.2175144212722
 10
152.56234150210474
 20
129.98990713081335
 10
147.61566960235794
 20
130.90018182206902
 10
147.37564434701787
 20
130.5
 10
147.14908935064338
 20
130.09204112029113
 10
150.41074630756623
 20
126.2632349365516
 10
150.32370465025386
 20
125.95878092847394
 10
150.24685793263507
 20
125.65159519453852
 10
145.50777705763983
 20
123.96658025171455
 10
145.5
 20
123.5
 10
145.50777705763983
 20
123.03341974828545
 10
150.24685793263507
 20
121.34840480546148
 10
150.32370465025386
 20
121.04121907152606
 10
150.41074630756623
 20
120.7367650634484
 10
147.14908935064338
 20
116.90795887970886
 10
147.37564434701784
 20
116.5
 10
147.6156696023579
 20
116.09981817793098
 10
152.56234150210474
 20
117.01009286918665
 10
152.7824855787278
 20
116.7824855787278
 10
153.01009286918665
 20
116.56234150210476
 10
152.09981817793098
 20
111.61566960235794
 10
152.5
 20
111.37564434701787
 10
152.90795887970884
 20
111.14908935064338
 10
156.7367650634484
 20
114.41074630756624
 10
157.04121907152606
 20
114.32370465025386
 10
157.34840480546148
 20
114.24685793263505
 10
159.03341974828544
 20
109.50777705763984
 10
159.5
 20
109.5
 10
159.96658025171456
 20
109.50777705763984
 10
161.65159519453852
 20
114.24685793263505
 10
161.95878092847394
 20
114.32370465025386
 10
162.2632349365516
 20
114.41074630756624
 10
166.09204112029113
 20
111.14908935064338
 10
166.5
 20
111.37564434701785
 10
166.90018182206902
 20
111.61566960235793
 10
165.98990713081335
 20
116.56234150210476
 10
166.2175144212722
 20
116.7824855787278
 10
166.43765849789526
 20
117.01009286918665
 10
171.38433039764206
 20
116.09981817793098
 10
171.62435565298213
 20
116.5
 10
171.85091064935662
 20
116.90795887970886
 10
168.58925369243377
 20
120.73676506344839
 10
168.67629534974614
 20
121.04121907152604
 10
168.75314206736493
 20
121.34840480546148
 10
173.49222294236017
 20
123.03341974828545
 10
173.5
 20
123.5
 10
173.49222294236017
 20
123.96658025171455
 10
168.75314206736493
 20
125.6515951945385
 10
168.67629534974614
 20
125.95878092847394
 10
168.58925369243377
 20
126.2632349365516
 10
171.85091064935662
 20
130.09204112029113
 10
171.62435565298216
 20
130.5
 10
171.3843303976421
 20
130.900181822069
 10
166.43765849789526
 20
129.98990713081332
 10
166.2175144212722
 20
130.2175144212722
 10
165.98990713081335
 20
130.43765849789526
 10
166.90018182206902
 20
135.38433039764206
 10
166.5
 20
135.62435565298213
 10
166.09204112029116
 20
135.85091064935662
 10
162.2632349365516
 20
132.58925369243377
 10
161.95878092847397
 20
132.67629534974614
 10
161.65159519453852
 20
132.75314206736493
  0
CIRCLE
  5
4E
330
17
100
AcDbEntity
  8
CUTS
100
AcDbCircle
 10
159.5
 20
123.5
 30
0.0
 40
2.9
  0
TEXT
  5
4F
330
17
100
AcDbEntity
  8
ENGRAVE
100
AcDbText
 10
161.5
 20
117.5
 30
0.0
 40
2.0
  1
M4 SM
 11
161.5
 21
117.5
 31
0.0
100
AcDbText
  0
LWPOLYLINE
  5
50
330
17
100
AcDbEntity
  8
CUTS
100
AcDbPolyline
 90
216
 70
1
 10
159.9222135345758
 20
221.49765434512005
 10
159.5
 20
221.5
 10
159.0777864654242
 20
221.49765434512005
 10
156.95126102015502
 20
216.9029030117536
 10
156.58028261795346
 20
216.87252238607348
 10
156.20966467097952
 20
216.83802173828855
 10
153.3175757296289
 20
220.99370120621765
 10
152.90136924865664
 20
220.92269461446392
 10
152.48597740507506
 20
220.84706798448684
 10
151.18962885546802
 20
215.95285397989105
 10
150.82956198906555
 20
215.85851518068378
 10
150.47056553609636
 20
215.76018154415857
 10
146.90078775767964
 20
219.3505209288926
 10
146.5032345536246
 20
219.20831958986452
 10
146.107285872006
 20
219.06170986167328
 10
145.68050311275687
 20
214.01674140178596
 10
145.34228823168655
 20
213.86131086572777
 10
145.0058211982846
 20
213.70213205824885
 10
140.86682047420425
 20
216.61804071438203
 10
140.5
 20
216.4089653438087
 10
140.1355251806757
 20
216.19582717980623
 10
140.5912757899618
 20
211.15339307840387
 10
140.28518938223996
 20
210.94159348368123
 10
139.9814751489546
 20
210.7264060727655
 10
135.39901292177635
 20
212.8792855913022
 10
135.0740708319115
 20
212.60968883852115
 10
134.75214425783352
 20
212.33649833396763
 10
136.0765804840126
 20
207.44981039962656
 10
135.81192283025067
 20
207.18807716974933
 10
135.55018960037341
 20
206.9234195159874
 10
130.66350166603237
 20
208.24785574216648
 10
130.39031116147885
 20
207.9259291680885
 10
130.1207144086978
 20
207.60098707822365
 10
132.27359392723451
 20
203.0185248510454
 10
132.05840651631877
 20
202.71481061776004
 10
131.84660692159613
 20
202.4087242100382
 10
126.80417282019377
 20
202.8644748193243
 10
126.59103465619134
 20
202.5
 10
126.38195928561797
 20
202.13317952579575
 10
129.29786794175115
 20
197.99417880171544
 10
129.13868913427223
 20
197.65771176831345
 10
128.98325859821404
 20
197.31949688724313
 10
123.93829013832672
 20
196.892714127994
 10
123.79168041013548
 20
196.4967654463754
 10
123.64947907110742
 20
196.09921224232036
 10
127.23981845584143
 20
192.52943446390364
 10
127.14148481931622
 20
192.17043801093445
 10
127.04714602010895
 20
191.810371144532
 10
122.15293201551316
 20
190.51402259492497
 10
122.07730538553609
 20
190.09863075134336
 10
122.00629879378235
 20
189.6824242703711
 10
126.16197826171145
 20
186.79033532902048
 10
126.12747761392652
 20
186.41971738204654
 10
126.09709698824639
 20
186.04873897984498
 10
121.50234565487995
 20
183.9222135345758
 10
121.5
 20
183.5
 10
121.50234565487995
 20
183.0777864654242
 10
126.09709698824639
 20
180.95126102015502
 10
126.12747761392652
 20
180.58028261795346
 10
126.16197826171145
 20
180.20966467097955
 10
122.00629879378235
 20
177.3175757296289
 10
122.07730538553609
 20
176.90136924865664
 10
122.15293201551316
 20
176.48597740507506
 10
127.04714602010895
 20
175.18962885546802
 10
127.14148481931622
 20
174.82956198906555
 10
127.23981845584143
 20
174.47056553609636
 10
123.64947907110742
 20
170.90078775767964
 10
123.79168041013548
 20
170.5032345536246
 10
123.93829013832672
 20
170.107285872006
 10
128.98325859821404
 20
169.6805031127569
 10
129.13868913427223
 20
169.34228823168658
 10
129.29786794175112
 20
169.0058211982846
 10
126.38195928561797
 20
164.86682047420425
 10
126.59103465619133
 20
164.5
 10
126.80417282019377
 20
164.1355251806757
 10
131.8466069215961
 20
164.5912757899618
 10
132.05840651631877
 20
164.28518938223996
 10
132.2735939272345
 20
163.9814751489546
 10
130.1207144086978
 20
159.39901292177635
 10
130.39031116147885
 20
159.0740708319115
 10
130.66350166603237
 20
158.75214425783352
 10
135.55018960037341
 20
160.0765804840126
 10
135.81192283025064
 20
159.81192283025067
 10
136.0765804840126
 20
159.55018960037344
 10
134.7521442578335
 20
154.66350166603237
 10
135.0740708319115
 20
154.39031116147885
 10
135.39901292177635
 20
154.1207144086978
 10
139.98147514895456
 20
156.27359392723451
 10
140.28518938223993
 20
156.05840651631877
 10
140.5912757899618
 20
155.84660692159613
 10
140.1355251806757
 20
150.80417282019377
 10
140.5
 20
150.5910346561913
 10
140.86682047420425
 20
150.38195928561797
 10
145.0058211982846
 20
153.29786794175115
 10
145.34228823168655
 20
153.13868913427223
 10
145.68050311275687
 20
152.98325859821404
 10
146.107285872006
 20
147.93829013832672
 10
146.50323455362457
 20
147.79168041013548
 10
146.90078775767964
 20
147.6494790711074
 10
150.47056553609633
 20
151.23981845584143
 10
150.82956198906555
 20
151.14148481931622
 10
151.189628855468
 20
151.04714602010895
 10
152.48597740507503
 20
146.15293201551316
 10
152.90136924865664
 20
146.07730538553608
 10
153.3175757296289
 20
146.00629879378235
 10
156.20966467097952
 20
150.16197826171145
 10
156.58028261795343
 20
150.12747761392652
 10
156.95126102015502
 20
150.0970969882464
 10
159.0777864654242
 20
145.50234565487995
 10
159.5
 20
145.5
 10
159.9222135345758
 20
145.50234565487995
 10
162.04873897984498
 20
150.0970969882464
 10
162.41971738204654
 20
150.12747761392652
 10
162.79033532902045
 20
150.16197826171145
 10
165.68242427037106
 20
146.00629879378235
 10
166.09863075134334
 20
146.07730538553608
 10
166.51402259492494
 20
146.15293201551316
 10
167.81037114453198
 20
151.04714602010895
 10
168.17043801093445
 20
151.1414848193162
 10
168.52943446390364
 20
151.23981845584143
 10
172.09921224232036
 20
147.6494790711074
 10
172.4967654463754
 20
147.79168041013548
 10
172.892714127994
 20
147.93829013832672
 10
173.3194968872431
 20
152.98325859821404
 10
173.65771176831342
 20
153.13868913427223
 10
173.9941788017154
 20
153.29786794175115
 10
178.13317952579575
 20
150.38195928561797
 10
178.5
 20
150.5910346561913
 10
178.86447481932427
 20
150.80417282019377
 10
178.4087242100382
 20
155.8466069215961
 10
178.71481061776004
 20
156.05840651631877
 10
179.0185248510454
 20
156.2735939272345
 10
183.60098707822365
 20
154.1207144086978
 10
183.9259291680885
 20
154.39031116147885
 10
184.24785574216648
 20
154.66350166603237
 10
182.9234195159874
 20
159.55018960037344
 10
183.18807716974933
 20
159.81192283025064
 10
183.44981039962656
 20
160.0765804840126
 10
188.3364983339676
 20
158.75214425783352
 10
188.60968883852115
 20
159.0740708319115
 10
188.8792855913022
 20
159.39901292177635
 10
186.72640607276549
 20
163.98147514895456
 10
186.94159348368123
 20
164.28518938223993
 10
187.15339307840387
 20
164.5912757899618
 10
192.1958271798062
 20
164.1355251806757
 10
192.40896534380866
 20
164.49999999999997
 10
192.618040714382
 20
164.86682047420422
 10
189.70213205824885
 20
169.00582119828456
 10
189.86131086572777
 20
169.34228823168655
 10
190.01674140178596
 20
169.68050311275687
 10
195.06170986167325
 20
170.10728587200597
 10
195.20831958986452
 20
170.50323455362457
 10
195.35052092889256
 20
170.9007877576796
 10
191.76018154415857
 20
174.47056553609633
 10
191.85851518068378
 20
174.82956198906552
 10
191.95285397989105
 20
175.189628855468
 10
196.84706798448684
 20
176.48597740507506
 10
196.92269461446392
 20
176.90136924865664
 10
196.99370120621765
 20
177.3175757296289
 10
192.83802173828855
 20
180.20966467097952
 10
192.87252238607348
 20
180.58028261795346
 10
192.9029030117536
 20
180.95126102015502
 10
197.49765434512005
 20
183.0777864654242
 10
197.5
 20
183.5
 10
197.49765434512005
 20
183.9222135345758
 10
192.9029030117536
 20
186.04873897984498
 10
192.87252238607348
 20
186.41971738204654
 10
192.83802173828855
 20
186.79033532902045
 10
196.99370120621765
 20
189.68242427037106
 10
196.92269461446392
 20
190.09863075134334
 10
196.84706798448684
 20
190.51402259492494
 10
191.95285397989105
 20
191.81037114453198
 10
191.8585151806838
 20
192.17043801093442
 10
191.76018154415857
 20
192.52943446390364
 10
195.3505209288926
 20
196.09921224232033
 10
195.20831958986452
 20
196.49676544637538
 10
195.06170986167328
 20
196.89271412799397
 10
190.01674140178596
 20
197.3194968872431
 10
189.86131086572777
 20
197.65771176831342
 10
189.70213205824888
 20
197.9941788017154
 10
192.61804071438203
 20
202.13317952579575
 10
192.40896534380866
 20
202.5
 10
192.19582717980623
 20
202.8644748193243
 10
187.15339307840387
 20
202.4087242100382
 10
186.94159348368123
 20
202.71481061776004
 10
186.72640607276549
 20
203.0185248510454
 10
188.8792855913022
 20
207.60098707822365
 10
188.60968883852115
 20
207.9259291680885
 10
188.33649833396763
 20
208.24785574216648
 10
183.44981039962659
 20
206.9234195159874
 10
183.18807716974936
 20
207.18807716974933
 10
182.9234195159874
 20
207.44981039962656
 10
184.2478557421665
 20
212.33649833396763
 10
183.9259291680885
 20
212.60968883852115
 10
183.60098707822365
 20
212.8792855913022
 10
179.01852485104544
 20
210.72640607276549
 10
178.71481061776007
 20
210.94159348368123
 10
178.4087242100382
 20
211.15339307840387
 10
178.8644748193243
 20
216.1958271798062
 10
178.5
 20
216.40896534380866
 10
178.13317952579578
 20
216.618040714382
 10
173.99417880171544
 20
213.70213205824885
 10
173.65771176831345
 20
213.86131086572777
 10
173.31949688724313
 20
214.01674140178596
 10
172.89271412799403
 20
219.06170986167325
 10
172.49676544637543
 20
219.20831958986452
 10
172.0992122423204
 20
219.35052092889256
 10
168.52943446390367
 20
215.76018154415857
 10
168.17043801093448
 20
215.85851518068378
 10
167.81037114453204
 20
215.95285397989105
 10
166.51402259492494
 20
220.84706798448684
 10
166.09863075134336
 20
220.92269461446392
 10
165.6824242703711
 20
220.99370120621765
 10
162.79033532902048
 20
216.83802173828855
 10
162.41971738204654
 20
216.87252238607348
 10
162.04873897984498
 20
216.9029030117536
  0
CIRCLE
  5
51
330
17
100
AcDbEntity
  8
CUTS
100
AcDbCircle
 10
159.5
 20
183.5
 30
0.0
 40
1.6
  0
TEXT
  5
52
330
17
100
AcDbEntity
  8
ENGRAVE
100
AcDbText
 10
161.5
 20
177.5
 30
0.0
 40
2.0
  1
M4 LG
 11
161.5
 21
177.5
 31
0.0
100
AcDbText
  0
CIRCLE
  5
53
330
17
100
AcDbEntity
  8
CUTS
100
AcDbCircle
 10
159.5
 20
249.5
 30
0.0
 40
20.0
  0
CIRCLE
  5
54
330
17
100
AcDbEntity
  8
CUTS
100
AcDbCircle
 10
159.5
 20
249.5
 30
0.0
 40
1.6
  0
CIRCLE
  5
55
330
17
100
AcDbEntity
  8
CUTS
100
AcDbCircle
 10
159.5
 20
264.5
 30
0.0
 40
1.5
  0
TEXT
  5
56
330
17
100
AcDbEntity
  8
ENGRAVE
100
AcDbText
 10
161.5
 20
239.5
 30
0.0
 40
3.0
  1
M4 DRUM
 11
161.5
 21
239.5
 31
0.0
100
AcDbText
  0
LWPOLYLINE
  5
57
330
17
100
AcDbEntity
  8
CUTS
100
AcDbPolyline
 90
4
 70
1
 10
302.5
 20
21.5
 10
302.5
 20
181.5
 10
202.5
 20
181.5
 10
202.5
 20
21.5
  0
TEXT
  5
58
330
17
100
AcDbEntity
  8
ENGRAVE
100
AcDbText
 10
210.5
 20
26.5
 30
0.0
 40
3.0
  1
M4 BASE
 11
210.5
 21
26.5
 31
0.0
100
AcDbText
  0
LWPOLYLINE
  5
59
330
17
100
AcDbEntity
  8
CUTS
100
AcDbPolyline
 90
4
 70
1
 10
272.5
 20
60.05
 10
272.5
 20
62.949999999999996
 10
262.5
 20
62.949999999999996
 10
262.5
 20
60.05
  0
LWPOLYLINE
  5
5A
330
17
100
AcDbEntity
  8
CUTS
100
AcDbPolyline
 90
4
 70
1
 10
242.5
 20
60.05
 10
242.5
 20
62.949999999999996
 10
232.5
 20
62.949999999999996
 10
232.5
 20
60.05
  0
LWPOLYLINE
  5
5B
330
17
100
AcDbEntity
  8
CUTS
100
AcDbPolyline
 90
4
 70
1
 10
272.5
 20
140.05
 10
272.5
 20
142.95
 10
262.5
 20
142.95
 10
262.5
 20
140.05
  0
LWPOLYLINE
  5
5C
330
17
100
AcDbEntity
  8
CUTS
100
AcDbPolyline
 90
4
 70
1
 10
242.5
 20
140.05
 10
242.5
 20
142.95
 10
232.5
 20
142.95
 10
232.5
 20
140.05
  0
LWPOLYLINE
  5
5D
330
17
100
AcDbEntity
  8
CUTS
100
AcDbPolyline
 90
4
 70
1
 10
282.5
 20
100.05
 10
282.5
 20
102.95
 10
272.5
 20
102.95
 10
272.5
 20
100.05
  0
LWPOLYLINE
  5
5E
330
17
100
AcDbEntity
  8
CUTS
100
AcDbPolyline
 90
4
 70
1
 10
302.5
 20
189.5
 10
302.5
 20
239.5
 10
232.5
 20
239.5
 10
232.5
 20
189.5
  0
LWPOLYLINE
  5
5F
330
17
100
AcDbEntity
  8
CUTS
100
AcDbPolyline
 90
4
 70
1
 10
305.5
 20
194.5
 10
305.5
 20
204.5
 10
302.5
 20
204.5
 10
302.5
 20
194.5
  0
LWPOLYLINE
  5
60
330
17
100
AcDbEntity
  8
CUTS
100
AcDbPolyline
 90
4
 70
1
 10
305.5
 20
224.5
 10
305.5
 20
234.5
 10
302.5
 20
234.5
 10
302.5
 20
224.5
  0
CIRCLE
  5
61
330
17
100
AcDbEntity
  8
CUTS
100
AcDbCircle
 10
257.5
 20
204.5
 30
0.0
 40
2.9
  0
CIRCLE
  5
62
330
17
100
AcDbEntity
  8
CUTS
100
AcDbCircle
 10
257.5
 20
224.5
 30
0.0
 40
1.6
  0
TEXT
  5
63
330
17
100
AcDbEntity
  8
ENGRAVE
100
AcDbText
 10
242.5
 20
192.5
 30
0.0
 40
3.0
  1
M4 AX L
 11
242.5
 21
192.5
 31
0.0
100
AcDbText
  0
LWPOLYLINE
  5
64
330
17
100
AcDbEntity
  8
CUTS
100
AcDbPolyline
 90
4
 70
1
 10
302.5
 20
247.5
 10
302.5
 20
297.5
 10
232.5
 20
297.5
 10
232.5
 20
247.5
  0
LWPOLYLINE
  5
65
330
17
100
AcDbEntity
  8
CUTS
100
AcDbPolyline
 90
4
 70
1
 10
305.5
 20
252.5
 10
305.5
 20
262.5
 10
302.5
 20
262.5
 10
302.5
 20
252.5
  0
LWPOLYLINE
  5
66
330
17
100
AcDbEntity
  8
CUTS
100
AcDbPolyline
 90
4
 70
1
 10
305.5
 20
282.5
 10
305.5
 20
292.5
 10
302.5
 20
292.5
 10
302.5
 20
282.5
  0
CIRCLE
  5
67
330
17
100
AcDbEntity
  8
CUTS
100
AcDbCircle
 10
257.5
 20
262.5
 30
0.0
 40
2.9
  0
CIRCLE
  5
68
330
17
100
AcDbEntity
  8
CUTS
100
AcDbCircle
 10
257.5
 20
282.5
 30
0.0
 40
1.6
  0
TEXT
  5
69
330
17
100
AcDbEntity
  8
ENGRAVE
100
AcDbText
 10
242.5
 20
250.5
 30
0.0
 40
3.0
  1
M4 AX R
 11
242.5
 21
250.5
 31
0.0
100
AcDbText
  0
LWPOLYLINE
  5
6A
330
17
100
AcDbEntity
  8
CUTS
100
AcDbPolyline
 90
4
 70
1
 10
370.5
 20
21.5
 10
370.5
 20
101.5
 10
330.5
 20
101.5
 10
330.5
 20
21.5
  0
LWPOLYLINE
  5
6B
330
17
100
AcDbEntity
  8
CUTS
100
AcDbPolyline
 90
4
 70
1
 10
360.5
 20
49.5
 10
360.5
 20
73.5
 10
340.5
 20
73.5
 10
340.5
 20
49.5
  0
CIRCLE
  5
6C
330
17
100
AcDbEntity
  8
CUTS
100
AcDbCircle
 10
350.5
 20
33.5
 30
0.0
 40
1.6
  0
CIRCLE
  5
6D
330
17
100
AcDbEntity
  8
CUTS
100
AcDbCircle
 10
350.5
 20
89.5
 30
0.0
 40
1.6
  0
LWPOLYLINE
  5
6E
330
17
100
AcDbEntity
  8
CUTS
100
AcDbPolyline
 90
4
 70
1
 10
373.5
 20
56.5
 10
373.5
 20
66.5
 10
370.5
 20
66.5
 10
370.5
 20
56.5
  0
TEXT
  5
6F
330
17
100
AcDbEntity
  8
ENGRAVE
100
AcDbText
 10
338.5
 20
26.5
 30
0.0
 40
3.0
  1
M4 TT MOUNT
 11
338.5
 21
26.5
 31
0.0
100
AcDbText
  0
LWPOLYLINE
  5
70
330
17
100
AcDbEntity
  8
CUTS
100
AcDbPolyline
 90
72
 70
1
 10
350.96658025171456
 20
137.49222294236017
 10
350.5
 20
137.5
 10
350.03341974828544
 20
137.49222294236017
 10
348.3484048054615
 20
132.75314206736493
 10
348.04121907152603
 20
132.67629534974614
 10
347.7367650634484
 20
132.58925369243377
 10
343.9079588797089
 20
135.85091064935662
 10
343.5
 20
135.62435565298216
 10
343.09981817793096
 20
135.3843303976421
 10
344.0100928691867
 20
130.43765849789526
 10
343.7824855787278
 20
130.2175144212722
 10
343.56234150210474
 20
129.98990713081335
 10
338.6156696023579
 20
130.90018182206902
 10
338.37564434701784
 20
130.5
 10
338.1490893506434
 20
130.09204112029113
 10
341.4107463075662
 20
126.2632349365516
 10
341.32370465025383
 20
125.95878092847394
 10
341.24685793263507
 20
125.65159519453852
 10
336.5077770576398
 20
123.96658025171455
 10
336.5
 20
123.5
 10
336.5077770576398
 20
123.03341974828545
 10
341.24685793263507
 20
121.34840480546148
 10
341.32370465025383
 20
121.04121907152606
 10
341.4107463075662
 20
120.7367650634484
 10
338.1490893506434
 20
116.90795887970886
 10
338.37564434701784
 20
116.5
 10
338.6156696023579
 20
116.09981817793098
 10
343.56234150210474
 20
117.01009286918665
 10
343.7824855787278
 20
116.7824855787278
 10
344.0100928691867
 20
116.56234150210476
 10
343.09981817793096
 20
111.61566960235794
 10
343.5
 20
111.37564434701787
 10
343.9079588797089
 20
111.14908935064338
 10
347.7367650634484
 20
114.41074630756624
 10
348.04121907152603
 20
114.32370465025386
 10
348.3484048054615
 20
114.24685793263505
 10
350.03341974828544
 20
109.50777705763984
 10
350.5
 20
109.5
 10
350.96658025171456
 20
109.50777705763984
 10
352.6515951945385
 20
114.24685793263505
 10
352.95878092847397
 20
114.32370465025386
 10
353.2632349365516
 20
114.41074630756624
 10
357.0920411202911
 20
111.14908935064338
 10
357.5
 20
111.37564434701785
 10
357.90018182206904
 20
111.61566960235793
 10
356.9899071308133
 20
116.56234150210476
 10
357.2175144212722
 20
116.7824855787278
 10
357.43765849789526
 20
117.01009286918665
 10
362.3843303976421
 20
116.09981817793098
 10
362.62435565298216
 20
116.5
 10
362.8509106493566
 20
116.90795887970886
 10
359.5892536924338
 20
120.73676506344839
 10
359.67629534974617
 20
121.04121907152604
 10
359.75314206736493
 20
121.34840480546148
 10
364.4922229423602
 20
123.03341974828545
 10
364.5
 20
123.5
 10
364.4922229423602
 20
123.96658025171455
 10
359.75314206736493
 20
125.6515951945385
 10
359.67629534974617
 20
125.95878092847394
 10
359.5892536924338
 20
126.2632349365516
 10
362.8509106493566
 20
130.09204112029113
 10
362.62435565298216
 20
130.5
 10
362.3843303976421
 20
130.900181822069
 10
357.43765849789526
 20
129.98990713081332
 10
357.2175144212722
 20
130.2175144212722
 10
356.9899071308133
 20
130.43765849789526
 10
357.90018182206904
 20
135.38433039764206
 10
357.5
 20
135.62435565298213
 10
357.0920411202911
 20
135.85091064935662
 10
353.2632349365516
 20
132.58925369243377
 10
352.95878092847397
 20
132.67629534974614
 10
352.6515951945385
 20
132.75314206736493
  0
CIRCLE
  5
71
330
17
100
AcDbEntity
  8
CUTS
100
AcDbCircle
 10
350.5
 20
123.5
 30
0.0
 40
2.9
  0
TEXT
  5
72
330
17
100
AcDbEntity
  8
ENGRAVE
100
AcDbText
 10
352.5
 20
117.5
 30
0.0
 40
2.0
  1
M4 SM
 11
352.5
 21
117.5
 31
0.0
100
AcDbText
  0
LWPOLYLINE
  5
73
330
17
100
AcDbEntity
  8
CUTS
100
AcDbPolyline
 90
216
 70
1
 10
350.9222135345758
 20
221.49765434512005
 10
350.5
 20
221.5
 10
350.0777864654242
 20
221.49765434512005
 10
347.951261020155
 20
216.9029030117536
 10
347.58028261795346
 20
216.87252238607348
 10
347.2096646709795
 20
216.83802173828855
 10
344.3175757296289
 20
220.99370120621765
 10
343.90136924865664
 20
220.92269461446392
 10
343.48597740507506
 20
220.84706798448684
 10
342.189628855468
 20
215.95285397989105
 10
341.82956198906555
 20
215.85851518068378
 10
341.47056553609633
 20
215.76018154415857
 10
337.9007877576796
 20
219.3505209288926
 10
337.50323455362457
 20
219.20831958986452
 10
337.107285872006
 20
219.06170986167328
 10
336.68050311275687
 20
214.01674140178596
 10
336.34228823168655
 20
213.86131086572777
 10
336.0058211982846
 20
213.70213205824885
 10
331.86682047420425
 20
216.61804071438203
 10
331.5
 20
216.4089653438087
 10
331.1355251806757
 20
216.19582717980623
 10
331.5912757899618
 20
211.15339307840387
 10
331.28518938223993
 20
210.94159348368123
 10
330.9814751489546
 20
210.7264060727655
 10
326.3990129217764
 20
212.8792855913022
 10
326.0740708319115
 20
212.60968883852115
 10
325.7521442578335
 20
212.33649833396763
 10
327.0765804840126
 20
207.44981039962656
 10
326.81192283025064
 20
207.18807716974933
 10
326.5501896003734
 20
206.9234195159874
 10
321.6635016660324
 20
208.24785574216648
 10
321.39031116147885
 20
207.9259291680885
 10
321.12071440869784
 20
207.60098707822365
 10
323.2735939272345
 20
203.0185248510454
 10
323.05840651631877
 20
202.71481061776004
 10
322.84660692159616
 20
202.4087242100382
 10
317.8041728201938
 20
202.8644748193243
 10
317.59103465619137
 20
202.5
 10
317.381959285618
 20
202.13317952579575
 10
320.2978679417512
 20
197.99417880171544
 10
320.1386891342722
 20
197.65771176831345
 10
319.98325859821404
 20
197.31949688724313
 10
314.9382901383267
 20
196.892714127994
 10
314.7916804101355
 20
196.4967654463754
 10
314.6494790711074
 20
196.09921224232036
 10
318.23981845584143
 20
192.52943446390364
 10
318.14148481931625
 20
192.17043801093445
 10
318.0471460201089
 20
191.810371144532
 10
313.15293201551316
 20
190.51402259492497
 10
313.0773053855361
 20
190.09863075134336
 10
313.0062987937823
 20
189.6824242703711
 10
317.16197826171145
 20
186.79033532902048
 10
317.12747761392654
 20
186.41971738204654
 10
317.0970969882464
 20
186.04873897984498
 10
312.50234565487995
 20
183.9222135345758
 10
312.5
 20
183.5
 10
312.50234565487995
 20
183.0777864654242
 10
317.0970969882464
 20
180.95126102015502
 10
317.12747761392654
 20
180.58028261795346
 10
317.16197826171145
 20
180.20966467097955
 10
313.0062987937823
 20
177.3175757296289
 10
313.0773053855361
 20
176.90136924865664
 10
313.15293201551316
 20
176.48597740507506
 10
318.0471460201089
 20
175.18962885546802
 10
318.14148481931625
 20
174.82956198906555
 10
318.23981845584143
 20
174.47056553609636
 10
314.6494790711074
 20
170.90078775767964
 10
314.7916804101355
 20
170.5032345536246
 10
314.9382901383267
 20
170.107285872006
 10
319.98325859821404
 20
169.6805031127569
 10
320.1386891342722
 20
169.34228823168658
 10
320.2978679417511
 20
169.0058211982846
 10
317.381959285618
 20
164.86682047420425
 10
317.5910346561913
 20
164.5
 10
317.8041728201938
 20
164.1355251806757
 10
322.8466069215961
 20
164.5912757899618
 10
323.05840651631877
 20
164.28518938223996
 10
323.2735939272345
 20
163.9814751489546
 10
321.12071440869784
 20
159.39901292177635
 10
321.39031116147885
 20
159.0740708319115
 10
321.6635016660324
 20
158.75214425783352
 10
326.5501896003734
 20
160.0765804840126
 10
326.81192283025064
 20
159.81192283025067
 10
327.0765804840126
 20
159.55018960037344
 10
325.7521442578335
 20
154.66350166603237
 10
326.0740708319115
 20
154.39031116147885
 10
326.3990129217764
 20
154.1207144086978
 10
330.9814751489546
 20
156.27359392723451
 10
331.28518938223993
 20
156.05840651631877
 10
331.5912757899618
 20
155.84660692159613
 10
331.1355251806757
 20
150.80417282019377
 10
331.5
 20
150.5910346561913
 10
331.86682047420425
 20
150.38195928561797
 10
336.0058211982846
 20
153.29786794175115
 10
336.34228823168655
 20
153.13868913427223
 10
336.68050311275687
 20
152.98325859821404
 10
337.107285872006
 20
147.93829013832672
 10
337.50323455362457
 20
147.79168041013548
 10
337.9007877576796
 20
147.6494790711074
 10
341.47056553609633
 20
151.23981845584143
 10
341.82956198906555
 20
151.14148481931622
 10
342.18962885546796
 20
151.04714602010895
 10
343.485977405075
 20
146.15293201551316
 10
343.90136924865664
 20
146.07730538553608
 10
344.3175757296289
 20
146.00629879378235
 10
347.2096646709795
 20
150.16197826171145
 10
347.58028261795346
 20
150.12747761392652
 10
347.951261020155
 20
150.0970969882464
 10
350.0777864654242
 20
145.50234565487995
 10
350.5
 20
145.5
 10
350.9222135345758
 20
145.50234565487995
 10
353.048738979845
 20
150.0970969882464
 10
353.41971738204654
 20
150.12747761392652
 10
353.7903353290205
 20
150.16197826171145
 10
356.6824242703711
 20
146.00629879378235
 10
357.09863075134336
 20
146.07730538553608
 10
357.51402259492494
 20
146.15293201551316
 10
358.810371144532
 20
151.04714602010895
 10
359.17043801093445
 20
151.1414848193162
 10
359.5294344639036
 20
151.23981845584143
 10
363.0992122423204
 20
147.6494790711074
 10
363.49676544637543
 20
147.79168041013548
 10
363.892714127994
 20
147.93829013832672
 10
364.31949688724313
 20
152.98325859821404
 10
364.65771176831345
 20
153.13868913427223
 10
364.9941788017154
 20
153.29786794175115
 10
369.13317952579575
 20
150.38195928561797
 10
369.5
 20
150.5910346561913
 10
369.8644748193243
 20
150.80417282019377
 10
369.4087242100382
 20
155.8466069215961
 10
369.71481061776
 20
156.05840651631877
 10
370.0185248510454
 20
156.2735939272345
 10
374.6009870782236
 20
154.1207144086978
 10
374.9259291680885
 20
154.39031116147885
 10
375.2478557421665
 20
154.66350166603237
 10
373.9234195159874
 20
159.55018960037344
 10
374.18807716974936
 20
159.81192283025064
 10
374.4498103996266
 20
160.0765804840126
 10
379.3364983339676
 20
158.75214425783352
 10
379.60968883852115
 20
159.0740708319115
 10
379.87928559130216
 20
159.39901292177635
 10
377.7264060727655
 20
163.98147514895456
 10
377.94159348368123
 20
164.28518938223993
 10
378.15339307840384
 20
164.5912757899618
 10
383.1958271798062
 20
164.1355251806757
 10
383.40896534380863
 20
164.49999999999997
 10
383.618040714382
 20
164.86682047420422
 10
380.7021320582488
 20
169.00582119828456
 10
380.8613108657278
 20
169.34228823168655
 10
381.01674140178596
 20
169.68050311275687
 10
386.06170986167325
 20
170.10728587200597
 10
386.2083195898645
 20
170.50323455362457
 10
386.3505209288926
 20
170.9007877576796
 10
382.76018154415857
 20
174.47056553609633
 10
382.85851518068375
 20
174.82956198906552
 10
382.9528539798911
 20
175.189628855468
 10
387.84706798448684
 20
176.48597740507506
 10
387.9226946144639
 20
176.90136924865664
 10
387.9937012062177
 20
177.3175757296289
 10
383.83802173828855
 20
180.20966467097952
 10
383.87252238607346
 20
180.58028261795346
 10
383.9029030117536
 20
180.95126102015502
 10
388.49765434512005
 20
183.0777864654242
 10
388.5
 20
183.5
 10
388.49765434512005
 20
183.9222135345758
 10
383.9029030117536
 20
186.04873897984498
 10
383.87252238607346
 20
186.41971738204654
 10
383.83802173828855
 20
186.79033532902045
 10
387.9937012062177
 20
189.68242427037106
 10
387.9226946144639
 20
190.09863075134334
 10
387.84706798448684
 20
190.51402259492494
 10
382.9528539798911
 20
191.81037114453198
 10
382.8585151806838
 20
192.17043801093442
 10
382.76018154415857
 20
192.52943446390364
 10
386.3505209288926
 20
196.09921224232033
 10
386.2083195898645
 20
196.49676544637538
 10
386.0617098616733
 20
196.89271412799397
 10
381.01674140178596
 20
197.3194968872431
 10
380.8613108657278
 20
197.65771176831342
 10
380.7021320582489
 20
197.9941788017154
 10
383.618040714382
 20
202.13317952579575
 10
383.40896534380863
 20
202.5
 10
383.1958271798062
 20
202.8644748193243
 10
378.15339307840384
 20
202.4087242100382
 10
377.94159348368123
 20
202.71481061776004
 10
377.7264060727655
 20
203.0185248510454
 10
379.87928559130216
 20
207.60098707822365
 10
379.60968883852115
 20
207.9259291680885
 10
379.3364983339676
 20
208.24785574216648
 10
374.4498103996266
 20
206.9234195159874
 10
374.18807716974936
 20
207.18807716974933
 10
373.9234195159874
 20
207.44981039962656
 10
375.2478557421665
 20
212.33649833396763
 10
374.9259291680885
 20
212.60968883852115
 10
374.6009870782236
 20
212.8792855913022
 10
370.0185248510454
 20
210.72640607276549
 10
369.71481061776007
 20
210.94159348368123
 10
369.4087242100382
 20
211.15339307840387
 10
369.8644748193243
 20
216.1958271798062
 10
369.5
 20
216.40896534380866
 10
369.13317952579575
 20
216.618040714382
 10
364.9941788017154
 20
213.70213205824885
 10
364.65771176831345
 20
213.86131086572777
 10
364.31949688724313
 20
214.01674140178596
 10
363.89271412799405
 20
219.06170986167325
 10
363.49676544637543
 20
219.20831958986452
 10
363.0992122423204
 20
219.35052092889256
 10
359.52943446390367
 20
215.76018154415857
 10
359.1704380109345
 20
215.85851518068378
 10
358.81037114453204
 20
215.95285397989105
 10
357.51402259492494
 20
220.84706798448684
 10
357.09863075134336
 20
220.92269461446392
 10
356.6824242703711
 20
220.99370120621765
 10
353.7903353290205
 20
216.83802173828855
 10
353.41971738204654
 20
216.87252238607348
 10
353.048738979845
 20
216.9029030117536
  0
CIRCLE
  5
74
330
17
100
AcDbEntity
  8
CUTS
100
AcDbCircle
 10
350.5
 20
183.5
 30
0.0
 40
1.6
  0
TEXT
  5
75
330
17
100
AcDbEntity
  8
ENGRAVE
100
AcDbText
 10
352.5
 20
177.5
 30
0.0
 40
2.0
  1
M4 LG
 11
352.5
 21
177.5
 31
0.0
100
AcDbText
  0
CIRCLE
  5
76
330
17
100
AcDbEntity
  8
CUTS
100
AcDbCircle
 10
350.5
 20
249.5
 30
0.0
 40
20.0
  0
CIRCLE
  5
77
330
17
100
AcDbEntity
  8
CUTS
100
AcDbCircle
 10
350.5
 20
249.5
 30
0.0
 40
1.6
  0
CIRCLE
  5
78
330
17
100
AcDbEntity
  8
CUTS
100
AcDbCircle
 10
350.5
 20
264.5
 30
0.0
 40
1.5
  0
TEXT
  5
79
330
17
100
AcDbEntity
  8
ENGRAVE
100
AcDbText
 10
352.5
 20
239.5
 30
0.0
 40
3.0
  1
M4 DRUM
 11
352.5
 21
239.5
 31
0.0
100
AcDbText
  0
LWPOLYLINE
  5
7A
330
17
100
AcDbEntity
  8
CUTS
100
AcDbPolyline
 90
4
 70
1
 10
111.5
 20
302.5
 10
111.5
 20
462.5
 10
11.5
 20
462.5
 10
11.5
 20
302.5
  0
TEXT
  5
7B
330
17
100
AcDbEntity
  8
ENGRAVE
100
AcDbText
 10
19.5
 20
307.5
 30
0.0
 40
3.0
  1
M4 BASE
 11
19.5
 21
307.5
 31
0.0
100
AcDbText
  0
LWPOLYLINE
  5
7C
330
17
100
AcDbEntity
  8
CUTS
100
AcDbPolyline
 90
4
 70
1
 10
81.5
 20
341.05
 10
81.5
 20
343.95
 10
71.5
 20
343.95
 10
71.5
 20
341.05
  0
LWPOLYLINE
  5
7D
330
17
100
AcDbEntity
  8
CUTS
100
AcDbPolyline
 90
4
 70
1
 10
51.5
 20
341.05
 10
51.5
 20
343.95
 10
41.5
 20
343.95
 10
41.5
 20
341.05
  0
LWPOLYLINE
  5
7E
330
17
100
AcDbEntity
  8
CUTS
100
AcDbPolyline
 90
4
 70
1
 10
81.5
 20
421.05
 10
81.5
 20
423.95
 10
71.5
 20
423.95
 10
71.5
 20
421.05
  0
LWPOLYLINE
  5
7F
330
17
100
AcDbEntity
  8
CUTS
100
AcDbPolyline
 90
4
 70
1
 10
51.5
 20
421.05
 10
51.5
 20
423.95
 10
41.5
 20
423.95
 10
41.5
 20
421.05
  0
LWPOLYLINE
  5
80
330
17
100
AcDbEntity
  8
CUTS
100
AcDbPolyline
 90
4
 70
1
 10
91.5
 20
381.05
 10
91.5
 20
383.95
 10
81.5
 20
383.95
 10
81.5
 20
381.05
  0
LWPOLYLINE
  5
81
330
17
100
AcDbEntity
  8
CUTS
100
AcDbPolyline
 90
4
 70
1
 10
111.5
 20
470.5
 10
111.5
 20
520.5
 10
41.5
 20
520.5
 10
41.5
 20
470.5
  0
LWPOLYLINE
  5
82
330
17
100
AcDbEntity
  8
CUTS
100
AcDbPolyline
 90
4
 70
1
 10
114.5
 20
475.5
 10
114.5
 20
485.5
 10
111.5
 20
485.5
 10
111.5
 20
475.5
  0
LWPOLYLINE
  5
83
330
17
100
AcDbEntity
  8
CUTS
100
AcDbPolyline
 90
4
 70
1
 10
114.5
 20
505.5
 10
114.5
 20
515.5
 10
111.5
 20
515.5
 10
111.5
 20
505.5
  0
CIRCLE
  5
84
330
17
100
AcDbEntity
  8
CUTS
100
AcDbCircle
 10
66.5
 20
485.5
 30
0.0
 40
2.9
  0
CIRCLE
  5
85
330
17
100
AcDbEntity
  8
CUTS
100
AcDbCircle
 10
66.5
 20
505.5
 30
0.0
 40
1.6
  0
TEXT
  5
86
330
17
100
AcDbEntity
  8
ENGRAVE
100
AcDbText
 10
51.5
 20
473.5
 30
0.0
 40
3.0
  1
M4 AX L
 11
51.5
 21
473.5
 31
0.0
100
AcDbText
  0
LWPOLYLINE
  5
87
330
17
100
AcDbEntity
  8
CUTS
100
AcDbPolyline
 90
4
 70
1
 10
111.5
 20
528.5
 10
111.5
 20
578.5
 10
41.5
 20
578.5
 10
41.5
 20
528.5
  0
LWPOLYLINE
  5
88
330
17
100
AcDbEntity
  8
CUTS
100
AcDbPolyline
 90
4
 70
1
 10
114.5
 20
533.5
 10
114.5
 20
543.5
 10
111.5
 20
543.5
 10
111.5
 20
533.5
  0
LWPOLYLINE
  5
89
330
17
100
AcDbEntity
  8
CUTS
100
AcDbPolyline
 90
4
 70
1
 10
114.5
 20
563.5
 10
114.5
 20
573.5
 10
111.5
 20
573.5
 10
111.5
 20
563.5
  0
CIRCLE
  5
8A
330
17
100
AcDbEntity
  8
CUTS
100
AcDbCircle
 10
66.5
 20
543.5
 30
0.0
 40
2.9
  0
CIRCLE
  5
8B
330
17
100
AcDbEntity
  8
CUTS
100
AcDbCircle
 10
66.5
 20
563.5
 30
0.0
 40
1.6
  0
TEXT
  5
8C
330
17
100
AcDbEntity
  8
ENGRAVE
100
AcDbText
 10
51.5
 20
531.5
 30
0.0
 40
3.0
  1
M4 AX R
 11
51.5
 21
531.5
 31
0.0
100
AcDbText
  0
LWPOLYLINE
  5
8D
330
17
100
AcDbEntity
  8
CUTS
100
AcDbPolyline
 90
4
 70
1
 10
179.5
 20
302.5
 10
179.5
 20
382.5
 10
139.5
 20
382.5
 10
139.5
 20
302.5
  0
LWPOLYLINE
  5
8E
330
17
100
AcDbEntity
  8
CUTS
100
AcDbPolyline
 90
4
 70
1
 10
169.5
 20
330.5
 10
169.5
 20
354.5
 10
149.5
 20
354.5
 10
149.5
 20
330.5
  0
CIRCLE
  5
8F
330
17
100
AcDbEntity
  8
CUTS
100
AcDbCircle
 10
159.5
 20
314.5
 30
0.0
 40
1.6
  0
CIRCLE
  5
90
330
17
100
AcDbEntity
  8
CUTS
100
AcDbCircle
 10
159.5
 20
370.5
 30
0.0
 40
1.6
  0
LWPOLYLINE
  5
91
330
17
100
AcDbEntity
  8
CUTS
100
AcDbPolyline
 90
4
 70
1
 10
182.5
 20
337.5
 10
182.5
 20
347.5
 10
179.5
 20
347.5
 10
179.5
 20
337.5
  0
TEXT
  5
92
330
17
100
AcDbEntity
  8
ENGRAVE
100
AcDbText
 10
147.5
 20
307.5
 30
0.0
 40
3.0
  1
M4 TT MOUNT
 11
147.5
 21
307.5
 31
0.0
100
AcDbText
  0
LWPOLYLINE
  5
93
330
17
100
AcDbEntity
  8
CUTS
100
AcDbPolyline
 90
72
 70
1
 10
159.96658025171456
 20
418.4922229423602
 10
159.5
 20
418.5
 10
159.03341974828544
 20
418.4922229423602
 10
157.34840480546148
 20
413.75314206736493
 10
157.04121907152606
 20
413.67629534974617
 10
156.7367650634484
 20
413.5892536924338
 10
152.90795887970887
 20
416.8509106493566
 10
152.5
 20
416.62435565298216
 10
152.09981817793098
 20
416.3843303976421
 10
153.01009286918665
 20
411.43765849789526
 10
152.7824855787278
 20
411.2175144212722
 10
152.56234150210474
 20
410.9899071308133
 10
147.61566960235794
 20
411.90018182206904
 10
147.37564434701787
 20
411.5
 10
147.14908935064338
 20
411.0920411202911
 10
150.41074630756623
 20
407.2632349365516
 10
150.32370465025386
 20
406.95878092847397
 10
150.24685793263507
 20
406.6515951945385
 10
145.50777705763983
 20
404.96658025171456
 10
145.5
 20
404.5
 10
145.50777705763983
 20
404.03341974828544
 10
150.24685793263507
 20
402.3484048054615
 10
150.32370465025386
 20
402.04121907152603
 10
150.41074630756623
 20
401.7367650634484
 10
147.14908935064338
 20
397.9079588797089
 10
147.37564434701784
 20
397.5
 10
147.6156696023579
 20
397.09981817793096
 10
152.56234150210474
 20
398.0100928691867
 10
152.7824855787278
 20
397.7824855787278
 10
153.01009286918665
 20
397.56234150210474
 10
152.09981817793098
 20
392.6156696023579
 10
152.5
 20
392.3756443470179
 10
152.90795887970884
 20
392.1490893506434
 10
156.7367650634484
 20
395.4107463075662
 10
157.04121907152606
 20
395.32370465025383
 10
157.34840480546148
 20
395.24685793263507
 10
159.03341974828544
 20
390.5077770576398
 10
159.5
 20
390.5
 10
159.96658025171456
 20
390.5077770576398
 10
161.65159519453852
 20
395.24685793263507
 10
161.95878092847394
 20
395.32370465025383
 10
162.2632349365516
 20
395.4107463075662
 10
166.09204112029113
 20
392.1490893506434
 10
166.5
 20
392.37564434701784
 10
166.90018182206902
 20
392.6156696023579
 10
165.98990713081335
 20
397.56234150210474
 10
166.2175144212722
 20
397.7824855787278
 10
166.43765849789526
 20
398.0100928691867
 10
171.38433039764206
 20
397.09981817793096
 10
171.62435565298213
 20
397.5
 10
171.85091064935662
 20
397.9079588797089
 10
168.58925369243377
 20
401.7367650634484
 10
168.67629534974614
 20
402.04121907152603
 10
168.75314206736493
 20
402.3484048054615
 10
173.49222294236017
 20
404.03341974828544
 10
173.5
 20
404.5
 10
173.49222294236017
 20
404.96658025171456
 10
168.75314206736493
 20
406.6515951945385
 10
168.67629534974614
 20
406.95878092847397
 10
168.58925369243377
 20
407.2632349365516
 10
171.85091064935662
 20
411.0920411202911
 10
171.62435565298216
 20
411.5
 10
171.3843303976421
 20
411.900181822069
 10
166.43765849789526
 20
410.9899071308133
 10
166.2175144212722
 20
411.2175144212722
 10
165.98990713081335
 20
411.43765849789526
 10
166.90018182206902
 20
416.3843303976421
 10
166.5
 20
416.6243556529821
 10
166.09204112029116
 20
416.8509106493566
 10
162.2632349365516
 20
413.5892536924338
 10
161.95878092847397
 20
413.67629534974617
 10
161.65159519453852
 20
413.75314206736493
  0
CIRCLE
  5
94
330
17
100
AcDbEntity
  8
CUTS
100
AcDbCircle
 10
159.5
 20
404.5
 30
0.0
 40
2.9
  0
TEXT
  5
95
330
17
100
AcDbEntity
  8
ENGRAVE
100
AcDbText
 10
161.5
 20
398.5
 30
0.0
 40
2.0
  1
M4 SM
 11
161.5
 21
398.5
 31
0.0
100
AcDbText
  0
LWPOLYLINE
  5
96
330
17
100
AcDbEntity
  8
CUTS
100
AcDbPolyline
 90
216
 70
1
 10
159.9222135345758
 20
502.49765434512005
 10
159.5
 20
502.5
 10
159.0777864654242
 20
502.49765434512005
 10
156.95126102015502
 20
497.9029030117536
 10
156.58028261795346
 20
497.87252238607346
 10
156.20966467097952
 20
497.83802173828855
 10
153.3175757296289
 20
501.9937012062177
 10
152.90136924865664
 20
501.9226946144639
 10
152.48597740507506
 20
501.84706798448684
 10
151.18962885546802
 20
496.9528539798911
 10
150.82956198906555
 20
496.85851518068375
 10
150.47056553609636
 20
496.76018154415857
 10
146.90078775767964
 20
500.3505209288926
 10
146.5032345536246
 20
500.2083195898645
 10
146.107285872006
 20
500.0617098616733
 10
145.68050311275687
 20
495.01674140178596
 10
145.34228823168655
 20
494.8613108657278
 10
145.0058211982846
 20
494.7021320582488
 10
140.86682047420425
 20
497.618040714382
 10
140.5
 20
497.4089653438087
 10
140.1355251806757
 20
497.1958271798062
 10
140.5912757899618
 20
492.15339307840384
 10
140.28518938223996
 20
491.94159348368123
 10
139.9814751489546
 20
491.7264060727655
 10
135.39901292177635
 20
493.87928559130216
 10
135.0740708319115
 20
493.60968883852115
 10
134.75214425783352
 20
493.3364983339676
 10
136.0765804840126
 20
488.4498103996266
 10
135.81192283025067
 20
488.18807716974936
 10
135.55018960037341
 20
487.9234195159874
 10
130.66350166603237
 20
489.2478557421665
 10
130.39031116147885
 20
488.9259291680885
 10
130.1207144086978
 20
488.6009870782236
 10
132.27359392723451
 20
484.0185248510454
 10
132.05840651631877
 20
483.71481061776
 10
131.84660692159613
 20
483.4087242100382
 10
126.80417282019377
 20
483.8644748193243
 10
126.59103465619134
 20
483.5
 10
126.38195928561797
 20
483.13317952579575
 10
129.29786794175115
 20
478.9941788017154
 10
129.13868913427223
 20
478.65771176831345
 10
128.98325859821404
 20
478.31949688724313
 10
123.93829013832672
 20
477.892714127994
 10
123.79168041013548
 20
477.49676544637543
 10
123.64947907110742
 20
477.0992122423204
 10
127.23981845584143
 20
473.5294344639036
 10
127.14148481931622
 20
473.17043801093445
 10
127.04714602010895
 20
472.81037114453204
 10
122.15293201551316
 20
471.514022594925
 10
122.07730538553609
 20
471.09863075134336
 10
122.00629879378235
 20
470.6824242703711
 10
126.16197826171145
 20
467.7903353290205
 10
126.12747761392652
 20
467.41971738204654
 10
126.09709698824639
 20
467.048738979845
 10
121.50234565487995
 20
464.9222135345758
 10
121.5
 20
464.5
 10
121.50234565487995
 20
464.0777864654242
 10
126.09709698824639
 20
461.951261020155
 10
126.12747761392652
 20
461.58028261795346
 10
126.16197826171145
 20
461.2096646709796
 10
122.00629879378235
 20
458.3175757296289
 10
122.07730538553609
 20
457.90136924865664
 10
122.15293201551316
 20
457.48597740507506
 10
127.04714602010895
 20
456.189628855468
 10
127.14148481931622
 20
455.82956198906555
 10
127.23981845584143
 20
455.4705655360964
 10
123.64947907110742
 20
451.9007877576796
 10
123.79168041013548
 20
451.50323455362457
 10
123.93829013832672
 20
451.107285872006
 10
128.98325859821404
 20
450.6805031127569
 10
129.13868913427223
 20
450.34228823168655
 10
129.29786794175112
 20
450.0058211982846
 10
126.38195928561797
 20
445.86682047420425
 10
126.59103465619133
 20
445.5
 10
126.80417282019377
 20
445.1355251806757
 10
131.8466069215961
 20
445.5912757899618
 10
132.05840651631877
 20
445.28518938224
 10
132.2735939272345
 20
444.9814751489546
 10
130.1207144086978
 20
440.3990129217764
 10
130.39031116147885
 20
440.0740708319115
 10
130.66350166603237
 20
439.7521442578335
 10
135.55018960037341
 20
441.0765804840126
 10
135.81192283025064
 20
440.81192283025064
 10
136.0765804840126
 20
440.5501896003734
 10
134.7521442578335
 20
435.6635016660324
 10
135.0740708319115
 20
435.39031116147885
 10
135.39901292177635
 20
435.12071440869784
 10
139.98147514895456
 20
437.2735939272345
 10
140.28518938223993
 20
437.05840651631877
 10
140.5912757899618
 20
436.84660692159616
 10
140.1355251806757
 20
431.8041728201938
 10
140.5
 20
431.5910346561913
 10
140.86682047420425
 20
431.381959285618
 10
145.0058211982846
 20
434.2978679417512
 10
145.34228823168655
 20
434.1386891342722
 10
145.68050311275687
 20
433.98325859821404
 10
146.107285872006
 20
428.9382901383267
 10
146.50323455362457
 20
428.7916804101355
 10
146.90078775767964
 20
428.6494790711074
 10
150.47056553609633
 20
432.23981845584143
 10
150.82956198906555
 20
432.14148481931625
 10
151.189628855468
 20
432.0471460201089
 10
152.48597740507503
 20
427.15293201551316
 10
152.90136924865664
 20
427.0773053855361
 10
153.3175757296289
 20
427.0062987937823
 10
156.20966467097952
 20
431.16197826171145
 10
156.58028261795343
 20
431.12747761392654
 10
156.95126102015502
 20
431.0970969882464
 10
159.0777864654242
 20
426.50234565487995
 10
159.5
 20
426.5
 10
159.9222135345758
 20
426.50234565487995
 10
162.04873897984498
 20
431.0970969882464
 10
162.41971738204654
 20
431.12747761392654
 10
162.79033532902045
 20
431.16197826171145
 10
165.68242427037106
 20
427.0062987937823
 10
166.09863075134334
 20
427.0773053855361
 10
166.51402259492494
 20
427.15293201551316
 10
167.81037114453198
 20
432.0471460201089
 10
168.17043801093445
 20
432.1414848193162
 10
168.52943446390364
 20
432.23981845584143
 10
172.09921224232036
 20
428.6494790711074
 10
172.4967654463754
 20
428.7916804101355
 10
172.892714127994
 20
428.9382901383267
 10
173.3194968872431
 20
433.98325859821404
 10
173.65771176831342
 20
434.1386891342722
 10
173.9941788017154
 20
434.2978679417512
 10
178.13317952579575
 20
431.381959285618
 10
178.5
 20
431.5910346561913
 10
178.86447481932427
 20
431.8041728201938
 10
178.4087242100382
 20
436.8466069215961
 10
178.71481061776004
 20
437.05840651631877
 10
179.0185248510454
 20
437.2735939272345
 10
183.60098707822365
 20
435.12071440869784
 10
183.9259291680885
 20
435.39031116147885
 10
184.24785574216648
 20
435.6635016660324
 10
182.9234195159874
 20
440.5501896003734
 10
183.18807716974933
 20
440.81192283025064
 10
183.44981039962656
 20
441.0765804840126
 10
188.3364983339676
 20
439.7521442578335
 10
188.60968883852115
 20
440.0740708319115
 10
188.8792855913022
 20
440.3990129217764
 10
186.72640607276549
 20
444.9814751489546
 10
186.94159348368123
 20
445.28518938223993
 10
187.15339307840387
 20
445.5912757899618
 10
192.1958271798062
 20
445.1355251806757
 10
192.40896534380866
 20
445.5
 10
192.618040714382
 20
445.86682047420425
 10
189.70213205824885
 20
450.0058211982846
 10
189.86131086572777
 20
450.34228823168655
 10
190.01674140178596
 20
450.68050311275687
 10
195.06170986167325
 20
451.10728587200595
 10
195.20831958986452
 20
451.50323455362457
 10
195.35052092889256
 20
451.9007877576796
 10
191.76018154415857
 20
455.47056553609633
 10
191.85851518068378
 20
455.8295619890655
 10
191.95285397989105
 20
456.18962885546796
 10
196.84706798448684
 20
457.48597740507506
 10
196.92269461446392
 20
457.90136924865664
 10
196.99370120621765
 20
458.3175757296289
 10
192.83802173828855
 20
461.2096646709795
 10
192.87252238607348
 20
461.58028261795346
 10
192.9029030117536
 20
461.951261020155
 10
197.49765434512005
 20
464.0777864654242
 10
197.5
 20
464.5
 10
197.49765434512005
 20
464.9222135345758
 10
192.9029030117536
 20
467.048738979845
 10
192.87252238607348
 20
467.41971738204654
 10
192.83802173828855
 20
467.7903353290204
 10
196.99370120621765
 20
470.68242427037103
 10
196.92269461446392
 20
471.0986307513433
 10
196.84706798448684
 20
471.51402259492494
 10
191.95285397989105
 20
472.810371144532
 10
191.8585151806838
 20
473.1704380109344
 10
191.76018154415857
 20
473.5294344639036
 10
195.3505209288926
 20
477.09921224232033
 10
195.20831958986452
 20
477.4967654463754
 10
195.06170986167328
 20
477.89271412799394
 10
190.01674140178596
 20
478.3194968872431
 10
189.86131086572777
 20
478.65771176831345
 10
189.70213205824888
 20
478.9941788017154
 10
192.61804071438203
 20
483.13317952579575
 10
192.40896534380866
 20
483.5
 10
192.19582717980623
 20
483.8644748193243
 10
187.15339307840387
 20
483.4087242100382
 10
186.94159348368123
 20
483.71481061776
 10
186.72640607276549
 20
484.0185248510454
 10
188.8792855913022
 20
488.6009870782236
 10
188.60968883852115
 20
488.9259291680885
 10
188.33649833396763
 20
489.2478557421665
 10
183.44981039962659
 20
487.9234195159874
 10
183.18807716974936
 20
488.18807716974936
 10
182.9234195159874
 20
488.4498103996266
 10
184.2478557421665
 20
493.3364983339676
 10
183.9259291680885
 20
493.60968883852115
 10
183.60098707822365
 20
493.87928559130216
 10
179.01852485104544
 20
491.7264060727655
 10
178.71481061776007
 20
491.94159348368123
 10
178.4087242100382
 20
492.15339307840384
 10
178.8644748193243
 20
497.1958271798062
 10
178.5
 20
497.40896534380863
 10
178.13317952579578
 20
497.618040714382
 10
173.99417880171544
 20
494.7021320582488
 10
173.65771176831345
 20
494.8613108657278
 10
173.31949688724313
 20
495.01674140178596
 10
172.89271412799403
 20
500.06170986167325
 10
172.49676544637543
 20
500.2083195898645
 10
172.0992122423204
 20
500.3505209288926
 10
168.52943446390367
 20
496.76018154415857
 10
168.17043801093448
 20
496.85851518068375
 10
167.81037114453204
 20
496.9528539798911
 10
166.51402259492494
 20
501.84706798448684
 10
166.09863075134336
 20
501.9226946144639
 10
165.6824242703711
 20
501.9937012062177
 10
162.79033532902048
 20
497.83802173828855
 10
162.41971738204654
 20
497.87252238607346
 10
162.04873897984498
 20
497.9029030117536
  0
CIRCLE
  5
97
330
17
100
AcDbEntity
  8
CUTS
100
AcDbCircle
 10
159.5
 20
464.5
 30
0.0
 40
1.6
  0
TEXT
  5
98
330
17
100
AcDbEntity
  8
ENGRAVE
100
AcDbText
 10
161.5
 20
458.5
 30
0.0
 40
2.0
  1
M4 LG
 11
161.5
 21
458.5
 31
0.0
100
AcDbText
  0
CIRCLE
  5
99
330
17
100
AcDbEntity
  8
CUTS
100
AcDbCircle
 10
159.5
 20
530.5
 30
0.0
 40
20.0
  0
CIRCLE
  5
9A
330
17
100
AcDbEntity
  8
CUTS
100
AcDbCircle
 10
159.5
 20
530.5
 30
0.0
 40
1.6
  0
CIRCLE
  5
9B
330
17
100
AcDbEntity
  8
CUTS
100
AcDbCircle
 10
159.5
 20
545.5
 30
0.0
 40
1.5
  0
TEXT
  5
9C
330
17
100
AcDbEntity
  8
ENGRAVE
100
AcDbText
 10
161.5
 20
520.5
 30
0.0
 40
3.0
  1
M4 DRUM
 11
161.5
 21
520.5
 31
0.0
100
AcDbText
  0
LWPOLYLINE
  5
9D
330
17
100
AcDbEntity
  8
CUTS
100
AcDbPolyline
 90
4
 70
1
 10
302.5
 20
302.5
 10
302.5
 20
462.5
 10
202.5
 20
462.5
 10
202.5
 20
302.5
  0
TEXT
  5
9E
330
17
100
AcDbEntity
  8
ENGRAVE
100
AcDbText
 10
210.5
 20
307.5
 30
0.0
 40
3.0
  1
M4 BASE
 11
210.5
 21
307.5
 31
0.0
100
AcDbText
  0
LWPOLYLINE
  5
9F
330
17
100
AcDbEntity
  8
CUTS
100
AcDbPolyline
 90
4
 70
1
 10
272.5
 20
341.05
 10
272.5
 20
343.95
 10
262.5
 20
343.95
 10
262.5
 20
341.05
  0
LWPOLYLINE
  5
A0
330
17
100
AcDbEntity
  8
CUTS
100
AcDbPolyline
 90
4
 70
1
 10
242.5
 20
341.05
 10
242.5
 20
343.95
 10
232.5
 20
343.95
 10
232.5
 20
341.05
  0
LWPOLYLINE
  5
A1
330
17
100
AcDbEntity
  8
CUTS
100
AcDbPolyline
 90
4
 70
1
 10
272.5
 20
421.05
 10
272.5
 20
423.95
 10
262.5
 20
423.95
 10
262.5
 20
421.05
  0
LWPOLYLINE
  5
A2
330
17
100
AcDbEntity
  8
CUTS
100
AcDbPolyline
 90
4
 70
1
 10
242.5
 20
421.05
 10
242.5
 20
423.95
 10
232.5
 20
423.95
 10
232.5
 20
421.05
  0
LWPOLYLINE
  5
A3
330
17
100
AcDbEntity
  8
CUTS
100
AcDbPolyline
 90
4
 70
1
 10
282.5
 20
381.05
 10
282.5
 20
383.95
 10
272.5
 20
383.95
 10
272.5
 20
381.05
  0
LWPOLYLINE
  5
A4
330
17
100
AcDbEntity
  8
CUTS
100
AcDbPolyline
 90
4
 70
1
 10
302.5
 20
470.5
 10
302.5
 20
520.5
 10
232.5
 20
520.5
 10
232.5
 20
470.5
  0
LWPOLYLINE
  5
A5
330
17
100
AcDbEntity
  8
CUTS
100
AcDbPolyline
 90
4
 70
1
 10
305.5
 20
475.5
 10
305.5
 20
485.5
 10
302.5
 20
485.5
 10
302.5
 20
475.5
  0
LWPOLYLINE
  5
A6
330
17
100
AcDbEntity
  8
CUTS
100
AcDbPolyline
 90
4
 70
1
 10
305.5
 20
505.5
 10
305.5
 20
515.5
 10
302.5
 20
515.5
 10
302.5
 20
505.5
  0
CIRCLE
  5
A7
330
17
100
AcDbEntity
  8
CUTS
100
AcDbCircle
 10
257.5
 20
485.5
 30
0.0
 40
2.9
  0
CIRCLE
  5
A8
330
17
100
AcDbEntity
  8
CUTS
100
AcDbCircle
 10
257.5
 20
505.5
 30
0.0
 40
1.6
  0
TEXT
  5
A9
330
17
100
AcDbEntity
  8
ENGRAVE
100
AcDbText
 10
242.5
 20
473.5
 30
0.0
 40
3.0
  1
M4 AX L
 11
242.5
 21
473.5
 31
0.0
100
AcDbText
  0
LWPOLYLINE
  5
AA
330
17
100
AcDbEntity
  8
CUTS
100
AcDbPolyline
 90
4
 70
1
 10
302.5
 20
528.5
 10
302.5
 20
578.5
 10
232.5
 20
578.5
 10
232.5
 20
528.5
  0
LWPOLYLINE
  5
AB
330
17
100
AcDbEntity
  8
CUTS
100
AcDbPolyline
 90
4
 70
1
 10
305.5
 20
533.5
 10
305.5
 20
543.5
 10
302.5
 20
543.5
 10
302.5
 20
533.5
  0
LWPOLYLINE
  5
AC
330
17
100
AcDbEntity
  8
CUTS
100
AcDbPolyline
 90
4
 70
1
 10
305.5
 20
563.5
 10
305.5
 20
573.5
 10
302.5
 20
573.5
 10
302.5
 20
563.5
  0
CIRCLE
  5
AD
330
17
100
AcDbEntity
  8
CUTS
100
AcDbCircle
 10
257.5
 20
543.5
 30
0.0
 40
2.9
  0
CIRCLE
  5
AE
330
17
100
AcDbEntity
  8
CUTS
100
AcDbCircle
 10
257.5
 20
563.5
 30
0.0
 40
1.6
  0
TEXT
  5
AF
330
17
100
AcDbEntity
  8
ENGRAVE
100
AcDbText
 10
242.5
 20
531.5
 30
0.0
 40
3.0
  1
M4 AX R
 11
242.5
 21
531.5
 31
0.0
100
AcDbText
  0
LWPOLYLINE
  5
B0
330
17
100
AcDbEntity
  8
CUTS
100
AcDbPolyline
 90
4
 70
1
 10
370.5
 20
302.5
 10
370.5
 20
382.5
 10
330.5
 20
382.5
 10
330.5
 20
302.5
  0
LWPOLYLINE
  5
B1
330
17
100
AcDbEntity
  8
CUTS
100
AcDbPolyline
 90
4
 70
1
 10
360.5
 20
330.5
 10
360.5
 20
354.5
 10
340.5
 20
354.5
 10
340.5
 20
330.5
  0
CIRCLE
  5
B2
330
17
100
AcDbEntity
  8
CUTS
100
AcDbCircle
 10
350.5
 20
314.5
 30
0.0
 40
1.6
  0
CIRCLE
  5
B3
330
17
100
AcDbEntity
  8
CUTS
100
AcDbCircle
 10
350.5
 20
370.5
 30
0.0
 40
1.6
  0
LWPOLYLINE
  5
B4
330
17
100
AcDbEntity
  8
CUTS
100
AcDbPolyline
 90
4
 70
1
 10
373.5
 20
337.5
 10
373.5
 20
347.5
 10
370.5
 20
347.5
 10
370.5
 20
337.5
  0
TEXT
  5
B5
330
17
100
AcDbEntity
  8
ENGRAVE
100
AcDbText
 10
338.5
 20
307.5
 30
0.0
 40
3.0
  1
M4 TT MOUNT
 11
338.5
 21
307.5
 31
0.0
100
AcDbText
  0
LWPOLYLINE
  5
B6
330
17
100
AcDbEntity
  8
CUTS
100
AcDbPolyline
 90
72
 70
1
 10
350.96658025171456
 20
418.4922229423602
 10
350.5
 20
418.5
 10
350.03341974828544
 20
418.4922229423602
 10
348.3484048054615
 20
413.75314206736493
 10
348.04121907152603
 20
413.67629534974617
 10
347.7367650634484
 20
413.5892536924338
 10
343.9079588797089
 20
416.8509106493566
 10
343.5
 20
416.62435565298216
 10
343.09981817793096
 20
416.3843303976421
 10
344.0100928691867
 20
411.43765849789526
 10
343.7824855787278
 20
411.2175144212722
 10
343.56234150210474
 20
410.9899071308133
 10
338.6156696023579
 20
411.90018182206904
 10
338.37564434701784
 20
411.5
 10
338.1490893506434
 20
411.0920411202911
 10
341.4107463075662
 20
407.2632349365516
 10
341.32370465025383
 20
406.95878092847397
 10
341.24685793263507
 20
406.6515951945385
 10
336.5077770576398
 20
404.96658025171456
 10
336.5
 20
404.5
 10
336.5077770576398
 20
404.03341974828544
 10
341.24685793263507
 20
402.3484048054615
 10
341.32370465025383
 20
402.04121907152603
 10
341.4107463075662
 20
401.7367650634484
 10
338.1490893506434
 20
397.9079588797089
 10
338.37564434701784
 20
397.5
 10
338.6156696023579
 20
397.09981817793096
 10
343.56234150210474
 20
398.0100928691867
 10
343.7824855787278
 20
397.7824855787278
 10
344.0100928691867
 20
397.56234150210474
 10
343.09981817793096
 20
392.6156696023579
 10
343.5
 20
392.3756443470179
 10
343.9079588797089
 20
392.1490893506434
 10
347.7367650634484
 20
395.4107463075662
 10
348.04121907152603
 20
395.32370465025383
 10
348.3484048054615
 20
395.24685793263507
 10
350.03341974828544
 20
390.5077770576398
 10
350.5
 20
390.5
 10
350.96658025171456
 20
390.5077770576398
 10
352.6515951945385
 20
395.24685793263507
 10
352.95878092847397
 20
395.32370465025383
 10
353.2632349365516
 20
395.4107463075662
 10
357.0920411202911
 20
392.1490893506434
 10
357.5
 20
392.37564434701784
 10
357.90018182206904
 20
392.6156696023579
 10
356.9899071308133
 20
397.56234150210474
 10
357.2175144212722
 20
397.7824855787278
 10
357.43765849789526
 20
398.0100928691867
 10
362.3843303976421
 20
397.09981817793096
 10
362.62435565298216
 20
397.5
 10
362.8509106493566
 20
397.9079588797089
 10
359.5892536924338
 20
401.7367650634484
 10
359.67629534974617
 20
402.04121907152603
 10
359.75314206736493
 20
402.3484048054615
 10
364.4922229423602
 20
404.03341974828544
 10
364.5
 20
404.5
 10
364.4922229423602
 20
404.96658025171456
 10
359.75314206736493
 20
406.6515951945385
 10
359.67629534974617
 20
406.95878092847397
 10
359.5892536924338
 20
407.2632349365516
 10
362.8509106493566
 20
411.0920411202911
 10
362.62435565298216
 20
411.5
 10
362.3843303976421
 20
411.900181822069
 10
357.43765849789526
 20
410.9899071308133
 10
357.2175144212722
 20
411.2175144212722
 10
356.9899071308133
 20
411.43765849789526
 10
357.90018182206904
 20
416.3843303976421
 10
357.5
 20
416.6243556529821
 10
357.0920411202911
 20
416.8509106493566
 10
353.2632349365516
 20
413.5892536924338
 10
352.95878092847397
 20
413.67629534974617
 10
352.6515951945385
 20
413.75314206736493
  0
CIRCLE
  5
B7
330
17
100
AcDbEntity
  8
CUTS
100
AcDbCircle
 10
350.5
 20
404.5
 30
0.0
 40
2.9
  0
TEXT
  5
B8
330
17
100
AcDbEntity
  8
ENGRAVE
100
AcDbText
 10
352.5
 20
398.5
 30
0.0
 40
2.0
  1
M4 SM
 11
352.5
 21
398.5
 31
0.0
100
AcDbText
  0
LWPOLYLINE
  5
B9
330
17
100
AcDbEntity
  8
CUTS
100
AcDbPolyline
 90
216
 70
1
 10
350.9222135345758
 20
502.49765434512005
 10
350.5
 20
502.5
 10
350.0777864654242
 20
502.49765434512005
 10
347.951261020155
 20
497.9029030117536
 10
347.58028261795346
 20
497.87252238607346
 10
347.2096646709795
 20
497.83802173828855
 10
344.3175757296289
 20
501.9937012062177
 10
343.90136924865664
 20
501.9226946144639
 10
343.48597740507506
 20
501.84706798448684
 10
342.189628855468
 20
496.9528539798911
 10
341.82956198906555
 20
496.85851518068375
 10
341.47056553609633
 20
496.76018154415857
 10
337.9007877576796
 20
500.3505209288926
 10
337.50323455362457
 20
500.2083195898645
 10
337.107285872006
 20
500.0617098616733
 10
336.68050311275687
 20
495.01674140178596
 10
336.34228823168655
 20
494.8613108657278
 10
336.0058211982846
 20
494.7021320582488
 10
331.86682047420425
 20
497.618040714382
 10
331.5
 20
497.4089653438087
 10
331.1355251806757
 20
497.1958271798062
 10
331.5912757899618
 20
492.15339307840384
 10
331.28518938223993
 20
491.94159348368123
 10
330.9814751489546
 20
491.7264060727655
 10
326.3990129217764
 20
493.87928559130216
 10
326.0740708319115
 20
493.60968883852115
 10
325.7521442578335
 20
493.3364983339676
 10
327.0765804840126
 20
488.4498103996266
 10
326.81192283025064
 20
488.18807716974936
 10
326.5501896003734
 20
487.9234195159874
 10
321.6635016660324
 20
489.2478557421665
 10
321.39031116147885
 20
488.9259291680885
 10
321.12071440869784
 20
488.6009870782236
 10
323.2735939272345
 20
484.0185248510454
 10
323.05840651631877
 20
483.71481061776
 10
322.84660692159616
 20
483.4087242100382
 10
317.8041728201938
 20
483.8644748193243
 10
317.59103465619137
 20
483.5
 10
317.381959285618
 20
483.13317952579575
 10
320.2978679417512
 20
478.9941788017154
 10
320.1386891342722
 20
478.65771176831345
 10
319.98325859821404
 20
478.31949688724313
 10
314.9382901383267
 20
477.892714127994
 10
314.7916804101355
 20
477.49676544637543
 10
314.6494790711074
 20
477.0992122423204
 10
318.23981845584143
 20
473.5294344639036
 10
318.14148481931625
 20
473.17043801093445
 10
318.0471460201089
 20
472.81037114453204
 10
313.15293201551316
 20
471.514022594925
 10
313.0773053855361
 20
471.09863075134336
 10
313.0062987937823
 20
470.6824242703711
 10
317.16197826171145
 20
467.7903353290205
 10
317.12747761392654
 20
467.41971738204654
 10
317.0970969882464
 20
467.048738979845
 10
312.50234565487995
 20
464.9222135345758
 10
312.5
 20
464.5
 10
312.50234565487995
 20
464.0777864654242
 10
317.0970969882464
 20
461.951261020155
 10
317.12747761392654
 20
461.58028261795346
 10
317.16197826171145
 20
461.2096646709796
 10
313.0062987937823
 20
458.3175757296289
 10
313.0773053855361
 20
457.90136924865664
 10
313.15293201551316
 20
457.48597740507506
 10
318.0471460201089
 20
456.189628855468
 10
318.14148481931625
 20
455.82956198906555
 10
318.23981845584143
 20
455.4705655360964
 10
314.6494790711074
 20
451.9007877576796
 10
314.7916804101355
 20
451.50323455362457
 10
314.9382901383267
 20
451.107285872006
 10
319.98325859821404
 20
450.6805031127569
 10
320.1386891342722
 20
450.34228823168655
 10
320.2978679417511
 20
450.0058211982846
 10
317.381959285618
 20
445.86682047420425
 10
317.5910346561913
 20
445.5
 10
317.8041728201938
 20
445.1355251806757
 10
322.8466069215961
 20
445.5912757899618
 10
323.05840651631877
 20
445.28518938224
 10
323.2735939272345
 20
444.9814751489546
 10
321.12071440869784
 20
440.3990129217764
 10
321.39031116147885
 20
440.0740708319115
 10
321.6635016660324
 20
439.7521442578335
 10
326.5501896003734
 20
441.0765804840126
 10
326.81192283025064
 20
440.81192283025064
 10
327.0765804840126
 20
440.5501896003734
 10
325.7521442578335
 20
435.6635016660324
 10
326.0740708319115
 20
435.39031116147885
 10
326.3990129217764
 20
435.12071440869784
 10
330.9814751489546
 20
437.2735939272345
 10
331.28518938223993
 20
437.05840651631877
 10
331.5912757899618
 20
436.84660692159616
 10
331.1355251806757
 20
431.8041728201938
 10
331.5
 20
431.5910346561913
 10
331.86682047420425
 20
431.381959285618
 10
336.0058211982846
 20
434.2978679417512
 10
336.34228823168655
 20
434.1386891342722
 10
336.68050311275687
 20
433.98325859821404
 10
337.107285872006
 20
428.9382901383267
 10
337.50323455362457
 20
428.7916804101355
 10
337.9007877576796
 20
428.6494790711074
 10
341.47056553609633
 20
432.23981845584143
 10
341.82956198906555
 20
432.14148481931625
 10
342.18962885546796
 20
432.0471460201089
 10
343.485977405075
 20
427.15293201551316
 10
343.90136924865664
 20
427.0773053855361
 10
344.3175757296289
 20
427.0062987937823
 10
347.2096646709795
 20
431.16197826171145
 10
347.58028261795346
 20
431.12747761392654
 10
347.951261020155
 20
431.0970969882464
 10
350.0777864654242
 20
426.50234565487995
 10
350.5
 20
426.5
 10
350.9222135345758
 20
426.50234565487995
 10
353.048738979845
 20
431.0970969882464
 10
353.41971738204654
 20
431.12747761392654
 10
353.7903353290205
 20
431.16197826171145
 10
356.6824242703711
 20
427.0062987937823
 10
357.09863075134336
 20
427.0773053855361
 10
357.51402259492494
 20
427.15293201551316
 10
358.810371144532
 20
432.0471460201089
 10
359.17043801093445
 20
432.1414848193162
 10
359.5294344639036
 20
432.23981845584143
 10
363.0992122423204
 20
428.6494790711074
 10
363.49676544637543
 20
428.7916804101355
 10
363.892714127994
 20
428.9382901383267
 10
364.31949688724313
 20
433.98325859821404
 10
364.65771176831345
 20
434.1386891342722
 10
364.9941788017154
 20
434.2978679417512
 10
369.13317952579575
 20
431.381959285618
 10
369.5
 20
431.5910346561913
 10
369.8644748193243
 20
431.8041728201938
 10
369.4087242100382
 20
436.8466069215961
 10
369.71481061776
 20
437.05840651631877
 10
370.0185248510454
 20
437.2735939272345
 10
374.6009870782236
 20
435.12071440869784
 10
374.9259291680885
 20
435.39031116147885
 10
375.2478557421665
 20
435.6635016660324
 10
373.9234195159874
 20
440.5501896003734
 10
374.18807716974936
 20
440.81192283025064
 10
374.4498103996266
 20
441.0765804840126
 10
379.3364983339676
 20
439.7521442578335
 10
379.60968883852115
 20
440.0740708319115
 10
379.87928559130216
 20
440.3990129217764
 10
377.7264060727655
 20
444.9814751489546
 10
377.94159348368123
 20
445.28518938223993
 10
378.15339307840384
 20
445.5912757899618
 10
383.1958271798062
 20
445.1355251806757
 10
383.40896534380863
 20
445.5
 10
383.618040714382
 20
445.86682047420425
 10
380.7021320582488
 20
450.0058211982846
 10
380.8613108657278
 20
450.34228823168655
 10
381.01674140178596
 20
450.68050311275687
 10
386.06170986167325
 20
451.10728587200595
 10
386.2083195898645
 20
451.50323455362457
 10
386.3505209288926
 20
451.9007877576796
 10
382.76018154415857
 20
455.47056553609633
 10
382.85851518068375
 20
455.8295619890655
 10
382.9528539798911
 20
456.18962885546796
 10
387.84706798448684
 20
457.48597740507506
 10
387.9226946144639
 20
457.90136924865664
 10
387.9937012062177
 20
458.3175757296289
 10
383.83802173828855
 20
461.2096646709795
 10
383.87252238607346
 20
461.58028261795346
 10
383.9029030117536
 20
461.951261020155
 10
388.49765434512005
 20
464.0777864654242
 10
388.5
 20
464.5
 10
388.49765434512005
 20
464.9222135345758
 10
383.9029030117536
 20
467.048738979845
 10
383.87252238607346
 20
467.41971738204654
 10
383.83802173828855
 20
467.7903353290204
 10
387.9937012062177
 20
470.68242427037103
 10
387.9226946144639
 20
471.0986307513433
 10
387.84706798448684
 20
471.51402259492494
 10
382.9528539798911
 20
472.810371144532
 10
382.8585151806838
 20
473.1704380109344
 10
382.76018154415857
 20
473.5294344639036
 10
386.3505209288926
 20
477.09921224232033
 10
386.2083195898645
 20
477.4967654463754
 10
386.0617098616733
 20
477.89271412799394
 10
381.01674140178596
 20
478.3194968872431
 10
380.8613108657278
 20
478.65771176831345
 10
380.7021320582489
 20
478.9941788017154
 10
383.618040714382
 20
483.13317952579575
 10
383.40896534380863
 20
483.5
 10
383.1958271798062
 20
483.8644748193243
 10
378.15339307840384
 20
483.4087242100382
 10
377.94159348368123
 20
483.71481061776
 10
377.7264060727655
 20
484.0185248510454
 10
379.87928559130216
 20
488.6009870782236
 10
379.60968883852115
 20
488.9259291680885
 10
379.3364983339676
 20
489.2478557421665
 10
374.4498103996266
 20
487.9234195159874
 10
374.18807716974936
 20
488.18807716974936
 10
373.9234195159874
 20
488.4498103996266
 10
375.2478557421665
 20
493.3364983339676
 10
374.9259291680885
 20
493.60968883852115
 10
374.6009870782236
 20
493.87928559130216
 10
370.0185248510454
 20
491.7264060727655
 10
369.71481061776007
 20
491.94159348368123
 10
369.4087242100382
 20
492.15339307840384
 10
369.8644748193243
 20
497.1958271798062
 10
369.5
 20
497.40896534380863
 10
369.13317952579575
 20
497.618040714382
 10
364.9941788017154
 20
494.7021320582488
 10
364.65771176831345
 20
494.8613108657278
 10
364.31949688724313
 20
495.01674140178596
 10
363.89271412799405
 20
500.06170986167325
 10
363.49676544637543
 20
500.2083195898645
 10
363.0992122423204
 20
500.3505209288926
 10
359.52943446390367
 20
496.76018154415857
 10
359.1704380109345
 20
496.85851518068375
 10
358.81037114453204
 20
496.9528539798911
 10
357.51402259492494
 20
501.84706798448684
 10
357.09863075134336
 20
501.9226946144639
 10
356.6824242703711
 20
501.9937012062177
 10
353.7903353290205
 20
497.83802173828855
 10
353.41971738204654
 20
497.87252238607346
 10
353.048738979845
 20
497.9029030117536
  0
CIRCLE
  5
BA
330
17
100
AcDbEntity
  8
CUTS
100
AcDbCircle
 10
350.5
 20
464.5
 30
0.0
 40
1.6
  0
TEXT
  5
BB
330
17
100
AcDbEntity
  8
ENGRAVE
100
AcDbText
 10
352.5
 20
458.5
 30
0.0
 40
2.0
  1
M4 LG
 11
352.5
 21
458.5
 31
0.0
100
AcDbText
  0
CIRCLE
  5
BC
330
17
100
AcDbEntity
  8
CUTS
100
AcDbCircle
 10
350.5
 20
530.5
 30
0.0
 40
20.0
  0
CIRCLE
  5
BD
330
17
100
AcDbEntity
  8
CUTS
100
AcDbCircle
 10
350.5
 20
530.5
 30
0.0
 40
1.6
  0
CIRCLE
  5
BE
330
17
100
AcDbEntity
  8
CUTS
100
AcDbCircle
 10
350.5
 20
545.5
 30
0.0
 40
1.5
  0
TEXT
  5
BF
330
17
100
AcDbEntity
  8
ENGRAVE
100
AcDbText
 10
352.5
 20
520.5
 30
0.0
 40
3.0
  1
M4 DRUM
 11
352.5
 21
520.5
 31
0.0
100
AcDbText
  0
ENDSEC
  0
SECTION
  2
OBJECTS
  0
DICTIONARY
  5
A
330
0
100
AcDbDictionary
281
1
  3
ACAD_COLOR
350
B
  3
ACAD_GROUP
350
C
  3
ACAD_LAYOUT
350
D
  3
ACAD_MATERIAL
350
E
  3
ACAD_MLEADERSTYLE
350
F
  3
ACAD_MLINESTYLE
350
10
  3
ACAD_PLOTSETTINGS
350
11
  3
ACAD_PLOTSTYLENAME
350
12
  3
ACAD_SCALELIST
350
14
  3
ACAD_TABLESTYLE
350
15
  3
ACAD_VISUALSTYLE
350
16
  3
EZDXF_META
350
2D
  0
DICTIONARY
  5
B
330
A
100
AcDbDictionary
281
1
  0
DICTIONARY
  5
C
330
A
100
AcDbDictionary
281
1
  0
DICTIONARY
  5
D
330
A
100
AcDbDictionary
281
1
  3
Model
350
1A
  3
Layout1
350
1E
  0
DICTIONARY
  5
E
330
A
100
AcDbDictionary
281
1
  3
ByBlock
350
1F
  3
ByLayer
350
20
  3
Global
350
21
  0
DICTIONARY
  5
F
330
A
100
AcDbDictionary
281
1
  3
Standard
350
2C
  0
DICTIONARY
  5
10
330
A
100
AcDbDictionary
281
1
  3
Standard
350
22
  0
DICTIONARY
  5
11
330
A
100
AcDbDictionary
281
1
  0
ACDBDICTIONARYWDFLT
  5
12
330
A
100
AcDbDictionary
281
1
  3
Normal
350
13
100
AcDbDictionaryWithDefault
340
13
  0
ACDBPLACEHOLDER
  5
13
330
12
  0
DICTIONARY
  5
14
330
A
100
AcDbDictionary
281
1
  0
DICTIONARY
  5
15
330
A
100
AcDbDictionary
281
1
  0
DICTIONARY
  5
16
330
A
100
AcDbDictionary
281
1
  0
LAYOUT
  5
1A
330
D
100
AcDbPlotSettings
  1

  4
A3
  6

 40
7.5
 41
20.0
 42
7.5
 43
20.0
 44
420.0
 45
297.0
 46
0.0
 47
0.0
 48
0.0
 49
0.0
140
0.0
141
0.0
142
1.0
143
1.0
 70
1024
 72
1
 73
0
 74
5
  7

 75
16
 76
0
 77
2
 78
300
147
1.0
148
0.0
149
0.0
100
AcDbLayout
  1
Model
 70
1
 71
0
 10
0.0
 20
0.0
 11
420.0
 21
297.0
 12
0.0
 22
0.0
 32
0.0
 14
1e+20
 24
1e+20
 34
1e+20
 15
-1e+20
 25
-1e+20
 35
-1e+20
146
0.0
 13
0.0
 23
0.0
 33
0.0
 16
1.0
 26
0.0
 36
0.0
 17
0.0
 27
1.0
 37
0.0
 76
1
330
17
  0
LAYOUT
  5
1E
330
D
100
AcDbPlotSettings
  1

  4
A3
  6

 40
7.5
 41
20.0
 42
7.5
 43
20.0
 44
420.0
 45
297.0
 46
0.0
 47
0.0
 48
0.0
 49
0.0
140
0.0
141
0.0
142
1.0
143
1.0
 70
0
 72
1
 73
0
 74
5
  7

 75
16
 76
0
 77
2
 78
300
147
1.0
148
0.0
149
0.0
100
AcDbLayout
  1
Layout1
 70
1
 71
1
 10
0.0
 20
0.0
 11
420.0
 21
297.0
 12
0.0
 22
0.0
 32
0.0
 14
1e+20
 24
1e+20
 34
1e+20
 15
-1e+20
 25
-1e+20
 35
-1e+20
146
0.0
 13
0.0
 23
0.0
 33
0.0
 16
1.0
 26
0.0
 36
0.0
 17
0.0
 27
1.0
 37
0.0
 76
1
330
1B
  0
MATERIAL
  5
1F
102
{ACAD_REACTORS
330
E
102
}
330
E
100
AcDbMaterial
  1
ByBlock
  2

 70
0
 40
1.0
 71
1
 41
1.0
 91
-1023410177
 42
1.0
 72
1
  3

 73
1
 74
1
 75
1
 44
0.5
 73
0
 45
1.0
 46
1.0
 77
1
  4

 78
1
 79
1
170
1
 48
1.0
171
1
  6

172
1
173
1
174
1
140
1.0
141
1.0
175
1
  7

176
1
177
1
178
1
143
1.0
179
1
  8

270
1
271
1
272
1
145
1.0
146
1.0
273
1
  9

274
1
275
1
276
1
 42
1.0
 72
1
  3

 73
1
 74
1
 75
1
 94
63
  0
MATERIAL
  5
20
102
{ACAD_REACTORS
330
E
102
}
330
E
100
AcDbMaterial
  1
ByLayer
  2

 70
0
 40
1.0
 71
1
 41
1.0
 91
-1023410177
 42
1.0
 72
1
  3

 73
1
 74
1
 75
1
 44
0.5
 73
0
 45
1.0
 46
1.0
 77
1
  4

 78
1
 79
1
170
1
 48
1.0
171
1
  6

172
1
173
1
174
1
140
1.0
141
1.0
175
1
  7

176
1
177
1
178
1
143
1.0
179
1
  8

270
1
271
1
272
1
145
1.0
146
1.0
273
1
  9

274
1
275
1
276
1
 42
1.0
 72
1
  3

 73
1
 74
1
 75
1
 94
63
  0
MATERIAL
  5
21
102
{ACAD_REACTORS
330
E
102
}
330
E
100
AcDbMaterial
  1
Global
  2

 70
0
 40
1.0
 71
1
 41
1.0
 91
-1023410177
 42
1.0
 72
1
  3

 73
1
 74
1
 75
1
 44
0.5
 73
0
 45
1.0
 46
1.0
 77
1
  4

 78
1
 79
1
170
1
 48
1.0
171
1
  6

172
1
173
1
174
1
140
1.0
141
1.0
175
1
  7

176
1
177
1
178
1
143
1.0
179
1
  8

270
1
271
1
272
1
145
1.0
146
1.0
273
1
  9

274
1
275
1
276
1
 42
1.0
 72
1
  3

 73
1
 74
1
 75
1
 94
63
  0
MLINESTYLE
  5
22
102
{ACAD_REACTORS
330
10
102
}
330
10
100
AcDbMlineStyle
  2
Standard
 70
0
  3

 62
256
 51
90.0
 52
90.0
 71
2
 49
0.5
 62
256
  6
BYLAYER
 49
-0.5
 62
256
  6
BYLAYER
  0
MLEADERSTYLE
  5
2C
102
{ACAD_REACTORS
330
F
102
}
330
F
100
AcDbMLeaderStyle
179
2
170
2
171
1
172
0
 90
2
 40
0.0
 41
0.0
173
1
 91
-1056964608
 92
-2
290
1
 42
2.0
291
1
 43
8.0
  3
Standard
 44
4.0
300

342
29
174
1
175
1
176
0
178
1
 93
-1056964608
 45
4.0
292
0
297
0
 46
4.0
 94
-1056964608
 47
1.0
 49
1.0
140
1.0
294
1
141
0.0
177
0
142
1.0
295
0
296
0
143
3.75
271
0
272
9
273
9
  0
DICTIONARY
  5
2D
330
A
100
AcDbDictionary
280
1
281
1
  3
CREATED_BY_EZDXF
350
2E
  3
WRITTEN_BY_EZDXF
350
C2
  0
DICTIONARYVAR
  5
2E
330
2D
100
DictionaryVariables
280
0
  1
1.4.3 @ 2026-03-19T21:51:20.594957+00:00
  0
DICTIONARYVAR
  5
C2
330
2D
100
DictionaryVariables
280
0
  1
1.4.3 @ 2026-03-19T21:51:20.600289+00:00
  0
ENDSEC
  0
EOF
