  0
SECTION
  2
HEADER
  9
$ACADVER
  1
AC1024
  9
$ACADMAINTVER
 70
6
  9
$DWGCODEPAGE
  3
ANSI_1252
  9
$LASTSAVEDBY
  1
ezdxf
  9
$INSBASE
 10
0.0
 20
0.0
 30
0.0
  9
$EXTMIN
 10
1e+20
 20
1e+20
 30
1e+20
  9
$EXTMAX
 10
-1e+20
 20
-1e+20
 30
-1e+20
  9
$LIMMIN
 10
0.0
 20
0.0
  9
$LIMMAX
 10
420.0
 20
297.0
  9
$ORTHOMODE
 70
0
  9
$REGENMODE
 70
1
  9
$FILLMODE
 70
1
  9
$QTEXTMODE
 70
0
  9
$MIRRTEXT
 70
1
  9
$LTSCALE
 40
1.0
  9
$ATTMODE
 70
1
  9
$TEXTSIZE
 40
2.5
  9
$TRACEWID
 40
1.0
  9
$TEXTSTYLE
  7
Standard
  9
$CLAYER
  8
0
  9
$CELTYPE
  6
ByLayer
  9
$CECOLOR
 62
256
  9
$CELTSCALE
 40
1.0
  9
$DISPSILH
 70
0
  9
$DIMSCALE
 40
1.0
  9
$DIMASZ
 40
2.5
  9
$DIMEXO
 40
0.625
  9
$DIMDLI
 40
3.75
  9
$DIMRND
 40
0.0
  9
$DIMDLE
 40
0.0
  9
$DIMEXE
 40
1.25
  9
$DIMTP
 40
0.0
  9
$DIMTM
 40
0.0
  9
$DIMTXT
 40
2.5
  9
$DIMCEN
 40
2.5
  9
$DIMTSZ
 40
0.0
  9
$DIMTOL
 70
0
  9
$DIMLIM
 70
0
  9
$DIMTIH
 70
0
  9
$DIMTOH
 70
0
  9
$DIMSE1
 70
0
  9
$DIMSE2
 70
0
  9
$DIMTAD
 70
1
  9
$DIMZIN
 70
8
  9
$DIMBLK
  1

  9
$DIMASO
 70
1
  9
$DIMSHO
 70
1
  9
$DIMPOST
  1

  9
$DIMAPOST
  1

  9
$DIMALT
 70
0
  9
$DIMALTD
 70
3
  9
$DIMALTF
 40
0.03937007874
  9
$DIMLFAC
 40
1.0
  9
$DIMTOFL
 70
1
  9
$DIMTVP
 40
0.0
  9
$DIMTIX
 70
0
  9
$DIMSOXD
 70
0
  9
$DIMSAH
 70
0
  9
$DIMBLK1
  1

  9
$DIMBLK2
  1

  9
$DIMSTYLE
  2
ISO-25
  9
$DIMCLRD
 70
0
  9
$DIMCLRE
 70
0
  9
$DIMCLRT
 70
0
  9
$DIMTFAC
 40
1.0
  9
$DIMGAP
 40
0.625
  9
$DIMJUST
 70
0
  9
$DIMSD1
 70
0
  9
$DIMSD2
 70
0
  9
$DIMTOLJ
 70
0
  9
$DIMTZIN
 70
8
  9
$DIMALTZ
 70
0
  9
$DIMALTTZ
 70
0
  9
$DIMUPT
 70
0
  9
$DIMDEC
 70
2
  9
$DIMTDEC
 70
2
  9
$DIMALTU
 70
2
  9
$DIMALTTD
 70
3
  9
$DIMTXSTY
  7
Standard
  9
$DIMAUNIT
 70
0
  9
$DIMADEC
 70
0
  9
$DIMALTRND
 40
0.0
  9
$DIMAZIN
 70
0
  9
$DIMDSEP
 70
44
  9
$DIMATFIT
 70
3
  9
$DIMFRAC
 70
0
  9
$DIMLDRBLK
  1

  9
$DIMLUNIT
 70
2
  9
$DIMLWD
 70
-2
  9
$DIMLWE
 70
-2
  9
$DIMTMOVE
 70
0
  9
$DIMFXL
 40
1.0
  9
$DIMFXLON
 70
0
  9
$DIMJOGANG
 40
0.785398163397
  9
$DIMTFILL
 70
0
  9
$DIMTFILLCLR
 70
0
  9
$DIMARCSYM
 70
0
  9
$DIMLTYPE
  6

  9
$DIMLTEX1
  6

  9
$DIMLTEX2
  6

  9
$DIMTXTDIRECTION
 70
0
  9
$LUNITS
 70
2
  9
$LUPREC
 70
4
  9
$SKETCHINC
 40
1.0
  9
$FILLETRAD
 40
10.0
  9
$AUNITS
 70
0
  9
$AUPREC
 70
2
  9
$MENU
  1
.
  9
$ELEVATION
 40
0.0
  9
$PELEVATION
 40
0.0
  9
$THICKNESS
 40
0.0
  9
$LIMCHECK
 70
0
  9
$CHAMFERA
 40
0.0
  9
$CHAMFERB
 40
0.0
  9
$CHAMFERC
 40
0.0
  9
$CHAMFERD
 40
0.0
  9
$SKPOLY
 70
0
  9
$TDCREATE
 40
2461119.632476852
  9
$TDUCREATE
 40
2458532.153996898
  9
$TDUPDATE
 40
2461119.632476852
  9
$TDUUPDATE
 40
2458532.1544311
  9
$TDINDWG
 40
0.0
  9
$TDUSRTIMER
 40
0.0
  9
$USRTIMER
 70
1
  9
$ANGBASE
 50
0.0
  9
$ANGDIR
 70
0
  9
$PDMODE
 70
0
  9
$PDSIZE
 40
0.0
  9
$PLINEWID
 40
0.0
  9
$SPLFRAME
 70
0
  9
$SPLINETYPE
 70
6
  9
$SPLINESEGS
 70
8
  9
$HANDSEED
  5
49
  9
$SURFTAB1
 70
6
  9
$SURFTAB2
 70
6
  9
$SURFTYPE
 70
6
  9
$SURFU
 70
6
  9
$SURFV
 70
6
  9
$UCSBASE
  2

  9
$UCSNAME
  2

  9
$UCSORG
 10
0.0
 20
0.0
 30
0.0
  9
$UCSXDIR
 10
1.0
 20
0.0
 30
0.0
  9
$UCSYDIR
 10
0.0
 20
1.0
 30
0.0
  9
$UCSORTHOREF
  2

  9
$UCSORTHOVIEW
 70
0
  9
$UCSORGTOP
 10
0.0
 20
0.0
 30
0.0
  9
$UCSORGBOTTOM
 10
0.0
 20
0.0
 30
0.0
  9
$UCSORGLEFT
 10
0.0
 20
0.0
 30
0.0
  9
$UCSORGRIGHT
 10
0.0
 20
0.0
 30
0.0
  9
$UCSORGFRONT
 10
0.0
 20
0.0
 30
0.0
  9
$UCSORGBACK
 10
0.0
 20
0.0
 30
0.0
  9
$PUCSBASE
  2

  9
$PUCSNAME
  2

  9
$PUCSORG
 10
0.0
 20
0.0
 30
0.0
  9
$PUCSXDIR
 10
1.0
 20
0.0
 30
0.0
  9
$PUCSYDIR
 10
0.0
 20
1.0
 30
0.0
  9
$PUCSORTHOREF
  2

  9
$PUCSORTHOVIEW
 70
0
  9
$PUCSORGTOP
 10
0.0
 20
0.0
 30
0.0
  9
$PUCSORGBOTTOM
 10
0.0
 20
0.0
 30
0.0
  9
$PUCSORGLEFT
 10
0.0
 20
0.0
 30
0.0
  9
$PUCSORGRIGHT
 10
0.0
 20
0.0
 30
0.0
  9
$PUCSORGFRONT
 10
0.0
 20
0.0
 30
0.0
  9
$PUCSORGBACK
 10
0.0
 20
0.0
 30
0.0
  9
$USERI1
 70
0
  9
$USERI2
 70
0
  9
$USERI3
 70
0
  9
$USERI4
 70
0
  9
$USERI5
 70
0
  9
$USERR1
 40
0.0
  9
$USERR2
 40
0.0
  9
$USERR3
 40
0.0
  9
$USERR4
 40
0.0
  9
$USERR5
 40
0.0
  9
$WORLDVIEW
 70
1
  9
$SHADEDGE
 70
3
  9
$SHADEDIF
 70
70
  9
$TILEMODE
 70
1
  9
$MAXACTVP
 70
64
  9
$PINSBASE
 10
0.0
 20
0.0
 30
0.0
  9
$PLIMCHECK
 70
0
  9
$PEXTMIN
 10
1e+20
 20
1e+20
 30
1e+20
  9
$PEXTMAX
 10
-1e+20
 20
-1e+20
 30
-1e+20
  9
$PLIMMIN
 10
0.0
 20
0.0
  9
$PLIMMAX
 10
420.0
 20
297.0
  9
$UNITMODE
 70
0
  9
$VISRETAIN
 70
1
  9
$PLINEGEN
 70
0
  9
$PSLTSCALE
 70
1
  9
$TREEDEPTH
 70
3020
  9
$CMLSTYLE
  2
Standard
  9
$CMLJUST
 70
0
  9
$CMLSCALE
 40
20.0
  9
$PROXYGRAPHICS
 70
1
  9
$MEASUREMENT
 70
1
  9
$CELWEIGHT
370
-1
  9
$ENDCAPS
280
0
  9
$JOINSTYLE
280
0
  9
$LWDISPLAY
290
0
  9
$INSUNITS
 70
6
  9
$HYPERLINKBASE
  1

  9
$STYLESHEET
  1

  9
$XEDIT
290
1
  9
$CEPSNTYPE
380
0
  9
$PSTYLEMODE
290
1
  9
$FINGERPRINTGUID
  2
{4F11D596-2CC0-4981-A727-AD182322EAC9}
  9
$VERSIONGUID
  2
{099686A7-036C-4FD2-98E4-B0D864564529}
  9
$EXTNAMES
290
1
  9
$PSVPSCALE
 40
0.0
  9
$OLESTARTUP
290
0
  9
$SORTENTS
280
127
  9
$INDEXCTL
280
0
  9
$HIDETEXT
280
1
  9
$XCLIPFRAME
280
1
  9
$HALOGAP
280
0
  9
$OBSCOLOR
 70
257
  9
$OBSLTYPE
280
0
  9
$INTERSECTIONDISPLAY
280
0
  9
$INTERSECTIONCOLOR
 70
257
  9
$DIMASSOC
280
2
  9
$PROJECTNAME
  1

  9
$CAMERADISPLAY
290
0
  9
$LENSLENGTH
 40
50.0
  9
$CAMERAHEIGHT
 40
0.0
  9
$STEPSPERSEC
 40
24.0
  9
$STEPSIZE
 40
100.0
  9
$3DDWFPREC
 40
2.0
  9
$PSOLWIDTH
 40
0.005
  9
$PSOLHEIGHT
 40
0.08
  9
$LOFTANG1
 40
1.570796326795
  9
$LOFTANG2
 40
1.570796326795
  9
$LOFTMAG1
 40
0.0
  9
$LOFTMAG2
 40
0.0
  9
$LOFTPARAM
 70
7
  9
$LOFTNORMALS
280
1
  9
$LATITUDE
 40
37.795
  9
$LONGITUDE
 40
-122.394
  9
$NORTHDIRECTION
 40
0.0
  9
$TIMEZONE
 70
-8000
  9
$LIGHTGLYPHDISPLAY
280
1
  9
$TILEMODELIGHTSYNCH
280
1
  9
$CMATERIAL
347
20
  9
$SOLIDHIST
280
0
  9
$SHOWHIST
280
1
  9
$DWFFRAME
280
2
  9
$DGNFRAME
280
2
  9
$REALWORLDSCALE
290
1
  9
$INTERFERECOLOR
 62
256
  9
$CSHADOW
280
0
  9
$SHADOWPLANELOCATION
 40
0.0
  0
ENDSEC
  0
SECTION
  2
CLASSES
  0
CLASS
  1
ACDBDICTIONARYWDFLT
  2
AcDbDictionaryWithDefault
  3
ObjectDBX Classes
 90
0
 91
0
280
0
281
0
  0
CLASS
  1
SUN
  2
AcDbSun
  3
SCENEOE
 90
1153
 91
0
280
0
281
0
  0
CLASS
  1
VISUALSTYLE
  2
AcDbVisualStyle
  3
ObjectDBX Classes
 90
4095
 91
0
280
0
281
0
  0
CLASS
  1
MATERIAL
  2
AcDbMaterial
  3
ObjectDBX Classes
 90
1153
 91
0
280
0
281
0
  0
CLASS
  1
SCALE
  2
AcDbScale
  3
ObjectDBX Classes
 90
1153
 91
0
280
0
281
0
  0
CLASS
  1
TABLESTYLE
  2
AcDbTableStyle
  3
ObjectDBX Classes
 90
4095
 91
0
280
0
281
0
  0
CLASS
  1
MLEADERSTYLE
  2
AcDbMLeaderStyle
  3
ACDB_MLEADERSTYLE_CLASS
 90
4095
 91
0
280
0
281
0
  0
CLASS
  1
DICTIONARYVAR
  2
AcDbDictionaryVar
  3
ObjectDBX Classes
 90
0
 91
0
280
0
281
0
  0
CLASS
  1
CELLSTYLEMAP
  2
AcDbCellStyleMap
  3
ObjectDBX Classes
 90
1152
 91
0
280
0
281
0
  0
CLASS
  1
MENTALRAYRENDERSETTINGS
  2
AcDbMentalRayRenderSettings
  3
SCENEOE
 90
1024
 91
0
280
0
281
0
  0
CLASS
  1
ACDBDETAILVIEWSTYLE
  2
AcDbDetailViewStyle
  3
ObjectDBX Classes
 90
1025
 91
0
280
0
281
0
  0
CLASS
  1
ACDBSECTIONVIEWSTYLE
  2
AcDbSectionViewStyle
  3
ObjectDBX Classes
 90
1025
 91
0
280
0
281
0
  0
CLASS
  1
RASTERVARIABLES
  2
AcDbRasterVariables
  3
ISM
 90
0
 91
0
280
0
281
0
  0
CLASS
  1
ACDBPLACEHOLDER
  2
AcDbPlaceHolder
  3
ObjectDBX Classes
 90
0
 91
0
280
0
281
0
  0
CLASS
  1
LAYOUT
  2
AcDbLayout
  3
ObjectDBX Classes
 90
0
 91
0
280
0
281
0
  0
ENDSEC
  0
SECTION
  2
TABLES
  0
TABLE
  2
VPORT
  5
8
330
0
100
AcDbSymbolTable
 70
1
  0
VPORT
  5
23
330
8
100
AcDbSymbolTableRecord
100
AcDbViewportTableRecord
  2
*Active
 70
0
 10
0.0
 20
0.0
 11
1.0
 21
1.0
 12
0.0
 22
0.0
 13
0.0
 23
0.0
 14
0.5
 24
0.5
 15
0.5
 25
0.5
 16
0.0
 26
0.0
 36
1.0
 17
0.0
 27
0.0
 37
0.0
 40
1000.0
 41
1.34
 42
50.0
 43
0.0
 44
0.0
 50
0.0
 51
0.0
 71
0
 72
1000
 73
1
 74
3
 75
0
 76
0
 77
0
 78
0
281
0
 65
0
146
0.0
  0
ENDTAB
  0
TABLE
  2
LTYPE
  5
2
330
0
100
AcDbSymbolTable
 70
5
  0
LTYPE
  5
24
330
2
100
AcDbSymbolTableRecord
100
AcDbLinetypeTableRecord
  2
ByBlock
 70
0
  3

 72
65
 73
0
 40
0.0
  0
LTYPE
  5
25
330
2
100
AcDbSymbolTableRecord
100
AcDbLinetypeTableRecord
  2
ByLayer
 70
0
  3

 72
65
 73
0
 40
0.0
  0
LTYPE
  5
26
330
2
100
AcDbSymbolTableRecord
100
AcDbLinetypeTableRecord
  2
Continuous
 70
0
  3

 72
65
 73
0
 40
0.0
  0
LTYPE
  5
2F
330
2
100
AcDbSymbolTableRecord
100
AcDbLinetypeTableRecord
  2
DASHED
 70
0
  3

 72
65
 73
2
 40
0.6
 49
0.5
 74
0
 49
-0.1
 74
0
  0
LTYPE
  5
30
330
2
100
AcDbSymbolTableRecord
100
AcDbLinetypeTableRecord
  2
DASHDOT
 70
0
  3

 72
65
 73
4
 40
1.0
 49
0.5
 74
0
 49
-0.1
 74
0
 49
0.0
 74
0
 49
-0.1
 74
0
  0
ENDTAB
  0
TABLE
  2
LAYER
  5
1
330
0
100
AcDbSymbolTable
 70
2
  0
LAYER
  5
27
330
1
100
AcDbSymbolTableRecord
100
AcDbLayerTableRecord
  2
0
 70
0
 62
7
  6
Continuous
370
-3
390
13
347
21
  0
LAYER
  5
28
330
1
100
AcDbSymbolTableRecord
100
AcDbLayerTableRecord
  2
Defpoints
 70
0
 62
7
  6
Continuous
290
0
370
-3
390
13
347
21
  0
ENDTAB
  0
TABLE
  2
STYLE
  5
5
330
0
100
AcDbSymbolTable
 70
1
  0
STYLE
  5
29
330
5
100
AcDbSymbolTableRecord
100
AcDbTextStyleTableRecord
  2
Standard
 70
0
 40
0.0
 41
1.0
 50
0.0
 71
0
 42
2.5
  3
txt
  4

  0
ENDTAB
  0
TABLE
  2
VIEW
  5
7
330
0
100
AcDbSymbolTable
 70
0
  0
ENDTAB
  0
TABLE
  2
UCS
  5
6
330
0
100
AcDbSymbolTable
 70
0
  0
ENDTAB
  0
TABLE
  2
APPID
  5
3
330
0
100
AcDbSymbolTable
 70
3
  0
APPID
  5
2A
330
3
100
AcDbSymbolTableRecord
100
AcDbRegAppTableRecord
  2
ACAD
 70
0
  0
APPID
  5
46
330
3
100
AcDbSymbolTableRecord
100
AcDbRegAppTableRecord
  2
HATCHBACKGROUNDCOLOR
 70
0
  0
APPID
  5
47
330
3
100
AcDbSymbolTableRecord
100
AcDbRegAppTableRecord
  2
EZDXF
 70
0
  0
ENDTAB
  0
TABLE
  2
DIMSTYLE
  5
4
330
0
100
AcDbSymbolTable
 70
1
100
AcDbDimStyleTable
  0
DIMSTYLE
105
2B
330
4
100
AcDbSymbolTableRecord
100
AcDbDimStyleTableRecord
  2
Standard
 70
0
 40
1.0
 41
2.5
 42
0.625
 43
3.75
 44
1.25
 45
0.0
 46
0.0
 47
0.0
 48
0.0
 49
2.5
140
2.5
141
2.5
142
0.0
143
0.03937007874
144
1.0
145
0.0
146
1.0
147
0.625
148
0.0
 69
0
 70
0
 71
0
 72
0
 73
0
 74
0
 75
0
 76
0
 77
1
 78
8
 79
3
170
0
171
3
172
1
173
0
174
0
175
0
176
0
177
0
178
0
179
2
271
2
272
2
273
2
274
3
275
0
276
0
277
2
278
44
279
0
280
0
281
0
282
0
283
0
284
8
285
0
286
0
288
0
289
3
290
0
371
-2
372
-2
  0
ENDTAB
  0
TABLE
  2
BLOCK_RECORD
  5
9
330
0
100
AcDbSymbolTable
 70
2
  0
BLOCK_RECORD
  5
17
330
9
100
AcDbSymbolTableRecord
100
AcDbBlockTableRecord
  2
*Model_Space
340
1A
 70
0
280
1
281
0
  0
BLOCK_RECORD
  5
1B
330
9
100
AcDbSymbolTableRecord
100
AcDbBlockTableRecord
  2
*Paper_Space
340
1E
 70
0
280
1
281
0
  0
ENDTAB
  0
ENDSEC
  0
SECTION
  2
BLOCKS
  0
BLOCK
  5
18
330
17
100
AcDbEntity
  8
0
100
AcDbBlockBegin
  2
*Model_Space
 70
0
 10
0.0
 20
0.0
 30
0.0
  3
*Model_Space
  1

  0
ENDBLK
  5
19
330
17
100
AcDbEntity
  8
0
100
AcDbBlockEnd
  0
BLOCK
  5
1C
330
1B
100
AcDbEntity
  8
0
100
AcDbBlockBegin
  2
*Paper_Space
 70
0
 10
0.0
 20
0.0
 30
0.0
  3
*Paper_Space
  1

  0
ENDBLK
  5
1D
330
1B
100
AcDbEntity
  8
0
100
AcDbBlockEnd
  0
ENDSEC
  0
SECTION
  2
ENTITIES
  0
LWPOLYLINE
  5
31
330
17
100
AcDbEntity
  8
0
  6
DASHED
 62
9
100
AcDbPolyline
 90
5
 70
0
 10
0.0
 20
0.0
 10
400.0
 20
0.0
 10
400.0
 20
600.0
 10
0.0
 20
600.0
 10
0.0
 20
0.0
  0
LWPOLYLINE
  5
32
330
17
100
AcDbEntity
  8
0
  6
DASHDOT
 62
9
100
AcDbPolyline
 90
5
 70
0
 10
5.0
 20
5.0
 10
395.0
 20
5.0
 10
395.0
 20
595.0
 10
5.0
 20
595.0
 10
5.0
 20
5.0
  0
LWPOLYLINE
  5
33
330
17
100
AcDbEntity
  8
0
 62
4
100
AcDbPolyline
 90
5
 70
0
 10
5.0
 20
5.0
 10
165.0
 20
5.0
 10
165.0
 20
105.0
 10
5.0
 20
105.0
 10
5.0
 20
5.0
  0
TEXT
  5
34
330
17
100
AcDbEntity
  8
0
 62
7
100
AcDbText
 10
85.0
 20
55.0
 30
0.0
 40
8.0
  1
Base
 72
1
 11
85.0
 21
55.0
 31
0.0
100
AcDbText
 73
2
  0
LWPOLYLINE
  5
35
330
17
100
AcDbEntity
  8
0
 62
4
100
AcDbPolyline
 90
121
 70
0
 10
239.35019611838587
 20
40.550914688051996
 10
243.97447896358892
 20
41.60753906915086
 10
243.97447896358892
 20
44.39246093084914
 10
239.35019611838587
 20
45.449085311948004
 10
239.13060778536507
 20
47.538328742203134
 10
243.4341543938814
 20
49.53330581061756
 10
242.85513658082039
 20
52.25737044786885
 10
238.112220849037
 20
52.32946258595182
 10
237.4630529138293
 20
54.327396053002545
 10
241.25777764815896
 20
57.17353573788074
 10
240.1250478789034
 20
59.717688454524776
 10
235.47078743705333
 20
58.80209757722116
 10
234.42041165348073
 20
60.621401801408894
 10
237.54046683362395
 20
64.19431414122823
 10
235.9035308345308
 20
66.44736325534845
 10
231.54133919754244
 20
64.5841050774889
 10
230.13566202760924
 20
66.1452677342264
 10
232.44468627050796
 20
70.28879931500117
 10
230.375085999628
 20
72.15227576898138
 10
226.49561187415554
 20
69.42278361384308
 10
224.79606815537525
 20
70.65757440374134
 10
226.19314602168714
 20
75.1906330125212
 10
223.78133294190178
 20
76.58309394337036
 10
220.55412796301064
 20
73.10665971568935
 10
218.63499591120953
 20
73.96111235604621
 10
219.05906839425342
 20
78.68558157959895
 10
216.41045031031243
 20
79.54616976287002
 10
213.97655882142774
 20
75.47473032017822
 10
211.92171371628686
 20
75.91150113049144
 10
211.35424681362815
 20
80.62089899322919
 10
208.58458104527944
 20
80.912002595753
 10
207.05037578357263
 20
76.42349937863005
 10
204.9496242164274
 20
76.42349937863005
 10
203.41541895472056
 20
80.912002595753
 10
200.64575318637188
 20
80.62089899322919
 10
200.07828628371314
 20
75.91150113049144
 10
198.02344117857226
 20
75.47473032017822
 10
195.58954968968757
 20
79.54616976287002
 10
192.94093160574658
 20
78.68558157959896
 10
193.36500408879047
 20
73.96111235604623
 10
191.44587203698939
 20
73.10665971568935
 10
188.21866705809822
 20
76.58309394337036
 10
185.80685397831286
 20
75.19063301252122
 10
187.20393184462478
 20
70.65757440374135
 10
185.50438812584449
 20
69.4227836138431
 10
181.624914000372
 20
72.15227576898138
 10
179.55531372949207
 20
70.28879931500119
 10
181.86433797239079
 20
66.14526773422641
 10
180.45866080245756
 20
64.5841050774889
 10
176.0964691654692
 20
66.44736325534845
 10
174.45953316637605
 20
64.19431414122823
 10
177.57958834651927
 20
60.6214018014089
 10
176.52921256294667
 20
58.80209757722117
 10
171.8749521210966
 20
59.71768845452478
 10
170.74222235184104
 20
57.173535737880755
 10
174.5369470861707
 20
54.32739605300256
 10
173.887779150963
 20
52.32946258595184
 10
169.14486341917961
 20
52.257370447868865
 10
168.5658456061186
 20
49.53330581061758
 10
172.86939221463493
 20
47.538328742203156
 10
172.64980388161413
 20
45.449085311948004
 10
168.02552103641108
 20
44.39246093084914
 10
168.02552103641108
 20
41.60753906915087
 10
172.64980388161413
 20
40.550914688052
 10
172.86939221463493
 20
38.461671257796866
 10
168.5658456061186
 20
36.466694189382444
 10
169.14486341917961
 20
33.742629552131156
 10
173.887779150963
 20
33.670537414048184
 10
174.5369470861707
 20
31.672603946997466
 10
170.74222235184104
 20
28.826464262119273
 10
171.8749521210966
 20
26.282311545475242
 10
176.52921256294667
 20
27.197902422778853
 10
177.57958834651927
 20
25.378598198591103
 10
174.45953316637605
 20
21.805685858771778
 10
176.0964691654692
 20
19.552636744651554
 10
180.45866080245756
 20
21.4158949225111
 10
181.86433797239076
 20
19.854732265773603
 10
179.55531372949204
 20
15.711200684998833
 10
181.624914000372
 20
13.847724231018624
 10
185.50438812584446
 20
16.577216386156913
 10
187.20393184462475
 20
15.34242559625866
 10
185.80685397831283
 20
10.809366987478803
 10
188.21866705809822
 20
9.41690605662965
 10
191.44587203698936
 20
12.893340284310657
 10
193.36500408879047
 20
12.038887643953778
 10
192.94093160574658
 20
7.314418420401061
 10
195.58954968968757
 20
6.453830237129964
 10
198.02344117857226
 20
10.525269679821776
 10
200.0782862837131
 20
10.088498869508555
 10
200.64575318637182
 20
5.379101006770817
 10
203.41541895472056
 20
5.087997404246998
 10
204.94962421642737
 20
9.576500621369938
 10
207.0503757835726
 20
9.576500621369938
 10
208.5845810452794
 20
5.087997404246998
 10
211.35424681362815
 20
5.37910100677081
 10
211.92171371628683
 20
10.088498869508548
 10
213.97655882142774
 20
10.525269679821768
 10
216.4104503103124
 20
6.453830237129964
 10
219.05906839425342
 20
7.314418420401054
 10
218.63499591120953
 20
12.038887643953775
 10
220.55412796301061
 20
12.89334028431064
 10
223.78133294190175
 20
9.416906056629628
 10
226.19314602168714
 20
10.809366987478782
 10
224.79606815537522
 20
15.342425596258636
 10
226.49561187415551
 20
16.577216386156906
 10
230.37508599962797
 20
13.847724231018596
 10
232.44468627050793
 20
15.711200684998822
 10
230.13566202760921
 20
19.854732265773585
 10
231.54133919754244
 20
21.415894922511093
 10
235.9035308345308
 20
19.552636744651533
 10
237.54046683362395
 20
21.80568585877178
 10
234.42041165348073
 20
25.378598198591096
 10
235.47078743705333
 20
27.197902422778814
 10
240.1250478789034
 20
26.28231154547518
 10
241.25777764815894
 20
28.826464262119245
 10
237.4630529138293
 20
31.672603946997427
 10
238.112220849037
 20
33.67053741404816
 10
242.85513658082039
 20
33.742629552131106
 10
243.4341543938814
 20
36.46669418938243
 10
239.13060778536507
 20
38.46167125779684
 10
239.35019611838587
 20
40.550914688051996
  0
CIRCLE
  5
36
330
17
100
AcDbEntity
  8
0
 62
4
100
AcDbCircle
 10
206.0
 20
43.0
 30
0.0
 40
1.5
  0
TEXT
  5
37
330
17
100
AcDbEntity
  8
0
 62
7
100
AcDbText
 10
206.0
 20
43.0
 30
0.0
 40
8.0
  1
Large Gear
 72
1
 11
206.0
 21
43.0
 31
0.0
100
AcDbText
 73
2
  0
LWPOLYLINE
  5
38
330
17
100
AcDbEntity
  8
0
 62
4
100
AcDbPolyline
 90
5
 70
0
 10
247.0
 20
5.0
 10
307.0
 20
5.0
 10
307.0
 20
78.0
 10
247.0
 20
78.0
 10
247.0
 20
5.0
  0
TEXT
  5
39
330
17
100
AcDbEntity
  8
0
 62
7
100
AcDbText
 10
277.0
 20
41.5
 30
0.0
 40
8.0
  1
Axle Support #1
 72
1
 11
277.0
 21
41.5
 31
0.0
100
AcDbText
 73
2
  0
LWPOLYLINE
  5
3A
330
17
100
AcDbEntity
  8
0
 62
4
100
AcDbPolyline
 90
5
 70
0
 10
310.0
 20
5.0
 10
370.0
 20
5.0
 10
370.0
 20
78.0
 10
310.0
 20
78.0
 10
310.0
 20
5.0
  0
TEXT
  5
3B
330
17
100
AcDbEntity
  8
0
 62
7
100
AcDbText
 10
340.0
 20
41.5
 30
0.0
 40
8.0
  1
Axle Support #2
 72
1
 11
340.0
 21
41.5
 31
0.0
100
AcDbText
 73
2
  0
LWPOLYLINE
  5
3C
330
17
100
AcDbEntity
  8
0
 62
4
100
AcDbPolyline
 90
5
 70
0
 10
5.0
 20
108.0
 10
95.0
 20
108.0
 10
95.0
 20
151.0
 10
5.0
 20
151.0
 10
5.0
 20
108.0
  0
TEXT
  5
3D
330
17
100
AcDbEntity
  8
0
 62
7
100
AcDbText
 10
50.0
 20
129.5
 30
0.0
 40
7.739999999999999
  1
Motor Mount
 72
1
 11
50.0
 21
129.5
 31
0.0
100
AcDbText
 73
2
  0
CIRCLE
  5
3E
330
17
100
AcDbEntity
  8
0
 62
4
100
AcDbCircle
 10
118.0
 20
128.0
 30
0.0
 40
20.0
  0
CIRCLE
  5
3F
330
17
100
AcDbEntity
  8
0
 62
4
100
AcDbCircle
 10
118.0
 20
128.0
 30
0.0
 40
1.5
  0
TEXT
  5
40
330
17
100
AcDbEntity
  8
0
 62
7
100
AcDbText
 10
118.0
 20
128.0
 30
0.0
 40
7.199999999999999
  1
Drum
 72
1
 11
118.0
 21
128.0
 31
0.0
100
AcDbText
 73
2
  0
LWPOLYLINE
  5
41
330
17
100
AcDbEntity
  8
0
 62
4
100
AcDbPolyline
 90
45
 70
0
 10
167.07461715265828
 20
119.55336545092442
 10
168.93011453603503
 20
120.60289262655104
 10
168.93011453603503
 20
123.39710737344896
 10
167.07461715265828
 20
124.44663454907558
 10
166.4805648398851
 20
126.4697909299199
 10
167.47409133863715
 20
128.35586699635365
 10
165.96342479372777
 20
130.70651002367052
 10
163.83506383463043
 20
130.5862708458332
 10
162.24151430824327
 20
131.96708937069934
 10
162.05763227893965
 20
134.0908985032242
 10
159.51592514326987
 20
135.25165725863687
 10
157.79044017468541
 20
133.99982681672955
 10
155.70333414982932
 20
134.29990736036999
 10
154.40042483752558
 20
135.98715516552755
 10
151.63465116782612
 20
135.58949694572195
 10
150.8598714755859
 20
133.60352256003895
 10
148.94185036836615
 20
132.72759167011566
 10
146.93357827380146
 20
133.4425888912917
 10
144.82185166817897
 20
131.61276737133738
 10
145.24376433023758
 20
129.5231818771086
 10
144.10378629010694
 20
127.7493414221403
 10
142.027763613533
 20
127.2650814935404
 10
141.24054234852542
 20
124.58405207712184
 10
142.72519307577164
 20
123.05428410445931
 10
142.72519307577164
 20
120.9457158955407
 10
141.24054234852542
 20
119.41594792287817
 10
142.027763613533
 20
116.7349185064596
 10
144.1037862901069
 20
116.25065857785971
 10
145.24376433023758
 20
114.4768181228914
 10
144.82185166817897
 20
112.38723262866262
 10
146.93357827380146
 20
110.55741110870831
 10
148.94185036836615
 20
111.27240832988434
 10
150.8598714755859
 20
110.39647743996106
 10
151.63465116782612
 20
108.41050305427807
 10
154.40042483752555
 20
108.01284483447246
 10
155.70333414982932
 20
109.70009263963001
 10
157.79044017468541
 20
110.00017318327045
 10
159.51592514326987
 20
108.74834274136313
 10
162.05763227893965
 20
109.90910149677579
 10
162.24151430824327
 20
112.03291062930064
 10
163.83506383463043
 20
113.41372915416679
 10
165.96342479372777
 20
113.2934899763295
 10
167.47409133863715
 20
115.64413300364635
 10
166.4805648398851
 20
117.5302090700801
 10
167.07461715265828
 20
119.55336545092442
  0
CIRCLE
  5
42
330
17
100
AcDbEntity
  8
0
 62
4
100
AcDbCircle
 10
155.0
 20
122.0
 30
0.0
 40
1.5
  0
TEXT
  5
43
330
17
100
AcDbEntity
  8
0
 62
7
100
AcDbText
 10
155.0
 20
122.0
 30
0.0
 40
5.04
  1
Small Gear
 72
1
 11
155.0
 21
122.0
 31
0.0
100
AcDbText
 73
2
  0
TEXT
  5
44
330
17
100
AcDbEntity
  8
0
 62
7
100
AcDbText
 10
200.0
 20
598.0
 30
0.0
 40
8.0
  1
M4 Gear-Down Motor - Sheet 1/1
 72
1
 11
200.0
 21
598.0
 31
0.0
100
AcDbText
 73
3
  0
TEXT
  5
45
330
17
100
AcDbEntity
  8
0
 62
7
100
AcDbText
 10
200.0
 20
588.0
 30
0.0
 40
4.0
  1
Material: 3mm MDF (turquoise) / 3mm Birch Ply (brown)
 72
1
 11
200.0
 21
588.0
 31
0.0
100
AcDbText
 73
3
  0
ENDSEC
  0
SECTION
  2
OBJECTS
  0
DICTIONARY
  5
A
330
0
100
AcDbDictionary
281
1
  3
ACAD_COLOR
350
B
  3
ACAD_GROUP
350
C
  3
ACAD_LAYOUT
350
D
  3
ACAD_MATERIAL
350
E
  3
ACAD_MLEADERSTYLE
350
F
  3
ACAD_MLINESTYLE
350
10
  3
ACAD_PLOTSETTINGS
350
11
  3
ACAD_PLOTSTYLENAME
350
12
  3
ACAD_SCALELIST
350
14
  3
ACAD_TABLESTYLE
350
15
  3
ACAD_VISUALSTYLE
350
16
  3
EZDXF_META
350
2D
  0
DICTIONARY
  5
B
330
A
100
AcDbDictionary
281
1
  0
DICTIONARY
  5
C
330
A
100
AcDbDictionary
281
1
  0
DICTIONARY
  5
D
330
A
100
AcDbDictionary
281
1
  3
Model
350
1A
  3
Layout1
350
1E
  0
DICTIONARY
  5
E
330
A
100
AcDbDictionary
281
1
  3
ByBlock
350
1F
  3
ByLayer
350
20
  3
Global
350
21
  0
DICTIONARY
  5
F
330
A
100
AcDbDictionary
281
1
  3
Standard
350
2C
  0
DICTIONARY
  5
10
330
A
100
AcDbDictionary
281
1
  3
Standard
350
22
  0
DICTIONARY
  5
11
330
A
100
AcDbDictionary
281
1
  0
ACDBDICTIONARYWDFLT
  5
12
330
A
100
AcDbDictionary
281
1
  3
Normal
350
13
100
AcDbDictionaryWithDefault
340
13
  0
ACDBPLACEHOLDER
  5
13
330
12
  0
DICTIONARY
  5
14
330
A
100
AcDbDictionary
281
1
  0
DICTIONARY
  5
15
330
A
100
AcDbDictionary
281
1
  0
DICTIONARY
  5
16
330
A
100
AcDbDictionary
281
1
  0
LAYOUT
  5
1A
330
D
100
AcDbPlotSettings
  1

  4
A3
  6

 40
7.5
 41
20.0
 42
7.5
 43
20.0
 44
420.0
 45
297.0
 46
0.0
 47
0.0
 48
0.0
 49
0.0
140
0.0
141
0.0
142
1.0
143
1.0
 70
1024
 72
1
 73
0
 74
5
  7

 75
16
 76
0
 77
2
 78
300
147
1.0
148
0.0
149
0.0
100
AcDbLayout
  1
Model
 70
1
 71
0
 10
0.0
 20
0.0
 11
420.0
 21
297.0
 12
0.0
 22
0.0
 32
0.0
 14
1e+20
 24
1e+20
 34
1e+20
 15
-1e+20
 25
-1e+20
 35
-1e+20
146
0.0
 13
0.0
 23
0.0
 33
0.0
 16
1.0
 26
0.0
 36
0.0
 17
0.0
 27
1.0
 37
0.0
 76
1
330
17
  0
LAYOUT
  5
1E
330
D
100
AcDbPlotSettings
  1

  4
A3
  6

 40
7.5
 41
20.0
 42
7.5
 43
20.0
 44
420.0
 45
297.0
 46
0.0
 47
0.0
 48
0.0
 49
0.0
140
0.0
141
0.0
142
1.0
143
1.0
 70
0
 72
1
 73
0
 74
5
  7

 75
16
 76
0
 77
2
 78
300
147
1.0
148
0.0
149
0.0
100
AcDbLayout
  1
Layout1
 70
1
 71
1
 10
0.0
 20
0.0
 11
420.0
 21
297.0
 12
0.0
 22
0.0
 32
0.0
 14
1e+20
 24
1e+20
 34
1e+20
 15
-1e+20
 25
-1e+20
 35
-1e+20
146
0.0
 13
0.0
 23
0.0
 33
0.0
 16
1.0
 26
0.0
 36
0.0
 17
0.0
 27
1.0
 37
0.0
 76
1
330
1B
  0
MATERIAL
  5
1F
102
{ACAD_REACTORS
330
E
102
}
330
E
100
AcDbMaterial
  1
ByBlock
  2

 70
0
 40
1.0
 71
1
 41
1.0
 91
-1023410177
 42
1.0
 72
1
  3

 73
1
 74
1
 75
1
 44
0.5
 73
0
 45
1.0
 46
1.0
 77
1
  4

 78
1
 79
1
170
1
 48
1.0
171
1
  6

172
1
173
1
174
1
140
1.0
141
1.0
175
1
  7

176
1
177
1
178
1
143
1.0
179
1
  8

270
1
271
1
272
1
145
1.0
146
1.0
273
1
  9

274
1
275
1
276
1
 42
1.0
 72
1
  3

 73
1
 74
1
 75
1
 94
63
  0
MATERIAL
  5
20
102
{ACAD_REACTORS
330
E
102
}
330
E
100
AcDbMaterial
  1
ByLayer
  2

 70
0
 40
1.0
 71
1
 41
1.0
 91
-1023410177
 42
1.0
 72
1
  3

 73
1
 74
1
 75
1
 44
0.5
 73
0
 45
1.0
 46
1.0
 77
1
  4

 78
1
 79
1
170
1
 48
1.0
171
1
  6

172
1
173
1
174
1
140
1.0
141
1.0
175
1
  7

176
1
177
1
178
1
143
1.0
179
1
  8

270
1
271
1
272
1
145
1.0
146
1.0
273
1
  9

274
1
275
1
276
1
 42
1.0
 72
1
  3

 73
1
 74
1
 75
1
 94
63
  0
MATERIAL
  5
21
102
{ACAD_REACTORS
330
E
102
}
330
E
100
AcDbMaterial
  1
Global
  2

 70
0
 40
1.0
 71
1
 41
1.0
 91
-1023410177
 42
1.0
 72
1
  3

 73
1
 74
1
 75
1
 44
0.5
 73
0
 45
1.0
 46
1.0
 77
1
  4

 78
1
 79
1
170
1
 48
1.0
171
1
  6

172
1
173
1
174
1
140
1.0
141
1.0
175
1
  7

176
1
177
1
178
1
143
1.0
179
1
  8

270
1
271
1
272
1
145
1.0
146
1.0
273
1
  9

274
1
275
1
276
1
 42
1.0
 72
1
  3

 73
1
 74
1
 75
1
 94
63
  0
MLINESTYLE
  5
22
102
{ACAD_REACTORS
330
10
102
}
330
10
100
AcDbMlineStyle
  2
Standard
 70
0
  3

 62
256
 51
90.0
 52
90.0
 71
2
 49
0.5
 62
256
  6
BYLAYER
 49
-0.5
 62
256
  6
BYLAYER
  0
MLEADERSTYLE
  5
2C
102
{ACAD_REACTORS
330
F
102
}
330
F
100
AcDbMLeaderStyle
179
2
170
2
171
1
172
0
 90
2
 40
0.0
 41
0.0
173
1
 91
-1056964608
 92
-2
290
1
 42
2.0
291
1
 43
8.0
  3
Standard
 44
4.0
300

342
29
174
1
175
1
176
0
178
1
 93
-1056964608
 45
4.0
292
0
297
0
 46
4.0
 94
-1056964608
 47
1.0
 49
1.0
140
1.0
294
1
141
0.0
177
0
142
1.0
295
0
296
0
143
3.75
271
0
272
9
273
9
  0
DICTIONARY
  5
2D
330
A
100
AcDbDictionary
280
1
281
1
  3
CREATED_BY_EZDXF
350
2E
  3
WRITTEN_BY_EZDXF
350
48
  0
DICTIONARYVAR
  5
2E
330
2D
100
DictionaryVariables
280
0
  1
1.4.3 @ 2026-03-19T12:10:46.963650+00:00
  0
DICTIONARYVAR
  5
48
330
2D
100
DictionaryVariables
280
0
  1
1.4.3 @ 2026-03-19T12:10:46.964716+00:00
  0
ENDSEC
  0
EOF
