  0
SECTION
  2
HEADER
  9
$ACADVER
  1
AC1024
  9
$ACADMAINTVER
 70
6
  9
$DWGCODEPAGE
  3
ANSI_1252
  9
$LASTSAVEDBY
  1
ezdxf
  9
$INSBASE
 10
0.0
 20
0.0
 30
0.0
  9
$EXTMIN
 10
1e+20
 20
1e+20
 30
1e+20
  9
$EXTMAX
 10
-1e+20
 20
-1e+20
 30
-1e+20
  9
$LIMMIN
 10
0.0
 20
0.0
  9
$LIMMAX
 10
420.0
 20
297.0
  9
$ORTHOMODE
 70
0
  9
$REGENMODE
 70
1
  9
$FILLMODE
 70
1
  9
$QTEXTMODE
 70
0
  9
$MIRRTEXT
 70
1
  9
$LTSCALE
 40
1.0
  9
$ATTMODE
 70
1
  9
$TEXTSIZE
 40
2.5
  9
$TRACEWID
 40
1.0
  9
$TEXTSTYLE
  7
Standard
  9
$CLAYER
  8
0
  9
$CELTYPE
  6
ByLayer
  9
$CECOLOR
 62
256
  9
$CELTSCALE
 40
1.0
  9
$DISPSILH
 70
0
  9
$DIMSCALE
 40
1.0
  9
$DIMASZ
 40
2.5
  9
$DIMEXO
 40
0.625
  9
$DIMDLI
 40
3.75
  9
$DIMRND
 40
0.0
  9
$DIMDLE
 40
0.0
  9
$DIMEXE
 40
1.25
  9
$DIMTP
 40
0.0
  9
$DIMTM
 40
0.0
  9
$DIMTXT
 40
2.5
  9
$DIMCEN
 40
2.5
  9
$DIMTSZ
 40
0.0
  9
$DIMTOL
 70
0
  9
$DIMLIM
 70
0
  9
$DIMTIH
 70
0
  9
$DIMTOH
 70
0
  9
$DIMSE1
 70
0
  9
$DIMSE2
 70
0
  9
$DIMTAD
 70
1
  9
$DIMZIN
 70
8
  9
$DIMBLK
  1

  9
$DIMASO
 70
1
  9
$DIMSHO
 70
1
  9
$DIMPOST
  1

  9
$DIMAPOST
  1

  9
$DIMALT
 70
0
  9
$DIMALTD
 70
3
  9
$DIMALTF
 40
0.03937007874
  9
$DIMLFAC
 40
1.0
  9
$DIMTOFL
 70
1
  9
$DIMTVP
 40
0.0
  9
$DIMTIX
 70
0
  9
$DIMSOXD
 70
0
  9
$DIMSAH
 70
0
  9
$DIMBLK1
  1

  9
$DIMBLK2
  1

  9
$DIMSTYLE
  2
ISO-25
  9
$DIMCLRD
 70
0
  9
$DIMCLRE
 70
0
  9
$DIMCLRT
 70
0
  9
$DIMTFAC
 40
1.0
  9
$DIMGAP
 40
0.625
  9
$DIMJUST
 70
0
  9
$DIMSD1
 70
0
  9
$DIMSD2
 70
0
  9
$DIMTOLJ
 70
0
  9
$DIMTZIN
 70
8
  9
$DIMALTZ
 70
0
  9
$DIMALTTZ
 70
0
  9
$DIMUPT
 70
0
  9
$DIMDEC
 70
2
  9
$DIMTDEC
 70
2
  9
$DIMALTU
 70
2
  9
$DIMALTTD
 70
3
  9
$DIMTXSTY
  7
Standard
  9
$DIMAUNIT
 70
0
  9
$DIMADEC
 70
0
  9
$DIMALTRND
 40
0.0
  9
$DIMAZIN
 70
0
  9
$DIMDSEP
 70
44
  9
$DIMATFIT
 70
3
  9
$DIMFRAC
 70
0
  9
$DIMLDRBLK
  1

  9
$DIMLUNIT
 70
2
  9
$DIMLWD
 70
-2
  9
$DIMLWE
 70
-2
  9
$DIMTMOVE
 70
0
  9
$DIMFXL
 40
1.0
  9
$DIMFXLON
 70
0
  9
$DIMJOGANG
 40
0.785398163397
  9
$DIMTFILL
 70
0
  9
$DIMTFILLCLR
 70
0
  9
$DIMARCSYM
 70
0
  9
$DIMLTYPE
  6

  9
$DIMLTEX1
  6

  9
$DIMLTEX2
  6

  9
$DIMTXTDIRECTION
 70
0
  9
$LUNITS
 70
2
  9
$LUPREC
 70
4
  9
$SKETCHINC
 40
1.0
  9
$FILLETRAD
 40
10.0
  9
$AUNITS
 70
0
  9
$AUPREC
 70
2
  9
$MENU
  1
.
  9
$ELEVATION
 40
0.0
  9
$PELEVATION
 40
0.0
  9
$THICKNESS
 40
0.0
  9
$LIMCHECK
 70
0
  9
$CHAMFERA
 40
0.0
  9
$CHAMFERB
 40
0.0
  9
$CHAMFERC
 40
0.0
  9
$CHAMFERD
 40
0.0
  9
$SKPOLY
 70
0
  9
$TDCREATE
 40
2461119.9741319446
  9
$TDUCREATE
 40
2458532.153996898
  9
$TDUPDATE
 40
2461119.9741319446
  9
$TDUUPDATE
 40
2458532.1544311
  9
$TDINDWG
 40
0.0
  9
$TDUSRTIMER
 40
0.0
  9
$USRTIMER
 70
1
  9
$ANGBASE
 50
0.0
  9
$ANGDIR
 70
0
  9
$PDMODE
 70
0
  9
$PDSIZE
 40
0.0
  9
$PLINEWID
 40
0.0
  9
$SPLFRAME
 70
0
  9
$SPLINETYPE
 70
6
  9
$SPLINESEGS
 70
8
  9
$HANDSEED
  5
5A
  9
$SURFTAB1
 70
6
  9
$SURFTAB2
 70
6
  9
$SURFTYPE
 70
6
  9
$SURFU
 70
6
  9
$SURFV
 70
6
  9
$UCSBASE
  2

  9
$UCSNAME
  2

  9
$UCSORG
 10
0.0
 20
0.0
 30
0.0
  9
$UCSXDIR
 10
1.0
 20
0.0
 30
0.0
  9
$UCSYDIR
 10
0.0
 20
1.0
 30
0.0
  9
$UCSORTHOREF
  2

  9
$UCSORTHOVIEW
 70
0
  9
$UCSORGTOP
 10
0.0
 20
0.0
 30
0.0
  9
$UCSORGBOTTOM
 10
0.0
 20
0.0
 30
0.0
  9
$UCSORGLEFT
 10
0.0
 20
0.0
 30
0.0
  9
$UCSORGRIGHT
 10
0.0
 20
0.0
 30
0.0
  9
$UCSORGFRONT
 10
0.0
 20
0.0
 30
0.0
  9
$UCSORGBACK
 10
0.0
 20
0.0
 30
0.0
  9
$PUCSBASE
  2

  9
$PUCSNAME
  2

  9
$PUCSORG
 10
0.0
 20
0.0
 30
0.0
  9
$PUCSXDIR
 10
1.0
 20
0.0
 30
0.0
  9
$PUCSYDIR
 10
0.0
 20
1.0
 30
0.0
  9
$PUCSORTHOREF
  2

  9
$PUCSORTHOVIEW
 70
0
  9
$PUCSORGTOP
 10
0.0
 20
0.0
 30
0.0
  9
$PUCSORGBOTTOM
 10
0.0
 20
0.0
 30
0.0
  9
$PUCSORGLEFT
 10
0.0
 20
0.0
 30
0.0
  9
$PUCSORGRIGHT
 10
0.0
 20
0.0
 30
0.0
  9
$PUCSORGFRONT
 10
0.0
 20
0.0
 30
0.0
  9
$PUCSORGBACK
 10
0.0
 20
0.0
 30
0.0
  9
$USERI1
 70
0
  9
$USERI2
 70
0
  9
$USERI3
 70
0
  9
$USERI4
 70
0
  9
$USERI5
 70
0
  9
$USERR1
 40
0.0
  9
$USERR2
 40
0.0
  9
$USERR3
 40
0.0
  9
$USERR4
 40
0.0
  9
$USERR5
 40
0.0
  9
$WORLDVIEW
 70
1
  9
$SHADEDGE
 70
3
  9
$SHADEDIF
 70
70
  9
$TILEMODE
 70
1
  9
$MAXACTVP
 70
64
  9
$PINSBASE
 10
0.0
 20
0.0
 30
0.0
  9
$PLIMCHECK
 70
0
  9
$PEXTMIN
 10
1e+20
 20
1e+20
 30
1e+20
  9
$PEXTMAX
 10
-1e+20
 20
-1e+20
 30
-1e+20
  9
$PLIMMIN
 10
0.0
 20
0.0
  9
$PLIMMAX
 10
420.0
 20
297.0
  9
$UNITMODE
 70
0
  9
$VISRETAIN
 70
1
  9
$PLINEGEN
 70
0
  9
$PSLTSCALE
 70
1
  9
$TREEDEPTH
 70
3020
  9
$CMLSTYLE
  2
Standard
  9
$CMLJUST
 70
0
  9
$CMLSCALE
 40
20.0
  9
$PROXYGRAPHICS
 70
1
  9
$MEASUREMENT
 70
1
  9
$CELWEIGHT
370
-1
  9
$ENDCAPS
280
0
  9
$JOINSTYLE
280
0
  9
$LWDISPLAY
290
0
  9
$INSUNITS
 70
6
  9
$HYPERLINKBASE
  1

  9
$STYLESHEET
  1

  9
$XEDIT
290
1
  9
$CEPSNTYPE
380
0
  9
$PSTYLEMODE
290
1
  9
$FINGERPRINTGUID
  2
{0C73CFE4-8504-43B2-9A04-10B5586C3957}
  9
$VERSIONGUID
  2
{80107DD9-5A57-4BA9-86F6-2B6D190DA15B}
  9
$EXTNAMES
290
1
  9
$PSVPSCALE
 40
0.0
  9
$OLESTARTUP
290
0
  9
$SORTENTS
280
127
  9
$INDEXCTL
280
0
  9
$HIDETEXT
280
1
  9
$XCLIPFRAME
280
1
  9
$HALOGAP
280
0
  9
$OBSCOLOR
 70
257
  9
$OBSLTYPE
280
0
  9
$INTERSECTIONDISPLAY
280
0
  9
$INTERSECTIONCOLOR
 70
257
  9
$DIMASSOC
280
2
  9
$PROJECTNAME
  1

  9
$CAMERADISPLAY
290
0
  9
$LENSLENGTH
 40
50.0
  9
$CAMERAHEIGHT
 40
0.0
  9
$STEPSPERSEC
 40
24.0
  9
$STEPSIZE
 40
100.0
  9
$3DDWFPREC
 40
2.0
  9
$PSOLWIDTH
 40
0.005
  9
$PSOLHEIGHT
 40
0.08
  9
$LOFTANG1
 40
1.570796326795
  9
$LOFTANG2
 40
1.570796326795
  9
$LOFTMAG1
 40
0.0
  9
$LOFTMAG2
 40
0.0
  9
$LOFTPARAM
 70
7
  9
$LOFTNORMALS
280
1
  9
$LATITUDE
 40
37.795
  9
$LONGITUDE
 40
-122.394
  9
$NORTHDIRECTION
 40
0.0
  9
$TIMEZONE
 70
-8000
  9
$LIGHTGLYPHDISPLAY
280
1
  9
$TILEMODELIGHTSYNCH
280
1
  9
$CMATERIAL
347
20
  9
$SOLIDHIST
280
0
  9
$SHOWHIST
280
1
  9
$DWFFRAME
280
2
  9
$DGNFRAME
280
2
  9
$REALWORLDSCALE
290
1
  9
$INTERFERECOLOR
 62
256
  9
$CSHADOW
280
0
  9
$SHADOWPLANELOCATION
 40
0.0
  0
ENDSEC
  0
SECTION
  2
CLASSES
  0
CLASS
  1
ACDBDICTIONARYWDFLT
  2
AcDbDictionaryWithDefault
  3
ObjectDBX Classes
 90
0
 91
0
280
0
281
0
  0
CLASS
  1
SUN
  2
AcDbSun
  3
SCENEOE
 90
1153
 91
0
280
0
281
0
  0
CLASS
  1
VISUALSTYLE
  2
AcDbVisualStyle
  3
ObjectDBX Classes
 90
4095
 91
0
280
0
281
0
  0
CLASS
  1
MATERIAL
  2
AcDbMaterial
  3
ObjectDBX Classes
 90
1153
 91
0
280
0
281
0
  0
CLASS
  1
SCALE
  2
AcDbScale
  3
ObjectDBX Classes
 90
1153
 91
0
280
0
281
0
  0
CLASS
  1
TABLESTYLE
  2
AcDbTableStyle
  3
ObjectDBX Classes
 90
4095
 91
0
280
0
281
0
  0
CLASS
  1
MLEADERSTYLE
  2
AcDbMLeaderStyle
  3
ACDB_MLEADERSTYLE_CLASS
 90
4095
 91
0
280
0
281
0
  0
CLASS
  1
DICTIONARYVAR
  2
AcDbDictionaryVar
  3
ObjectDBX Classes
 90
0
 91
0
280
0
281
0
  0
CLASS
  1
CELLSTYLEMAP
  2
AcDbCellStyleMap
  3
ObjectDBX Classes
 90
1152
 91
0
280
0
281
0
  0
CLASS
  1
MENTALRAYRENDERSETTINGS
  2
AcDbMentalRayRenderSettings
  3
SCENEOE
 90
1024
 91
0
280
0
281
0
  0
CLASS
  1
ACDBDETAILVIEWSTYLE
  2
AcDbDetailViewStyle
  3
ObjectDBX Classes
 90
1025
 91
0
280
0
281
0
  0
CLASS
  1
ACDBSECTIONVIEWSTYLE
  2
AcDbSectionViewStyle
  3
ObjectDBX Classes
 90
1025
 91
0
280
0
281
0
  0
CLASS
  1
RASTERVARIABLES
  2
AcDbRasterVariables
  3
ISM
 90
0
 91
0
280
0
281
0
  0
CLASS
  1
LAYOUT
  2
AcDbLayout
  3
ObjectDBX Classes
 90
0
 91
0
280
0
281
0
  0
CLASS
  1
ACDBPLACEHOLDER
  2
AcDbPlaceHolder
  3
ObjectDBX Classes
 90
0
 91
0
280
0
281
0
  0
ENDSEC
  0
SECTION
  2
TABLES
  0
TABLE
  2
VPORT
  5
8
330
0
100
AcDbSymbolTable
 70
1
  0
VPORT
  5
23
330
8
100
AcDbSymbolTableRecord
100
AcDbViewportTableRecord
  2
*Active
 70
0
 10
0.0
 20
0.0
 11
1.0
 21
1.0
 12
0.0
 22
0.0
 13
0.0
 23
0.0
 14
0.5
 24
0.5
 15
0.5
 25
0.5
 16
0.0
 26
0.0
 36
1.0
 17
0.0
 27
0.0
 37
0.0
 40
1000.0
 41
1.34
 42
50.0
 43
0.0
 44
0.0
 50
0.0
 51
0.0
 71
0
 72
1000
 73
1
 74
3
 75
0
 76
0
 77
0
 78
0
281
0
 65
0
146
0.0
  0
ENDTAB
  0
TABLE
  2
LTYPE
  5
2
330
0
100
AcDbSymbolTable
 70
3
  0
LTYPE
  5
24
330
2
100
AcDbSymbolTableRecord
100
AcDbLinetypeTableRecord
  2
ByBlock
 70
0
  3

 72
65
 73
0
 40
0.0
  0
LTYPE
  5
25
330
2
100
AcDbSymbolTableRecord
100
AcDbLinetypeTableRecord
  2
ByLayer
 70
0
  3

 72
65
 73
0
 40
0.0
  0
LTYPE
  5
26
330
2
100
AcDbSymbolTableRecord
100
AcDbLinetypeTableRecord
  2
Continuous
 70
0
  3

 72
65
 73
0
 40
0.0
  0
ENDTAB
  0
TABLE
  2
LAYER
  5
1
330
0
100
AcDbSymbolTable
 70
6
  0
LAYER
  5
27
330
1
100
AcDbSymbolTableRecord
100
AcDbLayerTableRecord
  2
0
 70
0
 62
7
  6
Continuous
370
-3
390
13
347
21
  0
LAYER
  5
28
330
1
100
AcDbSymbolTableRecord
100
AcDbLayerTableRecord
  2
Defpoints
 70
0
 62
7
  6
Continuous
290
0
370
-3
390
13
347
21
  0
LAYER
  5
2F
330
1
100
AcDbSymbolTableRecord
100
AcDbLayerTableRecord
  2
CUTS
 70
0
 62
7
  6
Continuous
370
-3
390
13
347
21
  0
LAYER
  5
30
330
1
100
AcDbSymbolTableRecord
100
AcDbLayerTableRecord
  2
ENGRAVE
 70
0
 62
1
  6
Continuous
370
-3
390
13
347
21
  0
LAYER
  5
31
330
1
100
AcDbSymbolTableRecord
100
AcDbLayerTableRecord
  2
GUIDE
 70
0
 62
3
  6
Continuous
370
-3
390
13
347
21
  0
LAYER
  5
32
330
1
100
AcDbSymbolTableRecord
100
AcDbLayerTableRecord
  2
SHEET
 70
0
 62
8
  6
Continuous
370
-3
390
13
347
21
  0
ENDTAB
  0
TABLE
  2
STYLE
  5
5
330
0
100
AcDbSymbolTable
 70
1
  0
STYLE
  5
29
330
5
100
AcDbSymbolTableRecord
100
AcDbTextStyleTableRecord
  2
Standard
 70
0
 40
0.0
 41
1.0
 50
0.0
 71
0
 42
2.5
  3
txt
  4

  0
ENDTAB
  0
TABLE
  2
VIEW
  5
7
330
0
100
AcDbSymbolTable
 70
0
  0
ENDTAB
  0
TABLE
  2
UCS
  5
6
330
0
100
AcDbSymbolTable
 70
0
  0
ENDTAB
  0
TABLE
  2
APPID
  5
3
330
0
100
AcDbSymbolTable
 70
3
  0
APPID
  5
2A
330
3
100
AcDbSymbolTableRecord
100
AcDbRegAppTableRecord
  2
ACAD
 70
0
  0
APPID
  5
57
330
3
100
AcDbSymbolTableRecord
100
AcDbRegAppTableRecord
  2
HATCHBACKGROUNDCOLOR
 70
0
  0
APPID
  5
58
330
3
100
AcDbSymbolTableRecord
100
AcDbRegAppTableRecord
  2
EZDXF
 70
0
  0
ENDTAB
  0
TABLE
  2
DIMSTYLE
  5
4
330
0
100
AcDbSymbolTable
 70
1
100
AcDbDimStyleTable
  0
DIMSTYLE
105
2B
330
4
100
AcDbSymbolTableRecord
100
AcDbDimStyleTableRecord
  2
Standard
 70
0
 40
1.0
 41
2.5
 42
0.625
 43
3.75
 44
1.25
 45
0.0
 46
0.0
 47
0.0
 48
0.0
 49
2.5
140
2.5
141
2.5
142
0.0
143
0.03937007874
144
1.0
145
0.0
146
1.0
147
0.625
148
0.0
 69
0
 70
0
 71
0
 72
0
 73
0
 74
0
 75
0
 76
0
 77
1
 78
8
 79
3
170
0
171
3
172
1
173
0
174
0
175
0
176
0
177
0
178
0
179
2
271
2
272
2
273
2
274
3
275
0
276
0
277
2
278
44
279
0
280
0
281
0
282
0
283
0
284
8
285
0
286
0
288
0
289
3
290
0
371
-2
372
-2
  0
ENDTAB
  0
TABLE
  2
BLOCK_RECORD
  5
9
330
0
100
AcDbSymbolTable
 70
2
  0
BLOCK_RECORD
  5
17
330
9
100
AcDbSymbolTableRecord
100
AcDbBlockTableRecord
  2
*Model_Space
340
1A
 70
0
280
1
281
0
  0
BLOCK_RECORD
  5
1B
330
9
100
AcDbSymbolTableRecord
100
AcDbBlockTableRecord
  2
*Paper_Space
340
1E
 70
0
280
1
281
0
  0
ENDTAB
  0
ENDSEC
  0
SECTION
  2
BLOCKS
  0
BLOCK
  5
18
330
17
100
AcDbEntity
  8
0
100
AcDbBlockBegin
  2
*Model_Space
 70
0
 10
0.0
 20
0.0
 30
0.0
  3
*Model_Space
  1

  0
ENDBLK
  5
19
330
17
100
AcDbEntity
  8
0
100
AcDbBlockEnd
  0
BLOCK
  5
1C
330
1B
100
AcDbEntity
  8
0
100
AcDbBlockBegin
  2
*Paper_Space
 70
0
 10
0.0
 20
0.0
 30
0.0
  3
*Paper_Space
  1

  0
ENDBLK
  5
1D
330
1B
100
AcDbEntity
  8
0
100
AcDbBlockEnd
  0
ENDSEC
  0
SECTION
  2
ENTITIES
  0
LWPOLYLINE
  5
33
330
17
100
AcDbEntity
  8
SHEET
 62
8
100
AcDbPolyline
 90
4
 70
1
 10
0.0
 20
0.0
 10
400.0
 20
0.0
 10
400.0
 20
600.0
 10
0.0
 20
600.0
  0
LWPOLYLINE
  5
34
330
17
100
AcDbEntity
  8
CUTS
100
AcDbPolyline
 90
4
 70
1
 10
62.0
 20
288.0
 10
222.0
 20
288.0
 10
222.0
 20
388.0
 10
62.0
 20
388.0
  0
TEXT
  5
35
330
17
100
AcDbEntity
  8
ENGRAVE
100
AcDbText
 10
67.0
 20
380.0
 30
0.0
 40
3.0
  1
M4 BASE
 11
67.0
 21
380.0
 31
0.0
100
AcDbText
  0
LWPOLYLINE
  5
36
330
17
100
AcDbEntity
  8
CUTS
100
AcDbPolyline
 90
4
 70
1
 10
100.55
 20
318.0
 10
103.44999999999999
 20
318.0
 10
103.44999999999999
 20
328.0
 10
100.55
 20
328.0
  0
LWPOLYLINE
  5
37
330
17
100
AcDbEntity
  8
CUTS
100
AcDbPolyline
 90
4
 70
1
 10
100.55
 20
348.0
 10
103.44999999999999
 20
348.0
 10
103.44999999999999
 20
358.0
 10
100.55
 20
358.0
  0
LWPOLYLINE
  5
38
330
17
100
AcDbEntity
  8
CUTS
100
AcDbPolyline
 90
4
 70
1
 10
180.55
 20
318.0
 10
183.45
 20
318.0
 10
183.45
 20
328.0
 10
180.55
 20
328.0
  0
LWPOLYLINE
  5
39
330
17
100
AcDbEntity
  8
CUTS
100
AcDbPolyline
 90
4
 70
1
 10
180.55
 20
348.0
 10
183.45
 20
348.0
 10
183.45
 20
358.0
 10
180.55
 20
358.0
  0
LWPOLYLINE
  5
3A
330
17
100
AcDbEntity
  8
CUTS
100
AcDbPolyline
 90
4
 70
1
 10
140.55
 20
308.0
 10
143.45
 20
308.0
 10
143.45
 20
318.0
 10
140.55
 20
318.0
  0
LWPOLYLINE
  5
3B
330
17
100
AcDbEntity
  8
CUTS
100
AcDbPolyline
 90
4
 70
1
 10
230.0
 20
288.0
 10
280.0
 20
288.0
 10
280.0
 20
358.0
 10
230.0
 20
358.0
  0
LWPOLYLINE
  5
3C
330
17
100
AcDbEntity
  8
CUTS
100
AcDbPolyline
 90
4
 70
1
 10
235.0
 20
285.0
 10
245.0
 20
285.0
 10
245.0
 20
288.0
 10
235.0
 20
288.0
  0
LWPOLYLINE
  5
3D
330
17
100
AcDbEntity
  8
CUTS
100
AcDbPolyline
 90
4
 70
1
 10
265.0
 20
285.0
 10
275.0
 20
285.0
 10
275.0
 20
288.0
 10
265.0
 20
288.0
  0
CIRCLE
  5
3E
330
17
100
AcDbEntity
  8
CUTS
100
AcDbCircle
 10
245.0
 20
333.0
 30
0.0
 40
2.9
  0
CIRCLE
  5
3F
330
17
100
AcDbEntity
  8
CUTS
100
AcDbCircle
 10
265.0
 20
333.0
 30
0.0
 40
1.6
  0
TEXT
  5
40
330
17
100
AcDbEntity
  8
ENGRAVE
100
AcDbText
 10
233.0
 20
348.0
 30
0.0
 40
3.0
  1
M4 AX L
 11
233.0
 21
348.0
 31
0.0
100
AcDbText
  0
LWPOLYLINE
  5
41
330
17
100
AcDbEntity
  8
CUTS
100
AcDbPolyline
 90
4
 70
1
 10
288.0
 20
288.0
 10
338.0
 20
288.0
 10
338.0
 20
358.0
 10
288.0
 20
358.0
  0
LWPOLYLINE
  5
42
330
17
100
AcDbEntity
  8
CUTS
100
AcDbPolyline
 90
4
 70
1
 10
293.0
 20
285.0
 10
303.0
 20
285.0
 10
303.0
 20
288.0
 10
293.0
 20
288.0
  0
LWPOLYLINE
  5
43
330
17
100
AcDbEntity
  8
CUTS
100
AcDbPolyline
 90
4
 70
1
 10
323.0
 20
285.0
 10
333.0
 20
285.0
 10
333.0
 20
288.0
 10
323.0
 20
288.0
  0
CIRCLE
  5
44
330
17
100
AcDbEntity
  8
CUTS
100
AcDbCircle
 10
303.0
 20
333.0
 30
0.0
 40
2.9
  0
CIRCLE
  5
45
330
17
100
AcDbEntity
  8
CUTS
100
AcDbCircle
 10
323.0
 20
333.0
 30
0.0
 40
1.6
  0
TEXT
  5
46
330
17
100
AcDbEntity
  8
ENGRAVE
100
AcDbText
 10
291.0
 20
348.0
 30
0.0
 40
3.0
  1
M4 AX R
 11
291.0
 21
348.0
 31
0.0
100
AcDbText
  0
LWPOLYLINE
  5
47
330
17
100
AcDbEntity
  8
CUTS
100
AcDbPolyline
 90
4
 70
1
 10
62.0
 20
230.0
 10
142.0
 20
230.0
 10
142.0
 20
270.0
 10
62.0
 20
270.0
  0
LWPOLYLINE
  5
48
330
17
100
AcDbEntity
  8
CUTS
100
AcDbPolyline
 90
4
 70
1
 10
90.0
 20
240.0
 10
114.0
 20
240.0
 10
114.0
 20
260.0
 10
90.0
 20
260.0
  0
CIRCLE
  5
49
330
17
100
AcDbEntity
  8
CUTS
100
AcDbCircle
 10
74.0
 20
250.0
 30
0.0
 40
1.6
  0
CIRCLE
  5
4A
330
17
100
AcDbEntity
  8
CUTS
100
AcDbCircle
 10
130.0
 20
250.0
 30
0.0
 40
1.6
  0
LWPOLYLINE
  5
4B
330
17
100
AcDbEntity
  8
CUTS
100
AcDbPolyline
 90
4
 70
1
 10
97.0
 20
227.0
 10
107.0
 20
227.0
 10
107.0
 20
230.0
 10
97.0
 20
230.0
  0
TEXT
  5
4C
330
17
100
AcDbEntity
  8
ENGRAVE
100
AcDbText
 10
67.0
 20
262.0
 30
0.0
 40
3.0
  1
M4 TT MOUNT
 11
67.0
 21
262.0
 31
0.0
100
AcDbText
  0
LWPOLYLINE
  5
4D
330
17
100
AcDbEntity
  8
CUTS
100
AcDbPolyline
 90
72
 70
1
 10
177.99222294236017
 20
249.53341974828544
 10
178.0
 20
250.0
 10
177.99222294236017
 20
250.46658025171456
 10
173.25314206736493
 20
252.15159519453852
 10
173.17629534974614
 20
252.45878092847394
 10
173.08925369243377
 20
252.7632349365516
 10
176.35091064935662
 20
256.5920411202911
 10
176.12435565298216
 20
257.0
 10
175.8843303976421
 20
257.40018182206904
 10
170.93765849789526
 20
256.4899071308133
 10
170.7175144212722
 20
256.7175144212722
 10
170.48990713081335
 20
256.93765849789526
 10
171.40018182206902
 20
261.8843303976421
 10
171.0
 20
262.12435565298216
 10
170.59204112029113
 20
262.3509106493566
 10
166.7632349365516
 20
259.0892536924338
 10
166.45878092847394
 20
259.17629534974617
 10
166.15159519453852
 20
259.25314206736493
 10
164.46658025171456
 20
263.9922229423602
 10
164.0
 20
264.0
 10
163.53341974828544
 20
263.9922229423602
 10
161.84840480546148
 20
259.25314206736493
 10
161.54121907152606
 20
259.17629534974617
 10
161.2367650634484
 20
259.0892536924338
 10
157.40795887970887
 20
262.3509106493566
 10
157.0
 20
262.12435565298216
 10
156.59981817793098
 20
261.8843303976421
 10
157.51009286918665
 20
256.93765849789526
 10
157.2824855787278
 20
256.7175144212722
 10
157.06234150210474
 20
256.4899071308133
 10
152.11566960235794
 20
257.40018182206904
 10
151.87564434701787
 20
257.0
 10
151.64908935064338
 20
256.5920411202911
 10
154.91074630756623
 20
252.7632349365516
 10
154.82370465025386
 20
252.45878092847394
 10
154.74685793263507
 20
252.15159519453852
 10
150.00777705763983
 20
250.46658025171456
 10
150.0
 20
250.0
 10
150.00777705763983
 20
249.53341974828544
 10
154.74685793263507
 20
247.84840480546148
 10
154.82370465025386
 20
247.54121907152606
 10
154.91074630756623
 20
247.2367650634484
 10
151.64908935064338
 20
243.40795887970887
 10
151.87564434701784
 20
243.0
 10
152.1156696023579
 20
242.59981817793098
 10
157.06234150210474
 20
243.51009286918665
 10
157.2824855787278
 20
243.2824855787278
 10
157.51009286918665
 20
243.06234150210474
 10
156.59981817793098
 20
238.11566960235794
 10
157.0
 20
237.87564434701787
 10
157.40795887970887
 20
237.64908935064338
 10
161.2367650634484
 20
240.91074630756623
 10
161.54121907152603
 20
240.82370465025386
 10
161.84840480546148
 20
240.74685793263507
 10
163.53341974828544
 20
236.00777705763983
 10
164.0
 20
236.0
 10
164.46658025171456
 20
236.00777705763983
 10
166.15159519453852
 20
240.74685793263507
 10
166.45878092847394
 20
240.82370465025386
 10
166.7632349365516
 20
240.91074630756623
 10
170.59204112029113
 20
237.64908935064338
 10
171.0
 20
237.87564434701784
 10
171.400181822069
 20
238.1156696023579
 10
170.48990713081332
 20
243.06234150210474
 10
170.7175144212722
 20
243.2824855787278
 10
170.93765849789526
 20
243.51009286918665
 10
175.88433039764206
 20
242.59981817793098
 10
176.12435565298213
 20
243.0
 10
176.35091064935662
 20
243.40795887970884
 10
173.08925369243377
 20
247.2367650634484
 10
173.17629534974614
 20
247.54121907152603
 10
173.25314206736493
 20
247.84840480546148
  0
CIRCLE
  5
4E
330
17
100
AcDbEntity
  8
CUTS
100
AcDbCircle
 10
164.0
 20
250.0
 30
0.0
 40
2.9
  0
TEXT
  5
4F
330
17
100
AcDbEntity
  8
ENGRAVE
100
AcDbText
 10
158.0
 20
248.0
 30
0.0
 40
2.0
  1
M4 SM
 11
158.0
 21
248.0
 31
0.0
100
AcDbText
  0
LWPOLYLINE
  5
50
330
17
100
AcDbEntity
  8
CUTS
100
AcDbPolyline
 90
216
 70
1
 10
261.99765434512005
 20
249.5777864654242
 10
262.0
 20
250.0
 10
261.99765434512005
 20
250.4222135345758
 10
257.4029030117536
 20
252.54873897984498
 10
257.37252238607346
 20
252.91971738204654
 10
257.33802173828855
 20
253.29033532902048
 10
261.4937012062177
 20
256.1824242703711
 10
261.4226946144639
 20
256.59863075134336
 10
261.34706798448684
 20
257.01402259492494
 10
256.4528539798911
 20
258.310371144532
 10
256.35851518068375
 20
258.67043801093445
 10
256.26018154415857
 20
259.02943446390367
 10
259.8505209288926
 20
262.5992122423204
 10
259.7083195898645
 20
262.99676544637543
 10
259.5617098616733
 20
263.392714127994
 10
254.51674140178596
 20
263.81949688724313
 10
254.36131086572777
 20
264.15771176831345
 10
254.20213205824885
 20
264.4941788017154
 10
257.118040714382
 20
268.63317952579575
 10
256.9089653438087
 20
269.0
 10
256.6958271798062
 20
269.3644748193243
 10
251.65339307840387
 20
268.9087242100382
 10
251.44159348368123
 20
269.21481061776007
 10
251.2264060727655
 20
269.5185248510454
 10
253.3792855913022
 20
274.1009870782236
 10
253.10968883852115
 20
274.4259291680885
 10
252.83649833396763
 20
274.7478557421665
 10
247.94981039962656
 20
273.4234195159874
 10
247.68807716974933
 20
273.68807716974936
 10
247.4234195159874
 20
273.9498103996266
 10
248.74785574216648
 20
278.8364983339676
 10
248.4259291680885
 20
279.10968883852115
 10
248.10098707822365
 20
279.3792855913022
 10
243.5185248510454
 20
277.2264060727655
 10
243.21481061776004
 20
277.44159348368123
 10
242.9087242100382
 20
277.6533930784039
 10
243.3644748193243
 20
282.6958271798062
 10
243.0
 20
282.9089653438087
 10
242.63317952579575
 20
283.118040714382
 10
238.49417880171544
 20
280.2021320582489
 10
238.15771176831345
 20
280.3613108657278
 10
237.81949688724313
 20
280.51674140178596
 10
237.392714127994
 20
285.56170986167325
 10
236.9967654463754
 20
285.7083195898645
 10
236.59921224232036
 20
285.8505209288926
 10
233.02943446390364
 20
282.26018154415857
 10
232.67043801093445
 20
282.35851518068375
 10
232.310371144532
 20
282.452853979891
 10
231.01402259492497
 20
287.34706798448684
 10
230.59863075134336
 20
287.4226946144639
 10
230.1824242703711
 20
287.4937012062177
 10
227.29033532902048
 20
283.33802173828855
 10
226.91971738204654
 20
283.37252238607346
 10
226.54873897984498
 20
283.4029030117536
 10
224.4222135345758
 20
287.99765434512005
 10
224.0
 20
288.0
 10
223.5777864654242
 20
287.99765434512005
 10
221.45126102015502
 20
283.4029030117536
 10
221.08028261795346
 20
283.37252238607346
 10
220.70966467097955
 20
283.33802173828855
 10
217.8175757296289
 20
287.4937012062177
 10
217.40136924865664
 20
287.4226946144639
 10
216.98597740507506
 20
287.34706798448684
 10
215.68962885546802
 20
282.4528539798911
 10
215.32956198906555
 20
282.3585151806838
 10
214.97056553609636
 20
282.26018154415857
 10
211.40078775767964
 20
285.8505209288926
 10
211.0032345536246
 20
285.7083195898645
 10
210.607285872006
 20
285.56170986167325
 10
210.1805031127569
 20
280.51674140178596
 10
209.84228823168658
 20
280.3613108657278
 10
209.5058211982846
 20
280.2021320582489
 10
205.36682047420425
 20
283.118040714382
 10
205.0
 20
282.9089653438087
 10
204.6355251806757
 20
282.6958271798062
 10
205.0912757899618
 20
277.6533930784039
 10
204.78518938223996
 20
277.44159348368123
 10
204.4814751489546
 20
277.2264060727655
 10
199.89901292177635
 20
279.3792855913022
 10
199.5740708319115
 20
279.10968883852115
 10
199.25214425783352
 20
278.8364983339676
 10
200.5765804840126
 20
273.9498103996266
 10
200.31192283025067
 20
273.68807716974936
 10
200.05018960037344
 20
273.4234195159874
 10
195.16350166603237
 20
274.7478557421665
 10
194.89031116147885
 20
274.4259291680885
 10
194.6207144086978
 20
274.1009870782236
 10
196.77359392723451
 20
269.5185248510454
 10
196.55840651631877
 20
269.21481061776007
 10
196.34660692159613
 20
268.9087242100382
 10
191.30417282019377
 20
269.3644748193243
 10
191.0910346561913
 20
269.0
 10
190.88195928561797
 20
268.63317952579575
 10
193.79786794175115
 20
264.4941788017154
 10
193.63868913427223
 20
264.15771176831345
 10
193.48325859821404
 20
263.81949688724313
 10
188.43829013832672
 20
263.392714127994
 10
188.29168041013548
 20
262.99676544637543
 10
188.1494790711074
 20
262.5992122423204
 10
191.73981845584143
 20
259.02943446390367
 10
191.64148481931622
 20
258.67043801093445
 10
191.54714602010895
 20
258.310371144532
 10
186.65293201551316
 20
257.014022594925
 10
186.57730538553608
 20
256.59863075134336
 10
186.50629879378235
 20
256.1824242703711
 10
190.66197826171145
 20
253.29033532902048
 10
190.62747761392652
 20
252.91971738204657
 10
190.5970969882464
 20
252.54873897984498
 10
186.00234565487995
 20
250.4222135345758
 10
186.0
 20
250.0
 10
186.00234565487995
 20
249.5777864654242
 10
190.5970969882464
 20
247.45126102015502
 10
190.62747761392652
 20
247.08028261795346
 10
190.66197826171145
 20
246.70966467097955
 10
186.50629879378235
 20
243.81757572962894
 10
186.57730538553608
 20
243.40136924865666
 10
186.65293201551316
 20
242.98597740507506
 10
191.54714602010895
 20
241.68962885546802
 10
191.6414848193162
 20
241.32956198906555
 10
191.73981845584143
 20
240.97056553609636
 10
188.1494790711074
 20
237.40078775767964
 10
188.29168041013548
 20
237.0032345536246
 10
188.43829013832672
 20
236.607285872006
 10
193.48325859821404
 20
236.1805031127569
 10
193.63868913427223
 20
235.84228823168658
 10
193.79786794175115
 20
235.5058211982846
 10
190.88195928561797
 20
231.36682047420425
 10
191.0910346561913
 20
231.0
 10
191.30417282019377
 20
230.63552518067573
 10
196.3466069215961
 20
231.0912757899618
 10
196.55840651631877
 20
230.78518938223996
 10
196.7735939272345
 20
230.4814751489546
 10
194.6207144086978
 20
225.89901292177635
 10
194.89031116147885
 20
225.5740708319115
 10
195.16350166603237
 20
225.25214425783352
 10
200.05018960037344
 20
226.5765804840126
 10
200.31192283025064
 20
226.31192283025067
 10
200.5765804840126
 20
226.05018960037344
 10
199.25214425783352
 20
221.1635016660324
 10
199.5740708319115
 20
220.89031116147885
 10
199.89901292177635
 20
220.6207144086978
 10
204.48147514895456
 20
222.77359392723451
 10
204.78518938223993
 20
222.55840651631877
 10
205.0912757899618
 20
222.34660692159613
 10
204.6355251806757
 20
217.3041728201938
 10
204.99999999999997
 20
217.09103465619134
 10
205.36682047420422
 20
216.881959285618
 10
209.50582119828456
 20
219.79786794175115
 10
209.84228823168655
 20
219.63868913427223
 10
210.18050311275687
 20
219.48325859821404
 10
210.60728587200597
 20
214.43829013832675
 10
211.00323455362457
 20
214.29168041013548
 10
211.4007877576796
 20
214.14947907110744
 10
214.97056553609633
 20
217.73981845584143
 10
215.32956198906552
 20
217.64148481931622
 10
215.689628855468
 20
217.54714602010895
 10
216.98597740507506
 20
212.65293201551316
 10
217.40136924865664
 20
212.57730538553608
 10
217.8175757296289
 20
212.50629879378235
 10
220.70966467097952
 20
216.66197826171145
 10
221.08028261795346
 20
216.62747761392652
 10
221.45126102015502
 20
216.5970969882464
 10
223.5777864654242
 20
212.00234565487995
 10
224.0
 20
212.0
 10
224.4222135345758
 20
212.00234565487995
 10
226.54873897984498
 20
216.5970969882464
 10
226.91971738204654
 20
216.62747761392652
 10
227.29033532902045
 20
216.66197826171145
 10
230.18242427037106
 20
212.50629879378235
 10
230.59863075134334
 20
212.57730538553608
 10
231.01402259492494
 20
212.65293201551316
 10
232.31037114453198
 20
217.54714602010895
 10
232.67043801093442
 20
217.6414848193162
 10
233.02943446390364
 20
217.73981845584143
 10
236.59921224232033
 20
214.1494790711074
 10
236.99676544637538
 20
214.29168041013548
 10
237.39271412799397
 20
214.43829013832672
 10
237.8194968872431
 20
219.48325859821404
 10
238.15771176831342
 20
219.63868913427223
 10
238.4941788017154
 20
219.79786794175112
 10
242.63317952579575
 20
216.88195928561797
 10
243.0
 20
217.09103465619134
 10
243.3644748193243
 20
217.30417282019377
 10
242.9087242100382
 20
222.34660692159613
 10
243.21481061776004
 20
222.55840651631877
 10
243.5185248510454
 20
222.77359392723451
 10
248.10098707822365
 20
220.6207144086978
 10
248.4259291680885
 20
220.89031116147885
 10
248.74785574216648
 20
221.16350166603237
 10
247.4234195159874
 20
226.05018960037341
 10
247.68807716974933
 20
226.31192283025064
 10
247.94981039962656
 20
226.5765804840126
 10
252.83649833396763
 20
225.2521442578335
 10
253.10968883852115
 20
225.5740708319115
 10
253.3792855913022
 20
225.89901292177635
 10
251.22640607276549
 20
230.48147514895456
 10
251.44159348368123
 20
230.78518938223993
 10
251.65339307840387
 20
231.0912757899618
 10
256.6958271798062
 20
230.6355251806757
 10
256.90896534380863
 20
231.0
 10
257.118040714382
 20
231.36682047420422
 10
254.20213205824885
 20
235.50582119828456
 10
254.36131086572777
 20
235.84228823168655
 10
254.51674140178596
 20
236.18050311275687
 10
259.56170986167325
 20
236.60728587200597
 10
259.7083195898645
 20
237.00323455362457
 10
259.8505209288926
 20
237.4007877576796
 10
256.26018154415857
 20
240.97056553609633
 10
256.35851518068375
 20
241.32956198906552
 10
256.4528539798911
 20
241.68962885546796
 10
261.34706798448684
 20
242.98597740507506
 10
261.4226946144639
 20
243.40136924865664
 10
261.4937012062177
 20
243.8175757296289
 10
257.33802173828855
 20
246.70966467097952
 10
257.37252238607346
 20
247.08028261795346
 10
257.4029030117536
 20
247.45126102015502
  0
CIRCLE
  5
51
330
17
100
AcDbEntity
  8
CUTS
100
AcDbCircle
 10
224.0
 20
250.0
 30
0.0
 40
1.6
  0
TEXT
  5
52
330
17
100
AcDbEntity
  8
ENGRAVE
100
AcDbText
 10
218.0
 20
248.0
 30
0.0
 40
2.0
  1
M4 LG
 11
218.0
 21
248.0
 31
0.0
100
AcDbText
  0
CIRCLE
  5
53
330
17
100
AcDbEntity
  8
CUTS
100
AcDbCircle
 10
290.0
 20
250.0
 30
0.0
 40
20.0
  0
CIRCLE
  5
54
330
17
100
AcDbEntity
  8
CUTS
100
AcDbCircle
 10
290.0
 20
250.0
 30
0.0
 40
1.6
  0
CIRCLE
  5
55
330
17
100
AcDbEntity
  8
CUTS
100
AcDbCircle
 10
305.0
 20
250.0
 30
0.0
 40
1.5
  0
TEXT
  5
56
330
17
100
AcDbEntity
  8
ENGRAVE
100
AcDbText
 10
280.0
 20
248.0
 30
0.0
 40
3.0
  1
M4 DRUM
 11
280.0
 21
248.0
 31
0.0
100
AcDbText
  0
ENDSEC
  0
SECTION
  2
OBJECTS
  0
DICTIONARY
  5
A
330
0
100
AcDbDictionary
281
1
  3
ACAD_COLOR
350
B
  3
ACAD_GROUP
350
C
  3
ACAD_LAYOUT
350
D
  3
ACAD_MATERIAL
350
E
  3
ACAD_MLEADERSTYLE
350
F
  3
ACAD_MLINESTYLE
350
10
  3
ACAD_PLOTSETTINGS
350
11
  3
ACAD_PLOTSTYLENAME
350
12
  3
ACAD_SCALELIST
350
14
  3
ACAD_TABLESTYLE
350
15
  3
ACAD_VISUALSTYLE
350
16
  3
EZDXF_META
350
2D
  0
DICTIONARY
  5
B
330
A
100
AcDbDictionary
281
1
  0
DICTIONARY
  5
C
330
A
100
AcDbDictionary
281
1
  0
DICTIONARY
  5
D
330
A
100
AcDbDictionary
281
1
  3
Model
350
1A
  3
Layout1
350
1E
  0
DICTIONARY
  5
E
330
A
100
AcDbDictionary
281
1
  3
ByBlock
350
1F
  3
ByLayer
350
20
  3
Global
350
21
  0
DICTIONARY
  5
F
330
A
100
AcDbDictionary
281
1
  3
Standard
350
2C
  0
DICTIONARY
  5
10
330
A
100
AcDbDictionary
281
1
  3
Standard
350
22
  0
DICTIONARY
  5
11
330
A
100
AcDbDictionary
281
1
  0
ACDBDICTIONARYWDFLT
  5
12
330
A
100
AcDbDictionary
281
1
  3
Normal
350
13
100
AcDbDictionaryWithDefault
340
13
  0
ACDBPLACEHOLDER
  5
13
330
12
  0
DICTIONARY
  5
14
330
A
100
AcDbDictionary
281
1
  0
DICTIONARY
  5
15
330
A
100
AcDbDictionary
281
1
  0
DICTIONARY
  5
16
330
A
100
AcDbDictionary
281
1
  0
LAYOUT
  5
1A
330
D
100
AcDbPlotSettings
  1

  4
A3
  6

 40
7.5
 41
20.0
 42
7.5
 43
20.0
 44
420.0
 45
297.0
 46
0.0
 47
0.0
 48
0.0
 49
0.0
140
0.0
141
0.0
142
1.0
143
1.0
 70
1024
 72
1
 73
0
 74
5
  7

 75
16
 76
0
 77
2
 78
300
147
1.0
148
0.0
149
0.0
100
AcDbLayout
  1
Model
 70
1
 71
0
 10
0.0
 20
0.0
 11
420.0
 21
297.0
 12
0.0
 22
0.0
 32
0.0
 14
1e+20
 24
1e+20
 34
1e+20
 15
-1e+20
 25
-1e+20
 35
-1e+20
146
0.0
 13
0.0
 23
0.0
 33
0.0
 16
1.0
 26
0.0
 36
0.0
 17
0.0
 27
1.0
 37
0.0
 76
1
330
17
  0
LAYOUT
  5
1E
330
D
100
AcDbPlotSettings
  1

  4
A3
  6

 40
7.5
 41
20.0
 42
7.5
 43
20.0
 44
420.0
 45
297.0
 46
0.0
 47
0.0
 48
0.0
 49
0.0
140
0.0
141
0.0
142
1.0
143
1.0
 70
0
 72
1
 73
0
 74
5
  7

 75
16
 76
0
 77
2
 78
300
147
1.0
148
0.0
149
0.0
100
AcDbLayout
  1
Layout1
 70
1
 71
1
 10
0.0
 20
0.0
 11
420.0
 21
297.0
 12
0.0
 22
0.0
 32
0.0
 14
1e+20
 24
1e+20
 34
1e+20
 15
-1e+20
 25
-1e+20
 35
-1e+20
146
0.0
 13
0.0
 23
0.0
 33
0.0
 16
1.0
 26
0.0
 36
0.0
 17
0.0
 27
1.0
 37
0.0
 76
1
330
1B
  0
MATERIAL
  5
1F
102
{ACAD_REACTORS
330
E
102
}
330
E
100
AcDbMaterial
  1
ByBlock
  2

 70
0
 40
1.0
 71
1
 41
1.0
 91
-1023410177
 42
1.0
 72
1
  3

 73
1
 74
1
 75
1
 44
0.5
 73
0
 45
1.0
 46
1.0
 77
1
  4

 78
1
 79
1
170
1
 48
1.0
171
1
  6

172
1
173
1
174
1
140
1.0
141
1.0
175
1
  7

176
1
177
1
178
1
143
1.0
179
1
  8

270
1
271
1
272
1
145
1.0
146
1.0
273
1
  9

274
1
275
1
276
1
 42
1.0
 72
1
  3

 73
1
 74
1
 75
1
 94
63
  0
MATERIAL
  5
20
102
{ACAD_REACTORS
330
E
102
}
330
E
100
AcDbMaterial
  1
ByLayer
  2

 70
0
 40
1.0
 71
1
 41
1.0
 91
-1023410177
 42
1.0
 72
1
  3

 73
1
 74
1
 75
1
 44
0.5
 73
0
 45
1.0
 46
1.0
 77
1
  4

 78
1
 79
1
170
1
 48
1.0
171
1
  6

172
1
173
1
174
1
140
1.0
141
1.0
175
1
  7

176
1
177
1
178
1
143
1.0
179
1
  8

270
1
271
1
272
1
145
1.0
146
1.0
273
1
  9

274
1
275
1
276
1
 42
1.0
 72
1
  3

 73
1
 74
1
 75
1
 94
63
  0
MATERIAL
  5
21
102
{ACAD_REACTORS
330
E
102
}
330
E
100
AcDbMaterial
  1
Global
  2

 70
0
 40
1.0
 71
1
 41
1.0
 91
-1023410177
 42
1.0
 72
1
  3

 73
1
 74
1
 75
1
 44
0.5
 73
0
 45
1.0
 46
1.0
 77
1
  4

 78
1
 79
1
170
1
 48
1.0
171
1
  6

172
1
173
1
174
1
140
1.0
141
1.0
175
1
  7

176
1
177
1
178
1
143
1.0
179
1
  8

270
1
271
1
272
1
145
1.0
146
1.0
273
1
  9

274
1
275
1
276
1
 42
1.0
 72
1
  3

 73
1
 74
1
 75
1
 94
63
  0
MLINESTYLE
  5
22
102
{ACAD_REACTORS
330
10
102
}
330
10
100
AcDbMlineStyle
  2
Standard
 70
0
  3

 62
256
 51
90.0
 52
90.0
 71
2
 49
0.5
 62
256
  6
BYLAYER
 49
-0.5
 62
256
  6
BYLAYER
  0
MLEADERSTYLE
  5
2C
102
{ACAD_REACTORS
330
F
102
}
330
F
100
AcDbMLeaderStyle
179
2
170
2
171
1
172
0
 90
2
 40
0.0
 41
0.0
173
1
 91
-1056964608
 92
-2
290
1
 42
2.0
291
1
 43
8.0
  3
Standard
 44
4.0
300

342
29
174
1
175
1
176
0
178
1
 93
-1056964608
 45
4.0
292
0
297
0
 46
4.0
 94
-1056964608
 47
1.0
 49
1.0
140
1.0
294
1
141
0.0
177
0
142
1.0
295
0
296
0
143
3.75
271
0
272
9
273
9
  0
DICTIONARY
  5
2D
330
A
100
AcDbDictionary
280
1
281
1
  3
CREATED_BY_EZDXF
350
2E
  3
WRITTEN_BY_EZDXF
350
59
  0
DICTIONARYVAR
  5
2E
330
2D
100
DictionaryVariables
280
0
  1
1.4.3 @ 2026-03-19T20:22:45.594413+00:00
  0
DICTIONARYVAR
  5
59
330
2D
100
DictionaryVariables
280
0
  1
1.4.3 @ 2026-03-19T20:22:45.595939+00:00
  0
ENDSEC
  0
EOF
