  0
SECTION
  2
HEADER
  9
$ACADVER
  1
AC1024
  9
$ACADMAINTVER
 70
6
  9
$DWGCODEPAGE
  3
ANSI_1252
  9
$LASTSAVEDBY
  1
ezdxf
  9
$INSBASE
 10
0.0
 20
0.0
 30
0.0
  9
$EXTMIN
 10
1e+20
 20
1e+20
 30
1e+20
  9
$EXTMAX
 10
-1e+20
 20
-1e+20
 30
-1e+20
  9
$LIMMIN
 10
0.0
 20
0.0
  9
$LIMMAX
 10
420.0
 20
297.0
  9
$ORTHOMODE
 70
0
  9
$REGENMODE
 70
1
  9
$FILLMODE
 70
1
  9
$QTEXTMODE
 70
0
  9
$MIRRTEXT
 70
1
  9
$LTSCALE
 40
1.0
  9
$ATTMODE
 70
1
  9
$TEXTSIZE
 40
2.5
  9
$TRACEWID
 40
1.0
  9
$TEXTSTYLE
  7
Standard
  9
$CLAYER
  8
0
  9
$CELTYPE
  6
ByLayer
  9
$CECOLOR
 62
256
  9
$CELTSCALE
 40
1.0
  9
$DISPSILH
 70
0
  9
$DIMSCALE
 40
1.0
  9
$DIMASZ
 40
2.5
  9
$DIMEXO
 40
0.625
  9
$DIMDLI
 40
3.75
  9
$DIMRND
 40
0.0
  9
$DIMDLE
 40
0.0
  9
$DIMEXE
 40
1.25
  9
$DIMTP
 40
0.0
  9
$DIMTM
 40
0.0
  9
$DIMTXT
 40
2.5
  9
$DIMCEN
 40
2.5
  9
$DIMTSZ
 40
0.0
  9
$DIMTOL
 70
0
  9
$DIMLIM
 70
0
  9
$DIMTIH
 70
0
  9
$DIMTOH
 70
0
  9
$DIMSE1
 70
0
  9
$DIMSE2
 70
0
  9
$DIMTAD
 70
1
  9
$DIMZIN
 70
8
  9
$DIMBLK
  1

  9
$DIMASO
 70
1
  9
$DIMSHO
 70
1
  9
$DIMPOST
  1

  9
$DIMAPOST
  1

  9
$DIMALT
 70
0
  9
$DIMALTD
 70
3
  9
$DIMALTF
 40
0.03937007874
  9
$DIMLFAC
 40
1.0
  9
$DIMTOFL
 70
1
  9
$DIMTVP
 40
0.0
  9
$DIMTIX
 70
0
  9
$DIMSOXD
 70
0
  9
$DIMSAH
 70
0
  9
$DIMBLK1
  1

  9
$DIMBLK2
  1

  9
$DIMSTYLE
  2
ISO-25
  9
$DIMCLRD
 70
0
  9
$DIMCLRE
 70
0
  9
$DIMCLRT
 70
0
  9
$DIMTFAC
 40
1.0
  9
$DIMGAP
 40
0.625
  9
$DIMJUST
 70
0
  9
$DIMSD1
 70
0
  9
$DIMSD2
 70
0
  9
$DIMTOLJ
 70
0
  9
$DIMTZIN
 70
8
  9
$DIMALTZ
 70
0
  9
$DIMALTTZ
 70
0
  9
$DIMUPT
 70
0
  9
$DIMDEC
 70
2
  9
$DIMTDEC
 70
2
  9
$DIMALTU
 70
2
  9
$DIMALTTD
 70
3
  9
$DIMTXSTY
  7
Standard
  9
$DIMAUNIT
 70
0
  9
$DIMADEC
 70
0
  9
$DIMALTRND
 40
0.0
  9
$DIMAZIN
 70
0
  9
$DIMDSEP
 70
44
  9
$DIMATFIT
 70
3
  9
$DIMFRAC
 70
0
  9
$DIMLDRBLK
  1

  9
$DIMLUNIT
 70
2
  9
$DIMLWD
 70
-2
  9
$DIMLWE
 70
-2
  9
$DIMTMOVE
 70
0
  9
$DIMFXL
 40
1.0
  9
$DIMFXLON
 70
0
  9
$DIMJOGANG
 40
0.785398163397
  9
$DIMTFILL
 70
0
  9
$DIMTFILLCLR
 70
0
  9
$DIMARCSYM
 70
0
  9
$DIMLTYPE
  6

  9
$DIMLTEX1
  6

  9
$DIMLTEX2
  6

  9
$DIMTXTDIRECTION
 70
0
  9
$LUNITS
 70
2
  9
$LUPREC
 70
4
  9
$SKETCHINC
 40
1.0
  9
$FILLETRAD
 40
10.0
  9
$AUNITS
 70
0
  9
$AUPREC
 70
2
  9
$MENU
  1
.
  9
$ELEVATION
 40
0.0
  9
$PELEVATION
 40
0.0
  9
$THICKNESS
 40
0.0
  9
$LIMCHECK
 70
0
  9
$CHAMFERA
 40
0.0
  9
$CHAMFERB
 40
0.0
  9
$CHAMFERC
 40
0.0
  9
$CHAMFERD
 40
0.0
  9
$SKPOLY
 70
0
  9
$TDCREATE
 40
2461119.978090278
  9
$TDUCREATE
 40
2458532.153996898
  9
$TDUPDATE
 40
2461119.978090278
  9
$TDUUPDATE
 40
2458532.1544311
  9
$TDINDWG
 40
0.0
  9
$TDUSRTIMER
 40
0.0
  9
$USRTIMER
 70
1
  9
$ANGBASE
 50
0.0
  9
$ANGDIR
 70
0
  9
$PDMODE
 70
0
  9
$PDSIZE
 40
0.0
  9
$PLINEWID
 40
0.0
  9
$SPLFRAME
 70
0
  9
$SPLINETYPE
 70
6
  9
$SPLINESEGS
 70
8
  9
$HANDSEED
  5
85
  9
$SURFTAB1
 70
6
  9
$SURFTAB2
 70
6
  9
$SURFTYPE
 70
6
  9
$SURFU
 70
6
  9
$SURFV
 70
6
  9
$UCSBASE
  2

  9
$UCSNAME
  2

  9
$UCSORG
 10
0.0
 20
0.0
 30
0.0
  9
$UCSXDIR
 10
1.0
 20
0.0
 30
0.0
  9
$UCSYDIR
 10
0.0
 20
1.0
 30
0.0
  9
$UCSORTHOREF
  2

  9
$UCSORTHOVIEW
 70
0
  9
$UCSORGTOP
 10
0.0
 20
0.0
 30
0.0
  9
$UCSORGBOTTOM
 10
0.0
 20
0.0
 30
0.0
  9
$UCSORGLEFT
 10
0.0
 20
0.0
 30
0.0
  9
$UCSORGRIGHT
 10
0.0
 20
0.0
 30
0.0
  9
$UCSORGFRONT
 10
0.0
 20
0.0
 30
0.0
  9
$UCSORGBACK
 10
0.0
 20
0.0
 30
0.0
  9
$PUCSBASE
  2

  9
$PUCSNAME
  2

  9
$PUCSORG
 10
0.0
 20
0.0
 30
0.0
  9
$PUCSXDIR
 10
1.0
 20
0.0
 30
0.0
  9
$PUCSYDIR
 10
0.0
 20
1.0
 30
0.0
  9
$PUCSORTHOREF
  2

  9
$PUCSORTHOVIEW
 70
0
  9
$PUCSORGTOP
 10
0.0
 20
0.0
 30
0.0
  9
$PUCSORGBOTTOM
 10
0.0
 20
0.0
 30
0.0
  9
$PUCSORGLEFT
 10
0.0
 20
0.0
 30
0.0
  9
$PUCSORGRIGHT
 10
0.0
 20
0.0
 30
0.0
  9
$PUCSORGFRONT
 10
0.0
 20
0.0
 30
0.0
  9
$PUCSORGBACK
 10
0.0
 20
0.0
 30
0.0
  9
$USERI1
 70
0
  9
$USERI2
 70
0
  9
$USERI3
 70
0
  9
$USERI4
 70
0
  9
$USERI5
 70
0
  9
$USERR1
 40
0.0
  9
$USERR2
 40
0.0
  9
$USERR3
 40
0.0
  9
$USERR4
 40
0.0
  9
$USERR5
 40
0.0
  9
$WORLDVIEW
 70
1
  9
$SHADEDGE
 70
3
  9
$SHADEDIF
 70
70
  9
$TILEMODE
 70
1
  9
$MAXACTVP
 70
64
  9
$PINSBASE
 10
0.0
 20
0.0
 30
0.0
  9
$PLIMCHECK
 70
0
  9
$PEXTMIN
 10
1e+20
 20
1e+20
 30
1e+20
  9
$PEXTMAX
 10
-1e+20
 20
-1e+20
 30
-1e+20
  9
$PLIMMIN
 10
0.0
 20
0.0
  9
$PLIMMAX
 10
420.0
 20
297.0
  9
$UNITMODE
 70
0
  9
$VISRETAIN
 70
1
  9
$PLINEGEN
 70
0
  9
$PSLTSCALE
 70
1
  9
$TREEDEPTH
 70
3020
  9
$CMLSTYLE
  2
Standard
  9
$CMLJUST
 70
0
  9
$CMLSCALE
 40
20.0
  9
$PROXYGRAPHICS
 70
1
  9
$MEASUREMENT
 70
1
  9
$CELWEIGHT
370
-1
  9
$ENDCAPS
280
0
  9
$JOINSTYLE
280
0
  9
$LWDISPLAY
290
0
  9
$INSUNITS
 70
6
  9
$HYPERLINKBASE
  1

  9
$STYLESHEET
  1

  9
$XEDIT
290
1
  9
$CEPSNTYPE
380
0
  9
$PSTYLEMODE
290
1
  9
$FINGERPRINTGUID
  2
{5AFCE105-4BD4-43A6-A0B9-8382ABB6A60E}
  9
$VERSIONGUID
  2
{89D6CAA2-5C5E-437A-87D1-DB928E92A013}
  9
$EXTNAMES
290
1
  9
$PSVPSCALE
 40
0.0
  9
$OLESTARTUP
290
0
  9
$SORTENTS
280
127
  9
$INDEXCTL
280
0
  9
$HIDETEXT
280
1
  9
$XCLIPFRAME
280
1
  9
$HALOGAP
280
0
  9
$OBSCOLOR
 70
257
  9
$OBSLTYPE
280
0
  9
$INTERSECTIONDISPLAY
280
0
  9
$INTERSECTIONCOLOR
 70
257
  9
$DIMASSOC
280
2
  9
$PROJECTNAME
  1

  9
$CAMERADISPLAY
290
0
  9
$LENSLENGTH
 40
50.0
  9
$CAMERAHEIGHT
 40
0.0
  9
$STEPSPERSEC
 40
24.0
  9
$STEPSIZE
 40
100.0
  9
$3DDWFPREC
 40
2.0
  9
$PSOLWIDTH
 40
0.005
  9
$PSOLHEIGHT
 40
0.08
  9
$LOFTANG1
 40
1.570796326795
  9
$LOFTANG2
 40
1.570796326795
  9
$LOFTMAG1
 40
0.0
  9
$LOFTMAG2
 40
0.0
  9
$LOFTPARAM
 70
7
  9
$LOFTNORMALS
280
1
  9
$LATITUDE
 40
37.795
  9
$LONGITUDE
 40
-122.394
  9
$NORTHDIRECTION
 40
0.0
  9
$TIMEZONE
 70
-8000
  9
$LIGHTGLYPHDISPLAY
280
1
  9
$TILEMODELIGHTSYNCH
280
1
  9
$CMATERIAL
347
20
  9
$SOLIDHIST
280
0
  9
$SHOWHIST
280
1
  9
$DWFFRAME
280
2
  9
$DGNFRAME
280
2
  9
$REALWORLDSCALE
290
1
  9
$INTERFERECOLOR
 62
256
  9
$CSHADOW
280
0
  9
$SHADOWPLANELOCATION
 40
0.0
  0
ENDSEC
  0
SECTION
  2
CLASSES
  0
CLASS
  1
ACDBDICTIONARYWDFLT
  2
AcDbDictionaryWithDefault
  3
ObjectDBX Classes
 90
0
 91
0
280
0
281
0
  0
CLASS
  1
SUN
  2
AcDbSun
  3
SCENEOE
 90
1153
 91
0
280
0
281
0
  0
CLASS
  1
VISUALSTYLE
  2
AcDbVisualStyle
  3
ObjectDBX Classes
 90
4095
 91
0
280
0
281
0
  0
CLASS
  1
MATERIAL
  2
AcDbMaterial
  3
ObjectDBX Classes
 90
1153
 91
0
280
0
281
0
  0
CLASS
  1
SCALE
  2
AcDbScale
  3
ObjectDBX Classes
 90
1153
 91
0
280
0
281
0
  0
CLASS
  1
TABLESTYLE
  2
AcDbTableStyle
  3
ObjectDBX Classes
 90
4095
 91
0
280
0
281
0
  0
CLASS
  1
MLEADERSTYLE
  2
AcDbMLeaderStyle
  3
ACDB_MLEADERSTYLE_CLASS
 90
4095
 91
0
280
0
281
0
  0
CLASS
  1
DICTIONARYVAR
  2
AcDbDictionaryVar
  3
ObjectDBX Classes
 90
0
 91
0
280
0
281
0
  0
CLASS
  1
CELLSTYLEMAP
  2
AcDbCellStyleMap
  3
ObjectDBX Classes
 90
1152
 91
0
280
0
281
0
  0
CLASS
  1
MENTALRAYRENDERSETTINGS
  2
AcDbMentalRayRenderSettings
  3
SCENEOE
 90
1024
 91
0
280
0
281
0
  0
CLASS
  1
ACDBDETAILVIEWSTYLE
  2
AcDbDetailViewStyle
  3
ObjectDBX Classes
 90
1025
 91
0
280
0
281
0
  0
CLASS
  1
ACDBSECTIONVIEWSTYLE
  2
AcDbSectionViewStyle
  3
ObjectDBX Classes
 90
1025
 91
0
280
0
281
0
  0
CLASS
  1
RASTERVARIABLES
  2
AcDbRasterVariables
  3
ISM
 90
0
 91
0
280
0
281
0
  0
CLASS
  1
ACDBPLACEHOLDER
  2
AcDbPlaceHolder
  3
ObjectDBX Classes
 90
0
 91
0
280
0
281
0
  0
CLASS
  1
LAYOUT
  2
AcDbLayout
  3
ObjectDBX Classes
 90
0
 91
0
280
0
281
0
  0
ENDSEC
  0
SECTION
  2
TABLES
  0
TABLE
  2
VPORT
  5
8
330
0
100
AcDbSymbolTable
 70
1
  0
VPORT
  5
23
330
8
100
AcDbSymbolTableRecord
100
AcDbViewportTableRecord
  2
*Active
 70
0
 10
0.0
 20
0.0
 11
1.0
 21
1.0
 12
0.0
 22
0.0
 13
0.0
 23
0.0
 14
0.5
 24
0.5
 15
0.5
 25
0.5
 16
0.0
 26
0.0
 36
1.0
 17
0.0
 27
0.0
 37
0.0
 40
1000.0
 41
1.34
 42
50.0
 43
0.0
 44
0.0
 50
0.0
 51
0.0
 71
0
 72
1000
 73
1
 74
3
 75
0
 76
0
 77
0
 78
0
281
0
 65
0
146
0.0
  0
ENDTAB
  0
TABLE
  2
LTYPE
  5
2
330
0
100
AcDbSymbolTable
 70
3
  0
LTYPE
  5
24
330
2
100
AcDbSymbolTableRecord
100
AcDbLinetypeTableRecord
  2
ByBlock
 70
0
  3

 72
65
 73
0
 40
0.0
  0
LTYPE
  5
25
330
2
100
AcDbSymbolTableRecord
100
AcDbLinetypeTableRecord
  2
ByLayer
 70
0
  3

 72
65
 73
0
 40
0.0
  0
LTYPE
  5
26
330
2
100
AcDbSymbolTableRecord
100
AcDbLinetypeTableRecord
  2
Continuous
 70
0
  3

 72
65
 73
0
 40
0.0
  0
ENDTAB
  0
TABLE
  2
LAYER
  5
1
330
0
100
AcDbSymbolTable
 70
6
  0
LAYER
  5
27
330
1
100
AcDbSymbolTableRecord
100
AcDbLayerTableRecord
  2
0
 70
0
 62
7
  6
Continuous
370
-3
390
13
347
21
  0
LAYER
  5
28
330
1
100
AcDbSymbolTableRecord
100
AcDbLayerTableRecord
  2
Defpoints
 70
0
 62
7
  6
Continuous
290
0
370
-3
390
13
347
21
  0
LAYER
  5
2F
330
1
100
AcDbSymbolTableRecord
100
AcDbLayerTableRecord
  2
CUTS
 70
0
 62
7
  6
Continuous
370
-3
390
13
347
21
  0
LAYER
  5
30
330
1
100
AcDbSymbolTableRecord
100
AcDbLayerTableRecord
  2
ENGRAVE
 70
0
 62
1
  6
Continuous
370
-3
390
13
347
21
  0
LAYER
  5
31
330
1
100
AcDbSymbolTableRecord
100
AcDbLayerTableRecord
  2
GUIDE
 70
0
 62
3
  6
Continuous
370
-3
390
13
347
21
  0
LAYER
  5
32
330
1
100
AcDbSymbolTableRecord
100
AcDbLayerTableRecord
  2
SHEET
 70
0
 62
8
  6
Continuous
370
-3
390
13
347
21
  0
ENDTAB
  0
TABLE
  2
STYLE
  5
5
330
0
100
AcDbSymbolTable
 70
1
  0
STYLE
  5
29
330
5
100
AcDbSymbolTableRecord
100
AcDbTextStyleTableRecord
  2
Standard
 70
0
 40
0.0
 41
1.0
 50
0.0
 71
0
 42
2.5
  3
txt
  4

  0
ENDTAB
  0
TABLE
  2
VIEW
  5
7
330
0
100
AcDbSymbolTable
 70
0
  0
ENDTAB
  0
TABLE
  2
UCS
  5
6
330
0
100
AcDbSymbolTable
 70
0
  0
ENDTAB
  0
TABLE
  2
APPID
  5
3
330
0
100
AcDbSymbolTable
 70
3
  0
APPID
  5
2A
330
3
100
AcDbSymbolTableRecord
100
AcDbRegAppTableRecord
  2
ACAD
 70
0
  0
APPID
  5
82
330
3
100
AcDbSymbolTableRecord
100
AcDbRegAppTableRecord
  2
HATCHBACKGROUNDCOLOR
 70
0
  0
APPID
  5
83
330
3
100
AcDbSymbolTableRecord
100
AcDbRegAppTableRecord
  2
EZDXF
 70
0
  0
ENDTAB
  0
TABLE
  2
DIMSTYLE
  5
4
330
0
100
AcDbSymbolTable
 70
1
100
AcDbDimStyleTable
  0
DIMSTYLE
105
2B
330
4
100
AcDbSymbolTableRecord
100
AcDbDimStyleTableRecord
  2
Standard
 70
0
 40
1.0
 41
2.5
 42
0.625
 43
3.75
 44
1.25
 45
0.0
 46
0.0
 47
0.0
 48
0.0
 49
2.5
140
2.5
141
2.5
142
0.0
143
0.03937007874
144
1.0
145
0.0
146
1.0
147
0.625
148
0.0
 69
0
 70
0
 71
0
 72
0
 73
0
 74
0
 75
0
 76
0
 77
1
 78
8
 79
3
170
0
171
3
172
1
173
0
174
0
175
0
176
0
177
0
178
0
179
2
271
2
272
2
273
2
274
3
275
0
276
0
277
2
278
44
279
0
280
0
281
0
282
0
283
0
284
8
285
0
286
0
288
0
289
3
290
0
371
-2
372
-2
  0
ENDTAB
  0
TABLE
  2
BLOCK_RECORD
  5
9
330
0
100
AcDbSymbolTable
 70
2
  0
BLOCK_RECORD
  5
17
330
9
100
AcDbSymbolTableRecord
100
AcDbBlockTableRecord
  2
*Model_Space
340
1A
 70
0
280
1
281
0
  0
BLOCK_RECORD
  5
1B
330
9
100
AcDbSymbolTableRecord
100
AcDbBlockTableRecord
  2
*Paper_Space
340
1E
 70
0
280
1
281
0
  0
ENDTAB
  0
ENDSEC
  0
SECTION
  2
BLOCKS
  0
BLOCK
  5
18
330
17
100
AcDbEntity
  8
0
100
AcDbBlockBegin
  2
*Model_Space
 70
0
 10
0.0
 20
0.0
 30
0.0
  3
*Model_Space
  1

  0
ENDBLK
  5
19
330
17
100
AcDbEntity
  8
0
100
AcDbBlockEnd
  0
BLOCK
  5
1C
330
1B
100
AcDbEntity
  8
0
100
AcDbBlockBegin
  2
*Paper_Space
 70
0
 10
0.0
 20
0.0
 30
0.0
  3
*Paper_Space
  1

  0
ENDBLK
  5
1D
330
1B
100
AcDbEntity
  8
0
100
AcDbBlockEnd
  0
ENDSEC
  0
SECTION
  2
ENTITIES
  0
LWPOLYLINE
  5
33
330
17
100
AcDbEntity
  8
SHEET
 62
8
100
AcDbPolyline
 90
4
 70
1
 10
0.0
 20
0.0
 10
400.0
 20
0.0
 10
400.0
 20
600.0
 10
0.0
 20
600.0
  0
LWPOLYLINE
  5
34
330
17
100
AcDbEntity
  8
CUTS
100
AcDbPolyline
 90
4
 70
1
 10
62.0
 20
157.5
 10
202.0
 20
157.5
 10
202.0
 20
257.5
 10
62.0
 20
257.5
  0
TEXT
  5
35
330
17
100
AcDbEntity
  8
ENGRAVE
100
AcDbText
 10
67.0
 20
249.5
 30
0.0
 40
3.0
  1
M5 BASE
 11
67.0
 21
249.5
 31
0.0
100
AcDbText
  0
LWPOLYLINE
  5
36
330
17
100
AcDbEntity
  8
CUTS
100
AcDbPolyline
 90
4
 70
1
 10
80.55
 20
187.5
 10
83.45
 20
187.5
 10
83.45
 20
197.5
 10
80.55
 20
197.5
  0
LWPOLYLINE
  5
37
330
17
100
AcDbEntity
  8
CUTS
100
AcDbPolyline
 90
4
 70
1
 10
80.55
 20
217.5
 10
83.45
 20
217.5
 10
83.45
 20
227.5
 10
80.55
 20
227.5
  0
LWPOLYLINE
  5
38
330
17
100
AcDbEntity
  8
CUTS
100
AcDbPolyline
 90
4
 70
1
 10
180.55
 20
187.5
 10
183.45
 20
187.5
 10
183.45
 20
197.5
 10
180.55
 20
197.5
  0
LWPOLYLINE
  5
39
330
17
100
AcDbEntity
  8
CUTS
100
AcDbPolyline
 90
4
 70
1
 10
180.55
 20
217.5
 10
183.45
 20
217.5
 10
183.45
 20
227.5
 10
180.55
 20
227.5
  0
LWPOLYLINE
  5
3A
330
17
100
AcDbEntity
  8
CUTS
100
AcDbPolyline
 90
4
 70
1
 10
210.0
 20
157.5
 10
270.0
 20
157.5
 10
270.0
 20
297.5
 10
210.0
 20
297.5
  0
LWPOLYLINE
  5
3B
330
17
100
AcDbEntity
  8
CUTS
100
AcDbPolyline
 90
4
 70
1
 10
220.0
 20
154.5
 10
230.0
 20
154.5
 10
230.0
 20
157.5
 10
220.0
 20
157.5
  0
LWPOLYLINE
  5
3C
330
17
100
AcDbEntity
  8
CUTS
100
AcDbPolyline
 90
4
 70
1
 10
250.0
 20
154.5
 10
260.0
 20
154.5
 10
260.0
 20
157.5
 10
250.0
 20
157.5
  0
CIRCLE
  5
3D
330
17
100
AcDbEntity
  8
CUTS
100
AcDbCircle
 10
240.0
 20
192.5
 30
0.0
 40
1.6
  0
LWPOLYLINE
  5
3E
330
17
100
AcDbEntity
  8
CUTS
100
AcDbPolyline
 90
4
 70
1
 10
238.55
 20
250.0
 10
241.45000000000002
 20
250.0
 10
241.45000000000002
 20
285.0
 10
238.55
 20
285.0
  0
LWPOLYLINE
  5
3F
330
17
100
AcDbEntity
  8
CUTS
100
AcDbPolyline
 90
4
 70
1
 10
235.0
 20
291.05
 10
245.0
 20
291.05
 10
245.0
 20
293.95000000000005
 10
235.0
 20
293.95000000000005
  0
TEXT
  5
40
330
17
100
AcDbEntity
  8
ENGRAVE
100
AcDbText
 10
213.0
 20
285.5
 30
0.0
 40
3.0
  1
M5 FR L
 11
213.0
 21
285.5
 31
0.0
100
AcDbText
  0
LWPOLYLINE
  5
41
330
17
100
AcDbEntity
  8
CUTS
100
AcDbPolyline
 90
4
 70
1
 10
278.0
 20
157.5
 10
338.0
 20
157.5
 10
338.0
 20
297.5
 10
278.0
 20
297.5
  0
LWPOLYLINE
  5
42
330
17
100
AcDbEntity
  8
CUTS
100
AcDbPolyline
 90
4
 70
1
 10
288.0
 20
154.5
 10
298.0
 20
154.5
 10
298.0
 20
157.5
 10
288.0
 20
157.5
  0
LWPOLYLINE
  5
43
330
17
100
AcDbEntity
  8
CUTS
100
AcDbPolyline
 90
4
 70
1
 10
318.0
 20
154.5
 10
328.0
 20
154.5
 10
328.0
 20
157.5
 10
318.0
 20
157.5
  0
CIRCLE
  5
44
330
17
100
AcDbEntity
  8
CUTS
100
AcDbCircle
 10
308.0
 20
192.5
 30
0.0
 40
1.6
  0
LWPOLYLINE
  5
45
330
17
100
AcDbEntity
  8
CUTS
100
AcDbPolyline
 90
4
 70
1
 10
306.55
 20
250.0
 10
309.45000000000005
 20
250.0
 10
309.45000000000005
 20
285.0
 10
306.55
 20
285.0
  0
LWPOLYLINE
  5
46
330
17
100
AcDbEntity
  8
CUTS
100
AcDbPolyline
 90
4
 70
1
 10
303.0
 20
291.05
 10
313.0
 20
291.05
 10
313.0
 20
293.95000000000005
 10
303.0
 20
293.95000000000005
  0
TEXT
  5
47
330
17
100
AcDbEntity
  8
ENGRAVE
100
AcDbText
 10
281.0
 20
285.5
 30
0.0
 40
3.0
  1
M5 FR R
 11
281.0
 21
285.5
 31
0.0
100
AcDbText
  0
CIRCLE
  5
48
330
17
100
AcDbEntity
  8
CUTS
100
AcDbCircle
 10
87.0
 20
94.5
 30
0.0
 40
25.0
  0
CIRCLE
  5
49
330
17
100
AcDbEntity
  8
CUTS
100
AcDbCircle
 10
87.0
 20
94.5
 30
0.0
 40
1.6
  0
CIRCLE
  5
4A
330
17
100
AcDbEntity
  8
CUTS
100
AcDbCircle
 10
102.0
 20
94.5
 30
0.0
 40
1.6
  0
TEXT
  5
4B
330
17
100
AcDbEntity
  8
ENGRAVE
100
AcDbText
 10
75.0
 20
92.5
 30
0.0
 40
3.0
  1
M5 CRANK
 11
75.0
 21
92.5
 31
0.0
100
AcDbText
  0
LWPOLYLINE
  5
4C
330
17
100
AcDbEntity
  8
CUTS
100
AcDbPolyline
 90
72
 70
1
 10
158.0
 20
94.5
 10
158.46005970246873
 20
95.94006862492591
 10
158.78298447817235
 20
97.45929298031317
 10
158.9548132206251
 20
99.04302851028702
 10
158.96344476163415
 20
100.67418896385377
 10
158.79905792194333
 20
102.33352935879157
 10
158.45448267190434
 20
104.0
 10
157.9255105709816
 20
105.65116255163973
 10
157.21113434894028
 20
107.26365722198383
 10
156.31370849898477
 20
108.81370849898477
 10
155.23902501402125
 20
110.27765562290443
 10
153.99630084397447
 20
111.63249313860088
 10
152.59807621135332
 20
112.85640646055101
 10
151.06002551720812
 20
113.92928742164602
 10
149.40068512227032
 20
114.83321526193147
 10
147.64110472164032
 20
115.55288943197841
 10
145.8044312726479
 20
116.07600191055306
 10
143.9154364169633
 20
116.39353842850456
 10
142.0
 20
116.5
 10
140.0845635830367
 20
116.39353842850456
 10
138.1955687273521
 20
116.07600191055306
 10
136.35889527835968
 20
115.55288943197841
 10
134.59931487772968
 20
114.83321526193147
 10
132.93997448279188
 20
113.92928742164602
 10
131.40192378864668
 20
112.85640646055103
 10
130.00369915602553
 20
111.63249313860086
 10
128.76097498597875
 20
110.27765562290443
 10
127.68629150101525
 20
108.81370849898477
 10
126.78886565105972
 20
107.26365722198383
 10
126.0744894290184
 20
105.65116255163973
 10
125.54551732809566
 20
104.0
 10
125.20094207805667
 20
102.33352935879157
 10
125.03655523836585
 20
100.67418896385377
 10
125.04518677937492
 20
99.04302851028703
 10
125.21701552182766
 20
97.45929298031317
 10
125.53994029753127
 20
95.94006862492591
 10
126.0
 20
94.5
 10
126.58182936353286
 20
93.15108485700085
 10
127.26913638178168
 20
91.90255129497139
 10
128.0451867793749
 20
90.76081906700635
 10
128.89328089648507
 20
89.72954437743236
 10
129.79720873677053
 20
88.80974498308919
 10
130.74166975080232
 20
88.0
 10
131.71264515373386
 20
87.29671658840626
 10
132.69771216913296
 20
86.69445371201458
 10
133.68629150101523
 20
86.18629150101523
 10
134.66982150405198
 20
85.76423344309714
 10
135.641854880741
 20
85.41962772135314
 10
136.59807621135332
 20
85.14359353944899
 10
137.53624114150574
 20
84.92743823647322
 10
138.4560405358489
 20
84.7630513967824
 10
139.35889527835968
 20
84.64326299072822
 10
140.24768958730613
 20
84.5621538141624
 10
141.12645264903824
 20
84.51530808956869
 10
142.0
 20
84.5
 10
142.87354735096176
 20
84.51530808956869
 10
143.75231041269387
 20
84.5621538141624
 10
144.64110472164032
 20
84.64326299072822
 10
145.5439594641511
 20
84.7630513967824
 10
146.46375885849426
 20
84.92743823647322
 10
147.40192378864668
 20
85.14359353944899
 10
148.358145119259
 20
85.41962772135314
 10
149.33017849594802
 20
85.76423344309714
 10
150.31370849898474
 20
86.18629150101523
 10
151.30228783086702
 20
86.69445371201458
 10
152.28735484626614
 20
87.29671658840626
 10
153.25833024919768
 20
88.0
 10
154.20279126322947
 20
88.80974498308919
 10
155.10671910351493
 20
89.72954437743236
 10
155.9548132206251
 20
90.76081906700635
 10
156.73086361821834
 20
91.90255129497139
 10
157.41817063646715
 20
93.15108485700084
  0
CIRCLE
  5
4D
330
17
100
AcDbEntity
  8
CUTS
100
AcDbCircle
 10
142.0
 20
94.5
 30
0.0
 40
1.6
  0
TEXT
  5
4E
330
17
100
AcDbEntity
  8
ENGRAVE
100
AcDbText
 10
132.0
 20
92.5
 30
0.0
 40
3.0
  1
M5 CAM
 11
132.0
 21
92.5
 31
0.0
100
AcDbText
  0
LWPOLYLINE
  5
4F
330
17
100
AcDbEntity
  8
CUTS
100
AcDbPolyline
 90
4
 70
1
 10
172.0
 20
49.5
 10
184.0
 20
49.5
 10
184.0
 20
139.5
 10
172.0
 20
139.5
  0
CIRCLE
  5
50
330
17
100
AcDbEntity
  8
CUTS
100
AcDbCircle
 10
178.0
 20
134.5
 30
0.0
 40
1.5
  0
TEXT
  5
51
330
17
100
AcDbEntity
  8
ENGRAVE
100
AcDbText
 10
173.0
 20
89.5
 30
0.0
 40
2.0
  1
FOL
 11
173.0
 21
89.5
 31
0.0
100
AcDbText
  0
LWPOLYLINE
  5
52
330
17
100
AcDbEntity
  8
CUTS
100
AcDbPolyline
 90
4
 70
1
 10
192.0
 20
87.5
 10
262.0
 20
87.5
 10
262.0
 20
101.5
 10
192.0
 20
101.5
  0
CIRCLE
  5
53
330
17
100
AcDbEntity
  8
CUTS
100
AcDbCircle
 10
200.0
 20
94.5
 30
0.0
 40
1.6
  0
CIRCLE
  5
54
330
17
100
AcDbEntity
  8
CUTS
100
AcDbCircle
 10
254.0
 20
94.5
 30
0.0
 40
3.0
  0
TEXT
  5
55
330
17
100
AcDbEntity
  8
ENGRAVE
100
AcDbText
 10
210.0
 20
89.5
 30
0.0
 40
2.0
  1
M5 HANDLE
 11
210.0
 21
89.5
 31
0.0
100
AcDbText
  0
LWPOLYLINE
  5
56
330
17
100
AcDbEntity
  8
CUTS
100
AcDbPolyline
 90
4
 70
1
 10
62.0
 20
36.5
 10
162.0
 20
36.5
 10
162.0
 20
116.5
 10
62.0
 20
116.5
  0
LWPOLYLINE
  5
57
330
17
100
AcDbEntity
  8
CUTS
100
AcDbPolyline
 90
4
 70
1
 10
67.0
 20
33.5
 10
77.0
 20
33.5
 10
77.0
 20
36.5
 10
67.0
 20
36.5
  0
LWPOLYLINE
  5
58
330
17
100
AcDbEntity
  8
CUTS
100
AcDbPolyline
 90
4
 70
1
 10
147.0
 20
33.5
 10
157.0
 20
33.5
 10
157.0
 20
36.5
 10
147.0
 20
36.5
  0
LWPOLYLINE
  5
59
330
17
100
AcDbEntity
  8
CUTS
100
AcDbPolyline
 90
4
 70
1
 10
109.55
 20
39.0
 10
114.44999999999999
 20
39.0
 10
114.44999999999999
 20
54.0
 10
109.55
 20
54.0
  0
TEXT
  5
5A
330
17
100
AcDbEntity
  8
ENGRAVE
100
AcDbText
 10
67.0
 20
106.5
 30
0.0
 40
3.0
  1
M5 SCENE PANEL
 11
67.0
 21
106.5
 31
0.0
100
AcDbText
  0
LWPOLYLINE
  5
5B
330
17
100
AcDbEntity
  8
CUTS
100
AcDbPolyline
 90
4
 70
1
 10
62.0
 20
426.5
 10
202.0
 20
426.5
 10
202.0
 20
526.5
 10
62.0
 20
526.5
  0
TEXT
  5
5C
330
17
100
AcDbEntity
  8
ENGRAVE
100
AcDbText
 10
67.0
 20
518.5
 30
0.0
 40
3.0
  1
M5 BASE
 11
67.0
 21
518.5
 31
0.0
100
AcDbText
  0
LWPOLYLINE
  5
5D
330
17
100
AcDbEntity
  8
CUTS
100
AcDbPolyline
 90
4
 70
1
 10
80.55
 20
456.5
 10
83.45
 20
456.5
 10
83.45
 20
466.5
 10
80.55
 20
466.5
  0
LWPOLYLINE
  5
5E
330
17
100
AcDbEntity
  8
CUTS
100
AcDbPolyline
 90
4
 70
1
 10
80.55
 20
486.5
 10
83.45
 20
486.5
 10
83.45
 20
496.5
 10
80.55
 20
496.5
  0
LWPOLYLINE
  5
5F
330
17
100
AcDbEntity
  8
CUTS
100
AcDbPolyline
 90
4
 70
1
 10
180.55
 20
456.5
 10
183.45
 20
456.5
 10
183.45
 20
466.5
 10
180.55
 20
466.5
  0
LWPOLYLINE
  5
60
330
17
100
AcDbEntity
  8
CUTS
100
AcDbPolyline
 90
4
 70
1
 10
180.55
 20
486.5
 10
183.45
 20
486.5
 10
183.45
 20
496.5
 10
180.55
 20
496.5
  0
LWPOLYLINE
  5
61
330
17
100
AcDbEntity
  8
CUTS
100
AcDbPolyline
 90
4
 70
1
 10
210.0
 20
426.5
 10
270.0
 20
426.5
 10
270.0
 20
566.5
 10
210.0
 20
566.5
  0
LWPOLYLINE
  5
62
330
17
100
AcDbEntity
  8
CUTS
100
AcDbPolyline
 90
4
 70
1
 10
220.0
 20
423.5
 10
230.0
 20
423.5
 10
230.0
 20
426.5
 10
220.0
 20
426.5
  0
LWPOLYLINE
  5
63
330
17
100
AcDbEntity
  8
CUTS
100
AcDbPolyline
 90
4
 70
1
 10
250.0
 20
423.5
 10
260.0
 20
423.5
 10
260.0
 20
426.5
 10
250.0
 20
426.5
  0
CIRCLE
  5
64
330
17
100
AcDbEntity
  8
CUTS
100
AcDbCircle
 10
240.0
 20
461.5
 30
0.0
 40
1.6
  0
LWPOLYLINE
  5
65
330
17
100
AcDbEntity
  8
CUTS
100
AcDbPolyline
 90
4
 70
1
 10
238.55
 20
519.0
 10
241.45000000000002
 20
519.0
 10
241.45000000000002
 20
554.0
 10
238.55
 20
554.0
  0
LWPOLYLINE
  5
66
330
17
100
AcDbEntity
  8
CUTS
100
AcDbPolyline
 90
4
 70
1
 10
235.0
 20
560.05
 10
245.0
 20
560.05
 10
245.0
 20
562.95
 10
235.0
 20
562.95
  0
TEXT
  5
67
330
17
100
AcDbEntity
  8
ENGRAVE
100
AcDbText
 10
213.0
 20
554.5
 30
0.0
 40
3.0
  1
M5 FR L
 11
213.0
 21
554.5
 31
0.0
100
AcDbText
  0
LWPOLYLINE
  5
68
330
17
100
AcDbEntity
  8
CUTS
100
AcDbPolyline
 90
4
 70
1
 10
278.0
 20
426.5
 10
338.0
 20
426.5
 10
338.0
 20
566.5
 10
278.0
 20
566.5
  0
LWPOLYLINE
  5
69
330
17
100
AcDbEntity
  8
CUTS
100
AcDbPolyline
 90
4
 70
1
 10
288.0
 20
423.5
 10
298.0
 20
423.5
 10
298.0
 20
426.5
 10
288.0
 20
426.5
  0
LWPOLYLINE
  5
6A
330
17
100
AcDbEntity
  8
CUTS
100
AcDbPolyline
 90
4
 70
1
 10
318.0
 20
423.5
 10
328.0
 20
423.5
 10
328.0
 20
426.5
 10
318.0
 20
426.5
  0
CIRCLE
  5
6B
330
17
100
AcDbEntity
  8
CUTS
100
AcDbCircle
 10
308.0
 20
461.5
 30
0.0
 40
1.6
  0
LWPOLYLINE
  5
6C
330
17
100
AcDbEntity
  8
CUTS
100
AcDbPolyline
 90
4
 70
1
 10
306.55
 20
519.0
 10
309.45000000000005
 20
519.0
 10
309.45000000000005
 20
554.0
 10
306.55
 20
554.0
  0
LWPOLYLINE
  5
6D
330
17
100
AcDbEntity
  8
CUTS
100
AcDbPolyline
 90
4
 70
1
 10
303.0
 20
560.05
 10
313.0
 20
560.05
 10
313.0
 20
562.95
 10
303.0
 20
562.95
  0
TEXT
  5
6E
330
17
100
AcDbEntity
  8
ENGRAVE
100
AcDbText
 10
281.0
 20
554.5
 30
0.0
 40
3.0
  1
M5 FR R
 11
281.0
 21
554.5
 31
0.0
100
AcDbText
  0
CIRCLE
  5
6F
330
17
100
AcDbEntity
  8
CUTS
100
AcDbCircle
 10
87.0
 20
363.5
 30
0.0
 40
25.0
  0
CIRCLE
  5
70
330
17
100
AcDbEntity
  8
CUTS
100
AcDbCircle
 10
87.0
 20
363.5
 30
0.0
 40
1.6
  0
CIRCLE
  5
71
330
17
100
AcDbEntity
  8
CUTS
100
AcDbCircle
 10
102.0
 20
363.5
 30
0.0
 40
1.6
  0
TEXT
  5
72
330
17
100
AcDbEntity
  8
ENGRAVE
100
AcDbText
 10
75.0
 20
361.5
 30
0.0
 40
3.0
  1
M5 CRANK
 11
75.0
 21
361.5
 31
0.0
100
AcDbText
  0
LWPOLYLINE
  5
73
330
17
100
AcDbEntity
  8
CUTS
100
AcDbPolyline
 90
72
 70
1
 10
158.0
 20
363.5
 10
158.46005970246873
 20
364.9400686249259
 10
158.78298447817235
 20
366.45929298031314
 10
158.9548132206251
 20
368.043028510287
 10
158.96344476163415
 20
369.6741889638538
 10
158.79905792194333
 20
371.33352935879157
 10
158.45448267190434
 20
373.0
 10
157.9255105709816
 20
374.65116255163974
 10
157.21113434894028
 20
376.26365722198386
 10
156.31370849898477
 20
377.81370849898474
 10
155.23902501402125
 20
379.27765562290443
 10
153.99630084397447
 20
380.63249313860086
 10
152.59807621135332
 20
381.856406460551
 10
151.06002551720812
 20
382.929287421646
 10
149.40068512227032
 20
383.83321526193146
 10
147.64110472164032
 20
384.55288943197843
 10
145.8044312726479
 20
385.07600191055303
 10
143.9154364169633
 20
385.39353842850454
 10
142.0
 20
385.5
 10
140.0845635830367
 20
385.39353842850454
 10
138.1955687273521
 20
385.07600191055303
 10
136.35889527835968
 20
384.55288943197843
 10
134.59931487772968
 20
383.83321526193146
 10
132.93997448279188
 20
382.929287421646
 10
131.40192378864668
 20
381.856406460551
 10
130.00369915602553
 20
380.63249313860086
 10
128.76097498597875
 20
379.27765562290443
 10
127.68629150101525
 20
377.81370849898474
 10
126.78886565105972
 20
376.26365722198386
 10
126.0744894290184
 20
374.65116255163974
 10
125.54551732809566
 20
373.0
 10
125.20094207805667
 20
371.33352935879157
 10
125.03655523836585
 20
369.6741889638538
 10
125.04518677937492
 20
368.043028510287
 10
125.21701552182766
 20
366.45929298031314
 10
125.53994029753127
 20
364.9400686249259
 10
126.0
 20
363.5
 10
126.58182936353286
 20
362.15108485700085
 10
127.26913638178168
 20
360.9025512949714
 10
128.0451867793749
 20
359.76081906700637
 10
128.89328089648507
 20
358.7295443774324
 10
129.79720873677053
 20
357.8097449830892
 10
130.74166975080232
 20
357.0
 10
131.71264515373386
 20
356.29671658840624
 10
132.69771216913296
 20
355.6944537120146
 10
133.68629150101523
 20
355.18629150101526
 10
134.66982150405198
 20
354.76423344309717
 10
135.641854880741
 20
354.41962772135315
 10
136.59807621135332
 20
354.143593539449
 10
137.53624114150574
 20
353.9274382364732
 10
138.4560405358489
 20
353.76305139678243
 10
139.35889527835968
 20
353.6432629907282
 10
140.24768958730613
 20
353.5621538141624
 10
141.12645264903824
 20
353.5153080895687
 10
142.0
 20
353.5
 10
142.87354735096176
 20
353.5153080895687
 10
143.75231041269387
 20
353.5621538141624
 10
144.64110472164032
 20
353.6432629907282
 10
145.5439594641511
 20
353.76305139678243
 10
146.46375885849426
 20
353.9274382364732
 10
147.40192378864668
 20
354.143593539449
 10
148.358145119259
 20
354.41962772135315
 10
149.33017849594802
 20
354.76423344309717
 10
150.31370849898474
 20
355.18629150101526
 10
151.30228783086702
 20
355.6944537120146
 10
152.28735484626614
 20
356.29671658840624
 10
153.25833024919768
 20
357.0
 10
154.20279126322947
 20
357.8097449830892
 10
155.10671910351493
 20
358.7295443774324
 10
155.9548132206251
 20
359.76081906700637
 10
156.73086361821834
 20
360.9025512949714
 10
157.41817063646715
 20
362.15108485700085
  0
CIRCLE
  5
74
330
17
100
AcDbEntity
  8
CUTS
100
AcDbCircle
 10
142.0
 20
363.5
 30
0.0
 40
1.6
  0
TEXT
  5
75
330
17
100
AcDbEntity
  8
ENGRAVE
100
AcDbText
 10
132.0
 20
361.5
 30
0.0
 40
3.0
  1
M5 CAM
 11
132.0
 21
361.5
 31
0.0
100
AcDbText
  0
LWPOLYLINE
  5
76
330
17
100
AcDbEntity
  8
CUTS
100
AcDbPolyline
 90
4
 70
1
 10
172.0
 20
318.5
 10
184.0
 20
318.5
 10
184.0
 20
408.5
 10
172.0
 20
408.5
  0
CIRCLE
  5
77
330
17
100
AcDbEntity
  8
CUTS
100
AcDbCircle
 10
178.0
 20
403.5
 30
0.0
 40
1.5
  0
TEXT
  5
78
330
17
100
AcDbEntity
  8
ENGRAVE
100
AcDbText
 10
173.0
 20
358.5
 30
0.0
 40
2.0
  1
FOL
 11
173.0
 21
358.5
 31
0.0
100
AcDbText
  0
LWPOLYLINE
  5
79
330
17
100
AcDbEntity
  8
CUTS
100
AcDbPolyline
 90
4
 70
1
 10
192.0
 20
356.5
 10
262.0
 20
356.5
 10
262.0
 20
370.5
 10
192.0
 20
370.5
  0
CIRCLE
  5
7A
330
17
100
AcDbEntity
  8
CUTS
100
AcDbCircle
 10
200.0
 20
363.5
 30
0.0
 40
1.6
  0
CIRCLE
  5
7B
330
17
100
AcDbEntity
  8
CUTS
100
AcDbCircle
 10
254.0
 20
363.5
 30
0.0
 40
3.0
  0
TEXT
  5
7C
330
17
100
AcDbEntity
  8
ENGRAVE
100
AcDbText
 10
210.0
 20
358.5
 30
0.0
 40
2.0
  1
M5 HANDLE
 11
210.0
 21
358.5
 31
0.0
100
AcDbText
  0
LWPOLYLINE
  5
7D
330
17
100
AcDbEntity
  8
CUTS
100
AcDbPolyline
 90
4
 70
1
 10
62.0
 20
305.5
 10
162.0
 20
305.5
 10
162.0
 20
385.5
 10
62.0
 20
385.5
  0
LWPOLYLINE
  5
7E
330
17
100
AcDbEntity
  8
CUTS
100
AcDbPolyline
 90
4
 70
1
 10
67.0
 20
302.5
 10
77.0
 20
302.5
 10
77.0
 20
305.5
 10
67.0
 20
305.5
  0
LWPOLYLINE
  5
7F
330
17
100
AcDbEntity
  8
CUTS
100
AcDbPolyline
 90
4
 70
1
 10
147.0
 20
302.5
 10
157.0
 20
302.5
 10
157.0
 20
305.5
 10
147.0
 20
305.5
  0
LWPOLYLINE
  5
80
330
17
100
AcDbEntity
  8
CUTS
100
AcDbPolyline
 90
4
 70
1
 10
109.55
 20
308.0
 10
114.44999999999999
 20
308.0
 10
114.44999999999999
 20
323.0
 10
109.55
 20
323.0
  0
TEXT
  5
81
330
17
100
AcDbEntity
  8
ENGRAVE
100
AcDbText
 10
67.0
 20
375.5
 30
0.0
 40
3.0
  1
M5 SCENE PANEL
 11
67.0
 21
375.5
 31
0.0
100
AcDbText
  0
ENDSEC
  0
SECTION
  2
OBJECTS
  0
DICTIONARY
  5
A
330
0
100
AcDbDictionary
281
1
  3
ACAD_COLOR
350
B
  3
ACAD_GROUP
350
C
  3
ACAD_LAYOUT
350
D
  3
ACAD_MATERIAL
350
E
  3
ACAD_MLEADERSTYLE
350
F
  3
ACAD_MLINESTYLE
350
10
  3
ACAD_PLOTSETTINGS
350
11
  3
ACAD_PLOTSTYLENAME
350
12
  3
ACAD_SCALELIST
350
14
  3
ACAD_TABLESTYLE
350
15
  3
ACAD_VISUALSTYLE
350
16
  3
EZDXF_META
350
2D
  0
DICTIONARY
  5
B
330
A
100
AcDbDictionary
281
1
  0
DICTIONARY
  5
C
330
A
100
AcDbDictionary
281
1
  0
DICTIONARY
  5
D
330
A
100
AcDbDictionary
281
1
  3
Model
350
1A
  3
Layout1
350
1E
  0
DICTIONARY
  5
E
330
A
100
AcDbDictionary
281
1
  3
ByBlock
350
1F
  3
ByLayer
350
20
  3
Global
350
21
  0
DICTIONARY
  5
F
330
A
100
AcDbDictionary
281
1
  3
Standard
350
2C
  0
DICTIONARY
  5
10
330
A
100
AcDbDictionary
281
1
  3
Standard
350
22
  0
DICTIONARY
  5
11
330
A
100
AcDbDictionary
281
1
  0
ACDBDICTIONARYWDFLT
  5
12
330
A
100
AcDbDictionary
281
1
  3
Normal
350
13
100
AcDbDictionaryWithDefault
340
13
  0
ACDBPLACEHOLDER
  5
13
330
12
  0
DICTIONARY
  5
14
330
A
100
AcDbDictionary
281
1
  0
DICTIONARY
  5
15
330
A
100
AcDbDictionary
281
1
  0
DICTIONARY
  5
16
330
A
100
AcDbDictionary
281
1
  0
LAYOUT
  5
1A
330
D
100
AcDbPlotSettings
  1

  4
A3
  6

 40
7.5
 41
20.0
 42
7.5
 43
20.0
 44
420.0
 45
297.0
 46
0.0
 47
0.0
 48
0.0
 49
0.0
140
0.0
141
0.0
142
1.0
143
1.0
 70
1024
 72
1
 73
0
 74
5
  7

 75
16
 76
0
 77
2
 78
300
147
1.0
148
0.0
149
0.0
100
AcDbLayout
  1
Model
 70
1
 71
0
 10
0.0
 20
0.0
 11
420.0
 21
297.0
 12
0.0
 22
0.0
 32
0.0
 14
1e+20
 24
1e+20
 34
1e+20
 15
-1e+20
 25
-1e+20
 35
-1e+20
146
0.0
 13
0.0
 23
0.0
 33
0.0
 16
1.0
 26
0.0
 36
0.0
 17
0.0
 27
1.0
 37
0.0
 76
1
330
17
  0
LAYOUT
  5
1E
330
D
100
AcDbPlotSettings
  1

  4
A3
  6

 40
7.5
 41
20.0
 42
7.5
 43
20.0
 44
420.0
 45
297.0
 46
0.0
 47
0.0
 48
0.0
 49
0.0
140
0.0
141
0.0
142
1.0
143
1.0
 70
0
 72
1
 73
0
 74
5
  7

 75
16
 76
0
 77
2
 78
300
147
1.0
148
0.0
149
0.0
100
AcDbLayout
  1
Layout1
 70
1
 71
1
 10
0.0
 20
0.0
 11
420.0
 21
297.0
 12
0.0
 22
0.0
 32
0.0
 14
1e+20
 24
1e+20
 34
1e+20
 15
-1e+20
 25
-1e+20
 35
-1e+20
146
0.0
 13
0.0
 23
0.0
 33
0.0
 16
1.0
 26
0.0
 36
0.0
 17
0.0
 27
1.0
 37
0.0
 76
1
330
1B
  0
MATERIAL
  5
1F
102
{ACAD_REACTORS
330
E
102
}
330
E
100
AcDbMaterial
  1
ByBlock
  2

 70
0
 40
1.0
 71
1
 41
1.0
 91
-1023410177
 42
1.0
 72
1
  3

 73
1
 74
1
 75
1
 44
0.5
 73
0
 45
1.0
 46
1.0
 77
1
  4

 78
1
 79
1
170
1
 48
1.0
171
1
  6

172
1
173
1
174
1
140
1.0
141
1.0
175
1
  7

176
1
177
1
178
1
143
1.0
179
1
  8

270
1
271
1
272
1
145
1.0
146
1.0
273
1
  9

274
1
275
1
276
1
 42
1.0
 72
1
  3

 73
1
 74
1
 75
1
 94
63
  0
MATERIAL
  5
20
102
{ACAD_REACTORS
330
E
102
}
330
E
100
AcDbMaterial
  1
ByLayer
  2

 70
0
 40
1.0
 71
1
 41
1.0
 91
-1023410177
 42
1.0
 72
1
  3

 73
1
 74
1
 75
1
 44
0.5
 73
0
 45
1.0
 46
1.0
 77
1
  4

 78
1
 79
1
170
1
 48
1.0
171
1
  6

172
1
173
1
174
1
140
1.0
141
1.0
175
1
  7

176
1
177
1
178
1
143
1.0
179
1
  8

270
1
271
1
272
1
145
1.0
146
1.0
273
1
  9

274
1
275
1
276
1
 42
1.0
 72
1
  3

 73
1
 74
1
 75
1
 94
63
  0
MATERIAL
  5
21
102
{ACAD_REACTORS
330
E
102
}
330
E
100
AcDbMaterial
  1
Global
  2

 70
0
 40
1.0
 71
1
 41
1.0
 91
-1023410177
 42
1.0
 72
1
  3

 73
1
 74
1
 75
1
 44
0.5
 73
0
 45
1.0
 46
1.0
 77
1
  4

 78
1
 79
1
170
1
 48
1.0
171
1
  6

172
1
173
1
174
1
140
1.0
141
1.0
175
1
  7

176
1
177
1
178
1
143
1.0
179
1
  8

270
1
271
1
272
1
145
1.0
146
1.0
273
1
  9

274
1
275
1
276
1
 42
1.0
 72
1
  3

 73
1
 74
1
 75
1
 94
63
  0
MLINESTYLE
  5
22
102
{ACAD_REACTORS
330
10
102
}
330
10
100
AcDbMlineStyle
  2
Standard
 70
0
  3

 62
256
 51
90.0
 52
90.0
 71
2
 49
0.5
 62
256
  6
BYLAYER
 49
-0.5
 62
256
  6
BYLAYER
  0
MLEADERSTYLE
  5
2C
102
{ACAD_REACTORS
330
F
102
}
330
F
100
AcDbMLeaderStyle
179
2
170
2
171
1
172
0
 90
2
 40
0.0
 41
0.0
173
1
 91
-1056964608
 92
-2
290
1
 42
2.0
291
1
 43
8.0
  3
Standard
 44
4.0
300

342
29
174
1
175
1
176
0
178
1
 93
-1056964608
 45
4.0
292
0
297
0
 46
4.0
 94
-1056964608
 47
1.0
 49
1.0
140
1.0
294
1
141
0.0
177
0
142
1.0
295
0
296
0
143
3.75
271
0
272
9
273
9
  0
DICTIONARY
  5
2D
330
A
100
AcDbDictionary
280
1
281
1
  3
CREATED_BY_EZDXF
350
2E
  3
WRITTEN_BY_EZDXF
350
84
  0
DICTIONARYVAR
  5
2E
330
2D
100
DictionaryVariables
280
0
  1
1.4.3 @ 2026-03-19T20:28:27.544782+00:00
  0
DICTIONARYVAR
  5
84
330
2D
100
DictionaryVariables
280
0
  1
1.4.3 @ 2026-03-19T20:28:27.546725+00:00
  0
ENDSEC
  0
EOF
