  0
SECTION
  2
HEADER
  9
$ACADVER
  1
AC1024
  9
$ACADMAINTVER
 70
6
  9
$DWGCODEPAGE
  3
ANSI_1252
  9
$LASTSAVEDBY
  1
ezdxf
  9
$INSBASE
 10
0.0
 20
0.0
 30
0.0
  9
$EXTMIN
 10
1e+20
 20
1e+20
 30
1e+20
  9
$EXTMAX
 10
-1e+20
 20
-1e+20
 30
-1e+20
  9
$LIMMIN
 10
0.0
 20
0.0
  9
$LIMMAX
 10
420.0
 20
297.0
  9
$ORTHOMODE
 70
0
  9
$REGENMODE
 70
1
  9
$FILLMODE
 70
1
  9
$QTEXTMODE
 70
0
  9
$MIRRTEXT
 70
1
  9
$LTSCALE
 40
1.0
  9
$ATTMODE
 70
1
  9
$TEXTSIZE
 40
2.5
  9
$TRACEWID
 40
1.0
  9
$TEXTSTYLE
  7
Standard
  9
$CLAYER
  8
0
  9
$CELTYPE
  6
ByLayer
  9
$CECOLOR
 62
256
  9
$CELTSCALE
 40
1.0
  9
$DISPSILH
 70
0
  9
$DIMSCALE
 40
1.0
  9
$DIMASZ
 40
2.5
  9
$DIMEXO
 40
0.625
  9
$DIMDLI
 40
3.75
  9
$DIMRND
 40
0.0
  9
$DIMDLE
 40
0.0
  9
$DIMEXE
 40
1.25
  9
$DIMTP
 40
0.0
  9
$DIMTM
 40
0.0
  9
$DIMTXT
 40
2.5
  9
$DIMCEN
 40
2.5
  9
$DIMTSZ
 40
0.0
  9
$DIMTOL
 70
0
  9
$DIMLIM
 70
0
  9
$DIMTIH
 70
0
  9
$DIMTOH
 70
0
  9
$DIMSE1
 70
0
  9
$DIMSE2
 70
0
  9
$DIMTAD
 70
1
  9
$DIMZIN
 70
8
  9
$DIMBLK
  1

  9
$DIMASO
 70
1
  9
$DIMSHO
 70
1
  9
$DIMPOST
  1

  9
$DIMAPOST
  1

  9
$DIMALT
 70
0
  9
$DIMALTD
 70
3
  9
$DIMALTF
 40
0.03937007874
  9
$DIMLFAC
 40
1.0
  9
$DIMTOFL
 70
1
  9
$DIMTVP
 40
0.0
  9
$DIMTIX
 70
0
  9
$DIMSOXD
 70
0
  9
$DIMSAH
 70
0
  9
$DIMBLK1
  1

  9
$DIMBLK2
  1

  9
$DIMSTYLE
  2
ISO-25
  9
$DIMCLRD
 70
0
  9
$DIMCLRE
 70
0
  9
$DIMCLRT
 70
0
  9
$DIMTFAC
 40
1.0
  9
$DIMGAP
 40
0.625
  9
$DIMJUST
 70
0
  9
$DIMSD1
 70
0
  9
$DIMSD2
 70
0
  9
$DIMTOLJ
 70
0
  9
$DIMTZIN
 70
8
  9
$DIMALTZ
 70
0
  9
$DIMALTTZ
 70
0
  9
$DIMUPT
 70
0
  9
$DIMDEC
 70
2
  9
$DIMTDEC
 70
2
  9
$DIMALTU
 70
2
  9
$DIMALTTD
 70
3
  9
$DIMTXSTY
  7
Standard
  9
$DIMAUNIT
 70
0
  9
$DIMADEC
 70
0
  9
$DIMALTRND
 40
0.0
  9
$DIMAZIN
 70
0
  9
$DIMDSEP
 70
44
  9
$DIMATFIT
 70
3
  9
$DIMFRAC
 70
0
  9
$DIMLDRBLK
  1

  9
$DIMLUNIT
 70
2
  9
$DIMLWD
 70
-2
  9
$DIMLWE
 70
-2
  9
$DIMTMOVE
 70
0
  9
$DIMFXL
 40
1.0
  9
$DIMFXLON
 70
0
  9
$DIMJOGANG
 40
0.785398163397
  9
$DIMTFILL
 70
0
  9
$DIMTFILLCLR
 70
0
  9
$DIMARCSYM
 70
0
  9
$DIMLTYPE
  6

  9
$DIMLTEX1
  6

  9
$DIMLTEX2
  6

  9
$DIMTXTDIRECTION
 70
0
  9
$LUNITS
 70
2
  9
$LUPREC
 70
4
  9
$SKETCHINC
 40
1.0
  9
$FILLETRAD
 40
10.0
  9
$AUNITS
 70
0
  9
$AUPREC
 70
2
  9
$MENU
  1
.
  9
$ELEVATION
 40
0.0
  9
$PELEVATION
 40
0.0
  9
$THICKNESS
 40
0.0
  9
$LIMCHECK
 70
0
  9
$CHAMFERA
 40
0.0
  9
$CHAMFERB
 40
0.0
  9
$CHAMFERC
 40
0.0
  9
$CHAMFERD
 40
0.0
  9
$SKPOLY
 70
0
  9
$TDCREATE
 40
2461120.001365741
  9
$TDUCREATE
 40
2458532.153996898
  9
$TDUPDATE
 40
2461120.001365741
  9
$TDUUPDATE
 40
2458532.1544311
  9
$TDINDWG
 40
0.0
  9
$TDUSRTIMER
 40
0.0
  9
$USRTIMER
 70
1
  9
$ANGBASE
 50
0.0
  9
$ANGDIR
 70
0
  9
$PDMODE
 70
0
  9
$PDSIZE
 40
0.0
  9
$PLINEWID
 40
0.0
  9
$SPLFRAME
 70
0
  9
$SPLINETYPE
 70
6
  9
$SPLINESEGS
 70
8
  9
$HANDSEED
  5
85
  9
$SURFTAB1
 70
6
  9
$SURFTAB2
 70
6
  9
$SURFTYPE
 70
6
  9
$SURFU
 70
6
  9
$SURFV
 70
6
  9
$UCSBASE
  2

  9
$UCSNAME
  2

  9
$UCSORG
 10
0.0
 20
0.0
 30
0.0
  9
$UCSXDIR
 10
1.0
 20
0.0
 30
0.0
  9
$UCSYDIR
 10
0.0
 20
1.0
 30
0.0
  9
$UCSORTHOREF
  2

  9
$UCSORTHOVIEW
 70
0
  9
$UCSORGTOP
 10
0.0
 20
0.0
 30
0.0
  9
$UCSORGBOTTOM
 10
0.0
 20
0.0
 30
0.0
  9
$UCSORGLEFT
 10
0.0
 20
0.0
 30
0.0
  9
$UCSORGRIGHT
 10
0.0
 20
0.0
 30
0.0
  9
$UCSORGFRONT
 10
0.0
 20
0.0
 30
0.0
  9
$UCSORGBACK
 10
0.0
 20
0.0
 30
0.0
  9
$PUCSBASE
  2

  9
$PUCSNAME
  2

  9
$PUCSORG
 10
0.0
 20
0.0
 30
0.0
  9
$PUCSXDIR
 10
1.0
 20
0.0
 30
0.0
  9
$PUCSYDIR
 10
0.0
 20
1.0
 30
0.0
  9
$PUCSORTHOREF
  2

  9
$PUCSORTHOVIEW
 70
0
  9
$PUCSORGTOP
 10
0.0
 20
0.0
 30
0.0
  9
$PUCSORGBOTTOM
 10
0.0
 20
0.0
 30
0.0
  9
$PUCSORGLEFT
 10
0.0
 20
0.0
 30
0.0
  9
$PUCSORGRIGHT
 10
0.0
 20
0.0
 30
0.0
  9
$PUCSORGFRONT
 10
0.0
 20
0.0
 30
0.0
  9
$PUCSORGBACK
 10
0.0
 20
0.0
 30
0.0
  9
$USERI1
 70
0
  9
$USERI2
 70
0
  9
$USERI3
 70
0
  9
$USERI4
 70
0
  9
$USERI5
 70
0
  9
$USERR1
 40
0.0
  9
$USERR2
 40
0.0
  9
$USERR3
 40
0.0
  9
$USERR4
 40
0.0
  9
$USERR5
 40
0.0
  9
$WORLDVIEW
 70
1
  9
$SHADEDGE
 70
3
  9
$SHADEDIF
 70
70
  9
$TILEMODE
 70
1
  9
$MAXACTVP
 70
64
  9
$PINSBASE
 10
0.0
 20
0.0
 30
0.0
  9
$PLIMCHECK
 70
0
  9
$PEXTMIN
 10
1e+20
 20
1e+20
 30
1e+20
  9
$PEXTMAX
 10
-1e+20
 20
-1e+20
 30
-1e+20
  9
$PLIMMIN
 10
0.0
 20
0.0
  9
$PLIMMAX
 10
420.0
 20
297.0
  9
$UNITMODE
 70
0
  9
$VISRETAIN
 70
1
  9
$PLINEGEN
 70
0
  9
$PSLTSCALE
 70
1
  9
$TREEDEPTH
 70
3020
  9
$CMLSTYLE
  2
Standard
  9
$CMLJUST
 70
0
  9
$CMLSCALE
 40
20.0
  9
$PROXYGRAPHICS
 70
1
  9
$MEASUREMENT
 70
1
  9
$CELWEIGHT
370
-1
  9
$ENDCAPS
280
0
  9
$JOINSTYLE
280
0
  9
$LWDISPLAY
290
0
  9
$INSUNITS
 70
6
  9
$HYPERLINKBASE
  1

  9
$STYLESHEET
  1

  9
$XEDIT
290
1
  9
$CEPSNTYPE
380
0
  9
$PSTYLEMODE
290
1
  9
$FINGERPRINTGUID
  2
{BF47575D-186E-4882-9A9D-90DCCE193E8C}
  9
$VERSIONGUID
  2
{31A8EBAB-CB19-41E6-B3EA-B490D6523DA0}
  9
$EXTNAMES
290
1
  9
$PSVPSCALE
 40
0.0
  9
$OLESTARTUP
290
0
  9
$SORTENTS
280
127
  9
$INDEXCTL
280
0
  9
$HIDETEXT
280
1
  9
$XCLIPFRAME
280
1
  9
$HALOGAP
280
0
  9
$OBSCOLOR
 70
257
  9
$OBSLTYPE
280
0
  9
$INTERSECTIONDISPLAY
280
0
  9
$INTERSECTIONCOLOR
 70
257
  9
$DIMASSOC
280
2
  9
$PROJECTNAME
  1

  9
$CAMERADISPLAY
290
0
  9
$LENSLENGTH
 40
50.0
  9
$CAMERAHEIGHT
 40
0.0
  9
$STEPSPERSEC
 40
24.0
  9
$STEPSIZE
 40
100.0
  9
$3DDWFPREC
 40
2.0
  9
$PSOLWIDTH
 40
0.005
  9
$PSOLHEIGHT
 40
0.08
  9
$LOFTANG1
 40
1.570796326795
  9
$LOFTANG2
 40
1.570796326795
  9
$LOFTMAG1
 40
0.0
  9
$LOFTMAG2
 40
0.0
  9
$LOFTPARAM
 70
7
  9
$LOFTNORMALS
280
1
  9
$LATITUDE
 40
37.795
  9
$LONGITUDE
 40
-122.394
  9
$NORTHDIRECTION
 40
0.0
  9
$TIMEZONE
 70
-8000
  9
$LIGHTGLYPHDISPLAY
280
1
  9
$TILEMODELIGHTSYNCH
280
1
  9
$CMATERIAL
347
20
  9
$SOLIDHIST
280
0
  9
$SHOWHIST
280
1
  9
$DWFFRAME
280
2
  9
$DGNFRAME
280
2
  9
$REALWORLDSCALE
290
1
  9
$INTERFERECOLOR
 62
256
  9
$CSHADOW
280
0
  9
$SHADOWPLANELOCATION
 40
0.0
  0
ENDSEC
  0
SECTION
  2
CLASSES
  0
CLASS
  1
ACDBDICTIONARYWDFLT
  2
AcDbDictionaryWithDefault
  3
ObjectDBX Classes
 90
0
 91
0
280
0
281
0
  0
CLASS
  1
SUN
  2
AcDbSun
  3
SCENEOE
 90
1153
 91
0
280
0
281
0
  0
CLASS
  1
VISUALSTYLE
  2
AcDbVisualStyle
  3
ObjectDBX Classes
 90
4095
 91
0
280
0
281
0
  0
CLASS
  1
MATERIAL
  2
AcDbMaterial
  3
ObjectDBX Classes
 90
1153
 91
0
280
0
281
0
  0
CLASS
  1
SCALE
  2
AcDbScale
  3
ObjectDBX Classes
 90
1153
 91
0
280
0
281
0
  0
CLASS
  1
TABLESTYLE
  2
AcDbTableStyle
  3
ObjectDBX Classes
 90
4095
 91
0
280
0
281
0
  0
CLASS
  1
MLEADERSTYLE
  2
AcDbMLeaderStyle
  3
ACDB_MLEADERSTYLE_CLASS
 90
4095
 91
0
280
0
281
0
  0
CLASS
  1
DICTIONARYVAR
  2
AcDbDictionaryVar
  3
ObjectDBX Classes
 90
0
 91
0
280
0
281
0
  0
CLASS
  1
CELLSTYLEMAP
  2
AcDbCellStyleMap
  3
ObjectDBX Classes
 90
1152
 91
0
280
0
281
0
  0
CLASS
  1
MENTALRAYRENDERSETTINGS
  2
AcDbMentalRayRenderSettings
  3
SCENEOE
 90
1024
 91
0
280
0
281
0
  0
CLASS
  1
ACDBDETAILVIEWSTYLE
  2
AcDbDetailViewStyle
  3
ObjectDBX Classes
 90
1025
 91
0
280
0
281
0
  0
CLASS
  1
ACDBSECTIONVIEWSTYLE
  2
AcDbSectionViewStyle
  3
ObjectDBX Classes
 90
1025
 91
0
280
0
281
0
  0
CLASS
  1
RASTERVARIABLES
  2
AcDbRasterVariables
  3
ISM
 90
0
 91
0
280
0
281
0
  0
CLASS
  1
LAYOUT
  2
AcDbLayout
  3
ObjectDBX Classes
 90
0
 91
0
280
0
281
0
  0
CLASS
  1
ACDBPLACEHOLDER
  2
AcDbPlaceHolder
  3
ObjectDBX Classes
 90
0
 91
0
280
0
281
0
  0
ENDSEC
  0
SECTION
  2
TABLES
  0
TABLE
  2
VPORT
  5
8
330
0
100
AcDbSymbolTable
 70
1
  0
VPORT
  5
23
330
8
100
AcDbSymbolTableRecord
100
AcDbViewportTableRecord
  2
*Active
 70
0
 10
0.0
 20
0.0
 11
1.0
 21
1.0
 12
0.0
 22
0.0
 13
0.0
 23
0.0
 14
0.5
 24
0.5
 15
0.5
 25
0.5
 16
0.0
 26
0.0
 36
1.0
 17
0.0
 27
0.0
 37
0.0
 40
1000.0
 41
1.34
 42
50.0
 43
0.0
 44
0.0
 50
0.0
 51
0.0
 71
0
 72
1000
 73
1
 74
3
 75
0
 76
0
 77
0
 78
0
281
0
 65
0
146
0.0
  0
ENDTAB
  0
TABLE
  2
LTYPE
  5
2
330
0
100
AcDbSymbolTable
 70
3
  0
LTYPE
  5
24
330
2
100
AcDbSymbolTableRecord
100
AcDbLinetypeTableRecord
  2
ByBlock
 70
0
  3

 72
65
 73
0
 40
0.0
  0
LTYPE
  5
25
330
2
100
AcDbSymbolTableRecord
100
AcDbLinetypeTableRecord
  2
ByLayer
 70
0
  3

 72
65
 73
0
 40
0.0
  0
LTYPE
  5
26
330
2
100
AcDbSymbolTableRecord
100
AcDbLinetypeTableRecord
  2
Continuous
 70
0
  3

 72
65
 73
0
 40
0.0
  0
ENDTAB
  0
TABLE
  2
LAYER
  5
1
330
0
100
AcDbSymbolTable
 70
6
  0
LAYER
  5
27
330
1
100
AcDbSymbolTableRecord
100
AcDbLayerTableRecord
  2
0
 70
0
 62
7
  6
Continuous
370
-3
390
13
347
21
  0
LAYER
  5
28
330
1
100
AcDbSymbolTableRecord
100
AcDbLayerTableRecord
  2
Defpoints
 70
0
 62
7
  6
Continuous
290
0
370
-3
390
13
347
21
  0
LAYER
  5
2F
330
1
100
AcDbSymbolTableRecord
100
AcDbLayerTableRecord
  2
CUTS
 70
0
 62
7
  6
Continuous
370
-3
390
13
347
21
  0
LAYER
  5
30
330
1
100
AcDbSymbolTableRecord
100
AcDbLayerTableRecord
  2
ENGRAVE
 70
0
 62
1
  6
Continuous
370
-3
390
13
347
21
  0
LAYER
  5
31
330
1
100
AcDbSymbolTableRecord
100
AcDbLayerTableRecord
  2
GUIDE
 70
0
 62
3
  6
Continuous
370
-3
390
13
347
21
  0
LAYER
  5
32
330
1
100
AcDbSymbolTableRecord
100
AcDbLayerTableRecord
  2
SHEET
 70
0
 62
8
  6
Continuous
370
-3
390
13
347
21
  0
ENDTAB
  0
TABLE
  2
STYLE
  5
5
330
0
100
AcDbSymbolTable
 70
1
  0
STYLE
  5
29
330
5
100
AcDbSymbolTableRecord
100
AcDbTextStyleTableRecord
  2
Standard
 70
0
 40
0.0
 41
1.0
 50
0.0
 71
0
 42
2.5
  3
txt
  4

  0
ENDTAB
  0
TABLE
  2
VIEW
  5
7
330
0
100
AcDbSymbolTable
 70
0
  0
ENDTAB
  0
TABLE
  2
UCS
  5
6
330
0
100
AcDbSymbolTable
 70
0
  0
ENDTAB
  0
TABLE
  2
APPID
  5
3
330
0
100
AcDbSymbolTable
 70
3
  0
APPID
  5
2A
330
3
100
AcDbSymbolTableRecord
100
AcDbRegAppTableRecord
  2
ACAD
 70
0
  0
APPID
  5
82
330
3
100
AcDbSymbolTableRecord
100
AcDbRegAppTableRecord
  2
HATCHBACKGROUNDCOLOR
 70
0
  0
APPID
  5
83
330
3
100
AcDbSymbolTableRecord
100
AcDbRegAppTableRecord
  2
EZDXF
 70
0
  0
ENDTAB
  0
TABLE
  2
DIMSTYLE
  5
4
330
0
100
AcDbSymbolTable
 70
1
100
AcDbDimStyleTable
  0
DIMSTYLE
105
2B
330
4
100
AcDbSymbolTableRecord
100
AcDbDimStyleTableRecord
  2
Standard
 70
0
 40
1.0
 41
2.5
 42
0.625
 43
3.75
 44
1.25
 45
0.0
 46
0.0
 47
0.0
 48
0.0
 49
2.5
140
2.5
141
2.5
142
0.0
143
0.03937007874
144
1.0
145
0.0
146
1.0
147
0.625
148
0.0
 69
0
 70
0
 71
0
 72
0
 73
0
 74
0
 75
0
 76
0
 77
1
 78
8
 79
3
170
0
171
3
172
1
173
0
174
0
175
0
176
0
177
0
178
0
179
2
271
2
272
2
273
2
274
3
275
0
276
0
277
2
278
44
279
0
280
0
281
0
282
0
283
0
284
8
285
0
286
0
288
0
289
3
290
0
371
-2
372
-2
  0
ENDTAB
  0
TABLE
  2
BLOCK_RECORD
  5
9
330
0
100
AcDbSymbolTable
 70
2
  0
BLOCK_RECORD
  5
17
330
9
100
AcDbSymbolTableRecord
100
AcDbBlockTableRecord
  2
*Model_Space
340
1A
 70
0
280
1
281
0
  0
BLOCK_RECORD
  5
1B
330
9
100
AcDbSymbolTableRecord
100
AcDbBlockTableRecord
  2
*Paper_Space
340
1E
 70
0
280
1
281
0
  0
ENDTAB
  0
ENDSEC
  0
SECTION
  2
BLOCKS
  0
BLOCK
  5
18
330
17
100
AcDbEntity
  8
0
100
AcDbBlockBegin
  2
*Model_Space
 70
0
 10
0.0
 20
0.0
 30
0.0
  3
*Model_Space
  1

  0
ENDBLK
  5
19
330
17
100
AcDbEntity
  8
0
100
AcDbBlockEnd
  0
BLOCK
  5
1C
330
1B
100
AcDbEntity
  8
0
100
AcDbBlockBegin
  2
*Paper_Space
 70
0
 10
0.0
 20
0.0
 30
0.0
  3
*Paper_Space
  1

  0
ENDBLK
  5
1D
330
1B
100
AcDbEntity
  8
0
100
AcDbBlockEnd
  0
ENDSEC
  0
SECTION
  2
ENTITIES
  0
LWPOLYLINE
  5
33
330
17
100
AcDbEntity
  8
SHEET
 62
8
100
AcDbPolyline
 90
4
 70
1
 10
0.0
 20
0.0
 10
400.0
 20
0.0
 10
400.0
 20
600.0
 10
0.0
 20
600.0
  0
LWPOLYLINE
  5
34
330
17
100
AcDbEntity
  8
CUTS
100
AcDbPolyline
 90
4
 70
1
 10
180.5
 20
19.5
 10
180.5
 20
159.5
 10
80.5
 20
159.5
 10
80.5
 20
19.5
  0
TEXT
  5
35
330
17
100
AcDbEntity
  8
ENGRAVE
100
AcDbText
 10
88.5
 20
24.5
 30
0.0
 40
3.0
  1
M5 BASE
 11
88.5
 21
24.5
 31
0.0
100
AcDbText
  0
LWPOLYLINE
  5
36
330
17
100
AcDbEntity
  8
CUTS
100
AcDbPolyline
 90
4
 70
1
 10
150.5
 20
38.05
 10
150.5
 20
40.95
 10
140.5
 20
40.95
 10
140.5
 20
38.05
  0
LWPOLYLINE
  5
37
330
17
100
AcDbEntity
  8
CUTS
100
AcDbPolyline
 90
4
 70
1
 10
120.5
 20
38.05
 10
120.5
 20
40.95
 10
110.5
 20
40.95
 10
110.5
 20
38.05
  0
LWPOLYLINE
  5
38
330
17
100
AcDbEntity
  8
CUTS
100
AcDbPolyline
 90
4
 70
1
 10
150.5
 20
138.05
 10
150.5
 20
140.95
 10
140.5
 20
140.95
 10
140.5
 20
138.05
  0
LWPOLYLINE
  5
39
330
17
100
AcDbEntity
  8
CUTS
100
AcDbPolyline
 90
4
 70
1
 10
120.5
 20
138.05
 10
120.5
 20
140.95
 10
110.5
 20
140.95
 10
110.5
 20
138.05
  0
LWPOLYLINE
  5
3A
330
17
100
AcDbEntity
  8
CUTS
100
AcDbPolyline
 90
4
 70
1
 10
180.5
 20
167.5
 10
180.5
 20
227.5
 10
40.5
 20
227.5
 10
40.5
 20
167.5
  0
LWPOLYLINE
  5
3B
330
17
100
AcDbEntity
  8
CUTS
100
AcDbPolyline
 90
4
 70
1
 10
183.5
 20
177.5
 10
183.5
 20
187.5
 10
180.5
 20
187.5
 10
180.5
 20
177.5
  0
LWPOLYLINE
  5
3C
330
17
100
AcDbEntity
  8
CUTS
100
AcDbPolyline
 90
4
 70
1
 10
183.5
 20
207.5
 10
183.5
 20
217.5
 10
180.5
 20
217.5
 10
180.5
 20
207.5
  0
CIRCLE
  5
3D
330
17
100
AcDbEntity
  8
CUTS
100
AcDbCircle
 10
145.5
 20
197.5
 30
0.0
 40
1.6
  0
LWPOLYLINE
  5
3E
330
17
100
AcDbEntity
  8
CUTS
100
AcDbPolyline
 90
4
 70
1
 10
88.0
 20
196.05
 10
88.0
 20
198.95000000000002
 10
53.0
 20
198.95000000000002
 10
53.0
 20
196.05
  0
LWPOLYLINE
  5
3F
330
17
100
AcDbEntity
  8
CUTS
100
AcDbPolyline
 90
4
 70
1
 10
46.94999999999999
 20
192.5
 10
46.94999999999999
 20
202.5
 10
44.049999999999955
 20
202.5
 10
44.049999999999955
 20
192.5
  0
TEXT
  5
40
330
17
100
AcDbEntity
  8
ENGRAVE
100
AcDbText
 10
52.5
 20
170.5
 30
0.0
 40
3.0
  1
M5 FR L
 11
52.5
 21
170.5
 31
0.0
100
AcDbText
  0
LWPOLYLINE
  5
41
330
17
100
AcDbEntity
  8
CUTS
100
AcDbPolyline
 90
4
 70
1
 10
180.5
 20
235.5
 10
180.5
 20
295.5
 10
40.5
 20
295.5
 10
40.5
 20
235.5
  0
LWPOLYLINE
  5
42
330
17
100
AcDbEntity
  8
CUTS
100
AcDbPolyline
 90
4
 70
1
 10
183.5
 20
245.5
 10
183.5
 20
255.5
 10
180.5
 20
255.5
 10
180.5
 20
245.5
  0
LWPOLYLINE
  5
43
330
17
100
AcDbEntity
  8
CUTS
100
AcDbPolyline
 90
4
 70
1
 10
183.5
 20
275.5
 10
183.5
 20
285.5
 10
180.5
 20
285.5
 10
180.5
 20
275.5
  0
CIRCLE
  5
44
330
17
100
AcDbEntity
  8
CUTS
100
AcDbCircle
 10
145.5
 20
265.5
 30
0.0
 40
1.6
  0
LWPOLYLINE
  5
45
330
17
100
AcDbEntity
  8
CUTS
100
AcDbPolyline
 90
4
 70
1
 10
88.0
 20
264.05
 10
88.0
 20
266.95000000000005
 10
53.0
 20
266.95000000000005
 10
53.0
 20
264.05
  0
LWPOLYLINE
  5
46
330
17
100
AcDbEntity
  8
CUTS
100
AcDbPolyline
 90
4
 70
1
 10
46.94999999999999
 20
260.5
 10
46.94999999999999
 20
270.5
 10
44.049999999999955
 20
270.5
 10
44.049999999999955
 20
260.5
  0
TEXT
  5
47
330
17
100
AcDbEntity
  8
ENGRAVE
100
AcDbText
 10
52.5
 20
238.5
 30
0.0
 40
3.0
  1
M5 FR R
 11
52.5
 21
238.5
 31
0.0
100
AcDbText
  0
CIRCLE
  5
48
330
17
100
AcDbEntity
  8
CUTS
100
AcDbCircle
 10
243.5
 20
44.5
 30
0.0
 40
25.0
  0
CIRCLE
  5
49
330
17
100
AcDbEntity
  8
CUTS
100
AcDbCircle
 10
243.5
 20
44.5
 30
0.0
 40
1.6
  0
CIRCLE
  5
4A
330
17
100
AcDbEntity
  8
CUTS
100
AcDbCircle
 10
243.5
 20
59.5
 30
0.0
 40
1.6
  0
TEXT
  5
4B
330
17
100
AcDbEntity
  8
ENGRAVE
100
AcDbText
 10
245.5
 20
32.5
 30
0.0
 40
3.0
  1
M5 CRANK
 11
245.5
 21
32.5
 31
0.0
100
AcDbText
  0
LWPOLYLINE
  5
4C
330
17
100
AcDbEntity
  8
CUTS
100
AcDbPolyline
 90
72
 70
1
 10
243.5
 20
115.5
 10
242.0599313750741
 20
115.96005970246873
 10
240.54070701968683
 20
116.28298447817234
 10
238.956971489713
 20
116.4548132206251
 10
237.32581103614623
 20
116.46344476163415
 10
235.66647064120843
 20
116.29905792194333
 10
234.0
 20
115.95448267190434
 10
232.34883744836026
 20
115.42551057098159
 10
230.73634277801617
 20
114.71113434894028
 10
229.18629150101523
 20
113.81370849898477
 10
227.72234437709557
 20
112.73902501402125
 10
226.36750686139914
 20
111.49630084397447
 10
225.143593539449
 20
110.09807621135332
 10
224.07071257835398
 20
108.56002551720812
 10
223.16678473806854
 20
106.90068512227032
 10
222.44711056802157
 20
105.14110472164033
 10
221.92399808944694
 20
103.30443127264789
 10
221.60646157149546
 20
101.41543641696332
 10
221.5
 20
99.5
 10
221.60646157149546
 20
97.58456358303668
 10
221.92399808944694
 20
95.69556872735211
 10
222.44711056802157
 20
93.85889527835967
 10
223.16678473806854
 20
92.09931487772968
 10
224.07071257835398
 20
90.43997448279188
 10
225.14359353944897
 20
88.90192378864668
 10
226.36750686139914
 20
87.50369915602553
 10
227.72234437709557
 20
86.26097498597875
 10
229.18629150101523
 20
85.18629150101525
 10
230.73634277801617
 20
84.28886565105972
 10
232.34883744836026
 20
83.5744894290184
 10
234.0
 20
83.04551732809566
 10
235.66647064120843
 20
82.70094207805667
 10
237.32581103614623
 20
82.53655523836585
 10
238.95697148971297
 20
82.54518677937492
 10
240.54070701968683
 20
82.71701552182766
 10
242.0599313750741
 20
83.03994029753127
 10
243.5
 20
83.5
 10
244.84891514299915
 20
84.08182936353286
 10
246.09744870502863
 20
84.76913638178168
 10
247.23918093299363
 20
85.5451867793749
 10
248.27045562256762
 20
86.39328089648508
 10
249.1902550169108
 20
87.29720873677053
 10
250.0
 20
88.2416697508023
 10
250.70328341159376
 20
89.21264515373386
 10
251.3055462879854
 20
90.19771216913297
 10
251.81370849898477
 20
91.18629150101523
 10
252.23576655690286
 20
92.169821504052
 10
252.58037227864685
 20
93.14185488074098
 10
252.856406460551
 20
94.09807621135332
 10
253.07256176352678
 20
95.03624114150574
 10
253.2369486032176
 20
95.95604053584891
 10
253.3567370092718
 20
96.85889527835967
 10
253.4378461858376
 20
97.74768958730613
 10
253.4846919104313
 20
98.62645264903826
 10
253.5
 20
99.5
 10
253.4846919104313
 20
100.37354735096174
 10
253.4378461858376
 20
101.25231041269387
 10
253.3567370092718
 20
102.14110472164033
 10
253.2369486032176
 20
103.04395946415109
 10
253.07256176352678
 20
103.96375885849426
 10
252.856406460551
 20
104.90192378864668
 10
252.58037227864685
 20
105.858145119259
 10
252.23576655690286
 20
106.830178495948
 10
251.81370849898477
 20
107.81370849898475
 10
251.3055462879854
 20
108.80228783086702
 10
250.70328341159376
 20
109.78735484626614
 10
250.0
 20
110.7583302491977
 10
249.1902550169108
 20
111.70279126322947
 10
248.27045562256762
 20
112.60671910351492
 10
247.23918093299363
 20
113.4548132206251
 10
246.09744870502863
 20
114.23086361821832
 10
244.84891514299915
 20
114.91817063646714
  0
CIRCLE
  5
4D
330
17
100
AcDbEntity
  8
CUTS
100
AcDbCircle
 10
243.5
 20
99.5
 30
0.0
 40
1.6
  0
TEXT
  5
4E
330
17
100
AcDbEntity
  8
ENGRAVE
100
AcDbText
 10
245.5
 20
89.5
 30
0.0
 40
3.0
  1
M5 CAM
 11
245.5
 21
89.5
 31
0.0
100
AcDbText
  0
LWPOLYLINE
  5
4F
330
17
100
AcDbEntity
  8
CUTS
100
AcDbPolyline
 90
4
 70
1
 10
249.5
 20
129.5
 10
249.5
 20
219.5
 10
237.5
 20
219.5
 10
237.5
 20
129.5
  0
CIRCLE
  5
50
330
17
100
AcDbEntity
  8
CUTS
100
AcDbCircle
 10
243.5
 20
214.5
 30
0.0
 40
1.5
  0
TEXT
  5
51
330
17
100
AcDbEntity
  8
ENGRAVE
100
AcDbText
 10
247.5
 20
159.5
 30
0.0
 40
2.0
  1
FOL
 11
247.5
 21
159.5
 31
0.0
100
AcDbText
  0
LWPOLYLINE
  5
52
330
17
100
AcDbEntity
  8
CUTS
100
AcDbPolyline
 90
4
 70
1
 10
250.5
 20
227.5
 10
250.5
 20
297.5
 10
236.5
 20
297.5
 10
236.5
 20
227.5
  0
CIRCLE
  5
53
330
17
100
AcDbEntity
  8
CUTS
100
AcDbCircle
 10
243.5
 20
235.5
 30
0.0
 40
1.6
  0
CIRCLE
  5
54
330
17
100
AcDbEntity
  8
CUTS
100
AcDbCircle
 10
243.5
 20
289.5
 30
0.0
 40
3.0
  0
TEXT
  5
55
330
17
100
AcDbEntity
  8
ENGRAVE
100
AcDbText
 10
248.5
 20
245.5
 30
0.0
 40
2.0
  1
M5 HANDLE
 11
248.5
 21
245.5
 31
0.0
100
AcDbText
  0
LWPOLYLINE
  5
56
330
17
100
AcDbEntity
  8
CUTS
100
AcDbPolyline
 90
4
 70
1
 10
356.5
 20
19.5
 10
356.5
 20
119.5
 10
276.5
 20
119.5
 10
276.5
 20
19.5
  0
LWPOLYLINE
  5
57
330
17
100
AcDbEntity
  8
CUTS
100
AcDbPolyline
 90
4
 70
1
 10
359.5
 20
24.5
 10
359.5
 20
34.5
 10
356.5
 20
34.5
 10
356.5
 20
24.5
  0
LWPOLYLINE
  5
58
330
17
100
AcDbEntity
  8
CUTS
100
AcDbPolyline
 90
4
 70
1
 10
359.5
 20
104.5
 10
359.5
 20
114.5
 10
356.5
 20
114.5
 10
356.5
 20
104.5
  0
LWPOLYLINE
  5
59
330
17
100
AcDbEntity
  8
CUTS
100
AcDbPolyline
 90
4
 70
1
 10
354.0
 20
67.05
 10
354.0
 20
71.94999999999999
 10
339.0
 20
71.94999999999999
 10
339.0
 20
67.05
  0
TEXT
  5
5A
330
17
100
AcDbEntity
  8
ENGRAVE
100
AcDbText
 10
286.5
 20
24.5
 30
0.0
 40
3.0
  1
M5 SCENE PANEL
 11
286.5
 21
24.5
 31
0.0
100
AcDbText
  0
LWPOLYLINE
  5
5B
330
17
100
AcDbEntity
  8
CUTS
100
AcDbPolyline
 90
4
 70
1
 10
180.5
 20
302.5
 10
180.5
 20
442.5
 10
80.5
 20
442.5
 10
80.5
 20
302.5
  0
TEXT
  5
5C
330
17
100
AcDbEntity
  8
ENGRAVE
100
AcDbText
 10
88.5
 20
307.5
 30
0.0
 40
3.0
  1
M5 BASE
 11
88.5
 21
307.5
 31
0.0
100
AcDbText
  0
LWPOLYLINE
  5
5D
330
17
100
AcDbEntity
  8
CUTS
100
AcDbPolyline
 90
4
 70
1
 10
150.5
 20
321.05
 10
150.5
 20
323.95
 10
140.5
 20
323.95
 10
140.5
 20
321.05
  0
LWPOLYLINE
  5
5E
330
17
100
AcDbEntity
  8
CUTS
100
AcDbPolyline
 90
4
 70
1
 10
120.5
 20
321.05
 10
120.5
 20
323.95
 10
110.5
 20
323.95
 10
110.5
 20
321.05
  0
LWPOLYLINE
  5
5F
330
17
100
AcDbEntity
  8
CUTS
100
AcDbPolyline
 90
4
 70
1
 10
150.5
 20
421.05
 10
150.5
 20
423.95
 10
140.5
 20
423.95
 10
140.5
 20
421.05
  0
LWPOLYLINE
  5
60
330
17
100
AcDbEntity
  8
CUTS
100
AcDbPolyline
 90
4
 70
1
 10
120.5
 20
421.05
 10
120.5
 20
423.95
 10
110.5
 20
423.95
 10
110.5
 20
421.05
  0
LWPOLYLINE
  5
61
330
17
100
AcDbEntity
  8
CUTS
100
AcDbPolyline
 90
4
 70
1
 10
180.5
 20
450.5
 10
180.5
 20
510.5
 10
40.5
 20
510.5
 10
40.5
 20
450.5
  0
LWPOLYLINE
  5
62
330
17
100
AcDbEntity
  8
CUTS
100
AcDbPolyline
 90
4
 70
1
 10
183.5
 20
460.5
 10
183.5
 20
470.5
 10
180.5
 20
470.5
 10
180.5
 20
460.5
  0
LWPOLYLINE
  5
63
330
17
100
AcDbEntity
  8
CUTS
100
AcDbPolyline
 90
4
 70
1
 10
183.5
 20
490.5
 10
183.5
 20
500.5
 10
180.5
 20
500.5
 10
180.5
 20
490.5
  0
CIRCLE
  5
64
330
17
100
AcDbEntity
  8
CUTS
100
AcDbCircle
 10
145.5
 20
480.5
 30
0.0
 40
1.6
  0
LWPOLYLINE
  5
65
330
17
100
AcDbEntity
  8
CUTS
100
AcDbPolyline
 90
4
 70
1
 10
88.0
 20
479.05
 10
88.0
 20
481.95000000000005
 10
53.0
 20
481.95000000000005
 10
53.0
 20
479.05
  0
LWPOLYLINE
  5
66
330
17
100
AcDbEntity
  8
CUTS
100
AcDbPolyline
 90
4
 70
1
 10
46.94999999999999
 20
475.5
 10
46.94999999999999
 20
485.5
 10
44.049999999999955
 20
485.5
 10
44.049999999999955
 20
475.5
  0
TEXT
  5
67
330
17
100
AcDbEntity
  8
ENGRAVE
100
AcDbText
 10
52.5
 20
453.5
 30
0.0
 40
3.0
  1
M5 FR L
 11
52.5
 21
453.5
 31
0.0
100
AcDbText
  0
LWPOLYLINE
  5
68
330
17
100
AcDbEntity
  8
CUTS
100
AcDbPolyline
 90
4
 70
1
 10
180.5
 20
518.5
 10
180.5
 20
578.5
 10
40.5
 20
578.5
 10
40.5
 20
518.5
  0
LWPOLYLINE
  5
69
330
17
100
AcDbEntity
  8
CUTS
100
AcDbPolyline
 90
4
 70
1
 10
183.5
 20
528.5
 10
183.5
 20
538.5
 10
180.5
 20
538.5
 10
180.5
 20
528.5
  0
LWPOLYLINE
  5
6A
330
17
100
AcDbEntity
  8
CUTS
100
AcDbPolyline
 90
4
 70
1
 10
183.5
 20
558.5
 10
183.5
 20
568.5
 10
180.5
 20
568.5
 10
180.5
 20
558.5
  0
CIRCLE
  5
6B
330
17
100
AcDbEntity
  8
CUTS
100
AcDbCircle
 10
145.5
 20
548.5
 30
0.0
 40
1.6
  0
LWPOLYLINE
  5
6C
330
17
100
AcDbEntity
  8
CUTS
100
AcDbPolyline
 90
4
 70
1
 10
88.0
 20
547.05
 10
88.0
 20
549.95
 10
53.0
 20
549.95
 10
53.0
 20
547.05
  0
LWPOLYLINE
  5
6D
330
17
100
AcDbEntity
  8
CUTS
100
AcDbPolyline
 90
4
 70
1
 10
46.94999999999999
 20
543.5
 10
46.94999999999999
 20
553.5
 10
44.049999999999955
 20
553.5
 10
44.049999999999955
 20
543.5
  0
TEXT
  5
6E
330
17
100
AcDbEntity
  8
ENGRAVE
100
AcDbText
 10
52.5
 20
521.5
 30
0.0
 40
3.0
  1
M5 FR R
 11
52.5
 21
521.5
 31
0.0
100
AcDbText
  0
CIRCLE
  5
6F
330
17
100
AcDbEntity
  8
CUTS
100
AcDbCircle
 10
243.5
 20
327.5
 30
0.0
 40
25.0
  0
CIRCLE
  5
70
330
17
100
AcDbEntity
  8
CUTS
100
AcDbCircle
 10
243.5
 20
327.5
 30
0.0
 40
1.6
  0
CIRCLE
  5
71
330
17
100
AcDbEntity
  8
CUTS
100
AcDbCircle
 10
243.5
 20
342.5
 30
0.0
 40
1.6
  0
TEXT
  5
72
330
17
100
AcDbEntity
  8
ENGRAVE
100
AcDbText
 10
245.5
 20
315.5
 30
0.0
 40
3.0
  1
M5 CRANK
 11
245.5
 21
315.5
 31
0.0
100
AcDbText
  0
LWPOLYLINE
  5
73
330
17
100
AcDbEntity
  8
CUTS
100
AcDbPolyline
 90
72
 70
1
 10
243.5
 20
398.5
 10
242.0599313750741
 20
398.9600597024687
 10
240.54070701968683
 20
399.28298447817235
 10
238.956971489713
 20
399.4548132206251
 10
237.32581103614623
 20
399.46344476163415
 10
235.66647064120843
 20
399.29905792194336
 10
234.0
 20
398.9544826719043
 10
232.34883744836026
 20
398.4255105709816
 10
230.73634277801617
 20
397.7111343489403
 10
229.18629150101523
 20
396.81370849898474
 10
227.72234437709557
 20
395.73902501402125
 10
226.36750686139914
 20
394.4963008439745
 10
225.143593539449
 20
393.0980762113533
 10
224.07071257835398
 20
391.56002551720815
 10
223.16678473806854
 20
389.9006851222703
 10
222.44711056802157
 20
388.1411047216403
 10
221.92399808944694
 20
386.3044312726479
 10
221.60646157149546
 20
384.4154364169633
 10
221.5
 20
382.5
 10
221.60646157149546
 20
380.5845635830367
 10
221.92399808944694
 20
378.6955687273521
 10
222.44711056802157
 20
376.8588952783597
 10
223.16678473806854
 20
375.0993148777297
 10
224.07071257835398
 20
373.43997448279185
 10
225.14359353944897
 20
371.9019237886467
 10
226.36750686139914
 20
370.5036991560255
 10
227.72234437709557
 20
369.26097498597875
 10
229.18629150101523
 20
368.18629150101526
 10
230.73634277801617
 20
367.2888656510597
 10
232.34883744836026
 20
366.5744894290184
 10
234.0
 20
366.0455173280957
 10
235.66647064120843
 20
365.70094207805664
 10
237.32581103614623
 20
365.53655523836585
 10
238.95697148971297
 20
365.5451867793749
 10
240.54070701968683
 20
365.71701552182765
 10
242.0599313750741
 20
366.0399402975313
 10
243.5
 20
366.5
 10
244.84891514299915
 20
367.08182936353285
 10
246.09744870502863
 20
367.76913638178166
 10
247.23918093299363
 20
368.5451867793749
 10
248.27045562256762
 20
369.39328089648507
 10
249.1902550169108
 20
370.29720873677053
 10
250.0
 20
371.2416697508023
 10
250.70328341159376
 20
372.2126451537339
 10
251.3055462879854
 20
373.19771216913296
 10
251.81370849898477
 20
374.18629150101526
 10
252.23576655690286
 20
375.169821504052
 10
252.58037227864685
 20
376.141854880741
 10
252.856406460551
 20
377.0980762113533
 10
253.07256176352678
 20
378.03624114150574
 10
253.2369486032176
 20
378.9560405358489
 10
253.3567370092718
 20
379.8588952783597
 10
253.4378461858376
 20
380.7476895873061
 10
253.4846919104313
 20
381.62645264903824
 10
253.5
 20
382.5
 10
253.4846919104313
 20
383.37354735096176
 10
253.4378461858376
 20
384.2523104126939
 10
253.3567370092718
 20
385.1411047216403
 10
253.2369486032176
 20
386.0439594641511
 10
253.07256176352678
 20
386.96375885849426
 10
252.856406460551
 20
387.9019237886467
 10
252.58037227864685
 20
388.858145119259
 10
252.23576655690286
 20
389.830178495948
 10
251.81370849898477
 20
390.81370849898474
 10
251.3055462879854
 20
391.80228783086704
 10
250.70328341159376
 20
392.7873548462661
 10
250.0
 20
393.7583302491977
 10
249.1902550169108
 20
394.70279126322947
 10
248.27045562256762
 20
395.60671910351493
 10
247.23918093299363
 20
396.4548132206251
 10
246.09744870502863
 20
397.23086361821834
 10
244.84891514299915
 20
397.91817063646715
  0
CIRCLE
  5
74
330
17
100
AcDbEntity
  8
CUTS
100
AcDbCircle
 10
243.5
 20
382.5
 30
0.0
 40
1.6
  0
TEXT
  5
75
330
17
100
AcDbEntity
  8
ENGRAVE
100
AcDbText
 10
245.5
 20
372.5
 30
0.0
 40
3.0
  1
M5 CAM
 11
245.5
 21
372.5
 31
0.0
100
AcDbText
  0
LWPOLYLINE
  5
76
330
17
100
AcDbEntity
  8
CUTS
100
AcDbPolyline
 90
4
 70
1
 10
249.5
 20
412.5
 10
249.5
 20
502.5
 10
237.5
 20
502.5
 10
237.5
 20
412.5
  0
CIRCLE
  5
77
330
17
100
AcDbEntity
  8
CUTS
100
AcDbCircle
 10
243.5
 20
497.5
 30
0.0
 40
1.5
  0
TEXT
  5
78
330
17
100
AcDbEntity
  8
ENGRAVE
100
AcDbText
 10
247.5
 20
442.5
 30
0.0
 40
2.0
  1
FOL
 11
247.5
 21
442.5
 31
0.0
100
AcDbText
  0
LWPOLYLINE
  5
79
330
17
100
AcDbEntity
  8
CUTS
100
AcDbPolyline
 90
4
 70
1
 10
250.5
 20
510.5
 10
250.5
 20
580.5
 10
236.5
 20
580.5
 10
236.5
 20
510.5
  0
CIRCLE
  5
7A
330
17
100
AcDbEntity
  8
CUTS
100
AcDbCircle
 10
243.5
 20
518.5
 30
0.0
 40
1.6
  0
CIRCLE
  5
7B
330
17
100
AcDbEntity
  8
CUTS
100
AcDbCircle
 10
243.5
 20
572.5
 30
0.0
 40
3.0
  0
TEXT
  5
7C
330
17
100
AcDbEntity
  8
ENGRAVE
100
AcDbText
 10
248.5
 20
528.5
 30
0.0
 40
2.0
  1
M5 HANDLE
 11
248.5
 21
528.5
 31
0.0
100
AcDbText
  0
LWPOLYLINE
  5
7D
330
17
100
AcDbEntity
  8
CUTS
100
AcDbPolyline
 90
4
 70
1
 10
356.5
 20
302.5
 10
356.5
 20
402.5
 10
276.5
 20
402.5
 10
276.5
 20
302.5
  0
LWPOLYLINE
  5
7E
330
17
100
AcDbEntity
  8
CUTS
100
AcDbPolyline
 90
4
 70
1
 10
359.5
 20
307.5
 10
359.5
 20
317.5
 10
356.5
 20
317.5
 10
356.5
 20
307.5
  0
LWPOLYLINE
  5
7F
330
17
100
AcDbEntity
  8
CUTS
100
AcDbPolyline
 90
4
 70
1
 10
359.5
 20
387.5
 10
359.5
 20
397.5
 10
356.5
 20
397.5
 10
356.5
 20
387.5
  0
LWPOLYLINE
  5
80
330
17
100
AcDbEntity
  8
CUTS
100
AcDbPolyline
 90
4
 70
1
 10
354.0
 20
350.05
 10
354.0
 20
354.95
 10
339.0
 20
354.95
 10
339.0
 20
350.05
  0
TEXT
  5
81
330
17
100
AcDbEntity
  8
ENGRAVE
100
AcDbText
 10
286.5
 20
307.5
 30
0.0
 40
3.0
  1
M5 SCENE PANEL
 11
286.5
 21
307.5
 31
0.0
100
AcDbText
  0
ENDSEC
  0
SECTION
  2
OBJECTS
  0
DICTIONARY
  5
A
330
0
100
AcDbDictionary
281
1
  3
ACAD_COLOR
350
B
  3
ACAD_GROUP
350
C
  3
ACAD_LAYOUT
350
D
  3
ACAD_MATERIAL
350
E
  3
ACAD_MLEADERSTYLE
350
F
  3
ACAD_MLINESTYLE
350
10
  3
ACAD_PLOTSETTINGS
350
11
  3
ACAD_PLOTSTYLENAME
350
12
  3
ACAD_SCALELIST
350
14
  3
ACAD_TABLESTYLE
350
15
  3
ACAD_VISUALSTYLE
350
16
  3
EZDXF_META
350
2D
  0
DICTIONARY
  5
B
330
A
100
AcDbDictionary
281
1
  0
DICTIONARY
  5
C
330
A
100
AcDbDictionary
281
1
  0
DICTIONARY
  5
D
330
A
100
AcDbDictionary
281
1
  3
Model
350
1A
  3
Layout1
350
1E
  0
DICTIONARY
  5
E
330
A
100
AcDbDictionary
281
1
  3
ByBlock
350
1F
  3
ByLayer
350
20
  3
Global
350
21
  0
DICTIONARY
  5
F
330
A
100
AcDbDictionary
281
1
  3
Standard
350
2C
  0
DICTIONARY
  5
10
330
A
100
AcDbDictionary
281
1
  3
Standard
350
22
  0
DICTIONARY
  5
11
330
A
100
AcDbDictionary
281
1
  0
ACDBDICTIONARYWDFLT
  5
12
330
A
100
AcDbDictionary
281
1
  3
Normal
350
13
100
AcDbDictionaryWithDefault
340
13
  0
ACDBPLACEHOLDER
  5
13
330
12
  0
DICTIONARY
  5
14
330
A
100
AcDbDictionary
281
1
  0
DICTIONARY
  5
15
330
A
100
AcDbDictionary
281
1
  0
DICTIONARY
  5
16
330
A
100
AcDbDictionary
281
1
  0
LAYOUT
  5
1A
330
D
100
AcDbPlotSettings
  1

  4
A3
  6

 40
7.5
 41
20.0
 42
7.5
 43
20.0
 44
420.0
 45
297.0
 46
0.0
 47
0.0
 48
0.0
 49
0.0
140
0.0
141
0.0
142
1.0
143
1.0
 70
1024
 72
1
 73
0
 74
5
  7

 75
16
 76
0
 77
2
 78
300
147
1.0
148
0.0
149
0.0
100
AcDbLayout
  1
Model
 70
1
 71
0
 10
0.0
 20
0.0
 11
420.0
 21
297.0
 12
0.0
 22
0.0
 32
0.0
 14
1e+20
 24
1e+20
 34
1e+20
 15
-1e+20
 25
-1e+20
 35
-1e+20
146
0.0
 13
0.0
 23
0.0
 33
0.0
 16
1.0
 26
0.0
 36
0.0
 17
0.0
 27
1.0
 37
0.0
 76
1
330
17
  0
LAYOUT
  5
1E
330
D
100
AcDbPlotSettings
  1

  4
A3
  6

 40
7.5
 41
20.0
 42
7.5
 43
20.0
 44
420.0
 45
297.0
 46
0.0
 47
0.0
 48
0.0
 49
0.0
140
0.0
141
0.0
142
1.0
143
1.0
 70
0
 72
1
 73
0
 74
5
  7

 75
16
 76
0
 77
2
 78
300
147
1.0
148
0.0
149
0.0
100
AcDbLayout
  1
Layout1
 70
1
 71
1
 10
0.0
 20
0.0
 11
420.0
 21
297.0
 12
0.0
 22
0.0
 32
0.0
 14
1e+20
 24
1e+20
 34
1e+20
 15
-1e+20
 25
-1e+20
 35
-1e+20
146
0.0
 13
0.0
 23
0.0
 33
0.0
 16
1.0
 26
0.0
 36
0.0
 17
0.0
 27
1.0
 37
0.0
 76
1
330
1B
  0
MATERIAL
  5
1F
102
{ACAD_REACTORS
330
E
102
}
330
E
100
AcDbMaterial
  1
ByBlock
  2

 70
0
 40
1.0
 71
1
 41
1.0
 91
-1023410177
 42
1.0
 72
1
  3

 73
1
 74
1
 75
1
 44
0.5
 73
0
 45
1.0
 46
1.0
 77
1
  4

 78
1
 79
1
170
1
 48
1.0
171
1
  6

172
1
173
1
174
1
140
1.0
141
1.0
175
1
  7

176
1
177
1
178
1
143
1.0
179
1
  8

270
1
271
1
272
1
145
1.0
146
1.0
273
1
  9

274
1
275
1
276
1
 42
1.0
 72
1
  3

 73
1
 74
1
 75
1
 94
63
  0
MATERIAL
  5
20
102
{ACAD_REACTORS
330
E
102
}
330
E
100
AcDbMaterial
  1
ByLayer
  2

 70
0
 40
1.0
 71
1
 41
1.0
 91
-1023410177
 42
1.0
 72
1
  3

 73
1
 74
1
 75
1
 44
0.5
 73
0
 45
1.0
 46
1.0
 77
1
  4

 78
1
 79
1
170
1
 48
1.0
171
1
  6

172
1
173
1
174
1
140
1.0
141
1.0
175
1
  7

176
1
177
1
178
1
143
1.0
179
1
  8

270
1
271
1
272
1
145
1.0
146
1.0
273
1
  9

274
1
275
1
276
1
 42
1.0
 72
1
  3

 73
1
 74
1
 75
1
 94
63
  0
MATERIAL
  5
21
102
{ACAD_REACTORS
330
E
102
}
330
E
100
AcDbMaterial
  1
Global
  2

 70
0
 40
1.0
 71
1
 41
1.0
 91
-1023410177
 42
1.0
 72
1
  3

 73
1
 74
1
 75
1
 44
0.5
 73
0
 45
1.0
 46
1.0
 77
1
  4

 78
1
 79
1
170
1
 48
1.0
171
1
  6

172
1
173
1
174
1
140
1.0
141
1.0
175
1
  7

176
1
177
1
178
1
143
1.0
179
1
  8

270
1
271
1
272
1
145
1.0
146
1.0
273
1
  9

274
1
275
1
276
1
 42
1.0
 72
1
  3

 73
1
 74
1
 75
1
 94
63
  0
MLINESTYLE
  5
22
102
{ACAD_REACTORS
330
10
102
}
330
10
100
AcDbMlineStyle
  2
Standard
 70
0
  3

 62
256
 51
90.0
 52
90.0
 71
2
 49
0.5
 62
256
  6
BYLAYER
 49
-0.5
 62
256
  6
BYLAYER
  0
MLEADERSTYLE
  5
2C
102
{ACAD_REACTORS
330
F
102
}
330
F
100
AcDbMLeaderStyle
179
2
170
2
171
1
172
0
 90
2
 40
0.0
 41
0.0
173
1
 91
-1056964608
 92
-2
290
1
 42
2.0
291
1
 43
8.0
  3
Standard
 44
4.0
300

342
29
174
1
175
1
176
0
178
1
 93
-1056964608
 45
4.0
292
0
297
0
 46
4.0
 94
-1056964608
 47
1.0
 49
1.0
140
1.0
294
1
141
0.0
177
0
142
1.0
295
0
296
0
143
3.75
271
0
272
9
273
9
  0
DICTIONARY
  5
2D
330
A
100
AcDbDictionary
280
1
281
1
  3
CREATED_BY_EZDXF
350
2E
  3
WRITTEN_BY_EZDXF
350
84
  0
DICTIONARYVAR
  5
2E
330
2D
100
DictionaryVariables
280
0
  1
1.4.3 @ 2026-03-19T21:01:58.263988+00:00
  0
DICTIONARYVAR
  5
84
330
2D
100
DictionaryVariables
280
0
  1
1.4.3 @ 2026-03-19T21:01:58.265859+00:00
  0
ENDSEC
  0
EOF
