  0
SECTION
  2
HEADER
  9
$ACADVER
  1
AC1024
  9
$ACADMAINTVER
 70
6
  9
$DWGCODEPAGE
  3
ANSI_1252
  9
$LASTSAVEDBY
  1
ezdxf
  9
$INSBASE
 10
0.0
 20
0.0
 30
0.0
  9
$EXTMIN
 10
1e+20
 20
1e+20
 30
1e+20
  9
$EXTMAX
 10
-1e+20
 20
-1e+20
 30
-1e+20
  9
$LIMMIN
 10
0.0
 20
0.0
  9
$LIMMAX
 10
420.0
 20
297.0
  9
$ORTHOMODE
 70
0
  9
$REGENMODE
 70
1
  9
$FILLMODE
 70
1
  9
$QTEXTMODE
 70
0
  9
$MIRRTEXT
 70
1
  9
$LTSCALE
 40
1.0
  9
$ATTMODE
 70
1
  9
$TEXTSIZE
 40
2.5
  9
$TRACEWID
 40
1.0
  9
$TEXTSTYLE
  7
Standard
  9
$CLAYER
  8
0
  9
$CELTYPE
  6
ByLayer
  9
$CECOLOR
 62
256
  9
$CELTSCALE
 40
1.0
  9
$DISPSILH
 70
0
  9
$DIMSCALE
 40
1.0
  9
$DIMASZ
 40
2.5
  9
$DIMEXO
 40
0.625
  9
$DIMDLI
 40
3.75
  9
$DIMRND
 40
0.0
  9
$DIMDLE
 40
0.0
  9
$DIMEXE
 40
1.25
  9
$DIMTP
 40
0.0
  9
$DIMTM
 40
0.0
  9
$DIMTXT
 40
2.5
  9
$DIMCEN
 40
2.5
  9
$DIMTSZ
 40
0.0
  9
$DIMTOL
 70
0
  9
$DIMLIM
 70
0
  9
$DIMTIH
 70
0
  9
$DIMTOH
 70
0
  9
$DIMSE1
 70
0
  9
$DIMSE2
 70
0
  9
$DIMTAD
 70
1
  9
$DIMZIN
 70
8
  9
$DIMBLK
  1

  9
$DIMASO
 70
1
  9
$DIMSHO
 70
1
  9
$DIMPOST
  1

  9
$DIMAPOST
  1

  9
$DIMALT
 70
0
  9
$DIMALTD
 70
3
  9
$DIMALTF
 40
0.03937007874
  9
$DIMLFAC
 40
1.0
  9
$DIMTOFL
 70
1
  9
$DIMTVP
 40
0.0
  9
$DIMTIX
 70
0
  9
$DIMSOXD
 70
0
  9
$DIMSAH
 70
0
  9
$DIMBLK1
  1

  9
$DIMBLK2
  1

  9
$DIMSTYLE
  2
ISO-25
  9
$DIMCLRD
 70
0
  9
$DIMCLRE
 70
0
  9
$DIMCLRT
 70
0
  9
$DIMTFAC
 40
1.0
  9
$DIMGAP
 40
0.625
  9
$DIMJUST
 70
0
  9
$DIMSD1
 70
0
  9
$DIMSD2
 70
0
  9
$DIMTOLJ
 70
0
  9
$DIMTZIN
 70
8
  9
$DIMALTZ
 70
0
  9
$DIMALTTZ
 70
0
  9
$DIMUPT
 70
0
  9
$DIMDEC
 70
2
  9
$DIMTDEC
 70
2
  9
$DIMALTU
 70
2
  9
$DIMALTTD
 70
3
  9
$DIMTXSTY
  7
Standard
  9
$DIMAUNIT
 70
0
  9
$DIMADEC
 70
0
  9
$DIMALTRND
 40
0.0
  9
$DIMAZIN
 70
0
  9
$DIMDSEP
 70
44
  9
$DIMATFIT
 70
3
  9
$DIMFRAC
 70
0
  9
$DIMLDRBLK
  1

  9
$DIMLUNIT
 70
2
  9
$DIMLWD
 70
-2
  9
$DIMLWE
 70
-2
  9
$DIMTMOVE
 70
0
  9
$DIMFXL
 40
1.0
  9
$DIMFXLON
 70
0
  9
$DIMJOGANG
 40
0.785398163397
  9
$DIMTFILL
 70
0
  9
$DIMTFILLCLR
 70
0
  9
$DIMARCSYM
 70
0
  9
$DIMLTYPE
  6

  9
$DIMLTEX1
  6

  9
$DIMLTEX2
  6

  9
$DIMTXTDIRECTION
 70
0
  9
$LUNITS
 70
2
  9
$LUPREC
 70
4
  9
$SKETCHINC
 40
1.0
  9
$FILLETRAD
 40
10.0
  9
$AUNITS
 70
0
  9
$AUPREC
 70
2
  9
$MENU
  1
.
  9
$ELEVATION
 40
0.0
  9
$PELEVATION
 40
0.0
  9
$THICKNESS
 40
0.0
  9
$LIMCHECK
 70
0
  9
$CHAMFERA
 40
0.0
  9
$CHAMFERB
 40
0.0
  9
$CHAMFERC
 40
0.0
  9
$CHAMFERD
 40
0.0
  9
$SKPOLY
 70
0
  9
$TDCREATE
 40
2461119.6021064813
  9
$TDUCREATE
 40
2458532.153996898
  9
$TDUPDATE
 40
2461119.6021064813
  9
$TDUUPDATE
 40
2458532.1544311
  9
$TDINDWG
 40
0.0
  9
$TDUSRTIMER
 40
0.0
  9
$USRTIMER
 70
1
  9
$ANGBASE
 50
0.0
  9
$ANGDIR
 70
0
  9
$PDMODE
 70
0
  9
$PDSIZE
 40
0.0
  9
$PLINEWID
 40
0.0
  9
$SPLFRAME
 70
0
  9
$SPLINETYPE
 70
6
  9
$SPLINESEGS
 70
8
  9
$HANDSEED
  5
52
  9
$SURFTAB1
 70
6
  9
$SURFTAB2
 70
6
  9
$SURFTYPE
 70
6
  9
$SURFU
 70
6
  9
$SURFV
 70
6
  9
$UCSBASE
  2

  9
$UCSNAME
  2

  9
$UCSORG
 10
0.0
 20
0.0
 30
0.0
  9
$UCSXDIR
 10
1.0
 20
0.0
 30
0.0
  9
$UCSYDIR
 10
0.0
 20
1.0
 30
0.0
  9
$UCSORTHOREF
  2

  9
$UCSORTHOVIEW
 70
0
  9
$UCSORGTOP
 10
0.0
 20
0.0
 30
0.0
  9
$UCSORGBOTTOM
 10
0.0
 20
0.0
 30
0.0
  9
$UCSORGLEFT
 10
0.0
 20
0.0
 30
0.0
  9
$UCSORGRIGHT
 10
0.0
 20
0.0
 30
0.0
  9
$UCSORGFRONT
 10
0.0
 20
0.0
 30
0.0
  9
$UCSORGBACK
 10
0.0
 20
0.0
 30
0.0
  9
$PUCSBASE
  2

  9
$PUCSNAME
  2

  9
$PUCSORG
 10
0.0
 20
0.0
 30
0.0
  9
$PUCSXDIR
 10
1.0
 20
0.0
 30
0.0
  9
$PUCSYDIR
 10
0.0
 20
1.0
 30
0.0
  9
$PUCSORTHOREF
  2

  9
$PUCSORTHOVIEW
 70
0
  9
$PUCSORGTOP
 10
0.0
 20
0.0
 30
0.0
  9
$PUCSORGBOTTOM
 10
0.0
 20
0.0
 30
0.0
  9
$PUCSORGLEFT
 10
0.0
 20
0.0
 30
0.0
  9
$PUCSORGRIGHT
 10
0.0
 20
0.0
 30
0.0
  9
$PUCSORGFRONT
 10
0.0
 20
0.0
 30
0.0
  9
$PUCSORGBACK
 10
0.0
 20
0.0
 30
0.0
  9
$USERI1
 70
0
  9
$USERI2
 70
0
  9
$USERI3
 70
0
  9
$USERI4
 70
0
  9
$USERI5
 70
0
  9
$USERR1
 40
0.0
  9
$USERR2
 40
0.0
  9
$USERR3
 40
0.0
  9
$USERR4
 40
0.0
  9
$USERR5
 40
0.0
  9
$WORLDVIEW
 70
1
  9
$SHADEDGE
 70
3
  9
$SHADEDIF
 70
70
  9
$TILEMODE
 70
1
  9
$MAXACTVP
 70
64
  9
$PINSBASE
 10
0.0
 20
0.0
 30
0.0
  9
$PLIMCHECK
 70
0
  9
$PEXTMIN
 10
1e+20
 20
1e+20
 30
1e+20
  9
$PEXTMAX
 10
-1e+20
 20
-1e+20
 30
-1e+20
  9
$PLIMMIN
 10
0.0
 20
0.0
  9
$PLIMMAX
 10
420.0
 20
297.0
  9
$UNITMODE
 70
0
  9
$VISRETAIN
 70
1
  9
$PLINEGEN
 70
0
  9
$PSLTSCALE
 70
1
  9
$TREEDEPTH
 70
3020
  9
$CMLSTYLE
  2
Standard
  9
$CMLJUST
 70
0
  9
$CMLSCALE
 40
20.0
  9
$PROXYGRAPHICS
 70
1
  9
$MEASUREMENT
 70
1
  9
$CELWEIGHT
370
-1
  9
$ENDCAPS
280
0
  9
$JOINSTYLE
280
0
  9
$LWDISPLAY
290
0
  9
$INSUNITS
 70
6
  9
$HYPERLINKBASE
  1

  9
$STYLESHEET
  1

  9
$XEDIT
290
1
  9
$CEPSNTYPE
380
0
  9
$PSTYLEMODE
290
1
  9
$FINGERPRINTGUID
  2
{A5832B51-1342-44FB-8437-F18985F5EF10}
  9
$VERSIONGUID
  2
{167B2FF3-ACBE-43F5-A371-2FBFF0ED0CF5}
  9
$EXTNAMES
290
1
  9
$PSVPSCALE
 40
0.0
  9
$OLESTARTUP
290
0
  9
$SORTENTS
280
127
  9
$INDEXCTL
280
0
  9
$HIDETEXT
280
1
  9
$XCLIPFRAME
280
1
  9
$HALOGAP
280
0
  9
$OBSCOLOR
 70
257
  9
$OBSLTYPE
280
0
  9
$INTERSECTIONDISPLAY
280
0
  9
$INTERSECTIONCOLOR
 70
257
  9
$DIMASSOC
280
2
  9
$PROJECTNAME
  1

  9
$CAMERADISPLAY
290
0
  9
$LENSLENGTH
 40
50.0
  9
$CAMERAHEIGHT
 40
0.0
  9
$STEPSPERSEC
 40
24.0
  9
$STEPSIZE
 40
100.0
  9
$3DDWFPREC
 40
2.0
  9
$PSOLWIDTH
 40
0.005
  9
$PSOLHEIGHT
 40
0.08
  9
$LOFTANG1
 40
1.570796326795
  9
$LOFTANG2
 40
1.570796326795
  9
$LOFTMAG1
 40
0.0
  9
$LOFTMAG2
 40
0.0
  9
$LOFTPARAM
 70
7
  9
$LOFTNORMALS
280
1
  9
$LATITUDE
 40
37.795
  9
$LONGITUDE
 40
-122.394
  9
$NORTHDIRECTION
 40
0.0
  9
$TIMEZONE
 70
-8000
  9
$LIGHTGLYPHDISPLAY
280
1
  9
$TILEMODELIGHTSYNCH
280
1
  9
$CMATERIAL
347
20
  9
$SOLIDHIST
280
0
  9
$SHOWHIST
280
1
  9
$DWFFRAME
280
2
  9
$DGNFRAME
280
2
  9
$REALWORLDSCALE
290
1
  9
$INTERFERECOLOR
 62
256
  9
$CSHADOW
280
0
  9
$SHADOWPLANELOCATION
 40
0.0
  0
ENDSEC
  0
SECTION
  2
CLASSES
  0
CLASS
  1
ACDBDICTIONARYWDFLT
  2
AcDbDictionaryWithDefault
  3
ObjectDBX Classes
 90
0
 91
0
280
0
281
0
  0
CLASS
  1
SUN
  2
AcDbSun
  3
SCENEOE
 90
1153
 91
0
280
0
281
0
  0
CLASS
  1
VISUALSTYLE
  2
AcDbVisualStyle
  3
ObjectDBX Classes
 90
4095
 91
0
280
0
281
0
  0
CLASS
  1
MATERIAL
  2
AcDbMaterial
  3
ObjectDBX Classes
 90
1153
 91
0
280
0
281
0
  0
CLASS
  1
SCALE
  2
AcDbScale
  3
ObjectDBX Classes
 90
1153
 91
0
280
0
281
0
  0
CLASS
  1
TABLESTYLE
  2
AcDbTableStyle
  3
ObjectDBX Classes
 90
4095
 91
0
280
0
281
0
  0
CLASS
  1
MLEADERSTYLE
  2
AcDbMLeaderStyle
  3
ACDB_MLEADERSTYLE_CLASS
 90
4095
 91
0
280
0
281
0
  0
CLASS
  1
DICTIONARYVAR
  2
AcDbDictionaryVar
  3
ObjectDBX Classes
 90
0
 91
0
280
0
281
0
  0
CLASS
  1
CELLSTYLEMAP
  2
AcDbCellStyleMap
  3
ObjectDBX Classes
 90
1152
 91
0
280
0
281
0
  0
CLASS
  1
MENTALRAYRENDERSETTINGS
  2
AcDbMentalRayRenderSettings
  3
SCENEOE
 90
1024
 91
0
280
0
281
0
  0
CLASS
  1
ACDBDETAILVIEWSTYLE
  2
AcDbDetailViewStyle
  3
ObjectDBX Classes
 90
1025
 91
0
280
0
281
0
  0
CLASS
  1
ACDBSECTIONVIEWSTYLE
  2
AcDbSectionViewStyle
  3
ObjectDBX Classes
 90
1025
 91
0
280
0
281
0
  0
CLASS
  1
RASTERVARIABLES
  2
AcDbRasterVariables
  3
ISM
 90
0
 91
0
280
0
281
0
  0
CLASS
  1
LAYOUT
  2
AcDbLayout
  3
ObjectDBX Classes
 90
0
 91
0
280
0
281
0
  0
CLASS
  1
ACDBPLACEHOLDER
  2
AcDbPlaceHolder
  3
ObjectDBX Classes
 90
0
 91
0
280
0
281
0
  0
ENDSEC
  0
SECTION
  2
TABLES
  0
TABLE
  2
VPORT
  5
8
330
0
100
AcDbSymbolTable
 70
1
  0
VPORT
  5
23
330
8
100
AcDbSymbolTableRecord
100
AcDbViewportTableRecord
  2
*Active
 70
0
 10
0.0
 20
0.0
 11
1.0
 21
1.0
 12
0.0
 22
0.0
 13
0.0
 23
0.0
 14
0.5
 24
0.5
 15
0.5
 25
0.5
 16
0.0
 26
0.0
 36
1.0
 17
0.0
 27
0.0
 37
0.0
 40
1000.0
 41
1.34
 42
50.0
 43
0.0
 44
0.0
 50
0.0
 51
0.0
 71
0
 72
1000
 73
1
 74
3
 75
0
 76
0
 77
0
 78
0
281
0
 65
0
146
0.0
  0
ENDTAB
  0
TABLE
  2
LTYPE
  5
2
330
0
100
AcDbSymbolTable
 70
3
  0
LTYPE
  5
24
330
2
100
AcDbSymbolTableRecord
100
AcDbLinetypeTableRecord
  2
ByBlock
 70
0
  3

 72
65
 73
0
 40
0.0
  0
LTYPE
  5
25
330
2
100
AcDbSymbolTableRecord
100
AcDbLinetypeTableRecord
  2
ByLayer
 70
0
  3

 72
65
 73
0
 40
0.0
  0
LTYPE
  5
26
330
2
100
AcDbSymbolTableRecord
100
AcDbLinetypeTableRecord
  2
Continuous
 70
0
  3

 72
65
 73
0
 40
0.0
  0
ENDTAB
  0
TABLE
  2
LAYER
  5
1
330
0
100
AcDbSymbolTable
 70
2
  0
LAYER
  5
27
330
1
100
AcDbSymbolTableRecord
100
AcDbLayerTableRecord
  2
0
 70
0
 62
7
  6
Continuous
370
-3
390
13
347
21
  0
LAYER
  5
28
330
1
100
AcDbSymbolTableRecord
100
AcDbLayerTableRecord
  2
Defpoints
 70
0
 62
7
  6
Continuous
290
0
370
-3
390
13
347
21
  0
ENDTAB
  0
TABLE
  2
STYLE
  5
5
330
0
100
AcDbSymbolTable
 70
1
  0
STYLE
  5
29
330
5
100
AcDbSymbolTableRecord
100
AcDbTextStyleTableRecord
  2
Standard
 70
0
 40
0.0
 41
1.0
 50
0.0
 71
0
 42
2.5
  3
txt
  4

  0
ENDTAB
  0
TABLE
  2
VIEW
  5
7
330
0
100
AcDbSymbolTable
 70
0
  0
ENDTAB
  0
TABLE
  2
UCS
  5
6
330
0
100
AcDbSymbolTable
 70
0
  0
ENDTAB
  0
TABLE
  2
APPID
  5
3
330
0
100
AcDbSymbolTable
 70
3
  0
APPID
  5
2A
330
3
100
AcDbSymbolTableRecord
100
AcDbRegAppTableRecord
  2
ACAD
 70
0
  0
APPID
  5
4F
330
3
100
AcDbSymbolTableRecord
100
AcDbRegAppTableRecord
  2
HATCHBACKGROUNDCOLOR
 70
0
  0
APPID
  5
50
330
3
100
AcDbSymbolTableRecord
100
AcDbRegAppTableRecord
  2
EZDXF
 70
0
  0
ENDTAB
  0
TABLE
  2
DIMSTYLE
  5
4
330
0
100
AcDbSymbolTable
 70
1
100
AcDbDimStyleTable
  0
DIMSTYLE
105
2B
330
4
100
AcDbSymbolTableRecord
100
AcDbDimStyleTableRecord
  2
Standard
 70
0
 40
1.0
 41
2.5
 42
0.625
 43
3.75
 44
1.25
 45
0.0
 46
0.0
 47
0.0
 48
0.0
 49
2.5
140
2.5
141
2.5
142
0.0
143
0.03937007874
144
1.0
145
0.0
146
1.0
147
0.625
148
0.0
 69
0
 70
0
 71
0
 72
0
 73
0
 74
0
 75
0
 76
0
 77
1
 78
8
 79
3
170
0
171
3
172
1
173
0
174
0
175
0
176
0
177
0
178
0
179
2
271
2
272
2
273
2
274
3
275
0
276
0
277
2
278
44
279
0
280
0
281
0
282
0
283
0
284
8
285
0
286
0
288
0
289
3
290
0
371
-2
372
-2
  0
ENDTAB
  0
TABLE
  2
BLOCK_RECORD
  5
9
330
0
100
AcDbSymbolTable
 70
2
  0
BLOCK_RECORD
  5
17
330
9
100
AcDbSymbolTableRecord
100
AcDbBlockTableRecord
  2
*Model_Space
340
1A
 70
0
280
1
281
0
  0
BLOCK_RECORD
  5
1B
330
9
100
AcDbSymbolTableRecord
100
AcDbBlockTableRecord
  2
*Paper_Space
340
1E
 70
0
280
1
281
0
  0
ENDTAB
  0
ENDSEC
  0
SECTION
  2
BLOCKS
  0
BLOCK
  5
18
330
17
100
AcDbEntity
  8
0
100
AcDbBlockBegin
  2
*Model_Space
 70
0
 10
0.0
 20
0.0
 30
0.0
  3
*Model_Space
  1

  0
ENDBLK
  5
19
330
17
100
AcDbEntity
  8
0
100
AcDbBlockEnd
  0
BLOCK
  5
1C
330
1B
100
AcDbEntity
  8
0
100
AcDbBlockBegin
  2
*Paper_Space
 70
0
 10
0.0
 20
0.0
 30
0.0
  3
*Paper_Space
  1

  0
ENDBLK
  5
1D
330
1B
100
AcDbEntity
  8
0
100
AcDbBlockEnd
  0
ENDSEC
  0
SECTION
  2
ENTITIES
  0
LWPOLYLINE
  5
2F
330
17
100
AcDbEntity
  8
0
  6
DASHED
 62
9
100
AcDbPolyline
 90
5
 70
0
 10
0.0
 20
0.0
 10
400.0
 20
0.0
 10
400.0
 20
600.0
 10
0.0
 20
600.0
 10
0.0
 20
0.0
  0
LWPOLYLINE
  5
30
330
17
100
AcDbEntity
  8
0
  6
DASHDOT
 62
9
100
AcDbPolyline
 90
5
 70
0
 10
5.0
 20
5.0
 10
395.0
 20
5.0
 10
395.0
 20
595.0
 10
5.0
 20
595.0
 10
5.0
 20
5.0
  0
LWPOLYLINE
  5
31
330
17
100
AcDbEntity
  8
0
 62
4
100
AcDbPolyline
 90
5
 70
0
 10
5.0
 20
5.0
 10
45.0
 20
5.0
 10
45.0
 20
255.0
 10
5.0
 20
255.0
 10
5.0
 20
5.0
  0
TEXT
  5
32
330
17
100
AcDbEntity
  8
0
 62
7
100
AcDbText
 10
25.0
 20
130.0
 30
0.0
 40
7.199999999999999
  1
Tower Frame #1
  7
OpenSans
 72
1
 11
25.0
 21
130.0
 31
0.0
100
AcDbText
 73
2
  0
LWPOLYLINE
  5
33
330
17
100
AcDbEntity
  8
0
 62
4
100
AcDbPolyline
 90
5
 70
0
 10
48.0
 20
5.0
 10
88.0
 20
5.0
 10
88.0
 20
255.0
 10
48.0
 20
255.0
 10
48.0
 20
5.0
  0
TEXT
  5
34
330
17
100
AcDbEntity
  8
0
 62
7
100
AcDbText
 10
68.0
 20
130.0
 30
0.0
 40
7.199999999999999
  1
Tower Frame #2
  7
OpenSans
 72
1
 11
68.0
 21
130.0
 31
0.0
100
AcDbText
 73
2
  0
LWPOLYLINE
  5
35
330
17
100
AcDbEntity
  8
0
 62
4
100
AcDbPolyline
 90
5
 70
0
 10
91.0
 20
5.0
 10
291.0
 20
5.0
 10
291.0
 20
155.0
 10
91.0
 20
155.0
 10
91.0
 20
5.0
  0
TEXT
  5
36
330
17
100
AcDbEntity
  8
0
 62
7
100
AcDbText
 10
191.0
 20
80.0
 30
0.0
 40
8.0
  1
Base
  7
OpenSans
 72
1
 11
191.0
 21
80.0
 31
0.0
100
AcDbText
 73
2
  0
LWPOLYLINE
  5
37
330
17
100
AcDbEntity
  8
0
 62
4
100
AcDbPolyline
 90
81
 70
0
 10
342.7418266608145
 20
28.489278962236884
 10
345.960716533714
 20
29.57129532227641
 10
345.960716533714
 20
32.42870467772359
 10
342.7418266608145
 20
33.51072103776312
 10
342.404617907026
 20
35.639773317757005
 10
345.1316026524396
 20
37.66352370145791
 10
344.2486146017204
 20
40.38108148867869
 10
340.852906969419
 20
40.41544852488489
 10
339.8742890503458
 20
42.336094333733485
 10
341.8424324013725
 20
45.103479953241084
 10
340.1628893224781
 20
47.41517268168382
 10
336.9227594531106
 20
46.398526309103616
 10
335.3985263091036
 20
47.92275945311059
 10
336.4151726816838
 20
51.162889322478094
 10
334.1034799532411
 20
52.84243240137249
 10
331.3360943337335
 20
50.874289050345816
 10
329.4154485248849
 20
51.85290696941898
 10
329.38108148867866
 20
55.24861460172045
 10
326.6635237014579
 20
56.13160265243959
 10
324.63977331775703
 20
53.404617907026
 10
322.5107210377631
 20
53.74182666081451
 10
321.4287046777236
 20
56.960716533713985
 10
318.5712953222764
 20
56.960716533713985
 10
317.4892789622369
 20
53.74182666081451
 10
315.360226682243
 20
53.404617907026
 10
313.3364762985421
 20
56.13160265243959
 10
310.61891851132134
 20
55.24861460172045
 10
310.5845514751151
 20
51.85290696941899
 10
308.6639056662665
 20
50.87428905034581
 10
305.8965200467589
 20
52.84243240137249
 10
303.5848273183162
 20
51.162889322478094
 10
304.6014736908964
 20
47.922759453110594
 10
303.0772405468894
 20
46.398526309103616
 10
299.8371106775219
 20
47.41517268168383
 10
298.1575675986275
 20
45.10347995324109
 10
300.1257109496542
 20
42.33609433373349
 10
299.147093030581
 20
40.41544852488489
 10
295.7513853982796
 20
40.38108148867869
 10
294.8683973475604
 20
37.66352370145791
 10
297.595382092974
 20
35.63977331775701
 10
297.2581733391855
 20
33.51072103776311
 10
294.039283466286
 20
32.428704677723594
 10
294.039283466286
 20
29.57129532227641
 10
297.2581733391855
 20
28.48927896223689
 10
297.595382092974
 20
26.360226682242995
 10
294.8683973475604
 20
24.336476298542095
 10
295.7513853982796
 20
21.61891851132131
 10
299.147093030581
 20
21.58455147511512
 10
300.1257109496542
 20
19.663905666266515
 10
298.1575675986275
 20
16.896520046758916
 10
299.8371106775219
 20
14.58482731831618
 10
303.0772405468894
 20
15.601473690896393
 10
304.6014736908964
 20
14.07724054688941
 10
303.5848273183162
 20
10.83711067752191
 10
305.8965200467589
 20
9.157567598627509
 10
308.66390566626654
 20
11.125710949654184
 10
310.5845514751151
 20
10.147093030581019
 10
310.6189185113213
 20
6.751385398279556
 10
313.3364762985421
 20
5.8683973475604105
 10
315.360226682243
 20
8.595382092973999
 10
317.4892789622369
 20
8.258173339185493
 10
318.5712953222764
 20
5.039283466286015
 10
321.4287046777236
 20
5.039283466286015
 10
322.5107210377631
 20
8.25817333918549
 10
324.639773317757
 20
8.595382092973999
 10
326.6635237014579
 20
5.868397347560407
 10
329.38108148867866
 20
6.751385398279552
 10
329.4154485248849
 20
10.147093030581015
 10
331.33609433373346
 20
11.12571094965418
 10
334.1034799532411
 20
9.157567598627505
 10
336.4151726816838
 20
10.837110677521903
 10
335.3985263091036
 20
14.07724054688941
 10
336.9227594531106
 20
15.601473690896377
 10
340.16288932247807
 20
14.584827318316172
 10
341.8424324013725
 20
16.896520046758912
 10
339.8742890503458
 20
19.663905666266515
 10
340.852906969419
 20
21.584551475115102
 10
344.2486146017204
 20
21.618918511321304
 10
345.1316026524396
 20
24.336476298542085
 10
342.404617907026
 20
26.360226682242995
 10
342.7418266608145
 20
28.489278962236884
  0
CIRCLE
  5
38
330
17
100
AcDbEntity
  8
0
 62
4
100
AcDbCircle
 10
320.0
 20
31.0
 30
0.0
 40
1.5
  0
TEXT
  5
39
330
17
100
AcDbEntity
  8
0
 62
7
100
AcDbText
 10
320.0
 20
31.0
 30
0.0
 40
8.0
  1
Large Gear
  7
OpenSans
 72
1
 11
320.0
 21
31.0
 31
0.0
100
AcDbText
 73
2
  0
CIRCLE
  5
3A
330
17
100
AcDbEntity
  8
0
 62
4
100
AcDbCircle
 10
30.0
 20
283.0
 30
0.0
 40
25.0
  0
CIRCLE
  5
3B
330
17
100
AcDbEntity
  8
0
 62
4
100
AcDbCircle
 10
30.0
 20
283.0
 30
0.0
 40
1.5
  0
TEXT
  5
3C
330
17
100
AcDbEntity
  8
0
 62
7
100
AcDbText
 10
30.0
 20
283.0
 30
0.0
 40
8.0
  1
Pulley
  7
OpenSans
 72
1
 11
30.0
 21
283.0
 31
0.0
100
AcDbText
 73
2
  0
LWPOLYLINE
  5
3D
330
17
100
AcDbEntity
  8
0
 62
4
100
AcDbPolyline
 90
5
 70
0
 10
58.0
 20
258.0
 10
98.0
 20
258.0
 10
98.0
 20
298.0
 10
58.0
 20
298.0
 10
58.0
 20
258.0
  0
TEXT
  5
3E
330
17
100
AcDbEntity
  8
0
 62
7
100
AcDbText
 10
78.0
 20
278.0
 30
0.0
 40
7.199999999999999
  1
Hook Plate
  7
OpenSans
 72
1
 11
78.0
 21
278.0
 31
0.0
100
AcDbText
 73
2
  0
CIRCLE
  5
3F
330
17
100
AcDbEntity
  8
0
 62
4
100
AcDbCircle
 10
118.5
 20
275.5
 30
0.0
 40
17.5
  0
CIRCLE
  5
40
330
17
100
AcDbEntity
  8
0
 62
4
100
AcDbCircle
 10
118.5
 20
275.5
 30
0.0
 40
1.5
  0
TEXT
  5
41
330
17
100
AcDbEntity
  8
0
 62
7
100
AcDbText
 10
118.5
 20
275.5
 30
0.0
 40
6.3
  1
Winch Drum
  7
OpenSans
 72
1
 11
118.5
 21
275.5
 31
0.0
100
AcDbText
 73
2
  0
LWPOLYLINE
  5
42
330
17
100
AcDbEntity
  8
0
 62
4
100
AcDbPolyline
 90
45
 70
0
 10
165.07461715265828
 20
269.5533654509244
 10
166.93011453603503
 20
270.60289262655107
 10
166.93011453603503
 20
273.39710737344893
 10
165.07461715265828
 20
274.4466345490756
 10
164.4805648398851
 20
276.4697909299199
 10
165.47409133863715
 20
278.35586699635365
 10
163.96342479372777
 20
280.7065100236705
 10
161.83506383463043
 20
280.5862708458332
 10
160.24151430824327
 20
281.96708937069934
 10
160.05763227893965
 20
284.0908985032242
 10
157.51592514326987
 20
285.25165725863684
 10
155.79044017468541
 20
283.9998268167295
 10
153.70333414982932
 20
284.29990736037
 10
152.40042483752558
 20
285.98715516552755
 10
149.63465116782612
 20
285.5894969457219
 10
148.8598714755859
 20
283.6035225600389
 10
146.94185036836615
 20
282.72759167011566
 10
144.93357827380146
 20
283.4425888912917
 10
142.82185166817897
 20
281.6127673713374
 10
143.24376433023758
 20
279.5231818771086
 10
142.10378629010694
 20
277.7493414221403
 10
140.027763613533
 20
277.2650814935404
 10
139.24054234852542
 20
274.58405207712184
 10
140.72519307577164
 20
273.0542841044593
 10
140.72519307577164
 20
270.9457158955407
 10
139.24054234852542
 20
269.41594792287816
 10
140.027763613533
 20
266.7349185064596
 10
142.1037862901069
 20
266.2506585778597
 10
143.24376433023758
 20
264.4768181228914
 10
142.82185166817897
 20
262.3872326286626
 10
144.93357827380146
 20
260.5574111087083
 10
146.94185036836615
 20
261.27240832988434
 10
148.8598714755859
 20
260.3964774399611
 10
149.63465116782612
 20
258.4105030542781
 10
152.40042483752555
 20
258.01284483447245
 10
153.70333414982932
 20
259.70009263963
 10
155.79044017468541
 20
260.0001731832705
 10
157.51592514326987
 20
258.74834274136316
 10
160.05763227893965
 20
259.9091014967758
 10
160.24151430824327
 20
262.03291062930066
 10
161.83506383463043
 20
263.4137291541668
 10
163.96342479372777
 20
263.2934899763295
 10
165.47409133863715
 20
265.64413300364635
 10
164.4805648398851
 20
267.5302090700801
 10
165.07461715265828
 20
269.5533654509244
  0
CIRCLE
  5
43
330
17
100
AcDbEntity
  8
0
 62
4
100
AcDbCircle
 10
153.0
 20
272.0
 30
0.0
 40
1.5
  0
TEXT
  5
44
330
17
100
AcDbEntity
  8
0
 62
7
100
AcDbText
 10
153.0
 20
272.0
 30
0.0
 40
5.04
  1
Small Gear
  7
OpenSans
 72
1
 11
153.0
 21
272.0
 31
0.0
100
AcDbText
 73
2
  0
LWPOLYLINE
  5
45
330
17
100
AcDbEntity
  8
0
 62
4
100
AcDbPolyline
 90
5
 70
0
 10
170.0
 20
258.0
 10
390.0
 20
258.0
 10
390.0
 20
283.0
 10
170.0
 20
283.0
 10
170.0
 20
258.0
  0
TEXT
  5
46
330
17
100
AcDbEntity
  8
0
 62
7
100
AcDbText
 10
280.0
 20
270.5
 30
0.0
 40
4.5
  1
Jib
  7
OpenSans
 72
1
 11
280.0
 21
270.5
 31
0.0
100
AcDbText
 73
2
  0
LWPOLYLINE
  5
47
330
17
100
AcDbEntity
  8
0
 62
4
100
AcDbPolyline
 90
5
 70
0
 10
5.0
 20
311.0
 10
35.0
 20
311.0
 10
35.0
 20
334.0
 10
5.0
 20
334.0
 10
5.0
 20
311.0
  0
TEXT
  5
48
330
17
100
AcDbEntity
  8
0
 62
7
100
AcDbText
 10
20.0
 20
322.5
 30
0.0
 40
4.14
  1
Cross Brace #1
  7
OpenSans
 72
1
 11
20.0
 21
322.5
 31
0.0
100
AcDbText
 73
2
  0
LWPOLYLINE
  5
49
330
17
100
AcDbEntity
  8
0
 62
4
100
AcDbPolyline
 90
5
 70
0
 10
38.0
 20
311.0
 10
68.0
 20
311.0
 10
68.0
 20
334.0
 10
38.0
 20
334.0
 10
38.0
 20
311.0
  0
TEXT
  5
4A
330
17
100
AcDbEntity
  8
0
 62
7
100
AcDbText
 10
53.0
 20
322.5
 30
0.0
 40
4.14
  1
Cross Brace #2
  7
OpenSans
 72
1
 11
53.0
 21
322.5
 31
0.0
100
AcDbText
 73
2
  0
LWPOLYLINE
  5
4B
330
17
100
AcDbEntity
  8
0
 62
4
100
AcDbPolyline
 90
5
 70
0
 10
71.0
 20
311.0
 10
141.0
 20
311.0
 10
141.0
 20
325.0
 10
71.0
 20
325.0
 10
71.0
 20
311.0
  0
TEXT
  5
4C
330
17
100
AcDbEntity
  8
0
 62
7
100
AcDbText
 10
106.0
 20
318.0
 30
0.0
 40
3.0
  1
Crank
  7
OpenSans
 72
1
 11
106.0
 21
318.0
 31
0.0
100
AcDbText
 73
2
  0
TEXT
  5
4D
330
17
100
AcDbEntity
  8
0
 62
7
100
AcDbText
 10
200.0
 20
598.0
 30
0.0
 40
8.0
  1
M6 Tower Crane - Sheet 1/1
 72
1
 11
200.0
 21
598.0
 31
0.0
100
AcDbText
 73
3
  0
TEXT
  5
4E
330
17
100
AcDbEntity
  8
0
 62
7
100
AcDbText
 10
200.0
 20
588.0
 30
0.0
 40
4.0
  1
Material: 3mm MDF (turquoise) / 3mm Birch Ply (brown)
 72
1
 11
200.0
 21
588.0
 31
0.0
100
AcDbText
 73
3
  0
ENDSEC
  0
SECTION
  2
OBJECTS
  0
DICTIONARY
  5
A
330
0
100
AcDbDictionary
281
1
  3
ACAD_COLOR
350
B
  3
ACAD_GROUP
350
C
  3
ACAD_LAYOUT
350
D
  3
ACAD_MATERIAL
350
E
  3
ACAD_MLEADERSTYLE
350
F
  3
ACAD_MLINESTYLE
350
10
  3
ACAD_PLOTSETTINGS
350
11
  3
ACAD_PLOTSTYLENAME
350
12
  3
ACAD_SCALELIST
350
14
  3
ACAD_TABLESTYLE
350
15
  3
ACAD_VISUALSTYLE
350
16
  3
EZDXF_META
350
2D
  0
DICTIONARY
  5
B
330
A
100
AcDbDictionary
281
1
  0
DICTIONARY
  5
C
330
A
100
AcDbDictionary
281
1
  0
DICTIONARY
  5
D
330
A
100
AcDbDictionary
281
1
  3
Model
350
1A
  3
Layout1
350
1E
  0
DICTIONARY
  5
E
330
A
100
AcDbDictionary
281
1
  3
ByBlock
350
1F
  3
ByLayer
350
20
  3
Global
350
21
  0
DICTIONARY
  5
F
330
A
100
AcDbDictionary
281
1
  3
Standard
350
2C
  0
DICTIONARY
  5
10
330
A
100
AcDbDictionary
281
1
  3
Standard
350
22
  0
DICTIONARY
  5
11
330
A
100
AcDbDictionary
281
1
  0
ACDBDICTIONARYWDFLT
  5
12
330
A
100
AcDbDictionary
281
1
  3
Normal
350
13
100
AcDbDictionaryWithDefault
340
13
  0
ACDBPLACEHOLDER
  5
13
330
12
  0
DICTIONARY
  5
14
330
A
100
AcDbDictionary
281
1
  0
DICTIONARY
  5
15
330
A
100
AcDbDictionary
281
1
  0
DICTIONARY
  5
16
330
A
100
AcDbDictionary
281
1
  0
LAYOUT
  5
1A
330
D
100
AcDbPlotSettings
  1

  4
A3
  6

 40
7.5
 41
20.0
 42
7.5
 43
20.0
 44
420.0
 45
297.0
 46
0.0
 47
0.0
 48
0.0
 49
0.0
140
0.0
141
0.0
142
1.0
143
1.0
 70
1024
 72
1
 73
0
 74
5
  7

 75
16
 76
0
 77
2
 78
300
147
1.0
148
0.0
149
0.0
100
AcDbLayout
  1
Model
 70
1
 71
0
 10
0.0
 20
0.0
 11
420.0
 21
297.0
 12
0.0
 22
0.0
 32
0.0
 14
1e+20
 24
1e+20
 34
1e+20
 15
-1e+20
 25
-1e+20
 35
-1e+20
146
0.0
 13
0.0
 23
0.0
 33
0.0
 16
1.0
 26
0.0
 36
0.0
 17
0.0
 27
1.0
 37
0.0
 76
1
330
17
  0
LAYOUT
  5
1E
330
D
100
AcDbPlotSettings
  1

  4
A3
  6

 40
7.5
 41
20.0
 42
7.5
 43
20.0
 44
420.0
 45
297.0
 46
0.0
 47
0.0
 48
0.0
 49
0.0
140
0.0
141
0.0
142
1.0
143
1.0
 70
0
 72
1
 73
0
 74
5
  7

 75
16
 76
0
 77
2
 78
300
147
1.0
148
0.0
149
0.0
100
AcDbLayout
  1
Layout1
 70
1
 71
1
 10
0.0
 20
0.0
 11
420.0
 21
297.0
 12
0.0
 22
0.0
 32
0.0
 14
1e+20
 24
1e+20
 34
1e+20
 15
-1e+20
 25
-1e+20
 35
-1e+20
146
0.0
 13
0.0
 23
0.0
 33
0.0
 16
1.0
 26
0.0
 36
0.0
 17
0.0
 27
1.0
 37
0.0
 76
1
330
1B
  0
MATERIAL
  5
1F
102
{ACAD_REACTORS
330
E
102
}
330
E
100
AcDbMaterial
  1
ByBlock
  2

 70
0
 40
1.0
 71
1
 41
1.0
 91
-1023410177
 42
1.0
 72
1
  3

 73
1
 74
1
 75
1
 44
0.5
 73
0
 45
1.0
 46
1.0
 77
1
  4

 78
1
 79
1
170
1
 48
1.0
171
1
  6

172
1
173
1
174
1
140
1.0
141
1.0
175
1
  7

176
1
177
1
178
1
143
1.0
179
1
  8

270
1
271
1
272
1
145
1.0
146
1.0
273
1
  9

274
1
275
1
276
1
 42
1.0
 72
1
  3

 73
1
 74
1
 75
1
 94
63
  0
MATERIAL
  5
20
102
{ACAD_REACTORS
330
E
102
}
330
E
100
AcDbMaterial
  1
ByLayer
  2

 70
0
 40
1.0
 71
1
 41
1.0
 91
-1023410177
 42
1.0
 72
1
  3

 73
1
 74
1
 75
1
 44
0.5
 73
0
 45
1.0
 46
1.0
 77
1
  4

 78
1
 79
1
170
1
 48
1.0
171
1
  6

172
1
173
1
174
1
140
1.0
141
1.0
175
1
  7

176
1
177
1
178
1
143
1.0
179
1
  8

270
1
271
1
272
1
145
1.0
146
1.0
273
1
  9

274
1
275
1
276
1
 42
1.0
 72
1
  3

 73
1
 74
1
 75
1
 94
63
  0
MATERIAL
  5
21
102
{ACAD_REACTORS
330
E
102
}
330
E
100
AcDbMaterial
  1
Global
  2

 70
0
 40
1.0
 71
1
 41
1.0
 91
-1023410177
 42
1.0
 72
1
  3

 73
1
 74
1
 75
1
 44
0.5
 73
0
 45
1.0
 46
1.0
 77
1
  4

 78
1
 79
1
170
1
 48
1.0
171
1
  6

172
1
173
1
174
1
140
1.0
141
1.0
175
1
  7

176
1
177
1
178
1
143
1.0
179
1
  8

270
1
271
1
272
1
145
1.0
146
1.0
273
1
  9

274
1
275
1
276
1
 42
1.0
 72
1
  3

 73
1
 74
1
 75
1
 94
63
  0
MLINESTYLE
  5
22
102
{ACAD_REACTORS
330
10
102
}
330
10
100
AcDbMlineStyle
  2
Standard
 70
0
  3

 62
256
 51
90.0
 52
90.0
 71
2
 49
0.5
 62
256
  6
BYLAYER
 49
-0.5
 62
256
  6
BYLAYER
  0
MLEADERSTYLE
  5
2C
102
{ACAD_REACTORS
330
F
102
}
330
F
100
AcDbMLeaderStyle
179
2
170
2
171
1
172
0
 90
2
 40
0.0
 41
0.0
173
1
 91
-1056964608
 92
-2
290
1
 42
2.0
291
1
 43
8.0
  3
Standard
 44
4.0
300

342
29
174
1
175
1
176
0
178
1
 93
-1056964608
 45
4.0
292
0
297
0
 46
4.0
 94
-1056964608
 47
1.0
 49
1.0
140
1.0
294
1
141
0.0
177
0
142
1.0
295
0
296
0
143
3.75
271
0
272
9
273
9
  0
DICTIONARY
  5
2D
330
A
100
AcDbDictionary
280
1
281
1
  3
CREATED_BY_EZDXF
350
2E
  3
WRITTEN_BY_EZDXF
350
51
  0
DICTIONARYVAR
  5
2E
330
2D
100
DictionaryVariables
280
0
  1
1.4.3 @ 2026-03-19T11:27:02.330772+00:00
  0
DICTIONARYVAR
  5
51
330
2D
100
DictionaryVariables
280
0
  1
1.4.3 @ 2026-03-19T11:27:02.331732+00:00
  0
ENDSEC
  0
EOF
