  0
SECTION
  2
HEADER
  9
$ACADVER
  1
AC1024
  9
$ACADMAINTVER
 70
6
  9
$DWGCODEPAGE
  3
ANSI_1252
  9
$LASTSAVEDBY
  1
ezdxf
  9
$INSBASE
 10
0.0
 20
0.0
 30
0.0
  9
$EXTMIN
 10
1e+20
 20
1e+20
 30
1e+20
  9
$EXTMAX
 10
-1e+20
 20
-1e+20
 30
-1e+20
  9
$LIMMIN
 10
0.0
 20
0.0
  9
$LIMMAX
 10
420.0
 20
297.0
  9
$ORTHOMODE
 70
0
  9
$REGENMODE
 70
1
  9
$FILLMODE
 70
1
  9
$QTEXTMODE
 70
0
  9
$MIRRTEXT
 70
1
  9
$LTSCALE
 40
1.0
  9
$ATTMODE
 70
1
  9
$TEXTSIZE
 40
2.5
  9
$TRACEWID
 40
1.0
  9
$TEXTSTYLE
  7
Standard
  9
$CLAYER
  8
0
  9
$CELTYPE
  6
ByLayer
  9
$CECOLOR
 62
256
  9
$CELTSCALE
 40
1.0
  9
$DISPSILH
 70
0
  9
$DIMSCALE
 40
1.0
  9
$DIMASZ
 40
2.5
  9
$DIMEXO
 40
0.625
  9
$DIMDLI
 40
3.75
  9
$DIMRND
 40
0.0
  9
$DIMDLE
 40
0.0
  9
$DIMEXE
 40
1.25
  9
$DIMTP
 40
0.0
  9
$DIMTM
 40
0.0
  9
$DIMTXT
 40
2.5
  9
$DIMCEN
 40
2.5
  9
$DIMTSZ
 40
0.0
  9
$DIMTOL
 70
0
  9
$DIMLIM
 70
0
  9
$DIMTIH
 70
0
  9
$DIMTOH
 70
0
  9
$DIMSE1
 70
0
  9
$DIMSE2
 70
0
  9
$DIMTAD
 70
1
  9
$DIMZIN
 70
8
  9
$DIMBLK
  1

  9
$DIMASO
 70
1
  9
$DIMSHO
 70
1
  9
$DIMPOST
  1

  9
$DIMAPOST
  1

  9
$DIMALT
 70
0
  9
$DIMALTD
 70
3
  9
$DIMALTF
 40
0.03937007874
  9
$DIMLFAC
 40
1.0
  9
$DIMTOFL
 70
1
  9
$DIMTVP
 40
0.0
  9
$DIMTIX
 70
0
  9
$DIMSOXD
 70
0
  9
$DIMSAH
 70
0
  9
$DIMBLK1
  1

  9
$DIMBLK2
  1

  9
$DIMSTYLE
  2
ISO-25
  9
$DIMCLRD
 70
0
  9
$DIMCLRE
 70
0
  9
$DIMCLRT
 70
0
  9
$DIMTFAC
 40
1.0
  9
$DIMGAP
 40
0.625
  9
$DIMJUST
 70
0
  9
$DIMSD1
 70
0
  9
$DIMSD2
 70
0
  9
$DIMTOLJ
 70
0
  9
$DIMTZIN
 70
8
  9
$DIMALTZ
 70
0
  9
$DIMALTTZ
 70
0
  9
$DIMUPT
 70
0
  9
$DIMDEC
 70
2
  9
$DIMTDEC
 70
2
  9
$DIMALTU
 70
2
  9
$DIMALTTD
 70
3
  9
$DIMTXSTY
  7
Standard
  9
$DIMAUNIT
 70
0
  9
$DIMADEC
 70
0
  9
$DIMALTRND
 40
0.0
  9
$DIMAZIN
 70
0
  9
$DIMDSEP
 70
44
  9
$DIMATFIT
 70
3
  9
$DIMFRAC
 70
0
  9
$DIMLDRBLK
  1

  9
$DIMLUNIT
 70
2
  9
$DIMLWD
 70
-2
  9
$DIMLWE
 70
-2
  9
$DIMTMOVE
 70
0
  9
$DIMFXL
 40
1.0
  9
$DIMFXLON
 70
0
  9
$DIMJOGANG
 40
0.785398163397
  9
$DIMTFILL
 70
0
  9
$DIMTFILLCLR
 70
0
  9
$DIMARCSYM
 70
0
  9
$DIMLTYPE
  6

  9
$DIMLTEX1
  6

  9
$DIMLTEX2
  6

  9
$DIMTXTDIRECTION
 70
0
  9
$LUNITS
 70
2
  9
$LUPREC
 70
4
  9
$SKETCHINC
 40
1.0
  9
$FILLETRAD
 40
10.0
  9
$AUNITS
 70
0
  9
$AUPREC
 70
2
  9
$MENU
  1
.
  9
$ELEVATION
 40
0.0
  9
$PELEVATION
 40
0.0
  9
$THICKNESS
 40
0.0
  9
$LIMCHECK
 70
0
  9
$CHAMFERA
 40
0.0
  9
$CHAMFERB
 40
0.0
  9
$CHAMFERC
 40
0.0
  9
$CHAMFERD
 40
0.0
  9
$SKPOLY
 70
0
  9
$TDCREATE
 40
2461119.978090278
  9
$TDUCREATE
 40
2458532.153996898
  9
$TDUPDATE
 40
2461119.978090278
  9
$TDUUPDATE
 40
2458532.1544311
  9
$TDINDWG
 40
0.0
  9
$TDUSRTIMER
 40
0.0
  9
$USRTIMER
 70
1
  9
$ANGBASE
 50
0.0
  9
$ANGDIR
 70
0
  9
$PDMODE
 70
0
  9
$PDSIZE
 40
0.0
  9
$PLINEWID
 40
0.0
  9
$SPLFRAME
 70
0
  9
$SPLINETYPE
 70
6
  9
$SPLINESEGS
 70
8
  9
$HANDSEED
  5
73
  9
$SURFTAB1
 70
6
  9
$SURFTAB2
 70
6
  9
$SURFTYPE
 70
6
  9
$SURFU
 70
6
  9
$SURFV
 70
6
  9
$UCSBASE
  2

  9
$UCSNAME
  2

  9
$UCSORG
 10
0.0
 20
0.0
 30
0.0
  9
$UCSXDIR
 10
1.0
 20
0.0
 30
0.0
  9
$UCSYDIR
 10
0.0
 20
1.0
 30
0.0
  9
$UCSORTHOREF
  2

  9
$UCSORTHOVIEW
 70
0
  9
$UCSORGTOP
 10
0.0
 20
0.0
 30
0.0
  9
$UCSORGBOTTOM
 10
0.0
 20
0.0
 30
0.0
  9
$UCSORGLEFT
 10
0.0
 20
0.0
 30
0.0
  9
$UCSORGRIGHT
 10
0.0
 20
0.0
 30
0.0
  9
$UCSORGFRONT
 10
0.0
 20
0.0
 30
0.0
  9
$UCSORGBACK
 10
0.0
 20
0.0
 30
0.0
  9
$PUCSBASE
  2

  9
$PUCSNAME
  2

  9
$PUCSORG
 10
0.0
 20
0.0
 30
0.0
  9
$PUCSXDIR
 10
1.0
 20
0.0
 30
0.0
  9
$PUCSYDIR
 10
0.0
 20
1.0
 30
0.0
  9
$PUCSORTHOREF
  2

  9
$PUCSORTHOVIEW
 70
0
  9
$PUCSORGTOP
 10
0.0
 20
0.0
 30
0.0
  9
$PUCSORGBOTTOM
 10
0.0
 20
0.0
 30
0.0
  9
$PUCSORGLEFT
 10
0.0
 20
0.0
 30
0.0
  9
$PUCSORGRIGHT
 10
0.0
 20
0.0
 30
0.0
  9
$PUCSORGFRONT
 10
0.0
 20
0.0
 30
0.0
  9
$PUCSORGBACK
 10
0.0
 20
0.0
 30
0.0
  9
$USERI1
 70
0
  9
$USERI2
 70
0
  9
$USERI3
 70
0
  9
$USERI4
 70
0
  9
$USERI5
 70
0
  9
$USERR1
 40
0.0
  9
$USERR2
 40
0.0
  9
$USERR3
 40
0.0
  9
$USERR4
 40
0.0
  9
$USERR5
 40
0.0
  9
$WORLDVIEW
 70
1
  9
$SHADEDGE
 70
3
  9
$SHADEDIF
 70
70
  9
$TILEMODE
 70
1
  9
$MAXACTVP
 70
64
  9
$PINSBASE
 10
0.0
 20
0.0
 30
0.0
  9
$PLIMCHECK
 70
0
  9
$PEXTMIN
 10
1e+20
 20
1e+20
 30
1e+20
  9
$PEXTMAX
 10
-1e+20
 20
-1e+20
 30
-1e+20
  9
$PLIMMIN
 10
0.0
 20
0.0
  9
$PLIMMAX
 10
420.0
 20
297.0
  9
$UNITMODE
 70
0
  9
$VISRETAIN
 70
1
  9
$PLINEGEN
 70
0
  9
$PSLTSCALE
 70
1
  9
$TREEDEPTH
 70
3020
  9
$CMLSTYLE
  2
Standard
  9
$CMLJUST
 70
0
  9
$CMLSCALE
 40
20.0
  9
$PROXYGRAPHICS
 70
1
  9
$MEASUREMENT
 70
1
  9
$CELWEIGHT
370
-1
  9
$ENDCAPS
280
0
  9
$JOINSTYLE
280
0
  9
$LWDISPLAY
290
0
  9
$INSUNITS
 70
6
  9
$HYPERLINKBASE
  1

  9
$STYLESHEET
  1

  9
$XEDIT
290
1
  9
$CEPSNTYPE
380
0
  9
$PSTYLEMODE
290
1
  9
$FINGERPRINTGUID
  2
{ABBEDC90-DF10-4292-B425-0F6B0F1AB48C}
  9
$VERSIONGUID
  2
{2C304782-828B-43B5-B0AF-80337B55F826}
  9
$EXTNAMES
290
1
  9
$PSVPSCALE
 40
0.0
  9
$OLESTARTUP
290
0
  9
$SORTENTS
280
127
  9
$INDEXCTL
280
0
  9
$HIDETEXT
280
1
  9
$XCLIPFRAME
280
1
  9
$HALOGAP
280
0
  9
$OBSCOLOR
 70
257
  9
$OBSLTYPE
280
0
  9
$INTERSECTIONDISPLAY
280
0
  9
$INTERSECTIONCOLOR
 70
257
  9
$DIMASSOC
280
2
  9
$PROJECTNAME
  1

  9
$CAMERADISPLAY
290
0
  9
$LENSLENGTH
 40
50.0
  9
$CAMERAHEIGHT
 40
0.0
  9
$STEPSPERSEC
 40
24.0
  9
$STEPSIZE
 40
100.0
  9
$3DDWFPREC
 40
2.0
  9
$PSOLWIDTH
 40
0.005
  9
$PSOLHEIGHT
 40
0.08
  9
$LOFTANG1
 40
1.570796326795
  9
$LOFTANG2
 40
1.570796326795
  9
$LOFTMAG1
 40
0.0
  9
$LOFTMAG2
 40
0.0
  9
$LOFTPARAM
 70
7
  9
$LOFTNORMALS
280
1
  9
$LATITUDE
 40
37.795
  9
$LONGITUDE
 40
-122.394
  9
$NORTHDIRECTION
 40
0.0
  9
$TIMEZONE
 70
-8000
  9
$LIGHTGLYPHDISPLAY
280
1
  9
$TILEMODELIGHTSYNCH
280
1
  9
$CMATERIAL
347
20
  9
$SOLIDHIST
280
0
  9
$SHOWHIST
280
1
  9
$DWFFRAME
280
2
  9
$DGNFRAME
280
2
  9
$REALWORLDSCALE
290
1
  9
$INTERFERECOLOR
 62
256
  9
$CSHADOW
280
0
  9
$SHADOWPLANELOCATION
 40
0.0
  0
ENDSEC
  0
SECTION
  2
CLASSES
  0
CLASS
  1
ACDBDICTIONARYWDFLT
  2
AcDbDictionaryWithDefault
  3
ObjectDBX Classes
 90
0
 91
0
280
0
281
0
  0
CLASS
  1
SUN
  2
AcDbSun
  3
SCENEOE
 90
1153
 91
0
280
0
281
0
  0
CLASS
  1
VISUALSTYLE
  2
AcDbVisualStyle
  3
ObjectDBX Classes
 90
4095
 91
0
280
0
281
0
  0
CLASS
  1
MATERIAL
  2
AcDbMaterial
  3
ObjectDBX Classes
 90
1153
 91
0
280
0
281
0
  0
CLASS
  1
SCALE
  2
AcDbScale
  3
ObjectDBX Classes
 90
1153
 91
0
280
0
281
0
  0
CLASS
  1
TABLESTYLE
  2
AcDbTableStyle
  3
ObjectDBX Classes
 90
4095
 91
0
280
0
281
0
  0
CLASS
  1
MLEADERSTYLE
  2
AcDbMLeaderStyle
  3
ACDB_MLEADERSTYLE_CLASS
 90
4095
 91
0
280
0
281
0
  0
CLASS
  1
DICTIONARYVAR
  2
AcDbDictionaryVar
  3
ObjectDBX Classes
 90
0
 91
0
280
0
281
0
  0
CLASS
  1
CELLSTYLEMAP
  2
AcDbCellStyleMap
  3
ObjectDBX Classes
 90
1152
 91
0
280
0
281
0
  0
CLASS
  1
MENTALRAYRENDERSETTINGS
  2
AcDbMentalRayRenderSettings
  3
SCENEOE
 90
1024
 91
0
280
0
281
0
  0
CLASS
  1
ACDBDETAILVIEWSTYLE
  2
AcDbDetailViewStyle
  3
ObjectDBX Classes
 90
1025
 91
0
280
0
281
0
  0
CLASS
  1
ACDBSECTIONVIEWSTYLE
  2
AcDbSectionViewStyle
  3
ObjectDBX Classes
 90
1025
 91
0
280
0
281
0
  0
CLASS
  1
RASTERVARIABLES
  2
AcDbRasterVariables
  3
ISM
 90
0
 91
0
280
0
281
0
  0
CLASS
  1
ACDBPLACEHOLDER
  2
AcDbPlaceHolder
  3
ObjectDBX Classes
 90
0
 91
0
280
0
281
0
  0
CLASS
  1
LAYOUT
  2
AcDbLayout
  3
ObjectDBX Classes
 90
0
 91
0
280
0
281
0
  0
ENDSEC
  0
SECTION
  2
TABLES
  0
TABLE
  2
VPORT
  5
8
330
0
100
AcDbSymbolTable
 70
1
  0
VPORT
  5
23
330
8
100
AcDbSymbolTableRecord
100
AcDbViewportTableRecord
  2
*Active
 70
0
 10
0.0
 20
0.0
 11
1.0
 21
1.0
 12
0.0
 22
0.0
 13
0.0
 23
0.0
 14
0.5
 24
0.5
 15
0.5
 25
0.5
 16
0.0
 26
0.0
 36
1.0
 17
0.0
 27
0.0
 37
0.0
 40
1000.0
 41
1.34
 42
50.0
 43
0.0
 44
0.0
 50
0.0
 51
0.0
 71
0
 72
1000
 73
1
 74
3
 75
0
 76
0
 77
0
 78
0
281
0
 65
0
146
0.0
  0
ENDTAB
  0
TABLE
  2
LTYPE
  5
2
330
0
100
AcDbSymbolTable
 70
3
  0
LTYPE
  5
24
330
2
100
AcDbSymbolTableRecord
100
AcDbLinetypeTableRecord
  2
ByBlock
 70
0
  3

 72
65
 73
0
 40
0.0
  0
LTYPE
  5
25
330
2
100
AcDbSymbolTableRecord
100
AcDbLinetypeTableRecord
  2
ByLayer
 70
0
  3

 72
65
 73
0
 40
0.0
  0
LTYPE
  5
26
330
2
100
AcDbSymbolTableRecord
100
AcDbLinetypeTableRecord
  2
Continuous
 70
0
  3

 72
65
 73
0
 40
0.0
  0
ENDTAB
  0
TABLE
  2
LAYER
  5
1
330
0
100
AcDbSymbolTable
 70
6
  0
LAYER
  5
27
330
1
100
AcDbSymbolTableRecord
100
AcDbLayerTableRecord
  2
0
 70
0
 62
7
  6
Continuous
370
-3
390
13
347
21
  0
LAYER
  5
28
330
1
100
AcDbSymbolTableRecord
100
AcDbLayerTableRecord
  2
Defpoints
 70
0
 62
7
  6
Continuous
290
0
370
-3
390
13
347
21
  0
LAYER
  5
2F
330
1
100
AcDbSymbolTableRecord
100
AcDbLayerTableRecord
  2
CUTS
 70
0
 62
7
  6
Continuous
370
-3
390
13
347
21
  0
LAYER
  5
30
330
1
100
AcDbSymbolTableRecord
100
AcDbLayerTableRecord
  2
ENGRAVE
 70
0
 62
1
  6
Continuous
370
-3
390
13
347
21
  0
LAYER
  5
31
330
1
100
AcDbSymbolTableRecord
100
AcDbLayerTableRecord
  2
GUIDE
 70
0
 62
3
  6
Continuous
370
-3
390
13
347
21
  0
LAYER
  5
32
330
1
100
AcDbSymbolTableRecord
100
AcDbLayerTableRecord
  2
SHEET
 70
0
 62
8
  6
Continuous
370
-3
390
13
347
21
  0
ENDTAB
  0
TABLE
  2
STYLE
  5
5
330
0
100
AcDbSymbolTable
 70
1
  0
STYLE
  5
29
330
5
100
AcDbSymbolTableRecord
100
AcDbTextStyleTableRecord
  2
Standard
 70
0
 40
0.0
 41
1.0
 50
0.0
 71
0
 42
2.5
  3
txt
  4

  0
ENDTAB
  0
TABLE
  2
VIEW
  5
7
330
0
100
AcDbSymbolTable
 70
0
  0
ENDTAB
  0
TABLE
  2
UCS
  5
6
330
0
100
AcDbSymbolTable
 70
0
  0
ENDTAB
  0
TABLE
  2
APPID
  5
3
330
0
100
AcDbSymbolTable
 70
3
  0
APPID
  5
2A
330
3
100
AcDbSymbolTableRecord
100
AcDbRegAppTableRecord
  2
ACAD
 70
0
  0
APPID
  5
70
330
3
100
AcDbSymbolTableRecord
100
AcDbRegAppTableRecord
  2
HATCHBACKGROUNDCOLOR
 70
0
  0
APPID
  5
71
330
3
100
AcDbSymbolTableRecord
100
AcDbRegAppTableRecord
  2
EZDXF
 70
0
  0
ENDTAB
  0
TABLE
  2
DIMSTYLE
  5
4
330
0
100
AcDbSymbolTable
 70
1
100
AcDbDimStyleTable
  0
DIMSTYLE
105
2B
330
4
100
AcDbSymbolTableRecord
100
AcDbDimStyleTableRecord
  2
Standard
 70
0
 40
1.0
 41
2.5
 42
0.625
 43
3.75
 44
1.25
 45
0.0
 46
0.0
 47
0.0
 48
0.0
 49
2.5
140
2.5
141
2.5
142
0.0
143
0.03937007874
144
1.0
145
0.0
146
1.0
147
0.625
148
0.0
 69
0
 70
0
 71
0
 72
0
 73
0
 74
0
 75
0
 76
0
 77
1
 78
8
 79
3
170
0
171
3
172
1
173
0
174
0
175
0
176
0
177
0
178
0
179
2
271
2
272
2
273
2
274
3
275
0
276
0
277
2
278
44
279
0
280
0
281
0
282
0
283
0
284
8
285
0
286
0
288
0
289
3
290
0
371
-2
372
-2
  0
ENDTAB
  0
TABLE
  2
BLOCK_RECORD
  5
9
330
0
100
AcDbSymbolTable
 70
2
  0
BLOCK_RECORD
  5
17
330
9
100
AcDbSymbolTableRecord
100
AcDbBlockTableRecord
  2
*Model_Space
340
1A
 70
0
280
1
281
0
  0
BLOCK_RECORD
  5
1B
330
9
100
AcDbSymbolTableRecord
100
AcDbBlockTableRecord
  2
*Paper_Space
340
1E
 70
0
280
1
281
0
  0
ENDTAB
  0
ENDSEC
  0
SECTION
  2
BLOCKS
  0
BLOCK
  5
18
330
17
100
AcDbEntity
  8
0
100
AcDbBlockBegin
  2
*Model_Space
 70
0
 10
0.0
 20
0.0
 30
0.0
  3
*Model_Space
  1

  0
ENDBLK
  5
19
330
17
100
AcDbEntity
  8
0
100
AcDbBlockEnd
  0
BLOCK
  5
1C
330
1B
100
AcDbEntity
  8
0
100
AcDbBlockBegin
  2
*Paper_Space
 70
0
 10
0.0
 20
0.0
 30
0.0
  3
*Paper_Space
  1

  0
ENDBLK
  5
1D
330
1B
100
AcDbEntity
  8
0
100
AcDbBlockEnd
  0
ENDSEC
  0
SECTION
  2
ENTITIES
  0
LWPOLYLINE
  5
33
330
17
100
AcDbEntity
  8
SHEET
 62
8
100
AcDbPolyline
 90
4
 70
1
 10
0.0
 20
0.0
 10
400.0
 20
0.0
 10
400.0
 20
600.0
 10
0.0
 20
600.0
  0
LWPOLYLINE
  5
34
330
17
100
AcDbEntity
  8
CUTS
100
AcDbPolyline
 90
4
 70
1
 10
42.5
 20
238.5
 10
242.5
 20
238.5
 10
242.5
 20
388.5
 10
42.5
 20
388.5
  0
TEXT
  5
35
330
17
100
AcDbEntity
  8
ENGRAVE
100
AcDbText
 10
47.5
 20
380.5
 30
0.0
 40
3.0
  1
M6 BASE
 11
47.5
 21
380.5
 31
0.0
100
AcDbText
  0
LWPOLYLINE
  5
36
330
17
100
AcDbEntity
  8
CUTS
100
AcDbPolyline
 90
4
 70
1
 10
131.05
 20
288.5
 10
133.95
 20
288.5
 10
133.95
 20
298.5
 10
131.05
 20
298.5
  0
LWPOLYLINE
  5
37
330
17
100
AcDbEntity
  8
CUTS
100
AcDbPolyline
 90
4
 70
1
 10
131.05
 20
328.5
 10
133.95
 20
328.5
 10
133.95
 20
338.5
 10
131.05
 20
338.5
  0
LWPOLYLINE
  5
38
330
17
100
AcDbEntity
  8
CUTS
100
AcDbPolyline
 90
4
 70
1
 10
151.05
 20
288.5
 10
153.95
 20
288.5
 10
153.95
 20
298.5
 10
151.05
 20
298.5
  0
LWPOLYLINE
  5
39
330
17
100
AcDbEntity
  8
CUTS
100
AcDbPolyline
 90
4
 70
1
 10
151.05
 20
328.5
 10
153.95
 20
328.5
 10
153.95
 20
338.5
 10
151.05
 20
338.5
  0
CIRCLE
  5
3A
330
17
100
AcDbEntity
  8
CUTS
100
AcDbCircle
 10
72.5
 20
313.5
 30
0.0
 40
5.0
  0
CIRCLE
  5
3B
330
17
100
AcDbEntity
  8
CUTS
100
AcDbCircle
 10
97.5
 20
313.5
 30
0.0
 40
5.0
  0
CIRCLE
  5
3C
330
17
100
AcDbEntity
  8
CUTS
100
AcDbCircle
 10
212.5
 20
268.5
 30
0.0
 40
1.6
  0
LWPOLYLINE
  5
3D
330
17
100
AcDbEntity
  8
CUTS
100
AcDbPolyline
 90
4
 70
1
 10
250.5
 20
238.5
 10
290.5
 20
238.5
 10
290.5
 20
488.5
 10
250.5
 20
488.5
  0
LWPOLYLINE
  5
3E
330
17
100
AcDbEntity
  8
CUTS
100
AcDbPolyline
 90
4
 70
1
 10
255.5
 20
235.5
 10
265.5
 20
235.5
 10
265.5
 20
238.5
 10
255.5
 20
238.5
  0
LWPOLYLINE
  5
3F
330
17
100
AcDbEntity
  8
CUTS
100
AcDbPolyline
 90
4
 70
1
 10
275.5
 20
235.5
 10
285.5
 20
235.5
 10
285.5
 20
238.5
 10
275.5
 20
238.5
  0
LWPOLYLINE
  5
40
330
17
100
AcDbEntity
  8
CUTS
100
AcDbPolyline
 90
4
 70
1
 10
265.5
 20
477.05
 10
275.5
 20
477.05
 10
275.5
 20
479.95000000000005
 10
265.5
 20
479.95000000000005
  0
LWPOLYLINE
  5
41
330
17
100
AcDbEntity
  8
CUTS
100
AcDbPolyline
 90
4
 70
1
 10
265.5
 20
317.05
 10
275.5
 20
317.05
 10
275.5
 20
319.95
 10
265.5
 20
319.95
  0
LWPOLYLINE
  5
42
330
17
100
AcDbEntity
  8
CUTS
100
AcDbPolyline
 90
4
 70
1
 10
265.5
 20
397.05
 10
275.5
 20
397.05
 10
275.5
 20
399.95000000000005
 10
265.5
 20
399.95000000000005
  0
CIRCLE
  5
43
330
17
100
AcDbEntity
  8
CUTS
100
AcDbCircle
 10
270.5
 20
463.5
 30
0.0
 40
2.0
  0
TEXT
  5
44
330
17
100
AcDbEntity
  8
ENGRAVE
100
AcDbText
 10
252.5
 20
478.5
 30
0.0
 40
2.0
  1
M6 TWR L
 11
252.5
 21
478.5
 31
0.0
100
AcDbText
  0
LWPOLYLINE
  5
45
330
17
100
AcDbEntity
  8
CUTS
100
AcDbPolyline
 90
4
 70
1
 10
298.5
 20
238.5
 10
338.5
 20
238.5
 10
338.5
 20
488.5
 10
298.5
 20
488.5
  0
LWPOLYLINE
  5
46
330
17
100
AcDbEntity
  8
CUTS
100
AcDbPolyline
 90
4
 70
1
 10
303.5
 20
235.5
 10
313.5
 20
235.5
 10
313.5
 20
238.5
 10
303.5
 20
238.5
  0
LWPOLYLINE
  5
47
330
17
100
AcDbEntity
  8
CUTS
100
AcDbPolyline
 90
4
 70
1
 10
323.5
 20
235.5
 10
333.5
 20
235.5
 10
333.5
 20
238.5
 10
323.5
 20
238.5
  0
LWPOLYLINE
  5
48
330
17
100
AcDbEntity
  8
CUTS
100
AcDbPolyline
 90
4
 70
1
 10
313.5
 20
477.05
 10
323.5
 20
477.05
 10
323.5
 20
479.95000000000005
 10
313.5
 20
479.95000000000005
  0
LWPOLYLINE
  5
49
330
17
100
AcDbEntity
  8
CUTS
100
AcDbPolyline
 90
4
 70
1
 10
313.5
 20
317.05
 10
323.5
 20
317.05
 10
323.5
 20
319.95
 10
313.5
 20
319.95
  0
LWPOLYLINE
  5
4A
330
17
100
AcDbEntity
  8
CUTS
100
AcDbPolyline
 90
4
 70
1
 10
313.5
 20
397.05
 10
323.5
 20
397.05
 10
323.5
 20
399.95000000000005
 10
313.5
 20
399.95000000000005
  0
CIRCLE
  5
4B
330
17
100
AcDbEntity
  8
CUTS
100
AcDbCircle
 10
318.5
 20
463.5
 30
0.0
 40
2.0
  0
TEXT
  5
4C
330
17
100
AcDbEntity
  8
ENGRAVE
100
AcDbText
 10
300.5
 20
478.5
 30
0.0
 40
2.0
  1
M6 TWR R
 11
300.5
 21
478.5
 31
0.0
100
AcDbText
  0
LWPOLYLINE
  5
4D
330
17
100
AcDbEntity
  8
CUTS
100
AcDbPolyline
 90
4
 70
1
 10
42.5
 20
200.5
 10
262.5
 20
200.5
 10
262.5
 20
225.5
 10
42.5
 20
225.5
  0
LWPOLYLINE
  5
4E
330
17
100
AcDbEntity
  8
CUTS
100
AcDbPolyline
 90
4
 70
1
 10
47.5
 20
197.5
 10
57.5
 20
197.5
 10
57.5
 20
200.5
 10
47.5
 20
200.5
  0
CIRCLE
  5
4F
330
17
100
AcDbEntity
  8
CUTS
100
AcDbCircle
 10
247.5
 20
213.0
 30
0.0
 40
1.6
  0
CIRCLE
  5
50
330
17
100
AcDbEntity
  8
CUTS
100
AcDbCircle
 10
247.5
 20
222.5
 30
0.0
 40
2.0
  0
TEXT
  5
51
330
17
100
AcDbEntity
  8
ENGRAVE
100
AcDbText
 10
47.5
 20
217.5
 30
0.0
 40
3.0
  1
M6 JIB
 11
47.5
 21
217.5
 31
0.0
100
AcDbText
  0
LWPOLYLINE
  5
52
330
17
100
AcDbEntity
  8
CUTS
100
AcDbPolyline
 90
4
 70
1
 10
270.5
 20
200.5
 10
290.5
 20
200.5
 10
290.5
 20
220.5
 10
270.5
 20
220.5
  0
LWPOLYLINE
  5
53
330
17
100
AcDbEntity
  8
CUTS
100
AcDbPolyline
 90
4
 70
1
 10
267.5
 20
205.5
 10
270.5
 20
205.5
 10
270.5
 20
215.5
 10
267.5
 20
215.5
  0
LWPOLYLINE
  5
54
330
17
100
AcDbEntity
  8
CUTS
100
AcDbPolyline
 90
4
 70
1
 10
290.5
 20
205.5
 10
293.5
 20
205.5
 10
293.5
 20
215.5
 10
290.5
 20
215.5
  0
TEXT
  5
55
330
17
100
AcDbEntity
  8
ENGRAVE
100
AcDbText
 10
272.5
 20
205.5
 30
0.0
 40
2.0
  1
BR1
 11
272.5
 21
205.5
 31
0.0
100
AcDbText
  0
LWPOLYLINE
  5
56
330
17
100
AcDbEntity
  8
CUTS
100
AcDbPolyline
 90
4
 70
1
 10
298.5
 20
200.5
 10
318.5
 20
200.5
 10
318.5
 20
220.5
 10
298.5
 20
220.5
  0
LWPOLYLINE
  5
57
330
17
100
AcDbEntity
  8
CUTS
100
AcDbPolyline
 90
4
 70
1
 10
295.5
 20
205.5
 10
298.5
 20
205.5
 10
298.5
 20
215.5
 10
295.5
 20
215.5
  0
LWPOLYLINE
  5
58
330
17
100
AcDbEntity
  8
CUTS
100
AcDbPolyline
 90
4
 70
1
 10
318.5
 20
205.5
 10
321.5
 20
205.5
 10
321.5
 20
215.5
 10
318.5
 20
215.5
  0
TEXT
  5
59
330
17
100
AcDbEntity
  8
ENGRAVE
100
AcDbText
 10
300.5
 20
205.5
 30
0.0
 40
2.0
  1
BR2
 11
300.5
 21
205.5
 31
0.0
100
AcDbText
  0
CIRCLE
  5
5A
330
17
100
AcDbEntity
  8
CUTS
100
AcDbCircle
 10
60.0
 20
137.5
 30
0.0
 40
17.5
  0
CIRCLE
  5
5B
330
17
100
AcDbEntity
  8
CUTS
100
AcDbCircle
 10
60.0
 20
137.5
 30
0.0
 40
1.6
  0
LWPOLYLINE
  5
5C
330
17
100
AcDbEntity
  8
CUTS
100
AcDbPolyline
 90
4
 70
1
 10
67.0
 20
136.05
 10
73.0
 20
136.05
 10
73.0
 20
138.95
 10
67.0
 20
138.95
  0
TEXT
  5
5D
330
17
100
AcDbEntity
  8
ENGRAVE
100
AcDbText
 10
50.0
 20
135.5
 30
0.0
 40
2.0
  1
DRUM
 11
50.0
 21
135.5
 31
0.0
100
AcDbText
  0
LWPOLYLINE
  5
5E
330
17
100
AcDbEntity
  8
CUTS
100
AcDbPolyline
 90
72
 70
1
 10
113.49222294236016
 20
137.03341974828544
 10
113.5
 20
137.5
 10
113.49222294236016
 20
137.96658025171456
 10
108.75314206736495
 20
139.65159519453852
 10
108.67629534974614
 20
139.95878092847394
 10
108.58925369243376
 20
140.2632349365516
 10
111.85091064935662
 20
144.09204112029113
 10
111.62435565298215
 20
144.5
 10
111.38433039764207
 20
144.90018182206902
 10
106.43765849789524
 20
143.98990713081335
 10
106.2175144212722
 20
144.2175144212722
 10
105.98990713081335
 20
144.43765849789526
 10
106.90018182206902
 20
149.38433039764206
 10
106.5
 20
149.62435565298216
 10
106.09204112029114
 20
149.85091064935662
 10
102.26323493655161
 20
146.58925369243377
 10
101.95878092847394
 20
146.67629534974614
 10
101.65159519453852
 20
146.75314206736493
 10
99.96658025171456
 20
151.49222294236017
 10
99.5
 20
151.5
 10
99.03341974828544
 20
151.49222294236017
 10
97.34840480546148
 20
146.75314206736493
 10
97.04121907152606
 20
146.67629534974614
 10
96.7367650634484
 20
146.58925369243377
 10
92.90795887970886
 20
149.85091064935662
 10
92.5
 20
149.62435565298216
 10
92.09981817793098
 20
149.3843303976421
 10
93.01009286918665
 20
144.43765849789526
 10
92.7824855787278
 20
144.2175144212722
 10
92.56234150210476
 20
143.98990713081335
 10
87.61566960235794
 20
144.90018182206902
 10
87.37564434701787
 20
144.5
 10
87.14908935064338
 20
144.09204112029113
 10
90.41074630756624
 20
140.2632349365516
 10
90.32370465025386
 20
139.95878092847397
 10
90.24685793263505
 20
139.65159519453852
 10
85.50777705763984
 20
137.96658025171456
 10
85.5
 20
137.5
 10
85.50777705763984
 20
137.03341974828544
 10
90.24685793263505
 20
135.34840480546148
 10
90.32370465025386
 20
135.04121907152606
 10
90.41074630756624
 20
134.7367650634484
 10
87.14908935064338
 20
130.90795887970887
 10
87.37564434701785
 20
130.5
 10
87.61566960235793
 20
130.09981817793098
 10
92.56234150210476
 20
131.01009286918665
 10
92.7824855787278
 20
130.7824855787278
 10
93.01009286918665
 20
130.56234150210474
 10
92.09981817793098
 20
125.61566960235794
 10
92.5
 20
125.37564434701787
 10
92.90795887970884
 20
125.14908935064338
 10
96.73676506344839
 20
128.41074630756623
 10
97.04121907152604
 20
128.32370465025386
 10
97.34840480546148
 20
128.24685793263507
 10
99.03341974828544
 20
123.50777705763984
 10
99.5
 20
123.5
 10
99.96658025171455
 20
123.50777705763984
 10
101.65159519453852
 20
128.24685793263507
 10
101.95878092847394
 20
128.32370465025383
 10
102.2632349365516
 20
128.41074630756623
 10
106.09204112029113
 20
125.14908935064338
 10
106.5
 20
125.37564434701785
 10
106.900181822069
 20
125.61566960235793
 10
105.98990713081334
 20
130.56234150210474
 10
106.2175144212722
 20
130.7824855787278
 10
106.43765849789523
 20
131.01009286918665
 10
111.38433039764206
 20
130.09981817793098
 10
111.62435565298213
 20
130.5
 10
111.85091064935662
 20
130.90795887970887
 10
108.58925369243376
 20
134.7367650634484
 10
108.67629534974614
 20
135.04121907152603
 10
108.75314206736493
 20
135.34840480546148
  0
CIRCLE
  5
5F
330
17
100
AcDbEntity
  8
CUTS
100
AcDbCircle
 10
99.5
 20
137.5
 30
0.0
 40
1.6
  0
TEXT
  5
60
330
17
100
AcDbEntity
  8
ENGRAVE
100
AcDbText
 10
93.5
 20
135.5
 30
0.0
 40
2.0
  1
SM
 11
93.5
 21
135.5
 31
0.0
100
AcDbText
  0
LWPOLYLINE
  5
61
330
17
100
AcDbEntity
  8
CUTS
100
AcDbPolyline
 90
144
 70
1
 10
173.49638897247866
 20
137.06668672811642
 10
173.5
 20
137.5
 10
173.49638897247866
 20
137.93331327188358
 10
168.8598737437618
 20
139.95067208140043
 10
168.81606451953692
 20
140.3063131327311
 10
168.76633430334076
 20
140.66117467068057
 10
172.72273322603263
 20
143.8098120897845
 10
172.61407148351577
 20
144.22929517266556
 10
172.4984337715143
 20
144.64690905015678
 10
167.49777308740582
 20
145.3955095810611
 10
167.36340994899268
 20
145.72769379584943
 10
167.22352932442615
 20
146.05759259304284
 10
170.23018989276994
 20
150.1229341849912
 10
170.01666049839542
 20
150.5
 10
169.79687662088637
 20
150.87345478748745
 10
164.77285724302573
 20
150.30228115071895
 10
164.55709681626155
 20
150.5883707236875
 10
164.33659841672525
 20
150.87082472227965
 10
166.18862168172984
 20
155.57582417587582
 10
165.88477631085024
 20
155.88477631085024
 10
165.57582417587582
 20
156.18862168172984
 10
160.87082472227968
 20
154.33659841672525
 10
160.5883707236875
 20
154.55709681626155
 10
160.30228115071895
 20
154.77285724302573
 10
160.87345478748745
 20
159.79687662088637
 10
160.5
 20
160.0166604983954
 10
160.1229341849912
 20
160.23018989276994
 10
156.05759259304284
 20
157.22352932442615
 10
155.72769379584943
 20
157.36340994899268
 10
155.3955095810611
 20
157.49777308740582
 10
154.64690905015678
 20
162.4984337715143
 10
154.22929517266556
 20
162.61407148351577
 10
153.8098120897845
 20
162.72273322603263
 10
150.66117467068057
 20
158.76633430334076
 10
150.3063131327311
 20
158.81606451953692
 10
149.95067208140043
 20
158.8598737437618
 10
147.93331327188358
 20
163.49638897247866
 10
147.5
 20
163.5
 10
147.06668672811645
 20
163.49638897247866
 10
145.04932791859957
 20
158.8598737437618
 10
144.6936868672689
 20
158.81606451953692
 10
144.33882532931943
 20
158.76633430334076
 10
141.19018791021554
 20
162.72273322603263
 10
140.77070482733447
 20
162.61407148351577
 10
140.35309094984322
 20
162.49843377151433
 10
139.6044904189389
 20
157.49777308740582
 10
139.27230620415057
 20
157.36340994899268
 10
138.94240740695716
 20
157.22352932442615
 10
134.8770658150088
 20
160.23018989276994
 10
134.5
 20
160.01666049839542
 10
134.12654521251255
 20
159.79687662088637
 10
134.69771884928105
 20
154.77285724302573
 10
134.4116292763125
 20
154.55709681626155
 10
134.12917527772035
 20
154.33659841672525
 10
129.42417582412418
 20
156.18862168172984
 10
129.11522368914976
 20
155.88477631085024
 10
128.81137831827016
 20
155.57582417587582
 10
130.66340158327475
 20
150.87082472227968
 10
130.44290318373845
 20
150.5883707236875
 10
130.22714275697427
 20
150.30228115071895
 10
125.20312337911363
 20
150.87345478748745
 10
124.9833395016046
 20
150.5
 10
124.76981010723007
 20
150.1229341849912
 10
127.77647067557385
 20
146.05759259304284
 10
127.63659005100735
 20
145.72769379584946
 10
127.50222691259418
 20
145.3955095810611
 10
122.5015662284857
 20
144.6469090501568
 10
122.38592851648423
 20
144.22929517266556
 10
122.27726677396738
 20
143.8098120897845
 10
126.23366569665924
 20
140.66117467068057
 10
126.18393548046308
 20
140.30631313273113
 10
126.1401262562382
 20
139.95067208140046
 10
121.50361102752134
 20
137.93331327188358
 10
121.5
 20
137.5
 10
121.50361102752134
 20
137.06668672811645
 10
126.1401262562382
 20
135.04932791859957
 10
126.18393548046308
 20
134.6936868672689
 10
126.23366569665924
 20
134.33882532931943
 10
122.27726677396738
 20
131.19018791021554
 10
122.38592851648423
 20
130.77070482733447
 10
122.50156622848569
 20
130.35309094984322
 10
127.50222691259418
 20
129.60449041893892
 10
127.63659005100733
 20
129.2723062041506
 10
127.77647067557385
 20
128.94240740695716
 10
124.76981010723006
 20
124.8770658150088
 10
124.98333950160459
 20
124.5
 10
125.20312337911363
 20
124.12654521251255
 10
130.22714275697427
 20
124.69771884928105
 10
130.44290318373845
 20
124.41162927631251
 10
130.66340158327475
 20
124.12917527772035
 10
128.81137831827016
 20
119.42417582412418
 10
129.11522368914976
 20
119.11522368914977
 10
129.42417582412415
 20
118.81137831827017
 10
134.12917527772032
 20
120.66340158327475
 10
134.4116292763125
 20
120.44290318373845
 10
134.69771884928105
 20
120.22714275697427
 10
134.12654521251255
 20
115.20312337911363
 10
134.5
 20
114.9833395016046
 10
134.8770658150088
 20
114.76981010723007
 10
138.94240740695716
 20
117.77647067557385
 10
139.27230620415054
 20
117.63659005100735
 10
139.6044904189389
 20
117.50222691259418
 10
140.3530909498432
 20
112.5015662284857
 10
140.77070482733444
 20
112.38592851648423
 10
141.1901879102155
 20
112.27726677396738
 10
144.3388253293194
 20
116.23366569665924
 10
144.69368686726887
 20
116.18393548046308
 10
145.04932791859954
 20
116.1401262562382
 10
147.06668672811642
 20
111.50361102752134
 10
147.5
 20
111.5
 10
147.93331327188355
 20
111.50361102752134
 10
149.95067208140043
 20
116.1401262562382
 10
150.3063131327311
 20
116.18393548046308
 10
150.66117467068057
 20
116.23366569665924
 10
153.80981208978446
 20
112.27726677396738
 10
154.22929517266553
 20
112.38592851648423
 10
154.64690905015675
 20
112.50156622848569
 10
155.39550958106108
 20
117.50222691259418
 10
155.7276937958494
 20
117.63659005100733
 10
156.05759259304284
 20
117.77647067557385
 10
160.12293418499118
 20
114.76981010723006
 10
160.5
 20
114.98333950160459
 10
160.87345478748745
 20
115.20312337911362
 10
160.30228115071895
 20
120.22714275697427
 10
160.5883707236875
 20
120.44290318373844
 10
160.87082472227962
 20
120.66340158327473
 10
165.57582417587582
 20
118.81137831827016
 10
165.8847763108502
 20
119.11522368914976
 10
166.18862168172984
 20
119.42417582412416
 10
164.33659841672525
 20
124.12917527772034
 10
164.55709681626155
 20
124.4116292763125
 10
164.77285724302573
 20
124.69771884928103
 10
169.79687662088637
 20
124.12654521251254
 10
170.0166604983954
 20
124.49999999999999
 10
170.23018989276994
 20
124.87706581500879
 10
167.22352932442615
 20
128.94240740695716
 10
167.36340994899265
 20
129.27230620415054
 10
167.49777308740582
 20
129.6044904189389
 10
172.4984337715143
 20
130.3530909498432
 10
172.61407148351577
 20
130.77070482733444
 10
172.7227332260326
 20
131.1901879102155
 10
168.76633430334076
 20
134.3388253293194
 10
168.81606451953692
 20
134.69368686726887
 10
168.8598737437618
 20
135.04932791859954
  0
CIRCLE
  5
62
330
17
100
AcDbEntity
  8
CUTS
100
AcDbCircle
 10
147.5
 20
137.5
 30
0.0
 40
1.6
  0
TEXT
  5
63
330
17
100
AcDbEntity
  8
ENGRAVE
100
AcDbText
 10
141.5
 20
135.5
 30
0.0
 40
2.0
  1
LG
 11
141.5
 21
135.5
 31
0.0
100
AcDbText
  0
LWPOLYLINE
  5
64
330
17
100
AcDbEntity
  8
CUTS
100
AcDbPolyline
 90
4
 70
1
 10
181.5
 20
117.5
 10
221.5
 20
117.5
 10
221.5
 20
157.5
 10
181.5
 20
157.5
  0
CIRCLE
  5
65
330
17
100
AcDbEntity
  8
CUTS
100
AcDbCircle
 10
201.5
 20
152.5
 30
0.0
 40
2.0
  0
LWPOLYLINE
  5
66
330
17
100
AcDbEntity
  8
CUTS
100
AcDbPolyline
 90
4
 70
1
 10
196.5
 20
117.5
 10
196.5
 20
129.5
 10
206.5
 20
129.5
 10
206.5
 20
117.5
  0
TEXT
  5
67
330
17
100
AcDbEntity
  8
ENGRAVE
100
AcDbText
 10
186.5
 20
139.5
 30
0.0
 40
3.0
  1
M6 HOOK
 11
186.5
 21
139.5
 31
0.0
100
AcDbText
  0
LWPOLYLINE
  5
68
330
17
100
AcDbEntity
  8
CUTS
100
AcDbPolyline
 90
4
 70
1
 10
229.5
 20
130.5
 10
299.5
 20
130.5
 10
299.5
 20
144.5
 10
229.5
 20
144.5
  0
CIRCLE
  5
69
330
17
100
AcDbEntity
  8
CUTS
100
AcDbCircle
 10
237.5
 20
137.5
 30
0.0
 40
1.6
  0
CIRCLE
  5
6A
330
17
100
AcDbEntity
  8
CUTS
100
AcDbCircle
 10
291.5
 20
137.5
 30
0.0
 40
3.0
  0
TEXT
  5
6B
330
17
100
AcDbEntity
  8
ENGRAVE
100
AcDbText
 10
247.5
 20
132.5
 30
0.0
 40
2.0
  1
M6 CRANK
 11
247.5
 21
132.5
 31
0.0
100
AcDbText
  0
CIRCLE
  5
6C
330
17
100
AcDbEntity
  8
CUTS
100
AcDbCircle
 10
332.5
 20
137.5
 30
0.0
 40
25.0
  0
CIRCLE
  5
6D
330
17
100
AcDbEntity
  8
CUTS
100
AcDbCircle
 10
332.5
 20
137.5
 30
0.0
 40
1.6
  0
CIRCLE
  5
6E
330
17
100
AcDbEntity
  8
ENGRAVE
100
AcDbCircle
 10
332.5
 20
137.5
 30
0.0
 40
22.0
  0
TEXT
  5
6F
330
17
100
AcDbEntity
  8
ENGRAVE
100
AcDbText
 10
320.5
 20
135.5
 30
0.0
 40
3.0
  1
M6 PUL
 11
320.5
 21
135.5
 31
0.0
100
AcDbText
  0
ENDSEC
  0
SECTION
  2
OBJECTS
  0
DICTIONARY
  5
A
330
0
100
AcDbDictionary
281
1
  3
ACAD_COLOR
350
B
  3
ACAD_GROUP
350
C
  3
ACAD_LAYOUT
350
D
  3
ACAD_MATERIAL
350
E
  3
ACAD_MLEADERSTYLE
350
F
  3
ACAD_MLINESTYLE
350
10
  3
ACAD_PLOTSETTINGS
350
11
  3
ACAD_PLOTSTYLENAME
350
12
  3
ACAD_SCALELIST
350
14
  3
ACAD_TABLESTYLE
350
15
  3
ACAD_VISUALSTYLE
350
16
  3
EZDXF_META
350
2D
  0
DICTIONARY
  5
B
330
A
100
AcDbDictionary
281
1
  0
DICTIONARY
  5
C
330
A
100
AcDbDictionary
281
1
  0
DICTIONARY
  5
D
330
A
100
AcDbDictionary
281
1
  3
Model
350
1A
  3
Layout1
350
1E
  0
DICTIONARY
  5
E
330
A
100
AcDbDictionary
281
1
  3
ByBlock
350
1F
  3
ByLayer
350
20
  3
Global
350
21
  0
DICTIONARY
  5
F
330
A
100
AcDbDictionary
281
1
  3
Standard
350
2C
  0
DICTIONARY
  5
10
330
A
100
AcDbDictionary
281
1
  3
Standard
350
22
  0
DICTIONARY
  5
11
330
A
100
AcDbDictionary
281
1
  0
ACDBDICTIONARYWDFLT
  5
12
330
A
100
AcDbDictionary
281
1
  3
Normal
350
13
100
AcDbDictionaryWithDefault
340
13
  0
ACDBPLACEHOLDER
  5
13
330
12
  0
DICTIONARY
  5
14
330
A
100
AcDbDictionary
281
1
  0
DICTIONARY
  5
15
330
A
100
AcDbDictionary
281
1
  0
DICTIONARY
  5
16
330
A
100
AcDbDictionary
281
1
  0
LAYOUT
  5
1A
330
D
100
AcDbPlotSettings
  1

  4
A3
  6

 40
7.5
 41
20.0
 42
7.5
 43
20.0
 44
420.0
 45
297.0
 46
0.0
 47
0.0
 48
0.0
 49
0.0
140
0.0
141
0.0
142
1.0
143
1.0
 70
1024
 72
1
 73
0
 74
5
  7

 75
16
 76
0
 77
2
 78
300
147
1.0
148
0.0
149
0.0
100
AcDbLayout
  1
Model
 70
1
 71
0
 10
0.0
 20
0.0
 11
420.0
 21
297.0
 12
0.0
 22
0.0
 32
0.0
 14
1e+20
 24
1e+20
 34
1e+20
 15
-1e+20
 25
-1e+20
 35
-1e+20
146
0.0
 13
0.0
 23
0.0
 33
0.0
 16
1.0
 26
0.0
 36
0.0
 17
0.0
 27
1.0
 37
0.0
 76
1
330
17
  0
LAYOUT
  5
1E
330
D
100
AcDbPlotSettings
  1

  4
A3
  6

 40
7.5
 41
20.0
 42
7.5
 43
20.0
 44
420.0
 45
297.0
 46
0.0
 47
0.0
 48
0.0
 49
0.0
140
0.0
141
0.0
142
1.0
143
1.0
 70
0
 72
1
 73
0
 74
5
  7

 75
16
 76
0
 77
2
 78
300
147
1.0
148
0.0
149
0.0
100
AcDbLayout
  1
Layout1
 70
1
 71
1
 10
0.0
 20
0.0
 11
420.0
 21
297.0
 12
0.0
 22
0.0
 32
0.0
 14
1e+20
 24
1e+20
 34
1e+20
 15
-1e+20
 25
-1e+20
 35
-1e+20
146
0.0
 13
0.0
 23
0.0
 33
0.0
 16
1.0
 26
0.0
 36
0.0
 17
0.0
 27
1.0
 37
0.0
 76
1
330
1B
  0
MATERIAL
  5
1F
102
{ACAD_REACTORS
330
E
102
}
330
E
100
AcDbMaterial
  1
ByBlock
  2

 70
0
 40
1.0
 71
1
 41
1.0
 91
-1023410177
 42
1.0
 72
1
  3

 73
1
 74
1
 75
1
 44
0.5
 73
0
 45
1.0
 46
1.0
 77
1
  4

 78
1
 79
1
170
1
 48
1.0
171
1
  6

172
1
173
1
174
1
140
1.0
141
1.0
175
1
  7

176
1
177
1
178
1
143
1.0
179
1
  8

270
1
271
1
272
1
145
1.0
146
1.0
273
1
  9

274
1
275
1
276
1
 42
1.0
 72
1
  3

 73
1
 74
1
 75
1
 94
63
  0
MATERIAL
  5
20
102
{ACAD_REACTORS
330
E
102
}
330
E
100
AcDbMaterial
  1
ByLayer
  2

 70
0
 40
1.0
 71
1
 41
1.0
 91
-1023410177
 42
1.0
 72
1
  3

 73
1
 74
1
 75
1
 44
0.5
 73
0
 45
1.0
 46
1.0
 77
1
  4

 78
1
 79
1
170
1
 48
1.0
171
1
  6

172
1
173
1
174
1
140
1.0
141
1.0
175
1
  7

176
1
177
1
178
1
143
1.0
179
1
  8

270
1
271
1
272
1
145
1.0
146
1.0
273
1
  9

274
1
275
1
276
1
 42
1.0
 72
1
  3

 73
1
 74
1
 75
1
 94
63
  0
MATERIAL
  5
21
102
{ACAD_REACTORS
330
E
102
}
330
E
100
AcDbMaterial
  1
Global
  2

 70
0
 40
1.0
 71
1
 41
1.0
 91
-1023410177
 42
1.0
 72
1
  3

 73
1
 74
1
 75
1
 44
0.5
 73
0
 45
1.0
 46
1.0
 77
1
  4

 78
1
 79
1
170
1
 48
1.0
171
1
  6

172
1
173
1
174
1
140
1.0
141
1.0
175
1
  7

176
1
177
1
178
1
143
1.0
179
1
  8

270
1
271
1
272
1
145
1.0
146
1.0
273
1
  9

274
1
275
1
276
1
 42
1.0
 72
1
  3

 73
1
 74
1
 75
1
 94
63
  0
MLINESTYLE
  5
22
102
{ACAD_REACTORS
330
10
102
}
330
10
100
AcDbMlineStyle
  2
Standard
 70
0
  3

 62
256
 51
90.0
 52
90.0
 71
2
 49
0.5
 62
256
  6
BYLAYER
 49
-0.5
 62
256
  6
BYLAYER
  0
MLEADERSTYLE
  5
2C
102
{ACAD_REACTORS
330
F
102
}
330
F
100
AcDbMLeaderStyle
179
2
170
2
171
1
172
0
 90
2
 40
0.0
 41
0.0
173
1
 91
-1056964608
 92
-2
290
1
 42
2.0
291
1
 43
8.0
  3
Standard
 44
4.0
300

342
29
174
1
175
1
176
0
178
1
 93
-1056964608
 45
4.0
292
0
297
0
 46
4.0
 94
-1056964608
 47
1.0
 49
1.0
140
1.0
294
1
141
0.0
177
0
142
1.0
295
0
296
0
143
3.75
271
0
272
9
273
9
  0
DICTIONARY
  5
2D
330
A
100
AcDbDictionary
280
1
281
1
  3
CREATED_BY_EZDXF
350
2E
  3
WRITTEN_BY_EZDXF
350
72
  0
DICTIONARYVAR
  5
2E
330
2D
100
DictionaryVariables
280
0
  1
1.4.3 @ 2026-03-19T20:28:27.635852+00:00
  0
DICTIONARYVAR
  5
72
330
2D
100
DictionaryVariables
280
0
  1
1.4.3 @ 2026-03-19T20:28:27.637798+00:00
  0
ENDSEC
  0
EOF
