  0
SECTION
  2
HEADER
  9
$ACADVER
  1
AC1024
  9
$ACADMAINTVER
 70
6
  9
$DWGCODEPAGE
  3
ANSI_1252
  9
$LASTSAVEDBY
  1
ezdxf
  9
$INSBASE
 10
0.0
 20
0.0
 30
0.0
  9
$EXTMIN
 10
1e+20
 20
1e+20
 30
1e+20
  9
$EXTMAX
 10
-1e+20
 20
-1e+20
 30
-1e+20
  9
$LIMMIN
 10
0.0
 20
0.0
  9
$LIMMAX
 10
420.0
 20
297.0
  9
$ORTHOMODE
 70
0
  9
$REGENMODE
 70
1
  9
$FILLMODE
 70
1
  9
$QTEXTMODE
 70
0
  9
$MIRRTEXT
 70
1
  9
$LTSCALE
 40
1.0
  9
$ATTMODE
 70
1
  9
$TEXTSIZE
 40
2.5
  9
$TRACEWID
 40
1.0
  9
$TEXTSTYLE
  7
Standard
  9
$CLAYER
  8
0
  9
$CELTYPE
  6
ByLayer
  9
$CECOLOR
 62
256
  9
$CELTSCALE
 40
1.0
  9
$DISPSILH
 70
0
  9
$DIMSCALE
 40
1.0
  9
$DIMASZ
 40
2.5
  9
$DIMEXO
 40
0.625
  9
$DIMDLI
 40
3.75
  9
$DIMRND
 40
0.0
  9
$DIMDLE
 40
0.0
  9
$DIMEXE
 40
1.25
  9
$DIMTP
 40
0.0
  9
$DIMTM
 40
0.0
  9
$DIMTXT
 40
2.5
  9
$DIMCEN
 40
2.5
  9
$DIMTSZ
 40
0.0
  9
$DIMTOL
 70
0
  9
$DIMLIM
 70
0
  9
$DIMTIH
 70
0
  9
$DIMTOH
 70
0
  9
$DIMSE1
 70
0
  9
$DIMSE2
 70
0
  9
$DIMTAD
 70
1
  9
$DIMZIN
 70
8
  9
$DIMBLK
  1

  9
$DIMASO
 70
1
  9
$DIMSHO
 70
1
  9
$DIMPOST
  1

  9
$DIMAPOST
  1

  9
$DIMALT
 70
0
  9
$DIMALTD
 70
3
  9
$DIMALTF
 40
0.03937007874
  9
$DIMLFAC
 40
1.0
  9
$DIMTOFL
 70
1
  9
$DIMTVP
 40
0.0
  9
$DIMTIX
 70
0
  9
$DIMSOXD
 70
0
  9
$DIMSAH
 70
0
  9
$DIMBLK1
  1

  9
$DIMBLK2
  1

  9
$DIMSTYLE
  2
ISO-25
  9
$DIMCLRD
 70
0
  9
$DIMCLRE
 70
0
  9
$DIMCLRT
 70
0
  9
$DIMTFAC
 40
1.0
  9
$DIMGAP
 40
0.625
  9
$DIMJUST
 70
0
  9
$DIMSD1
 70
0
  9
$DIMSD2
 70
0
  9
$DIMTOLJ
 70
0
  9
$DIMTZIN
 70
8
  9
$DIMALTZ
 70
0
  9
$DIMALTTZ
 70
0
  9
$DIMUPT
 70
0
  9
$DIMDEC
 70
2
  9
$DIMTDEC
 70
2
  9
$DIMALTU
 70
2
  9
$DIMALTTD
 70
3
  9
$DIMTXSTY
  7
Standard
  9
$DIMAUNIT
 70
0
  9
$DIMADEC
 70
0
  9
$DIMALTRND
 40
0.0
  9
$DIMAZIN
 70
0
  9
$DIMDSEP
 70
44
  9
$DIMATFIT
 70
3
  9
$DIMFRAC
 70
0
  9
$DIMLDRBLK
  1

  9
$DIMLUNIT
 70
2
  9
$DIMLWD
 70
-2
  9
$DIMLWE
 70
-2
  9
$DIMTMOVE
 70
0
  9
$DIMFXL
 40
1.0
  9
$DIMFXLON
 70
0
  9
$DIMJOGANG
 40
0.785398163397
  9
$DIMTFILL
 70
0
  9
$DIMTFILLCLR
 70
0
  9
$DIMARCSYM
 70
0
  9
$DIMLTYPE
  6

  9
$DIMLTEX1
  6

  9
$DIMLTEX2
  6

  9
$DIMTXTDIRECTION
 70
0
  9
$LUNITS
 70
2
  9
$LUPREC
 70
4
  9
$SKETCHINC
 40
1.0
  9
$FILLETRAD
 40
10.0
  9
$AUNITS
 70
0
  9
$AUPREC
 70
2
  9
$MENU
  1
.
  9
$ELEVATION
 40
0.0
  9
$PELEVATION
 40
0.0
  9
$THICKNESS
 40
0.0
  9
$LIMCHECK
 70
0
  9
$CHAMFERA
 40
0.0
  9
$CHAMFERB
 40
0.0
  9
$CHAMFERC
 40
0.0
  9
$CHAMFERD
 40
0.0
  9
$SKPOLY
 70
0
  9
$TDCREATE
 40
2461119.632488426
  9
$TDUCREATE
 40
2458532.153996898
  9
$TDUPDATE
 40
2461119.632488426
  9
$TDUUPDATE
 40
2458532.1544311
  9
$TDINDWG
 40
0.0
  9
$TDUSRTIMER
 40
0.0
  9
$USRTIMER
 70
1
  9
$ANGBASE
 50
0.0
  9
$ANGDIR
 70
0
  9
$PDMODE
 70
0
  9
$PDSIZE
 40
0.0
  9
$PLINEWID
 40
0.0
  9
$SPLFRAME
 70
0
  9
$SPLINETYPE
 70
6
  9
$SPLINESEGS
 70
8
  9
$HANDSEED
  5
52
  9
$SURFTAB1
 70
6
  9
$SURFTAB2
 70
6
  9
$SURFTYPE
 70
6
  9
$SURFU
 70
6
  9
$SURFV
 70
6
  9
$UCSBASE
  2

  9
$UCSNAME
  2

  9
$UCSORG
 10
0.0
 20
0.0
 30
0.0
  9
$UCSXDIR
 10
1.0
 20
0.0
 30
0.0
  9
$UCSYDIR
 10
0.0
 20
1.0
 30
0.0
  9
$UCSORTHOREF
  2

  9
$UCSORTHOVIEW
 70
0
  9
$UCSORGTOP
 10
0.0
 20
0.0
 30
0.0
  9
$UCSORGBOTTOM
 10
0.0
 20
0.0
 30
0.0
  9
$UCSORGLEFT
 10
0.0
 20
0.0
 30
0.0
  9
$UCSORGRIGHT
 10
0.0
 20
0.0
 30
0.0
  9
$UCSORGFRONT
 10
0.0
 20
0.0
 30
0.0
  9
$UCSORGBACK
 10
0.0
 20
0.0
 30
0.0
  9
$PUCSBASE
  2

  9
$PUCSNAME
  2

  9
$PUCSORG
 10
0.0
 20
0.0
 30
0.0
  9
$PUCSXDIR
 10
1.0
 20
0.0
 30
0.0
  9
$PUCSYDIR
 10
0.0
 20
1.0
 30
0.0
  9
$PUCSORTHOREF
  2

  9
$PUCSORTHOVIEW
 70
0
  9
$PUCSORGTOP
 10
0.0
 20
0.0
 30
0.0
  9
$PUCSORGBOTTOM
 10
0.0
 20
0.0
 30
0.0
  9
$PUCSORGLEFT
 10
0.0
 20
0.0
 30
0.0
  9
$PUCSORGRIGHT
 10
0.0
 20
0.0
 30
0.0
  9
$PUCSORGFRONT
 10
0.0
 20
0.0
 30
0.0
  9
$PUCSORGBACK
 10
0.0
 20
0.0
 30
0.0
  9
$USERI1
 70
0
  9
$USERI2
 70
0
  9
$USERI3
 70
0
  9
$USERI4
 70
0
  9
$USERI5
 70
0
  9
$USERR1
 40
0.0
  9
$USERR2
 40
0.0
  9
$USERR3
 40
0.0
  9
$USERR4
 40
0.0
  9
$USERR5
 40
0.0
  9
$WORLDVIEW
 70
1
  9
$SHADEDGE
 70
3
  9
$SHADEDIF
 70
70
  9
$TILEMODE
 70
1
  9
$MAXACTVP
 70
64
  9
$PINSBASE
 10
0.0
 20
0.0
 30
0.0
  9
$PLIMCHECK
 70
0
  9
$PEXTMIN
 10
1e+20
 20
1e+20
 30
1e+20
  9
$PEXTMAX
 10
-1e+20
 20
-1e+20
 30
-1e+20
  9
$PLIMMIN
 10
0.0
 20
0.0
  9
$PLIMMAX
 10
420.0
 20
297.0
  9
$UNITMODE
 70
0
  9
$VISRETAIN
 70
1
  9
$PLINEGEN
 70
0
  9
$PSLTSCALE
 70
1
  9
$TREEDEPTH
 70
3020
  9
$CMLSTYLE
  2
Standard
  9
$CMLJUST
 70
0
  9
$CMLSCALE
 40
20.0
  9
$PROXYGRAPHICS
 70
1
  9
$MEASUREMENT
 70
1
  9
$CELWEIGHT
370
-1
  9
$ENDCAPS
280
0
  9
$JOINSTYLE
280
0
  9
$LWDISPLAY
290
0
  9
$INSUNITS
 70
6
  9
$HYPERLINKBASE
  1

  9
$STYLESHEET
  1

  9
$XEDIT
290
1
  9
$CEPSNTYPE
380
0
  9
$PSTYLEMODE
290
1
  9
$FINGERPRINTGUID
  2
{F487BD85-9FC9-491C-A57C-BD175FDD9374}
  9
$VERSIONGUID
  2
{5DC7D3A3-927C-4CE9-81CF-00AAE7C968AE}
  9
$EXTNAMES
290
1
  9
$PSVPSCALE
 40
0.0
  9
$OLESTARTUP
290
0
  9
$SORTENTS
280
127
  9
$INDEXCTL
280
0
  9
$HIDETEXT
280
1
  9
$XCLIPFRAME
280
1
  9
$HALOGAP
280
0
  9
$OBSCOLOR
 70
257
  9
$OBSLTYPE
280
0
  9
$INTERSECTIONDISPLAY
280
0
  9
$INTERSECTIONCOLOR
 70
257
  9
$DIMASSOC
280
2
  9
$PROJECTNAME
  1

  9
$CAMERADISPLAY
290
0
  9
$LENSLENGTH
 40
50.0
  9
$CAMERAHEIGHT
 40
0.0
  9
$STEPSPERSEC
 40
24.0
  9
$STEPSIZE
 40
100.0
  9
$3DDWFPREC
 40
2.0
  9
$PSOLWIDTH
 40
0.005
  9
$PSOLHEIGHT
 40
0.08
  9
$LOFTANG1
 40
1.570796326795
  9
$LOFTANG2
 40
1.570796326795
  9
$LOFTMAG1
 40
0.0
  9
$LOFTMAG2
 40
0.0
  9
$LOFTPARAM
 70
7
  9
$LOFTNORMALS
280
1
  9
$LATITUDE
 40
37.795
  9
$LONGITUDE
 40
-122.394
  9
$NORTHDIRECTION
 40
0.0
  9
$TIMEZONE
 70
-8000
  9
$LIGHTGLYPHDISPLAY
280
1
  9
$TILEMODELIGHTSYNCH
280
1
  9
$CMATERIAL
347
20
  9
$SOLIDHIST
280
0
  9
$SHOWHIST
280
1
  9
$DWFFRAME
280
2
  9
$DGNFRAME
280
2
  9
$REALWORLDSCALE
290
1
  9
$INTERFERECOLOR
 62
256
  9
$CSHADOW
280
0
  9
$SHADOWPLANELOCATION
 40
0.0
  0
ENDSEC
  0
SECTION
  2
CLASSES
  0
CLASS
  1
ACDBDICTIONARYWDFLT
  2
AcDbDictionaryWithDefault
  3
ObjectDBX Classes
 90
0
 91
0
280
0
281
0
  0
CLASS
  1
SUN
  2
AcDbSun
  3
SCENEOE
 90
1153
 91
0
280
0
281
0
  0
CLASS
  1
VISUALSTYLE
  2
AcDbVisualStyle
  3
ObjectDBX Classes
 90
4095
 91
0
280
0
281
0
  0
CLASS
  1
MATERIAL
  2
AcDbMaterial
  3
ObjectDBX Classes
 90
1153
 91
0
280
0
281
0
  0
CLASS
  1
SCALE
  2
AcDbScale
  3
ObjectDBX Classes
 90
1153
 91
0
280
0
281
0
  0
CLASS
  1
TABLESTYLE
  2
AcDbTableStyle
  3
ObjectDBX Classes
 90
4095
 91
0
280
0
281
0
  0
CLASS
  1
MLEADERSTYLE
  2
AcDbMLeaderStyle
  3
ACDB_MLEADERSTYLE_CLASS
 90
4095
 91
0
280
0
281
0
  0
CLASS
  1
DICTIONARYVAR
  2
AcDbDictionaryVar
  3
ObjectDBX Classes
 90
0
 91
0
280
0
281
0
  0
CLASS
  1
CELLSTYLEMAP
  2
AcDbCellStyleMap
  3
ObjectDBX Classes
 90
1152
 91
0
280
0
281
0
  0
CLASS
  1
MENTALRAYRENDERSETTINGS
  2
AcDbMentalRayRenderSettings
  3
SCENEOE
 90
1024
 91
0
280
0
281
0
  0
CLASS
  1
ACDBDETAILVIEWSTYLE
  2
AcDbDetailViewStyle
  3
ObjectDBX Classes
 90
1025
 91
0
280
0
281
0
  0
CLASS
  1
ACDBSECTIONVIEWSTYLE
  2
AcDbSectionViewStyle
  3
ObjectDBX Classes
 90
1025
 91
0
280
0
281
0
  0
CLASS
  1
RASTERVARIABLES
  2
AcDbRasterVariables
  3
ISM
 90
0
 91
0
280
0
281
0
  0
CLASS
  1
ACDBPLACEHOLDER
  2
AcDbPlaceHolder
  3
ObjectDBX Classes
 90
0
 91
0
280
0
281
0
  0
CLASS
  1
LAYOUT
  2
AcDbLayout
  3
ObjectDBX Classes
 90
0
 91
0
280
0
281
0
  0
ENDSEC
  0
SECTION
  2
TABLES
  0
TABLE
  2
VPORT
  5
8
330
0
100
AcDbSymbolTable
 70
1
  0
VPORT
  5
23
330
8
100
AcDbSymbolTableRecord
100
AcDbViewportTableRecord
  2
*Active
 70
0
 10
0.0
 20
0.0
 11
1.0
 21
1.0
 12
0.0
 22
0.0
 13
0.0
 23
0.0
 14
0.5
 24
0.5
 15
0.5
 25
0.5
 16
0.0
 26
0.0
 36
1.0
 17
0.0
 27
0.0
 37
0.0
 40
1000.0
 41
1.34
 42
50.0
 43
0.0
 44
0.0
 50
0.0
 51
0.0
 71
0
 72
1000
 73
1
 74
3
 75
0
 76
0
 77
0
 78
0
281
0
 65
0
146
0.0
  0
ENDTAB
  0
TABLE
  2
LTYPE
  5
2
330
0
100
AcDbSymbolTable
 70
5
  0
LTYPE
  5
24
330
2
100
AcDbSymbolTableRecord
100
AcDbLinetypeTableRecord
  2
ByBlock
 70
0
  3

 72
65
 73
0
 40
0.0
  0
LTYPE
  5
25
330
2
100
AcDbSymbolTableRecord
100
AcDbLinetypeTableRecord
  2
ByLayer
 70
0
  3

 72
65
 73
0
 40
0.0
  0
LTYPE
  5
26
330
2
100
AcDbSymbolTableRecord
100
AcDbLinetypeTableRecord
  2
Continuous
 70
0
  3

 72
65
 73
0
 40
0.0
  0
LTYPE
  5
2F
330
2
100
AcDbSymbolTableRecord
100
AcDbLinetypeTableRecord
  2
DASHED
 70
0
  3

 72
65
 73
2
 40
0.6
 49
0.5
 74
0
 49
-0.1
 74
0
  0
LTYPE
  5
30
330
2
100
AcDbSymbolTableRecord
100
AcDbLinetypeTableRecord
  2
DASHDOT
 70
0
  3

 72
65
 73
4
 40
1.0
 49
0.5
 74
0
 49
-0.1
 74
0
 49
0.0
 74
0
 49
-0.1
 74
0
  0
ENDTAB
  0
TABLE
  2
LAYER
  5
1
330
0
100
AcDbSymbolTable
 70
2
  0
LAYER
  5
27
330
1
100
AcDbSymbolTableRecord
100
AcDbLayerTableRecord
  2
0
 70
0
 62
7
  6
Continuous
370
-3
390
13
347
21
  0
LAYER
  5
28
330
1
100
AcDbSymbolTableRecord
100
AcDbLayerTableRecord
  2
Defpoints
 70
0
 62
7
  6
Continuous
290
0
370
-3
390
13
347
21
  0
ENDTAB
  0
TABLE
  2
STYLE
  5
5
330
0
100
AcDbSymbolTable
 70
1
  0
STYLE
  5
29
330
5
100
AcDbSymbolTableRecord
100
AcDbTextStyleTableRecord
  2
Standard
 70
0
 40
0.0
 41
1.0
 50
0.0
 71
0
 42
2.5
  3
txt
  4

  0
ENDTAB
  0
TABLE
  2
VIEW
  5
7
330
0
100
AcDbSymbolTable
 70
0
  0
ENDTAB
  0
TABLE
  2
UCS
  5
6
330
0
100
AcDbSymbolTable
 70
0
  0
ENDTAB
  0
TABLE
  2
APPID
  5
3
330
0
100
AcDbSymbolTable
 70
3
  0
APPID
  5
2A
330
3
100
AcDbSymbolTableRecord
100
AcDbRegAppTableRecord
  2
ACAD
 70
0
  0
APPID
  5
4F
330
3
100
AcDbSymbolTableRecord
100
AcDbRegAppTableRecord
  2
HATCHBACKGROUNDCOLOR
 70
0
  0
APPID
  5
50
330
3
100
AcDbSymbolTableRecord
100
AcDbRegAppTableRecord
  2
EZDXF
 70
0
  0
ENDTAB
  0
TABLE
  2
DIMSTYLE
  5
4
330
0
100
AcDbSymbolTable
 70
1
100
AcDbDimStyleTable
  0
DIMSTYLE
105
2B
330
4
100
AcDbSymbolTableRecord
100
AcDbDimStyleTableRecord
  2
Standard
 70
0
 40
1.0
 41
2.5
 42
0.625
 43
3.75
 44
1.25
 45
0.0
 46
0.0
 47
0.0
 48
0.0
 49
2.5
140
2.5
141
2.5
142
0.0
143
0.03937007874
144
1.0
145
0.0
146
1.0
147
0.625
148
0.0
 69
0
 70
0
 71
0
 72
0
 73
0
 74
0
 75
0
 76
0
 77
1
 78
8
 79
3
170
0
171
3
172
1
173
0
174
0
175
0
176
0
177
0
178
0
179
2
271
2
272
2
273
2
274
3
275
0
276
0
277
2
278
44
279
0
280
0
281
0
282
0
283
0
284
8
285
0
286
0
288
0
289
3
290
0
371
-2
372
-2
  0
ENDTAB
  0
TABLE
  2
BLOCK_RECORD
  5
9
330
0
100
AcDbSymbolTable
 70
2
  0
BLOCK_RECORD
  5
17
330
9
100
AcDbSymbolTableRecord
100
AcDbBlockTableRecord
  2
*Model_Space
340
1A
 70
0
280
1
281
0
  0
BLOCK_RECORD
  5
1B
330
9
100
AcDbSymbolTableRecord
100
AcDbBlockTableRecord
  2
*Paper_Space
340
1E
 70
0
280
1
281
0
  0
ENDTAB
  0
ENDSEC
  0
SECTION
  2
BLOCKS
  0
BLOCK
  5
18
330
17
100
AcDbEntity
  8
0
100
AcDbBlockBegin
  2
*Model_Space
 70
0
 10
0.0
 20
0.0
 30
0.0
  3
*Model_Space
  1

  0
ENDBLK
  5
19
330
17
100
AcDbEntity
  8
0
100
AcDbBlockEnd
  0
BLOCK
  5
1C
330
1B
100
AcDbEntity
  8
0
100
AcDbBlockBegin
  2
*Paper_Space
 70
0
 10
0.0
 20
0.0
 30
0.0
  3
*Paper_Space
  1

  0
ENDBLK
  5
1D
330
1B
100
AcDbEntity
  8
0
100
AcDbBlockEnd
  0
ENDSEC
  0
SECTION
  2
ENTITIES
  0
LWPOLYLINE
  5
31
330
17
100
AcDbEntity
  8
0
  6
DASHED
 62
9
100
AcDbPolyline
 90
5
 70
0
 10
0.0
 20
0.0
 10
400.0
 20
0.0
 10
400.0
 20
600.0
 10
0.0
 20
600.0
 10
0.0
 20
0.0
  0
LWPOLYLINE
  5
32
330
17
100
AcDbEntity
  8
0
  6
DASHDOT
 62
9
100
AcDbPolyline
 90
5
 70
0
 10
5.0
 20
5.0
 10
395.0
 20
5.0
 10
395.0
 20
595.0
 10
5.0
 20
595.0
 10
5.0
 20
5.0
  0
LWPOLYLINE
  5
33
330
17
100
AcDbEntity
  8
0
 62
4
100
AcDbPolyline
 90
5
 70
0
 10
5.0
 20
5.0
 10
155.0
 20
5.0
 10
155.0
 20
85.0
 10
5.0
 20
85.0
 10
5.0
 20
5.0
  0
TEXT
  5
34
330
17
100
AcDbEntity
  8
0
 62
7
100
AcDbText
 10
80.0
 20
45.0
 30
0.0
 40
8.0
  1
Chassis
 72
1
 11
80.0
 21
45.0
 31
0.0
100
AcDbText
 73
2
  0
LWPOLYLINE
  5
35
330
17
100
AcDbEntity
  8
0
 62
4
100
AcDbPolyline
 90
101
 70
0
 10
218.05112243347173
 20
34.52611030513107
 10
221.9690539097
 20
35.593020213828325
 10
221.9690539097
 20
38.406979786171675
 10
218.05112243347173
 20
39.47388969486893
 10
217.78507618889356
 20
41.57986257188792
 10
221.3145889384151
 20
43.587603480636204
 10
220.61478564988258
 20
46.313157338504695
 10
216.55461349074307
 20
46.372198373767304
 10
215.77319142100504
 20
48.34584522969674
 10
218.69251317712755
 20
51.16826339324485
 10
217.33687781437743
 20
53.634154963862706
 10
213.38958052135408
 20
52.68161736030737
 10
212.1418822489672
 20
54.39892670462382
 10
214.2675812892391
 20
57.85867920962812
 10
212.3412934077911
 20
59.909967456698595
 10
208.75489418694852
 20
58.00570265514497
 10
207.11931718308008
 20
59.358769625923046
 10
208.3178280190269
 20
63.23846749841448
 10
205.94192337086372
 20
64.74626243726368
 10
202.9417688751011
 20
62.00992239858942
 10
201.02108245813562
 20
62.91372882182291
 10
201.2170982461203
 20
66.96959637594216
 10
198.54086365825202
 20
67.83915770528031
 10
196.31546462833458
 20
64.44267673767001
 10
194.23035258964052
 20
64.84043313181967
 10
193.41155693680832
 20
68.81762529270397
 10
190.60315007089307
 20
68.99431527618589
 10
189.29233651231561
 20
65.15110677021772
 10
187.1738141097898
 20
65.01782063819341
 10
185.39165495832793
 20
68.66643579528483
 10
182.6275383463491
 20
68.13915235142805
 10
182.31367349583212
 20
64.09069923186418
 10
180.2948552834056
 20
63.434745431533095
 10
177.6613122471233
 20
66.52552767584368
 10
175.11516550152135
 20
65.32740196263856
 10
175.81797064193697
 20
61.328083428150244
 10
174.02570639259054
 20
60.190677949216514
 10
170.7062546659512
 20
62.52942206523427
 10
168.53806155082495
 20
60.735736727639654
 10
170.2133768504644
 20
57.03684467021348
 10
168.7602811184713
 20
55.48945488200325
 10
164.96349406154917
 20
56.9292089756196
 10
163.30949012437853
 20
54.65266786010977
 10
165.85204936158675
 20
51.48661727128723
 10
164.8294254959004
 20
49.6264713650953
 10
160.7938692030879
 20
50.07677039156316
 10
159.75798159424625
 20
47.460416948958155
 10
163.0080264212707
 20
45.026142431154526
 10
162.48012964031966
 20
42.97012021540505
 10
158.45937295523206
 20
42.40267023080747
 10
158.10669030291103
 20
39.61089957018104
 10
161.860008450441
 20
38.06135554398536
 10
161.860008450441
 20
35.938644456014636
 10
158.10669030291103
 20
34.38910042981895
 10
158.45937295523206
 20
31.597329769192516
 10
162.48012964031966
 20
31.029879784594943
 10
163.0080264212707
 20
28.973857568845457
 10
159.75798159424625
 20
26.539583051041827
 10
160.79386920308792
 20
23.92322960843682
 10
164.8294254959004
 20
24.373528634904684
 10
165.85204936158675
 20
22.513382728712767
 10
163.30949012437853
 20
19.347332139890224
 10
164.96349406154917
 20
17.070791024380394
 10
168.7602811184713
 20
18.510545117996745
 10
170.2133768504644
 20
16.963155329786517
 10
168.53806155082498
 20
13.264263272360338
 10
170.7062546659512
 20
11.470577934765725
 10
174.02570639259054
 20
13.809322050783482
 10
175.817970641937
 20
12.671916571849746
 10
175.11516550152135
 20
8.672598037361425
 10
177.66131224712333
 20
7.47447232415632
 10
180.2948552834056
 20
10.565254568466901
 10
182.31367349583212
 20
9.909300768135822
 10
182.6275383463491
 20
5.860847648571948
 10
185.39165495832793
 20
5.33356420471517
 10
187.1738141097898
 20
8.982179361806587
 10
189.29233651231564
 20
8.84889322978227
 10
190.60315007089307
 20
5.005684723814113
 10
193.41155693680832
 20
5.182374707296038
 10
194.23035258964052
 20
9.159566868180342
 10
196.31546462833458
 20
9.557323262329987
 10
198.54086365825202
 20
6.160842294719689
 10
201.2170982461203
 20
7.030403624057843
 10
201.02108245813562
 20
11.086271178177086
 10
202.9417688751011
 20
11.99007760141059
 10
205.94192337086372
 20
9.253737562736323
 10
208.3178280190269
 20
10.761532501585528
 10
207.11931718308008
 20
14.641230374076954
 10
208.75489418694855
 20
15.994297344855042
 10
212.34129340779114
 20
14.090032543301415
 10
214.2675812892391
 20
16.14132079037189
 10
212.1418822489672
 20
19.601073295376192
 10
213.38958052135408
 20
21.31838263969263
 10
217.33687781437743
 20
20.365845036137298
 10
218.69251317712755
 20
22.831736606755147
 10
215.77319142100504
 20
25.654154770303254
 10
216.55461349074307
 20
27.62780162623271
 10
220.61478564988258
 20
27.686842661495312
 10
221.3145889384151
 20
30.412396519363803
 10
217.78507618889356
 20
32.420137428112085
 10
218.05112243347173
 20
34.52611030513107
  0
CIRCLE
  5
36
330
17
100
AcDbEntity
  8
0
 62
4
100
AcDbCircle
 10
190.0
 20
37.0
 30
0.0
 40
1.5
  0
TEXT
  5
37
330
17
100
AcDbEntity
  8
0
 62
7
100
AcDbText
 10
190.0
 20
37.0
 30
0.0
 40
8.0
  1
Large Gear
 72
1
 11
190.0
 21
37.0
 31
0.0
100
AcDbText
 73
2
  0
CIRCLE
  5
38
330
17
100
AcDbEntity
  8
0
 62
4
100
AcDbCircle
 10
255.0
 20
35.0
 30
0.0
 40
30.0
  0
CIRCLE
  5
39
330
17
100
AcDbEntity
  8
0
 62
4
100
AcDbCircle
 10
255.0
 20
35.0
 30
0.0
 40
1.5
  0
TEXT
  5
3A
330
17
100
AcDbEntity
  8
0
 62
7
100
AcDbText
 10
255.0
 20
35.0
 30
0.0
 40
8.0
  1
Wheel #1
 72
1
 11
255.0
 21
35.0
 31
0.0
100
AcDbText
 73
2
  0
CIRCLE
  5
3B
330
17
100
AcDbEntity
  8
0
 62
4
100
AcDbCircle
 10
318.0
 20
35.0
 30
0.0
 40
30.0
  0
CIRCLE
  5
3C
330
17
100
AcDbEntity
  8
0
 62
4
100
AcDbCircle
 10
318.0
 20
35.0
 30
0.0
 40
1.5
  0
TEXT
  5
3D
330
17
100
AcDbEntity
  8
0
 62
7
100
AcDbText
 10
318.0
 20
35.0
 30
0.0
 40
8.0
  1
Wheel #2
 72
1
 11
318.0
 21
35.0
 31
0.0
100
AcDbText
 73
2
  0
CIRCLE
  5
3E
330
17
100
AcDbEntity
  8
0
 62
4
100
AcDbCircle
 10
35.0
 20
118.0
 30
0.0
 40
30.0
  0
CIRCLE
  5
3F
330
17
100
AcDbEntity
  8
0
 62
4
100
AcDbCircle
 10
35.0
 20
118.0
 30
0.0
 40
1.5
  0
TEXT
  5
40
330
17
100
AcDbEntity
  8
0
 62
7
100
AcDbText
 10
35.0
 20
118.0
 30
0.0
 40
8.0
  1
Wheel #3
 72
1
 11
35.0
 21
118.0
 31
0.0
100
AcDbText
 73
2
  0
CIRCLE
  5
41
330
17
100
AcDbEntity
  8
0
 62
4
100
AcDbCircle
 10
98.0
 20
118.0
 30
0.0
 40
30.0
  0
CIRCLE
  5
42
330
17
100
AcDbEntity
  8
0
 62
4
100
AcDbCircle
 10
98.0
 20
118.0
 30
0.0
 40
1.5
  0
TEXT
  5
43
330
17
100
AcDbEntity
  8
0
 62
7
100
AcDbText
 10
98.0
 20
118.0
 30
0.0
 40
8.0
  1
Wheel #4
 72
1
 11
98.0
 21
118.0
 31
0.0
100
AcDbText
 73
2
  0
LWPOLYLINE
  5
44
330
17
100
AcDbEntity
  8
0
 62
4
100
AcDbPolyline
 90
5
 70
0
 10
131.0
 20
88.0
 10
221.0
 20
88.0
 10
221.0
 20
131.0
 10
131.0
 20
131.0
 10
131.0
 20
88.0
  0
TEXT
  5
45
330
17
100
AcDbEntity
  8
0
 62
7
100
AcDbText
 10
176.0
 20
109.5
 30
0.0
 40
7.739999999999999
  1
Motor Mount
 72
1
 11
176.0
 21
109.5
 31
0.0
100
AcDbText
 73
2
  0
LWPOLYLINE
  5
46
330
17
100
AcDbEntity
  8
0
 62
4
100
AcDbPolyline
 90
5
 70
0
 10
224.0
 20
88.0
 10
384.0
 20
88.0
 10
384.0
 20
121.0
 10
224.0
 20
121.0
 10
224.0
 20
88.0
  0
TEXT
  5
47
330
17
100
AcDbEntity
  8
0
 62
7
100
AcDbText
 10
304.0
 20
104.5
 30
0.0
 40
5.9399999999999995
  1
Side Rail #1
 72
1
 11
304.0
 21
104.5
 31
0.0
100
AcDbText
 73
2
  0
LWPOLYLINE
  5
48
330
17
100
AcDbEntity
  8
0
 62
4
100
AcDbPolyline
 90
5
 70
0
 10
5.0
 20
151.0
 10
165.0
 20
151.0
 10
165.0
 20
184.0
 10
5.0
 20
184.0
 10
5.0
 20
151.0
  0
TEXT
  5
49
330
17
100
AcDbEntity
  8
0
 62
7
100
AcDbText
 10
85.0
 20
167.5
 30
0.0
 40
5.9399999999999995
  1
Side Rail #2
 72
1
 11
85.0
 21
167.5
 31
0.0
100
AcDbText
 73
2
  0
LWPOLYLINE
  5
4A
330
17
100
AcDbEntity
  8
0
 62
4
100
AcDbPolyline
 90
37
 70
0
 10
190.2463228694745
 20
160.4453047824675
 10
191.91055381969585
 20
161.53756787913824
 10
191.91055381969585
 20
164.46243212086176
 10
190.2463228694745
 20
165.5546952175325
 10
189.4912651289192
 20
167.62919931009264
 10
190.06404681534508
 20
169.53566842018031
 10
188.18398032074998
 20
171.77624441943004
 10
186.20701226420852
 20
171.54321946059946
 10
184.29513895088044
 20
172.64704003270586
 10
183.50846045667285
 20
174.4756570715564
 10
180.62803147491533
 20
174.98355441705488
 10
179.26337163726203
 20
173.53427637074375
 10
177.0892695225725
 20
173.15092350910865
 10
175.31122645812871
 20
174.04605824142928
 10
172.77821972217544
 20
172.58362612056752
 10
172.664407607953
 20
170.59622829157615
 10
171.24536323381875
 20
168.90507706065108
 10
169.3079217097396
 20
168.44788599687456
 10
168.30755922257717
 20
165.69941265212637
 10
169.49784878491104
 20
164.10382057210643
 10
169.49784878491104
 20
161.89617942789357
 10
168.30755922257717
 20
160.30058734787363
 10
169.3079217097396
 20
157.55211400312544
 10
171.24536323381875
 20
157.09492293934892
 10
172.664407607953
 20
155.40377170842385
 10
172.7782197221754
 20
153.41637387943248
 10
175.31122645812871
 20
151.95394175857072
 10
177.0892695225725
 20
152.84907649089135
 10
179.26337163726203
 20
152.46572362925625
 10
180.6280314749153
 20
151.01644558294512
 10
183.50846045667285
 20
151.5243429284436
 10
184.29513895088044
 20
153.35295996729414
 10
186.20701226420852
 20
154.45678053940054
 10
188.18398032074998
 20
154.22375558056996
 10
190.06404681534508
 20
156.46433157981969
 10
189.4912651289192
 20
158.37080068990733
 10
190.2463228694745
 20
160.4453047824675
  0
CIRCLE
  5
4B
330
17
100
AcDbEntity
  8
0
 62
4
100
AcDbCircle
 10
180.0
 20
163.0
 30
0.0
 40
1.5
  0
TEXT
  5
4C
330
17
100
AcDbEntity
  8
0
 62
7
100
AcDbText
 10
180.0
 20
163.0
 30
0.0
 40
4.32
  1
Small Gear
 72
1
 11
180.0
 21
163.0
 31
0.0
100
AcDbText
 73
2
  0
TEXT
  5
4D
330
17
100
AcDbEntity
  8
0
 62
7
100
AcDbText
 10
200.0
 20
598.0
 30
0.0
 40
8.0
  1
M7 Rover - Sheet 1/1
 72
1
 11
200.0
 21
598.0
 31
0.0
100
AcDbText
 73
3
  0
TEXT
  5
4E
330
17
100
AcDbEntity
  8
0
 62
7
100
AcDbText
 10
200.0
 20
588.0
 30
0.0
 40
4.0
  1
Material: 3mm MDF (turquoise) / 3mm Birch Ply (brown)
 72
1
 11
200.0
 21
588.0
 31
0.0
100
AcDbText
 73
3
  0
ENDSEC
  0
SECTION
  2
OBJECTS
  0
DICTIONARY
  5
A
330
0
100
AcDbDictionary
281
1
  3
ACAD_COLOR
350
B
  3
ACAD_GROUP
350
C
  3
ACAD_LAYOUT
350
D
  3
ACAD_MATERIAL
350
E
  3
ACAD_MLEADERSTYLE
350
F
  3
ACAD_MLINESTYLE
350
10
  3
ACAD_PLOTSETTINGS
350
11
  3
ACAD_PLOTSTYLENAME
350
12
  3
ACAD_SCALELIST
350
14
  3
ACAD_TABLESTYLE
350
15
  3
ACAD_VISUALSTYLE
350
16
  3
EZDXF_META
350
2D
  0
DICTIONARY
  5
B
330
A
100
AcDbDictionary
281
1
  0
DICTIONARY
  5
C
330
A
100
AcDbDictionary
281
1
  0
DICTIONARY
  5
D
330
A
100
AcDbDictionary
281
1
  3
Model
350
1A
  3
Layout1
350
1E
  0
DICTIONARY
  5
E
330
A
100
AcDbDictionary
281
1
  3
ByBlock
350
1F
  3
ByLayer
350
20
  3
Global
350
21
  0
DICTIONARY
  5
F
330
A
100
AcDbDictionary
281
1
  3
Standard
350
2C
  0
DICTIONARY
  5
10
330
A
100
AcDbDictionary
281
1
  3
Standard
350
22
  0
DICTIONARY
  5
11
330
A
100
AcDbDictionary
281
1
  0
ACDBDICTIONARYWDFLT
  5
12
330
A
100
AcDbDictionary
281
1
  3
Normal
350
13
100
AcDbDictionaryWithDefault
340
13
  0
ACDBPLACEHOLDER
  5
13
330
12
  0
DICTIONARY
  5
14
330
A
100
AcDbDictionary
281
1
  0
DICTIONARY
  5
15
330
A
100
AcDbDictionary
281
1
  0
DICTIONARY
  5
16
330
A
100
AcDbDictionary
281
1
  0
LAYOUT
  5
1A
330
D
100
AcDbPlotSettings
  1

  4
A3
  6

 40
7.5
 41
20.0
 42
7.5
 43
20.0
 44
420.0
 45
297.0
 46
0.0
 47
0.0
 48
0.0
 49
0.0
140
0.0
141
0.0
142
1.0
143
1.0
 70
1024
 72
1
 73
0
 74
5
  7

 75
16
 76
0
 77
2
 78
300
147
1.0
148
0.0
149
0.0
100
AcDbLayout
  1
Model
 70
1
 71
0
 10
0.0
 20
0.0
 11
420.0
 21
297.0
 12
0.0
 22
0.0
 32
0.0
 14
1e+20
 24
1e+20
 34
1e+20
 15
-1e+20
 25
-1e+20
 35
-1e+20
146
0.0
 13
0.0
 23
0.0
 33
0.0
 16
1.0
 26
0.0
 36
0.0
 17
0.0
 27
1.0
 37
0.0
 76
1
330
17
  0
LAYOUT
  5
1E
330
D
100
AcDbPlotSettings
  1

  4
A3
  6

 40
7.5
 41
20.0
 42
7.5
 43
20.0
 44
420.0
 45
297.0
 46
0.0
 47
0.0
 48
0.0
 49
0.0
140
0.0
141
0.0
142
1.0
143
1.0
 70
0
 72
1
 73
0
 74
5
  7

 75
16
 76
0
 77
2
 78
300
147
1.0
148
0.0
149
0.0
100
AcDbLayout
  1
Layout1
 70
1
 71
1
 10
0.0
 20
0.0
 11
420.0
 21
297.0
 12
0.0
 22
0.0
 32
0.0
 14
1e+20
 24
1e+20
 34
1e+20
 15
-1e+20
 25
-1e+20
 35
-1e+20
146
0.0
 13
0.0
 23
0.0
 33
0.0
 16
1.0
 26
0.0
 36
0.0
 17
0.0
 27
1.0
 37
0.0
 76
1
330
1B
  0
MATERIAL
  5
1F
102
{ACAD_REACTORS
330
E
102
}
330
E
100
AcDbMaterial
  1
ByBlock
  2

 70
0
 40
1.0
 71
1
 41
1.0
 91
-1023410177
 42
1.0
 72
1
  3

 73
1
 74
1
 75
1
 44
0.5
 73
0
 45
1.0
 46
1.0
 77
1
  4

 78
1
 79
1
170
1
 48
1.0
171
1
  6

172
1
173
1
174
1
140
1.0
141
1.0
175
1
  7

176
1
177
1
178
1
143
1.0
179
1
  8

270
1
271
1
272
1
145
1.0
146
1.0
273
1
  9

274
1
275
1
276
1
 42
1.0
 72
1
  3

 73
1
 74
1
 75
1
 94
63
  0
MATERIAL
  5
20
102
{ACAD_REACTORS
330
E
102
}
330
E
100
AcDbMaterial
  1
ByLayer
  2

 70
0
 40
1.0
 71
1
 41
1.0
 91
-1023410177
 42
1.0
 72
1
  3

 73
1
 74
1
 75
1
 44
0.5
 73
0
 45
1.0
 46
1.0
 77
1
  4

 78
1
 79
1
170
1
 48
1.0
171
1
  6

172
1
173
1
174
1
140
1.0
141
1.0
175
1
  7

176
1
177
1
178
1
143
1.0
179
1
  8

270
1
271
1
272
1
145
1.0
146
1.0
273
1
  9

274
1
275
1
276
1
 42
1.0
 72
1
  3

 73
1
 74
1
 75
1
 94
63
  0
MATERIAL
  5
21
102
{ACAD_REACTORS
330
E
102
}
330
E
100
AcDbMaterial
  1
Global
  2

 70
0
 40
1.0
 71
1
 41
1.0
 91
-1023410177
 42
1.0
 72
1
  3

 73
1
 74
1
 75
1
 44
0.5
 73
0
 45
1.0
 46
1.0
 77
1
  4

 78
1
 79
1
170
1
 48
1.0
171
1
  6

172
1
173
1
174
1
140
1.0
141
1.0
175
1
  7

176
1
177
1
178
1
143
1.0
179
1
  8

270
1
271
1
272
1
145
1.0
146
1.0
273
1
  9

274
1
275
1
276
1
 42
1.0
 72
1
  3

 73
1
 74
1
 75
1
 94
63
  0
MLINESTYLE
  5
22
102
{ACAD_REACTORS
330
10
102
}
330
10
100
AcDbMlineStyle
  2
Standard
 70
0
  3

 62
256
 51
90.0
 52
90.0
 71
2
 49
0.5
 62
256
  6
BYLAYER
 49
-0.5
 62
256
  6
BYLAYER
  0
MLEADERSTYLE
  5
2C
102
{ACAD_REACTORS
330
F
102
}
330
F
100
AcDbMLeaderStyle
179
2
170
2
171
1
172
0
 90
2
 40
0.0
 41
0.0
173
1
 91
-1056964608
 92
-2
290
1
 42
2.0
291
1
 43
8.0
  3
Standard
 44
4.0
300

342
29
174
1
175
1
176
0
178
1
 93
-1056964608
 45
4.0
292
0
297
0
 46
4.0
 94
-1056964608
 47
1.0
 49
1.0
140
1.0
294
1
141
0.0
177
0
142
1.0
295
0
296
0
143
3.75
271
0
272
9
273
9
  0
DICTIONARY
  5
2D
330
A
100
AcDbDictionary
280
1
281
1
  3
CREATED_BY_EZDXF
350
2E
  3
WRITTEN_BY_EZDXF
350
51
  0
DICTIONARYVAR
  5
2E
330
2D
100
DictionaryVariables
280
0
  1
1.4.3 @ 2026-03-19T12:10:47.104347+00:00
  0
DICTIONARYVAR
  5
51
330
2D
100
DictionaryVariables
280
0
  1
1.4.3 @ 2026-03-19T12:10:47.105254+00:00
  0
ENDSEC
  0
EOF
