  0
SECTION
  2
HEADER
  9
$ACADVER
  1
AC1024
  9
$ACADMAINTVER
 70
6
  9
$DWGCODEPAGE
  3
ANSI_1252
  9
$LASTSAVEDBY
  1
ezdxf
  9
$INSBASE
 10
0.0
 20
0.0
 30
0.0
  9
$EXTMIN
 10
1e+20
 20
1e+20
 30
1e+20
  9
$EXTMAX
 10
-1e+20
 20
-1e+20
 30
-1e+20
  9
$LIMMIN
 10
0.0
 20
0.0
  9
$LIMMAX
 10
420.0
 20
297.0
  9
$ORTHOMODE
 70
0
  9
$REGENMODE
 70
1
  9
$FILLMODE
 70
1
  9
$QTEXTMODE
 70
0
  9
$MIRRTEXT
 70
1
  9
$LTSCALE
 40
1.0
  9
$ATTMODE
 70
1
  9
$TEXTSIZE
 40
2.5
  9
$TRACEWID
 40
1.0
  9
$TEXTSTYLE
  7
Standard
  9
$CLAYER
  8
0
  9
$CELTYPE
  6
ByLayer
  9
$CECOLOR
 62
256
  9
$CELTSCALE
 40
1.0
  9
$DISPSILH
 70
0
  9
$DIMSCALE
 40
1.0
  9
$DIMASZ
 40
2.5
  9
$DIMEXO
 40
0.625
  9
$DIMDLI
 40
3.75
  9
$DIMRND
 40
0.0
  9
$DIMDLE
 40
0.0
  9
$DIMEXE
 40
1.25
  9
$DIMTP
 40
0.0
  9
$DIMTM
 40
0.0
  9
$DIMTXT
 40
2.5
  9
$DIMCEN
 40
2.5
  9
$DIMTSZ
 40
0.0
  9
$DIMTOL
 70
0
  9
$DIMLIM
 70
0
  9
$DIMTIH
 70
0
  9
$DIMTOH
 70
0
  9
$DIMSE1
 70
0
  9
$DIMSE2
 70
0
  9
$DIMTAD
 70
1
  9
$DIMZIN
 70
8
  9
$DIMBLK
  1

  9
$DIMASO
 70
1
  9
$DIMSHO
 70
1
  9
$DIMPOST
  1

  9
$DIMAPOST
  1

  9
$DIMALT
 70
0
  9
$DIMALTD
 70
3
  9
$DIMALTF
 40
0.03937007874
  9
$DIMLFAC
 40
1.0
  9
$DIMTOFL
 70
1
  9
$DIMTVP
 40
0.0
  9
$DIMTIX
 70
0
  9
$DIMSOXD
 70
0
  9
$DIMSAH
 70
0
  9
$DIMBLK1
  1

  9
$DIMBLK2
  1

  9
$DIMSTYLE
  2
ISO-25
  9
$DIMCLRD
 70
0
  9
$DIMCLRE
 70
0
  9
$DIMCLRT
 70
0
  9
$DIMTFAC
 40
1.0
  9
$DIMGAP
 40
0.625
  9
$DIMJUST
 70
0
  9
$DIMSD1
 70
0
  9
$DIMSD2
 70
0
  9
$DIMTOLJ
 70
0
  9
$DIMTZIN
 70
8
  9
$DIMALTZ
 70
0
  9
$DIMALTTZ
 70
0
  9
$DIMUPT
 70
0
  9
$DIMDEC
 70
2
  9
$DIMTDEC
 70
2
  9
$DIMALTU
 70
2
  9
$DIMALTTD
 70
3
  9
$DIMTXSTY
  7
Standard
  9
$DIMAUNIT
 70
0
  9
$DIMADEC
 70
0
  9
$DIMALTRND
 40
0.0
  9
$DIMAZIN
 70
0
  9
$DIMDSEP
 70
44
  9
$DIMATFIT
 70
3
  9
$DIMFRAC
 70
0
  9
$DIMLDRBLK
  1

  9
$DIMLUNIT
 70
2
  9
$DIMLWD
 70
-2
  9
$DIMLWE
 70
-2
  9
$DIMTMOVE
 70
0
  9
$DIMFXL
 40
1.0
  9
$DIMFXLON
 70
0
  9
$DIMJOGANG
 40
0.785398163397
  9
$DIMTFILL
 70
0
  9
$DIMTFILLCLR
 70
0
  9
$DIMARCSYM
 70
0
  9
$DIMLTYPE
  6

  9
$DIMLTEX1
  6

  9
$DIMLTEX2
  6

  9
$DIMTXTDIRECTION
 70
0
  9
$LUNITS
 70
2
  9
$LUPREC
 70
4
  9
$SKETCHINC
 40
1.0
  9
$FILLETRAD
 40
10.0
  9
$AUNITS
 70
0
  9
$AUPREC
 70
2
  9
$MENU
  1
.
  9
$ELEVATION
 40
0.0
  9
$PELEVATION
 40
0.0
  9
$THICKNESS
 40
0.0
  9
$LIMCHECK
 70
0
  9
$CHAMFERA
 40
0.0
  9
$CHAMFERB
 40
0.0
  9
$CHAMFERC
 40
0.0
  9
$CHAMFERD
 40
0.0
  9
$SKPOLY
 70
0
  9
$TDCREATE
 40
2461120.021921296
  9
$TDUCREATE
 40
2458532.153996898
  9
$TDUPDATE
 40
2461120.021921296
  9
$TDUUPDATE
 40
2458532.1544311
  9
$TDINDWG
 40
0.0
  9
$TDUSRTIMER
 40
0.0
  9
$USRTIMER
 70
1
  9
$ANGBASE
 50
0.0
  9
$ANGDIR
 70
0
  9
$PDMODE
 70
0
  9
$PDSIZE
 40
0.0
  9
$PLINEWID
 40
0.0
  9
$SPLFRAME
 70
0
  9
$SPLINETYPE
 70
6
  9
$SPLINESEGS
 70
8
  9
$HANDSEED
  5
84
  9
$SURFTAB1
 70
6
  9
$SURFTAB2
 70
6
  9
$SURFTYPE
 70
6
  9
$SURFU
 70
6
  9
$SURFV
 70
6
  9
$UCSBASE
  2

  9
$UCSNAME
  2

  9
$UCSORG
 10
0.0
 20
0.0
 30
0.0
  9
$UCSXDIR
 10
1.0
 20
0.0
 30
0.0
  9
$UCSYDIR
 10
0.0
 20
1.0
 30
0.0
  9
$UCSORTHOREF
  2

  9
$UCSORTHOVIEW
 70
0
  9
$UCSORGTOP
 10
0.0
 20
0.0
 30
0.0
  9
$UCSORGBOTTOM
 10
0.0
 20
0.0
 30
0.0
  9
$UCSORGLEFT
 10
0.0
 20
0.0
 30
0.0
  9
$UCSORGRIGHT
 10
0.0
 20
0.0
 30
0.0
  9
$UCSORGFRONT
 10
0.0
 20
0.0
 30
0.0
  9
$UCSORGBACK
 10
0.0
 20
0.0
 30
0.0
  9
$PUCSBASE
  2

  9
$PUCSNAME
  2

  9
$PUCSORG
 10
0.0
 20
0.0
 30
0.0
  9
$PUCSXDIR
 10
1.0
 20
0.0
 30
0.0
  9
$PUCSYDIR
 10
0.0
 20
1.0
 30
0.0
  9
$PUCSORTHOREF
  2

  9
$PUCSORTHOVIEW
 70
0
  9
$PUCSORGTOP
 10
0.0
 20
0.0
 30
0.0
  9
$PUCSORGBOTTOM
 10
0.0
 20
0.0
 30
0.0
  9
$PUCSORGLEFT
 10
0.0
 20
0.0
 30
0.0
  9
$PUCSORGRIGHT
 10
0.0
 20
0.0
 30
0.0
  9
$PUCSORGFRONT
 10
0.0
 20
0.0
 30
0.0
  9
$PUCSORGBACK
 10
0.0
 20
0.0
 30
0.0
  9
$USERI1
 70
0
  9
$USERI2
 70
0
  9
$USERI3
 70
0
  9
$USERI4
 70
0
  9
$USERI5
 70
0
  9
$USERR1
 40
0.0
  9
$USERR2
 40
0.0
  9
$USERR3
 40
0.0
  9
$USERR4
 40
0.0
  9
$USERR5
 40
0.0
  9
$WORLDVIEW
 70
1
  9
$SHADEDGE
 70
3
  9
$SHADEDIF
 70
70
  9
$TILEMODE
 70
1
  9
$MAXACTVP
 70
64
  9
$PINSBASE
 10
0.0
 20
0.0
 30
0.0
  9
$PLIMCHECK
 70
0
  9
$PEXTMIN
 10
1e+20
 20
1e+20
 30
1e+20
  9
$PEXTMAX
 10
-1e+20
 20
-1e+20
 30
-1e+20
  9
$PLIMMIN
 10
0.0
 20
0.0
  9
$PLIMMAX
 10
420.0
 20
297.0
  9
$UNITMODE
 70
0
  9
$VISRETAIN
 70
1
  9
$PLINEGEN
 70
0
  9
$PSLTSCALE
 70
1
  9
$TREEDEPTH
 70
3020
  9
$CMLSTYLE
  2
Standard
  9
$CMLJUST
 70
0
  9
$CMLSCALE
 40
20.0
  9
$PROXYGRAPHICS
 70
1
  9
$MEASUREMENT
 70
1
  9
$CELWEIGHT
370
-1
  9
$ENDCAPS
280
0
  9
$JOINSTYLE
280
0
  9
$LWDISPLAY
290
0
  9
$INSUNITS
 70
6
  9
$HYPERLINKBASE
  1

  9
$STYLESHEET
  1

  9
$XEDIT
290
1
  9
$CEPSNTYPE
380
0
  9
$PSTYLEMODE
290
1
  9
$FINGERPRINTGUID
  2
{C4DBE96E-6071-494D-91DB-4635C6DFBF0C}
  9
$VERSIONGUID
  2
{0B147D93-6AE2-4603-9A86-A2625711FC85}
  9
$EXTNAMES
290
1
  9
$PSVPSCALE
 40
0.0
  9
$OLESTARTUP
290
0
  9
$SORTENTS
280
127
  9
$INDEXCTL
280
0
  9
$HIDETEXT
280
1
  9
$XCLIPFRAME
280
1
  9
$HALOGAP
280
0
  9
$OBSCOLOR
 70
257
  9
$OBSLTYPE
280
0
  9
$INTERSECTIONDISPLAY
280
0
  9
$INTERSECTIONCOLOR
 70
257
  9
$DIMASSOC
280
2
  9
$PROJECTNAME
  1

  9
$CAMERADISPLAY
290
0
  9
$LENSLENGTH
 40
50.0
  9
$CAMERAHEIGHT
 40
0.0
  9
$STEPSPERSEC
 40
24.0
  9
$STEPSIZE
 40
100.0
  9
$3DDWFPREC
 40
2.0
  9
$PSOLWIDTH
 40
0.005
  9
$PSOLHEIGHT
 40
0.08
  9
$LOFTANG1
 40
1.570796326795
  9
$LOFTANG2
 40
1.570796326795
  9
$LOFTMAG1
 40
0.0
  9
$LOFTMAG2
 40
0.0
  9
$LOFTPARAM
 70
7
  9
$LOFTNORMALS
280
1
  9
$LATITUDE
 40
37.795
  9
$LONGITUDE
 40
-122.394
  9
$NORTHDIRECTION
 40
0.0
  9
$TIMEZONE
 70
-8000
  9
$LIGHTGLYPHDISPLAY
280
1
  9
$TILEMODELIGHTSYNCH
280
1
  9
$CMATERIAL
347
20
  9
$SOLIDHIST
280
0
  9
$SHOWHIST
280
1
  9
$DWFFRAME
280
2
  9
$DGNFRAME
280
2
  9
$REALWORLDSCALE
290
1
  9
$INTERFERECOLOR
 62
256
  9
$CSHADOW
280
0
  9
$SHADOWPLANELOCATION
 40
0.0
  0
ENDSEC
  0
SECTION
  2
CLASSES
  0
CLASS
  1
ACDBDICTIONARYWDFLT
  2
AcDbDictionaryWithDefault
  3
ObjectDBX Classes
 90
0
 91
0
280
0
281
0
  0
CLASS
  1
SUN
  2
AcDbSun
  3
SCENEOE
 90
1153
 91
0
280
0
281
0
  0
CLASS
  1
VISUALSTYLE
  2
AcDbVisualStyle
  3
ObjectDBX Classes
 90
4095
 91
0
280
0
281
0
  0
CLASS
  1
MATERIAL
  2
AcDbMaterial
  3
ObjectDBX Classes
 90
1153
 91
0
280
0
281
0
  0
CLASS
  1
SCALE
  2
AcDbScale
  3
ObjectDBX Classes
 90
1153
 91
0
280
0
281
0
  0
CLASS
  1
TABLESTYLE
  2
AcDbTableStyle
  3
ObjectDBX Classes
 90
4095
 91
0
280
0
281
0
  0
CLASS
  1
MLEADERSTYLE
  2
AcDbMLeaderStyle
  3
ACDB_MLEADERSTYLE_CLASS
 90
4095
 91
0
280
0
281
0
  0
CLASS
  1
DICTIONARYVAR
  2
AcDbDictionaryVar
  3
ObjectDBX Classes
 90
0
 91
0
280
0
281
0
  0
CLASS
  1
CELLSTYLEMAP
  2
AcDbCellStyleMap
  3
ObjectDBX Classes
 90
1152
 91
0
280
0
281
0
  0
CLASS
  1
MENTALRAYRENDERSETTINGS
  2
AcDbMentalRayRenderSettings
  3
SCENEOE
 90
1024
 91
0
280
0
281
0
  0
CLASS
  1
ACDBDETAILVIEWSTYLE
  2
AcDbDetailViewStyle
  3
ObjectDBX Classes
 90
1025
 91
0
280
0
281
0
  0
CLASS
  1
ACDBSECTIONVIEWSTYLE
  2
AcDbSectionViewStyle
  3
ObjectDBX Classes
 90
1025
 91
0
280
0
281
0
  0
CLASS
  1
RASTERVARIABLES
  2
AcDbRasterVariables
  3
ISM
 90
0
 91
0
280
0
281
0
  0
CLASS
  1
LAYOUT
  2
AcDbLayout
  3
ObjectDBX Classes
 90
0
 91
0
280
0
281
0
  0
CLASS
  1
ACDBPLACEHOLDER
  2
AcDbPlaceHolder
  3
ObjectDBX Classes
 90
0
 91
0
280
0
281
0
  0
ENDSEC
  0
SECTION
  2
TABLES
  0
TABLE
  2
VPORT
  5
8
330
0
100
AcDbSymbolTable
 70
1
  0
VPORT
  5
23
330
8
100
AcDbSymbolTableRecord
100
AcDbViewportTableRecord
  2
*Active
 70
0
 10
0.0
 20
0.0
 11
1.0
 21
1.0
 12
0.0
 22
0.0
 13
0.0
 23
0.0
 14
0.5
 24
0.5
 15
0.5
 25
0.5
 16
0.0
 26
0.0
 36
1.0
 17
0.0
 27
0.0
 37
0.0
 40
1000.0
 41
1.34
 42
50.0
 43
0.0
 44
0.0
 50
0.0
 51
0.0
 71
0
 72
1000
 73
1
 74
3
 75
0
 76
0
 77
0
 78
0
281
0
 65
0
146
0.0
  0
ENDTAB
  0
TABLE
  2
LTYPE
  5
2
330
0
100
AcDbSymbolTable
 70
3
  0
LTYPE
  5
24
330
2
100
AcDbSymbolTableRecord
100
AcDbLinetypeTableRecord
  2
ByBlock
 70
0
  3

 72
65
 73
0
 40
0.0
  0
LTYPE
  5
25
330
2
100
AcDbSymbolTableRecord
100
AcDbLinetypeTableRecord
  2
ByLayer
 70
0
  3

 72
65
 73
0
 40
0.0
  0
LTYPE
  5
26
330
2
100
AcDbSymbolTableRecord
100
AcDbLinetypeTableRecord
  2
Continuous
 70
0
  3

 72
65
 73
0
 40
0.0
  0
ENDTAB
  0
TABLE
  2
LAYER
  5
1
330
0
100
AcDbSymbolTable
 70
6
  0
LAYER
  5
27
330
1
100
AcDbSymbolTableRecord
100
AcDbLayerTableRecord
  2
0
 70
0
 62
7
  6
Continuous
370
-3
390
13
347
21
  0
LAYER
  5
28
330
1
100
AcDbSymbolTableRecord
100
AcDbLayerTableRecord
  2
Defpoints
 70
0
 62
7
  6
Continuous
290
0
370
-3
390
13
347
21
  0
LAYER
  5
2F
330
1
100
AcDbSymbolTableRecord
100
AcDbLayerTableRecord
  2
CUTS
 70
0
 62
7
  6
Continuous
370
-3
390
13
347
21
  0
LAYER
  5
30
330
1
100
AcDbSymbolTableRecord
100
AcDbLayerTableRecord
  2
ENGRAVE
 70
0
 62
1
  6
Continuous
370
-3
390
13
347
21
  0
LAYER
  5
31
330
1
100
AcDbSymbolTableRecord
100
AcDbLayerTableRecord
  2
GUIDE
 70
0
 62
3
  6
Continuous
370
-3
390
13
347
21
  0
LAYER
  5
32
330
1
100
AcDbSymbolTableRecord
100
AcDbLayerTableRecord
  2
SHEET
 70
0
 62
8
  6
Continuous
370
-3
390
13
347
21
  0
ENDTAB
  0
TABLE
  2
STYLE
  5
5
330
0
100
AcDbSymbolTable
 70
1
  0
STYLE
  5
29
330
5
100
AcDbSymbolTableRecord
100
AcDbTextStyleTableRecord
  2
Standard
 70
0
 40
0.0
 41
1.0
 50
0.0
 71
0
 42
2.5
  3
txt
  4

  0
ENDTAB
  0
TABLE
  2
VIEW
  5
7
330
0
100
AcDbSymbolTable
 70
0
  0
ENDTAB
  0
TABLE
  2
UCS
  5
6
330
0
100
AcDbSymbolTable
 70
0
  0
ENDTAB
  0
TABLE
  2
APPID
  5
3
330
0
100
AcDbSymbolTable
 70
3
  0
APPID
  5
2A
330
3
100
AcDbSymbolTableRecord
100
AcDbRegAppTableRecord
  2
ACAD
 70
0
  0
APPID
  5
81
330
3
100
AcDbSymbolTableRecord
100
AcDbRegAppTableRecord
  2
HATCHBACKGROUNDCOLOR
 70
0
  0
APPID
  5
82
330
3
100
AcDbSymbolTableRecord
100
AcDbRegAppTableRecord
  2
EZDXF
 70
0
  0
ENDTAB
  0
TABLE
  2
DIMSTYLE
  5
4
330
0
100
AcDbSymbolTable
 70
1
100
AcDbDimStyleTable
  0
DIMSTYLE
105
2B
330
4
100
AcDbSymbolTableRecord
100
AcDbDimStyleTableRecord
  2
Standard
 70
0
 40
1.0
 41
2.5
 42
0.625
 43
3.75
 44
1.25
 45
0.0
 46
0.0
 47
0.0
 48
0.0
 49
2.5
140
2.5
141
2.5
142
0.0
143
0.03937007874
144
1.0
145
0.0
146
1.0
147
0.625
148
0.0
 69
0
 70
0
 71
0
 72
0
 73
0
 74
0
 75
0
 76
0
 77
1
 78
8
 79
3
170
0
171
3
172
1
173
0
174
0
175
0
176
0
177
0
178
0
179
2
271
2
272
2
273
2
274
3
275
0
276
0
277
2
278
44
279
0
280
0
281
0
282
0
283
0
284
8
285
0
286
0
288
0
289
3
290
0
371
-2
372
-2
  0
ENDTAB
  0
TABLE
  2
BLOCK_RECORD
  5
9
330
0
100
AcDbSymbolTable
 70
2
  0
BLOCK_RECORD
  5
17
330
9
100
AcDbSymbolTableRecord
100
AcDbBlockTableRecord
  2
*Model_Space
340
1A
 70
0
280
1
281
0
  0
BLOCK_RECORD
  5
1B
330
9
100
AcDbSymbolTableRecord
100
AcDbBlockTableRecord
  2
*Paper_Space
340
1E
 70
0
280
1
281
0
  0
ENDTAB
  0
ENDSEC
  0
SECTION
  2
BLOCKS
  0
BLOCK
  5
18
330
17
100
AcDbEntity
  8
0
100
AcDbBlockBegin
  2
*Model_Space
 70
0
 10
0.0
 20
0.0
 30
0.0
  3
*Model_Space
  1

  0
ENDBLK
  5
19
330
17
100
AcDbEntity
  8
0
100
AcDbBlockEnd
  0
BLOCK
  5
1C
330
1B
100
AcDbEntity
  8
0
100
AcDbBlockBegin
  2
*Paper_Space
 70
0
 10
0.0
 20
0.0
 30
0.0
  3
*Paper_Space
  1

  0
ENDBLK
  5
1D
330
1B
100
AcDbEntity
  8
0
100
AcDbBlockEnd
  0
ENDSEC
  0
SECTION
  2
ENTITIES
  0
LWPOLYLINE
  5
33
330
17
100
AcDbEntity
  8
SHEET
 62
8
100
AcDbPolyline
 90
4
 70
1
 10
0.0
 20
0.0
 10
400.0
 20
0.0
 10
400.0
 20
600.0
 10
0.0
 20
600.0
  0
LWPOLYLINE
  5
34
330
17
100
AcDbEntity
  8
CUTS
100
AcDbPolyline
 90
4
 70
1
 10
46.0
 20
332.4332346604865
 10
196.0
 20
332.4332346604865
 10
196.0
 20
412.4332346604865
 10
46.0
 20
412.4332346604865
  0
TEXT
  5
35
330
17
100
AcDbEntity
  8
ENGRAVE
100
AcDbText
 10
51.0
 20
404.4332346604865
 30
0.0
 40
3.0
  1
M7 CHASSIS
 11
51.0
 21
404.4332346604865
 31
0.0
100
AcDbText
  0
LWPOLYLINE
  5
36
330
17
100
AcDbEntity
  8
CUTS
100
AcDbPolyline
 90
4
 70
1
 10
66.0
 20
340.9832346604865
 10
76.0
 20
340.9832346604865
 10
76.0
 20
343.8832346604865
 10
66.0
 20
343.8832346604865
  0
LWPOLYLINE
  5
37
330
17
100
AcDbEntity
  8
CUTS
100
AcDbPolyline
 90
4
 70
1
 10
166.0
 20
340.9832346604865
 10
176.0
 20
340.9832346604865
 10
176.0
 20
343.8832346604865
 10
166.0
 20
343.8832346604865
  0
LWPOLYLINE
  5
38
330
17
100
AcDbEntity
  8
CUTS
100
AcDbPolyline
 90
4
 70
1
 10
66.0
 20
400.9832346604865
 10
76.0
 20
400.9832346604865
 10
76.0
 20
403.8832346604865
 10
66.0
 20
403.8832346604865
  0
LWPOLYLINE
  5
39
330
17
100
AcDbEntity
  8
CUTS
100
AcDbPolyline
 90
4
 70
1
 10
166.0
 20
400.9832346604865
 10
176.0
 20
400.9832346604865
 10
176.0
 20
403.8832346604865
 10
166.0
 20
403.8832346604865
  0
LWPOLYLINE
  5
3A
330
17
100
AcDbEntity
  8
CUTS
100
AcDbPolyline
 90
4
 70
1
 10
116.0
 20
370.9832346604865
 10
126.0
 20
370.9832346604865
 10
126.0
 20
373.8832346604865
 10
116.0
 20
373.8832346604865
  0
CIRCLE
  5
3B
330
17
100
AcDbEntity
  8
CUTS
100
AcDbCircle
 10
66.0
 20
337.4332346604865
 30
0.0
 40
1.6
  0
CIRCLE
  5
3C
330
17
100
AcDbEntity
  8
CUTS
100
AcDbCircle
 10
66.0
 20
407.4332346604865
 30
0.0
 40
1.6
  0
CIRCLE
  5
3D
330
17
100
AcDbEntity
  8
CUTS
100
AcDbCircle
 10
176.0
 20
337.4332346604865
 30
0.0
 40
1.6
  0
CIRCLE
  5
3E
330
17
100
AcDbEntity
  8
CUTS
100
AcDbCircle
 10
176.0
 20
407.4332346604865
 30
0.0
 40
1.6
  0
CIRCLE
  5
3F
330
17
100
AcDbEntity
  8
CUTS
100
AcDbCircle
 10
101.0
 20
352.4332346604865
 30
0.0
 40
2.0
  0
CIRCLE
  5
40
330
17
100
AcDbEntity
  8
CUTS
100
AcDbCircle
 10
141.0
 20
352.4332346604865
 30
0.0
 40
2.0
  0
LWPOLYLINE
  5
41
330
17
100
AcDbEntity
  8
CUTS
100
AcDbPolyline
 90
4
 70
1
 10
204.0
 20
332.4332346604865
 10
354.0
 20
332.4332346604865
 10
354.0
 20
362.4332346604865
 10
204.0
 20
362.4332346604865
  0
LWPOLYLINE
  5
42
330
17
100
AcDbEntity
  8
CUTS
100
AcDbPolyline
 90
4
 70
1
 10
224.0
 20
329.4332346604865
 10
234.0
 20
329.4332346604865
 10
234.0
 20
332.4332346604865
 10
224.0
 20
332.4332346604865
  0
LWPOLYLINE
  5
43
330
17
100
AcDbEntity
  8
CUTS
100
AcDbPolyline
 90
4
 70
1
 10
324.0
 20
329.4332346604865
 10
334.0
 20
329.4332346604865
 10
334.0
 20
332.4332346604865
 10
324.0
 20
332.4332346604865
  0
LWPOLYLINE
  5
44
330
17
100
AcDbEntity
  8
CUTS
100
AcDbPolyline
 90
4
 70
1
 10
222.0
 20
362.4332346604865
 10
222.0
 20
354.4332346604865
 10
226.0
 20
354.4332346604865
 10
226.0
 20
362.4332346604865
  0
LWPOLYLINE
  5
45
330
17
100
AcDbEntity
  8
CUTS
100
AcDbPolyline
 90
4
 70
1
 10
332.0
 20
362.4332346604865
 10
332.0
 20
354.4332346604865
 10
336.0
 20
354.4332346604865
 10
336.0
 20
362.4332346604865
  0
TEXT
  5
46
330
17
100
AcDbEntity
  8
ENGRAVE
100
AcDbText
 10
209.0
 20
352.4332346604865
 30
0.0
 40
3.0
  1
M7 RAIL L
 11
209.0
 21
352.4332346604865
 31
0.0
100
AcDbText
  0
LWPOLYLINE
  5
47
330
17
100
AcDbEntity
  8
CUTS
100
AcDbPolyline
 90
4
 70
1
 10
204.0
 20
370.4332346604865
 10
354.0
 20
370.4332346604865
 10
354.0
 20
400.4332346604865
 10
204.0
 20
400.4332346604865
  0
LWPOLYLINE
  5
48
330
17
100
AcDbEntity
  8
CUTS
100
AcDbPolyline
 90
4
 70
1
 10
224.0
 20
367.4332346604865
 10
234.0
 20
367.4332346604865
 10
234.0
 20
370.4332346604865
 10
224.0
 20
370.4332346604865
  0
LWPOLYLINE
  5
49
330
17
100
AcDbEntity
  8
CUTS
100
AcDbPolyline
 90
4
 70
1
 10
324.0
 20
367.4332346604865
 10
334.0
 20
367.4332346604865
 10
334.0
 20
370.4332346604865
 10
324.0
 20
370.4332346604865
  0
LWPOLYLINE
  5
4A
330
17
100
AcDbEntity
  8
CUTS
100
AcDbPolyline
 90
4
 70
1
 10
222.0
 20
400.4332346604865
 10
222.0
 20
392.4332346604865
 10
226.0
 20
392.4332346604865
 10
226.0
 20
400.4332346604865
  0
LWPOLYLINE
  5
4B
330
17
100
AcDbEntity
  8
CUTS
100
AcDbPolyline
 90
4
 70
1
 10
332.0
 20
400.4332346604865
 10
332.0
 20
392.4332346604865
 10
336.0
 20
392.4332346604865
 10
336.0
 20
400.4332346604865
  0
TEXT
  5
4C
330
17
100
AcDbEntity
  8
ENGRAVE
100
AcDbText
 10
209.0
 20
390.4332346604865
 30
0.0
 40
3.0
  1
M7 RAIL R
 11
209.0
 21
390.4332346604865
 31
0.0
100
AcDbText
  0
CIRCLE
  5
4D
330
17
100
AcDbEntity
  8
CUTS
100
AcDbCircle
 10
81.0
 20
289.4332346604865
 30
0.0
 40
30.0
  0
CIRCLE
  5
4E
330
17
100
AcDbEntity
  8
CUTS
100
AcDbCircle
 10
81.0
 20
289.4332346604865
 30
0.0
 40
1.6
  0
CIRCLE
  5
4F
330
17
100
AcDbEntity
  8
ENGRAVE
100
AcDbCircle
 10
81.0
 20
289.4332346604865
 30
0.0
 40
27.0
  0
CIRCLE
  5
50
330
17
100
AcDbEntity
  8
CUTS
100
AcDbCircle
 10
98.0
 20
289.4332346604865
 30
0.0
 40
5.0
  0
CIRCLE
  5
51
330
17
100
AcDbEntity
  8
CUTS
100
AcDbCircle
 10
89.5
 20
304.155666524822
 30
0.0
 40
5.0
  0
CIRCLE
  5
52
330
17
100
AcDbEntity
  8
CUTS
100
AcDbCircle
 10
72.5
 20
304.155666524822
 30
0.0
 40
5.0
  0
CIRCLE
  5
53
330
17
100
AcDbEntity
  8
CUTS
100
AcDbCircle
 10
64.0
 20
289.4332346604865
 30
0.0
 40
5.0
  0
CIRCLE
  5
54
330
17
100
AcDbEntity
  8
CUTS
100
AcDbCircle
 10
72.5
 20
274.71080279615103
 30
0.0
 40
5.0
  0
CIRCLE
  5
55
330
17
100
AcDbEntity
  8
CUTS
100
AcDbCircle
 10
89.5
 20
274.71080279615103
 30
0.0
 40
5.0
  0
TEXT
  5
56
330
17
100
AcDbEntity
  8
ENGRAVE
100
AcDbText
 10
75.0
 20
287.4332346604865
 30
0.0
 40
2.0
  1
W1
 11
75.0
 21
287.4332346604865
 31
0.0
100
AcDbText
  0
CIRCLE
  5
57
330
17
100
AcDbEntity
  8
CUTS
100
AcDbCircle
 10
149.0
 20
289.4332346604865
 30
0.0
 40
30.0
  0
CIRCLE
  5
58
330
17
100
AcDbEntity
  8
CUTS
100
AcDbCircle
 10
149.0
 20
289.4332346604865
 30
0.0
 40
1.6
  0
CIRCLE
  5
59
330
17
100
AcDbEntity
  8
ENGRAVE
100
AcDbCircle
 10
149.0
 20
289.4332346604865
 30
0.0
 40
27.0
  0
CIRCLE
  5
5A
330
17
100
AcDbEntity
  8
CUTS
100
AcDbCircle
 10
166.0
 20
289.4332346604865
 30
0.0
 40
5.0
  0
CIRCLE
  5
5B
330
17
100
AcDbEntity
  8
CUTS
100
AcDbCircle
 10
157.5
 20
304.155666524822
 30
0.0
 40
5.0
  0
CIRCLE
  5
5C
330
17
100
AcDbEntity
  8
CUTS
100
AcDbCircle
 10
140.5
 20
304.155666524822
 30
0.0
 40
5.0
  0
CIRCLE
  5
5D
330
17
100
AcDbEntity
  8
CUTS
100
AcDbCircle
 10
132.0
 20
289.4332346604865
 30
0.0
 40
5.0
  0
CIRCLE
  5
5E
330
17
100
AcDbEntity
  8
CUTS
100
AcDbCircle
 10
140.5
 20
274.71080279615103
 30
0.0
 40
5.0
  0
CIRCLE
  5
5F
330
17
100
AcDbEntity
  8
CUTS
100
AcDbCircle
 10
157.5
 20
274.71080279615103
 30
0.0
 40
5.0
  0
TEXT
  5
60
330
17
100
AcDbEntity
  8
ENGRAVE
100
AcDbText
 10
143.0
 20
287.4332346604865
 30
0.0
 40
2.0
  1
W2
 11
143.0
 21
287.4332346604865
 31
0.0
100
AcDbText
  0
CIRCLE
  5
61
330
17
100
AcDbEntity
  8
CUTS
100
AcDbCircle
 10
217.0
 20
289.4332346604865
 30
0.0
 40
30.0
  0
CIRCLE
  5
62
330
17
100
AcDbEntity
  8
CUTS
100
AcDbCircle
 10
217.0
 20
289.4332346604865
 30
0.0
 40
1.6
  0
CIRCLE
  5
63
330
17
100
AcDbEntity
  8
ENGRAVE
100
AcDbCircle
 10
217.0
 20
289.4332346604865
 30
0.0
 40
27.0
  0
CIRCLE
  5
64
330
17
100
AcDbEntity
  8
CUTS
100
AcDbCircle
 10
234.0
 20
289.4332346604865
 30
0.0
 40
5.0
  0
CIRCLE
  5
65
330
17
100
AcDbEntity
  8
CUTS
100
AcDbCircle
 10
225.5
 20
304.155666524822
 30
0.0
 40
5.0
  0
CIRCLE
  5
66
330
17
100
AcDbEntity
  8
CUTS
100
AcDbCircle
 10
208.5
 20
304.155666524822
 30
0.0
 40
5.0
  0
CIRCLE
  5
67
330
17
100
AcDbEntity
  8
CUTS
100
AcDbCircle
 10
200.0
 20
289.4332346604865
 30
0.0
 40
5.0
  0
CIRCLE
  5
68
330
17
100
AcDbEntity
  8
CUTS
100
AcDbCircle
 10
208.5
 20
274.71080279615103
 30
0.0
 40
5.0
  0
CIRCLE
  5
69
330
17
100
AcDbEntity
  8
CUTS
100
AcDbCircle
 10
225.5
 20
274.71080279615103
 30
0.0
 40
5.0
  0
TEXT
  5
6A
330
17
100
AcDbEntity
  8
ENGRAVE
100
AcDbText
 10
211.0
 20
287.4332346604865
 30
0.0
 40
2.0
  1
W3
 11
211.0
 21
287.4332346604865
 31
0.0
100
AcDbText
  0
CIRCLE
  5
6B
330
17
100
AcDbEntity
  8
CUTS
100
AcDbCircle
 10
285.0
 20
289.4332346604865
 30
0.0
 40
30.0
  0
CIRCLE
  5
6C
330
17
100
AcDbEntity
  8
CUTS
100
AcDbCircle
 10
285.0
 20
289.4332346604865
 30
0.0
 40
1.6
  0
CIRCLE
  5
6D
330
17
100
AcDbEntity
  8
ENGRAVE
100
AcDbCircle
 10
285.0
 20
289.4332346604865
 30
0.0
 40
27.0
  0
CIRCLE
  5
6E
330
17
100
AcDbEntity
  8
CUTS
100
AcDbCircle
 10
302.0
 20
289.4332346604865
 30
0.0
 40
5.0
  0
CIRCLE
  5
6F
330
17
100
AcDbEntity
  8
CUTS
100
AcDbCircle
 10
293.5
 20
304.155666524822
 30
0.0
 40
5.0
  0
CIRCLE
  5
70
330
17
100
AcDbEntity
  8
CUTS
100
AcDbCircle
 10
276.5
 20
304.155666524822
 30
0.0
 40
5.0
  0
CIRCLE
  5
71
330
17
100
AcDbEntity
  8
CUTS
100
AcDbCircle
 10
268.0
 20
289.4332346604865
 30
0.0
 40
5.0
  0
CIRCLE
  5
72
330
17
100
AcDbEntity
  8
CUTS
100
AcDbCircle
 10
276.5
 20
274.71080279615103
 30
0.0
 40
5.0
  0
CIRCLE
  5
73
330
17
100
AcDbEntity
  8
CUTS
100
AcDbCircle
 10
293.5
 20
274.71080279615103
 30
0.0
 40
5.0
  0
TEXT
  5
74
330
17
100
AcDbEntity
  8
ENGRAVE
100
AcDbText
 10
279.0
 20
287.4332346604865
 30
0.0
 40
2.0
  1
W4
 11
279.0
 21
287.4332346604865
 31
0.0
100
AcDbText
  0
LWPOLYLINE
  5
75
330
17
100
AcDbEntity
  8
CUTS
100
AcDbPolyline
 90
4
 70
1
 10
46.0
 20
199.4332346604865
 10
126.0
 20
199.4332346604865
 10
126.0
 20
239.4332346604865
 10
46.0
 20
239.4332346604865
  0
LWPOLYLINE
  5
76
330
17
100
AcDbEntity
  8
CUTS
100
AcDbPolyline
 90
4
 70
1
 10
74.0
 20
209.4332346604865
 10
98.0
 20
209.4332346604865
 10
98.0
 20
229.4332346604865
 10
74.0
 20
229.4332346604865
  0
CIRCLE
  5
77
330
17
100
AcDbEntity
  8
CUTS
100
AcDbCircle
 10
58.0
 20
219.4332346604865
 30
0.0
 40
1.6
  0
CIRCLE
  5
78
330
17
100
AcDbEntity
  8
CUTS
100
AcDbCircle
 10
114.0
 20
219.4332346604865
 30
0.0
 40
1.6
  0
LWPOLYLINE
  5
79
330
17
100
AcDbEntity
  8
CUTS
100
AcDbPolyline
 90
4
 70
1
 10
81.0
 20
196.4332346604865
 10
91.0
 20
196.4332346604865
 10
91.0
 20
199.4332346604865
 10
81.0
 20
199.4332346604865
  0
TEXT
  5
7A
330
17
100
AcDbEntity
  8
ENGRAVE
100
AcDbText
 10
51.0
 20
231.4332346604865
 30
0.0
 40
3.0
  1
M7 TT MOUNT
 11
51.0
 21
231.4332346604865
 31
0.0
100
AcDbText
  0
LWPOLYLINE
  5
7B
330
17
100
AcDbEntity
  8
CUTS
100
AcDbPolyline
 90
60
 70
1
 10
157.99040127993175
 20
218.9533626502469
 10
158.0
 20
219.4332346604865
 10
157.99040127993175
 20
219.9131066707261
 10
153.2198986728511
 20
221.463767387079
 10
153.13292387221367
 20
221.7508621182986
 10
153.03453791498995
 20
222.03424913998654
 10
155.98250009544668
 20
226.09279109049046
 10
155.70820393249937
 20
226.48665768799617
 10
155.4183767142331
 20
226.8692403133079
 10
150.64750353301338
 20
225.3197201068822
 10
150.40838939219356
 20
225.5008621182986
 10
150.16222276875249
 20
225.67229722014068
 10
150.16162316720005
 20
230.6884953244704
 10
149.70820393249937
 20
230.84591285602835
 10
149.248852362548
 20
230.98507253704824
 10
146.29992000639976
 20
226.92723546044385
 10
146.0
 20
226.9332346604865
 10
145.70007999360024
 20
226.92723546044385
 10
142.751147637452
 20
230.98507253704824
 10
142.29179606750063
 20
230.84591285602835
 10
141.83837683279995
 20
230.6884953244704
 10
141.83777723124751
 20
225.67229722014068
 10
141.59161060780644
 20
225.5008621182986
 10
141.35249646698662
 20
225.3197201068822
 10
136.5816232857669
 20
226.8692403133079
 10
136.29179606750063
 20
226.48665768799617
 10
136.01749990455332
 20
226.09279109049046
 10
138.96546208501005
 20
222.03424913998654
 10
138.86707612778633
 20
221.7508621182986
 10
138.7801013271489
 20
221.463767387079
 10
134.00959872006825
 20
219.9131066707261
 10
134.0
 20
219.4332346604865
 10
134.00959872006825
 20
218.9533626502469
 10
138.7801013271489
 20
217.402701933894
 10
138.86707612778633
 20
217.1156072026744
 10
138.96546208501005
 20
216.83222018098647
 10
136.01749990455332
 20
212.77367823048255
 10
136.29179606750063
 20
212.37981163297684
 10
136.58162328576688
 20
211.9972290076651
 10
141.35249646698662
 20
213.54674921409082
 10
141.59161060780644
 20
213.3656072026744
 10
141.83777723124751
 20
213.19417210083233
 10
141.83837683279995
 20
208.1779739965026
 10
142.29179606750063
 20
208.02055646494466
 10
142.751147637452
 20
207.88139678392477
 10
145.70007999360024
 20
211.93923386052916
 10
146.0
 20
211.9332346604865
 10
146.29992000639976
 20
211.93923386052916
 10
149.248852362548
 20
207.88139678392477
 10
149.70820393249937
 20
208.02055646494466
 10
150.16162316720005
 20
208.1779739965026
 10
150.16222276875249
 20
213.19417210083233
 10
150.40838939219356
 20
213.3656072026744
 10
150.64750353301338
 20
213.54674921409082
 10
155.4183767142331
 20
211.9972290076651
 10
155.70820393249937
 20
212.37981163297684
 10
155.98250009544668
 20
212.77367823048255
 10
153.03453791498995
 20
216.83222018098647
 10
153.13292387221367
 20
217.1156072026744
 10
153.2198986728511
 20
217.402701933894
  0
CIRCLE
  5
7C
330
17
100
AcDbEntity
  8
CUTS
100
AcDbCircle
 10
146.0
 20
219.4332346604865
 30
0.0
 40
2.9
  0
TEXT
  5
7D
330
17
100
AcDbEntity
  8
ENGRAVE
100
AcDbText
 10
140.0
 20
217.4332346604865
 30
0.0
 40
2.0
  1
SM
 11
140.0
 21
217.4332346604865
 31
0.0
100
AcDbText
  0
LWPOLYLINE
  5
7E
330
17
100
AcDbEntity
  8
CUTS
100
AcDbPolyline
 90
180
 70
1
 10
229.9971555976952
 20
219.00658063568278
 10
230.0
 20
219.4332346604865
 10
229.9971555976952
 20
219.85988868529023
 10
225.38524707271125
 20
221.94286466639562
 10
225.34935212262752
 20
222.30776740034696
 10
225.30859513753055
 20
222.67215911382647
 10
229.38664733788298
 20
225.66848677145705
 10
229.30072322348178
 20
226.0864087666548
 10
229.2092346185007
 20
226.50314799286744
 10
224.26503230181945
 20
227.58173625184554
 10
224.1540541981167
 20
227.93120200579756
 10
224.03842655366148
 20
228.27915703238062
 10
227.40439197956144
 20
232.05788246992273
 10
227.23345464456324
 20
232.4488072389121
 10
227.05732032795456
 20
232.83741816261147
 10
221.99690958572995
 20
232.8644792169043
 10
221.81569860407205
 20
233.1832346604865
 10
221.63025378316422
 20
233.49954569583804
 10
224.13702359380576
 20
237.8955204793346
 10
223.88854381999832
 20
238.24236273384565
 10
223.63546170658407
 20
238.585861192904
 10
218.68000677079615
 20
237.56021234458558
 10
218.43648270062835
 20
237.83432633535512
 10
218.18932553180457
 20
238.10516906940148
 10
219.72734185764654
 20
242.92626800658638
 10
219.41217940348346
 20
243.2138690757631
 10
219.09321039604254
 20
243.4972425392311
 10
214.45928842629627
 20
241.4637095645822
 10
214.164094438043
 20
241.68120200579756
 10
213.8660268755726
 20
241.89473931141333
 10
214.36807102295452
 20
246.93025724453216
 10
214.0
 20
247.14604758158853
 10
213.62908457474072
 20
247.35691126933588
 10
209.51922019713868
 20
244.40436931732245
 10
209.1852576845845
 20
244.55573474565801
 10
208.84930671123425
 20
244.70263401792212
 10
208.29343694184044
 20
249.73249465020166
 10
207.88854381999832
 20
249.86704318193142
 10
207.48189276085415
 20
249.99618133896732
 10
204.07570677001488
 20
246.25367066076055
 10
203.7175714974884
 20
246.33229368066617
 10
203.35841978286533
 20
246.4061347164797
 10
201.7689302729774
 20
251.21050900234022
 10
201.34491082456492
 20
251.25793531227126
 10
200.92029673414876
 20
251.2997039814596
 10
198.3666558025657
 20
246.93079025225583
 10
198.0
 20
246.9332346604865
 10
197.6333441974343
 20
246.93079025225583
 10
195.07970326585124
 20
251.29970398145963
 10
194.65508917543508
 20
251.25793531227126
 10
194.23106972702263
 20
251.21050900234022
 10
192.64158021713467
 20
246.4061347164797
 10
192.28242850251164
 20
246.33229368066617
 10
191.92429322998512
 20
246.25367066076055
 10
188.51810723914585
 20
249.99618133896732
 10
188.11145618000168
 20
249.86704318193142
 10
187.70656305815956
 20
249.73249465020166
 10
187.15069328876575
 20
244.70263401792212
 10
186.8147423154155
 20
244.55573474565801
 10
186.48077980286135
 20
244.40436931732245
 10
182.37091542525928
 20
247.35691126933588
 10
182.0
 20
247.14604758158856
 10
181.6319289770455
 20
246.93025724453216
 10
182.1339731244274
 20
241.89473931141333
 10
181.835905561957
 20
241.68120200579756
 10
181.54071157370373
 20
241.4637095645822
 10
176.90678960395746
 20
243.49724253923114
 10
176.58782059651654
 20
243.2138690757631
 10
176.27265814235346
 20
242.92626800658638
 10
177.81067446819543
 20
238.10516906940148
 10
177.56351729937165
 20
237.83432633535512
 10
177.31999322920385
 20
237.56021234458558
 10
172.36453829341593
 20
238.585861192904
 10
172.11145618000168
 20
238.24236273384565
 10
171.86297640619424
 20
237.89552047933464
 10
174.36974621683578
 20
233.49954569583804
 10
174.18430139592795
 20
233.1832346604865
 10
174.00309041427008
 20
232.8644792169043
 10
168.94267967204547
 20
232.8374181626115
 10
168.7665453554368
 20
232.44880723891214
 10
168.59560802043856
 20
232.05788246992273
 10
171.96157344633852
 20
228.27915703238062
 10
171.84594580188326
 20
227.93120200579756
 10
171.73496769818055
 20
227.58173625184554
 10
166.7907653814993
 20
226.50314799286747
 10
166.69927677651822
 20
226.0864087666548
 10
166.61335266211702
 20
225.66848677145708
 10
170.69140486246948
 20
222.67215911382647
 10
170.65064787737248
 20
222.307767400347
 10
170.61475292728875
 20
221.94286466639562
 10
166.0028444023048
 20
219.85988868529023
 10
166.0
 20
219.4332346604865
 10
166.0028444023048
 20
219.00658063568278
 10
170.61475292728875
 20
216.9236046545774
 10
170.65064787737248
 20
216.55870192062605
 10
170.69140486246945
 20
216.19431020714657
 10
166.613352662117
 20
213.19798254951596
 10
166.69927677651822
 20
212.7800605543182
 10
166.79076538149928
 20
212.3633213281056
 10
171.73496769818055
 20
211.28473306912747
 10
171.84594580188326
 20
210.93526731517545
 10
171.96157344633852
 20
210.5873122885924
 10
168.59560802043856
 20
206.80858685105028
 10
168.76654535543676
 20
206.41766208206093
 10
168.94267967204544
 20
206.02905115836154
 10
174.00309041427005
 20
206.0019901040687
 10
174.18430139592795
 20
205.6832346604865
 10
174.36974621683575
 20
205.36692362513497
 10
171.8629764061942
 20
200.9709488416384
 10
172.11145618000168
 20
200.62410658712736
 10
172.36453829341593
 20
200.28060812806902
 10
177.31999322920385
 20
201.30625697638743
 10
177.56351729937165
 20
201.0321429856179
 10
177.81067446819543
 20
200.76130025157153
 10
176.27265814235346
 20
195.94020131438663
 10
176.58782059651654
 20
195.6526002452099
 10
176.90678960395744
 20
195.3692267817419
 10
181.5407115737037
 20
197.40275975639085
 10
181.835905561957
 20
197.18526731517545
 10
182.1339731244274
 20
196.97173000955968
 10
181.63192897704545
 20
191.93621207644088
 10
182.0
 20
191.72042173938448
 10
182.37091542525928
 20
191.50955805163713
 10
186.48077980286132
 20
194.4621000036506
 10
186.8147423154155
 20
194.310734575315
 10
187.15069328876572
 20
194.1638353030509
 10
187.70656305815953
 20
189.13397467077135
 10
188.11145618000168
 20
188.9994261390416
 10
188.51810723914585
 20
188.8702879820057
 10
191.92429322998512
 20
192.61279866021246
 10
192.2824285025116
 20
192.53417564030684
 10
192.64158021713467
 20
192.4603346044933
 10
194.23106972702257
 20
187.6559603186328
 10
194.65508917543505
 20
187.60853400870175
 10
195.0797032658512
 20
187.5667653395134
 10
197.63334419743427
 20
191.93567906871718
 10
197.99999999999997
 20
191.9332346604865
 10
198.36665580256567
 20
191.93567906871718
 10
200.92029673414874
 20
187.5667653395134
 10
201.3449108245649
 20
187.60853400870175
 10
201.76893027297737
 20
187.6559603186328
 10
203.3584197828653
 20
192.4603346044933
 10
203.71757149748836
 20
192.53417564030684
 10
204.07570677001485
 20
192.61279866021246
 10
207.48189276085415
 20
188.8702879820057
 10
207.88854381999832
 20
188.9994261390416
 10
208.29343694184044
 20
189.13397467077135
 10
208.84930671123425
 20
194.1638353030509
 10
209.18525768458449
 20
194.31073457531497
 10
209.51922019713865
 20
194.46210000365056
 10
213.6290845747407
 20
191.5095580516371
 10
213.99999999999997
 20
191.72042173938445
 10
214.3680710229545
 20
191.93621207644085
 10
213.86602687557257
 20
196.97173000955965
 10
214.16409443804298
 20
197.18526731517542
 10
214.45928842629627
 20
197.40275975639082
 10
219.09321039604254
 20
195.36922678174187
 10
219.41217940348344
 20
195.65260024520987
 10
219.72734185764654
 20
195.94020131438663
 10
218.18932553180457
 20
200.7613002515715
 10
218.43648270062832
 20
201.0321429856179
 10
218.68000677079615
 20
201.30625697638743
 10
223.63546170658404
 20
200.280608128069
 10
223.88854381999832
 20
200.62410658712736
 10
224.13702359380576
 20
200.9709488416384
 10
221.63025378316422
 20
205.36692362513494
 10
221.81569860407205
 20
205.6832346604865
 10
221.99690958572992
 20
206.0019901040687
 10
227.05732032795453
 20
206.02905115836148
 10
227.2334546445632
 20
206.41766208206087
 10
227.40439197956144
 20
206.80858685105028
 10
224.03842655366145
 20
210.58731228859233
 10
224.1540541981167
 20
210.93526731517542
 10
224.26503230181945
 20
211.28473306912744
 10
229.2092346185007
 20
212.36332132810554
 10
229.30072322348178
 20
212.7800605543182
 10
229.38664733788298
 20
213.19798254951593
 10
225.30859513753055
 20
216.19431020714654
 10
225.34935212262752
 20
216.558701920626
 10
225.38524707271125
 20
216.9236046545774
  0
CIRCLE
  5
7F
330
17
100
AcDbEntity
  8
CUTS
100
AcDbCircle
 10
198.0
 20
219.4332346604865
 30
0.0
 40
1.6
  0
TEXT
  5
80
330
17
100
AcDbEntity
  8
ENGRAVE
100
AcDbText
 10
192.0
 20
217.4332346604865
 30
0.0
 40
2.0
  1
LG
 11
192.0
 21
217.4332346604865
 31
0.0
100
AcDbText
  0
ENDSEC
  0
SECTION
  2
OBJECTS
  0
DICTIONARY
  5
A
330
0
100
AcDbDictionary
281
1
  3
ACAD_COLOR
350
B
  3
ACAD_GROUP
350
C
  3
ACAD_LAYOUT
350
D
  3
ACAD_MATERIAL
350
E
  3
ACAD_MLEADERSTYLE
350
F
  3
ACAD_MLINESTYLE
350
10
  3
ACAD_PLOTSETTINGS
350
11
  3
ACAD_PLOTSTYLENAME
350
12
  3
ACAD_SCALELIST
350
14
  3
ACAD_TABLESTYLE
350
15
  3
ACAD_VISUALSTYLE
350
16
  3
EZDXF_META
350
2D
  0
DICTIONARY
  5
B
330
A
100
AcDbDictionary
281
1
  0
DICTIONARY
  5
C
330
A
100
AcDbDictionary
281
1
  0
DICTIONARY
  5
D
330
A
100
AcDbDictionary
281
1
  3
Model
350
1A
  3
Layout1
350
1E
  0
DICTIONARY
  5
E
330
A
100
AcDbDictionary
281
1
  3
ByBlock
350
1F
  3
ByLayer
350
20
  3
Global
350
21
  0
DICTIONARY
  5
F
330
A
100
AcDbDictionary
281
1
  3
Standard
350
2C
  0
DICTIONARY
  5
10
330
A
100
AcDbDictionary
281
1
  3
Standard
350
22
  0
DICTIONARY
  5
11
330
A
100
AcDbDictionary
281
1
  0
ACDBDICTIONARYWDFLT
  5
12
330
A
100
AcDbDictionary
281
1
  3
Normal
350
13
100
AcDbDictionaryWithDefault
340
13
  0
ACDBPLACEHOLDER
  5
13
330
12
  0
DICTIONARY
  5
14
330
A
100
AcDbDictionary
281
1
  0
DICTIONARY
  5
15
330
A
100
AcDbDictionary
281
1
  0
DICTIONARY
  5
16
330
A
100
AcDbDictionary
281
1
  0
LAYOUT
  5
1A
330
D
100
AcDbPlotSettings
  1

  4
A3
  6

 40
7.5
 41
20.0
 42
7.5
 43
20.0
 44
420.0
 45
297.0
 46
0.0
 47
0.0
 48
0.0
 49
0.0
140
0.0
141
0.0
142
1.0
143
1.0
 70
1024
 72
1
 73
0
 74
5
  7

 75
16
 76
0
 77
2
 78
300
147
1.0
148
0.0
149
0.0
100
AcDbLayout
  1
Model
 70
1
 71
0
 10
0.0
 20
0.0
 11
420.0
 21
297.0
 12
0.0
 22
0.0
 32
0.0
 14
1e+20
 24
1e+20
 34
1e+20
 15
-1e+20
 25
-1e+20
 35
-1e+20
146
0.0
 13
0.0
 23
0.0
 33
0.0
 16
1.0
 26
0.0
 36
0.0
 17
0.0
 27
1.0
 37
0.0
 76
1
330
17
  0
LAYOUT
  5
1E
330
D
100
AcDbPlotSettings
  1

  4
A3
  6

 40
7.5
 41
20.0
 42
7.5
 43
20.0
 44
420.0
 45
297.0
 46
0.0
 47
0.0
 48
0.0
 49
0.0
140
0.0
141
0.0
142
1.0
143
1.0
 70
0
 72
1
 73
0
 74
5
  7

 75
16
 76
0
 77
2
 78
300
147
1.0
148
0.0
149
0.0
100
AcDbLayout
  1
Layout1
 70
1
 71
1
 10
0.0
 20
0.0
 11
420.0
 21
297.0
 12
0.0
 22
0.0
 32
0.0
 14
1e+20
 24
1e+20
 34
1e+20
 15
-1e+20
 25
-1e+20
 35
-1e+20
146
0.0
 13
0.0
 23
0.0
 33
0.0
 16
1.0
 26
0.0
 36
0.0
 17
0.0
 27
1.0
 37
0.0
 76
1
330
1B
  0
MATERIAL
  5
1F
102
{ACAD_REACTORS
330
E
102
}
330
E
100
AcDbMaterial
  1
ByBlock
  2

 70
0
 40
1.0
 71
1
 41
1.0
 91
-1023410177
 42
1.0
 72
1
  3

 73
1
 74
1
 75
1
 44
0.5
 73
0
 45
1.0
 46
1.0
 77
1
  4

 78
1
 79
1
170
1
 48
1.0
171
1
  6

172
1
173
1
174
1
140
1.0
141
1.0
175
1
  7

176
1
177
1
178
1
143
1.0
179
1
  8

270
1
271
1
272
1
145
1.0
146
1.0
273
1
  9

274
1
275
1
276
1
 42
1.0
 72
1
  3

 73
1
 74
1
 75
1
 94
63
  0
MATERIAL
  5
20
102
{ACAD_REACTORS
330
E
102
}
330
E
100
AcDbMaterial
  1
ByLayer
  2

 70
0
 40
1.0
 71
1
 41
1.0
 91
-1023410177
 42
1.0
 72
1
  3

 73
1
 74
1
 75
1
 44
0.5
 73
0
 45
1.0
 46
1.0
 77
1
  4

 78
1
 79
1
170
1
 48
1.0
171
1
  6

172
1
173
1
174
1
140
1.0
141
1.0
175
1
  7

176
1
177
1
178
1
143
1.0
179
1
  8

270
1
271
1
272
1
145
1.0
146
1.0
273
1
  9

274
1
275
1
276
1
 42
1.0
 72
1
  3

 73
1
 74
1
 75
1
 94
63
  0
MATERIAL
  5
21
102
{ACAD_REACTORS
330
E
102
}
330
E
100
AcDbMaterial
  1
Global
  2

 70
0
 40
1.0
 71
1
 41
1.0
 91
-1023410177
 42
1.0
 72
1
  3

 73
1
 74
1
 75
1
 44
0.5
 73
0
 45
1.0
 46
1.0
 77
1
  4

 78
1
 79
1
170
1
 48
1.0
171
1
  6

172
1
173
1
174
1
140
1.0
141
1.0
175
1
  7

176
1
177
1
178
1
143
1.0
179
1
  8

270
1
271
1
272
1
145
1.0
146
1.0
273
1
  9

274
1
275
1
276
1
 42
1.0
 72
1
  3

 73
1
 74
1
 75
1
 94
63
  0
MLINESTYLE
  5
22
102
{ACAD_REACTORS
330
10
102
}
330
10
100
AcDbMlineStyle
  2
Standard
 70
0
  3

 62
256
 51
90.0
 52
90.0
 71
2
 49
0.5
 62
256
  6
BYLAYER
 49
-0.5
 62
256
  6
BYLAYER
  0
MLEADERSTYLE
  5
2C
102
{ACAD_REACTORS
330
F
102
}
330
F
100
AcDbMLeaderStyle
179
2
170
2
171
1
172
0
 90
2
 40
0.0
 41
0.0
173
1
 91
-1056964608
 92
-2
290
1
 42
2.0
291
1
 43
8.0
  3
Standard
 44
4.0
300

342
29
174
1
175
1
176
0
178
1
 93
-1056964608
 45
4.0
292
0
297
0
 46
4.0
 94
-1056964608
 47
1.0
 49
1.0
140
1.0
294
1
141
0.0
177
0
142
1.0
295
0
296
0
143
3.75
271
0
272
9
273
9
  0
DICTIONARY
  5
2D
330
A
100
AcDbDictionary
280
1
281
1
  3
CREATED_BY_EZDXF
350
2E
  3
WRITTEN_BY_EZDXF
350
83
  0
DICTIONARYVAR
  5
2E
330
2D
100
DictionaryVariables
280
0
  1
1.4.3 @ 2026-03-19T21:31:34.248657+00:00
  0
DICTIONARYVAR
  5
83
330
2D
100
DictionaryVariables
280
0
  1
1.4.3 @ 2026-03-19T21:31:34.250552+00:00
  0
ENDSEC
  0
EOF
