  0
SECTION
  2
HEADER
  9
$ACADVER
  1
AC1024
  9
$ACADMAINTVER
 70
6
  9
$DWGCODEPAGE
  3
ANSI_1252
  9
$LASTSAVEDBY
  1
ezdxf
  9
$INSBASE
 10
0.0
 20
0.0
 30
0.0
  9
$EXTMIN
 10
1e+20
 20
1e+20
 30
1e+20
  9
$EXTMAX
 10
-1e+20
 20
-1e+20
 30
-1e+20
  9
$LIMMIN
 10
0.0
 20
0.0
  9
$LIMMAX
 10
420.0
 20
297.0
  9
$ORTHOMODE
 70
0
  9
$REGENMODE
 70
1
  9
$FILLMODE
 70
1
  9
$QTEXTMODE
 70
0
  9
$MIRRTEXT
 70
1
  9
$LTSCALE
 40
1.0
  9
$ATTMODE
 70
1
  9
$TEXTSIZE
 40
2.5
  9
$TRACEWID
 40
1.0
  9
$TEXTSTYLE
  7
Standard
  9
$CLAYER
  8
0
  9
$CELTYPE
  6
ByLayer
  9
$CECOLOR
 62
256
  9
$CELTSCALE
 40
1.0
  9
$DISPSILH
 70
0
  9
$DIMSCALE
 40
1.0
  9
$DIMASZ
 40
2.5
  9
$DIMEXO
 40
0.625
  9
$DIMDLI
 40
3.75
  9
$DIMRND
 40
0.0
  9
$DIMDLE
 40
0.0
  9
$DIMEXE
 40
1.25
  9
$DIMTP
 40
0.0
  9
$DIMTM
 40
0.0
  9
$DIMTXT
 40
2.5
  9
$DIMCEN
 40
2.5
  9
$DIMTSZ
 40
0.0
  9
$DIMTOL
 70
0
  9
$DIMLIM
 70
0
  9
$DIMTIH
 70
0
  9
$DIMTOH
 70
0
  9
$DIMSE1
 70
0
  9
$DIMSE2
 70
0
  9
$DIMTAD
 70
1
  9
$DIMZIN
 70
8
  9
$DIMBLK
  1

  9
$DIMASO
 70
1
  9
$DIMSHO
 70
1
  9
$DIMPOST
  1

  9
$DIMAPOST
  1

  9
$DIMALT
 70
0
  9
$DIMALTD
 70
3
  9
$DIMALTF
 40
0.03937007874
  9
$DIMLFAC
 40
1.0
  9
$DIMTOFL
 70
1
  9
$DIMTVP
 40
0.0
  9
$DIMTIX
 70
0
  9
$DIMSOXD
 70
0
  9
$DIMSAH
 70
0
  9
$DIMBLK1
  1

  9
$DIMBLK2
  1

  9
$DIMSTYLE
  2
ISO-25
  9
$DIMCLRD
 70
0
  9
$DIMCLRE
 70
0
  9
$DIMCLRT
 70
0
  9
$DIMTFAC
 40
1.0
  9
$DIMGAP
 40
0.625
  9
$DIMJUST
 70
0
  9
$DIMSD1
 70
0
  9
$DIMSD2
 70
0
  9
$DIMTOLJ
 70
0
  9
$DIMTZIN
 70
8
  9
$DIMALTZ
 70
0
  9
$DIMALTTZ
 70
0
  9
$DIMUPT
 70
0
  9
$DIMDEC
 70
2
  9
$DIMTDEC
 70
2
  9
$DIMALTU
 70
2
  9
$DIMALTTD
 70
3
  9
$DIMTXSTY
  7
Standard
  9
$DIMAUNIT
 70
0
  9
$DIMADEC
 70
0
  9
$DIMALTRND
 40
0.0
  9
$DIMAZIN
 70
0
  9
$DIMDSEP
 70
44
  9
$DIMATFIT
 70
3
  9
$DIMFRAC
 70
0
  9
$DIMLDRBLK
  1

  9
$DIMLUNIT
 70
2
  9
$DIMLWD
 70
-2
  9
$DIMLWE
 70
-2
  9
$DIMTMOVE
 70
0
  9
$DIMFXL
 40
1.0
  9
$DIMFXLON
 70
0
  9
$DIMJOGANG
 40
0.785398163397
  9
$DIMTFILL
 70
0
  9
$DIMTFILLCLR
 70
0
  9
$DIMARCSYM
 70
0
  9
$DIMLTYPE
  6

  9
$DIMLTEX1
  6

  9
$DIMLTEX2
  6

  9
$DIMTXTDIRECTION
 70
0
  9
$LUNITS
 70
2
  9
$LUPREC
 70
4
  9
$SKETCHINC
 40
1.0
  9
$FILLETRAD
 40
10.0
  9
$AUNITS
 70
0
  9
$AUPREC
 70
2
  9
$MENU
  1
.
  9
$ELEVATION
 40
0.0
  9
$PELEVATION
 40
0.0
  9
$THICKNESS
 40
0.0
  9
$LIMCHECK
 70
0
  9
$CHAMFERA
 40
0.0
  9
$CHAMFERB
 40
0.0
  9
$CHAMFERC
 40
0.0
  9
$CHAMFERD
 40
0.0
  9
$SKPOLY
 70
0
  9
$TDCREATE
 40
2461126.469837963
  9
$TDUCREATE
 40
2458532.153996898
  9
$TDUPDATE
 40
2461126.469837963
  9
$TDUUPDATE
 40
2458532.1544311
  9
$TDINDWG
 40
0.0
  9
$TDUSRTIMER
 40
0.0
  9
$USRTIMER
 70
1
  9
$ANGBASE
 50
0.0
  9
$ANGDIR
 70
0
  9
$PDMODE
 70
0
  9
$PDSIZE
 40
0.0
  9
$PLINEWID
 40
0.0
  9
$SPLFRAME
 70
0
  9
$SPLINETYPE
 70
6
  9
$SPLINESEGS
 70
8
  9
$HANDSEED
  5
C7
  9
$SURFTAB1
 70
6
  9
$SURFTAB2
 70
6
  9
$SURFTYPE
 70
6
  9
$SURFU
 70
6
  9
$SURFV
 70
6
  9
$UCSBASE
  2

  9
$UCSNAME
  2

  9
$UCSORG
 10
0.0
 20
0.0
 30
0.0
  9
$UCSXDIR
 10
1.0
 20
0.0
 30
0.0
  9
$UCSYDIR
 10
0.0
 20
1.0
 30
0.0
  9
$UCSORTHOREF
  2

  9
$UCSORTHOVIEW
 70
0
  9
$UCSORGTOP
 10
0.0
 20
0.0
 30
0.0
  9
$UCSORGBOTTOM
 10
0.0
 20
0.0
 30
0.0
  9
$UCSORGLEFT
 10
0.0
 20
0.0
 30
0.0
  9
$UCSORGRIGHT
 10
0.0
 20
0.0
 30
0.0
  9
$UCSORGFRONT
 10
0.0
 20
0.0
 30
0.0
  9
$UCSORGBACK
 10
0.0
 20
0.0
 30
0.0
  9
$PUCSBASE
  2

  9
$PUCSNAME
  2

  9
$PUCSORG
 10
0.0
 20
0.0
 30
0.0
  9
$PUCSXDIR
 10
1.0
 20
0.0
 30
0.0
  9
$PUCSYDIR
 10
0.0
 20
1.0
 30
0.0
  9
$PUCSORTHOREF
  2

  9
$PUCSORTHOVIEW
 70
0
  9
$PUCSORGTOP
 10
0.0
 20
0.0
 30
0.0
  9
$PUCSORGBOTTOM
 10
0.0
 20
0.0
 30
0.0
  9
$PUCSORGLEFT
 10
0.0
 20
0.0
 30
0.0
  9
$PUCSORGRIGHT
 10
0.0
 20
0.0
 30
0.0
  9
$PUCSORGFRONT
 10
0.0
 20
0.0
 30
0.0
  9
$PUCSORGBACK
 10
0.0
 20
0.0
 30
0.0
  9
$USERI1
 70
0
  9
$USERI2
 70
0
  9
$USERI3
 70
0
  9
$USERI4
 70
0
  9
$USERI5
 70
0
  9
$USERR1
 40
0.0
  9
$USERR2
 40
0.0
  9
$USERR3
 40
0.0
  9
$USERR4
 40
0.0
  9
$USERR5
 40
0.0
  9
$WORLDVIEW
 70
1
  9
$SHADEDGE
 70
3
  9
$SHADEDIF
 70
70
  9
$TILEMODE
 70
1
  9
$MAXACTVP
 70
64
  9
$PINSBASE
 10
0.0
 20
0.0
 30
0.0
  9
$PLIMCHECK
 70
0
  9
$PEXTMIN
 10
1e+20
 20
1e+20
 30
1e+20
  9
$PEXTMAX
 10
-1e+20
 20
-1e+20
 30
-1e+20
  9
$PLIMMIN
 10
0.0
 20
0.0
  9
$PLIMMAX
 10
420.0
 20
297.0
  9
$UNITMODE
 70
0
  9
$VISRETAIN
 70
1
  9
$PLINEGEN
 70
0
  9
$PSLTSCALE
 70
1
  9
$TREEDEPTH
 70
3020
  9
$CMLSTYLE
  2
Standard
  9
$CMLJUST
 70
0
  9
$CMLSCALE
 40
20.0
  9
$PROXYGRAPHICS
 70
1
  9
$MEASUREMENT
 70
1
  9
$CELWEIGHT
370
-1
  9
$ENDCAPS
280
0
  9
$JOINSTYLE
280
0
  9
$LWDISPLAY
290
0
  9
$INSUNITS
 70
6
  9
$HYPERLINKBASE
  1

  9
$STYLESHEET
  1

  9
$XEDIT
290
1
  9
$CEPSNTYPE
380
0
  9
$PSTYLEMODE
290
1
  9
$FINGERPRINTGUID
  2
{E8C8A2CE-156D-4C29-94E7-1983AD6277C7}
  9
$VERSIONGUID
  2
{F1B27FF9-DA7C-4E49-B99B-40AE34DC5573}
  9
$EXTNAMES
290
1
  9
$PSVPSCALE
 40
0.0
  9
$OLESTARTUP
290
0
  9
$SORTENTS
280
127
  9
$INDEXCTL
280
0
  9
$HIDETEXT
280
1
  9
$XCLIPFRAME
280
1
  9
$HALOGAP
280
0
  9
$OBSCOLOR
 70
257
  9
$OBSLTYPE
280
0
  9
$INTERSECTIONDISPLAY
280
0
  9
$INTERSECTIONCOLOR
 70
257
  9
$DIMASSOC
280
2
  9
$PROJECTNAME
  1

  9
$CAMERADISPLAY
290
0
  9
$LENSLENGTH
 40
50.0
  9
$CAMERAHEIGHT
 40
0.0
  9
$STEPSPERSEC
 40
24.0
  9
$STEPSIZE
 40
100.0
  9
$3DDWFPREC
 40
2.0
  9
$PSOLWIDTH
 40
0.005
  9
$PSOLHEIGHT
 40
0.08
  9
$LOFTANG1
 40
1.570796326795
  9
$LOFTANG2
 40
1.570796326795
  9
$LOFTMAG1
 40
0.0
  9
$LOFTMAG2
 40
0.0
  9
$LOFTPARAM
 70
7
  9
$LOFTNORMALS
280
1
  9
$LATITUDE
 40
37.795
  9
$LONGITUDE
 40
-122.394
  9
$NORTHDIRECTION
 40
0.0
  9
$TIMEZONE
 70
-8000
  9
$LIGHTGLYPHDISPLAY
280
1
  9
$TILEMODELIGHTSYNCH
280
1
  9
$CMATERIAL
347
20
  9
$SOLIDHIST
280
0
  9
$SHOWHIST
280
1
  9
$DWFFRAME
280
2
  9
$DGNFRAME
280
2
  9
$REALWORLDSCALE
290
1
  9
$INTERFERECOLOR
 62
256
  9
$CSHADOW
280
0
  9
$SHADOWPLANELOCATION
 40
0.0
  0
ENDSEC
  0
SECTION
  2
CLASSES
  0
CLASS
  1
ACDBDICTIONARYWDFLT
  2
AcDbDictionaryWithDefault
  3
ObjectDBX Classes
 90
0
 91
0
280
0
281
0
  0
CLASS
  1
SUN
  2
AcDbSun
  3
SCENEOE
 90
1153
 91
0
280
0
281
0
  0
CLASS
  1
VISUALSTYLE
  2
AcDbVisualStyle
  3
ObjectDBX Classes
 90
4095
 91
0
280
0
281
0
  0
CLASS
  1
MATERIAL
  2
AcDbMaterial
  3
ObjectDBX Classes
 90
1153
 91
0
280
0
281
0
  0
CLASS
  1
SCALE
  2
AcDbScale
  3
ObjectDBX Classes
 90
1153
 91
0
280
0
281
0
  0
CLASS
  1
TABLESTYLE
  2
AcDbTableStyle
  3
ObjectDBX Classes
 90
4095
 91
0
280
0
281
0
  0
CLASS
  1
MLEADERSTYLE
  2
AcDbMLeaderStyle
  3
ACDB_MLEADERSTYLE_CLASS
 90
4095
 91
0
280
0
281
0
  0
CLASS
  1
DICTIONARYVAR
  2
AcDbDictionaryVar
  3
ObjectDBX Classes
 90
0
 91
0
280
0
281
0
  0
CLASS
  1
CELLSTYLEMAP
  2
AcDbCellStyleMap
  3
ObjectDBX Classes
 90
1152
 91
0
280
0
281
0
  0
CLASS
  1
MENTALRAYRENDERSETTINGS
  2
AcDbMentalRayRenderSettings
  3
SCENEOE
 90
1024
 91
0
280
0
281
0
  0
CLASS
  1
ACDBDETAILVIEWSTYLE
  2
AcDbDetailViewStyle
  3
ObjectDBX Classes
 90
1025
 91
0
280
0
281
0
  0
CLASS
  1
ACDBSECTIONVIEWSTYLE
  2
AcDbSectionViewStyle
  3
ObjectDBX Classes
 90
1025
 91
0
280
0
281
0
  0
CLASS
  1
RASTERVARIABLES
  2
AcDbRasterVariables
  3
ISM
 90
0
 91
0
280
0
281
0
  0
CLASS
  1
LAYOUT
  2
AcDbLayout
  3
ObjectDBX Classes
 90
0
 91
0
280
0
281
0
  0
CLASS
  1
ACDBPLACEHOLDER
  2
AcDbPlaceHolder
  3
ObjectDBX Classes
 90
0
 91
0
280
0
281
0
  0
ENDSEC
  0
SECTION
  2
TABLES
  0
TABLE
  2
VPORT
  5
8
330
0
100
AcDbSymbolTable
 70
1
  0
VPORT
  5
23
330
8
100
AcDbSymbolTableRecord
100
AcDbViewportTableRecord
  2
*Active
 70
0
 10
0.0
 20
0.0
 11
1.0
 21
1.0
 12
0.0
 22
0.0
 13
0.0
 23
0.0
 14
0.5
 24
0.5
 15
0.5
 25
0.5
 16
0.0
 26
0.0
 36
1.0
 17
0.0
 27
0.0
 37
0.0
 40
1000.0
 41
1.34
 42
50.0
 43
0.0
 44
0.0
 50
0.0
 51
0.0
 71
0
 72
1000
 73
1
 74
3
 75
0
 76
0
 77
0
 78
0
281
0
 65
0
146
0.0
  0
ENDTAB
  0
TABLE
  2
LTYPE
  5
2
330
0
100
AcDbSymbolTable
 70
3
  0
LTYPE
  5
24
330
2
100
AcDbSymbolTableRecord
100
AcDbLinetypeTableRecord
  2
ByBlock
 70
0
  3

 72
65
 73
0
 40
0.0
  0
LTYPE
  5
25
330
2
100
AcDbSymbolTableRecord
100
AcDbLinetypeTableRecord
  2
ByLayer
 70
0
  3

 72
65
 73
0
 40
0.0
  0
LTYPE
  5
26
330
2
100
AcDbSymbolTableRecord
100
AcDbLinetypeTableRecord
  2
Continuous
 70
0
  3

 72
65
 73
0
 40
0.0
  0
ENDTAB
  0
TABLE
  2
LAYER
  5
1
330
0
100
AcDbSymbolTable
 70
6
  0
LAYER
  5
27
330
1
100
AcDbSymbolTableRecord
100
AcDbLayerTableRecord
  2
0
 70
0
 62
7
  6
Continuous
370
-3
390
13
347
21
  0
LAYER
  5
28
330
1
100
AcDbSymbolTableRecord
100
AcDbLayerTableRecord
  2
Defpoints
 70
0
 62
7
  6
Continuous
290
0
370
-3
390
13
347
21
  0
LAYER
  5
2F
330
1
100
AcDbSymbolTableRecord
100
AcDbLayerTableRecord
  2
CUTS
 70
0
 62
7
  6
Continuous
370
-3
390
13
347
21
  0
LAYER
  5
30
330
1
100
AcDbSymbolTableRecord
100
AcDbLayerTableRecord
  2
ENGRAVE
 70
0
 62
1
  6
Continuous
370
-3
390
13
347
21
  0
LAYER
  5
31
330
1
100
AcDbSymbolTableRecord
100
AcDbLayerTableRecord
  2
GUIDE
 70
0
 62
3
  6
Continuous
370
-3
390
13
347
21
  0
LAYER
  5
32
330
1
100
AcDbSymbolTableRecord
100
AcDbLayerTableRecord
  2
SHEET
 70
0
 62
8
  6
Continuous
370
-3
390
13
347
21
  0
ENDTAB
  0
TABLE
  2
STYLE
  5
5
330
0
100
AcDbSymbolTable
 70
1
  0
STYLE
  5
29
330
5
100
AcDbSymbolTableRecord
100
AcDbTextStyleTableRecord
  2
Standard
 70
0
 40
0.0
 41
1.0
 50
0.0
 71
0
 42
2.5
  3
txt
  4

  0
ENDTAB
  0
TABLE
  2
VIEW
  5
7
330
0
100
AcDbSymbolTable
 70
0
  0
ENDTAB
  0
TABLE
  2
UCS
  5
6
330
0
100
AcDbSymbolTable
 70
0
  0
ENDTAB
  0
TABLE
  2
APPID
  5
3
330
0
100
AcDbSymbolTable
 70
3
  0
APPID
  5
2A
330
3
100
AcDbSymbolTableRecord
100
AcDbRegAppTableRecord
  2
ACAD
 70
0
  0
APPID
  5
C4
330
3
100
AcDbSymbolTableRecord
100
AcDbRegAppTableRecord
  2
HATCHBACKGROUNDCOLOR
 70
0
  0
APPID
  5
C5
330
3
100
AcDbSymbolTableRecord
100
AcDbRegAppTableRecord
  2
EZDXF
 70
0
  0
ENDTAB
  0
TABLE
  2
DIMSTYLE
  5
4
330
0
100
AcDbSymbolTable
 70
1
100
AcDbDimStyleTable
  0
DIMSTYLE
105
2B
330
4
100
AcDbSymbolTableRecord
100
AcDbDimStyleTableRecord
  2
Standard
 70
0
 40
1.0
 41
2.5
 42
0.625
 43
3.75
 44
1.25
 45
0.0
 46
0.0
 47
0.0
 48
0.0
 49
2.5
140
2.5
141
2.5
142
0.0
143
0.03937007874
144
1.0
145
0.0
146
1.0
147
0.625
148
0.0
 69
0
 70
0
 71
0
 72
0
 73
0
 74
0
 75
0
 76
0
 77
1
 78
8
 79
3
170
0
171
3
172
1
173
0
174
0
175
0
176
0
177
0
178
0
179
2
271
2
272
2
273
2
274
3
275
0
276
0
277
2
278
44
279
0
280
0
281
0
282
0
283
0
284
8
285
0
286
0
288
0
289
3
290
0
371
-2
372
-2
  0
ENDTAB
  0
TABLE
  2
BLOCK_RECORD
  5
9
330
0
100
AcDbSymbolTable
 70
2
  0
BLOCK_RECORD
  5
17
330
9
100
AcDbSymbolTableRecord
100
AcDbBlockTableRecord
  2
*Model_Space
340
1A
 70
0
280
1
281
0
  0
BLOCK_RECORD
  5
1B
330
9
100
AcDbSymbolTableRecord
100
AcDbBlockTableRecord
  2
*Paper_Space
340
1E
 70
0
280
1
281
0
  0
ENDTAB
  0
ENDSEC
  0
SECTION
  2
BLOCKS
  0
BLOCK
  5
18
330
17
100
AcDbEntity
  8
0
100
AcDbBlockBegin
  2
*Model_Space
 70
0
 10
0.0
 20
0.0
 30
0.0
  3
*Model_Space
  1

  0
ENDBLK
  5
19
330
17
100
AcDbEntity
  8
0
100
AcDbBlockEnd
  0
BLOCK
  5
1C
330
1B
100
AcDbEntity
  8
0
100
AcDbBlockBegin
  2
*Paper_Space
 70
0
 10
0.0
 20
0.0
 30
0.0
  3
*Paper_Space
  1

  0
ENDBLK
  5
1D
330
1B
100
AcDbEntity
  8
0
100
AcDbBlockEnd
  0
ENDSEC
  0
SECTION
  2
ENTITIES
  0
LWPOLYLINE
  5
33
330
17
100
AcDbEntity
  8
SHEET
 62
8
100
AcDbPolyline
 90
4
 70
1
 10
0.0
 20
0.0
 10
400.0
 20
0.0
 10
400.0
 20
600.0
 10
0.0
 20
600.0
  0
LWPOLYLINE
  5
34
330
17
100
AcDbEntity
  8
CUTS
100
AcDbPolyline
 90
4
 70
1
 10
46.0
 20
217.5
 10
196.0
 20
217.5
 10
196.0
 20
297.5
 10
46.0
 20
297.5
  0
TEXT
  5
35
330
17
100
AcDbEntity
  8
ENGRAVE
100
AcDbText
 10
51.0
 20
289.5
 30
0.0
 40
3.0
  1
M7 CHASSIS
 11
51.0
 21
289.5
 31
0.0
100
AcDbText
  0
LWPOLYLINE
  5
36
330
17
100
AcDbEntity
  8
CUTS
100
AcDbPolyline
 90
4
 70
1
 10
66.0
 20
226.05
 10
76.0
 20
226.05
 10
76.0
 20
228.95
 10
66.0
 20
228.95
  0
LWPOLYLINE
  5
37
330
17
100
AcDbEntity
  8
CUTS
100
AcDbPolyline
 90
4
 70
1
 10
166.0
 20
226.05
 10
176.0
 20
226.05
 10
176.0
 20
228.95
 10
166.0
 20
228.95
  0
LWPOLYLINE
  5
38
330
17
100
AcDbEntity
  8
CUTS
100
AcDbPolyline
 90
4
 70
1
 10
66.0
 20
286.05
 10
76.0
 20
286.05
 10
76.0
 20
288.95
 10
66.0
 20
288.95
  0
LWPOLYLINE
  5
39
330
17
100
AcDbEntity
  8
CUTS
100
AcDbPolyline
 90
4
 70
1
 10
166.0
 20
286.05
 10
176.0
 20
286.05
 10
176.0
 20
288.95
 10
166.0
 20
288.95
  0
LWPOLYLINE
  5
3A
330
17
100
AcDbEntity
  8
CUTS
100
AcDbPolyline
 90
4
 70
1
 10
116.0
 20
256.05
 10
126.0
 20
256.05
 10
126.0
 20
258.95
 10
116.0
 20
258.95
  0
CIRCLE
  5
3B
330
17
100
AcDbEntity
  8
CUTS
100
AcDbCircle
 10
66.0
 20
222.5
 30
0.0
 40
1.6
  0
CIRCLE
  5
3C
330
17
100
AcDbEntity
  8
CUTS
100
AcDbCircle
 10
66.0
 20
292.5
 30
0.0
 40
1.6
  0
CIRCLE
  5
3D
330
17
100
AcDbEntity
  8
CUTS
100
AcDbCircle
 10
176.0
 20
222.5
 30
0.0
 40
1.6
  0
CIRCLE
  5
3E
330
17
100
AcDbEntity
  8
CUTS
100
AcDbCircle
 10
176.0
 20
292.5
 30
0.0
 40
1.6
  0
CIRCLE
  5
3F
330
17
100
AcDbEntity
  8
CUTS
100
AcDbCircle
 10
101.0
 20
237.5
 30
0.0
 40
2.0
  0
CIRCLE
  5
40
330
17
100
AcDbEntity
  8
CUTS
100
AcDbCircle
 10
141.0
 20
237.5
 30
0.0
 40
2.0
  0
LWPOLYLINE
  5
41
330
17
100
AcDbEntity
  8
CUTS
100
AcDbPolyline
 90
12
 70
1
 10
204.0
 20
247.5
 10
354.0
 20
247.5
 10
354.0
 20
217.5
 10
334.0
 20
217.5
 10
334.0
 20
214.5
 10
324.0
 20
214.5
 10
324.0
 20
217.5
 10
234.0
 20
217.5
 10
234.0
 20
214.5
 10
224.0
 20
214.5
 10
224.0
 20
217.5
 10
204.0
 20
217.5
  0
LWPOLYLINE
  5
42
330
17
100
AcDbEntity
  8
CUTS
100
AcDbPolyline
 90
4
 70
1
 10
222.0
 20
247.5
 10
222.0
 20
239.5
 10
226.0
 20
239.5
 10
226.0
 20
247.5
  0
LWPOLYLINE
  5
43
330
17
100
AcDbEntity
  8
CUTS
100
AcDbPolyline
 90
4
 70
1
 10
332.0
 20
247.5
 10
332.0
 20
239.5
 10
336.0
 20
239.5
 10
336.0
 20
247.5
  0
TEXT
  5
44
330
17
100
AcDbEntity
  8
ENGRAVE
100
AcDbText
 10
209.0
 20
237.5
 30
0.0
 40
3.0
  1
M7 RAIL L
 11
209.0
 21
237.5
 31
0.0
100
AcDbText
  0
LWPOLYLINE
  5
45
330
17
100
AcDbEntity
  8
CUTS
100
AcDbPolyline
 90
12
 70
1
 10
204.0
 20
285.5
 10
354.0
 20
285.5
 10
354.0
 20
255.5
 10
334.0
 20
255.5
 10
334.0
 20
252.5
 10
324.0
 20
252.5
 10
324.0
 20
255.5
 10
234.0
 20
255.5
 10
234.0
 20
252.5
 10
224.0
 20
252.5
 10
224.0
 20
255.5
 10
204.0
 20
255.5
  0
LWPOLYLINE
  5
46
330
17
100
AcDbEntity
  8
CUTS
100
AcDbPolyline
 90
4
 70
1
 10
222.0
 20
285.5
 10
222.0
 20
277.5
 10
226.0
 20
277.5
 10
226.0
 20
285.5
  0
LWPOLYLINE
  5
47
330
17
100
AcDbEntity
  8
CUTS
100
AcDbPolyline
 90
4
 70
1
 10
332.0
 20
285.5
 10
332.0
 20
277.5
 10
336.0
 20
277.5
 10
336.0
 20
285.5
  0
TEXT
  5
48
330
17
100
AcDbEntity
  8
ENGRAVE
100
AcDbText
 10
209.0
 20
275.5
 30
0.0
 40
3.0
  1
M7 RAIL R
 11
209.0
 21
275.5
 31
0.0
100
AcDbText
  0
CIRCLE
  5
49
330
17
100
AcDbEntity
  8
CUTS
100
AcDbCircle
 10
81.0
 20
174.5
 30
0.0
 40
30.0
  0
CIRCLE
  5
4A
330
17
100
AcDbEntity
  8
CUTS
100
AcDbCircle
 10
81.0
 20
174.5
 30
0.0
 40
1.6
  0
CIRCLE
  5
4B
330
17
100
AcDbEntity
  8
ENGRAVE
100
AcDbCircle
 10
81.0
 20
174.5
 30
0.0
 40
27.0
  0
CIRCLE
  5
4C
330
17
100
AcDbEntity
  8
CUTS
100
AcDbCircle
 10
98.0
 20
174.5
 30
0.0
 40
5.0
  0
CIRCLE
  5
4D
330
17
100
AcDbEntity
  8
CUTS
100
AcDbCircle
 10
89.5
 20
189.22243186433545
 30
0.0
 40
5.0
  0
CIRCLE
  5
4E
330
17
100
AcDbEntity
  8
CUTS
100
AcDbCircle
 10
72.5
 20
189.22243186433545
 30
0.0
 40
5.0
  0
CIRCLE
  5
4F
330
17
100
AcDbEntity
  8
CUTS
100
AcDbCircle
 10
64.0
 20
174.5
 30
0.0
 40
5.0
  0
CIRCLE
  5
50
330
17
100
AcDbEntity
  8
CUTS
100
AcDbCircle
 10
72.5
 20
159.77756813566455
 30
0.0
 40
5.0
  0
CIRCLE
  5
51
330
17
100
AcDbEntity
  8
CUTS
100
AcDbCircle
 10
89.5
 20
159.77756813566455
 30
0.0
 40
5.0
  0
TEXT
  5
52
330
17
100
AcDbEntity
  8
ENGRAVE
100
AcDbText
 10
75.0
 20
172.5
 30
0.0
 40
2.0
  1
W1
 11
75.0
 21
172.5
 31
0.0
100
AcDbText
  0
CIRCLE
  5
53
330
17
100
AcDbEntity
  8
CUTS
100
AcDbCircle
 10
149.0
 20
174.5
 30
0.0
 40
30.0
  0
CIRCLE
  5
54
330
17
100
AcDbEntity
  8
CUTS
100
AcDbCircle
 10
149.0
 20
174.5
 30
0.0
 40
1.6
  0
CIRCLE
  5
55
330
17
100
AcDbEntity
  8
ENGRAVE
100
AcDbCircle
 10
149.0
 20
174.5
 30
0.0
 40
27.0
  0
CIRCLE
  5
56
330
17
100
AcDbEntity
  8
CUTS
100
AcDbCircle
 10
166.0
 20
174.5
 30
0.0
 40
5.0
  0
CIRCLE
  5
57
330
17
100
AcDbEntity
  8
CUTS
100
AcDbCircle
 10
157.5
 20
189.22243186433545
 30
0.0
 40
5.0
  0
CIRCLE
  5
58
330
17
100
AcDbEntity
  8
CUTS
100
AcDbCircle
 10
140.5
 20
189.22243186433545
 30
0.0
 40
5.0
  0
CIRCLE
  5
59
330
17
100
AcDbEntity
  8
CUTS
100
AcDbCircle
 10
132.0
 20
174.5
 30
0.0
 40
5.0
  0
CIRCLE
  5
5A
330
17
100
AcDbEntity
  8
CUTS
100
AcDbCircle
 10
140.5
 20
159.77756813566455
 30
0.0
 40
5.0
  0
CIRCLE
  5
5B
330
17
100
AcDbEntity
  8
CUTS
100
AcDbCircle
 10
157.5
 20
159.77756813566455
 30
0.0
 40
5.0
  0
TEXT
  5
5C
330
17
100
AcDbEntity
  8
ENGRAVE
100
AcDbText
 10
143.0
 20
172.5
 30
0.0
 40
2.0
  1
W2
 11
143.0
 21
172.5
 31
0.0
100
AcDbText
  0
CIRCLE
  5
5D
330
17
100
AcDbEntity
  8
CUTS
100
AcDbCircle
 10
217.0
 20
174.5
 30
0.0
 40
30.0
  0
CIRCLE
  5
5E
330
17
100
AcDbEntity
  8
CUTS
100
AcDbCircle
 10
217.0
 20
174.5
 30
0.0
 40
1.6
  0
CIRCLE
  5
5F
330
17
100
AcDbEntity
  8
ENGRAVE
100
AcDbCircle
 10
217.0
 20
174.5
 30
0.0
 40
27.0
  0
CIRCLE
  5
60
330
17
100
AcDbEntity
  8
CUTS
100
AcDbCircle
 10
234.0
 20
174.5
 30
0.0
 40
5.0
  0
CIRCLE
  5
61
330
17
100
AcDbEntity
  8
CUTS
100
AcDbCircle
 10
225.5
 20
189.22243186433545
 30
0.0
 40
5.0
  0
CIRCLE
  5
62
330
17
100
AcDbEntity
  8
CUTS
100
AcDbCircle
 10
208.5
 20
189.22243186433545
 30
0.0
 40
5.0
  0
CIRCLE
  5
63
330
17
100
AcDbEntity
  8
CUTS
100
AcDbCircle
 10
200.0
 20
174.5
 30
0.0
 40
5.0
  0
CIRCLE
  5
64
330
17
100
AcDbEntity
  8
CUTS
100
AcDbCircle
 10
208.5
 20
159.77756813566455
 30
0.0
 40
5.0
  0
CIRCLE
  5
65
330
17
100
AcDbEntity
  8
CUTS
100
AcDbCircle
 10
225.5
 20
159.77756813566455
 30
0.0
 40
5.0
  0
TEXT
  5
66
330
17
100
AcDbEntity
  8
ENGRAVE
100
AcDbText
 10
211.0
 20
172.5
 30
0.0
 40
2.0
  1
W3
 11
211.0
 21
172.5
 31
0.0
100
AcDbText
  0
CIRCLE
  5
67
330
17
100
AcDbEntity
  8
CUTS
100
AcDbCircle
 10
285.0
 20
174.5
 30
0.0
 40
30.0
  0
CIRCLE
  5
68
330
17
100
AcDbEntity
  8
CUTS
100
AcDbCircle
 10
285.0
 20
174.5
 30
0.0
 40
1.6
  0
CIRCLE
  5
69
330
17
100
AcDbEntity
  8
ENGRAVE
100
AcDbCircle
 10
285.0
 20
174.5
 30
0.0
 40
27.0
  0
CIRCLE
  5
6A
330
17
100
AcDbEntity
  8
CUTS
100
AcDbCircle
 10
302.0
 20
174.5
 30
0.0
 40
5.0
  0
CIRCLE
  5
6B
330
17
100
AcDbEntity
  8
CUTS
100
AcDbCircle
 10
293.5
 20
189.22243186433545
 30
0.0
 40
5.0
  0
CIRCLE
  5
6C
330
17
100
AcDbEntity
  8
CUTS
100
AcDbCircle
 10
276.5
 20
189.22243186433545
 30
0.0
 40
5.0
  0
CIRCLE
  5
6D
330
17
100
AcDbEntity
  8
CUTS
100
AcDbCircle
 10
268.0
 20
174.5
 30
0.0
 40
5.0
  0
CIRCLE
  5
6E
330
17
100
AcDbEntity
  8
CUTS
100
AcDbCircle
 10
276.5
 20
159.77756813566455
 30
0.0
 40
5.0
  0
CIRCLE
  5
6F
330
17
100
AcDbEntity
  8
CUTS
100
AcDbCircle
 10
293.5
 20
159.77756813566455
 30
0.0
 40
5.0
  0
TEXT
  5
70
330
17
100
AcDbEntity
  8
ENGRAVE
100
AcDbText
 10
279.0
 20
172.5
 30
0.0
 40
2.0
  1
W4
 11
279.0
 21
172.5
 31
0.0
100
AcDbText
  0
LWPOLYLINE
  5
71
330
17
100
AcDbEntity
  8
CUTS
100
AcDbPolyline
 90
8
 70
1
 10
46.0
 20
124.5
 10
126.0
 20
124.5
 10
126.0
 20
84.5
 10
91.0
 20
84.5
 10
91.0
 20
81.5
 10
81.0
 20
81.5
 10
81.0
 20
84.5
 10
46.0
 20
84.5
  0
LWPOLYLINE
  5
72
330
17
100
AcDbEntity
  8
CUTS
100
AcDbPolyline
 90
4
 70
1
 10
74.0
 20
94.5
 10
98.0
 20
94.5
 10
98.0
 20
114.5
 10
74.0
 20
114.5
  0
CIRCLE
  5
73
330
17
100
AcDbEntity
  8
CUTS
100
AcDbCircle
 10
58.0
 20
104.5
 30
0.0
 40
1.6
  0
CIRCLE
  5
74
330
17
100
AcDbEntity
  8
CUTS
100
AcDbCircle
 10
114.0
 20
104.5
 30
0.0
 40
1.6
  0
TEXT
  5
75
330
17
100
AcDbEntity
  8
ENGRAVE
100
AcDbText
 10
51.0
 20
116.5
 30
0.0
 40
3.0
  1
M7 TT MOUNT
 11
51.0
 21
116.5
 31
0.0
100
AcDbText
  0
LWPOLYLINE
  5
76
330
17
100
AcDbEntity
  8
CUTS
100
AcDbPolyline
 90
60
 70
1
 10
157.99040127993175
 20
104.0201279897604
 10
158.0
 20
104.5
 10
157.99040127993175
 20
104.9798720102396
 10
153.2198986728511
 20
106.5305327265925
 10
153.13292387221367
 20
106.81762745781211
 10
153.03453791498995
 20
107.10101447950004
 10
155.98250009544668
 20
111.15955643000396
 10
155.70820393249937
 20
111.55342302750968
 10
155.4183767142331
 20
111.93600565282138
 10
150.64750353301338
 20
110.3864854463957
 10
150.40838939219356
 20
110.56762745781211
 10
150.16222276875249
 20
110.73906255965417
 10
150.16162316720005
 20
115.75526066398392
 10
149.70820393249937
 20
115.91267819554184
 10
149.248852362548
 20
116.05183787656173
 10
146.29992000639976
 20
111.99400079995733
 10
146.0
 20
112.0
 10
145.70007999360024
 20
111.99400079995733
 10
142.751147637452
 20
116.05183787656173
 10
142.29179606750063
 20
115.91267819554184
 10
141.83837683279995
 20
115.75526066398392
 10
141.83777723124751
 20
110.73906255965417
 10
141.59161060780644
 20
110.56762745781211
 10
141.35249646698662
 20
110.3864854463957
 10
136.5816232857669
 20
111.93600565282138
 10
136.29179606750063
 20
111.55342302750968
 10
136.01749990455332
 20
111.15955643000396
 10
138.96546208501005
 20
107.10101447950004
 10
138.86707612778633
 20
106.81762745781211
 10
138.7801013271489
 20
106.5305327265925
 10
134.00959872006825
 20
104.97987201023962
 10
134.0
 20
104.5
 10
134.00959872006825
 20
104.0201279897604
 10
138.7801013271489
 20
102.4694672734075
 10
138.86707612778633
 20
102.18237254218789
 10
138.96546208501005
 20
101.89898552049996
 10
136.01749990455332
 20
97.84044356999604
 10
136.29179606750063
 20
97.44657697249032
 10
136.58162328576688
 20
97.06399434717862
 10
141.35249646698662
 20
98.6135145536043
 10
141.59161060780644
 20
98.43237254218789
 10
141.83777723124751
 20
98.26093744034583
 10
141.83837683279995
 20
93.24473933601608
 10
142.29179606750063
 20
93.08732180445816
 10
142.751147637452
 20
92.94816212343827
 10
145.70007999360024
 20
97.00599920004267
 10
146.0
 20
97.0
 10
146.29992000639976
 20
97.00599920004267
 10
149.248852362548
 20
92.94816212343827
 10
149.70820393249937
 20
93.08732180445816
 10
150.16162316720005
 20
93.24473933601608
 10
150.16222276875249
 20
98.26093744034583
 10
150.40838939219356
 20
98.43237254218789
 10
150.64750353301338
 20
98.6135145536043
 10
155.4183767142331
 20
97.06399434717862
 10
155.70820393249937
 20
97.44657697249032
 10
155.98250009544668
 20
97.84044356999604
 10
153.03453791498995
 20
101.89898552049996
 10
153.13292387221367
 20
102.18237254218789
 10
153.2198986728511
 20
102.4694672734075
  0
CIRCLE
  5
77
330
17
100
AcDbEntity
  8
CUTS
100
AcDbCircle
 10
146.0
 20
104.5
 30
0.0
 40
2.9
  0
TEXT
  5
78
330
17
100
AcDbEntity
  8
ENGRAVE
100
AcDbText
 10
140.0
 20
102.5
 30
0.0
 40
2.0
  1
SM
 11
140.0
 21
102.5
 31
0.0
100
AcDbText
  0
LWPOLYLINE
  5
79
330
17
100
AcDbEntity
  8
CUTS
100
AcDbPolyline
 90
180
 70
1
 10
229.9971555976952
 20
104.07334597519628
 10
230.0
 20
104.5
 10
229.9971555976952
 20
104.92665402480372
 10
225.38524707271125
 20
107.0096300059091
 10
225.34935212262752
 20
107.37453273986047
 10
225.30859513753055
 20
107.73892445333995
 10
229.38664733788298
 20
110.73525211097055
 10
229.30072322348178
 20
111.1531741061683
 10
229.2092346185007
 20
111.56991333238093
 10
224.26503230181945
 20
112.64850159135905
 10
224.1540541981167
 20
112.99796734531105
 10
224.03842655366148
 20
113.34592237189413
 10
227.40439197956144
 20
117.12464780943623
 10
227.23345464456324
 20
117.5155725784256
 10
227.05732032795456
 20
117.90418350212498
 10
221.99690958572995
 20
117.9312445564178
 10
221.81569860407205
 20
118.25
 10
221.63025378316422
 20
118.56631103535153
 10
224.13702359380576
 20
122.96228581884812
 10
223.88854381999832
 20
123.30912807335915
 10
223.63546170658407
 20
123.65262653241749
 10
218.68000677079615
 20
122.62697768409906
 10
218.43648270062835
 20
122.90109167486861
 10
218.18932553180457
 20
123.17193440891499
 10
219.72734185764654
 20
127.99303334609988
 10
219.41217940348346
 20
128.2806344152766
 10
219.09321039604254
 20
128.5640078787446
 10
214.45928842629627
 20
126.53047490409567
 10
214.164094438043
 20
126.74796734531105
 10
213.8660268755726
 20
126.96150465092683
 10
214.36807102295452
 20
131.99702258404565
 10
214.0
 20
132.21281292110203
 10
213.62908457474072
 20
132.42367660884938
 10
209.51922019713868
 20
129.47113465683594
 10
209.1852576845845
 20
129.6225000851715
 10
208.84930671123425
 20
129.76939935743562
 10
208.29343694184044
 20
134.79925998971515
 10
207.88854381999832
 20
134.93380852144492
 10
207.48189276085415
 20
135.0629466784808
 10
204.07570677001488
 20
131.32043600027404
 10
203.7175714974884
 20
131.39905902017966
 10
203.35841978286533
 20
131.4729000559932
 10
201.7689302729774
 20
136.2772743418537
 10
201.34491082456492
 20
136.32470065178475
 10
200.92029673414876
 20
136.3664693209731
 10
198.3666558025657
 20
131.99755559176933
 10
198.0
 20
132.0
 10
197.6333441974343
 20
131.99755559176933
 10
195.07970326585124
 20
136.36646932097312
 10
194.65508917543508
 20
136.32470065178475
 10
194.23106972702263
 20
136.2772743418537
 10
192.64158021713467
 20
131.4729000559932
 10
192.28242850251164
 20
131.39905902017966
 10
191.92429322998512
 20
131.32043600027404
 10
188.51810723914585
 20
135.0629466784808
 10
188.11145618000168
 20
134.93380852144492
 10
187.70656305815956
 20
134.79925998971515
 10
187.15069328876575
 20
129.76939935743562
 10
186.8147423154155
 20
129.6225000851715
 10
186.48077980286135
 20
129.47113465683594
 10
182.37091542525928
 20
132.42367660884938
 10
182.0
 20
132.21281292110206
 10
181.6319289770455
 20
131.99702258404565
 10
182.1339731244274
 20
126.96150465092683
 10
181.835905561957
 20
126.74796734531105
 10
181.54071157370373
 20
126.53047490409567
 10
176.90678960395746
 20
128.56400787874463
 10
176.58782059651654
 20
128.2806344152766
 10
176.27265814235346
 20
127.99303334609989
 10
177.81067446819543
 20
123.17193440891499
 10
177.56351729937165
 20
122.90109167486861
 10
177.31999322920385
 20
122.62697768409907
 10
172.36453829341593
 20
123.65262653241749
 10
172.11145618000168
 20
123.30912807335915
 10
171.86297640619424
 20
122.96228581884813
 10
174.36974621683578
 20
118.56631103535153
 10
174.18430139592795
 20
118.25
 10
174.00309041427008
 20
117.9312445564178
 10
168.94267967204547
 20
117.904183502125
 10
168.7665453554368
 20
117.51557257842562
 10
168.59560802043856
 20
117.12464780943624
 10
171.96157344633852
 20
113.34592237189413
 10
171.84594580188326
 20
112.99796734531105
 10
171.73496769818055
 20
112.64850159135905
 10
166.7907653814993
 20
111.56991333238095
 10
166.69927677651822
 20
111.15317410616831
 10
166.61335266211702
 20
110.73525211097058
 10
170.69140486246948
 20
107.73892445333995
 10
170.65064787737248
 20
107.37453273986048
 10
170.61475292728875
 20
107.00963000590912
 10
166.0028444023048
 20
104.92665402480372
 10
166.0
 20
104.5
 10
166.0028444023048
 20
104.07334597519628
 10
170.61475292728875
 20
101.9903699940909
 10
170.65064787737248
 20
101.62546726013953
 10
170.69140486246945
 20
101.26107554666007
 10
166.613352662117
 20
98.26474788902945
 10
166.69927677651822
 20
97.8468258938317
 10
166.79076538149928
 20
97.43008666761908
 10
171.73496769818055
 20
96.35149840864095
 10
171.84594580188326
 20
96.00203265468895
 10
171.96157344633852
 20
95.65407762810588
 10
168.59560802043856
 20
91.87535219056379
 10
168.76654535543676
 20
91.48442742157441
 10
168.94267967204544
 20
91.09581649787503
 10
174.00309041427005
 20
91.0687554435822
 10
174.18430139592795
 20
90.75
 10
174.36974621683575
 20
90.43368896464847
 10
171.8629764061942
 20
86.0377141811519
 10
172.11145618000168
 20
85.69087192664085
 10
172.36453829341593
 20
85.34737346758251
 10
177.31999322920385
 20
86.37302231590093
 10
177.56351729937165
 20
86.09890832513139
 10
177.81067446819543
 20
85.82806559108502
 10
176.27265814235346
 20
81.00696665390012
 10
176.58782059651654
 20
80.71936558472339
 10
176.90678960395744
 20
80.4359921212554
 10
181.5407115737037
 20
82.46952509590434
 10
181.835905561957
 20
82.25203265468895
 10
182.1339731244274
 20
82.03849534907317
 10
181.63192897704545
 20
77.00297741595438
 10
182.0
 20
76.78718707889797
 10
182.37091542525928
 20
76.57632339115062
 10
186.48077980286132
 20
79.52886534316409
 10
186.8147423154155
 20
79.37749991482849
 10
187.15069328876572
 20
79.23060064256438
 10
187.70656305815953
 20
74.20074001028485
 10
188.11145618000168
 20
74.06619147855508
 10
188.51810723914585
 20
73.93705332151919
 10
191.92429322998512
 20
77.67956399972596
 10
192.2824285025116
 20
77.60094097982034
 10
192.64158021713467
 20
77.5270999440068
 10
194.23106972702257
 20
72.72272565814629
 10
194.65508917543505
 20
72.67529934821525
 10
195.0797032658512
 20
72.6335306790269
 10
197.63334419743427
 20
77.00244440823067
 10
197.99999999999997
 20
77.0
 10
198.36665580256567
 20
77.00244440823067
 10
200.92029673414874
 20
72.6335306790269
 10
201.3449108245649
 20
72.67529934821525
 10
201.76893027297737
 20
72.72272565814629
 10
203.3584197828653
 20
77.5270999440068
 10
203.71757149748836
 20
77.60094097982034
 10
204.07570677001485
 20
77.67956399972596
 10
207.48189276085415
 20
73.93705332151919
 10
207.88854381999832
 20
74.06619147855508
 10
208.29343694184044
 20
74.20074001028485
 10
208.84930671123425
 20
79.23060064256438
 10
209.18525768458449
 20
79.37749991482846
 10
209.51922019713865
 20
79.52886534316406
 10
213.6290845747407
 20
76.5763233911506
 10
213.99999999999997
 20
76.78718707889794
 10
214.3680710229545
 20
77.00297741595435
 10
213.86602687557257
 20
82.03849534907314
 10
214.16409443804298
 20
82.25203265468892
 10
214.45928842629627
 20
82.46952509590432
 10
219.09321039604254
 20
80.43599212125537
 10
219.41217940348344
 20
80.71936558472336
 10
219.72734185764654
 20
81.00696665390012
 10
218.18932553180457
 20
85.828065591085
 10
218.43648270062832
 20
86.09890832513139
 10
218.68000677079615
 20
86.37302231590093
 10
223.63546170658404
 20
85.34737346758249
 10
223.88854381999832
 20
85.69087192664085
 10
224.13702359380576
 20
86.0377141811519
 10
221.63025378316422
 20
90.43368896464844
 10
221.81569860407205
 20
90.74999999999999
 10
221.99690958572992
 20
91.0687554435822
 10
227.05732032795453
 20
91.09581649787498
 10
227.2334546445632
 20
91.48442742157437
 10
227.40439197956144
 20
91.87535219056376
 10
224.03842655366145
 20
95.65407762810582
 10
224.1540541981167
 20
96.00203265468892
 10
224.26503230181945
 20
96.35149840864094
 10
229.2092346185007
 20
97.43008666761904
 10
229.30072322348178
 20
97.84682589383168
 10
229.38664733788298
 20
98.26474788902944
 10
225.30859513753055
 20
101.26107554666002
 10
225.34935212262752
 20
101.6254672601395
 10
225.38524707271125
 20
101.99036999409088
  0
CIRCLE
  5
7A
330
17
100
AcDbEntity
  8
CUTS
100
AcDbCircle
 10
198.0
 20
104.5
 30
0.0
 40
1.6
  0
TEXT
  5
7B
330
17
100
AcDbEntity
  8
ENGRAVE
100
AcDbText
 10
192.0
 20
102.5
 30
0.0
 40
2.0
  1
LG
 11
192.0
 21
102.5
 31
0.0
100
AcDbText
  0
LWPOLYLINE
  5
7C
330
17
100
AcDbEntity
  8
CUTS
100
AcDbPolyline
 90
4
 70
1
 10
46.0
 20
447.3664693209731
 10
196.0
 20
447.3664693209731
 10
196.0
 20
527.3664693209731
 10
46.0
 20
527.3664693209731
  0
TEXT
  5
7D
330
17
100
AcDbEntity
  8
ENGRAVE
100
AcDbText
 10
51.0
 20
519.3664693209731
 30
0.0
 40
3.0
  1
M7 CHASSIS
 11
51.0
 21
519.3664693209731
 31
0.0
100
AcDbText
  0
LWPOLYLINE
  5
7E
330
17
100
AcDbEntity
  8
CUTS
100
AcDbPolyline
 90
4
 70
1
 10
66.0
 20
455.91646932097314
 10
76.0
 20
455.91646932097314
 10
76.0
 20
458.8164693209731
 10
66.0
 20
458.8164693209731
  0
LWPOLYLINE
  5
7F
330
17
100
AcDbEntity
  8
CUTS
100
AcDbPolyline
 90
4
 70
1
 10
166.0
 20
455.91646932097314
 10
176.0
 20
455.91646932097314
 10
176.0
 20
458.8164693209731
 10
166.0
 20
458.8164693209731
  0
LWPOLYLINE
  5
80
330
17
100
AcDbEntity
  8
CUTS
100
AcDbPolyline
 90
4
 70
1
 10
66.0
 20
515.9164693209731
 10
76.0
 20
515.9164693209731
 10
76.0
 20
518.8164693209732
 10
66.0
 20
518.8164693209732
  0
LWPOLYLINE
  5
81
330
17
100
AcDbEntity
  8
CUTS
100
AcDbPolyline
 90
4
 70
1
 10
166.0
 20
515.9164693209731
 10
176.0
 20
515.9164693209731
 10
176.0
 20
518.8164693209732
 10
166.0
 20
518.8164693209732
  0
LWPOLYLINE
  5
82
330
17
100
AcDbEntity
  8
CUTS
100
AcDbPolyline
 90
4
 70
1
 10
116.0
 20
485.91646932097314
 10
126.0
 20
485.91646932097314
 10
126.0
 20
488.8164693209731
 10
116.0
 20
488.8164693209731
  0
CIRCLE
  5
83
330
17
100
AcDbEntity
  8
CUTS
100
AcDbCircle
 10
66.0
 20
452.3664693209731
 30
0.0
 40
1.6
  0
CIRCLE
  5
84
330
17
100
AcDbEntity
  8
CUTS
100
AcDbCircle
 10
66.0
 20
522.3664693209731
 30
0.0
 40
1.6
  0
CIRCLE
  5
85
330
17
100
AcDbEntity
  8
CUTS
100
AcDbCircle
 10
176.0
 20
452.3664693209731
 30
0.0
 40
1.6
  0
CIRCLE
  5
86
330
17
100
AcDbEntity
  8
CUTS
100
AcDbCircle
 10
176.0
 20
522.3664693209731
 30
0.0
 40
1.6
  0
CIRCLE
  5
87
330
17
100
AcDbEntity
  8
CUTS
100
AcDbCircle
 10
101.0
 20
467.3664693209731
 30
0.0
 40
2.0
  0
CIRCLE
  5
88
330
17
100
AcDbEntity
  8
CUTS
100
AcDbCircle
 10
141.0
 20
467.3664693209731
 30
0.0
 40
2.0
  0
LWPOLYLINE
  5
89
330
17
100
AcDbEntity
  8
CUTS
100
AcDbPolyline
 90
12
 70
1
 10
204.0
 20
477.3664693209731
 10
354.0
 20
477.3664693209731
 10
354.0
 20
447.3664693209731
 10
334.0
 20
447.3664693209731
 10
334.0
 20
444.3664693209731
 10
324.0
 20
444.3664693209731
 10
324.0
 20
447.3664693209731
 10
234.0
 20
447.3664693209731
 10
234.0
 20
444.3664693209731
 10
224.0
 20
444.3664693209731
 10
224.0
 20
447.3664693209731
 10
204.0
 20
447.3664693209731
  0
LWPOLYLINE
  5
8A
330
17
100
AcDbEntity
  8
CUTS
100
AcDbPolyline
 90
4
 70
1
 10
222.0
 20
477.3664693209731
 10
222.0
 20
469.3664693209731
 10
226.0
 20
469.3664693209731
 10
226.0
 20
477.3664693209731
  0
LWPOLYLINE
  5
8B
330
17
100
AcDbEntity
  8
CUTS
100
AcDbPolyline
 90
4
 70
1
 10
332.0
 20
477.3664693209731
 10
332.0
 20
469.3664693209731
 10
336.0
 20
469.3664693209731
 10
336.0
 20
477.3664693209731
  0
TEXT
  5
8C
330
17
100
AcDbEntity
  8
ENGRAVE
100
AcDbText
 10
209.0
 20
467.3664693209731
 30
0.0
 40
3.0
  1
M7 RAIL L
 11
209.0
 21
467.3664693209731
 31
0.0
100
AcDbText
  0
LWPOLYLINE
  5
8D
330
17
100
AcDbEntity
  8
CUTS
100
AcDbPolyline
 90
12
 70
1
 10
204.0
 20
515.3664693209731
 10
354.0
 20
515.3664693209731
 10
354.0
 20
485.3664693209731
 10
334.0
 20
485.3664693209731
 10
334.0
 20
482.3664693209731
 10
324.0
 20
482.3664693209731
 10
324.0
 20
485.3664693209731
 10
234.0
 20
485.3664693209731
 10
234.0
 20
482.3664693209731
 10
224.0
 20
482.3664693209731
 10
224.0
 20
485.3664693209731
 10
204.0
 20
485.3664693209731
  0
LWPOLYLINE
  5
8E
330
17
100
AcDbEntity
  8
CUTS
100
AcDbPolyline
 90
4
 70
1
 10
222.0
 20
515.3664693209731
 10
222.0
 20
507.3664693209731
 10
226.0
 20
507.3664693209731
 10
226.0
 20
515.3664693209731
  0
LWPOLYLINE
  5
8F
330
17
100
AcDbEntity
  8
CUTS
100
AcDbPolyline
 90
4
 70
1
 10
332.0
 20
515.3664693209731
 10
332.0
 20
507.3664693209731
 10
336.0
 20
507.3664693209731
 10
336.0
 20
515.3664693209731
  0
TEXT
  5
90
330
17
100
AcDbEntity
  8
ENGRAVE
100
AcDbText
 10
209.0
 20
505.3664693209731
 30
0.0
 40
3.0
  1
M7 RAIL R
 11
209.0
 21
505.3664693209731
 31
0.0
100
AcDbText
  0
CIRCLE
  5
91
330
17
100
AcDbEntity
  8
CUTS
100
AcDbCircle
 10
81.0
 20
404.3664693209731
 30
0.0
 40
30.0
  0
CIRCLE
  5
92
330
17
100
AcDbEntity
  8
CUTS
100
AcDbCircle
 10
81.0
 20
404.3664693209731
 30
0.0
 40
1.6
  0
CIRCLE
  5
93
330
17
100
AcDbEntity
  8
ENGRAVE
100
AcDbCircle
 10
81.0
 20
404.3664693209731
 30
0.0
 40
27.0
  0
CIRCLE
  5
94
330
17
100
AcDbEntity
  8
CUTS
100
AcDbCircle
 10
98.0
 20
404.3664693209731
 30
0.0
 40
5.0
  0
CIRCLE
  5
95
330
17
100
AcDbEntity
  8
CUTS
100
AcDbCircle
 10
89.5
 20
419.0889011853086
 30
0.0
 40
5.0
  0
CIRCLE
  5
96
330
17
100
AcDbEntity
  8
CUTS
100
AcDbCircle
 10
72.5
 20
419.0889011853086
 30
0.0
 40
5.0
  0
CIRCLE
  5
97
330
17
100
AcDbEntity
  8
CUTS
100
AcDbCircle
 10
64.0
 20
404.3664693209731
 30
0.0
 40
5.0
  0
CIRCLE
  5
98
330
17
100
AcDbEntity
  8
CUTS
100
AcDbCircle
 10
72.5
 20
389.64403745663765
 30
0.0
 40
5.0
  0
CIRCLE
  5
99
330
17
100
AcDbEntity
  8
CUTS
100
AcDbCircle
 10
89.5
 20
389.64403745663765
 30
0.0
 40
5.0
  0
TEXT
  5
9A
330
17
100
AcDbEntity
  8
ENGRAVE
100
AcDbText
 10
75.0
 20
402.3664693209731
 30
0.0
 40
2.0
  1
W1
 11
75.0
 21
402.3664693209731
 31
0.0
100
AcDbText
  0
CIRCLE
  5
9B
330
17
100
AcDbEntity
  8
CUTS
100
AcDbCircle
 10
149.0
 20
404.3664693209731
 30
0.0
 40
30.0
  0
CIRCLE
  5
9C
330
17
100
AcDbEntity
  8
CUTS
100
AcDbCircle
 10
149.0
 20
404.3664693209731
 30
0.0
 40
1.6
  0
CIRCLE
  5
9D
330
17
100
AcDbEntity
  8
ENGRAVE
100
AcDbCircle
 10
149.0
 20
404.3664693209731
 30
0.0
 40
27.0
  0
CIRCLE
  5
9E
330
17
100
AcDbEntity
  8
CUTS
100
AcDbCircle
 10
166.0
 20
404.3664693209731
 30
0.0
 40
5.0
  0
CIRCLE
  5
9F
330
17
100
AcDbEntity
  8
CUTS
100
AcDbCircle
 10
157.5
 20
419.0889011853086
 30
0.0
 40
5.0
  0
CIRCLE
  5
A0
330
17
100
AcDbEntity
  8
CUTS
100
AcDbCircle
 10
140.5
 20
419.0889011853086
 30
0.0
 40
5.0
  0
CIRCLE
  5
A1
330
17
100
AcDbEntity
  8
CUTS
100
AcDbCircle
 10
132.0
 20
404.3664693209731
 30
0.0
 40
5.0
  0
CIRCLE
  5
A2
330
17
100
AcDbEntity
  8
CUTS
100
AcDbCircle
 10
140.5
 20
389.64403745663765
 30
0.0
 40
5.0
  0
CIRCLE
  5
A3
330
17
100
AcDbEntity
  8
CUTS
100
AcDbCircle
 10
157.5
 20
389.64403745663765
 30
0.0
 40
5.0
  0
TEXT
  5
A4
330
17
100
AcDbEntity
  8
ENGRAVE
100
AcDbText
 10
143.0
 20
402.3664693209731
 30
0.0
 40
2.0
  1
W2
 11
143.0
 21
402.3664693209731
 31
0.0
100
AcDbText
  0
CIRCLE
  5
A5
330
17
100
AcDbEntity
  8
CUTS
100
AcDbCircle
 10
217.0
 20
404.3664693209731
 30
0.0
 40
30.0
  0
CIRCLE
  5
A6
330
17
100
AcDbEntity
  8
CUTS
100
AcDbCircle
 10
217.0
 20
404.3664693209731
 30
0.0
 40
1.6
  0
CIRCLE
  5
A7
330
17
100
AcDbEntity
  8
ENGRAVE
100
AcDbCircle
 10
217.0
 20
404.3664693209731
 30
0.0
 40
27.0
  0
CIRCLE
  5
A8
330
17
100
AcDbEntity
  8
CUTS
100
AcDbCircle
 10
234.0
 20
404.3664693209731
 30
0.0
 40
5.0
  0
CIRCLE
  5
A9
330
17
100
AcDbEntity
  8
CUTS
100
AcDbCircle
 10
225.5
 20
419.0889011853086
 30
0.0
 40
5.0
  0
CIRCLE
  5
AA
330
17
100
AcDbEntity
  8
CUTS
100
AcDbCircle
 10
208.5
 20
419.0889011853086
 30
0.0
 40
5.0
  0
CIRCLE
  5
AB
330
17
100
AcDbEntity
  8
CUTS
100
AcDbCircle
 10
200.0
 20
404.3664693209731
 30
0.0
 40
5.0
  0
CIRCLE
  5
AC
330
17
100
AcDbEntity
  8
CUTS
100
AcDbCircle
 10
208.5
 20
389.64403745663765
 30
0.0
 40
5.0
  0
CIRCLE
  5
AD
330
17
100
AcDbEntity
  8
CUTS
100
AcDbCircle
 10
225.5
 20
389.64403745663765
 30
0.0
 40
5.0
  0
TEXT
  5
AE
330
17
100
AcDbEntity
  8
ENGRAVE
100
AcDbText
 10
211.0
 20
402.3664693209731
 30
0.0
 40
2.0
  1
W3
 11
211.0
 21
402.3664693209731
 31
0.0
100
AcDbText
  0
CIRCLE
  5
AF
330
17
100
AcDbEntity
  8
CUTS
100
AcDbCircle
 10
285.0
 20
404.3664693209731
 30
0.0
 40
30.0
  0
CIRCLE
  5
B0
330
17
100
AcDbEntity
  8
CUTS
100
AcDbCircle
 10
285.0
 20
404.3664693209731
 30
0.0
 40
1.6
  0
CIRCLE
  5
B1
330
17
100
AcDbEntity
  8
ENGRAVE
100
AcDbCircle
 10
285.0
 20
404.3664693209731
 30
0.0
 40
27.0
  0
CIRCLE
  5
B2
330
17
100
AcDbEntity
  8
CUTS
100
AcDbCircle
 10
302.0
 20
404.3664693209731
 30
0.0
 40
5.0
  0
CIRCLE
  5
B3
330
17
100
AcDbEntity
  8
CUTS
100
AcDbCircle
 10
293.5
 20
419.0889011853086
 30
0.0
 40
5.0
  0
CIRCLE
  5
B4
330
17
100
AcDbEntity
  8
CUTS
100
AcDbCircle
 10
276.5
 20
419.0889011853086
 30
0.0
 40
5.0
  0
CIRCLE
  5
B5
330
17
100
AcDbEntity
  8
CUTS
100
AcDbCircle
 10
268.0
 20
404.3664693209731
 30
0.0
 40
5.0
  0
CIRCLE
  5
B6
330
17
100
AcDbEntity
  8
CUTS
100
AcDbCircle
 10
276.5
 20
389.64403745663765
 30
0.0
 40
5.0
  0
CIRCLE
  5
B7
330
17
100
AcDbEntity
  8
CUTS
100
AcDbCircle
 10
293.5
 20
389.64403745663765
 30
0.0
 40
5.0
  0
TEXT
  5
B8
330
17
100
AcDbEntity
  8
ENGRAVE
100
AcDbText
 10
279.0
 20
402.3664693209731
 30
0.0
 40
2.0
  1
W4
 11
279.0
 21
402.3664693209731
 31
0.0
100
AcDbText
  0
LWPOLYLINE
  5
B9
330
17
100
AcDbEntity
  8
CUTS
100
AcDbPolyline
 90
8
 70
1
 10
46.0
 20
354.3664693209731
 10
126.0
 20
354.3664693209731
 10
126.0
 20
314.3664693209731
 10
91.0
 20
314.3664693209731
 10
91.0
 20
311.3664693209731
 10
81.0
 20
311.3664693209731
 10
81.0
 20
314.3664693209731
 10
46.0
 20
314.3664693209731
  0
LWPOLYLINE
  5
BA
330
17
100
AcDbEntity
  8
CUTS
100
AcDbPolyline
 90
4
 70
1
 10
74.0
 20
324.3664693209731
 10
98.0
 20
324.3664693209731
 10
98.0
 20
344.3664693209731
 10
74.0
 20
344.3664693209731
  0
CIRCLE
  5
BB
330
17
100
AcDbEntity
  8
CUTS
100
AcDbCircle
 10
58.0
 20
334.3664693209731
 30
0.0
 40
1.6
  0
CIRCLE
  5
BC
330
17
100
AcDbEntity
  8
CUTS
100
AcDbCircle
 10
114.0
 20
334.3664693209731
 30
0.0
 40
1.6
  0
TEXT
  5
BD
330
17
100
AcDbEntity
  8
ENGRAVE
100
AcDbText
 10
51.0
 20
346.3664693209731
 30
0.0
 40
3.0
  1
M7 TT MOUNT
 11
51.0
 21
346.3664693209731
 31
0.0
100
AcDbText
  0
LWPOLYLINE
  5
BE
330
17
100
AcDbEntity
  8
CUTS
100
AcDbPolyline
 90
60
 70
1
 10
157.99040127993175
 20
333.8865973107335
 10
158.0
 20
334.3664693209731
 10
157.99040127993175
 20
334.8463413312127
 10
153.2198986728511
 20
336.3970020475656
 10
153.13292387221367
 20
336.68409677878526
 10
153.03453791498995
 20
336.96748380047313
 10
155.98250009544668
 20
341.02602575097706
 10
155.70820393249937
 20
341.4198923484828
 10
155.4183767142331
 20
341.8024749737945
 10
150.64750353301338
 20
340.2529547673688
 10
150.40838939219356
 20
340.43409677878526
 10
150.16222276875249
 20
340.60553188062727
 10
150.16162316720005
 20
345.621729984957
 10
149.70820393249937
 20
345.77914751651497
 10
149.248852362548
 20
345.9183071975349
 10
146.29992000639976
 20
341.8604701209305
 10
146.0
 20
341.8664693209731
 10
145.70007999360024
 20
341.8604701209305
 10
142.751147637452
 20
345.9183071975349
 10
142.29179606750063
 20
345.77914751651497
 10
141.83837683279995
 20
345.621729984957
 10
141.83777723124751
 20
340.60553188062727
 10
141.59161060780644
 20
340.43409677878526
 10
141.35249646698662
 20
340.2529547673688
 10
136.5816232857669
 20
341.8024749737945
 10
136.29179606750063
 20
341.4198923484828
 10
136.01749990455332
 20
341.02602575097706
 10
138.96546208501005
 20
336.96748380047313
 10
138.86707612778633
 20
336.68409677878526
 10
138.7801013271489
 20
336.3970020475656
 10
134.00959872006825
 20
334.8463413312127
 10
134.0
 20
334.3664693209731
 10
134.00959872006825
 20
333.8865973107335
 10
138.7801013271489
 20
332.33593659438066
 10
138.86707612778633
 20
332.048841863161
 10
138.96546208501005
 20
331.7654548414731
 10
136.01749990455332
 20
327.7069128909692
 10
136.29179606750063
 20
327.31304629346346
 10
136.58162328576688
 20
326.93046366815173
 10
141.35249646698662
 20
328.47998387457744
 10
141.59161060780644
 20
328.298841863161
 10
141.83777723124751
 20
328.127406761319
 10
141.83837683279995
 20
323.1112086569892
 10
142.29179606750063
 20
322.9537911254313
 10
142.751147637452
 20
322.81463144441136
 10
145.70007999360024
 20
326.8724685210158
 10
146.0
 20
326.8664693209731
 10
146.29992000639976
 20
326.8724685210158
 10
149.248852362548
 20
322.81463144441136
 10
149.70820393249937
 20
322.9537911254313
 10
150.16162316720005
 20
323.1112086569892
 10
150.16222276875249
 20
328.127406761319
 10
150.40838939219356
 20
328.298841863161
 10
150.64750353301338
 20
328.47998387457744
 10
155.4183767142331
 20
326.93046366815173
 10
155.70820393249937
 20
327.31304629346346
 10
155.98250009544668
 20
327.7069128909692
 10
153.03453791498995
 20
331.7654548414731
 10
153.13292387221367
 20
332.048841863161
 10
153.2198986728511
 20
332.33593659438066
  0
CIRCLE
  5
BF
330
17
100
AcDbEntity
  8
CUTS
100
AcDbCircle
 10
146.0
 20
334.3664693209731
 30
0.0
 40
2.9
  0
TEXT
  5
C0
330
17
100
AcDbEntity
  8
ENGRAVE
100
AcDbText
 10
140.0
 20
332.3664693209731
 30
0.0
 40
2.0
  1
SM
 11
140.0
 21
332.3664693209731
 31
0.0
100
AcDbText
  0
LWPOLYLINE
  5
C1
330
17
100
AcDbEntity
  8
CUTS
100
AcDbPolyline
 90
180
 70
1
 10
229.9971555976952
 20
333.9398152961694
 10
230.0
 20
334.3664693209731
 10
229.9971555976952
 20
334.79312334577685
 10
225.38524707271125
 20
336.87609932688224
 10
225.34935212262752
 20
337.2410020608336
 10
225.30859513753055
 20
337.6053937743131
 10
229.38664733788298
 20
340.6017214319437
 10
229.30072322348178
 20
341.01964342714143
 10
229.2092346185007
 20
341.43638265335403
 10
224.26503230181945
 20
342.51497091233216
 10
224.1540541981167
 20
342.8644366662842
 10
224.03842655366148
 20
343.21239169286724
 10
227.40439197956144
 20
346.99111713040935
 10
227.23345464456324
 20
347.3820418993987
 10
227.05732032795456
 20
347.7706528230981
 10
221.99690958572995
 20
347.79771387739095
 10
221.81569860407205
 20
348.1164693209731
 10
221.63025378316422
 20
348.43278035632466
 10
224.13702359380576
 20
352.8287551398212
 10
223.88854381999832
 20
353.17559739433227
 10
223.63546170658407
 20
353.5190958533906
 10
218.68000677079615
 20
352.4934470050722
 10
218.43648270062835
 20
352.76756099584173
 10
218.18932553180457
 20
353.0384037298881
 10
219.72734185764654
 20
357.859502667073
 10
219.41217940348346
 20
358.14710373624973
 10
219.09321039604254
 20
358.43047719971776
 10
214.45928842629627
 20
356.3969442250688
 10
214.164094438043
 20
356.6144366662842
 10
213.8660268755726
 20
356.82797397189995
 10
214.36807102295452
 20
361.8634919050188
 10
214.0
 20
362.0792822420751
 10
213.62908457474072
 20
362.29014592982253
 10
209.51922019713868
 20
359.33760397780907
 10
209.1852576845845
 20
359.48896940614463
 10
208.84930671123425
 20
359.63586867840877
 10
208.29343694184044
 20
364.6657293106883
 10
207.88854381999832
 20
364.80027784241804
 10
207.48189276085415
 20
364.9294159994539
 10
204.07570677001488
 20
361.1869053212472
 10
203.7175714974884
 20
361.2655283411528
 10
203.35841978286533
 20
361.3393693769663
 10
201.7689302729774
 20
366.14374366282686
 10
201.34491082456492
 20
366.19116997275785
 10
200.92029673414876
 20
366.23293864194625
 10
198.3666558025657
 20
361.8640249127425
 10
198.0
 20
361.8664693209731
 10
197.6333441974343
 20
361.8640249127425
 10
195.07970326585124
 20
366.23293864194625
 10
194.65508917543508
 20
366.19116997275785
 10
194.23106972702263
 20
366.14374366282686
 10
192.64158021713467
 20
361.3393693769663
 10
192.28242850251164
 20
361.2655283411528
 10
191.92429322998512
 20
361.1869053212472
 10
188.51810723914585
 20
364.9294159994539
 10
188.11145618000168
 20
364.80027784241804
 10
187.70656305815956
 20
364.6657293106883
 10
187.15069328876575
 20
359.63586867840877
 10
186.8147423154155
 20
359.48896940614463
 10
186.48077980286135
 20
359.33760397780907
 10
182.37091542525928
 20
362.29014592982253
 10
182.0
 20
362.0792822420752
 10
181.6319289770455
 20
361.8634919050188
 10
182.1339731244274
 20
356.82797397189995
 10
181.835905561957
 20
356.6144366662842
 10
181.54071157370373
 20
356.3969442250688
 10
176.90678960395746
 20
358.43047719971776
 10
176.58782059651654
 20
358.14710373624973
 10
176.27265814235346
 20
357.859502667073
 10
177.81067446819543
 20
353.0384037298881
 10
177.56351729937165
 20
352.76756099584173
 10
177.31999322920385
 20
352.4934470050722
 10
172.36453829341593
 20
353.5190958533906
 10
172.11145618000168
 20
353.17559739433227
 10
171.86297640619424
 20
352.8287551398213
 10
174.36974621683578
 20
348.43278035632466
 10
174.18430139592795
 20
348.1164693209731
 10
174.00309041427008
 20
347.79771387739095
 10
168.94267967204547
 20
347.7706528230981
 10
168.7665453554368
 20
347.38204189939876
 10
168.59560802043856
 20
346.99111713040935
 10
171.96157344633852
 20
343.21239169286724
 10
171.84594580188326
 20
342.8644366662842
 10
171.73496769818055
 20
342.51497091233216
 10
166.7907653814993
 20
341.4363826533541
 10
166.69927677651822
 20
341.01964342714143
 10
166.61335266211702
 20
340.6017214319437
 10
170.69140486246948
 20
337.6053937743131
 10
170.65064787737248
 20
337.2410020608336
 10
170.61475292728875
 20
336.87609932688224
 10
166.0028444023048
 20
334.79312334577685
 10
166.0
 20
334.3664693209731
 10
166.0028444023048
 20
333.9398152961694
 10
170.61475292728875
 20
331.856839315064
 10
170.65064787737248
 20
331.49193658111267
 10
170.69140486246945
 20
331.1275448676332
 10
166.613352662117
 20
328.13121721000255
 10
166.69927677651822
 20
327.7132952148048
 10
166.79076538149928
 20
327.2965559885922
 10
171.73496769818055
 20
326.2179677296141
 10
171.84594580188326
 20
325.86850197566207
 10
171.96157344633852
 20
325.520546949079
 10
168.59560802043856
 20
321.7418215115369
 10
168.76654535543676
 20
321.35089674254755
 10
168.94267967204544
 20
320.96228581884816
 10
174.00309041427005
 20
320.9352247645553
 10
174.18430139592795
 20
320.6164693209731
 10
174.36974621683575
 20
320.3001582856216
 10
171.8629764061942
 20
315.904183502125
 10
172.11145618000168
 20
315.557341247614
 10
172.36453829341593
 20
315.21384278855567
 10
177.31999322920385
 20
316.23949163687405
 10
177.56351729937165
 20
315.9653776461045
 10
177.81067446819543
 20
315.69453491205815
 10
176.27265814235346
 20
310.87343597487325
 10
176.58782059651654
 20
310.5858349056965
 10
176.90678960395744
 20
310.3024614422285
 10
181.5407115737037
 20
312.3359944168775
 10
181.835905561957
 20
312.11850197566207
 10
182.1339731244274
 20
311.9049646700463
 10
181.63192897704545
 20
306.8694467369275
 10
182.0
 20
306.6536563998711
 10
182.37091542525928
 20
306.4427927121237
 10
186.48077980286132
 20
309.3953346641372
 10
186.8147423154155
 20
309.2439692358016
 10
187.15069328876572
 20
309.0970699635375
 10
187.70656305815953
 20
304.06720933125797
 10
188.11145618000168
 20
303.9326607995282
 10
188.51810723914585
 20
303.80352264249234
 10
191.92429322998512
 20
307.54603332069905
 10
192.2824285025116
 20
307.46741030079346
 10
192.64158021713467
 20
307.39356926497993
 10
194.23106972702257
 20
302.5891949791194
 10
194.65508917543505
 20
302.5417686691884
 10
195.0797032658512
 20
302.5
 10
197.63334419743427
 20
306.86891372920377
 10
197.99999999999997
 20
306.8664693209731
 10
198.36665580256567
 20
306.86891372920377
 10
200.92029673414874
 20
302.5
 10
201.3449108245649
 20
302.5417686691884
 10
201.76893027297737
 20
302.5891949791194
 10
203.3584197828653
 20
307.39356926497993
 10
203.71757149748836
 20
307.46741030079346
 10
204.07570677001485
 20
307.54603332069905
 10
207.48189276085415
 20
303.80352264249234
 10
207.88854381999832
 20
303.9326607995282
 10
208.29343694184044
 20
304.06720933125797
 10
208.84930671123425
 20
309.0970699635375
 10
209.18525768458449
 20
309.2439692358016
 10
209.51922019713865
 20
309.3953346641372
 10
213.6290845747407
 20
306.4427927121237
 10
213.99999999999997
 20
306.65365639987107
 10
214.3680710229545
 20
306.86944673692744
 10
213.86602687557257
 20
311.9049646700463
 10
214.16409443804298
 20
312.11850197566207
 10
214.45928842629627
 20
312.33599441687744
 10
219.09321039604254
 20
310.3024614422285
 10
219.41217940348344
 20
310.5858349056965
 10
219.72734185764654
 20
310.87343597487325
 10
218.18932553180457
 20
315.6945349120581
 10
218.43648270062832
 20
315.9653776461045
 10
218.68000677079615
 20
316.23949163687405
 10
223.63546170658404
 20
315.2138427885556
 10
223.88854381999832
 20
315.557341247614
 10
224.13702359380576
 20
315.904183502125
 10
221.63025378316422
 20
320.3001582856216
 10
221.81569860407205
 20
320.6164693209731
 10
221.99690958572992
 20
320.9352247645553
 10
227.05732032795453
 20
320.9622858188481
 10
227.2334546445632
 20
321.3508967425475
 10
227.40439197956144
 20
321.7418215115369
 10
224.03842655366145
 20
325.52054694907895
 10
224.1540541981167
 20
325.86850197566207
 10
224.26503230181945
 20
326.2179677296141
 10
229.2092346185007
 20
327.29655598859216
 10
229.30072322348178
 20
327.7132952148048
 10
229.38664733788298
 20
328.13121721000255
 10
225.30859513753055
 20
331.12754486763316
 10
225.34935212262752
 20
331.4919365811126
 10
225.38524707271125
 20
331.856839315064
  0
CIRCLE
  5
C2
330
17
100
AcDbEntity
  8
CUTS
100
AcDbCircle
 10
198.0
 20
334.3664693209731
 30
0.0
 40
1.6
  0
TEXT
  5
C3
330
17
100
AcDbEntity
  8
ENGRAVE
100
AcDbText
 10
192.0
 20
332.3664693209731
 30
0.0
 40
2.0
  1
LG
 11
192.0
 21
332.3664693209731
 31
0.0
100
AcDbText
  0
ENDSEC
  0
SECTION
  2
OBJECTS
  0
DICTIONARY
  5
A
330
0
100
AcDbDictionary
281
1
  3
ACAD_COLOR
350
B
  3
ACAD_GROUP
350
C
  3
ACAD_LAYOUT
350
D
  3
ACAD_MATERIAL
350
E
  3
ACAD_MLEADERSTYLE
350
F
  3
ACAD_MLINESTYLE
350
10
  3
ACAD_PLOTSETTINGS
350
11
  3
ACAD_PLOTSTYLENAME
350
12
  3
ACAD_SCALELIST
350
14
  3
ACAD_TABLESTYLE
350
15
  3
ACAD_VISUALSTYLE
350
16
  3
EZDXF_META
350
2D
  0
DICTIONARY
  5
B
330
A
100
AcDbDictionary
281
1
  0
DICTIONARY
  5
C
330
A
100
AcDbDictionary
281
1
  0
DICTIONARY
  5
D
330
A
100
AcDbDictionary
281
1
  3
Model
350
1A
  3
Layout1
350
1E
  0
DICTIONARY
  5
E
330
A
100
AcDbDictionary
281
1
  3
ByBlock
350
1F
  3
ByLayer
350
20
  3
Global
350
21
  0
DICTIONARY
  5
F
330
A
100
AcDbDictionary
281
1
  3
Standard
350
2C
  0
DICTIONARY
  5
10
330
A
100
AcDbDictionary
281
1
  3
Standard
350
22
  0
DICTIONARY
  5
11
330
A
100
AcDbDictionary
281
1
  0
ACDBDICTIONARYWDFLT
  5
12
330
A
100
AcDbDictionary
281
1
  3
Normal
350
13
100
AcDbDictionaryWithDefault
340
13
  0
ACDBPLACEHOLDER
  5
13
330
12
  0
DICTIONARY
  5
14
330
A
100
AcDbDictionary
281
1
  0
DICTIONARY
  5
15
330
A
100
AcDbDictionary
281
1
  0
DICTIONARY
  5
16
330
A
100
AcDbDictionary
281
1
  0
LAYOUT
  5
1A
330
D
100
AcDbPlotSettings
  1

  4
A3
  6

 40
7.5
 41
20.0
 42
7.5
 43
20.0
 44
420.0
 45
297.0
 46
0.0
 47
0.0
 48
0.0
 49
0.0
140
0.0
141
0.0
142
1.0
143
1.0
 70
1024
 72
1
 73
0
 74
5
  7

 75
16
 76
0
 77
2
 78
300
147
1.0
148
0.0
149
0.0
100
AcDbLayout
  1
Model
 70
1
 71
0
 10
0.0
 20
0.0
 11
420.0
 21
297.0
 12
0.0
 22
0.0
 32
0.0
 14
1e+20
 24
1e+20
 34
1e+20
 15
-1e+20
 25
-1e+20
 35
-1e+20
146
0.0
 13
0.0
 23
0.0
 33
0.0
 16
1.0
 26
0.0
 36
0.0
 17
0.0
 27
1.0
 37
0.0
 76
1
330
17
  0
LAYOUT
  5
1E
330
D
100
AcDbPlotSettings
  1

  4
A3
  6

 40
7.5
 41
20.0
 42
7.5
 43
20.0
 44
420.0
 45
297.0
 46
0.0
 47
0.0
 48
0.0
 49
0.0
140
0.0
141
0.0
142
1.0
143
1.0
 70
0
 72
1
 73
0
 74
5
  7

 75
16
 76
0
 77
2
 78
300
147
1.0
148
0.0
149
0.0
100
AcDbLayout
  1
Layout1
 70
1
 71
1
 10
0.0
 20
0.0
 11
420.0
 21
297.0
 12
0.0
 22
0.0
 32
0.0
 14
1e+20
 24
1e+20
 34
1e+20
 15
-1e+20
 25
-1e+20
 35
-1e+20
146
0.0
 13
0.0
 23
0.0
 33
0.0
 16
1.0
 26
0.0
 36
0.0
 17
0.0
 27
1.0
 37
0.0
 76
1
330
1B
  0
MATERIAL
  5
1F
102
{ACAD_REACTORS
330
E
102
}
330
E
100
AcDbMaterial
  1
ByBlock
  2

 70
0
 40
1.0
 71
1
 41
1.0
 91
-1023410177
 42
1.0
 72
1
  3

 73
1
 74
1
 75
1
 44
0.5
 73
0
 45
1.0
 46
1.0
 77
1
  4

 78
1
 79
1
170
1
 48
1.0
171
1
  6

172
1
173
1
174
1
140
1.0
141
1.0
175
1
  7

176
1
177
1
178
1
143
1.0
179
1
  8

270
1
271
1
272
1
145
1.0
146
1.0
273
1
  9

274
1
275
1
276
1
 42
1.0
 72
1
  3

 73
1
 74
1
 75
1
 94
63
  0
MATERIAL
  5
20
102
{ACAD_REACTORS
330
E
102
}
330
E
100
AcDbMaterial
  1
ByLayer
  2

 70
0
 40
1.0
 71
1
 41
1.0
 91
-1023410177
 42
1.0
 72
1
  3

 73
1
 74
1
 75
1
 44
0.5
 73
0
 45
1.0
 46
1.0
 77
1
  4

 78
1
 79
1
170
1
 48
1.0
171
1
  6

172
1
173
1
174
1
140
1.0
141
1.0
175
1
  7

176
1
177
1
178
1
143
1.0
179
1
  8

270
1
271
1
272
1
145
1.0
146
1.0
273
1
  9

274
1
275
1
276
1
 42
1.0
 72
1
  3

 73
1
 74
1
 75
1
 94
63
  0
MATERIAL
  5
21
102
{ACAD_REACTORS
330
E
102
}
330
E
100
AcDbMaterial
  1
Global
  2

 70
0
 40
1.0
 71
1
 41
1.0
 91
-1023410177
 42
1.0
 72
1
  3

 73
1
 74
1
 75
1
 44
0.5
 73
0
 45
1.0
 46
1.0
 77
1
  4

 78
1
 79
1
170
1
 48
1.0
171
1
  6

172
1
173
1
174
1
140
1.0
141
1.0
175
1
  7

176
1
177
1
178
1
143
1.0
179
1
  8

270
1
271
1
272
1
145
1.0
146
1.0
273
1
  9

274
1
275
1
276
1
 42
1.0
 72
1
  3

 73
1
 74
1
 75
1
 94
63
  0
MLINESTYLE
  5
22
102
{ACAD_REACTORS
330
10
102
}
330
10
100
AcDbMlineStyle
  2
Standard
 70
0
  3

 62
256
 51
90.0
 52
90.0
 71
2
 49
0.5
 62
256
  6
BYLAYER
 49
-0.5
 62
256
  6
BYLAYER
  0
MLEADERSTYLE
  5
2C
102
{ACAD_REACTORS
330
F
102
}
330
F
100
AcDbMLeaderStyle
179
2
170
2
171
1
172
0
 90
2
 40
0.0
 41
0.0
173
1
 91
-1056964608
 92
-2
290
1
 42
2.0
291
1
 43
8.0
  3
Standard
 44
4.0
300

342
29
174
1
175
1
176
0
178
1
 93
-1056964608
 45
4.0
292
0
297
0
 46
4.0
 94
-1056964608
 47
1.0
 49
1.0
140
1.0
294
1
141
0.0
177
0
142
1.0
295
0
296
0
143
3.75
271
0
272
9
273
9
  0
DICTIONARY
  5
2D
330
A
100
AcDbDictionary
280
1
281
1
  3
CREATED_BY_EZDXF
350
2E
  3
WRITTEN_BY_EZDXF
350
C6
  0
DICTIONARYVAR
  5
2E
330
2D
100
DictionaryVariables
280
0
  1
1.4.3 @ 2026-03-26T11:16:34.689753+00:00
  0
DICTIONARYVAR
  5
C6
330
2D
100
DictionaryVariables
280
0
  1
1.4.3 @ 2026-03-26T11:16:34.692835+00:00
  0
ENDSEC
  0
EOF
