  0
SECTION
  2
HEADER
  9
$ACADVER
  1
AC1024
  9
$ACADMAINTVER
 70
6
  9
$DWGCODEPAGE
  3
ANSI_1252
  9
$LASTSAVEDBY
  1
ezdxf
  9
$INSBASE
 10
0.0
 20
0.0
 30
0.0
  9
$EXTMIN
 10
1e+20
 20
1e+20
 30
1e+20
  9
$EXTMAX
 10
-1e+20
 20
-1e+20
 30
-1e+20
  9
$LIMMIN
 10
0.0
 20
0.0
  9
$LIMMAX
 10
420.0
 20
297.0
  9
$ORTHOMODE
 70
0
  9
$REGENMODE
 70
1
  9
$FILLMODE
 70
1
  9
$QTEXTMODE
 70
0
  9
$MIRRTEXT
 70
1
  9
$LTSCALE
 40
1.0
  9
$ATTMODE
 70
1
  9
$TEXTSIZE
 40
2.5
  9
$TRACEWID
 40
1.0
  9
$TEXTSTYLE
  7
Standard
  9
$CLAYER
  8
0
  9
$CELTYPE
  6
ByLayer
  9
$CECOLOR
 62
256
  9
$CELTSCALE
 40
1.0
  9
$DISPSILH
 70
0
  9
$DIMSCALE
 40
1.0
  9
$DIMASZ
 40
2.5
  9
$DIMEXO
 40
0.625
  9
$DIMDLI
 40
3.75
  9
$DIMRND
 40
0.0
  9
$DIMDLE
 40
0.0
  9
$DIMEXE
 40
1.25
  9
$DIMTP
 40
0.0
  9
$DIMTM
 40
0.0
  9
$DIMTXT
 40
2.5
  9
$DIMCEN
 40
2.5
  9
$DIMTSZ
 40
0.0
  9
$DIMTOL
 70
0
  9
$DIMLIM
 70
0
  9
$DIMTIH
 70
0
  9
$DIMTOH
 70
0
  9
$DIMSE1
 70
0
  9
$DIMSE2
 70
0
  9
$DIMTAD
 70
1
  9
$DIMZIN
 70
8
  9
$DIMBLK
  1

  9
$DIMASO
 70
1
  9
$DIMSHO
 70
1
  9
$DIMPOST
  1

  9
$DIMAPOST
  1

  9
$DIMALT
 70
0
  9
$DIMALTD
 70
3
  9
$DIMALTF
 40
0.03937007874
  9
$DIMLFAC
 40
1.0
  9
$DIMTOFL
 70
1
  9
$DIMTVP
 40
0.0
  9
$DIMTIX
 70
0
  9
$DIMSOXD
 70
0
  9
$DIMSAH
 70
0
  9
$DIMBLK1
  1

  9
$DIMBLK2
  1

  9
$DIMSTYLE
  2
ISO-25
  9
$DIMCLRD
 70
0
  9
$DIMCLRE
 70
0
  9
$DIMCLRT
 70
0
  9
$DIMTFAC
 40
1.0
  9
$DIMGAP
 40
0.625
  9
$DIMJUST
 70
0
  9
$DIMSD1
 70
0
  9
$DIMSD2
 70
0
  9
$DIMTOLJ
 70
0
  9
$DIMTZIN
 70
8
  9
$DIMALTZ
 70
0
  9
$DIMALTTZ
 70
0
  9
$DIMUPT
 70
0
  9
$DIMDEC
 70
2
  9
$DIMTDEC
 70
2
  9
$DIMALTU
 70
2
  9
$DIMALTTD
 70
3
  9
$DIMTXSTY
  7
Standard
  9
$DIMAUNIT
 70
0
  9
$DIMADEC
 70
0
  9
$DIMALTRND
 40
0.0
  9
$DIMAZIN
 70
0
  9
$DIMDSEP
 70
44
  9
$DIMATFIT
 70
3
  9
$DIMFRAC
 70
0
  9
$DIMLDRBLK
  1

  9
$DIMLUNIT
 70
2
  9
$DIMLWD
 70
-2
  9
$DIMLWE
 70
-2
  9
$DIMTMOVE
 70
0
  9
$DIMFXL
 40
1.0
  9
$DIMFXLON
 70
0
  9
$DIMJOGANG
 40
0.785398163397
  9
$DIMTFILL
 70
0
  9
$DIMTFILLCLR
 70
0
  9
$DIMARCSYM
 70
0
  9
$DIMLTYPE
  6

  9
$DIMLTEX1
  6

  9
$DIMLTEX2
  6

  9
$DIMTXTDIRECTION
 70
0
  9
$LUNITS
 70
2
  9
$LUPREC
 70
4
  9
$SKETCHINC
 40
1.0
  9
$FILLETRAD
 40
10.0
  9
$AUNITS
 70
0
  9
$AUPREC
 70
2
  9
$MENU
  1
.
  9
$ELEVATION
 40
0.0
  9
$PELEVATION
 40
0.0
  9
$THICKNESS
 40
0.0
  9
$LIMCHECK
 70
0
  9
$CHAMFERA
 40
0.0
  9
$CHAMFERB
 40
0.0
  9
$CHAMFERC
 40
0.0
  9
$CHAMFERD
 40
0.0
  9
$SKPOLY
 70
0
  9
$TDCREATE
 40
2461119.9741319446
  9
$TDUCREATE
 40
2458532.153996898
  9
$TDUPDATE
 40
2461119.9741319446
  9
$TDUUPDATE
 40
2458532.1544311
  9
$TDINDWG
 40
0.0
  9
$TDUSRTIMER
 40
0.0
  9
$USRTIMER
 70
1
  9
$ANGBASE
 50
0.0
  9
$ANGDIR
 70
0
  9
$PDMODE
 70
0
  9
$PDSIZE
 40
0.0
  9
$PLINEWID
 40
0.0
  9
$SPLFRAME
 70
0
  9
$SPLINETYPE
 70
6
  9
$SPLINESEGS
 70
8
  9
$HANDSEED
  5
AB
  9
$SURFTAB1
 70
6
  9
$SURFTAB2
 70
6
  9
$SURFTYPE
 70
6
  9
$SURFU
 70
6
  9
$SURFV
 70
6
  9
$UCSBASE
  2

  9
$UCSNAME
  2

  9
$UCSORG
 10
0.0
 20
0.0
 30
0.0
  9
$UCSXDIR
 10
1.0
 20
0.0
 30
0.0
  9
$UCSYDIR
 10
0.0
 20
1.0
 30
0.0
  9
$UCSORTHOREF
  2

  9
$UCSORTHOVIEW
 70
0
  9
$UCSORGTOP
 10
0.0
 20
0.0
 30
0.0
  9
$UCSORGBOTTOM
 10
0.0
 20
0.0
 30
0.0
  9
$UCSORGLEFT
 10
0.0
 20
0.0
 30
0.0
  9
$UCSORGRIGHT
 10
0.0
 20
0.0
 30
0.0
  9
$UCSORGFRONT
 10
0.0
 20
0.0
 30
0.0
  9
$UCSORGBACK
 10
0.0
 20
0.0
 30
0.0
  9
$PUCSBASE
  2

  9
$PUCSNAME
  2

  9
$PUCSORG
 10
0.0
 20
0.0
 30
0.0
  9
$PUCSXDIR
 10
1.0
 20
0.0
 30
0.0
  9
$PUCSYDIR
 10
0.0
 20
1.0
 30
0.0
  9
$PUCSORTHOREF
  2

  9
$PUCSORTHOVIEW
 70
0
  9
$PUCSORGTOP
 10
0.0
 20
0.0
 30
0.0
  9
$PUCSORGBOTTOM
 10
0.0
 20
0.0
 30
0.0
  9
$PUCSORGLEFT
 10
0.0
 20
0.0
 30
0.0
  9
$PUCSORGRIGHT
 10
0.0
 20
0.0
 30
0.0
  9
$PUCSORGFRONT
 10
0.0
 20
0.0
 30
0.0
  9
$PUCSORGBACK
 10
0.0
 20
0.0
 30
0.0
  9
$USERI1
 70
0
  9
$USERI2
 70
0
  9
$USERI3
 70
0
  9
$USERI4
 70
0
  9
$USERI5
 70
0
  9
$USERR1
 40
0.0
  9
$USERR2
 40
0.0
  9
$USERR3
 40
0.0
  9
$USERR4
 40
0.0
  9
$USERR5
 40
0.0
  9
$WORLDVIEW
 70
1
  9
$SHADEDGE
 70
3
  9
$SHADEDIF
 70
70
  9
$TILEMODE
 70
1
  9
$MAXACTVP
 70
64
  9
$PINSBASE
 10
0.0
 20
0.0
 30
0.0
  9
$PLIMCHECK
 70
0
  9
$PEXTMIN
 10
1e+20
 20
1e+20
 30
1e+20
  9
$PEXTMAX
 10
-1e+20
 20
-1e+20
 30
-1e+20
  9
$PLIMMIN
 10
0.0
 20
0.0
  9
$PLIMMAX
 10
420.0
 20
297.0
  9
$UNITMODE
 70
0
  9
$VISRETAIN
 70
1
  9
$PLINEGEN
 70
0
  9
$PSLTSCALE
 70
1
  9
$TREEDEPTH
 70
3020
  9
$CMLSTYLE
  2
Standard
  9
$CMLJUST
 70
0
  9
$CMLSCALE
 40
20.0
  9
$PROXYGRAPHICS
 70
1
  9
$MEASUREMENT
 70
1
  9
$CELWEIGHT
370
-1
  9
$ENDCAPS
280
0
  9
$JOINSTYLE
280
0
  9
$LWDISPLAY
290
0
  9
$INSUNITS
 70
6
  9
$HYPERLINKBASE
  1

  9
$STYLESHEET
  1

  9
$XEDIT
290
1
  9
$CEPSNTYPE
380
0
  9
$PSTYLEMODE
290
1
  9
$FINGERPRINTGUID
  2
{61B95251-16D0-40CF-BE43-7B057768BF5B}
  9
$VERSIONGUID
  2
{C893919B-634E-4D0E-900E-D541E5701C40}
  9
$EXTNAMES
290
1
  9
$PSVPSCALE
 40
0.0
  9
$OLESTARTUP
290
0
  9
$SORTENTS
280
127
  9
$INDEXCTL
280
0
  9
$HIDETEXT
280
1
  9
$XCLIPFRAME
280
1
  9
$HALOGAP
280
0
  9
$OBSCOLOR
 70
257
  9
$OBSLTYPE
280
0
  9
$INTERSECTIONDISPLAY
280
0
  9
$INTERSECTIONCOLOR
 70
257
  9
$DIMASSOC
280
2
  9
$PROJECTNAME
  1

  9
$CAMERADISPLAY
290
0
  9
$LENSLENGTH
 40
50.0
  9
$CAMERAHEIGHT
 40
0.0
  9
$STEPSPERSEC
 40
24.0
  9
$STEPSIZE
 40
100.0
  9
$3DDWFPREC
 40
2.0
  9
$PSOLWIDTH
 40
0.005
  9
$PSOLHEIGHT
 40
0.08
  9
$LOFTANG1
 40
1.570796326795
  9
$LOFTANG2
 40
1.570796326795
  9
$LOFTMAG1
 40
0.0
  9
$LOFTMAG2
 40
0.0
  9
$LOFTPARAM
 70
7
  9
$LOFTNORMALS
280
1
  9
$LATITUDE
 40
37.795
  9
$LONGITUDE
 40
-122.394
  9
$NORTHDIRECTION
 40
0.0
  9
$TIMEZONE
 70
-8000
  9
$LIGHTGLYPHDISPLAY
280
1
  9
$TILEMODELIGHTSYNCH
280
1
  9
$CMATERIAL
347
20
  9
$SOLIDHIST
280
0
  9
$SHOWHIST
280
1
  9
$DWFFRAME
280
2
  9
$DGNFRAME
280
2
  9
$REALWORLDSCALE
290
1
  9
$INTERFERECOLOR
 62
256
  9
$CSHADOW
280
0
  9
$SHADOWPLANELOCATION
 40
0.0
  0
ENDSEC
  0
SECTION
  2
CLASSES
  0
CLASS
  1
ACDBDICTIONARYWDFLT
  2
AcDbDictionaryWithDefault
  3
ObjectDBX Classes
 90
0
 91
0
280
0
281
0
  0
CLASS
  1
SUN
  2
AcDbSun
  3
SCENEOE
 90
1153
 91
0
280
0
281
0
  0
CLASS
  1
VISUALSTYLE
  2
AcDbVisualStyle
  3
ObjectDBX Classes
 90
4095
 91
0
280
0
281
0
  0
CLASS
  1
MATERIAL
  2
AcDbMaterial
  3
ObjectDBX Classes
 90
1153
 91
0
280
0
281
0
  0
CLASS
  1
SCALE
  2
AcDbScale
  3
ObjectDBX Classes
 90
1153
 91
0
280
0
281
0
  0
CLASS
  1
TABLESTYLE
  2
AcDbTableStyle
  3
ObjectDBX Classes
 90
4095
 91
0
280
0
281
0
  0
CLASS
  1
MLEADERSTYLE
  2
AcDbMLeaderStyle
  3
ACDB_MLEADERSTYLE_CLASS
 90
4095
 91
0
280
0
281
0
  0
CLASS
  1
DICTIONARYVAR
  2
AcDbDictionaryVar
  3
ObjectDBX Classes
 90
0
 91
0
280
0
281
0
  0
CLASS
  1
CELLSTYLEMAP
  2
AcDbCellStyleMap
  3
ObjectDBX Classes
 90
1152
 91
0
280
0
281
0
  0
CLASS
  1
MENTALRAYRENDERSETTINGS
  2
AcDbMentalRayRenderSettings
  3
SCENEOE
 90
1024
 91
0
280
0
281
0
  0
CLASS
  1
ACDBDETAILVIEWSTYLE
  2
AcDbDetailViewStyle
  3
ObjectDBX Classes
 90
1025
 91
0
280
0
281
0
  0
CLASS
  1
ACDBSECTIONVIEWSTYLE
  2
AcDbSectionViewStyle
  3
ObjectDBX Classes
 90
1025
 91
0
280
0
281
0
  0
CLASS
  1
RASTERVARIABLES
  2
AcDbRasterVariables
  3
ISM
 90
0
 91
0
280
0
281
0
  0
CLASS
  1
LAYOUT
  2
AcDbLayout
  3
ObjectDBX Classes
 90
0
 91
0
280
0
281
0
  0
CLASS
  1
ACDBPLACEHOLDER
  2
AcDbPlaceHolder
  3
ObjectDBX Classes
 90
0
 91
0
280
0
281
0
  0
ENDSEC
  0
SECTION
  2
TABLES
  0
TABLE
  2
VPORT
  5
8
330
0
100
AcDbSymbolTable
 70
1
  0
VPORT
  5
23
330
8
100
AcDbSymbolTableRecord
100
AcDbViewportTableRecord
  2
*Active
 70
0
 10
0.0
 20
0.0
 11
1.0
 21
1.0
 12
0.0
 22
0.0
 13
0.0
 23
0.0
 14
0.5
 24
0.5
 15
0.5
 25
0.5
 16
0.0
 26
0.0
 36
1.0
 17
0.0
 27
0.0
 37
0.0
 40
1000.0
 41
1.34
 42
50.0
 43
0.0
 44
0.0
 50
0.0
 51
0.0
 71
0
 72
1000
 73
1
 74
3
 75
0
 76
0
 77
0
 78
0
281
0
 65
0
146
0.0
  0
ENDTAB
  0
TABLE
  2
LTYPE
  5
2
330
0
100
AcDbSymbolTable
 70
3
  0
LTYPE
  5
24
330
2
100
AcDbSymbolTableRecord
100
AcDbLinetypeTableRecord
  2
ByBlock
 70
0
  3

 72
65
 73
0
 40
0.0
  0
LTYPE
  5
25
330
2
100
AcDbSymbolTableRecord
100
AcDbLinetypeTableRecord
  2
ByLayer
 70
0
  3

 72
65
 73
0
 40
0.0
  0
LTYPE
  5
26
330
2
100
AcDbSymbolTableRecord
100
AcDbLinetypeTableRecord
  2
Continuous
 70
0
  3

 72
65
 73
0
 40
0.0
  0
ENDTAB
  0
TABLE
  2
LAYER
  5
1
330
0
100
AcDbSymbolTable
 70
6
  0
LAYER
  5
27
330
1
100
AcDbSymbolTableRecord
100
AcDbLayerTableRecord
  2
0
 70
0
 62
7
  6
Continuous
370
-3
390
13
347
21
  0
LAYER
  5
28
330
1
100
AcDbSymbolTableRecord
100
AcDbLayerTableRecord
  2
Defpoints
 70
0
 62
7
  6
Continuous
290
0
370
-3
390
13
347
21
  0
LAYER
  5
2F
330
1
100
AcDbSymbolTableRecord
100
AcDbLayerTableRecord
  2
CUTS
 70
0
 62
7
  6
Continuous
370
-3
390
13
347
21
  0
LAYER
  5
30
330
1
100
AcDbSymbolTableRecord
100
AcDbLayerTableRecord
  2
ENGRAVE
 70
0
 62
1
  6
Continuous
370
-3
390
13
347
21
  0
LAYER
  5
31
330
1
100
AcDbSymbolTableRecord
100
AcDbLayerTableRecord
  2
GUIDE
 70
0
 62
3
  6
Continuous
370
-3
390
13
347
21
  0
LAYER
  5
32
330
1
100
AcDbSymbolTableRecord
100
AcDbLayerTableRecord
  2
SHEET
 70
0
 62
8
  6
Continuous
370
-3
390
13
347
21
  0
ENDTAB
  0
TABLE
  2
STYLE
  5
5
330
0
100
AcDbSymbolTable
 70
1
  0
STYLE
  5
29
330
5
100
AcDbSymbolTableRecord
100
AcDbTextStyleTableRecord
  2
Standard
 70
0
 40
0.0
 41
1.0
 50
0.0
 71
0
 42
2.5
  3
txt
  4

  0
ENDTAB
  0
TABLE
  2
VIEW
  5
7
330
0
100
AcDbSymbolTable
 70
0
  0
ENDTAB
  0
TABLE
  2
UCS
  5
6
330
0
100
AcDbSymbolTable
 70
0
  0
ENDTAB
  0
TABLE
  2
APPID
  5
3
330
0
100
AcDbSymbolTable
 70
3
  0
APPID
  5
2A
330
3
100
AcDbSymbolTableRecord
100
AcDbRegAppTableRecord
  2
ACAD
 70
0
  0
APPID
  5
A8
330
3
100
AcDbSymbolTableRecord
100
AcDbRegAppTableRecord
  2
HATCHBACKGROUNDCOLOR
 70
0
  0
APPID
  5
A9
330
3
100
AcDbSymbolTableRecord
100
AcDbRegAppTableRecord
  2
EZDXF
 70
0
  0
ENDTAB
  0
TABLE
  2
DIMSTYLE
  5
4
330
0
100
AcDbSymbolTable
 70
1
100
AcDbDimStyleTable
  0
DIMSTYLE
105
2B
330
4
100
AcDbSymbolTableRecord
100
AcDbDimStyleTableRecord
  2
Standard
 70
0
 40
1.0
 41
2.5
 42
0.625
 43
3.75
 44
1.25
 45
0.0
 46
0.0
 47
0.0
 48
0.0
 49
2.5
140
2.5
141
2.5
142
0.0
143
0.03937007874
144
1.0
145
0.0
146
1.0
147
0.625
148
0.0
 69
0
 70
0
 71
0
 72
0
 73
0
 74
0
 75
0
 76
0
 77
1
 78
8
 79
3
170
0
171
3
172
1
173
0
174
0
175
0
176
0
177
0
178
0
179
2
271
2
272
2
273
2
274
3
275
0
276
0
277
2
278
44
279
0
280
0
281
0
282
0
283
0
284
8
285
0
286
0
288
0
289
3
290
0
371
-2
372
-2
  0
ENDTAB
  0
TABLE
  2
BLOCK_RECORD
  5
9
330
0
100
AcDbSymbolTable
 70
2
  0
BLOCK_RECORD
  5
17
330
9
100
AcDbSymbolTableRecord
100
AcDbBlockTableRecord
  2
*Model_Space
340
1A
 70
0
280
1
281
0
  0
BLOCK_RECORD
  5
1B
330
9
100
AcDbSymbolTableRecord
100
AcDbBlockTableRecord
  2
*Paper_Space
340
1E
 70
0
280
1
281
0
  0
ENDTAB
  0
ENDSEC
  0
SECTION
  2
BLOCKS
  0
BLOCK
  5
18
330
17
100
AcDbEntity
  8
0
100
AcDbBlockBegin
  2
*Model_Space
 70
0
 10
0.0
 20
0.0
 30
0.0
  3
*Model_Space
  1

  0
ENDBLK
  5
19
330
17
100
AcDbEntity
  8
0
100
AcDbBlockEnd
  0
BLOCK
  5
1C
330
1B
100
AcDbEntity
  8
0
100
AcDbBlockBegin
  2
*Paper_Space
 70
0
 10
0.0
 20
0.0
 30
0.0
  3
*Paper_Space
  1

  0
ENDBLK
  5
1D
330
1B
100
AcDbEntity
  8
0
100
AcDbBlockEnd
  0
ENDSEC
  0
SECTION
  2
ENTITIES
  0
LWPOLYLINE
  5
33
330
17
100
AcDbEntity
  8
SHEET
 62
8
100
AcDbPolyline
 90
4
 70
1
 10
0.0
 20
0.0
 10
400.0
 20
0.0
 10
400.0
 20
600.0
 10
0.0
 20
600.0
  0
LWPOLYLINE
  5
34
330
17
100
AcDbEntity
  8
CUTS
100
AcDbPolyline
 90
4
 70
1
 10
46.0
 20
127.86646932097311
 10
196.0
 20
127.86646932097311
 10
196.0
 20
207.86646932097312
 10
46.0
 20
207.86646932097312
  0
TEXT
  5
35
330
17
100
AcDbEntity
  8
ENGRAVE
100
AcDbText
 10
51.0
 20
199.86646932097312
 30
0.0
 40
3.0
  1
M7 CHASSIS
 11
51.0
 21
199.86646932097312
 31
0.0
100
AcDbText
  0
LWPOLYLINE
  5
36
330
17
100
AcDbEntity
  8
CUTS
100
AcDbPolyline
 90
4
 70
1
 10
66.0
 20
136.4164693209731
 10
76.0
 20
136.4164693209731
 10
76.0
 20
139.3164693209731
 10
66.0
 20
139.3164693209731
  0
LWPOLYLINE
  5
37
330
17
100
AcDbEntity
  8
CUTS
100
AcDbPolyline
 90
4
 70
1
 10
166.0
 20
136.4164693209731
 10
176.0
 20
136.4164693209731
 10
176.0
 20
139.3164693209731
 10
166.0
 20
139.3164693209731
  0
LWPOLYLINE
  5
38
330
17
100
AcDbEntity
  8
CUTS
100
AcDbPolyline
 90
4
 70
1
 10
66.0
 20
196.4164693209731
 10
76.0
 20
196.4164693209731
 10
76.0
 20
199.3164693209731
 10
66.0
 20
199.3164693209731
  0
LWPOLYLINE
  5
39
330
17
100
AcDbEntity
  8
CUTS
100
AcDbPolyline
 90
4
 70
1
 10
166.0
 20
196.4164693209731
 10
176.0
 20
196.4164693209731
 10
176.0
 20
199.3164693209731
 10
166.0
 20
199.3164693209731
  0
LWPOLYLINE
  5
3A
330
17
100
AcDbEntity
  8
CUTS
100
AcDbPolyline
 90
4
 70
1
 10
116.0
 20
166.4164693209731
 10
126.0
 20
166.4164693209731
 10
126.0
 20
169.3164693209731
 10
116.0
 20
169.3164693209731
  0
CIRCLE
  5
3B
330
17
100
AcDbEntity
  8
CUTS
100
AcDbCircle
 10
66.0
 20
132.86646932097312
 30
0.0
 40
1.6
  0
CIRCLE
  5
3C
330
17
100
AcDbEntity
  8
CUTS
100
AcDbCircle
 10
66.0
 20
202.86646932097312
 30
0.0
 40
1.6
  0
CIRCLE
  5
3D
330
17
100
AcDbEntity
  8
CUTS
100
AcDbCircle
 10
176.0
 20
132.86646932097312
 30
0.0
 40
1.6
  0
CIRCLE
  5
3E
330
17
100
AcDbEntity
  8
CUTS
100
AcDbCircle
 10
176.0
 20
202.86646932097312
 30
0.0
 40
1.6
  0
CIRCLE
  5
3F
330
17
100
AcDbEntity
  8
CUTS
100
AcDbCircle
 10
101.0
 20
147.86646932097312
 30
0.0
 40
2.0
  0
CIRCLE
  5
40
330
17
100
AcDbEntity
  8
CUTS
100
AcDbCircle
 10
141.0
 20
147.86646932097312
 30
0.0
 40
2.0
  0
LWPOLYLINE
  5
41
330
17
100
AcDbEntity
  8
CUTS
100
AcDbPolyline
 90
4
 70
1
 10
204.0
 20
127.86646932097311
 10
354.0
 20
127.86646932097311
 10
354.0
 20
157.86646932097312
 10
204.0
 20
157.86646932097312
  0
LWPOLYLINE
  5
42
330
17
100
AcDbEntity
  8
CUTS
100
AcDbPolyline
 90
4
 70
1
 10
224.0
 20
124.86646932097311
 10
234.0
 20
124.86646932097311
 10
234.0
 20
127.86646932097311
 10
224.0
 20
127.86646932097311
  0
LWPOLYLINE
  5
43
330
17
100
AcDbEntity
  8
CUTS
100
AcDbPolyline
 90
4
 70
1
 10
324.0
 20
124.86646932097311
 10
334.0
 20
124.86646932097311
 10
334.0
 20
127.86646932097311
 10
324.0
 20
127.86646932097311
  0
LWPOLYLINE
  5
44
330
17
100
AcDbEntity
  8
CUTS
100
AcDbPolyline
 90
4
 70
1
 10
222.0
 20
157.86646932097312
 10
222.0
 20
149.86646932097312
 10
226.0
 20
149.86646932097312
 10
226.0
 20
157.86646932097312
  0
LWPOLYLINE
  5
45
330
17
100
AcDbEntity
  8
CUTS
100
AcDbPolyline
 90
4
 70
1
 10
332.0
 20
157.86646932097312
 10
332.0
 20
149.86646932097312
 10
336.0
 20
149.86646932097312
 10
336.0
 20
157.86646932097312
  0
TEXT
  5
46
330
17
100
AcDbEntity
  8
ENGRAVE
100
AcDbText
 10
209.0
 20
147.86646932097312
 30
0.0
 40
3.0
  1
M7 RAIL L
 11
209.0
 21
147.86646932097312
 31
0.0
100
AcDbText
  0
LWPOLYLINE
  5
47
330
17
100
AcDbEntity
  8
CUTS
100
AcDbPolyline
 90
4
 70
1
 10
204.0
 20
165.86646932097312
 10
354.0
 20
165.86646932097312
 10
354.0
 20
195.86646932097312
 10
204.0
 20
195.86646932097312
  0
LWPOLYLINE
  5
48
330
17
100
AcDbEntity
  8
CUTS
100
AcDbPolyline
 90
4
 70
1
 10
224.0
 20
162.86646932097312
 10
234.0
 20
162.86646932097312
 10
234.0
 20
165.86646932097312
 10
224.0
 20
165.86646932097312
  0
LWPOLYLINE
  5
49
330
17
100
AcDbEntity
  8
CUTS
100
AcDbPolyline
 90
4
 70
1
 10
324.0
 20
162.86646932097312
 10
334.0
 20
162.86646932097312
 10
334.0
 20
165.86646932097312
 10
324.0
 20
165.86646932097312
  0
LWPOLYLINE
  5
4A
330
17
100
AcDbEntity
  8
CUTS
100
AcDbPolyline
 90
4
 70
1
 10
222.0
 20
195.86646932097312
 10
222.0
 20
187.86646932097312
 10
226.0
 20
187.86646932097312
 10
226.0
 20
195.86646932097312
  0
LWPOLYLINE
  5
4B
330
17
100
AcDbEntity
  8
CUTS
100
AcDbPolyline
 90
4
 70
1
 10
332.0
 20
195.86646932097312
 10
332.0
 20
187.86646932097312
 10
336.0
 20
187.86646932097312
 10
336.0
 20
195.86646932097312
  0
TEXT
  5
4C
330
17
100
AcDbEntity
  8
ENGRAVE
100
AcDbText
 10
209.0
 20
185.86646932097312
 30
0.0
 40
3.0
  1
M7 RAIL R
 11
209.0
 21
185.86646932097312
 31
0.0
100
AcDbText
  0
CIRCLE
  5
4D
330
17
100
AcDbEntity
  8
CUTS
100
AcDbCircle
 10
81.0
 20
84.86646932097311
 30
0.0
 40
30.0
  0
CIRCLE
  5
4E
330
17
100
AcDbEntity
  8
CUTS
100
AcDbCircle
 10
81.0
 20
84.86646932097311
 30
0.0
 40
1.6
  0
CIRCLE
  5
4F
330
17
100
AcDbEntity
  8
ENGRAVE
100
AcDbCircle
 10
81.0
 20
84.86646932097311
 30
0.0
 40
27.0
  0
CIRCLE
  5
50
330
17
100
AcDbEntity
  8
CUTS
100
AcDbCircle
 10
98.0
 20
84.86646932097311
 30
0.0
 40
5.0
  0
CIRCLE
  5
51
330
17
100
AcDbEntity
  8
CUTS
100
AcDbCircle
 10
89.5
 20
99.58890118530857
 30
0.0
 40
5.0
  0
CIRCLE
  5
52
330
17
100
AcDbEntity
  8
CUTS
100
AcDbCircle
 10
72.5
 20
99.58890118530857
 30
0.0
 40
5.0
  0
CIRCLE
  5
53
330
17
100
AcDbEntity
  8
CUTS
100
AcDbCircle
 10
64.0
 20
84.86646932097311
 30
0.0
 40
5.0
  0
CIRCLE
  5
54
330
17
100
AcDbEntity
  8
CUTS
100
AcDbCircle
 10
72.5
 20
70.14403745663766
 30
0.0
 40
5.0
  0
CIRCLE
  5
55
330
17
100
AcDbEntity
  8
CUTS
100
AcDbCircle
 10
89.5
 20
70.14403745663765
 30
0.0
 40
5.0
  0
TEXT
  5
56
330
17
100
AcDbEntity
  8
ENGRAVE
100
AcDbText
 10
75.0
 20
82.86646932097311
 30
0.0
 40
2.0
  1
W1
 11
75.0
 21
82.86646932097311
 31
0.0
100
AcDbText
  0
CIRCLE
  5
57
330
17
100
AcDbEntity
  8
CUTS
100
AcDbCircle
 10
149.0
 20
84.86646932097311
 30
0.0
 40
30.0
  0
CIRCLE
  5
58
330
17
100
AcDbEntity
  8
CUTS
100
AcDbCircle
 10
149.0
 20
84.86646932097311
 30
0.0
 40
1.6
  0
CIRCLE
  5
59
330
17
100
AcDbEntity
  8
ENGRAVE
100
AcDbCircle
 10
149.0
 20
84.86646932097311
 30
0.0
 40
27.0
  0
CIRCLE
  5
5A
330
17
100
AcDbEntity
  8
CUTS
100
AcDbCircle
 10
166.0
 20
84.86646932097311
 30
0.0
 40
5.0
  0
CIRCLE
  5
5B
330
17
100
AcDbEntity
  8
CUTS
100
AcDbCircle
 10
157.5
 20
99.58890118530857
 30
0.0
 40
5.0
  0
CIRCLE
  5
5C
330
17
100
AcDbEntity
  8
CUTS
100
AcDbCircle
 10
140.5
 20
99.58890118530857
 30
0.0
 40
5.0
  0
CIRCLE
  5
5D
330
17
100
AcDbEntity
  8
CUTS
100
AcDbCircle
 10
132.0
 20
84.86646932097311
 30
0.0
 40
5.0
  0
CIRCLE
  5
5E
330
17
100
AcDbEntity
  8
CUTS
100
AcDbCircle
 10
140.5
 20
70.14403745663766
 30
0.0
 40
5.0
  0
CIRCLE
  5
5F
330
17
100
AcDbEntity
  8
CUTS
100
AcDbCircle
 10
157.5
 20
70.14403745663765
 30
0.0
 40
5.0
  0
TEXT
  5
60
330
17
100
AcDbEntity
  8
ENGRAVE
100
AcDbText
 10
143.0
 20
82.86646932097311
 30
0.0
 40
2.0
  1
W2
 11
143.0
 21
82.86646932097311
 31
0.0
100
AcDbText
  0
CIRCLE
  5
61
330
17
100
AcDbEntity
  8
CUTS
100
AcDbCircle
 10
217.0
 20
84.86646932097311
 30
0.0
 40
30.0
  0
CIRCLE
  5
62
330
17
100
AcDbEntity
  8
CUTS
100
AcDbCircle
 10
217.0
 20
84.86646932097311
 30
0.0
 40
1.6
  0
CIRCLE
  5
63
330
17
100
AcDbEntity
  8
ENGRAVE
100
AcDbCircle
 10
217.0
 20
84.86646932097311
 30
0.0
 40
27.0
  0
CIRCLE
  5
64
330
17
100
AcDbEntity
  8
CUTS
100
AcDbCircle
 10
234.0
 20
84.86646932097311
 30
0.0
 40
5.0
  0
CIRCLE
  5
65
330
17
100
AcDbEntity
  8
CUTS
100
AcDbCircle
 10
225.5
 20
99.58890118530857
 30
0.0
 40
5.0
  0
CIRCLE
  5
66
330
17
100
AcDbEntity
  8
CUTS
100
AcDbCircle
 10
208.5
 20
99.58890118530857
 30
0.0
 40
5.0
  0
CIRCLE
  5
67
330
17
100
AcDbEntity
  8
CUTS
100
AcDbCircle
 10
200.0
 20
84.86646932097311
 30
0.0
 40
5.0
  0
CIRCLE
  5
68
330
17
100
AcDbEntity
  8
CUTS
100
AcDbCircle
 10
208.5
 20
70.14403745663766
 30
0.0
 40
5.0
  0
CIRCLE
  5
69
330
17
100
AcDbEntity
  8
CUTS
100
AcDbCircle
 10
225.5
 20
70.14403745663765
 30
0.0
 40
5.0
  0
TEXT
  5
6A
330
17
100
AcDbEntity
  8
ENGRAVE
100
AcDbText
 10
211.0
 20
82.86646932097311
 30
0.0
 40
2.0
  1
W3
 11
211.0
 21
82.86646932097311
 31
0.0
100
AcDbText
  0
CIRCLE
  5
6B
330
17
100
AcDbEntity
  8
CUTS
100
AcDbCircle
 10
285.0
 20
84.86646932097311
 30
0.0
 40
30.0
  0
CIRCLE
  5
6C
330
17
100
AcDbEntity
  8
CUTS
100
AcDbCircle
 10
285.0
 20
84.86646932097311
 30
0.0
 40
1.6
  0
CIRCLE
  5
6D
330
17
100
AcDbEntity
  8
ENGRAVE
100
AcDbCircle
 10
285.0
 20
84.86646932097311
 30
0.0
 40
27.0
  0
CIRCLE
  5
6E
330
17
100
AcDbEntity
  8
CUTS
100
AcDbCircle
 10
302.0
 20
84.86646932097311
 30
0.0
 40
5.0
  0
CIRCLE
  5
6F
330
17
100
AcDbEntity
  8
CUTS
100
AcDbCircle
 10
293.5
 20
99.58890118530857
 30
0.0
 40
5.0
  0
CIRCLE
  5
70
330
17
100
AcDbEntity
  8
CUTS
100
AcDbCircle
 10
276.5
 20
99.58890118530857
 30
0.0
 40
5.0
  0
CIRCLE
  5
71
330
17
100
AcDbEntity
  8
CUTS
100
AcDbCircle
 10
268.0
 20
84.86646932097311
 30
0.0
 40
5.0
  0
CIRCLE
  5
72
330
17
100
AcDbEntity
  8
CUTS
100
AcDbCircle
 10
276.5
 20
70.14403745663766
 30
0.0
 40
5.0
  0
CIRCLE
  5
73
330
17
100
AcDbEntity
  8
CUTS
100
AcDbCircle
 10
293.5
 20
70.14403745663765
 30
0.0
 40
5.0
  0
TEXT
  5
74
330
17
100
AcDbEntity
  8
ENGRAVE
100
AcDbText
 10
279.0
 20
82.86646932097311
 30
0.0
 40
2.0
  1
W4
 11
279.0
 21
82.86646932097311
 31
0.0
100
AcDbText
  0
LWPOLYLINE
  5
75
330
17
100
AcDbEntity
  8
CUTS
100
AcDbPolyline
 90
4
 70
1
 10
46.0
 20
16.86646932097311
 10
126.0
 20
16.86646932097311
 10
126.0
 20
56.86646932097311
 10
46.0
 20
56.86646932097311
  0
LWPOLYLINE
  5
76
330
17
100
AcDbEntity
  8
CUTS
100
AcDbPolyline
 90
4
 70
1
 10
74.0
 20
26.86646932097311
 10
98.0
 20
26.86646932097311
 10
98.0
 20
46.86646932097311
 10
74.0
 20
46.86646932097311
  0
CIRCLE
  5
77
330
17
100
AcDbEntity
  8
CUTS
100
AcDbCircle
 10
58.0
 20
36.86646932097311
 30
0.0
 40
1.6
  0
CIRCLE
  5
78
330
17
100
AcDbEntity
  8
CUTS
100
AcDbCircle
 10
114.0
 20
36.86646932097311
 30
0.0
 40
1.6
  0
LWPOLYLINE
  5
79
330
17
100
AcDbEntity
  8
CUTS
100
AcDbPolyline
 90
4
 70
1
 10
81.0
 20
13.86646932097311
 10
91.0
 20
13.86646932097311
 10
91.0
 20
16.86646932097311
 10
81.0
 20
16.86646932097311
  0
TEXT
  5
7A
330
17
100
AcDbEntity
  8
ENGRAVE
100
AcDbText
 10
51.0
 20
48.86646932097311
 30
0.0
 40
3.0
  1
M7 TT MOUNT
 11
51.0
 21
48.86646932097311
 31
0.0
100
AcDbText
  0
LWPOLYLINE
  5
7B
330
17
100
AcDbEntity
  8
CUTS
100
AcDbPolyline
 90
60
 70
1
 10
157.99040127993175
 20
36.38659731073351
 10
158.0
 20
36.86646932097311
 10
157.99040127993175
 20
37.34634133121271
 10
153.2198986728511
 20
38.89700204756561
 10
153.13292387221367
 20
39.18409677878522
 10
153.03453791498995
 20
39.46748380047315
 10
155.98250009544668
 20
43.52602575097707
 10
155.70820393249937
 20
43.91989234848279
 10
155.4183767142331
 20
44.30247497379449
 10
150.64750353301338
 20
42.752954767368806
 10
150.40838939219356
 20
42.93409677878522
 10
150.16222276875249
 20
43.10553188062728
 10
150.16162316720005
 20
48.12172998495703
 10
149.70820393249937
 20
48.27914751651495
 10
149.248852362548
 20
48.418307197534844
 10
146.29992000639976
 20
44.360470120930444
 10
146.0
 20
44.36646932097311
 10
145.70007999360024
 20
44.360470120930444
 10
142.751147637452
 20
48.418307197534844
 10
142.29179606750063
 20
48.27914751651495
 10
141.83837683279995
 20
48.12172998495703
 10
141.83777723124751
 20
43.10553188062728
 10
141.59161060780644
 20
42.93409677878522
 10
141.35249646698662
 20
42.752954767368806
 10
136.5816232857669
 20
44.30247497379449
 10
136.29179606750063
 20
43.91989234848279
 10
136.01749990455332
 20
43.52602575097707
 10
138.96546208501005
 20
39.46748380047315
 10
138.86707612778633
 20
39.18409677878522
 10
138.7801013271489
 20
38.89700204756561
 10
134.00959872006825
 20
37.34634133121273
 10
134.0
 20
36.86646932097311
 10
134.00959872006825
 20
36.38659731073351
 10
138.7801013271489
 20
34.83593659438061
 10
138.86707612778633
 20
34.548841863161
 10
138.96546208501005
 20
34.26545484147307
 10
136.01749990455332
 20
30.20691289096915
 10
136.29179606750063
 20
29.81304629346343
 10
136.58162328576688
 20
29.43046366815173
 10
141.35249646698662
 20
30.979983874577414
 10
141.59161060780644
 20
30.798841863161
 10
141.83777723124751
 20
30.627406761318937
 10
141.83837683279995
 20
25.61120865698919
 10
142.29179606750063
 20
25.453791125431266
 10
142.751147637452
 20
25.314631444411376
 10
145.70007999360024
 20
29.372468521015776
 10
146.0
 20
29.36646932097311
 10
146.29992000639976
 20
29.372468521015776
 10
149.248852362548
 20
25.314631444411376
 10
149.70820393249937
 20
25.453791125431266
 10
150.16162316720005
 20
25.61120865698919
 10
150.16222276875249
 20
30.627406761318937
 10
150.40838939219356
 20
30.798841863161
 10
150.64750353301338
 20
30.979983874577414
 10
155.4183767142331
 20
29.43046366815173
 10
155.70820393249937
 20
29.81304629346343
 10
155.98250009544668
 20
30.20691289096915
 10
153.03453791498995
 20
34.26545484147307
 10
153.13292387221367
 20
34.548841863161
 10
153.2198986728511
 20
34.83593659438061
  0
CIRCLE
  5
7C
330
17
100
AcDbEntity
  8
CUTS
100
AcDbCircle
 10
146.0
 20
36.86646932097311
 30
0.0
 40
2.9
  0
TEXT
  5
7D
330
17
100
AcDbEntity
  8
ENGRAVE
100
AcDbText
 10
140.0
 20
34.86646932097311
 30
0.0
 40
2.0
  1
SM
 11
140.0
 21
34.86646932097311
 31
0.0
100
AcDbText
  0
LWPOLYLINE
  5
7E
330
17
100
AcDbEntity
  8
CUTS
100
AcDbPolyline
 90
180
 70
1
 10
229.9971555976952
 20
36.439815296169385
 10
230.0
 20
36.86646932097311
 10
229.9971555976952
 20
37.293123345776834
 10
225.38524707271125
 20
39.37609932688221
 10
225.34935212262752
 20
39.74100206083358
 10
225.30859513753055
 20
40.10539377431306
 10
229.38664733788298
 20
43.10172143194366
 10
229.30072322348178
 20
43.5196434271414
 10
229.2092346185007
 20
43.936382653354045
 10
224.26503230181945
 20
45.01497091233216
 10
224.1540541981167
 20
45.36443666628416
 10
224.03842655366148
 20
45.71239169286724
 10
227.40439197956144
 20
49.491117130409336
 10
227.23345464456324
 20
49.882041899398715
 10
227.05732032795456
 20
50.27065282309809
 10
221.99690958572995
 20
50.297713877390905
 10
221.81569860407205
 20
50.61646932097311
 10
221.63025378316422
 20
50.93278035632464
 10
224.13702359380576
 20
55.328755139821226
 10
223.88854381999832
 20
55.67559739433226
 10
223.63546170658407
 20
56.019095853390596
 10
218.68000677079615
 20
54.99344700507217
 10
218.43648270062835
 20
55.26756099584172
 10
218.18932553180457
 20
55.5384037298881
 10
219.72734185764654
 20
60.35950266707299
 10
219.41217940348346
 20
60.64710373624972
 10
219.09321039604254
 20
60.930477199717714
 10
214.45928842629627
 20
58.89694422506878
 10
214.164094438043
 20
59.11443666628416
 10
213.8660268755726
 20
59.32797397189994
 10
214.36807102295452
 20
64.36349190501876
 10
214.0
 20
64.57928224207515
 10
213.62908457474072
 20
64.7901459298225
 10
209.51922019713868
 20
61.83760397780904
 10
209.1852576845845
 20
61.98896940614463
 10
208.84930671123425
 20
62.13586867840873
 10
208.29343694184044
 20
67.16572931068828
 10
207.88854381999832
 20
67.30027784241803
 10
207.48189276085415
 20
67.42941599945392
 10
204.07570677001488
 20
63.68690532124715
 10
203.7175714974884
 20
63.76552834115276
 10
203.35841978286533
 20
63.8393693769663
 10
201.7689302729774
 20
68.64374366282682
 10
201.34491082456492
 20
68.69116997275785
 10
200.92029673414876
 20
68.73293864194622
 10
198.3666558025657
 20
64.36402491274244
 10
198.0
 20
64.36646932097311
 10
197.6333441974343
 20
64.36402491274244
 10
195.07970326585124
 20
68.73293864194622
 10
194.65508917543508
 20
68.69116997275786
 10
194.23106972702263
 20
68.64374366282684
 10
192.64158021713467
 20
63.8393693769663
 10
192.28242850251164
 20
63.76552834115277
 10
191.92429322998512
 20
63.68690532124715
 10
188.51810723914585
 20
67.42941599945392
 10
188.11145618000168
 20
67.30027784241803
 10
187.70656305815956
 20
67.16572931068828
 10
187.15069328876575
 20
62.13586867840873
 10
186.8147423154155
 20
61.98896940614463
 10
186.48077980286135
 20
61.83760397780905
 10
182.37091542525928
 20
64.7901459298225
 10
182.0
 20
64.57928224207515
 10
181.6319289770455
 20
64.36349190501878
 10
182.1339731244274
 20
59.32797397189994
 10
181.835905561957
 20
59.11443666628416
 10
181.54071157370373
 20
58.89694422506878
 10
176.90678960395746
 20
60.93047719971773
 10
176.58782059651654
 20
60.64710373624973
 10
176.27265814235346
 20
60.359502667073
 10
177.81067446819543
 20
55.5384037298881
 10
177.56351729937165
 20
55.26756099584172
 10
177.31999322920385
 20
54.993447005072184
 10
172.36453829341593
 20
56.019095853390596
 10
172.11145618000168
 20
55.67559739433226
 10
171.86297640619424
 20
55.32875513982124
 10
174.36974621683578
 20
50.93278035632464
 10
174.18430139592795
 20
50.61646932097311
 10
174.00309041427008
 20
50.297713877390905
 10
168.94267967204547
 20
50.270652823098104
 10
168.7665453554368
 20
49.88204189939873
 10
168.59560802043856
 20
49.49111713040935
 10
171.96157344633852
 20
45.71239169286724
 10
171.84594580188326
 20
45.36443666628416
 10
171.73496769818055
 20
45.01497091233216
 10
166.7907653814993
 20
43.93638265335406
 10
166.69927677651822
 20
43.51964342714142
 10
166.61335266211702
 20
43.10172143194369
 10
170.69140486246948
 20
40.10539377431306
 10
170.65064787737248
 20
39.741002060833594
 10
170.61475292728875
 20
39.376099326882226
 10
166.0028444023048
 20
37.293123345776834
 10
166.0
 20
36.86646932097311
 10
166.0028444023048
 20
36.439815296169385
 10
170.61475292728875
 20
34.35683931506401
 10
170.65064787737248
 20
33.99193658111264
 10
170.69140486246945
 20
33.627544867633176
 10
166.613352662117
 20
30.63121721000256
 10
166.69927677651822
 20
30.213295214804816
 10
166.79076538149928
 20
29.79655598859219
 10
171.73496769818055
 20
28.71796772961406
 10
171.84594580188326
 20
28.368501975662056
 10
171.96157344633852
 20
28.02054694907899
 10
168.59560802043856
 20
24.241821511536898
 10
168.76654535543676
 20
23.85089674254752
 10
168.94267967204544
 20
23.462285818848144
 10
174.00309041427005
 20
23.435224764555315
 10
174.18430139592795
 20
23.11646932097311
 10
174.36974621683575
 20
22.800158285621578
 10
171.8629764061942
 20
18.404183502124994
 10
172.11145618000168
 20
18.057341247613977
 10
172.36453829341593
 20
17.713842788555624
 10
177.31999322920385
 20
18.73949163687405
 10
177.56351729937165
 20
18.4653776461045
 10
177.81067446819543
 20
18.194534912058117
 10
176.27265814235346
 20
13.373435974873232
 10
176.58782059651654
 20
13.085834905696501
 10
176.90678960395744
 20
12.802461442228505
 10
181.5407115737037
 20
14.83599441687744
 10
181.835905561957
 20
14.618501975662056
 10
182.1339731244274
 20
14.404964670046269
 10
181.63192897704545
 20
9.369446736927472
 10
182.0
 20
9.153656399871082
 10
182.37091542525928
 20
8.942792712123733
 10
186.48077980286132
 20
11.895334664137195
 10
186.8147423154155
 20
11.7439692358016
 10
187.15069328876572
 20
11.597069963537493
 10
187.70656305815953
 20
6.567209331257942
 10
188.11145618000168
 20
6.432660799528193
 10
188.51810723914585
 20
6.303522642492297
 10
191.92429322998512
 20
10.046033320699081
 10
192.2824285025116
 20
9.96741030079346
 10
192.64158021713467
 20
9.893569264979917
 10
194.23106972702257
 20
5.089194979119398
 10
194.65508917543505
 20
5.041768669188357
 10
195.0797032658512
 20
5.000000000000014
 10
197.63334419743427
 20
9.368913729203783
 10
197.99999999999997
 20
9.36646932097311
 10
198.36665580256567
 20
9.368913729203783
 10
200.92029673414874
 20
5.0
 10
201.3449108245649
 20
5.041768669188357
 10
201.76893027297737
 20
5.089194979119398
 10
203.3584197828653
 20
9.893569264979917
 10
203.71757149748836
 20
9.967410300793446
 10
204.07570677001485
 20
10.046033320699067
 10
207.48189276085415
 20
6.303522642492297
 10
207.88854381999832
 20
6.432660799528193
 10
208.29343694184044
 20
6.567209331257942
 10
208.84930671123425
 20
11.597069963537493
 10
209.18525768458449
 20
11.743969235801572
 10
209.51922019713865
 20
11.895334664137167
 10
213.6290845747407
 20
8.942792712123705
 10
213.99999999999997
 20
9.153656399871053
 10
214.3680710229545
 20
9.369446736927458
 10
213.86602687557257
 20
14.404964670046255
 10
214.16409443804298
 20
14.618501975662028
 10
214.45928842629627
 20
14.835994416877426
 10
219.09321039604254
 20
12.802461442228477
 10
219.41217940348344
 20
13.085834905696487
 10
219.72734185764654
 20
13.373435974873232
 10
218.18932553180457
 20
18.194534912058103
 10
218.43648270062832
 20
18.4653776461045
 10
218.68000677079615
 20
18.739491636874035
 10
223.63546170658404
 20
17.713842788555596
 10
223.88854381999832
 20
18.057341247613962
 10
224.13702359380576
 20
18.404183502124994
 10
221.63025378316422
 20
22.80015828562155
 10
221.81569860407205
 20
23.116469320973096
 10
221.99690958572992
 20
23.435224764555315
 10
227.05732032795453
 20
23.462285818848088
 10
227.2334546445632
 20
23.850896742547476
 10
227.40439197956144
 20
24.24182151153687
 10
224.03842655366145
 20
28.020546949078934
 10
224.1540541981167
 20
28.368501975662028
 10
224.26503230181945
 20
28.717967729614045
 10
229.2092346185007
 20
29.796555988592146
 10
229.30072322348178
 20
30.213295214804788
 10
229.38664733788298
 20
30.631217210002546
 10
225.30859513753055
 20
33.627544867633134
 10
225.34935212262752
 20
33.99193658111261
 10
225.38524707271125
 20
34.35683931506399
  0
CIRCLE
  5
7F
330
17
100
AcDbEntity
  8
CUTS
100
AcDbCircle
 10
198.0
 20
36.86646932097311
 30
0.0
 40
1.6
  0
TEXT
  5
80
330
17
100
AcDbEntity
  8
ENGRAVE
100
AcDbText
 10
192.0
 20
34.86646932097311
 30
0.0
 40
2.0
  1
LG
 11
192.0
 21
34.86646932097311
 31
0.0
100
AcDbText
  0
LWPOLYLINE
  5
81
330
17
100
AcDbEntity
  8
CUTS
100
AcDbPolyline
 90
4
 70
1
 10
62.0
 20
339.8664693209731
 10
202.0
 20
339.8664693209731
 10
202.0
 20
439.8664693209731
 10
62.0
 20
439.8664693209731
  0
TEXT
  5
82
330
17
100
AcDbEntity
  8
ENGRAVE
100
AcDbText
 10
67.0
 20
431.8664693209731
 30
0.0
 40
3.0
  1
M5 BASE
 11
67.0
 21
431.8664693209731
 31
0.0
100
AcDbText
  0
LWPOLYLINE
  5
83
330
17
100
AcDbEntity
  8
CUTS
100
AcDbPolyline
 90
4
 70
1
 10
80.55
 20
369.8664693209731
 10
83.45
 20
369.8664693209731
 10
83.45
 20
379.8664693209731
 10
80.55
 20
379.8664693209731
  0
LWPOLYLINE
  5
84
330
17
100
AcDbEntity
  8
CUTS
100
AcDbPolyline
 90
4
 70
1
 10
80.55
 20
399.8664693209731
 10
83.45
 20
399.8664693209731
 10
83.45
 20
409.8664693209731
 10
80.55
 20
409.8664693209731
  0
LWPOLYLINE
  5
85
330
17
100
AcDbEntity
  8
CUTS
100
AcDbPolyline
 90
4
 70
1
 10
180.55
 20
369.8664693209731
 10
183.45
 20
369.8664693209731
 10
183.45
 20
379.8664693209731
 10
180.55
 20
379.8664693209731
  0
LWPOLYLINE
  5
86
330
17
100
AcDbEntity
  8
CUTS
100
AcDbPolyline
 90
4
 70
1
 10
180.55
 20
399.8664693209731
 10
183.45
 20
399.8664693209731
 10
183.45
 20
409.8664693209731
 10
180.55
 20
409.8664693209731
  0
LWPOLYLINE
  5
87
330
17
100
AcDbEntity
  8
CUTS
100
AcDbPolyline
 90
4
 70
1
 10
210.0
 20
339.8664693209731
 10
270.0
 20
339.8664693209731
 10
270.0
 20
479.8664693209731
 10
210.0
 20
479.8664693209731
  0
LWPOLYLINE
  5
88
330
17
100
AcDbEntity
  8
CUTS
100
AcDbPolyline
 90
4
 70
1
 10
220.0
 20
336.8664693209731
 10
230.0
 20
336.8664693209731
 10
230.0
 20
339.8664693209731
 10
220.0
 20
339.8664693209731
  0
LWPOLYLINE
  5
89
330
17
100
AcDbEntity
  8
CUTS
100
AcDbPolyline
 90
4
 70
1
 10
250.0
 20
336.8664693209731
 10
260.0
 20
336.8664693209731
 10
260.0
 20
339.8664693209731
 10
250.0
 20
339.8664693209731
  0
CIRCLE
  5
8A
330
17
100
AcDbEntity
  8
CUTS
100
AcDbCircle
 10
240.0
 20
374.8664693209731
 30
0.0
 40
1.6
  0
LWPOLYLINE
  5
8B
330
17
100
AcDbEntity
  8
CUTS
100
AcDbPolyline
 90
4
 70
1
 10
238.55
 20
432.3664693209731
 10
241.45000000000002
 20
432.3664693209731
 10
241.45000000000002
 20
467.3664693209731
 10
238.55
 20
467.3664693209731
  0
LWPOLYLINE
  5
8C
330
17
100
AcDbEntity
  8
CUTS
100
AcDbPolyline
 90
4
 70
1
 10
235.0
 20
473.41646932097314
 10
245.0
 20
473.41646932097314
 10
245.0
 20
476.31646932097317
 10
235.0
 20
476.31646932097317
  0
TEXT
  5
8D
330
17
100
AcDbEntity
  8
ENGRAVE
100
AcDbText
 10
213.0
 20
467.8664693209731
 30
0.0
 40
3.0
  1
M5 FR L
 11
213.0
 21
467.8664693209731
 31
0.0
100
AcDbText
  0
LWPOLYLINE
  5
8E
330
17
100
AcDbEntity
  8
CUTS
100
AcDbPolyline
 90
4
 70
1
 10
278.0
 20
339.8664693209731
 10
338.0
 20
339.8664693209731
 10
338.0
 20
479.8664693209731
 10
278.0
 20
479.8664693209731
  0
LWPOLYLINE
  5
8F
330
17
100
AcDbEntity
  8
CUTS
100
AcDbPolyline
 90
4
 70
1
 10
288.0
 20
336.8664693209731
 10
298.0
 20
336.8664693209731
 10
298.0
 20
339.8664693209731
 10
288.0
 20
339.8664693209731
  0
LWPOLYLINE
  5
90
330
17
100
AcDbEntity
  8
CUTS
100
AcDbPolyline
 90
4
 70
1
 10
318.0
 20
336.8664693209731
 10
328.0
 20
336.8664693209731
 10
328.0
 20
339.8664693209731
 10
318.0
 20
339.8664693209731
  0
CIRCLE
  5
91
330
17
100
AcDbEntity
  8
CUTS
100
AcDbCircle
 10
308.0
 20
374.8664693209731
 30
0.0
 40
1.6
  0
LWPOLYLINE
  5
92
330
17
100
AcDbEntity
  8
CUTS
100
AcDbPolyline
 90
4
 70
1
 10
306.55
 20
432.3664693209731
 10
309.45000000000005
 20
432.3664693209731
 10
309.45000000000005
 20
467.3664693209731
 10
306.55
 20
467.3664693209731
  0
LWPOLYLINE
  5
93
330
17
100
AcDbEntity
  8
CUTS
100
AcDbPolyline
 90
4
 70
1
 10
303.0
 20
473.41646932097314
 10
313.0
 20
473.41646932097314
 10
313.0
 20
476.31646932097317
 10
303.0
 20
476.31646932097317
  0
TEXT
  5
94
330
17
100
AcDbEntity
  8
ENGRAVE
100
AcDbText
 10
281.0
 20
467.8664693209731
 30
0.0
 40
3.0
  1
M5 FR R
 11
281.0
 21
467.8664693209731
 31
0.0
100
AcDbText
  0
CIRCLE
  5
95
330
17
100
AcDbEntity
  8
CUTS
100
AcDbCircle
 10
87.0
 20
276.8664693209731
 30
0.0
 40
25.0
  0
CIRCLE
  5
96
330
17
100
AcDbEntity
  8
CUTS
100
AcDbCircle
 10
87.0
 20
276.8664693209731
 30
0.0
 40
1.6
  0
CIRCLE
  5
97
330
17
100
AcDbEntity
  8
CUTS
100
AcDbCircle
 10
102.0
 20
276.8664693209731
 30
0.0
 40
1.6
  0
TEXT
  5
98
330
17
100
AcDbEntity
  8
ENGRAVE
100
AcDbText
 10
75.0
 20
274.8664693209731
 30
0.0
 40
3.0
  1
M5 CRANK
 11
75.0
 21
274.8664693209731
 31
0.0
100
AcDbText
  0
LWPOLYLINE
  5
99
330
17
100
AcDbEntity
  8
CUTS
100
AcDbPolyline
 90
72
 70
1
 10
158.0
 20
276.8664693209731
 10
158.46005970246873
 20
278.30653794589904
 10
158.78298447817235
 20
279.82576230128626
 10
158.9548132206251
 20
281.4094978312601
 10
158.96344476163415
 20
283.0406582848269
 10
158.79905792194333
 20
284.6999986797647
 10
158.45448267190434
 20
286.3664693209731
 10
157.9255105709816
 20
288.01763187261287
 10
157.21113434894028
 20
289.630126542957
 10
156.31370849898477
 20
291.18017781995786
 10
155.23902501402125
 20
292.64412494387756
 10
153.99630084397447
 20
293.998962459574
 10
152.59807621135332
 20
295.2228757815241
 10
151.06002551720812
 20
296.2957567426191
 10
149.40068512227032
 20
297.1996845829046
 10
147.64110472164032
 20
297.91935875295155
 10
145.8044312726479
 20
298.44247123152616
 10
143.9154364169633
 20
298.76000774947767
 10
142.0
 20
298.8664693209731
 10
140.0845635830367
 20
298.76000774947767
 10
138.1955687273521
 20
298.44247123152616
 10
136.35889527835968
 20
297.91935875295155
 10
134.59931487772968
 20
297.1996845829046
 10
132.93997448279188
 20
296.2957567426191
 10
131.40192378864668
 20
295.2228757815241
 10
130.00369915602553
 20
293.998962459574
 10
128.76097498597875
 20
292.64412494387756
 10
127.68629150101525
 20
291.18017781995786
 10
126.78886565105972
 20
289.630126542957
 10
126.0744894290184
 20
288.01763187261287
 10
125.54551732809566
 20
286.3664693209731
 10
125.20094207805667
 20
284.6999986797647
 10
125.03655523836585
 20
283.0406582848269
 10
125.04518677937492
 20
281.4094978312601
 10
125.21701552182766
 20
279.82576230128626
 10
125.53994029753127
 20
278.30653794589904
 10
126.0
 20
276.8664693209731
 10
126.58182936353286
 20
275.517554177974
 10
127.26913638178168
 20
274.2690206159445
 10
128.0451867793749
 20
273.1272883879795
 10
128.89328089648507
 20
272.0960136984055
 10
129.79720873677053
 20
271.17621430406234
 10
130.74166975080232
 20
270.3664693209731
 10
131.71264515373386
 20
269.66318590937937
 10
132.69771216913296
 20
269.0609230329877
 10
133.68629150101523
 20
268.5527608219884
 10
134.66982150405198
 20
268.1307027640703
 10
135.641854880741
 20
267.7860970423263
 10
136.59807621135332
 20
267.5100628604221
 10
137.53624114150574
 20
267.29390755744635
 10
138.4560405358489
 20
267.12952071775555
 10
139.35889527835968
 20
267.0097323117013
 10
140.24768958730613
 20
266.9286231351355
 10
141.12645264903824
 20
266.8817774105418
 10
142.0
 20
266.8664693209731
 10
142.87354735096176
 20
266.8817774105418
 10
143.75231041269387
 20
266.9286231351355
 10
144.64110472164032
 20
267.0097323117013
 10
145.5439594641511
 20
267.12952071775555
 10
146.46375885849426
 20
267.29390755744635
 10
147.40192378864668
 20
267.5100628604221
 10
148.358145119259
 20
267.7860970423263
 10
149.33017849594802
 20
268.1307027640703
 10
150.31370849898474
 20
268.5527608219884
 10
151.30228783086702
 20
269.0609230329877
 10
152.28735484626614
 20
269.66318590937937
 10
153.25833024919768
 20
270.3664693209731
 10
154.20279126322947
 20
271.17621430406234
 10
155.10671910351493
 20
272.0960136984055
 10
155.9548132206251
 20
273.1272883879795
 10
156.73086361821834
 20
274.2690206159445
 10
157.41817063646715
 20
275.517554177974
  0
CIRCLE
  5
9A
330
17
100
AcDbEntity
  8
CUTS
100
AcDbCircle
 10
142.0
 20
276.8664693209731
 30
0.0
 40
1.6
  0
TEXT
  5
9B
330
17
100
AcDbEntity
  8
ENGRAVE
100
AcDbText
 10
132.0
 20
274.8664693209731
 30
0.0
 40
3.0
  1
M5 CAM
 11
132.0
 21
274.8664693209731
 31
0.0
100
AcDbText
  0
LWPOLYLINE
  5
9C
330
17
100
AcDbEntity
  8
CUTS
100
AcDbPolyline
 90
4
 70
1
 10
172.0
 20
231.86646932097312
 10
184.0
 20
231.86646932097312
 10
184.0
 20
321.8664693209731
 10
172.0
 20
321.8664693209731
  0
CIRCLE
  5
9D
330
17
100
AcDbEntity
  8
CUTS
100
AcDbCircle
 10
178.0
 20
316.8664693209731
 30
0.0
 40
1.5
  0
TEXT
  5
9E
330
17
100
AcDbEntity
  8
ENGRAVE
100
AcDbText
 10
173.0
 20
271.8664693209731
 30
0.0
 40
2.0
  1
FOL
 11
173.0
 21
271.8664693209731
 31
0.0
100
AcDbText
  0
LWPOLYLINE
  5
9F
330
17
100
AcDbEntity
  8
CUTS
100
AcDbPolyline
 90
4
 70
1
 10
192.0
 20
269.8664693209731
 10
262.0
 20
269.8664693209731
 10
262.0
 20
283.8664693209731
 10
192.0
 20
283.8664693209731
  0
CIRCLE
  5
A0
330
17
100
AcDbEntity
  8
CUTS
100
AcDbCircle
 10
200.0
 20
276.8664693209731
 30
0.0
 40
1.6
  0
CIRCLE
  5
A1
330
17
100
AcDbEntity
  8
CUTS
100
AcDbCircle
 10
254.0
 20
276.8664693209731
 30
0.0
 40
3.0
  0
TEXT
  5
A2
330
17
100
AcDbEntity
  8
ENGRAVE
100
AcDbText
 10
210.0
 20
271.8664693209731
 30
0.0
 40
2.0
  1
M5 HANDLE
 11
210.0
 21
271.8664693209731
 31
0.0
100
AcDbText
  0
LWPOLYLINE
  5
A3
330
17
100
AcDbEntity
  8
CUTS
100
AcDbPolyline
 90
4
 70
1
 10
62.0
 20
218.86646932097312
 10
162.0
 20
218.86646932097312
 10
162.0
 20
298.8664693209731
 10
62.0
 20
298.8664693209731
  0
LWPOLYLINE
  5
A4
330
17
100
AcDbEntity
  8
CUTS
100
AcDbPolyline
 90
4
 70
1
 10
67.0
 20
215.86646932097312
 10
77.0
 20
215.86646932097312
 10
77.0
 20
218.86646932097312
 10
67.0
 20
218.86646932097312
  0
LWPOLYLINE
  5
A5
330
17
100
AcDbEntity
  8
CUTS
100
AcDbPolyline
 90
4
 70
1
 10
147.0
 20
215.86646932097312
 10
157.0
 20
215.86646932097312
 10
157.0
 20
218.86646932097312
 10
147.0
 20
218.86646932097312
  0
LWPOLYLINE
  5
A6
330
17
100
AcDbEntity
  8
CUTS
100
AcDbPolyline
 90
4
 70
1
 10
109.55
 20
221.36646932097312
 10
114.44999999999999
 20
221.36646932097312
 10
114.44999999999999
 20
236.36646932097312
 10
109.55
 20
236.36646932097312
  0
TEXT
  5
A7
330
17
100
AcDbEntity
  8
ENGRAVE
100
AcDbText
 10
67.0
 20
288.8664693209731
 30
0.0
 40
3.0
  1
M5 SCENE PANEL
 11
67.0
 21
288.8664693209731
 31
0.0
100
AcDbText
  0
ENDSEC
  0
SECTION
  2
OBJECTS
  0
DICTIONARY
  5
A
330
0
100
AcDbDictionary
281
1
  3
ACAD_COLOR
350
B
  3
ACAD_GROUP
350
C
  3
ACAD_LAYOUT
350
D
  3
ACAD_MATERIAL
350
E
  3
ACAD_MLEADERSTYLE
350
F
  3
ACAD_MLINESTYLE
350
10
  3
ACAD_PLOTSETTINGS
350
11
  3
ACAD_PLOTSTYLENAME
350
12
  3
ACAD_SCALELIST
350
14
  3
ACAD_TABLESTYLE
350
15
  3
ACAD_VISUALSTYLE
350
16
  3
EZDXF_META
350
2D
  0
DICTIONARY
  5
B
330
A
100
AcDbDictionary
281
1
  0
DICTIONARY
  5
C
330
A
100
AcDbDictionary
281
1
  0
DICTIONARY
  5
D
330
A
100
AcDbDictionary
281
1
  3
Model
350
1A
  3
Layout1
350
1E
  0
DICTIONARY
  5
E
330
A
100
AcDbDictionary
281
1
  3
ByBlock
350
1F
  3
ByLayer
350
20
  3
Global
350
21
  0
DICTIONARY
  5
F
330
A
100
AcDbDictionary
281
1
  3
Standard
350
2C
  0
DICTIONARY
  5
10
330
A
100
AcDbDictionary
281
1
  3
Standard
350
22
  0
DICTIONARY
  5
11
330
A
100
AcDbDictionary
281
1
  0
ACDBDICTIONARYWDFLT
  5
12
330
A
100
AcDbDictionary
281
1
  3
Normal
350
13
100
AcDbDictionaryWithDefault
340
13
  0
ACDBPLACEHOLDER
  5
13
330
12
  0
DICTIONARY
  5
14
330
A
100
AcDbDictionary
281
1
  0
DICTIONARY
  5
15
330
A
100
AcDbDictionary
281
1
  0
DICTIONARY
  5
16
330
A
100
AcDbDictionary
281
1
  0
LAYOUT
  5
1A
330
D
100
AcDbPlotSettings
  1

  4
A3
  6

 40
7.5
 41
20.0
 42
7.5
 43
20.0
 44
420.0
 45
297.0
 46
0.0
 47
0.0
 48
0.0
 49
0.0
140
0.0
141
0.0
142
1.0
143
1.0
 70
1024
 72
1
 73
0
 74
5
  7

 75
16
 76
0
 77
2
 78
300
147
1.0
148
0.0
149
0.0
100
AcDbLayout
  1
Model
 70
1
 71
0
 10
0.0
 20
0.0
 11
420.0
 21
297.0
 12
0.0
 22
0.0
 32
0.0
 14
1e+20
 24
1e+20
 34
1e+20
 15
-1e+20
 25
-1e+20
 35
-1e+20
146
0.0
 13
0.0
 23
0.0
 33
0.0
 16
1.0
 26
0.0
 36
0.0
 17
0.0
 27
1.0
 37
0.0
 76
1
330
17
  0
LAYOUT
  5
1E
330
D
100
AcDbPlotSettings
  1

  4
A3
  6

 40
7.5
 41
20.0
 42
7.5
 43
20.0
 44
420.0
 45
297.0
 46
0.0
 47
0.0
 48
0.0
 49
0.0
140
0.0
141
0.0
142
1.0
143
1.0
 70
0
 72
1
 73
0
 74
5
  7

 75
16
 76
0
 77
2
 78
300
147
1.0
148
0.0
149
0.0
100
AcDbLayout
  1
Layout1
 70
1
 71
1
 10
0.0
 20
0.0
 11
420.0
 21
297.0
 12
0.0
 22
0.0
 32
0.0
 14
1e+20
 24
1e+20
 34
1e+20
 15
-1e+20
 25
-1e+20
 35
-1e+20
146
0.0
 13
0.0
 23
0.0
 33
0.0
 16
1.0
 26
0.0
 36
0.0
 17
0.0
 27
1.0
 37
0.0
 76
1
330
1B
  0
MATERIAL
  5
1F
102
{ACAD_REACTORS
330
E
102
}
330
E
100
AcDbMaterial
  1
ByBlock
  2

 70
0
 40
1.0
 71
1
 41
1.0
 91
-1023410177
 42
1.0
 72
1
  3

 73
1
 74
1
 75
1
 44
0.5
 73
0
 45
1.0
 46
1.0
 77
1
  4

 78
1
 79
1
170
1
 48
1.0
171
1
  6

172
1
173
1
174
1
140
1.0
141
1.0
175
1
  7

176
1
177
1
178
1
143
1.0
179
1
  8

270
1
271
1
272
1
145
1.0
146
1.0
273
1
  9

274
1
275
1
276
1
 42
1.0
 72
1
  3

 73
1
 74
1
 75
1
 94
63
  0
MATERIAL
  5
20
102
{ACAD_REACTORS
330
E
102
}
330
E
100
AcDbMaterial
  1
ByLayer
  2

 70
0
 40
1.0
 71
1
 41
1.0
 91
-1023410177
 42
1.0
 72
1
  3

 73
1
 74
1
 75
1
 44
0.5
 73
0
 45
1.0
 46
1.0
 77
1
  4

 78
1
 79
1
170
1
 48
1.0
171
1
  6

172
1
173
1
174
1
140
1.0
141
1.0
175
1
  7

176
1
177
1
178
1
143
1.0
179
1
  8

270
1
271
1
272
1
145
1.0
146
1.0
273
1
  9

274
1
275
1
276
1
 42
1.0
 72
1
  3

 73
1
 74
1
 75
1
 94
63
  0
MATERIAL
  5
21
102
{ACAD_REACTORS
330
E
102
}
330
E
100
AcDbMaterial
  1
Global
  2

 70
0
 40
1.0
 71
1
 41
1.0
 91
-1023410177
 42
1.0
 72
1
  3

 73
1
 74
1
 75
1
 44
0.5
 73
0
 45
1.0
 46
1.0
 77
1
  4

 78
1
 79
1
170
1
 48
1.0
171
1
  6

172
1
173
1
174
1
140
1.0
141
1.0
175
1
  7

176
1
177
1
178
1
143
1.0
179
1
  8

270
1
271
1
272
1
145
1.0
146
1.0
273
1
  9

274
1
275
1
276
1
 42
1.0
 72
1
  3

 73
1
 74
1
 75
1
 94
63
  0
MLINESTYLE
  5
22
102
{ACAD_REACTORS
330
10
102
}
330
10
100
AcDbMlineStyle
  2
Standard
 70
0
  3

 62
256
 51
90.0
 52
90.0
 71
2
 49
0.5
 62
256
  6
BYLAYER
 49
-0.5
 62
256
  6
BYLAYER
  0
MLEADERSTYLE
  5
2C
102
{ACAD_REACTORS
330
F
102
}
330
F
100
AcDbMLeaderStyle
179
2
170
2
171
1
172
0
 90
2
 40
0.0
 41
0.0
173
1
 91
-1056964608
 92
-2
290
1
 42
2.0
291
1
 43
8.0
  3
Standard
 44
4.0
300

342
29
174
1
175
1
176
0
178
1
 93
-1056964608
 45
4.0
292
0
297
0
 46
4.0
 94
-1056964608
 47
1.0
 49
1.0
140
1.0
294
1
141
0.0
177
0
142
1.0
295
0
296
0
143
3.75
271
0
272
9
273
9
  0
DICTIONARY
  5
2D
330
A
100
AcDbDictionary
280
1
281
1
  3
CREATED_BY_EZDXF
350
2E
  3
WRITTEN_BY_EZDXF
350
AA
  0
DICTIONARYVAR
  5
2E
330
2D
100
DictionaryVariables
280
0
  1
1.4.3 @ 2026-03-19T20:22:45.344995+00:00
  0
DICTIONARYVAR
  5
AA
330
2D
100
DictionaryVariables
280
0
  1
1.4.3 @ 2026-03-19T20:22:45.354330+00:00
  0
ENDSEC
  0
EOF
