  0
SECTION
  2
HEADER
  9
$ACADVER
  1
AC1024
  9
$ACADMAINTVER
 70
6
  9
$DWGCODEPAGE
  3
ANSI_1252
  9
$LASTSAVEDBY
  1
ezdxf
  9
$INSBASE
 10
0.0
 20
0.0
 30
0.0
  9
$EXTMIN
 10
1e+20
 20
1e+20
 30
1e+20
  9
$EXTMAX
 10
-1e+20
 20
-1e+20
 30
-1e+20
  9
$LIMMIN
 10
0.0
 20
0.0
  9
$LIMMAX
 10
420.0
 20
297.0
  9
$ORTHOMODE
 70
0
  9
$REGENMODE
 70
1
  9
$FILLMODE
 70
1
  9
$QTEXTMODE
 70
0
  9
$MIRRTEXT
 70
1
  9
$LTSCALE
 40
1.0
  9
$ATTMODE
 70
1
  9
$TEXTSIZE
 40
2.5
  9
$TRACEWID
 40
1.0
  9
$TEXTSTYLE
  7
Standard
  9
$CLAYER
  8
0
  9
$CELTYPE
  6
ByLayer
  9
$CECOLOR
 62
256
  9
$CELTSCALE
 40
1.0
  9
$DISPSILH
 70
0
  9
$DIMSCALE
 40
1.0
  9
$DIMASZ
 40
2.5
  9
$DIMEXO
 40
0.625
  9
$DIMDLI
 40
3.75
  9
$DIMRND
 40
0.0
  9
$DIMDLE
 40
0.0
  9
$DIMEXE
 40
1.25
  9
$DIMTP
 40
0.0
  9
$DIMTM
 40
0.0
  9
$DIMTXT
 40
2.5
  9
$DIMCEN
 40
2.5
  9
$DIMTSZ
 40
0.0
  9
$DIMTOL
 70
0
  9
$DIMLIM
 70
0
  9
$DIMTIH
 70
0
  9
$DIMTOH
 70
0
  9
$DIMSE1
 70
0
  9
$DIMSE2
 70
0
  9
$DIMTAD
 70
1
  9
$DIMZIN
 70
8
  9
$DIMBLK
  1

  9
$DIMASO
 70
1
  9
$DIMSHO
 70
1
  9
$DIMPOST
  1

  9
$DIMAPOST
  1

  9
$DIMALT
 70
0
  9
$DIMALTD
 70
3
  9
$DIMALTF
 40
0.03937007874
  9
$DIMLFAC
 40
1.0
  9
$DIMTOFL
 70
1
  9
$DIMTVP
 40
0.0
  9
$DIMTIX
 70
0
  9
$DIMSOXD
 70
0
  9
$DIMSAH
 70
0
  9
$DIMBLK1
  1

  9
$DIMBLK2
  1

  9
$DIMSTYLE
  2
ISO-25
  9
$DIMCLRD
 70
0
  9
$DIMCLRE
 70
0
  9
$DIMCLRT
 70
0
  9
$DIMTFAC
 40
1.0
  9
$DIMGAP
 40
0.625
  9
$DIMJUST
 70
0
  9
$DIMSD1
 70
0
  9
$DIMSD2
 70
0
  9
$DIMTOLJ
 70
0
  9
$DIMTZIN
 70
8
  9
$DIMALTZ
 70
0
  9
$DIMALTTZ
 70
0
  9
$DIMUPT
 70
0
  9
$DIMDEC
 70
2
  9
$DIMTDEC
 70
2
  9
$DIMALTU
 70
2
  9
$DIMALTTD
 70
3
  9
$DIMTXSTY
  7
Standard
  9
$DIMAUNIT
 70
0
  9
$DIMADEC
 70
0
  9
$DIMALTRND
 40
0.0
  9
$DIMAZIN
 70
0
  9
$DIMDSEP
 70
44
  9
$DIMATFIT
 70
3
  9
$DIMFRAC
 70
0
  9
$DIMLDRBLK
  1

  9
$DIMLUNIT
 70
2
  9
$DIMLWD
 70
-2
  9
$DIMLWE
 70
-2
  9
$DIMTMOVE
 70
0
  9
$DIMFXL
 40
1.0
  9
$DIMFXLON
 70
0
  9
$DIMJOGANG
 40
0.785398163397
  9
$DIMTFILL
 70
0
  9
$DIMTFILLCLR
 70
0
  9
$DIMARCSYM
 70
0
  9
$DIMLTYPE
  6

  9
$DIMLTEX1
  6

  9
$DIMLTEX2
  6

  9
$DIMTXTDIRECTION
 70
0
  9
$LUNITS
 70
2
  9
$LUPREC
 70
4
  9
$SKETCHINC
 40
1.0
  9
$FILLETRAD
 40
10.0
  9
$AUNITS
 70
0
  9
$AUPREC
 70
2
  9
$MENU
  1
.
  9
$ELEVATION
 40
0.0
  9
$PELEVATION
 40
0.0
  9
$THICKNESS
 40
0.0
  9
$LIMCHECK
 70
0
  9
$CHAMFERA
 40
0.0
  9
$CHAMFERB
 40
0.0
  9
$CHAMFERC
 40
0.0
  9
$CHAMFERD
 40
0.0
  9
$SKPOLY
 70
0
  9
$TDCREATE
 40
2461119.9741319446
  9
$TDUCREATE
 40
2458532.153996898
  9
$TDUPDATE
 40
2461119.9741319446
  9
$TDUUPDATE
 40
2458532.1544311
  9
$TDINDWG
 40
0.0
  9
$TDUSRTIMER
 40
0.0
  9
$USRTIMER
 70
1
  9
$ANGBASE
 50
0.0
  9
$ANGDIR
 70
0
  9
$PDMODE
 70
0
  9
$PDSIZE
 40
0.0
  9
$PLINEWID
 40
0.0
  9
$SPLFRAME
 70
0
  9
$SPLINETYPE
 70
6
  9
$SPLINESEGS
 70
8
  9
$HANDSEED
  5
7E
  9
$SURFTAB1
 70
6
  9
$SURFTAB2
 70
6
  9
$SURFTYPE
 70
6
  9
$SURFU
 70
6
  9
$SURFV
 70
6
  9
$UCSBASE
  2

  9
$UCSNAME
  2

  9
$UCSORG
 10
0.0
 20
0.0
 30
0.0
  9
$UCSXDIR
 10
1.0
 20
0.0
 30
0.0
  9
$UCSYDIR
 10
0.0
 20
1.0
 30
0.0
  9
$UCSORTHOREF
  2

  9
$UCSORTHOVIEW
 70
0
  9
$UCSORGTOP
 10
0.0
 20
0.0
 30
0.0
  9
$UCSORGBOTTOM
 10
0.0
 20
0.0
 30
0.0
  9
$UCSORGLEFT
 10
0.0
 20
0.0
 30
0.0
  9
$UCSORGRIGHT
 10
0.0
 20
0.0
 30
0.0
  9
$UCSORGFRONT
 10
0.0
 20
0.0
 30
0.0
  9
$UCSORGBACK
 10
0.0
 20
0.0
 30
0.0
  9
$PUCSBASE
  2

  9
$PUCSNAME
  2

  9
$PUCSORG
 10
0.0
 20
0.0
 30
0.0
  9
$PUCSXDIR
 10
1.0
 20
0.0
 30
0.0
  9
$PUCSYDIR
 10
0.0
 20
1.0
 30
0.0
  9
$PUCSORTHOREF
  2

  9
$PUCSORTHOVIEW
 70
0
  9
$PUCSORGTOP
 10
0.0
 20
0.0
 30
0.0
  9
$PUCSORGBOTTOM
 10
0.0
 20
0.0
 30
0.0
  9
$PUCSORGLEFT
 10
0.0
 20
0.0
 30
0.0
  9
$PUCSORGRIGHT
 10
0.0
 20
0.0
 30
0.0
  9
$PUCSORGFRONT
 10
0.0
 20
0.0
 30
0.0
  9
$PUCSORGBACK
 10
0.0
 20
0.0
 30
0.0
  9
$USERI1
 70
0
  9
$USERI2
 70
0
  9
$USERI3
 70
0
  9
$USERI4
 70
0
  9
$USERI5
 70
0
  9
$USERR1
 40
0.0
  9
$USERR2
 40
0.0
  9
$USERR3
 40
0.0
  9
$USERR4
 40
0.0
  9
$USERR5
 40
0.0
  9
$WORLDVIEW
 70
1
  9
$SHADEDGE
 70
3
  9
$SHADEDIF
 70
70
  9
$TILEMODE
 70
1
  9
$MAXACTVP
 70
64
  9
$PINSBASE
 10
0.0
 20
0.0
 30
0.0
  9
$PLIMCHECK
 70
0
  9
$PEXTMIN
 10
1e+20
 20
1e+20
 30
1e+20
  9
$PEXTMAX
 10
-1e+20
 20
-1e+20
 30
-1e+20
  9
$PLIMMIN
 10
0.0
 20
0.0
  9
$PLIMMAX
 10
420.0
 20
297.0
  9
$UNITMODE
 70
0
  9
$VISRETAIN
 70
1
  9
$PLINEGEN
 70
0
  9
$PSLTSCALE
 70
1
  9
$TREEDEPTH
 70
3020
  9
$CMLSTYLE
  2
Standard
  9
$CMLJUST
 70
0
  9
$CMLSCALE
 40
20.0
  9
$PROXYGRAPHICS
 70
1
  9
$MEASUREMENT
 70
1
  9
$CELWEIGHT
370
-1
  9
$ENDCAPS
280
0
  9
$JOINSTYLE
280
0
  9
$LWDISPLAY
290
0
  9
$INSUNITS
 70
6
  9
$HYPERLINKBASE
  1

  9
$STYLESHEET
  1

  9
$XEDIT
290
1
  9
$CEPSNTYPE
380
0
  9
$PSTYLEMODE
290
1
  9
$FINGERPRINTGUID
  2
{5BC8A1B0-3259-4CB7-89A6-C41D30D83C4C}
  9
$VERSIONGUID
  2
{C6B9C7DD-173C-43A9-88F1-D486CD25CDDC}
  9
$EXTNAMES
290
1
  9
$PSVPSCALE
 40
0.0
  9
$OLESTARTUP
290
0
  9
$SORTENTS
280
127
  9
$INDEXCTL
280
0
  9
$HIDETEXT
280
1
  9
$XCLIPFRAME
280
1
  9
$HALOGAP
280
0
  9
$OBSCOLOR
 70
257
  9
$OBSLTYPE
280
0
  9
$INTERSECTIONDISPLAY
280
0
  9
$INTERSECTIONCOLOR
 70
257
  9
$DIMASSOC
280
2
  9
$PROJECTNAME
  1

  9
$CAMERADISPLAY
290
0
  9
$LENSLENGTH
 40
50.0
  9
$CAMERAHEIGHT
 40
0.0
  9
$STEPSPERSEC
 40
24.0
  9
$STEPSIZE
 40
100.0
  9
$3DDWFPREC
 40
2.0
  9
$PSOLWIDTH
 40
0.005
  9
$PSOLHEIGHT
 40
0.08
  9
$LOFTANG1
 40
1.570796326795
  9
$LOFTANG2
 40
1.570796326795
  9
$LOFTMAG1
 40
0.0
  9
$LOFTMAG2
 40
0.0
  9
$LOFTPARAM
 70
7
  9
$LOFTNORMALS
280
1
  9
$LATITUDE
 40
37.795
  9
$LONGITUDE
 40
-122.394
  9
$NORTHDIRECTION
 40
0.0
  9
$TIMEZONE
 70
-8000
  9
$LIGHTGLYPHDISPLAY
280
1
  9
$TILEMODELIGHTSYNCH
280
1
  9
$CMATERIAL
347
20
  9
$SOLIDHIST
280
0
  9
$SHOWHIST
280
1
  9
$DWFFRAME
280
2
  9
$DGNFRAME
280
2
  9
$REALWORLDSCALE
290
1
  9
$INTERFERECOLOR
 62
256
  9
$CSHADOW
280
0
  9
$SHADOWPLANELOCATION
 40
0.0
  0
ENDSEC
  0
SECTION
  2
CLASSES
  0
CLASS
  1
ACDBDICTIONARYWDFLT
  2
AcDbDictionaryWithDefault
  3
ObjectDBX Classes
 90
0
 91
0
280
0
281
0
  0
CLASS
  1
SUN
  2
AcDbSun
  3
SCENEOE
 90
1153
 91
0
280
0
281
0
  0
CLASS
  1
VISUALSTYLE
  2
AcDbVisualStyle
  3
ObjectDBX Classes
 90
4095
 91
0
280
0
281
0
  0
CLASS
  1
MATERIAL
  2
AcDbMaterial
  3
ObjectDBX Classes
 90
1153
 91
0
280
0
281
0
  0
CLASS
  1
SCALE
  2
AcDbScale
  3
ObjectDBX Classes
 90
1153
 91
0
280
0
281
0
  0
CLASS
  1
TABLESTYLE
  2
AcDbTableStyle
  3
ObjectDBX Classes
 90
4095
 91
0
280
0
281
0
  0
CLASS
  1
MLEADERSTYLE
  2
AcDbMLeaderStyle
  3
ACDB_MLEADERSTYLE_CLASS
 90
4095
 91
0
280
0
281
0
  0
CLASS
  1
DICTIONARYVAR
  2
AcDbDictionaryVar
  3
ObjectDBX Classes
 90
0
 91
0
280
0
281
0
  0
CLASS
  1
CELLSTYLEMAP
  2
AcDbCellStyleMap
  3
ObjectDBX Classes
 90
1152
 91
0
280
0
281
0
  0
CLASS
  1
MENTALRAYRENDERSETTINGS
  2
AcDbMentalRayRenderSettings
  3
SCENEOE
 90
1024
 91
0
280
0
281
0
  0
CLASS
  1
ACDBDETAILVIEWSTYLE
  2
AcDbDetailViewStyle
  3
ObjectDBX Classes
 90
1025
 91
0
280
0
281
0
  0
CLASS
  1
ACDBSECTIONVIEWSTYLE
  2
AcDbSectionViewStyle
  3
ObjectDBX Classes
 90
1025
 91
0
280
0
281
0
  0
CLASS
  1
RASTERVARIABLES
  2
AcDbRasterVariables
  3
ISM
 90
0
 91
0
280
0
281
0
  0
CLASS
  1
LAYOUT
  2
AcDbLayout
  3
ObjectDBX Classes
 90
0
 91
0
280
0
281
0
  0
CLASS
  1
ACDBPLACEHOLDER
  2
AcDbPlaceHolder
  3
ObjectDBX Classes
 90
0
 91
0
280
0
281
0
  0
ENDSEC
  0
SECTION
  2
TABLES
  0
TABLE
  2
VPORT
  5
8
330
0
100
AcDbSymbolTable
 70
1
  0
VPORT
  5
23
330
8
100
AcDbSymbolTableRecord
100
AcDbViewportTableRecord
  2
*Active
 70
0
 10
0.0
 20
0.0
 11
1.0
 21
1.0
 12
0.0
 22
0.0
 13
0.0
 23
0.0
 14
0.5
 24
0.5
 15
0.5
 25
0.5
 16
0.0
 26
0.0
 36
1.0
 17
0.0
 27
0.0
 37
0.0
 40
1000.0
 41
1.34
 42
50.0
 43
0.0
 44
0.0
 50
0.0
 51
0.0
 71
0
 72
1000
 73
1
 74
3
 75
0
 76
0
 77
0
 78
0
281
0
 65
0
146
0.0
  0
ENDTAB
  0
TABLE
  2
LTYPE
  5
2
330
0
100
AcDbSymbolTable
 70
3
  0
LTYPE
  5
24
330
2
100
AcDbSymbolTableRecord
100
AcDbLinetypeTableRecord
  2
ByBlock
 70
0
  3

 72
65
 73
0
 40
0.0
  0
LTYPE
  5
25
330
2
100
AcDbSymbolTableRecord
100
AcDbLinetypeTableRecord
  2
ByLayer
 70
0
  3

 72
65
 73
0
 40
0.0
  0
LTYPE
  5
26
330
2
100
AcDbSymbolTableRecord
100
AcDbLinetypeTableRecord
  2
Continuous
 70
0
  3

 72
65
 73
0
 40
0.0
  0
ENDTAB
  0
TABLE
  2
LAYER
  5
1
330
0
100
AcDbSymbolTable
 70
6
  0
LAYER
  5
27
330
1
100
AcDbSymbolTableRecord
100
AcDbLayerTableRecord
  2
0
 70
0
 62
7
  6
Continuous
370
-3
390
13
347
21
  0
LAYER
  5
28
330
1
100
AcDbSymbolTableRecord
100
AcDbLayerTableRecord
  2
Defpoints
 70
0
 62
7
  6
Continuous
290
0
370
-3
390
13
347
21
  0
LAYER
  5
2F
330
1
100
AcDbSymbolTableRecord
100
AcDbLayerTableRecord
  2
CUTS
 70
0
 62
7
  6
Continuous
370
-3
390
13
347
21
  0
LAYER
  5
30
330
1
100
AcDbSymbolTableRecord
100
AcDbLayerTableRecord
  2
ENGRAVE
 70
0
 62
1
  6
Continuous
370
-3
390
13
347
21
  0
LAYER
  5
31
330
1
100
AcDbSymbolTableRecord
100
AcDbLayerTableRecord
  2
GUIDE
 70
0
 62
3
  6
Continuous
370
-3
390
13
347
21
  0
LAYER
  5
32
330
1
100
AcDbSymbolTableRecord
100
AcDbLayerTableRecord
  2
SHEET
 70
0
 62
8
  6
Continuous
370
-3
390
13
347
21
  0
ENDTAB
  0
TABLE
  2
STYLE
  5
5
330
0
100
AcDbSymbolTable
 70
1
  0
STYLE
  5
29
330
5
100
AcDbSymbolTableRecord
100
AcDbTextStyleTableRecord
  2
Standard
 70
0
 40
0.0
 41
1.0
 50
0.0
 71
0
 42
2.5
  3
txt
  4

  0
ENDTAB
  0
TABLE
  2
VIEW
  5
7
330
0
100
AcDbSymbolTable
 70
0
  0
ENDTAB
  0
TABLE
  2
UCS
  5
6
330
0
100
AcDbSymbolTable
 70
0
  0
ENDTAB
  0
TABLE
  2
APPID
  5
3
330
0
100
AcDbSymbolTable
 70
3
  0
APPID
  5
2A
330
3
100
AcDbSymbolTableRecord
100
AcDbRegAppTableRecord
  2
ACAD
 70
0
  0
APPID
  5
7B
330
3
100
AcDbSymbolTableRecord
100
AcDbRegAppTableRecord
  2
HATCHBACKGROUNDCOLOR
 70
0
  0
APPID
  5
7C
330
3
100
AcDbSymbolTableRecord
100
AcDbRegAppTableRecord
  2
EZDXF
 70
0
  0
ENDTAB
  0
TABLE
  2
DIMSTYLE
  5
4
330
0
100
AcDbSymbolTable
 70
1
100
AcDbDimStyleTable
  0
DIMSTYLE
105
2B
330
4
100
AcDbSymbolTableRecord
100
AcDbDimStyleTableRecord
  2
Standard
 70
0
 40
1.0
 41
2.5
 42
0.625
 43
3.75
 44
1.25
 45
0.0
 46
0.0
 47
0.0
 48
0.0
 49
2.5
140
2.5
141
2.5
142
0.0
143
0.03937007874
144
1.0
145
0.0
146
1.0
147
0.625
148
0.0
 69
0
 70
0
 71
0
 72
0
 73
0
 74
0
 75
0
 76
0
 77
1
 78
8
 79
3
170
0
171
3
172
1
173
0
174
0
175
0
176
0
177
0
178
0
179
2
271
2
272
2
273
2
274
3
275
0
276
0
277
2
278
44
279
0
280
0
281
0
282
0
283
0
284
8
285
0
286
0
288
0
289
3
290
0
371
-2
372
-2
  0
ENDTAB
  0
TABLE
  2
BLOCK_RECORD
  5
9
330
0
100
AcDbSymbolTable
 70
2
  0
BLOCK_RECORD
  5
17
330
9
100
AcDbSymbolTableRecord
100
AcDbBlockTableRecord
  2
*Model_Space
340
1A
 70
0
280
1
281
0
  0
BLOCK_RECORD
  5
1B
330
9
100
AcDbSymbolTableRecord
100
AcDbBlockTableRecord
  2
*Paper_Space
340
1E
 70
0
280
1
281
0
  0
ENDTAB
  0
ENDSEC
  0
SECTION
  2
BLOCKS
  0
BLOCK
  5
18
330
17
100
AcDbEntity
  8
0
100
AcDbBlockBegin
  2
*Model_Space
 70
0
 10
0.0
 20
0.0
 30
0.0
  3
*Model_Space
  1

  0
ENDBLK
  5
19
330
17
100
AcDbEntity
  8
0
100
AcDbBlockEnd
  0
BLOCK
  5
1C
330
1B
100
AcDbEntity
  8
0
100
AcDbBlockBegin
  2
*Paper_Space
 70
0
 10
0.0
 20
0.0
 30
0.0
  3
*Paper_Space
  1

  0
ENDBLK
  5
1D
330
1B
100
AcDbEntity
  8
0
100
AcDbBlockEnd
  0
ENDSEC
  0
SECTION
  2
ENTITIES
  0
LWPOLYLINE
  5
33
330
17
100
AcDbEntity
  8
SHEET
 62
8
100
AcDbPolyline
 90
4
 70
1
 10
0.0
 20
0.0
 10
400.0
 20
0.0
 10
400.0
 20
600.0
 10
0.0
 20
600.0
  0
LWPOLYLINE
  5
34
330
17
100
AcDbEntity
  8
CUTS
100
AcDbPolyline
 90
4
 70
1
 10
62.0
 20
106.0
 10
162.0
 20
106.0
 10
162.0
 20
186.0
 10
62.0
 20
186.0
  0
TEXT
  5
35
330
17
100
AcDbEntity
  8
ENGRAVE
100
AcDbText
 10
67.0
 20
178.0
 30
0.0
 40
3.0
  1
M3 BASE
 11
67.0
 21
178.0
 31
0.0
100
AcDbText
  0
LWPOLYLINE
  5
36
330
17
100
AcDbEntity
  8
CUTS
100
AcDbPolyline
 90
4
 70
1
 10
80.55
 20
141.0
 10
83.45
 20
141.0
 10
83.45
 20
151.0
 10
80.55
 20
151.0
  0
LWPOLYLINE
  5
37
330
17
100
AcDbEntity
  8
CUTS
100
AcDbPolyline
 90
4
 70
1
 10
140.55
 20
141.0
 10
143.45
 20
141.0
 10
143.45
 20
151.0
 10
140.55
 20
151.0
  0
LWPOLYLINE
  5
38
330
17
100
AcDbEntity
  8
CUTS
100
AcDbPolyline
 90
4
 70
1
 10
170.0
 20
106.0
 10
250.0
 20
106.0
 10
250.0
 20
226.0
 10
170.0
 20
226.0
  0
LWPOLYLINE
  5
39
330
17
100
AcDbEntity
  8
CUTS
100
AcDbPolyline
 90
4
 70
1
 10
205.0
 20
103.0
 10
215.0
 20
103.0
 10
215.0
 20
106.0
 10
205.0
 20
106.0
  0
CIRCLE
  5
3A
330
17
100
AcDbEntity
  8
CUTS
100
AcDbCircle
 10
210.0
 20
146.0
 30
0.0
 40
1.6
  0
LWPOLYLINE
  5
3B
330
17
100
AcDbEntity
  8
CUTS
100
AcDbPolyline
 90
4
 70
1
 10
208.55
 20
191.0
 10
211.45000000000002
 20
191.0
 10
211.45000000000002
 20
221.0
 10
208.55
 20
221.0
  0
TEXT
  5
3C
330
17
100
AcDbEntity
  8
ENGRAVE
100
AcDbText
 10
175.0
 20
216.0
 30
0.0
 40
3.0
  1
M3 FRAME L
 11
175.0
 21
216.0
 31
0.0
100
AcDbText
  0
LWPOLYLINE
  5
3D
330
17
100
AcDbEntity
  8
CUTS
100
AcDbPolyline
 90
4
 70
1
 10
258.0
 20
106.0
 10
338.0
 20
106.0
 10
338.0
 20
226.0
 10
258.0
 20
226.0
  0
LWPOLYLINE
  5
3E
330
17
100
AcDbEntity
  8
CUTS
100
AcDbPolyline
 90
4
 70
1
 10
293.0
 20
103.0
 10
303.0
 20
103.0
 10
303.0
 20
106.0
 10
293.0
 20
106.0
  0
CIRCLE
  5
3F
330
17
100
AcDbEntity
  8
CUTS
100
AcDbCircle
 10
298.0
 20
146.0
 30
0.0
 40
1.6
  0
LWPOLYLINE
  5
40
330
17
100
AcDbEntity
  8
CUTS
100
AcDbPolyline
 90
4
 70
1
 10
296.55
 20
191.0
 10
299.45000000000005
 20
191.0
 10
299.45000000000005
 20
221.0
 10
296.55
 20
221.0
  0
TEXT
  5
41
330
17
100
AcDbEntity
  8
ENGRAVE
100
AcDbText
 10
263.0
 20
216.0
 30
0.0
 40
3.0
  1
M3 FRAME R
 11
263.0
 21
216.0
 31
0.0
100
AcDbText
  0
LWPOLYLINE
  5
42
330
17
100
AcDbEntity
  8
CUTS
100
AcDbPolyline
 90
72
 70
1
 10
110.0
 20
43.0
 10
110.53927318748568
 20
44.62197623391512
 10
110.92361005585958
 20
46.336743025254066
 10
111.13666487320323
 20
48.12765389859984
 10
111.16422380804924
 20
49.97520702894561
 10
110.99469571757612
 20
51.8573720774297
 10
110.61954618136544
 20
53.75
 10
110.03366096995254
 20
55.62730535267899
 10
109.23562711168432
 20
57.46240835252345
 10
108.22792206135786
 20
59.22792206135785
 10
107.01700410990043
 20
60.89656859797586
 10
105.6133000270695
 20
62.441807298841695
 10
104.03108891324554
 20
63.838457268119896
 10
102.28828426224902
 20
65.06329680056258
 10
100.40611921376492
 20
66.09562272506277
 10
98.40874281184537
 20
66.91775378644877
 10
96.32273769964459
 20
67.51546372697042
 10
94.17657199129209
 20
67.87833170119416
 10
92.0
 20
68.0
 10
89.8234280087079
 20
67.87833170119416
 10
87.67726230035541
 20
67.51546372697042
 10
85.59125718815463
 20
66.91775378644877
 10
83.59388078623508
 20
66.09562272506278
 10
81.71171573775099
 20
65.0632968005626
 10
79.96891108675447
 20
63.838457268119896
 10
78.38669997293049
 20
62.44180729884169
 10
76.98299589009956
 20
60.89656859797586
 10
75.77207793864214
 20
59.22792206135786
 10
74.76437288831568
 20
57.462408352523454
 10
73.96633903004746
 20
55.62730535267899
 10
73.38045381863456
 20
53.75
 10
73.00530428242388
 20
51.8573720774297
 10
72.83577619195077
 20
49.97520702894562
 10
72.86333512679677
 20
48.127653898599846
 10
73.07638994414042
 20
46.336743025254066
 10
73.46072681251432
 20
44.62197623391512
 10
74.0
 20
43.0
 10
74.67626405618284
 20
41.48436949499943
 10
75.4705309474201
 20
40.08540862924457
 10
76.36333512679677
 20
38.81016827490909
 10
77.33528945975654
 20
37.66248186922154
 10
78.36761538425672
 20
36.64311465476453
 10
79.44263164512564
 20
35.75
 10
80.54418737554883
 20
34.97855364404133
 10
81.65802715940112
 20
34.32205440380804
 10
82.77207793864214
 20
33.77207793864214
 10
83.87665016118501
 20
33.31896864569265
 10
84.96454831843184
 20
32.95233370443799
 10
86.03108891324553
 20
32.661542731880104
 10
87.07402683958384
 20
32.436216467243185
 10
88.09339405404086
 20
32.26668837677008
 10
89.09125718815463
 20
32.14442404004231
 10
90.0714033036351
 20
32.06238461853093
 10
91.03896525237641
 20
32.01532256989131
 10
92.0
 20
32.0
 10
92.96103474762359
 20
32.01532256989131
 10
93.9285966963649
 20
32.06238461853093
 10
94.90874281184537
 20
32.14442404004231
 10
95.90660594595914
 20
32.26668837677008
 10
96.92597316041616
 20
32.436216467243185
 10
97.96891108675447
 20
32.661542731880104
 10
99.03545168156815
 20
32.95233370443799
 10
100.12334983881497
 20
33.31896864569265
 10
101.22792206135784
 20
33.77207793864214
 10
102.34197284059887
 20
34.32205440380804
 10
103.45581262445117
 20
34.97855364404133
 10
104.55736835487436
 20
35.75
 10
105.63238461574328
 20
36.64311465476453
 10
106.66471054024346
 20
37.66248186922154
 10
107.63666487320323
 20
38.81016827490909
 10
108.5294690525799
 20
40.08540862924457
 10
109.32373594381716
 20
41.48436949499943
  0
CIRCLE
  5
43
330
17
100
AcDbEntity
  8
CUTS
100
AcDbCircle
 10
92.0
 20
43.0
 30
0.0
 40
1.6
  0
TEXT
  5
44
330
17
100
AcDbEntity
  8
ENGRAVE
100
AcDbText
 10
82.0
 20
41.0
 30
0.0
 40
3.0
  1
M3 EGG
 11
82.0
 21
41.0
 31
0.0
100
AcDbText
  0
CIRCLE
  5
45
330
17
100
AcDbEntity
  8
CUTS
100
AcDbCircle
 10
150.0
 20
43.0
 30
0.0
 40
20.0
  0
CIRCLE
  5
46
330
17
100
AcDbEntity
  8
CUTS
100
AcDbCircle
 10
155.0
 20
43.0
 30
0.0
 40
1.6
  0
TEXT
  5
47
330
17
100
AcDbEntity
  8
ENGRAVE
100
AcDbText
 10
138.0
 20
41.0
 30
0.0
 40
3.0
  1
M3 ROUND
 11
138.0
 21
41.0
 31
0.0
100
AcDbText
  0
LWPOLYLINE
  5
48
330
17
100
AcDbEntity
  8
CUTS
100
AcDbPolyline
 90
72
 70
1
 10
213.0
 20
43.0
 10
213.1694875430199
 20
43.88971487388234
 10
213.25841409387718
 20
44.80883518403052
 10
213.26296190432134
 20
45.74995235421428
 10
213.18000339184735
 20
46.70521821936141
 10
213.007148481863
 20
47.66640997338689
 10
212.74278579257492
 20
48.625
 10
212.3861171741447
 20
49.572229999855736
 10
211.9371851697214
 20
50.49918877967629
 10
211.39689302659025
 20
51.39689302659025
 10
210.76701695037903
 20
52.25637035435432
 10
210.0502103634816
 20
53.06874387771886
 10
209.25
 20
53.82531754730548
 10
208.37077374295473
 20
54.51766146025743
 10
207.41776018462323
 20
55.13769635181798
 10
206.39699996697058
 20
55.67777647004402
 10
205.31530903555907
 20
56.13077004016277
 10
204.18023401637453
 20
56.49013653665905
 10
203.0
 20
56.75
 10
201.78345109081394
 20
56.90521766086395
 10
200.5399841497185
 20
56.95144316767295
 10
199.27947622665127
 20
56.885183752905355
 10
198.01220624316733
 20
56.7038507197945
 10
196.7487715450855
 20
56.40580268325045
 10
195.5
 20
55.99038105676658
 10
194.27685836382784
 20
55.45793734022841
 10
193.09035768399917
 20
54.809851831417575
 10
191.9514565439602
 20
54.04854345603981
 10
190.8709629839495
 20
53.17747048670354
 10
189.85943595619742
 20
52.20112199979803
 10
188.92708718850287
 20
51.125
 10
188.08368433835514
 20
49.955592224482345
 10
187.33845632023485
 20
48.70033572209448
 10
186.700001681372
 20
47.36757138610504
 10
186.17620088604144
 20
45.96648970181006
 10
185.7741333454969
 20
44.50706805167825
 10
185.5
 20
43.0
 10
185.35905222129202
 20
41.45661705551022
 10
185.35552775853125
 20
39.8888034834675
 10
185.49259439851062
 20
38.30890480751681
 10
185.77230195225835
 20
36.72963070569608
 10
186.1955431153621
 20
35.16395306355787
 10
186.76202367904176
 20
33.625
 10
187.47024249368786
 20
32.12594672751142
 10
188.31748150688625
 20
30.679904147674662
 10
189.29980611451066
 20
29.299806114510645
 10
190.41207597697195
 20
27.998296322253353
 10
191.64796636388553
 20
26.787615790113705
 10
193.0
 20
25.679491924311236
 10
194.45958929399004
 20
24.685030136967697
 10
196.01708874043427
 20
23.814608992287702
 10
197.6618571947605
 20
23.077779832787968
 10
199.38232963193894
 20
22.483171812245672
 10
201.16609791301804
 20
22.03840322765285
 10
203.0
 20
21.75
 10
204.8702169797935
 20
21.62332210344796
 10
206.7623771827835
 20
21.662498684735496
 10
208.66166661161762
 20
21.87037254992663
 10
210.5529448317752
 20
22.248454624311194
 10
212.42086541796976
 20
22.796888913974684
 10
214.25
 20
23.51442841485013
 10
216.024964908805
 20
24.398422327604138
 10
217.73054938864985
 20
25.44481484519008
 10
219.35184431493892
 20
26.648155685061084
 10
220.8743703394428
 20
28.00162244064741
 10
222.28420437597
 20
29.49705472756912
 10
223.56810333988042
 20
31.124999999999986
 10
224.71362406441975
 20
32.874770812462415
 10
225.70923833565945
 20
34.734513202963015
 10
226.54444201579605
 20
36.691285775626056
 10
227.20985726155013
 20
38.731148965687964
 10
227.6973268901912
 20
40.8392638777143
  0
CIRCLE
  5
49
330
17
100
AcDbEntity
  8
CUTS
100
AcDbCircle
 10
203.0
 20
43.0
 30
0.0
 40
1.6
  0
TEXT
  5
4A
330
17
100
AcDbEntity
  8
ENGRAVE
100
AcDbText
 10
191.0
 20
41.0
 30
0.0
 40
3.0
  1
M3 SNAIL
 11
191.0
 21
41.0
 31
0.0
100
AcDbText
  0
LWPOLYLINE
  5
4B
330
17
100
AcDbEntity
  8
CUTS
100
AcDbPolyline
 90
4
 70
1
 10
62.0
 20
5.0
 10
77.0
 20
5.0
 10
77.0
 20
85.0
 10
62.0
 20
85.0
  0
CIRCLE
  5
4C
330
17
100
AcDbEntity
  8
CUTS
100
AcDbCircle
 10
69.5
 20
80.0
 30
0.0
 40
1.5
  0
TEXT
  5
4D
330
17
100
AcDbEntity
  8
ENGRAVE
100
AcDbText
 10
63.0
 20
40.0
 30
0.0
 40
2.0
  1
FOL
 11
63.0
 21
40.0
 31
0.0
100
AcDbText
  0
LWPOLYLINE
  5
4E
330
17
100
AcDbEntity
  8
CUTS
100
AcDbPolyline
 90
4
 70
1
 10
85.0
 20
5.0
 10
145.0
 20
5.0
 10
145.0
 20
17.0
 10
85.0
 20
17.0
  0
CIRCLE
  5
4F
330
17
100
AcDbEntity
  8
CUTS
100
AcDbCircle
 10
93.0
 20
11.0
 30
0.0
 40
1.6
  0
TEXT
  5
50
330
17
100
AcDbEntity
  8
ENGRAVE
100
AcDbText
 10
103.0
 20
7.0
 30
0.0
 40
2.0
  1
M3 HANDLE
 11
103.0
 21
7.0
 31
0.0
100
AcDbText
  0
LWPOLYLINE
  5
51
330
17
100
AcDbEntity
  8
CUTS
100
AcDbPolyline
 90
4
 70
1
 10
52.0
 20
310.0
 10
232.0
 20
310.0
 10
232.0
 20
430.0
 10
52.0
 20
430.0
  0
TEXT
  5
52
330
17
100
AcDbEntity
  8
ENGRAVE
100
AcDbText
 10
57.0
 20
422.0
 30
0.0
 40
3.0
  1
M2 BASE
 11
57.0
 21
422.0
 31
0.0
100
AcDbText
  0
LWPOLYLINE
  5
53
330
17
100
AcDbEntity
  8
CUTS
100
AcDbPolyline
 90
4
 70
1
 10
80.55
 20
350.0
 10
83.45
 20
350.0
 10
83.45
 20
360.0
 10
80.55
 20
360.0
  0
LWPOLYLINE
  5
54
330
17
100
AcDbEntity
  8
CUTS
100
AcDbPolyline
 90
4
 70
1
 10
80.55
 20
380.0
 10
83.45
 20
380.0
 10
83.45
 20
390.0
 10
80.55
 20
390.0
  0
LWPOLYLINE
  5
55
330
17
100
AcDbEntity
  8
CUTS
100
AcDbPolyline
 90
4
 70
1
 10
200.55
 20
350.0
 10
203.45000000000002
 20
350.0
 10
203.45000000000002
 20
360.0
 10
200.55
 20
360.0
  0
LWPOLYLINE
  5
56
330
17
100
AcDbEntity
  8
CUTS
100
AcDbPolyline
 90
4
 70
1
 10
200.55
 20
380.0
 10
203.45000000000002
 20
380.0
 10
203.45000000000002
 20
390.0
 10
200.55
 20
390.0
  0
CIRCLE
  5
57
330
17
100
AcDbEntity
  8
CUTS
100
AcDbCircle
 10
142.0
 20
330.0
 30
0.0
 40
1.6
  0
LWPOLYLINE
  5
58
330
17
100
AcDbEntity
  8
CUTS
100
AcDbPolyline
 90
4
 70
1
 10
240.0
 20
310.0
 10
290.0
 20
310.0
 10
290.0
 20
510.0
 10
240.0
 20
510.0
  0
LWPOLYLINE
  5
59
330
17
100
AcDbEntity
  8
CUTS
100
AcDbPolyline
 90
4
 70
1
 10
245.0
 20
307.0
 10
255.0
 20
307.0
 10
255.0
 20
310.0
 10
245.0
 20
310.0
  0
LWPOLYLINE
  5
5A
330
17
100
AcDbEntity
  8
CUTS
100
AcDbPolyline
 90
4
 70
1
 10
275.0
 20
307.0
 10
285.0
 20
307.0
 10
285.0
 20
310.0
 10
275.0
 20
310.0
  0
LWPOLYLINE
  5
5B
330
17
100
AcDbEntity
  8
CUTS
100
AcDbPolyline
 90
4
 70
1
 10
260.0
 20
507.05
 10
270.0
 20
507.05
 10
270.0
 20
509.95000000000005
 10
260.0
 20
509.95000000000005
  0
CIRCLE
  5
5C
330
17
100
AcDbEntity
  8
CUTS
100
AcDbCircle
 10
265.0
 20
490.0
 30
0.0
 40
2.0
  0
TEXT
  5
5D
330
17
100
AcDbEntity
  8
ENGRAVE
100
AcDbText
 10
243.0
 20
500.0
 30
0.0
 40
3.0
  1
M2 UP L
 11
243.0
 21
500.0
 31
0.0
100
AcDbText
  0
LWPOLYLINE
  5
5E
330
17
100
AcDbEntity
  8
CUTS
100
AcDbPolyline
 90
4
 70
1
 10
298.0
 20
310.0
 10
348.0
 20
310.0
 10
348.0
 20
510.0
 10
298.0
 20
510.0
  0
LWPOLYLINE
  5
5F
330
17
100
AcDbEntity
  8
CUTS
100
AcDbPolyline
 90
4
 70
1
 10
303.0
 20
307.0
 10
313.0
 20
307.0
 10
313.0
 20
310.0
 10
303.0
 20
310.0
  0
LWPOLYLINE
  5
60
330
17
100
AcDbEntity
  8
CUTS
100
AcDbPolyline
 90
4
 70
1
 10
333.0
 20
307.0
 10
343.0
 20
307.0
 10
343.0
 20
310.0
 10
333.0
 20
310.0
  0
LWPOLYLINE
  5
61
330
17
100
AcDbEntity
  8
CUTS
100
AcDbPolyline
 90
4
 70
1
 10
318.0
 20
507.05
 10
328.0
 20
507.05
 10
328.0
 20
509.95000000000005
 10
318.0
 20
509.95000000000005
  0
CIRCLE
  5
62
330
17
100
AcDbEntity
  8
CUTS
100
AcDbCircle
 10
323.0
 20
490.0
 30
0.0
 40
2.0
  0
TEXT
  5
63
330
17
100
AcDbEntity
  8
ENGRAVE
100
AcDbText
 10
301.0
 20
500.0
 30
0.0
 40
3.0
  1
M2 UP R
 11
301.0
 21
500.0
 31
0.0
100
AcDbText
  0
LWPOLYLINE
  5
64
330
17
100
AcDbEntity
  8
CUTS
100
AcDbPolyline
 90
4
 70
1
 10
52.0
 20
262.0
 10
178.0
 20
262.0
 10
178.0
 20
292.0
 10
52.0
 20
292.0
  0
LWPOLYLINE
  5
65
330
17
100
AcDbEntity
  8
CUTS
100
AcDbPolyline
 90
4
 70
1
 10
55.0
 20
259.0
 10
65.0
 20
259.0
 10
65.0
 20
262.0
 10
55.0
 20
262.0
  0
LWPOLYLINE
  5
66
330
17
100
AcDbEntity
  8
CUTS
100
AcDbPolyline
 90
4
 70
1
 10
165.0
 20
259.0
 10
175.0
 20
259.0
 10
175.0
 20
262.0
 10
165.0
 20
262.0
  0
CIRCLE
  5
67
330
17
100
AcDbEntity
  8
CUTS
100
AcDbCircle
 10
115.0
 20
277.0
 30
0.0
 40
1.6
  0
CIRCLE
  5
68
330
17
100
AcDbEntity
  8
CUTS
100
AcDbCircle
 10
130.0
 20
277.0
 30
0.0
 40
2.0
  0
TEXT
  5
69
330
17
100
AcDbEntity
  8
ENGRAVE
100
AcDbText
 10
57.0
 20
284.0
 30
0.0
 40
3.0
  1
M2 TOP BEAM
 11
57.0
 21
284.0
 31
0.0
100
AcDbText
  0
CIRCLE
  5
6A
330
17
100
AcDbEntity
  8
CUTS
100
AcDbCircle
 10
211.0
 20
287.0
 30
0.0
 40
25.0
  0
CIRCLE
  5
6B
330
17
100
AcDbEntity
  8
CUTS
100
AcDbCircle
 10
211.0
 20
287.0
 30
0.0
 40
1.6
  0
CIRCLE
  5
6C
330
17
100
AcDbEntity
  8
ENGRAVE
100
AcDbCircle
 10
211.0
 20
287.0
 30
0.0
 40
22.0
  0
TEXT
  5
6D
330
17
100
AcDbEntity
  8
ENGRAVE
100
AcDbText
 10
199.0
 20
285.0
 30
0.0
 40
3.0
  1
M2 PULLEY
 11
199.0
 21
285.0
 31
0.0
100
AcDbText
  0
CIRCLE
  5
6E
330
17
100
AcDbEntity
  8
CUTS
100
AcDbCircle
 10
264.0
 20
287.0
 30
0.0
 40
20.0
  0
CIRCLE
  5
6F
330
17
100
AcDbEntity
  8
CUTS
100
AcDbCircle
 10
264.0
 20
287.0
 30
0.0
 40
1.6
  0
LWPOLYLINE
  5
70
330
17
100
AcDbEntity
  8
CUTS
100
AcDbPolyline
 90
4
 70
1
 10
273.0
 20
285.55
 10
279.0
 20
285.55
 10
279.0
 20
288.45
 10
273.0
 20
288.45
  0
TEXT
  5
71
330
17
100
AcDbEntity
  8
ENGRAVE
100
AcDbText
 10
252.0
 20
285.0
 30
0.0
 40
3.0
  1
M2 DRUM
 11
252.0
 21
285.0
 31
0.0
100
AcDbText
  0
LWPOLYLINE
  5
72
330
17
100
AcDbEntity
  8
CUTS
100
AcDbPolyline
 90
4
 70
1
 10
52.0
 20
234.0
 10
132.0
 20
234.0
 10
132.0
 20
249.0
 10
52.0
 20
249.0
  0
CIRCLE
  5
73
330
17
100
AcDbEntity
  8
CUTS
100
AcDbCircle
 10
62.0
 20
241.5
 30
0.0
 40
1.6
  0
CIRCLE
  5
74
330
17
100
AcDbEntity
  8
CUTS
100
AcDbCircle
 10
122.0
 20
241.5
 30
0.0
 40
3.0
  0
TEXT
  5
75
330
17
100
AcDbEntity
  8
ENGRAVE
100
AcDbText
 10
72.0
 20
236.0
 30
0.0
 40
3.0
  1
M2 CRANK
 11
72.0
 21
236.0
 31
0.0
100
AcDbText
  0
LWPOLYLINE
  5
76
330
17
100
AcDbEntity
  8
CUTS
100
AcDbPolyline
 90
4
 70
1
 10
140.0
 20
234.0
 10
190.0
 20
234.0
 10
190.0
 20
284.0
 10
140.0
 20
284.0
  0
CIRCLE
  5
77
330
17
100
AcDbEntity
  8
CUTS
100
AcDbCircle
 10
165.0
 20
279.0
 30
0.0
 40
2.0
  0
CIRCLE
  5
78
330
17
100
AcDbEntity
  8
CUTS
100
AcDbCircle
 10
155.0
 20
249.0
 30
0.0
 40
1.6
  0
CIRCLE
  5
79
330
17
100
AcDbEntity
  8
CUTS
100
AcDbCircle
 10
175.0
 20
249.0
 30
0.0
 40
1.6
  0
TEXT
  5
7A
330
17
100
AcDbEntity
  8
ENGRAVE
100
AcDbText
 10
145.0
 20
264.0
 30
0.0
 40
3.0
  1
M2 HOOK
 11
145.0
 21
264.0
 31
0.0
100
AcDbText
  0
ENDSEC
  0
SECTION
  2
OBJECTS
  0
DICTIONARY
  5
A
330
0
100
AcDbDictionary
281
1
  3
ACAD_COLOR
350
B
  3
ACAD_GROUP
350
C
  3
ACAD_LAYOUT
350
D
  3
ACAD_MATERIAL
350
E
  3
ACAD_MLEADERSTYLE
350
F
  3
ACAD_MLINESTYLE
350
10
  3
ACAD_PLOTSETTINGS
350
11
  3
ACAD_PLOTSTYLENAME
350
12
  3
ACAD_SCALELIST
350
14
  3
ACAD_TABLESTYLE
350
15
  3
ACAD_VISUALSTYLE
350
16
  3
EZDXF_META
350
2D
  0
DICTIONARY
  5
B
330
A
100
AcDbDictionary
281
1
  0
DICTIONARY
  5
C
330
A
100
AcDbDictionary
281
1
  0
DICTIONARY
  5
D
330
A
100
AcDbDictionary
281
1
  3
Model
350
1A
  3
Layout1
350
1E
  0
DICTIONARY
  5
E
330
A
100
AcDbDictionary
281
1
  3
ByBlock
350
1F
  3
ByLayer
350
20
  3
Global
350
21
  0
DICTIONARY
  5
F
330
A
100
AcDbDictionary
281
1
  3
Standard
350
2C
  0
DICTIONARY
  5
10
330
A
100
AcDbDictionary
281
1
  3
Standard
350
22
  0
DICTIONARY
  5
11
330
A
100
AcDbDictionary
281
1
  0
ACDBDICTIONARYWDFLT
  5
12
330
A
100
AcDbDictionary
281
1
  3
Normal
350
13
100
AcDbDictionaryWithDefault
340
13
  0
ACDBPLACEHOLDER
  5
13
330
12
  0
DICTIONARY
  5
14
330
A
100
AcDbDictionary
281
1
  0
DICTIONARY
  5
15
330
A
100
AcDbDictionary
281
1
  0
DICTIONARY
  5
16
330
A
100
AcDbDictionary
281
1
  0
LAYOUT
  5
1A
330
D
100
AcDbPlotSettings
  1

  4
A3
  6

 40
7.5
 41
20.0
 42
7.5
 43
20.0
 44
420.0
 45
297.0
 46
0.0
 47
0.0
 48
0.0
 49
0.0
140
0.0
141
0.0
142
1.0
143
1.0
 70
1024
 72
1
 73
0
 74
5
  7

 75
16
 76
0
 77
2
 78
300
147
1.0
148
0.0
149
0.0
100
AcDbLayout
  1
Model
 70
1
 71
0
 10
0.0
 20
0.0
 11
420.0
 21
297.0
 12
0.0
 22
0.0
 32
0.0
 14
1e+20
 24
1e+20
 34
1e+20
 15
-1e+20
 25
-1e+20
 35
-1e+20
146
0.0
 13
0.0
 23
0.0
 33
0.0
 16
1.0
 26
0.0
 36
0.0
 17
0.0
 27
1.0
 37
0.0
 76
1
330
17
  0
LAYOUT
  5
1E
330
D
100
AcDbPlotSettings
  1

  4
A3
  6

 40
7.5
 41
20.0
 42
7.5
 43
20.0
 44
420.0
 45
297.0
 46
0.0
 47
0.0
 48
0.0
 49
0.0
140
0.0
141
0.0
142
1.0
143
1.0
 70
0
 72
1
 73
0
 74
5
  7

 75
16
 76
0
 77
2
 78
300
147
1.0
148
0.0
149
0.0
100
AcDbLayout
  1
Layout1
 70
1
 71
1
 10
0.0
 20
0.0
 11
420.0
 21
297.0
 12
0.0
 22
0.0
 32
0.0
 14
1e+20
 24
1e+20
 34
1e+20
 15
-1e+20
 25
-1e+20
 35
-1e+20
146
0.0
 13
0.0
 23
0.0
 33
0.0
 16
1.0
 26
0.0
 36
0.0
 17
0.0
 27
1.0
 37
0.0
 76
1
330
1B
  0
MATERIAL
  5
1F
102
{ACAD_REACTORS
330
E
102
}
330
E
100
AcDbMaterial
  1
ByBlock
  2

 70
0
 40
1.0
 71
1
 41
1.0
 91
-1023410177
 42
1.0
 72
1
  3

 73
1
 74
1
 75
1
 44
0.5
 73
0
 45
1.0
 46
1.0
 77
1
  4

 78
1
 79
1
170
1
 48
1.0
171
1
  6

172
1
173
1
174
1
140
1.0
141
1.0
175
1
  7

176
1
177
1
178
1
143
1.0
179
1
  8

270
1
271
1
272
1
145
1.0
146
1.0
273
1
  9

274
1
275
1
276
1
 42
1.0
 72
1
  3

 73
1
 74
1
 75
1
 94
63
  0
MATERIAL
  5
20
102
{ACAD_REACTORS
330
E
102
}
330
E
100
AcDbMaterial
  1
ByLayer
  2

 70
0
 40
1.0
 71
1
 41
1.0
 91
-1023410177
 42
1.0
 72
1
  3

 73
1
 74
1
 75
1
 44
0.5
 73
0
 45
1.0
 46
1.0
 77
1
  4

 78
1
 79
1
170
1
 48
1.0
171
1
  6

172
1
173
1
174
1
140
1.0
141
1.0
175
1
  7

176
1
177
1
178
1
143
1.0
179
1
  8

270
1
271
1
272
1
145
1.0
146
1.0
273
1
  9

274
1
275
1
276
1
 42
1.0
 72
1
  3

 73
1
 74
1
 75
1
 94
63
  0
MATERIAL
  5
21
102
{ACAD_REACTORS
330
E
102
}
330
E
100
AcDbMaterial
  1
Global
  2

 70
0
 40
1.0
 71
1
 41
1.0
 91
-1023410177
 42
1.0
 72
1
  3

 73
1
 74
1
 75
1
 44
0.5
 73
0
 45
1.0
 46
1.0
 77
1
  4

 78
1
 79
1
170
1
 48
1.0
171
1
  6

172
1
173
1
174
1
140
1.0
141
1.0
175
1
  7

176
1
177
1
178
1
143
1.0
179
1
  8

270
1
271
1
272
1
145
1.0
146
1.0
273
1
  9

274
1
275
1
276
1
 42
1.0
 72
1
  3

 73
1
 74
1
 75
1
 94
63
  0
MLINESTYLE
  5
22
102
{ACAD_REACTORS
330
10
102
}
330
10
100
AcDbMlineStyle
  2
Standard
 70
0
  3

 62
256
 51
90.0
 52
90.0
 71
2
 49
0.5
 62
256
  6
BYLAYER
 49
-0.5
 62
256
  6
BYLAYER
  0
MLEADERSTYLE
  5
2C
102
{ACAD_REACTORS
330
F
102
}
330
F
100
AcDbMLeaderStyle
179
2
170
2
171
1
172
0
 90
2
 40
0.0
 41
0.0
173
1
 91
-1056964608
 92
-2
290
1
 42
2.0
291
1
 43
8.0
  3
Standard
 44
4.0
300

342
29
174
1
175
1
176
0
178
1
 93
-1056964608
 45
4.0
292
0
297
0
 46
4.0
 94
-1056964608
 47
1.0
 49
1.0
140
1.0
294
1
141
0.0
177
0
142
1.0
295
0
296
0
143
3.75
271
0
272
9
273
9
  0
DICTIONARY
  5
2D
330
A
100
AcDbDictionary
280
1
281
1
  3
CREATED_BY_EZDXF
350
2E
  3
WRITTEN_BY_EZDXF
350
7D
  0
DICTIONARYVAR
  5
2E
330
2D
100
DictionaryVariables
280
0
  1
1.4.3 @ 2026-03-19T20:22:45.246142+00:00
  0
DICTIONARYVAR
  5
7D
330
2D
100
DictionaryVariables
280
0
  1
1.4.3 @ 2026-03-19T20:22:45.260374+00:00
  0
ENDSEC
  0
EOF
