  0
SECTION
  2
HEADER
  9
$ACADVER
  1
AC1024
  9
$ACADMAINTVER
 70
6
  9
$DWGCODEPAGE
  3
ANSI_1252
  9
$LASTSAVEDBY
  1
ezdxf
  9
$INSBASE
 10
0.0
 20
0.0
 30
0.0
  9
$EXTMIN
 10
1e+20
 20
1e+20
 30
1e+20
  9
$EXTMAX
 10
-1e+20
 20
-1e+20
 30
-1e+20
  9
$LIMMIN
 10
0.0
 20
0.0
  9
$LIMMAX
 10
420.0
 20
297.0
  9
$ORTHOMODE
 70
0
  9
$REGENMODE
 70
1
  9
$FILLMODE
 70
1
  9
$QTEXTMODE
 70
0
  9
$MIRRTEXT
 70
1
  9
$LTSCALE
 40
1.0
  9
$ATTMODE
 70
1
  9
$TEXTSIZE
 40
2.5
  9
$TRACEWID
 40
1.0
  9
$TEXTSTYLE
  7
Standard
  9
$CLAYER
  8
0
  9
$CELTYPE
  6
ByLayer
  9
$CECOLOR
 62
256
  9
$CELTSCALE
 40
1.0
  9
$DISPSILH
 70
0
  9
$DIMSCALE
 40
1.0
  9
$DIMASZ
 40
2.5
  9
$DIMEXO
 40
0.625
  9
$DIMDLI
 40
3.75
  9
$DIMRND
 40
0.0
  9
$DIMDLE
 40
0.0
  9
$DIMEXE
 40
1.25
  9
$DIMTP
 40
0.0
  9
$DIMTM
 40
0.0
  9
$DIMTXT
 40
2.5
  9
$DIMCEN
 40
2.5
  9
$DIMTSZ
 40
0.0
  9
$DIMTOL
 70
0
  9
$DIMLIM
 70
0
  9
$DIMTIH
 70
0
  9
$DIMTOH
 70
0
  9
$DIMSE1
 70
0
  9
$DIMSE2
 70
0
  9
$DIMTAD
 70
1
  9
$DIMZIN
 70
8
  9
$DIMBLK
  1

  9
$DIMASO
 70
1
  9
$DIMSHO
 70
1
  9
$DIMPOST
  1

  9
$DIMAPOST
  1

  9
$DIMALT
 70
0
  9
$DIMALTD
 70
3
  9
$DIMALTF
 40
0.03937007874
  9
$DIMLFAC
 40
1.0
  9
$DIMTOFL
 70
1
  9
$DIMTVP
 40
0.0
  9
$DIMTIX
 70
0
  9
$DIMSOXD
 70
0
  9
$DIMSAH
 70
0
  9
$DIMBLK1
  1

  9
$DIMBLK2
  1

  9
$DIMSTYLE
  2
ISO-25
  9
$DIMCLRD
 70
0
  9
$DIMCLRE
 70
0
  9
$DIMCLRT
 70
0
  9
$DIMTFAC
 40
1.0
  9
$DIMGAP
 40
0.625
  9
$DIMJUST
 70
0
  9
$DIMSD1
 70
0
  9
$DIMSD2
 70
0
  9
$DIMTOLJ
 70
0
  9
$DIMTZIN
 70
8
  9
$DIMALTZ
 70
0
  9
$DIMALTTZ
 70
0
  9
$DIMUPT
 70
0
  9
$DIMDEC
 70
2
  9
$DIMTDEC
 70
2
  9
$DIMALTU
 70
2
  9
$DIMALTTD
 70
3
  9
$DIMTXSTY
  7
Standard
  9
$DIMAUNIT
 70
0
  9
$DIMADEC
 70
0
  9
$DIMALTRND
 40
0.0
  9
$DIMAZIN
 70
0
  9
$DIMDSEP
 70
44
  9
$DIMATFIT
 70
3
  9
$DIMFRAC
 70
0
  9
$DIMLDRBLK
  1

  9
$DIMLUNIT
 70
2
  9
$DIMLWD
 70
-2
  9
$DIMLWE
 70
-2
  9
$DIMTMOVE
 70
0
  9
$DIMFXL
 40
1.0
  9
$DIMFXLON
 70
0
  9
$DIMJOGANG
 40
0.785398163397
  9
$DIMTFILL
 70
0
  9
$DIMTFILLCLR
 70
0
  9
$DIMARCSYM
 70
0
  9
$DIMLTYPE
  6

  9
$DIMLTEX1
  6

  9
$DIMLTEX2
  6

  9
$DIMTXTDIRECTION
 70
0
  9
$LUNITS
 70
2
  9
$LUPREC
 70
4
  9
$SKETCHINC
 40
1.0
  9
$FILLETRAD
 40
10.0
  9
$AUNITS
 70
0
  9
$AUPREC
 70
2
  9
$MENU
  1
.
  9
$ELEVATION
 40
0.0
  9
$PELEVATION
 40
0.0
  9
$THICKNESS
 40
0.0
  9
$LIMCHECK
 70
0
  9
$CHAMFERA
 40
0.0
  9
$CHAMFERB
 40
0.0
  9
$CHAMFERC
 40
0.0
  9
$CHAMFERD
 40
0.0
  9
$SKPOLY
 70
0
  9
$TDCREATE
 40
2461119.9741203706
  9
$TDUCREATE
 40
2458532.153996898
  9
$TDUPDATE
 40
2461119.9741203706
  9
$TDUUPDATE
 40
2458532.1544311
  9
$TDINDWG
 40
0.0
  9
$TDUSRTIMER
 40
0.0
  9
$USRTIMER
 70
1
  9
$ANGBASE
 50
0.0
  9
$ANGDIR
 70
0
  9
$PDMODE
 70
0
  9
$PDSIZE
 40
0.0
  9
$PLINEWID
 40
0.0
  9
$SPLFRAME
 70
0
  9
$SPLINETYPE
 70
6
  9
$SPLINESEGS
 70
8
  9
$HANDSEED
  5
96
  9
$SURFTAB1
 70
6
  9
$SURFTAB2
 70
6
  9
$SURFTYPE
 70
6
  9
$SURFU
 70
6
  9
$SURFV
 70
6
  9
$UCSBASE
  2

  9
$UCSNAME
  2

  9
$UCSORG
 10
0.0
 20
0.0
 30
0.0
  9
$UCSXDIR
 10
1.0
 20
0.0
 30
0.0
  9
$UCSYDIR
 10
0.0
 20
1.0
 30
0.0
  9
$UCSORTHOREF
  2

  9
$UCSORTHOVIEW
 70
0
  9
$UCSORGTOP
 10
0.0
 20
0.0
 30
0.0
  9
$UCSORGBOTTOM
 10
0.0
 20
0.0
 30
0.0
  9
$UCSORGLEFT
 10
0.0
 20
0.0
 30
0.0
  9
$UCSORGRIGHT
 10
0.0
 20
0.0
 30
0.0
  9
$UCSORGFRONT
 10
0.0
 20
0.0
 30
0.0
  9
$UCSORGBACK
 10
0.0
 20
0.0
 30
0.0
  9
$PUCSBASE
  2

  9
$PUCSNAME
  2

  9
$PUCSORG
 10
0.0
 20
0.0
 30
0.0
  9
$PUCSXDIR
 10
1.0
 20
0.0
 30
0.0
  9
$PUCSYDIR
 10
0.0
 20
1.0
 30
0.0
  9
$PUCSORTHOREF
  2

  9
$PUCSORTHOVIEW
 70
0
  9
$PUCSORGTOP
 10
0.0
 20
0.0
 30
0.0
  9
$PUCSORGBOTTOM
 10
0.0
 20
0.0
 30
0.0
  9
$PUCSORGLEFT
 10
0.0
 20
0.0
 30
0.0
  9
$PUCSORGRIGHT
 10
0.0
 20
0.0
 30
0.0
  9
$PUCSORGFRONT
 10
0.0
 20
0.0
 30
0.0
  9
$PUCSORGBACK
 10
0.0
 20
0.0
 30
0.0
  9
$USERI1
 70
0
  9
$USERI2
 70
0
  9
$USERI3
 70
0
  9
$USERI4
 70
0
  9
$USERI5
 70
0
  9
$USERR1
 40
0.0
  9
$USERR2
 40
0.0
  9
$USERR3
 40
0.0
  9
$USERR4
 40
0.0
  9
$USERR5
 40
0.0
  9
$WORLDVIEW
 70
1
  9
$SHADEDGE
 70
3
  9
$SHADEDIF
 70
70
  9
$TILEMODE
 70
1
  9
$MAXACTVP
 70
64
  9
$PINSBASE
 10
0.0
 20
0.0
 30
0.0
  9
$PLIMCHECK
 70
0
  9
$PEXTMIN
 10
1e+20
 20
1e+20
 30
1e+20
  9
$PEXTMAX
 10
-1e+20
 20
-1e+20
 30
-1e+20
  9
$PLIMMIN
 10
0.0
 20
0.0
  9
$PLIMMAX
 10
420.0
 20
297.0
  9
$UNITMODE
 70
0
  9
$VISRETAIN
 70
1
  9
$PLINEGEN
 70
0
  9
$PSLTSCALE
 70
1
  9
$TREEDEPTH
 70
3020
  9
$CMLSTYLE
  2
Standard
  9
$CMLJUST
 70
0
  9
$CMLSCALE
 40
20.0
  9
$PROXYGRAPHICS
 70
1
  9
$MEASUREMENT
 70
1
  9
$CELWEIGHT
370
-1
  9
$ENDCAPS
280
0
  9
$JOINSTYLE
280
0
  9
$LWDISPLAY
290
0
  9
$INSUNITS
 70
6
  9
$HYPERLINKBASE
  1

  9
$STYLESHEET
  1

  9
$XEDIT
290
1
  9
$CEPSNTYPE
380
0
  9
$PSTYLEMODE
290
1
  9
$FINGERPRINTGUID
  2
{0FF67C1C-3DD3-4E5D-9A3A-41DE7E10E6EF}
  9
$VERSIONGUID
  2
{B2E9138F-B48B-46F4-A34F-040863380C4C}
  9
$EXTNAMES
290
1
  9
$PSVPSCALE
 40
0.0
  9
$OLESTARTUP
290
0
  9
$SORTENTS
280
127
  9
$INDEXCTL
280
0
  9
$HIDETEXT
280
1
  9
$XCLIPFRAME
280
1
  9
$HALOGAP
280
0
  9
$OBSCOLOR
 70
257
  9
$OBSLTYPE
280
0
  9
$INTERSECTIONDISPLAY
280
0
  9
$INTERSECTIONCOLOR
 70
257
  9
$DIMASSOC
280
2
  9
$PROJECTNAME
  1

  9
$CAMERADISPLAY
290
0
  9
$LENSLENGTH
 40
50.0
  9
$CAMERAHEIGHT
 40
0.0
  9
$STEPSPERSEC
 40
24.0
  9
$STEPSIZE
 40
100.0
  9
$3DDWFPREC
 40
2.0
  9
$PSOLWIDTH
 40
0.005
  9
$PSOLHEIGHT
 40
0.08
  9
$LOFTANG1
 40
1.570796326795
  9
$LOFTANG2
 40
1.570796326795
  9
$LOFTMAG1
 40
0.0
  9
$LOFTMAG2
 40
0.0
  9
$LOFTPARAM
 70
7
  9
$LOFTNORMALS
280
1
  9
$LATITUDE
 40
37.795
  9
$LONGITUDE
 40
-122.394
  9
$NORTHDIRECTION
 40
0.0
  9
$TIMEZONE
 70
-8000
  9
$LIGHTGLYPHDISPLAY
280
1
  9
$TILEMODELIGHTSYNCH
280
1
  9
$CMATERIAL
347
20
  9
$SOLIDHIST
280
0
  9
$SHOWHIST
280
1
  9
$DWFFRAME
280
2
  9
$DGNFRAME
280
2
  9
$REALWORLDSCALE
290
1
  9
$INTERFERECOLOR
 62
256
  9
$CSHADOW
280
0
  9
$SHADOWPLANELOCATION
 40
0.0
  0
ENDSEC
  0
SECTION
  2
CLASSES
  0
CLASS
  1
ACDBDICTIONARYWDFLT
  2
AcDbDictionaryWithDefault
  3
ObjectDBX Classes
 90
0
 91
0
280
0
281
0
  0
CLASS
  1
SUN
  2
AcDbSun
  3
SCENEOE
 90
1153
 91
0
280
0
281
0
  0
CLASS
  1
VISUALSTYLE
  2
AcDbVisualStyle
  3
ObjectDBX Classes
 90
4095
 91
0
280
0
281
0
  0
CLASS
  1
MATERIAL
  2
AcDbMaterial
  3
ObjectDBX Classes
 90
1153
 91
0
280
0
281
0
  0
CLASS
  1
SCALE
  2
AcDbScale
  3
ObjectDBX Classes
 90
1153
 91
0
280
0
281
0
  0
CLASS
  1
TABLESTYLE
  2
AcDbTableStyle
  3
ObjectDBX Classes
 90
4095
 91
0
280
0
281
0
  0
CLASS
  1
MLEADERSTYLE
  2
AcDbMLeaderStyle
  3
ACDB_MLEADERSTYLE_CLASS
 90
4095
 91
0
280
0
281
0
  0
CLASS
  1
DICTIONARYVAR
  2
AcDbDictionaryVar
  3
ObjectDBX Classes
 90
0
 91
0
280
0
281
0
  0
CLASS
  1
CELLSTYLEMAP
  2
AcDbCellStyleMap
  3
ObjectDBX Classes
 90
1152
 91
0
280
0
281
0
  0
CLASS
  1
MENTALRAYRENDERSETTINGS
  2
AcDbMentalRayRenderSettings
  3
SCENEOE
 90
1024
 91
0
280
0
281
0
  0
CLASS
  1
ACDBDETAILVIEWSTYLE
  2
AcDbDetailViewStyle
  3
ObjectDBX Classes
 90
1025
 91
0
280
0
281
0
  0
CLASS
  1
ACDBSECTIONVIEWSTYLE
  2
AcDbSectionViewStyle
  3
ObjectDBX Classes
 90
1025
 91
0
280
0
281
0
  0
CLASS
  1
RASTERVARIABLES
  2
AcDbRasterVariables
  3
ISM
 90
0
 91
0
280
0
281
0
  0
CLASS
  1
LAYOUT
  2
AcDbLayout
  3
ObjectDBX Classes
 90
0
 91
0
280
0
281
0
  0
CLASS
  1
ACDBPLACEHOLDER
  2
AcDbPlaceHolder
  3
ObjectDBX Classes
 90
0
 91
0
280
0
281
0
  0
ENDSEC
  0
SECTION
  2
TABLES
  0
TABLE
  2
VPORT
  5
8
330
0
100
AcDbSymbolTable
 70
1
  0
VPORT
  5
23
330
8
100
AcDbSymbolTableRecord
100
AcDbViewportTableRecord
  2
*Active
 70
0
 10
0.0
 20
0.0
 11
1.0
 21
1.0
 12
0.0
 22
0.0
 13
0.0
 23
0.0
 14
0.5
 24
0.5
 15
0.5
 25
0.5
 16
0.0
 26
0.0
 36
1.0
 17
0.0
 27
0.0
 37
0.0
 40
1000.0
 41
1.34
 42
50.0
 43
0.0
 44
0.0
 50
0.0
 51
0.0
 71
0
 72
1000
 73
1
 74
3
 75
0
 76
0
 77
0
 78
0
281
0
 65
0
146
0.0
  0
ENDTAB
  0
TABLE
  2
LTYPE
  5
2
330
0
100
AcDbSymbolTable
 70
3
  0
LTYPE
  5
24
330
2
100
AcDbSymbolTableRecord
100
AcDbLinetypeTableRecord
  2
ByBlock
 70
0
  3

 72
65
 73
0
 40
0.0
  0
LTYPE
  5
25
330
2
100
AcDbSymbolTableRecord
100
AcDbLinetypeTableRecord
  2
ByLayer
 70
0
  3

 72
65
 73
0
 40
0.0
  0
LTYPE
  5
26
330
2
100
AcDbSymbolTableRecord
100
AcDbLinetypeTableRecord
  2
Continuous
 70
0
  3

 72
65
 73
0
 40
0.0
  0
ENDTAB
  0
TABLE
  2
LAYER
  5
1
330
0
100
AcDbSymbolTable
 70
6
  0
LAYER
  5
27
330
1
100
AcDbSymbolTableRecord
100
AcDbLayerTableRecord
  2
0
 70
0
 62
7
  6
Continuous
370
-3
390
13
347
21
  0
LAYER
  5
28
330
1
100
AcDbSymbolTableRecord
100
AcDbLayerTableRecord
  2
Defpoints
 70
0
 62
7
  6
Continuous
290
0
370
-3
390
13
347
21
  0
LAYER
  5
2F
330
1
100
AcDbSymbolTableRecord
100
AcDbLayerTableRecord
  2
CUTS
 70
0
 62
7
  6
Continuous
370
-3
390
13
347
21
  0
LAYER
  5
30
330
1
100
AcDbSymbolTableRecord
100
AcDbLayerTableRecord
  2
ENGRAVE
 70
0
 62
1
  6
Continuous
370
-3
390
13
347
21
  0
LAYER
  5
31
330
1
100
AcDbSymbolTableRecord
100
AcDbLayerTableRecord
  2
GUIDE
 70
0
 62
3
  6
Continuous
370
-3
390
13
347
21
  0
LAYER
  5
32
330
1
100
AcDbSymbolTableRecord
100
AcDbLayerTableRecord
  2
SHEET
 70
0
 62
8
  6
Continuous
370
-3
390
13
347
21
  0
ENDTAB
  0
TABLE
  2
STYLE
  5
5
330
0
100
AcDbSymbolTable
 70
1
  0
STYLE
  5
29
330
5
100
AcDbSymbolTableRecord
100
AcDbTextStyleTableRecord
  2
Standard
 70
0
 40
0.0
 41
1.0
 50
0.0
 71
0
 42
2.5
  3
txt
  4

  0
ENDTAB
  0
TABLE
  2
VIEW
  5
7
330
0
100
AcDbSymbolTable
 70
0
  0
ENDTAB
  0
TABLE
  2
UCS
  5
6
330
0
100
AcDbSymbolTable
 70
0
  0
ENDTAB
  0
TABLE
  2
APPID
  5
3
330
0
100
AcDbSymbolTable
 70
3
  0
APPID
  5
2A
330
3
100
AcDbSymbolTableRecord
100
AcDbRegAppTableRecord
  2
ACAD
 70
0
  0
APPID
  5
93
330
3
100
AcDbSymbolTableRecord
100
AcDbRegAppTableRecord
  2
HATCHBACKGROUNDCOLOR
 70
0
  0
APPID
  5
94
330
3
100
AcDbSymbolTableRecord
100
AcDbRegAppTableRecord
  2
EZDXF
 70
0
  0
ENDTAB
  0
TABLE
  2
DIMSTYLE
  5
4
330
0
100
AcDbSymbolTable
 70
1
100
AcDbDimStyleTable
  0
DIMSTYLE
105
2B
330
4
100
AcDbSymbolTableRecord
100
AcDbDimStyleTableRecord
  2
Standard
 70
0
 40
1.0
 41
2.5
 42
0.625
 43
3.75
 44
1.25
 45
0.0
 46
0.0
 47
0.0
 48
0.0
 49
2.5
140
2.5
141
2.5
142
0.0
143
0.03937007874
144
1.0
145
0.0
146
1.0
147
0.625
148
0.0
 69
0
 70
0
 71
0
 72
0
 73
0
 74
0
 75
0
 76
0
 77
1
 78
8
 79
3
170
0
171
3
172
1
173
0
174
0
175
0
176
0
177
0
178
0
179
2
271
2
272
2
273
2
274
3
275
0
276
0
277
2
278
44
279
0
280
0
281
0
282
0
283
0
284
8
285
0
286
0
288
0
289
3
290
0
371
-2
372
-2
  0
ENDTAB
  0
TABLE
  2
BLOCK_RECORD
  5
9
330
0
100
AcDbSymbolTable
 70
2
  0
BLOCK_RECORD
  5
17
330
9
100
AcDbSymbolTableRecord
100
AcDbBlockTableRecord
  2
*Model_Space
340
1A
 70
0
280
1
281
0
  0
BLOCK_RECORD
  5
1B
330
9
100
AcDbSymbolTableRecord
100
AcDbBlockTableRecord
  2
*Paper_Space
340
1E
 70
0
280
1
281
0
  0
ENDTAB
  0
ENDSEC
  0
SECTION
  2
BLOCKS
  0
BLOCK
  5
18
330
17
100
AcDbEntity
  8
0
100
AcDbBlockBegin
  2
*Model_Space
 70
0
 10
0.0
 20
0.0
 30
0.0
  3
*Model_Space
  1

  0
ENDBLK
  5
19
330
17
100
AcDbEntity
  8
0
100
AcDbBlockEnd
  0
BLOCK
  5
1C
330
1B
100
AcDbEntity
  8
0
100
AcDbBlockBegin
  2
*Paper_Space
 70
0
 10
0.0
 20
0.0
 30
0.0
  3
*Paper_Space
  1

  0
ENDBLK
  5
1D
330
1B
100
AcDbEntity
  8
0
100
AcDbBlockEnd
  0
ENDSEC
  0
SECTION
  2
ENTITIES
  0
LWPOLYLINE
  5
33
330
17
100
AcDbEntity
  8
SHEET
 62
8
100
AcDbPolyline
 90
4
 70
1
 10
0.0
 20
0.0
 10
400.0
 20
0.0
 10
400.0
 20
600.0
 10
0.0
 20
600.0
  0
LWPOLYLINE
  5
34
330
17
100
AcDbEntity
  8
CUTS
100
AcDbPolyline
 90
4
 70
1
 10
62.0
 20
81.0
 10
222.0
 20
81.0
 10
222.0
 20
181.0
 10
62.0
 20
181.0
  0
TEXT
  5
35
330
17
100
AcDbEntity
  8
ENGRAVE
100
AcDbText
 10
67.0
 20
173.0
 30
0.0
 40
3.0
  1
M4 BASE
 11
67.0
 21
173.0
 31
0.0
100
AcDbText
  0
LWPOLYLINE
  5
36
330
17
100
AcDbEntity
  8
CUTS
100
AcDbPolyline
 90
4
 70
1
 10
100.55
 20
111.0
 10
103.44999999999999
 20
111.0
 10
103.44999999999999
 20
121.0
 10
100.55
 20
121.0
  0
LWPOLYLINE
  5
37
330
17
100
AcDbEntity
  8
CUTS
100
AcDbPolyline
 90
4
 70
1
 10
100.55
 20
141.0
 10
103.44999999999999
 20
141.0
 10
103.44999999999999
 20
151.0
 10
100.55
 20
151.0
  0
LWPOLYLINE
  5
38
330
17
100
AcDbEntity
  8
CUTS
100
AcDbPolyline
 90
4
 70
1
 10
180.55
 20
111.0
 10
183.45
 20
111.0
 10
183.45
 20
121.0
 10
180.55
 20
121.0
  0
LWPOLYLINE
  5
39
330
17
100
AcDbEntity
  8
CUTS
100
AcDbPolyline
 90
4
 70
1
 10
180.55
 20
141.0
 10
183.45
 20
141.0
 10
183.45
 20
151.0
 10
180.55
 20
151.0
  0
LWPOLYLINE
  5
3A
330
17
100
AcDbEntity
  8
CUTS
100
AcDbPolyline
 90
4
 70
1
 10
140.55
 20
101.0
 10
143.45
 20
101.0
 10
143.45
 20
111.0
 10
140.55
 20
111.0
  0
LWPOLYLINE
  5
3B
330
17
100
AcDbEntity
  8
CUTS
100
AcDbPolyline
 90
4
 70
1
 10
230.0
 20
81.0
 10
280.0
 20
81.0
 10
280.0
 20
151.0
 10
230.0
 20
151.0
  0
LWPOLYLINE
  5
3C
330
17
100
AcDbEntity
  8
CUTS
100
AcDbPolyline
 90
4
 70
1
 10
235.0
 20
78.0
 10
245.0
 20
78.0
 10
245.0
 20
81.0
 10
235.0
 20
81.0
  0
LWPOLYLINE
  5
3D
330
17
100
AcDbEntity
  8
CUTS
100
AcDbPolyline
 90
4
 70
1
 10
265.0
 20
78.0
 10
275.0
 20
78.0
 10
275.0
 20
81.0
 10
265.0
 20
81.0
  0
CIRCLE
  5
3E
330
17
100
AcDbEntity
  8
CUTS
100
AcDbCircle
 10
245.0
 20
126.0
 30
0.0
 40
2.9
  0
CIRCLE
  5
3F
330
17
100
AcDbEntity
  8
CUTS
100
AcDbCircle
 10
265.0
 20
126.0
 30
0.0
 40
1.6
  0
TEXT
  5
40
330
17
100
AcDbEntity
  8
ENGRAVE
100
AcDbText
 10
233.0
 20
141.0
 30
0.0
 40
3.0
  1
M4 AX L
 11
233.0
 21
141.0
 31
0.0
100
AcDbText
  0
LWPOLYLINE
  5
41
330
17
100
AcDbEntity
  8
CUTS
100
AcDbPolyline
 90
4
 70
1
 10
288.0
 20
81.0
 10
338.0
 20
81.0
 10
338.0
 20
151.0
 10
288.0
 20
151.0
  0
LWPOLYLINE
  5
42
330
17
100
AcDbEntity
  8
CUTS
100
AcDbPolyline
 90
4
 70
1
 10
293.0
 20
78.0
 10
303.0
 20
78.0
 10
303.0
 20
81.0
 10
293.0
 20
81.0
  0
LWPOLYLINE
  5
43
330
17
100
AcDbEntity
  8
CUTS
100
AcDbPolyline
 90
4
 70
1
 10
323.0
 20
78.0
 10
333.0
 20
78.0
 10
333.0
 20
81.0
 10
323.0
 20
81.0
  0
CIRCLE
  5
44
330
17
100
AcDbEntity
  8
CUTS
100
AcDbCircle
 10
303.0
 20
126.0
 30
0.0
 40
2.9
  0
CIRCLE
  5
45
330
17
100
AcDbEntity
  8
CUTS
100
AcDbCircle
 10
323.0
 20
126.0
 30
0.0
 40
1.6
  0
TEXT
  5
46
330
17
100
AcDbEntity
  8
ENGRAVE
100
AcDbText
 10
291.0
 20
141.0
 30
0.0
 40
3.0
  1
M4 AX R
 11
291.0
 21
141.0
 31
0.0
100
AcDbText
  0
LWPOLYLINE
  5
47
330
17
100
AcDbEntity
  8
CUTS
100
AcDbPolyline
 90
4
 70
1
 10
62.0
 20
23.0
 10
142.0
 20
23.0
 10
142.0
 20
63.0
 10
62.0
 20
63.0
  0
LWPOLYLINE
  5
48
330
17
100
AcDbEntity
  8
CUTS
100
AcDbPolyline
 90
4
 70
1
 10
90.0
 20
33.0
 10
114.0
 20
33.0
 10
114.0
 20
53.0
 10
90.0
 20
53.0
  0
CIRCLE
  5
49
330
17
100
AcDbEntity
  8
CUTS
100
AcDbCircle
 10
74.0
 20
43.0
 30
0.0
 40
1.6
  0
CIRCLE
  5
4A
330
17
100
AcDbEntity
  8
CUTS
100
AcDbCircle
 10
130.0
 20
43.0
 30
0.0
 40
1.6
  0
LWPOLYLINE
  5
4B
330
17
100
AcDbEntity
  8
CUTS
100
AcDbPolyline
 90
4
 70
1
 10
97.0
 20
20.0
 10
107.0
 20
20.0
 10
107.0
 20
23.0
 10
97.0
 20
23.0
  0
TEXT
  5
4C
330
17
100
AcDbEntity
  8
ENGRAVE
100
AcDbText
 10
67.0
 20
55.0
 30
0.0
 40
3.0
  1
M4 TT MOUNT
 11
67.0
 21
55.0
 31
0.0
100
AcDbText
  0
LWPOLYLINE
  5
4D
330
17
100
AcDbEntity
  8
CUTS
100
AcDbPolyline
 90
72
 70
1
 10
177.99222294236017
 20
42.533419748285446
 10
178.0
 20
43.0
 10
177.99222294236017
 20
43.466580251714554
 10
173.25314206736493
 20
45.15159519453851
 10
173.17629534974614
 20
45.45878092847395
 10
173.08925369243377
 20
45.7632349365516
 10
176.35091064935662
 20
49.59204112029114
 10
176.12435565298216
 20
50.0
 10
175.8843303976421
 20
50.400181822069015
 10
170.93765849789526
 20
49.48990713081334
 10
170.7175144212722
 20
49.7175144212722
 10
170.48990713081335
 20
49.93765849789524
 10
171.40018182206902
 20
54.88433039764207
 10
171.0
 20
55.12435565298214
 10
170.59204112029113
 20
55.35091064935662
 10
166.7632349365516
 20
52.08925369243376
 10
166.45878092847394
 20
52.17629534974615
 10
166.15159519453852
 20
52.25314206736495
 10
164.46658025171456
 20
56.99222294236016
 10
164.0
 20
57.0
 10
163.53341974828544
 20
56.99222294236016
 10
161.84840480546148
 20
52.25314206736495
 10
161.54121907152606
 20
52.17629534974615
 10
161.2367650634484
 20
52.08925369243376
 10
157.40795887970887
 20
55.35091064935662
 10
157.0
 20
55.124355652982146
 10
156.59981817793098
 20
54.884330397642074
 10
157.51009286918665
 20
49.93765849789524
 10
157.2824855787278
 20
49.7175144212722
 10
157.06234150210474
 20
49.48990713081335
 10
152.11566960235794
 20
50.40018182206902
 10
151.87564434701787
 20
50.0
 10
151.64908935064338
 20
49.59204112029114
 10
154.91074630756623
 20
45.7632349365516
 10
154.82370465025386
 20
45.45878092847395
 10
154.74685793263507
 20
45.151595194538515
 10
150.00777705763983
 20
43.466580251714554
 10
150.0
 20
43.0
 10
150.00777705763983
 20
42.53341974828545
 10
154.74685793263507
 20
40.848404805461485
 10
154.82370465025386
 20
40.54121907152605
 10
154.91074630756623
 20
40.2367650634484
 10
151.64908935064338
 20
36.40795887970886
 10
151.87564434701784
 20
36.0
 10
152.1156696023579
 20
35.599818177930985
 10
157.06234150210474
 20
36.51009286918666
 10
157.2824855787278
 20
36.2824855787278
 10
157.51009286918665
 20
36.06234150210476
 10
156.59981817793098
 20
31.115669602357933
 10
157.0
 20
30.87564434701786
 10
157.40795887970887
 20
30.649089350643386
 10
161.2367650634484
 20
33.91074630756624
 10
161.54121907152603
 20
33.82370465025385
 10
161.84840480546148
 20
33.74685793263506
 10
163.53341974828544
 20
29.007777057639842
 10
164.0
 20
29.0
 10
164.46658025171456
 20
29.007777057639842
 10
166.15159519453852
 20
33.74685793263505
 10
166.45878092847394
 20
33.82370465025385
 10
166.7632349365516
 20
33.91074630756624
 10
170.59204112029113
 20
30.64908935064338
 10
171.0
 20
30.875644347017854
 10
171.400181822069
 20
31.115669602357926
 10
170.48990713081332
 20
36.06234150210475
 10
170.7175144212722
 20
36.28248557872779
 10
170.93765849789526
 20
36.51009286918665
 10
175.88433039764206
 20
35.59981817793098
 10
176.12435565298213
 20
35.99999999999999
 10
176.35091064935662
 20
36.40795887970885
 10
173.08925369243377
 20
40.236765063448395
 10
173.17629534974614
 20
40.541219071526044
 10
173.25314206736493
 20
40.84840480546148
  0
CIRCLE
  5
4E
330
17
100
AcDbEntity
  8
CUTS
100
AcDbCircle
 10
164.0
 20
43.0
 30
0.0
 40
2.9
  0
TEXT
  5
4F
330
17
100
AcDbEntity
  8
ENGRAVE
100
AcDbText
 10
158.0
 20
41.0
 30
0.0
 40
2.0
  1
M4 SM
 11
158.0
 21
41.0
 31
0.0
100
AcDbText
  0
LWPOLYLINE
  5
50
330
17
100
AcDbEntity
  8
CUTS
100
AcDbPolyline
 90
216
 70
1
 10
261.99765434512005
 20
42.5777864654242
 10
262.0
 20
43.0
 10
261.99765434512005
 20
43.4222135345758
 10
257.4029030117536
 20
45.548738979844984
 10
257.37252238607346
 20
45.91971738204655
 10
257.33802173828855
 20
46.29033532902047
 10
261.4937012062177
 20
49.18242427037107
 10
261.4226946144639
 20
49.59863075134335
 10
261.34706798448684
 20
50.01402259492495
 10
256.4528539798911
 20
51.310371144532
 10
256.35851518068375
 20
51.67043801093445
 10
256.26018154415857
 20
52.02943446390365
 10
259.8505209288926
 20
55.59921224232036
 10
259.7083195898645
 20
55.99676544637541
 10
259.5617098616733
 20
56.392714127994
 10
254.51674140178596
 20
56.81949688724312
 10
254.36131086572777
 20
57.15771176831343
 10
254.20213205824885
 20
57.49417880171542
 10
257.118040714382
 20
61.63317952579576
 10
256.9089653438087
 20
62.0
 10
256.6958271798062
 20
62.364474819324286
 10
251.65339307840387
 20
61.9087242100382
 10
251.44159348368123
 20
62.214810617760044
 10
251.2264060727655
 20
62.51852485104543
 10
253.3792855913022
 20
67.10098707822365
 10
253.10968883852115
 20
67.42592916808849
 10
252.83649833396763
 20
67.74785574216648
 10
247.94981039962656
 20
66.42341951598739
 10
247.68807716974933
 20
66.68807716974933
 10
247.4234195159874
 20
66.94981039962657
 10
248.74785574216648
 20
71.83649833396763
 10
248.4259291680885
 20
72.10968883852117
 10
248.10098707822365
 20
72.37928559130219
 10
243.5185248510454
 20
70.2264060727655
 10
243.21481061776004
 20
70.44159348368123
 10
242.9087242100382
 20
70.65339307840387
 10
243.3644748193243
 20
75.69582717980623
 10
243.0
 20
75.90896534380866
 10
242.63317952579575
 20
76.11804071438203
 10
238.49417880171544
 20
73.20213205824885
 10
238.15771176831345
 20
73.36131086572777
 10
237.81949688724313
 20
73.51674140178596
 10
237.392714127994
 20
78.56170986167328
 10
236.9967654463754
 20
78.70831958986452
 10
236.59921224232036
 20
78.85052092889258
 10
233.02943446390364
 20
75.26018154415857
 10
232.67043801093445
 20
75.35851518068378
 10
232.310371144532
 20
75.45285397989105
 10
231.01402259492497
 20
80.34706798448684
 10
230.59863075134336
 20
80.42269461446391
 10
230.1824242703711
 20
80.49370120621765
 10
227.29033532902048
 20
76.33802173828855
 10
226.91971738204654
 20
76.37252238607348
 10
226.54873897984498
 20
76.40290301175361
 10
224.4222135345758
 20
80.99765434512005
 10
224.0
 20
81.0
 10
223.5777864654242
 20
80.99765434512005
 10
221.45126102015502
 20
76.40290301175361
 10
221.08028261795346
 20
76.37252238607348
 10
220.70966467097955
 20
76.33802173828855
 10
217.8175757296289
 20
80.49370120621765
 10
217.40136924865664
 20
80.42269461446391
 10
216.98597740507506
 20
80.34706798448684
 10
215.68962885546802
 20
75.45285397989105
 10
215.32956198906555
 20
75.35851518068378
 10
214.97056553609636
 20
75.26018154415857
 10
211.40078775767964
 20
78.85052092889258
 10
211.0032345536246
 20
78.70831958986452
 10
210.607285872006
 20
78.56170986167328
 10
210.1805031127569
 20
73.51674140178596
 10
209.84228823168658
 20
73.36131086572777
 10
209.5058211982846
 20
73.20213205824886
 10
205.36682047420425
 20
76.11804071438203
 10
205.0
 20
75.90896534380867
 10
204.6355251806757
 20
75.69582717980623
 10
205.0912757899618
 20
70.65339307840388
 10
204.78518938223996
 20
70.44159348368123
 10
204.4814751489546
 20
70.22640607276551
 10
199.89901292177635
 20
72.37928559130219
 10
199.5740708319115
 20
72.10968883852117
 10
199.25214425783352
 20
71.83649833396763
 10
200.5765804840126
 20
66.94981039962657
 10
200.31192283025067
 20
66.68807716974935
 10
200.05018960037344
 20
66.4234195159874
 10
195.16350166603237
 20
67.7478557421665
 10
194.89031116147885
 20
67.4259291680885
 10
194.6207144086978
 20
67.10098707822365
 10
196.77359392723451
 20
62.518524851045434
 10
196.55840651631877
 20
62.21481061776005
 10
196.34660692159613
 20
61.90872421003821
 10
191.30417282019377
 20
62.364474819324286
 10
191.0910346561913
 20
62.0
 10
190.88195928561797
 20
61.63317952579576
 10
193.79786794175115
 20
57.49417880171542
 10
193.63868913427223
 20
57.15771176831343
 10
193.48325859821404
 20
56.81949688724312
 10
188.43829013832672
 20
56.392714127994005
 10
188.29168041013548
 20
55.99676544637542
 10
188.1494790711074
 20
55.59921224232037
 10
191.73981845584143
 20
52.029434463903655
 10
191.64148481931622
 20
51.670438010934454
 10
191.54714602010895
 20
51.31037114453201
 10
186.65293201551316
 20
50.01402259492497
 10
186.57730538553608
 20
49.598630751343364
 10
186.50629879378235
 20
49.18242427037109
 10
190.66197826171145
 20
46.290335329020486
 10
190.62747761392652
 20
45.919717382046564
 10
190.5970969882464
 20
45.548738979845
 10
186.00234565487995
 20
43.42221353457581
 10
186.0
 20
43.00000000000001
 10
186.00234565487995
 20
42.577786465424204
 10
190.5970969882464
 20
40.45126102015502
 10
190.62747761392652
 20
40.08028261795346
 10
190.66197826171145
 20
39.70966467097954
 10
186.50629879378235
 20
36.817575729628935
 10
186.57730538553608
 20
36.40136924865666
 10
186.65293201551316
 20
35.98597740507506
 10
191.54714602010895
 20
34.689628855468015
 10
191.6414848193162
 20
34.32956198906557
 10
191.73981845584143
 20
33.970565536096366
 10
188.1494790711074
 20
30.400787757679637
 10
188.29168041013548
 20
30.003234553624594
 10
188.43829013832672
 20
29.607285872006003
 10
193.48325859821404
 20
29.180503112756888
 10
193.63868913427223
 20
28.842288231686574
 10
193.79786794175115
 20
28.505821198284593
 10
190.88195928561797
 20
24.366820474204246
 10
191.0910346561913
 20
24.000000000000007
 10
191.30417282019377
 20
23.63552518067572
 10
196.3466069215961
 20
24.091275789961813
 10
196.55840651631877
 20
23.785189382239963
 10
196.7735939272345
 20
23.481475148954587
 10
194.6207144086978
 20
18.899012921776354
 10
194.89031116147885
 20
18.574070831911513
 10
195.16350166603237
 20
18.25214425783352
 10
200.05018960037344
 20
19.57658048401261
 10
200.31192283025064
 20
19.31192283025066
 10
200.5765804840126
 20
19.050189600373436
 10
199.25214425783352
 20
14.163501666032388
 10
199.5740708319115
 20
13.890311161478849
 10
199.89901292177635
 20
13.620714408697808
 10
204.48147514895456
 20
15.773593927234515
 10
204.78518938223993
 20
15.558406516318783
 10
205.0912757899618
 20
15.346606921596134
 10
204.6355251806757
 20
10.304172820193784
 10
204.99999999999997
 20
10.09103465619134
 10
205.36682047420422
 20
9.881959285617981
 10
209.50582119828456
 20
12.79786794175115
 10
209.84228823168655
 20
12.638689134272227
 10
210.18050311275687
 20
12.483258598214036
 10
210.60728587200597
 20
7.438290138326735
 10
211.00323455362457
 20
7.291680410135484
 10
211.4007877576796
 20
7.149479071107436
 10
214.97056553609633
 20
10.73981845584143
 10
215.32956198906552
 20
10.641484819316219
 10
215.689628855468
 20
10.547146020108954
 10
216.98597740507506
 20
5.652932015513159
 10
217.40136924865664
 20
5.577305385536093
 10
217.8175757296289
 20
5.506298793782349
 10
220.70966467097952
 20
9.661978261711454
 10
221.08028261795346
 20
9.627477613926516
 10
221.45126102015502
 20
9.597096988246392
 10
223.5777864654242
 20
5.002345654879946
 10
224.0
 20
5.0
 10
224.4222135345758
 20
5.002345654879946
 10
226.54873897984498
 20
9.597096988246392
 10
226.91971738204654
 20
9.627477613926516
 10
227.29033532902045
 20
9.661978261711454
 10
230.18242427037106
 20
5.506298793782349
 10
230.59863075134334
 20
5.577305385536093
 10
231.01402259492494
 20
5.652932015513159
 10
232.31037114453198
 20
10.547146020108954
 10
232.67043801093442
 20
10.641484819316204
 10
233.02943446390364
 20
10.73981845584143
 10
236.59921224232033
 20
7.149479071107407
 10
236.99676544637538
 20
7.291680410135484
 10
237.39271412799397
 20
7.438290138326721
 10
237.8194968872431
 20
12.483258598214022
 10
238.15771176831342
 20
12.638689134272212
 10
238.4941788017154
 20
12.797867941751122
 10
242.63317952579575
 20
9.881959285617967
 10
243.0
 20
10.09103465619134
 10
243.3644748193243
 20
10.30417282019377
 10
242.9087242100382
 20
15.346606921596134
 10
243.21481061776004
 20
15.558406516318769
 10
243.5185248510454
 20
15.7735939272345
 10
248.10098707822365
 20
13.620714408697808
 10
248.4259291680885
 20
13.890311161478834
 10
248.74785574216648
 20
14.163501666032374
 10
247.4234195159874
 20
19.05018960037343
 10
247.68807716974933
 20
19.31192283025065
 10
247.94981039962656
 20
19.576580484012595
 10
252.83649833396763
 20
18.252144257833507
 10
253.10968883852115
 20
18.5740708319115
 10
253.3792855913022
 20
18.89901292177634
 10
251.22640607276549
 20
23.48147514895456
 10
251.44159348368123
 20
23.785189382239942
 10
251.65339307840387
 20
24.091275789961784
 10
256.6958271798062
 20
23.635525180675685
 10
256.90896534380863
 20
23.999999999999986
 10
257.118040714382
 20
24.366820474204218
 10
254.20213205824885
 20
28.505821198284565
 10
254.36131086572777
 20
28.842288231686553
 10
254.51674140178596
 20
29.18050311275686
 10
259.56170986167325
 20
29.607285872005974
 10
259.7083195898645
 20
30.003234553624566
 10
259.8505209288926
 20
30.40078775767961
 10
256.26018154415857
 20
33.97056553609633
 10
256.35851518068375
 20
34.329561989065525
 10
256.4528539798911
 20
34.68962885546797
 10
261.34706798448684
 20
35.98597740507505
 10
261.4226946144639
 20
36.40136924865664
 10
261.4937012062177
 20
36.81757572962892
 10
257.33802173828855
 20
39.70966467097953
 10
257.37252238607346
 20
40.08028261795344
 10
257.4029030117536
 20
40.45126102015501
  0
CIRCLE
  5
51
330
17
100
AcDbEntity
  8
CUTS
100
AcDbCircle
 10
224.0
 20
43.0
 30
0.0
 40
1.6
  0
TEXT
  5
52
330
17
100
AcDbEntity
  8
ENGRAVE
100
AcDbText
 10
218.0
 20
41.0
 30
0.0
 40
2.0
  1
M4 LG
 11
218.0
 21
41.0
 31
0.0
100
AcDbText
  0
CIRCLE
  5
53
330
17
100
AcDbEntity
  8
CUTS
100
AcDbCircle
 10
290.0
 20
43.0
 30
0.0
 40
20.0
  0
CIRCLE
  5
54
330
17
100
AcDbEntity
  8
CUTS
100
AcDbCircle
 10
290.0
 20
43.0
 30
0.0
 40
1.6
  0
CIRCLE
  5
55
330
17
100
AcDbEntity
  8
CUTS
100
AcDbCircle
 10
305.0
 20
43.0
 30
0.0
 40
1.5
  0
TEXT
  5
56
330
17
100
AcDbEntity
  8
ENGRAVE
100
AcDbText
 10
280.0
 20
41.0
 30
0.0
 40
3.0
  1
M4 DRUM
 11
280.0
 21
41.0
 31
0.0
100
AcDbText
  0
LWPOLYLINE
  5
57
330
17
100
AcDbEntity
  8
CUTS
100
AcDbPolyline
 90
4
 70
1
 10
42.5
 20
316.0
 10
242.5
 20
316.0
 10
242.5
 20
466.0
 10
42.5
 20
466.0
  0
TEXT
  5
58
330
17
100
AcDbEntity
  8
ENGRAVE
100
AcDbText
 10
47.5
 20
458.0
 30
0.0
 40
3.0
  1
M6 BASE
 11
47.5
 21
458.0
 31
0.0
100
AcDbText
  0
LWPOLYLINE
  5
59
330
17
100
AcDbEntity
  8
CUTS
100
AcDbPolyline
 90
4
 70
1
 10
131.05
 20
366.0
 10
133.95
 20
366.0
 10
133.95
 20
376.0
 10
131.05
 20
376.0
  0
LWPOLYLINE
  5
5A
330
17
100
AcDbEntity
  8
CUTS
100
AcDbPolyline
 90
4
 70
1
 10
131.05
 20
406.0
 10
133.95
 20
406.0
 10
133.95
 20
416.0
 10
131.05
 20
416.0
  0
LWPOLYLINE
  5
5B
330
17
100
AcDbEntity
  8
CUTS
100
AcDbPolyline
 90
4
 70
1
 10
151.05
 20
366.0
 10
153.95
 20
366.0
 10
153.95
 20
376.0
 10
151.05
 20
376.0
  0
LWPOLYLINE
  5
5C
330
17
100
AcDbEntity
  8
CUTS
100
AcDbPolyline
 90
4
 70
1
 10
151.05
 20
406.0
 10
153.95
 20
406.0
 10
153.95
 20
416.0
 10
151.05
 20
416.0
  0
CIRCLE
  5
5D
330
17
100
AcDbEntity
  8
CUTS
100
AcDbCircle
 10
72.5
 20
391.0
 30
0.0
 40
5.0
  0
CIRCLE
  5
5E
330
17
100
AcDbEntity
  8
CUTS
100
AcDbCircle
 10
97.5
 20
391.0
 30
0.0
 40
5.0
  0
CIRCLE
  5
5F
330
17
100
AcDbEntity
  8
CUTS
100
AcDbCircle
 10
212.5
 20
346.0
 30
0.0
 40
1.6
  0
LWPOLYLINE
  5
60
330
17
100
AcDbEntity
  8
CUTS
100
AcDbPolyline
 90
4
 70
1
 10
250.5
 20
316.0
 10
290.5
 20
316.0
 10
290.5
 20
566.0
 10
250.5
 20
566.0
  0
LWPOLYLINE
  5
61
330
17
100
AcDbEntity
  8
CUTS
100
AcDbPolyline
 90
4
 70
1
 10
255.5
 20
313.0
 10
265.5
 20
313.0
 10
265.5
 20
316.0
 10
255.5
 20
316.0
  0
LWPOLYLINE
  5
62
330
17
100
AcDbEntity
  8
CUTS
100
AcDbPolyline
 90
4
 70
1
 10
275.5
 20
313.0
 10
285.5
 20
313.0
 10
285.5
 20
316.0
 10
275.5
 20
316.0
  0
LWPOLYLINE
  5
63
330
17
100
AcDbEntity
  8
CUTS
100
AcDbPolyline
 90
4
 70
1
 10
265.5
 20
554.55
 10
275.5
 20
554.55
 10
275.5
 20
557.45
 10
265.5
 20
557.45
  0
LWPOLYLINE
  5
64
330
17
100
AcDbEntity
  8
CUTS
100
AcDbPolyline
 90
4
 70
1
 10
265.5
 20
394.55
 10
275.5
 20
394.55
 10
275.5
 20
397.45
 10
265.5
 20
397.45
  0
LWPOLYLINE
  5
65
330
17
100
AcDbEntity
  8
CUTS
100
AcDbPolyline
 90
4
 70
1
 10
265.5
 20
474.55
 10
275.5
 20
474.55
 10
275.5
 20
477.45000000000005
 10
265.5
 20
477.45000000000005
  0
CIRCLE
  5
66
330
17
100
AcDbEntity
  8
CUTS
100
AcDbCircle
 10
270.5
 20
541.0
 30
0.0
 40
2.0
  0
TEXT
  5
67
330
17
100
AcDbEntity
  8
ENGRAVE
100
AcDbText
 10
252.5
 20
556.0
 30
0.0
 40
2.0
  1
M6 TWR L
 11
252.5
 21
556.0
 31
0.0
100
AcDbText
  0
LWPOLYLINE
  5
68
330
17
100
AcDbEntity
  8
CUTS
100
AcDbPolyline
 90
4
 70
1
 10
298.5
 20
316.0
 10
338.5
 20
316.0
 10
338.5
 20
566.0
 10
298.5
 20
566.0
  0
LWPOLYLINE
  5
69
330
17
100
AcDbEntity
  8
CUTS
100
AcDbPolyline
 90
4
 70
1
 10
303.5
 20
313.0
 10
313.5
 20
313.0
 10
313.5
 20
316.0
 10
303.5
 20
316.0
  0
LWPOLYLINE
  5
6A
330
17
100
AcDbEntity
  8
CUTS
100
AcDbPolyline
 90
4
 70
1
 10
323.5
 20
313.0
 10
333.5
 20
313.0
 10
333.5
 20
316.0
 10
323.5
 20
316.0
  0
LWPOLYLINE
  5
6B
330
17
100
AcDbEntity
  8
CUTS
100
AcDbPolyline
 90
4
 70
1
 10
313.5
 20
554.55
 10
323.5
 20
554.55
 10
323.5
 20
557.45
 10
313.5
 20
557.45
  0
LWPOLYLINE
  5
6C
330
17
100
AcDbEntity
  8
CUTS
100
AcDbPolyline
 90
4
 70
1
 10
313.5
 20
394.55
 10
323.5
 20
394.55
 10
323.5
 20
397.45
 10
313.5
 20
397.45
  0
LWPOLYLINE
  5
6D
330
17
100
AcDbEntity
  8
CUTS
100
AcDbPolyline
 90
4
 70
1
 10
313.5
 20
474.55
 10
323.5
 20
474.55
 10
323.5
 20
477.45000000000005
 10
313.5
 20
477.45000000000005
  0
CIRCLE
  5
6E
330
17
100
AcDbEntity
  8
CUTS
100
AcDbCircle
 10
318.5
 20
541.0
 30
0.0
 40
2.0
  0
TEXT
  5
6F
330
17
100
AcDbEntity
  8
ENGRAVE
100
AcDbText
 10
300.5
 20
556.0
 30
0.0
 40
2.0
  1
M6 TWR R
 11
300.5
 21
556.0
 31
0.0
100
AcDbText
  0
LWPOLYLINE
  5
70
330
17
100
AcDbEntity
  8
CUTS
100
AcDbPolyline
 90
4
 70
1
 10
42.5
 20
278.0
 10
262.5
 20
278.0
 10
262.5
 20
303.0
 10
42.5
 20
303.0
  0
LWPOLYLINE
  5
71
330
17
100
AcDbEntity
  8
CUTS
100
AcDbPolyline
 90
4
 70
1
 10
47.5
 20
275.0
 10
57.5
 20
275.0
 10
57.5
 20
278.0
 10
47.5
 20
278.0
  0
CIRCLE
  5
72
330
17
100
AcDbEntity
  8
CUTS
100
AcDbCircle
 10
247.5
 20
290.5
 30
0.0
 40
1.6
  0
CIRCLE
  5
73
330
17
100
AcDbEntity
  8
CUTS
100
AcDbCircle
 10
247.5
 20
300.0
 30
0.0
 40
2.0
  0
TEXT
  5
74
330
17
100
AcDbEntity
  8
ENGRAVE
100
AcDbText
 10
47.5
 20
295.0
 30
0.0
 40
3.0
  1
M6 JIB
 11
47.5
 21
295.0
 31
0.0
100
AcDbText
  0
LWPOLYLINE
  5
75
330
17
100
AcDbEntity
  8
CUTS
100
AcDbPolyline
 90
4
 70
1
 10
270.5
 20
278.0
 10
290.5
 20
278.0
 10
290.5
 20
298.0
 10
270.5
 20
298.0
  0
LWPOLYLINE
  5
76
330
17
100
AcDbEntity
  8
CUTS
100
AcDbPolyline
 90
4
 70
1
 10
267.5
 20
283.0
 10
270.5
 20
283.0
 10
270.5
 20
293.0
 10
267.5
 20
293.0
  0
LWPOLYLINE
  5
77
330
17
100
AcDbEntity
  8
CUTS
100
AcDbPolyline
 90
4
 70
1
 10
290.5
 20
283.0
 10
293.5
 20
283.0
 10
293.5
 20
293.0
 10
290.5
 20
293.0
  0
TEXT
  5
78
330
17
100
AcDbEntity
  8
ENGRAVE
100
AcDbText
 10
272.5
 20
283.0
 30
0.0
 40
2.0
  1
BR1
 11
272.5
 21
283.0
 31
0.0
100
AcDbText
  0
LWPOLYLINE
  5
79
330
17
100
AcDbEntity
  8
CUTS
100
AcDbPolyline
 90
4
 70
1
 10
298.5
 20
278.0
 10
318.5
 20
278.0
 10
318.5
 20
298.0
 10
298.5
 20
298.0
  0
LWPOLYLINE
  5
7A
330
17
100
AcDbEntity
  8
CUTS
100
AcDbPolyline
 90
4
 70
1
 10
295.5
 20
283.0
 10
298.5
 20
283.0
 10
298.5
 20
293.0
 10
295.5
 20
293.0
  0
LWPOLYLINE
  5
7B
330
17
100
AcDbEntity
  8
CUTS
100
AcDbPolyline
 90
4
 70
1
 10
318.5
 20
283.0
 10
321.5
 20
283.0
 10
321.5
 20
293.0
 10
318.5
 20
293.0
  0
TEXT
  5
7C
330
17
100
AcDbEntity
  8
ENGRAVE
100
AcDbText
 10
300.5
 20
283.0
 30
0.0
 40
2.0
  1
BR2
 11
300.5
 21
283.0
 31
0.0
100
AcDbText
  0
CIRCLE
  5
7D
330
17
100
AcDbEntity
  8
CUTS
100
AcDbCircle
 10
60.0
 20
215.0
 30
0.0
 40
17.5
  0
CIRCLE
  5
7E
330
17
100
AcDbEntity
  8
CUTS
100
AcDbCircle
 10
60.0
 20
215.0
 30
0.0
 40
1.6
  0
LWPOLYLINE
  5
7F
330
17
100
AcDbEntity
  8
CUTS
100
AcDbPolyline
 90
4
 70
1
 10
67.0
 20
213.55
 10
73.0
 20
213.55
 10
73.0
 20
216.45
 10
67.0
 20
216.45
  0
TEXT
  5
80
330
17
100
AcDbEntity
  8
ENGRAVE
100
AcDbText
 10
50.0
 20
213.0
 30
0.0
 40
2.0
  1
DRUM
 11
50.0
 21
213.0
 31
0.0
100
AcDbText
  0
LWPOLYLINE
  5
81
330
17
100
AcDbEntity
  8
CUTS
100
AcDbPolyline
 90
72
 70
1
 10
113.49222294236016
 20
214.53341974828544
 10
113.5
 20
215.0
 10
113.49222294236016
 20
215.46658025171456
 10
108.75314206736495
 20
217.15159519453852
 10
108.67629534974614
 20
217.45878092847394
 10
108.58925369243376
 20
217.7632349365516
 10
111.85091064935662
 20
221.59204112029113
 10
111.62435565298215
 20
222.0
 10
111.38433039764207
 20
222.40018182206902
 10
106.43765849789524
 20
221.48990713081335
 10
106.2175144212722
 20
221.7175144212722
 10
105.98990713081335
 20
221.93765849789526
 10
106.90018182206902
 20
226.88433039764206
 10
106.5
 20
227.12435565298216
 10
106.09204112029114
 20
227.35091064935662
 10
102.26323493655161
 20
224.08925369243377
 10
101.95878092847394
 20
224.17629534974614
 10
101.65159519453852
 20
224.25314206736493
 10
99.96658025171456
 20
228.99222294236017
 10
99.5
 20
229.0
 10
99.03341974828544
 20
228.99222294236017
 10
97.34840480546148
 20
224.25314206736493
 10
97.04121907152606
 20
224.17629534974614
 10
96.7367650634484
 20
224.08925369243377
 10
92.90795887970886
 20
227.35091064935662
 10
92.5
 20
227.12435565298216
 10
92.09981817793098
 20
226.8843303976421
 10
93.01009286918665
 20
221.93765849789526
 10
92.7824855787278
 20
221.7175144212722
 10
92.56234150210476
 20
221.48990713081335
 10
87.61566960235794
 20
222.40018182206902
 10
87.37564434701787
 20
222.0
 10
87.14908935064338
 20
221.59204112029113
 10
90.41074630756624
 20
217.7632349365516
 10
90.32370465025386
 20
217.45878092847397
 10
90.24685793263505
 20
217.15159519453852
 10
85.50777705763984
 20
215.46658025171456
 10
85.5
 20
215.0
 10
85.50777705763984
 20
214.53341974828544
 10
90.24685793263505
 20
212.84840480546148
 10
90.32370465025386
 20
212.54121907152606
 10
90.41074630756624
 20
212.2367650634484
 10
87.14908935064338
 20
208.40795887970887
 10
87.37564434701785
 20
208.0
 10
87.61566960235793
 20
207.59981817793098
 10
92.56234150210476
 20
208.51009286918665
 10
92.7824855787278
 20
208.2824855787278
 10
93.01009286918665
 20
208.06234150210474
 10
92.09981817793098
 20
203.11566960235794
 10
92.5
 20
202.87564434701787
 10
92.90795887970884
 20
202.64908935064338
 10
96.73676506344839
 20
205.91074630756623
 10
97.04121907152604
 20
205.82370465025386
 10
97.34840480546148
 20
205.74685793263507
 10
99.03341974828544
 20
201.00777705763983
 10
99.5
 20
201.0
 10
99.96658025171455
 20
201.00777705763983
 10
101.65159519453852
 20
205.74685793263507
 10
101.95878092847394
 20
205.82370465025383
 10
102.2632349365516
 20
205.91074630756623
 10
106.09204112029113
 20
202.64908935064338
 10
106.5
 20
202.87564434701784
 10
106.900181822069
 20
203.1156696023579
 10
105.98990713081334
 20
208.06234150210474
 10
106.2175144212722
 20
208.2824855787278
 10
106.43765849789523
 20
208.51009286918665
 10
111.38433039764206
 20
207.59981817793098
 10
111.62435565298213
 20
208.0
 10
111.85091064935662
 20
208.40795887970887
 10
108.58925369243376
 20
212.2367650634484
 10
108.67629534974614
 20
212.54121907152603
 10
108.75314206736493
 20
212.84840480546148
  0
CIRCLE
  5
82
330
17
100
AcDbEntity
  8
CUTS
100
AcDbCircle
 10
99.5
 20
215.0
 30
0.0
 40
1.6
  0
TEXT
  5
83
330
17
100
AcDbEntity
  8
ENGRAVE
100
AcDbText
 10
93.5
 20
213.0
 30
0.0
 40
2.0
  1
SM
 11
93.5
 21
213.0
 31
0.0
100
AcDbText
  0
LWPOLYLINE
  5
84
330
17
100
AcDbEntity
  8
CUTS
100
AcDbPolyline
 90
144
 70
1
 10
173.49638897247866
 20
214.56668672811642
 10
173.5
 20
215.0
 10
173.49638897247866
 20
215.43331327188358
 10
168.8598737437618
 20
217.45067208140043
 10
168.81606451953692
 20
217.8063131327311
 10
168.76633430334076
 20
218.16117467068057
 10
172.72273322603263
 20
221.3098120897845
 10
172.61407148351577
 20
221.72929517266556
 10
172.4984337715143
 20
222.14690905015678
 10
167.49777308740582
 20
222.8955095810611
 10
167.36340994899268
 20
223.22769379584943
 10
167.22352932442615
 20
223.55759259304284
 10
170.23018989276994
 20
227.6229341849912
 10
170.01666049839542
 20
228.0
 10
169.79687662088637
 20
228.37345478748745
 10
164.77285724302573
 20
227.80228115071895
 10
164.55709681626155
 20
228.0883707236875
 10
164.33659841672525
 20
228.37082472227965
 10
166.18862168172984
 20
233.07582417587582
 10
165.88477631085024
 20
233.38477631085024
 10
165.57582417587582
 20
233.68862168172984
 10
160.87082472227968
 20
231.83659841672525
 10
160.5883707236875
 20
232.05709681626155
 10
160.30228115071895
 20
232.27285724302573
 10
160.87345478748745
 20
237.29687662088637
 10
160.5
 20
237.5166604983954
 10
160.1229341849912
 20
237.73018989276994
 10
156.05759259304284
 20
234.72352932442615
 10
155.72769379584943
 20
234.86340994899268
 10
155.3955095810611
 20
234.99777308740582
 10
154.64690905015678
 20
239.9984337715143
 10
154.22929517266556
 20
240.11407148351577
 10
153.8098120897845
 20
240.22273322603263
 10
150.66117467068057
 20
236.26633430334076
 10
150.3063131327311
 20
236.31606451953692
 10
149.95067208140043
 20
236.3598737437618
 10
147.93331327188358
 20
240.99638897247866
 10
147.5
 20
241.0
 10
147.06668672811645
 20
240.99638897247866
 10
145.04932791859957
 20
236.3598737437618
 10
144.6936868672689
 20
236.31606451953692
 10
144.33882532931943
 20
236.26633430334076
 10
141.19018791021554
 20
240.22273322603263
 10
140.77070482733447
 20
240.11407148351577
 10
140.35309094984322
 20
239.99843377151433
 10
139.6044904189389
 20
234.99777308740582
 10
139.27230620415057
 20
234.86340994899268
 10
138.94240740695716
 20
234.72352932442615
 10
134.8770658150088
 20
237.73018989276994
 10
134.5
 20
237.51666049839542
 10
134.12654521251255
 20
237.29687662088637
 10
134.69771884928105
 20
232.27285724302573
 10
134.4116292763125
 20
232.05709681626155
 10
134.12917527772035
 20
231.83659841672525
 10
129.42417582412418
 20
233.68862168172984
 10
129.11522368914976
 20
233.38477631085024
 10
128.81137831827016
 20
233.07582417587582
 10
130.66340158327475
 20
228.37082472227968
 10
130.44290318373845
 20
228.0883707236875
 10
130.22714275697427
 20
227.80228115071895
 10
125.20312337911363
 20
228.37345478748745
 10
124.9833395016046
 20
228.0
 10
124.76981010723007
 20
227.6229341849912
 10
127.77647067557385
 20
223.55759259304284
 10
127.63659005100735
 20
223.22769379584946
 10
127.50222691259418
 20
222.8955095810611
 10
122.5015662284857
 20
222.1469090501568
 10
122.38592851648423
 20
221.72929517266556
 10
122.27726677396738
 20
221.3098120897845
 10
126.23366569665924
 20
218.16117467068057
 10
126.18393548046308
 20
217.80631313273113
 10
126.1401262562382
 20
217.45067208140046
 10
121.50361102752134
 20
215.43331327188358
 10
121.5
 20
215.0
 10
121.50361102752134
 20
214.56668672811645
 10
126.1401262562382
 20
212.54932791859957
 10
126.18393548046308
 20
212.1936868672689
 10
126.23366569665924
 20
211.83882532931943
 10
122.27726677396738
 20
208.69018791021554
 10
122.38592851648423
 20
208.27070482733447
 10
122.50156622848569
 20
207.85309094984322
 10
127.50222691259418
 20
207.10449041893892
 10
127.63659005100733
 20
206.7723062041506
 10
127.77647067557385
 20
206.44240740695716
 10
124.76981010723006
 20
202.3770658150088
 10
124.98333950160459
 20
202.0
 10
125.20312337911363
 20
201.62654521251255
 10
130.22714275697427
 20
202.19771884928105
 10
130.44290318373845
 20
201.9116292763125
 10
130.66340158327475
 20
201.62917527772035
 10
128.81137831827016
 20
196.92417582412418
 10
129.11522368914976
 20
196.6152236891498
 10
129.42417582412415
 20
196.31137831827016
 10
134.12917527772032
 20
198.16340158327475
 10
134.4116292763125
 20
197.94290318373845
 10
134.69771884928105
 20
197.72714275697427
 10
134.12654521251255
 20
192.70312337911363
 10
134.5
 20
192.4833395016046
 10
134.8770658150088
 20
192.26981010723006
 10
138.94240740695716
 20
195.27647067557385
 10
139.27230620415054
 20
195.13659005100735
 10
139.6044904189389
 20
195.00222691259418
 10
140.3530909498432
 20
190.0015662284857
 10
140.77070482733444
 20
189.88592851648423
 10
141.1901879102155
 20
189.77726677396737
 10
144.3388253293194
 20
193.73366569665924
 10
144.69368686726887
 20
193.68393548046308
 10
145.04932791859954
 20
193.6401262562382
 10
147.06668672811642
 20
189.00361102752134
 10
147.5
 20
189.0
 10
147.93331327188355
 20
189.00361102752134
 10
149.95067208140043
 20
193.6401262562382
 10
150.3063131327311
 20
193.68393548046308
 10
150.66117467068057
 20
193.73366569665924
 10
153.80981208978446
 20
189.77726677396737
 10
154.22929517266553
 20
189.88592851648423
 10
154.64690905015675
 20
190.00156622848567
 10
155.39550958106108
 20
195.00222691259418
 10
155.7276937958494
 20
195.13659005100732
 10
156.05759259304284
 20
195.27647067557385
 10
160.12293418499118
 20
192.26981010723006
 10
160.5
 20
192.48333950160458
 10
160.87345478748745
 20
192.7031233791136
 10
160.30228115071895
 20
197.72714275697427
 10
160.5883707236875
 20
197.94290318373845
 10
160.87082472227962
 20
198.16340158327472
 10
165.57582417587582
 20
196.31137831827016
 10
165.8847763108502
 20
196.61522368914976
 10
166.18862168172984
 20
196.92417582412418
 10
164.33659841672525
 20
201.62917527772032
 10
164.55709681626155
 20
201.9116292763125
 10
164.77285724302573
 20
202.19771884928105
 10
169.79687662088637
 20
201.62654521251255
 10
170.0166604983954
 20
202.0
 10
170.23018989276994
 20
202.3770658150088
 10
167.22352932442615
 20
206.44240740695716
 10
167.36340994899265
 20
206.77230620415054
 10
167.49777308740582
 20
207.1044904189389
 10
172.4984337715143
 20
207.8530909498432
 10
172.61407148351577
 20
208.27070482733444
 10
172.7227332260326
 20
208.6901879102155
 10
168.76633430334076
 20
211.8388253293194
 10
168.81606451953692
 20
212.19368686726887
 10
168.8598737437618
 20
212.54932791859954
  0
CIRCLE
  5
85
330
17
100
AcDbEntity
  8
CUTS
100
AcDbCircle
 10
147.5
 20
215.0
 30
0.0
 40
1.6
  0
TEXT
  5
86
330
17
100
AcDbEntity
  8
ENGRAVE
100
AcDbText
 10
141.5
 20
213.0
 30
0.0
 40
2.0
  1
LG
 11
141.5
 21
213.0
 31
0.0
100
AcDbText
  0
LWPOLYLINE
  5
87
330
17
100
AcDbEntity
  8
CUTS
100
AcDbPolyline
 90
4
 70
1
 10
181.5
 20
195.0
 10
221.5
 20
195.0
 10
221.5
 20
235.0
 10
181.5
 20
235.0
  0
CIRCLE
  5
88
330
17
100
AcDbEntity
  8
CUTS
100
AcDbCircle
 10
201.5
 20
230.0
 30
0.0
 40
2.0
  0
LWPOLYLINE
  5
89
330
17
100
AcDbEntity
  8
CUTS
100
AcDbPolyline
 90
4
 70
1
 10
196.5
 20
195.0
 10
196.5
 20
207.0
 10
206.5
 20
207.0
 10
206.5
 20
195.0
  0
TEXT
  5
8A
330
17
100
AcDbEntity
  8
ENGRAVE
100
AcDbText
 10
186.5
 20
217.0
 30
0.0
 40
3.0
  1
M6 HOOK
 11
186.5
 21
217.0
 31
0.0
100
AcDbText
  0
LWPOLYLINE
  5
8B
330
17
100
AcDbEntity
  8
CUTS
100
AcDbPolyline
 90
4
 70
1
 10
229.5
 20
208.0
 10
299.5
 20
208.0
 10
299.5
 20
222.0
 10
229.5
 20
222.0
  0
CIRCLE
  5
8C
330
17
100
AcDbEntity
  8
CUTS
100
AcDbCircle
 10
237.5
 20
215.0
 30
0.0
 40
1.6
  0
CIRCLE
  5
8D
330
17
100
AcDbEntity
  8
CUTS
100
AcDbCircle
 10
291.5
 20
215.0
 30
0.0
 40
3.0
  0
TEXT
  5
8E
330
17
100
AcDbEntity
  8
ENGRAVE
100
AcDbText
 10
247.5
 20
210.0
 30
0.0
 40
2.0
  1
M6 CRANK
 11
247.5
 21
210.0
 31
0.0
100
AcDbText
  0
CIRCLE
  5
8F
330
17
100
AcDbEntity
  8
CUTS
100
AcDbCircle
 10
332.5
 20
215.0
 30
0.0
 40
25.0
  0
CIRCLE
  5
90
330
17
100
AcDbEntity
  8
CUTS
100
AcDbCircle
 10
332.5
 20
215.0
 30
0.0
 40
1.6
  0
CIRCLE
  5
91
330
17
100
AcDbEntity
  8
ENGRAVE
100
AcDbCircle
 10
332.5
 20
215.0
 30
0.0
 40
22.0
  0
TEXT
  5
92
330
17
100
AcDbEntity
  8
ENGRAVE
100
AcDbText
 10
320.5
 20
213.0
 30
0.0
 40
3.0
  1
M6 PUL
 11
320.5
 21
213.0
 31
0.0
100
AcDbText
  0
ENDSEC
  0
SECTION
  2
OBJECTS
  0
DICTIONARY
  5
A
330
0
100
AcDbDictionary
281
1
  3
ACAD_COLOR
350
B
  3
ACAD_GROUP
350
C
  3
ACAD_LAYOUT
350
D
  3
ACAD_MATERIAL
350
E
  3
ACAD_MLEADERSTYLE
350
F
  3
ACAD_MLINESTYLE
350
10
  3
ACAD_PLOTSETTINGS
350
11
  3
ACAD_PLOTSTYLENAME
350
12
  3
ACAD_SCALELIST
350
14
  3
ACAD_TABLESTYLE
350
15
  3
ACAD_VISUALSTYLE
350
16
  3
EZDXF_META
350
2D
  0
DICTIONARY
  5
B
330
A
100
AcDbDictionary
281
1
  0
DICTIONARY
  5
C
330
A
100
AcDbDictionary
281
1
  0
DICTIONARY
  5
D
330
A
100
AcDbDictionary
281
1
  3
Model
350
1A
  3
Layout1
350
1E
  0
DICTIONARY
  5
E
330
A
100
AcDbDictionary
281
1
  3
ByBlock
350
1F
  3
ByLayer
350
20
  3
Global
350
21
  0
DICTIONARY
  5
F
330
A
100
AcDbDictionary
281
1
  3
Standard
350
2C
  0
DICTIONARY
  5
10
330
A
100
AcDbDictionary
281
1
  3
Standard
350
22
  0
DICTIONARY
  5
11
330
A
100
AcDbDictionary
281
1
  0
ACDBDICTIONARYWDFLT
  5
12
330
A
100
AcDbDictionary
281
1
  3
Normal
350
13
100
AcDbDictionaryWithDefault
340
13
  0
ACDBPLACEHOLDER
  5
13
330
12
  0
DICTIONARY
  5
14
330
A
100
AcDbDictionary
281
1
  0
DICTIONARY
  5
15
330
A
100
AcDbDictionary
281
1
  0
DICTIONARY
  5
16
330
A
100
AcDbDictionary
281
1
  0
LAYOUT
  5
1A
330
D
100
AcDbPlotSettings
  1

  4
A3
  6

 40
7.5
 41
20.0
 42
7.5
 43
20.0
 44
420.0
 45
297.0
 46
0.0
 47
0.0
 48
0.0
 49
0.0
140
0.0
141
0.0
142
1.0
143
1.0
 70
1024
 72
1
 73
0
 74
5
  7

 75
16
 76
0
 77
2
 78
300
147
1.0
148
0.0
149
0.0
100
AcDbLayout
  1
Model
 70
1
 71
0
 10
0.0
 20
0.0
 11
420.0
 21
297.0
 12
0.0
 22
0.0
 32
0.0
 14
1e+20
 24
1e+20
 34
1e+20
 15
-1e+20
 25
-1e+20
 35
-1e+20
146
0.0
 13
0.0
 23
0.0
 33
0.0
 16
1.0
 26
0.0
 36
0.0
 17
0.0
 27
1.0
 37
0.0
 76
1
330
17
  0
LAYOUT
  5
1E
330
D
100
AcDbPlotSettings
  1

  4
A3
  6

 40
7.5
 41
20.0
 42
7.5
 43
20.0
 44
420.0
 45
297.0
 46
0.0
 47
0.0
 48
0.0
 49
0.0
140
0.0
141
0.0
142
1.0
143
1.0
 70
0
 72
1
 73
0
 74
5
  7

 75
16
 76
0
 77
2
 78
300
147
1.0
148
0.0
149
0.0
100
AcDbLayout
  1
Layout1
 70
1
 71
1
 10
0.0
 20
0.0
 11
420.0
 21
297.0
 12
0.0
 22
0.0
 32
0.0
 14
1e+20
 24
1e+20
 34
1e+20
 15
-1e+20
 25
-1e+20
 35
-1e+20
146
0.0
 13
0.0
 23
0.0
 33
0.0
 16
1.0
 26
0.0
 36
0.0
 17
0.0
 27
1.0
 37
0.0
 76
1
330
1B
  0
MATERIAL
  5
1F
102
{ACAD_REACTORS
330
E
102
}
330
E
100
AcDbMaterial
  1
ByBlock
  2

 70
0
 40
1.0
 71
1
 41
1.0
 91
-1023410177
 42
1.0
 72
1
  3

 73
1
 74
1
 75
1
 44
0.5
 73
0
 45
1.0
 46
1.0
 77
1
  4

 78
1
 79
1
170
1
 48
1.0
171
1
  6

172
1
173
1
174
1
140
1.0
141
1.0
175
1
  7

176
1
177
1
178
1
143
1.0
179
1
  8

270
1
271
1
272
1
145
1.0
146
1.0
273
1
  9

274
1
275
1
276
1
 42
1.0
 72
1
  3

 73
1
 74
1
 75
1
 94
63
  0
MATERIAL
  5
20
102
{ACAD_REACTORS
330
E
102
}
330
E
100
AcDbMaterial
  1
ByLayer
  2

 70
0
 40
1.0
 71
1
 41
1.0
 91
-1023410177
 42
1.0
 72
1
  3

 73
1
 74
1
 75
1
 44
0.5
 73
0
 45
1.0
 46
1.0
 77
1
  4

 78
1
 79
1
170
1
 48
1.0
171
1
  6

172
1
173
1
174
1
140
1.0
141
1.0
175
1
  7

176
1
177
1
178
1
143
1.0
179
1
  8

270
1
271
1
272
1
145
1.0
146
1.0
273
1
  9

274
1
275
1
276
1
 42
1.0
 72
1
  3

 73
1
 74
1
 75
1
 94
63
  0
MATERIAL
  5
21
102
{ACAD_REACTORS
330
E
102
}
330
E
100
AcDbMaterial
  1
Global
  2

 70
0
 40
1.0
 71
1
 41
1.0
 91
-1023410177
 42
1.0
 72
1
  3

 73
1
 74
1
 75
1
 44
0.5
 73
0
 45
1.0
 46
1.0
 77
1
  4

 78
1
 79
1
170
1
 48
1.0
171
1
  6

172
1
173
1
174
1
140
1.0
141
1.0
175
1
  7

176
1
177
1
178
1
143
1.0
179
1
  8

270
1
271
1
272
1
145
1.0
146
1.0
273
1
  9

274
1
275
1
276
1
 42
1.0
 72
1
  3

 73
1
 74
1
 75
1
 94
63
  0
MLINESTYLE
  5
22
102
{ACAD_REACTORS
330
10
102
}
330
10
100
AcDbMlineStyle
  2
Standard
 70
0
  3

 62
256
 51
90.0
 52
90.0
 71
2
 49
0.5
 62
256
  6
BYLAYER
 49
-0.5
 62
256
  6
BYLAYER
  0
MLEADERSTYLE
  5
2C
102
{ACAD_REACTORS
330
F
102
}
330
F
100
AcDbMLeaderStyle
179
2
170
2
171
1
172
0
 90
2
 40
0.0
 41
0.0
173
1
 91
-1056964608
 92
-2
290
1
 42
2.0
291
1
 43
8.0
  3
Standard
 44
4.0
300

342
29
174
1
175
1
176
0
178
1
 93
-1056964608
 45
4.0
292
0
297
0
 46
4.0
 94
-1056964608
 47
1.0
 49
1.0
140
1.0
294
1
141
0.0
177
0
142
1.0
295
0
296
0
143
3.75
271
0
272
9
273
9
  0
DICTIONARY
  5
2D
330
A
100
AcDbDictionary
280
1
281
1
  3
CREATED_BY_EZDXF
350
2E
  3
WRITTEN_BY_EZDXF
350
95
  0
DICTIONARYVAR
  5
2E
330
2D
100
DictionaryVariables
280
0
  1
1.4.3 @ 2026-03-19T20:22:44.957589+00:00
  0
DICTIONARYVAR
  5
95
330
2D
100
DictionaryVariables
280
0
  1
1.4.3 @ 2026-03-19T20:22:44.968017+00:00
  0
ENDSEC
  0
EOF
