<?xml version="1.0" encoding="utf-8" standalone="no"?>
<!DOCTYPE svg PUBLIC "-//W3C//DTD SVG 1.1//EN"
  "http://www.w3.org/Graphics/SVG/1.1/DTD/svg11.dtd">
<svg xmlns:xlink="http://www.w3.org/1999/xlink" width="503.297561pt" height="360pt" viewBox="0 0 503.297561 360" xmlns="http://www.w3.org/2000/svg" version="1.1">
 <metadata>
  <rdf:RDF xmlns:dc="http://purl.org/dc/elements/1.1/" xmlns:cc="http://creativecommons.org/ns#" xmlns:rdf="http://www.w3.org/1999/02/22-rdf-syntax-ns#">
   <cc:Work>
    <dc:type rdf:resource="http://purl.org/dc/dcmitype/StillImage"/>
    <dc:date>2026-03-26T11:16:33.350244</dc:date>
    <dc:format>image/svg+xml</dc:format>
    <dc:creator>
     <cc:Agent>
      <dc:title>Matplotlib v3.10.8, https://matplotlib.org/</dc:title>
     </cc:Agent>
    </dc:creator>
   </cc:Work>
  </rdf:RDF>
 </metadata>
 <defs>
  <style type="text/css">*{stroke-linejoin: round; stroke-linecap: butt}</style>
 </defs>
 <g id="figure_1">
  <g id="patch_1">
   <path d="M 0 360 
L 503.297561 360 
L 503.297561 0 
L 0 0 
z
" style="fill: #1a1a2e"/>
  </g>
  <g id="axes_1">
   <g id="patch_2">
    <path d="M 7.2 352.8 
L 496.097561 352.8 
L 496.097561 7.2 
L 7.2 7.2 
z
" style="fill: #1a1a2e"/>
   </g>
   <g id="patch_3">
    <path d="M 29.422616 176.168514 
L 284.854989 176.168514 
L 284.854989 22.909091 
L 29.422616 22.909091 
L 29.422616 176.168514 
" clip-path="url(#p321a574f4f)" style="fill: none; stroke: #ffffff; stroke-width: 0.48; stroke-linejoin: miter"/>
   </g>
   <g id="patch_4">
    <path d="M 39.859451 33.126386 
L 39.859451 29.2949 
L 39.185151 29.2949 
L 38.270403 31.960736 
Q 38.137112 32.352771 38.066545 32.574924 
L 38.056091 32.574924 
Q 38.032569 32.459927 37.880982 32.00778 
L 36.974075 29.2949 
L 36.216142 29.2949 
L 36.216142 33.126386 
L 36.697038 33.126386 
L 36.697038 29.867271 
L 36.712719 29.867271 
L 37.810416 33.126386 
L 38.265176 33.126386 
L 39.368101 29.919542 
L 39.378555 29.919542 
L 39.378555 33.126386 
L 39.859451 33.126386 
M 51.87662 33.126386 
L 50.313709 29.2949 
L 49.767474 29.2949 
L 48.296037 33.126386 
L 48.831818 33.126386 
L 49.255215 31.960736 
L 50.854717 31.960736 
L 51.30425 33.126386 
L 51.87662 33.126386 
M 54.558138 30.418733 
L 55.044261 30.379529 
Q 55.020739 29.828067 54.632624 29.528814 
Q 54.24451 29.229561 53.6068 29.229561 
Q 52.984772 29.229561 52.6241 29.530121 
Q 52.263428 29.830681 52.263428 30.290668 
Q 52.263428 30.695771 52.548306 30.949287 
Q 52.833185 31.202802 53.480042 31.342628 
Q 54.126899 31.482454 54.401324 31.6262 
Q 54.675748 31.769946 54.675748 32.083574 
Q 54.675748 32.384133 54.413085 32.559242 
Q 54.150422 32.734351 53.724411 32.734351 
Q 53.26965 32.734351 52.948182 32.523959 
Q 52.626713 32.313567 52.592737 31.85358 
L 52.111841 31.895397 
Q 52.135363 32.470381 52.536545 32.831053 
Q 52.937728 33.191725 53.745319 33.191725 
Q 54.377802 33.191725 54.771143 32.865029 
Q 55.164485 32.538334 55.164485 32.04437 
Q 55.164485 31.654949 54.950172 31.423649 
Q 54.73586 31.192348 54.4353 31.082578 
Q 54.13474 30.972809 53.659071 30.868266 
Q 53.123291 30.748042 52.933807 30.626511 
Q 52.744324 30.504981 52.744324 30.256692 
Q 52.744324 29.977041 52.989999 29.830681 
Q 53.235674 29.684321 53.627709 29.684321 
Q 54.06156 29.684321 54.294168 29.868578 
Q 54.526775 30.052834 54.558138 30.418733 
M 47.305496 31.087805 
Q 47.57208 30.949287 47.704065 30.736281 
Q 47.83605 30.523276 47.83605 30.272373 
Q 47.83605 29.901247 47.549864 29.598074 
Q 47.263679 29.2949 46.565857 29.2949 
L 45.128397 29.2949 
L 45.128397 33.126386 
L 46.594606 33.126386 
Q 47.104252 33.126386 47.402198 32.999628 
Q 47.700144 32.87287 47.862185 32.603673 
Q 48.024226 32.334476 48.024226 32.013007 
Q 48.024226 31.691539 47.845197 31.444557 
Q 47.666168 31.197575 47.305496 31.087805 
M 58.726773 33.126386 
L 58.726773 32.671626 
L 56.371951 32.671626 
L 56.371951 31.375298 
L 58.491552 31.375298 
L 58.491552 30.920537 
L 56.371951 30.920537 
L 56.371951 29.74966 
L 58.637912 29.74966 
L 58.637912 29.2949 
L 55.86492 29.2949 
L 55.86492 33.126386 
L 58.726773 33.126386 
M 42.274384 33.126386 
L 42.274384 29.276605 
L 41.968597 29.276605 
Q 41.673265 29.851589 40.860446 30.241011 
L 40.860446 30.695771 
Q 41.451112 30.463164 41.803943 30.128627 
L 41.803943 33.126386 
L 42.274384 33.126386 
M 50.700516 31.558247 
L 49.398961 31.558247 
L 49.827586 30.410892 
Q 49.950423 30.081583 50.023603 29.694776 
L 50.036671 29.694776 
Q 50.109851 29.977041 50.169963 30.145615 
Q 50.230075 30.31419 50.700516 31.558247 
M 45.635428 32.671626 
L 45.635428 31.354389 
L 46.52404 31.354389 
Q 47.075502 31.354389 47.287201 31.528191 
Q 47.4989 31.701993 47.4989 32.013007 
Q 47.4989 32.321408 47.300269 32.496517 
Q 47.101638 32.671626 46.589379 32.671626 
L 45.635428 32.671626 
M 45.635428 30.899629 
L 45.635428 29.74966 
L 46.401203 29.74966 
Q 46.693922 29.74966 46.880792 29.77841 
Q 47.067662 29.807159 47.20226 29.93653 
Q 47.336859 30.065902 47.336859 30.337712 
Q 47.336859 30.596455 47.203567 30.719293 
Q 47.070275 30.84213 46.896473 30.87088 
Q 46.722671 30.899629 46.466542 30.899629 
L 45.635428 30.899629 
" clip-path="url(#p321a574f4f)" style="fill: #ff0000"/>
   </g>
   <g id="patch_5">
    <path d="M 78.657206 125.08204 
L 82.360976 125.08204 
L 82.360976 112.310421 
L 78.657206 112.310421 
L 78.657206 125.08204 
" clip-path="url(#p321a574f4f)" style="fill: none; stroke: #ffffff; stroke-width: 0.48; stroke-linejoin: miter"/>
   </g>
   <g id="patch_6">
    <path d="M 78.657206 86.767184 
L 82.360976 86.767184 
L 82.360976 73.995565 
L 78.657206 73.995565 
L 78.657206 86.767184 
" clip-path="url(#p321a574f4f)" style="fill: none; stroke: #ffffff; stroke-width: 0.48; stroke-linejoin: miter"/>
   </g>
   <g id="patch_7">
    <path d="M 231.91663 125.08204 
L 235.620399 125.08204 
L 235.620399 112.310421 
L 231.91663 112.310421 
L 231.91663 125.08204 
" clip-path="url(#p321a574f4f)" style="fill: none; stroke: #ffffff; stroke-width: 0.48; stroke-linejoin: miter"/>
   </g>
   <g id="patch_8">
    <path d="M 231.91663 86.767184 
L 235.620399 86.767184 
L 235.620399 73.995565 
L 231.91663 73.995565 
L 231.91663 86.767184 
" clip-path="url(#p321a574f4f)" style="fill: none; stroke: #ffffff; stroke-width: 0.48; stroke-linejoin: miter"/>
   </g>
   <g id="patch_9">
    <path d="M 59.499778 105.924612 
L 63.203548 105.924612 
L 63.203548 93.152993 
L 59.499778 93.152993 
L 59.499778 105.924612 
" clip-path="url(#p321a574f4f)" style="fill: none; stroke: #ffffff; stroke-width: 0.48; stroke-linejoin: miter"/>
   </g>
   <g id="patch_10">
    <path d="M 295.072284 73.995565 
L 371.701996 73.995565 
L 371.701996 176.168514 
L 358.930377 176.168514 
L 358.930377 180 
L 346.158758 180 
L 346.158758 176.168514 
L 320.615521 176.168514 
L 320.615521 180 
L 307.843902 180 
L 307.843902 176.168514 
L 295.072284 176.168514 
L 295.072284 73.995565 
" clip-path="url(#p321a574f4f)" style="fill: none; stroke: #ffffff; stroke-width: 0.48; stroke-linejoin: miter"/>
   </g>
   <g id="patch_11">
    <path d="M 335.430599 93.152993 
C 335.430599 94.281565 334.515711 95.196452 333.38714 95.196452 
C 332.258568 95.196452 331.343681 94.281565 331.343681 93.152993 
C 331.343681 92.024422 332.258568 91.109534 333.38714 91.109534 
C 334.515711 91.109534 335.430599 92.024422 335.430599 93.152993 
" clip-path="url(#p321a574f4f)" style="fill: none; stroke: #ffffff; stroke-width: 0.48; stroke-linejoin: miter"/>
   </g>
   <g id="patch_12">
    <path d="M 305.509118 84.21286 
L 305.509118 80.381375 
L 304.834818 80.381375 
L 303.920071 83.047211 
Q 303.786779 83.439245 303.716213 83.661398 
L 303.705759 83.661398 
Q 303.682237 83.546401 303.53065 83.094255 
L 302.623743 80.381375 
L 301.865809 80.381375 
L 301.865809 84.21286 
L 302.346705 84.21286 
L 302.346705 80.953745 
L 302.362386 80.953745 
L 303.460084 84.21286 
L 303.914844 84.21286 
L 305.017768 81.006017 
L 305.028222 81.006017 
L 305.028222 84.21286 
L 305.509118 84.21286 
M 315.866674 80.381375 
L 315.866674 84.21286 
L 317.246636 84.21286 
Q 318.229337 84.21286 318.631826 83.667932 
Q 319.034315 83.123004 319.034315 82.276209 
Q 319.034315 81.831903 318.936306 81.519582 
Q 318.838297 81.207261 318.667109 80.966813 
Q 318.49592 80.726365 318.267233 80.589153 
Q 318.038546 80.451941 317.787644 80.416658 
Q 317.536742 80.381375 317.189138 80.381375 
L 315.866674 80.381375 
M 313.067547 81.505207 
L 313.55367 81.466004 
Q 313.530148 80.914542 313.142033 80.615289 
Q 312.753919 80.316036 312.116209 80.316036 
Q 311.494181 80.316036 311.133509 80.616596 
Q 310.772837 80.917155 310.772837 81.377143 
Q 310.772837 81.782245 311.057716 82.035761 
Q 311.342594 82.289277 311.989451 82.429103 
Q 312.636309 82.568928 312.910733 82.712674 
Q 313.185157 82.85642 313.185157 83.170048 
Q 313.185157 83.470608 312.922494 83.645717 
Q 312.659831 83.820826 312.23382 83.820826 
Q 311.779059 83.820826 311.457591 83.610434 
Q 311.136123 83.400042 311.102146 82.940054 
L 310.62125 82.981871 
Q 310.644772 83.556856 311.045955 83.917528 
Q 311.447137 84.278199 312.254728 84.278199 
Q 312.887211 84.278199 313.280552 83.951504 
Q 313.673894 83.624808 313.673894 83.130845 
Q 313.673894 82.741423 313.459581 82.510123 
Q 313.245269 82.278823 312.944709 82.169053 
Q 312.644149 82.059283 312.168481 81.954741 
Q 311.6327 81.834517 311.443216 81.712986 
Q 311.253733 81.591455 311.253733 81.343166 
Q 311.253733 81.063515 311.499408 80.917155 
Q 311.745083 80.770796 312.137118 80.770796 
Q 312.570969 80.770796 312.803577 80.955052 
Q 313.036184 81.139308 313.067547 81.505207 
M 322.588762 84.21286 
L 322.588762 83.7581 
L 320.233941 83.7581 
L 320.233941 82.461772 
L 322.353541 82.461772 
L 322.353541 82.007012 
L 320.233941 82.007012 
L 320.233941 80.836135 
L 322.499901 80.836135 
L 322.499901 80.381375 
L 319.726909 80.381375 
L 319.726909 84.21286 
L 322.588762 84.21286 
M 327.159887 84.21286 
L 327.159887 83.7581 
L 325.270279 83.7581 
L 325.270279 80.381375 
L 324.763248 80.381375 
L 324.763248 84.21286 
L 327.159887 84.21286 
M 307.924052 84.21286 
L 307.924052 80.36308 
L 307.618265 80.36308 
Q 307.322932 80.938064 306.510113 81.327485 
L 306.510113 81.782245 
Q 307.100779 81.549638 307.45361 81.215102 
L 307.45361 84.21286 
L 307.924052 84.21286 
M 314.951927 84.21286 
L 314.951927 80.381375 
L 314.442282 80.381375 
L 314.442282 84.21286 
L 314.951927 84.21286 
M 316.373706 83.7581 
L 316.373706 80.836135 
L 317.178684 80.836135 
Q 317.442654 80.836135 317.611229 80.857043 
Q 317.779804 80.877952 317.957526 80.973347 
Q 318.135248 81.068742 318.27246 81.273907 
Q 318.409673 81.479072 318.460637 81.728667 
Q 318.511602 81.978263 318.511602 82.265755 
Q 318.511602 82.785854 318.37831 83.102095 
Q 318.245018 83.418337 318.042467 83.556856 
Q 317.839916 83.695375 317.642591 83.726737 
Q 317.445267 83.7581 317.194365 83.7581 
L 316.373706 83.7581 
" clip-path="url(#p321a574f4f)" style="fill: #ff0000"/>
   </g>
   <g id="patch_13">
    <path d="M 381.91929 73.995565 
L 458.549002 73.995565 
L 458.549002 176.168514 
L 445.777384 176.168514 
L 445.777384 180 
L 433.005765 180 
L 433.005765 176.168514 
L 407.462528 176.168514 
L 407.462528 180 
L 394.690909 180 
L 394.690909 176.168514 
L 381.91929 176.168514 
L 381.91929 73.995565 
" clip-path="url(#p321a574f4f)" style="fill: none; stroke: #ffffff; stroke-width: 0.48; stroke-linejoin: miter"/>
   </g>
   <g id="patch_14">
    <path d="M 422.277605 93.152993 
C 422.277605 94.281565 421.362718 95.196452 420.234146 95.196452 
C 419.105575 95.196452 418.190687 94.281565 418.190687 93.152993 
C 418.190687 92.024422 419.105575 91.109534 420.234146 91.109534 
C 421.362718 91.109534 422.277605 92.024422 422.277605 93.152993 
" clip-path="url(#p321a574f4f)" style="fill: none; stroke: #ffffff; stroke-width: 0.48; stroke-linejoin: miter"/>
   </g>
   <g id="patch_15">
    <path d="M 392.356125 84.21286 
L 392.356125 80.381375 
L 391.681825 80.381375 
L 390.767078 83.047211 
Q 390.633786 83.439245 390.56322 83.661398 
L 390.552765 83.661398 
Q 390.529243 83.546401 390.377656 83.094255 
L 389.47075 80.381375 
L 388.712816 80.381375 
L 388.712816 84.21286 
L 389.193712 84.21286 
L 389.193712 80.953745 
L 389.209393 80.953745 
L 390.30709 84.21286 
L 390.76185 84.21286 
L 391.864775 81.006017 
L 391.875229 81.006017 
L 391.875229 84.21286 
L 392.356125 84.21286 
M 415.013116 84.21286 
L 414.344043 83.170048 
Q 414.006893 82.642108 413.622699 82.472226 
L 413.622699 82.461772 
Q 414.148026 82.391206 414.42245 82.127236 
Q 414.696874 81.863266 414.696874 81.429414 
Q 414.696874 81.188966 414.601479 80.97204 
Q 414.506084 80.755114 414.328362 80.612675 
Q 414.150639 80.470236 413.915419 80.425805 
Q 413.680198 80.381375 413.332594 80.381375 
L 411.63639 80.381375 
L 411.63639 84.21286 
L 412.143422 84.21286 
L 412.143422 82.521884 
L 412.72886 82.521884 
Q 412.951013 82.521884 413.085612 82.561088 
Q 413.22021 82.600291 413.373104 82.747957 
Q 413.525997 82.895624 413.664516 83.102095 
Q 413.803035 83.308567 414.375406 84.21286 
L 415.013116 84.21286 
M 402.713681 80.381375 
L 402.713681 84.21286 
L 404.093643 84.21286 
Q 405.076343 84.21286 405.478832 83.667932 
Q 405.881321 83.123004 405.881321 82.276209 
Q 405.881321 81.831903 405.783313 81.519582 
Q 405.685304 81.207261 405.514115 80.966813 
Q 405.342927 80.726365 405.11424 80.589153 
Q 404.885553 80.451941 404.634651 80.416658 
Q 404.383749 80.381375 404.036145 80.381375 
L 402.713681 80.381375 
M 399.914553 81.505207 
L 400.400676 81.466004 
Q 400.377154 80.914542 399.98904 80.615289 
Q 399.600926 80.316036 398.963216 80.316036 
Q 398.341188 80.316036 397.980516 80.616596 
Q 397.619844 80.917155 397.619844 81.377143 
Q 397.619844 81.782245 397.904722 82.035761 
Q 398.189601 82.289277 398.836458 82.429103 
Q 399.483315 82.568928 399.75774 82.712674 
Q 400.032164 82.85642 400.032164 83.170048 
Q 400.032164 83.470608 399.769501 83.645717 
Q 399.506837 83.820826 399.080826 83.820826 
Q 398.626066 83.820826 398.304598 83.610434 
Q 397.983129 83.400042 397.949153 82.940054 
L 397.468257 82.981871 
Q 397.491779 83.556856 397.892961 83.917528 
Q 398.294143 84.278199 399.101735 84.278199 
Q 399.734217 84.278199 400.127559 83.951504 
Q 400.5209 83.624808 400.5209 83.130845 
Q 400.5209 82.741423 400.306588 82.510123 
Q 400.092276 82.278823 399.791716 82.169053 
Q 399.491156 82.059283 399.015487 81.954741 
Q 398.479706 81.834517 398.290223 81.712986 
Q 398.10074 81.591455 398.10074 81.343166 
Q 398.10074 81.063515 398.346415 80.917155 
Q 398.59209 80.770796 398.984124 80.770796 
Q 399.417976 80.770796 399.650583 80.955052 
Q 399.883191 81.139308 399.914553 81.505207 
M 409.435769 84.21286 
L 409.435769 83.7581 
L 407.080947 83.7581 
L 407.080947 82.461772 
L 409.200548 82.461772 
L 409.200548 82.007012 
L 407.080947 82.007012 
L 407.080947 80.836135 
L 409.346908 80.836135 
L 409.346908 80.381375 
L 406.573916 80.381375 
L 406.573916 84.21286 
L 409.435769 84.21286 
M 394.771058 84.21286 
L 394.771058 80.36308 
L 394.465271 80.36308 
Q 394.169939 80.938064 393.35712 81.327485 
L 393.35712 81.782245 
Q 393.947786 81.549638 394.300617 81.215102 
L 394.300617 84.21286 
L 394.771058 84.21286 
M 401.798933 84.21286 
L 401.798933 80.381375 
L 401.289288 80.381375 
L 401.289288 84.21286 
L 401.798933 84.21286 
M 412.143422 82.067124 
L 412.143422 80.802159 
L 413.353502 80.802159 
Q 413.792581 80.802159 413.983371 80.985108 
Q 414.174161 81.168058 414.174161 81.429414 
Q 414.174161 81.630659 414.059165 81.7927 
Q 413.944168 81.954741 413.752071 82.010932 
Q 413.559974 82.067124 413.230665 82.067124 
L 412.143422 82.067124 
M 403.220712 83.7581 
L 403.220712 80.836135 
L 404.02569 80.836135 
Q 404.28966 80.836135 404.458235 80.857043 
Q 404.62681 80.877952 404.804533 80.973347 
Q 404.982255 81.068742 405.119467 81.273907 
Q 405.256679 81.479072 405.307644 81.728667 
Q 405.358608 81.978263 405.358608 82.265755 
Q 405.358608 82.785854 405.225316 83.102095 
Q 405.092025 83.418337 404.889473 83.556856 
Q 404.686922 83.695375 404.489598 83.726737 
Q 404.292274 83.7581 404.041372 83.7581 
L 403.220712 83.7581 
" clip-path="url(#p321a574f4f)" style="fill: #ff0000"/>
   </g>
   <g id="patch_16">
    <path d="M 29.422616 224.700665 
L 387.027938 224.700665 
L 387.027938 199.157428 
L 29.422616 199.157428 
L 29.422616 224.700665 
" clip-path="url(#p321a574f4f)" style="fill: none; stroke: #ffffff; stroke-width: 0.48; stroke-linejoin: miter"/>
   </g>
   <g id="patch_17">
    <path d="M 159.182262 211.929047 
C 159.182262 213.057618 158.267374 213.972506 157.138803 213.972506 
C 156.010231 213.972506 155.095344 213.057618 155.095344 211.929047 
C 155.095344 210.800475 156.010231 209.885588 157.138803 209.885588 
C 158.267374 209.885588 159.182262 210.800475 159.182262 211.929047 
" clip-path="url(#p321a574f4f)" style="fill: none; stroke: #ffffff; stroke-width: 0.48; stroke-linejoin: miter"/>
   </g>
   <g id="patch_18">
    <path d="M 56.217751 208.097561 
L 56.217751 204.266075 
L 55.543451 204.266075 
L 54.628704 206.931911 
Q 54.495412 207.323946 54.424846 207.546099 
L 54.414392 207.546099 
Q 54.390869 207.431102 54.239283 206.978955 
L 53.332376 204.266075 
L 52.574442 204.266075 
L 52.574442 208.097561 
L 53.055338 208.097561 
L 53.055338 204.838446 
L 53.071019 204.838446 
L 54.168716 208.097561 
L 54.623477 208.097561 
L 55.726401 204.890717 
L 55.736855 204.890717 
L 55.736855 208.097561 
L 56.217751 208.097561 
M 39.859451 208.097561 
L 39.859451 204.266075 
L 39.185151 204.266075 
L 38.270403 206.931911 
Q 38.137112 207.323946 38.066545 207.546099 
L 38.056091 207.546099 
Q 38.032569 207.431102 37.880982 206.978955 
L 36.974075 204.266075 
L 36.216142 204.266075 
L 36.216142 208.097561 
L 36.697038 208.097561 
L 36.697038 204.838446 
L 36.712719 204.838446 
L 37.810416 208.097561 
L 38.265176 208.097561 
L 39.368101 204.890717 
L 39.378555 204.890717 
L 39.378555 208.097561 
L 39.859451 208.097561 
M 48.306491 208.097561 
L 46.74358 204.266075 
L 46.197345 204.266075 
L 44.725908 208.097561 
L 45.261689 208.097561 
L 45.685086 206.931911 
L 47.284588 206.931911 
L 47.734121 208.097561 
L 48.306491 208.097561 
M 88.121533 204.266075 
L 87.530868 204.266075 
Q 86.480215 205.855123 86.370445 206.069435 
Q 86.195336 205.75058 86.067271 205.554563 
L 85.225704 204.266075 
L 84.608902 204.266075 
L 86.085566 206.474537 
L 86.085566 208.097561 
L 86.595211 208.097561 
L 86.595211 206.474537 
L 88.121533 204.266075 
M 72.474122 206.882253 
L 71.969704 206.754189 
Q 71.857321 207.242925 71.576363 207.485987 
Q 71.295405 207.729048 70.845872 207.729048 
Q 70.297023 207.729048 69.955953 207.339627 
Q 69.614883 206.950206 69.614883 206.150455 
Q 69.614883 205.457861 69.938965 205.046224 
Q 70.263047 204.634588 70.890302 204.634588 
Q 71.274496 204.634588 71.530626 204.835832 
Q 71.786755 205.037077 71.912206 205.436952 
L 72.408783 205.319342 
Q 72.249356 204.770493 71.852094 204.485615 
Q 71.454832 204.200736 70.895529 204.200736 
Q 70.101006 204.200736 69.595281 204.719529 
Q 69.089556 205.238321 69.089556 206.155683 
Q 69.089556 206.984182 69.519488 207.573541 
Q 69.949419 208.1629 70.890302 208.1629 
Q 71.473127 208.1629 71.889991 207.845352 
Q 72.306854 207.527804 72.474122 206.882253 
M 68.757634 208.097561 
L 68.088561 207.054749 
Q 67.751411 206.526809 67.367217 206.356927 
L 67.367217 206.346473 
Q 67.892544 206.275907 68.166968 206.011936 
Q 68.441392 205.747966 68.441392 205.314115 
Q 68.441392 205.073667 68.345997 204.856741 
Q 68.250602 204.639815 68.07288 204.497376 
Q 67.895157 204.354937 67.659937 204.310506 
Q 67.424716 204.266075 67.077112 204.266075 
L 65.380908 204.266075 
L 65.380908 208.097561 
L 65.88794 208.097561 
L 65.88794 206.406585 
L 66.473378 206.406585 
Q 66.695531 206.406585 66.83013 206.445788 
Q 66.964728 206.484992 67.117622 206.632658 
Q 67.270515 206.780324 67.409034 206.986796 
Q 67.547553 207.193268 68.119924 208.097561 
L 68.757634 208.097561 
M 52.106614 208.097561 
L 51.437542 207.054749 
Q 51.100392 206.526809 50.716198 206.356927 
L 50.716198 206.346473 
Q 51.241524 206.275907 51.515948 206.011936 
Q 51.790373 205.747966 51.790373 205.314115 
Q 51.790373 205.073667 51.694978 204.856741 
Q 51.599583 204.639815 51.42186 204.497376 
Q 51.244138 204.354937 51.008917 204.310506 
Q 50.773696 204.266075 50.426092 204.266075 
L 48.729889 204.266075 
L 48.729889 208.097561 
L 49.23692 208.097561 
L 49.23692 206.406585 
L 49.822359 206.406585 
Q 50.044512 206.406585 50.17911 206.445788 
Q 50.313709 206.484992 50.466602 206.632658 
Q 50.619496 206.780324 50.758015 206.986796 
Q 50.896534 207.193268 51.468904 208.097561 
L 52.106614 208.097561 
M 76.120045 208.097561 
L 76.120045 204.266075 
L 75.6104 204.266075 
L 75.6104 205.839441 
L 73.618864 205.839441 
L 73.618864 204.266075 
L 73.111832 204.266075 
L 73.111832 208.097561 
L 73.618864 208.097561 
L 73.618864 206.294201 
L 75.6104 206.294201 
L 75.6104 208.097561 
L 76.120045 208.097561 
M 78.448731 204.266075 
L 78.448731 208.097561 
L 78.955762 208.097561 
L 78.955762 206.545104 
L 79.935849 206.545104 
Q 80.688556 206.545104 81.029626 206.224942 
Q 81.370696 205.90478 81.370696 205.374227 
Q 81.370696 205.107643 81.262233 204.863275 
Q 81.15377 204.618907 80.942071 204.476467 
Q 80.730373 204.334028 80.483391 204.300052 
Q 80.236409 204.266075 79.894032 204.266075 
L 78.448731 204.266075 
M 62.469397 206.058981 
Q 62.735981 205.920462 62.867966 205.707456 
Q 62.999951 205.494451 62.999951 205.243549 
Q 62.999951 204.872422 62.713766 204.569249 
Q 62.42758 204.266075 61.729759 204.266075 
L 60.292298 204.266075 
L 60.292298 208.097561 
L 61.758508 208.097561 
Q 62.268153 208.097561 62.566099 207.970803 
Q 62.864046 207.844045 63.026087 207.574848 
Q 63.188128 207.305651 63.188128 206.984182 
Q 63.188128 206.662714 63.009098 206.415732 
Q 62.830069 206.16875 62.469397 206.058981 
M 84.405044 208.097561 
L 84.405044 207.642801 
L 82.515437 207.642801 
L 82.515437 204.266075 
L 82.008406 204.266075 
L 82.008406 208.097561 
L 84.405044 208.097561 
M 59.701633 209.221394 
Q 58.920177 207.969496 58.920177 206.707145 
Q 58.920177 206.113866 59.078297 205.538881 
Q 59.236418 204.963897 59.701633 204.200736 
L 59.364483 204.200736 
Q 58.961994 204.733903 58.698024 205.358545 
Q 58.434054 205.983187 58.434054 206.712372 
Q 58.434054 207.355309 58.682342 208.011313 
Q 58.930631 208.667318 59.364483 209.221394 
L 59.701633 209.221394 
M 88.68345 204.200736 
L 88.3463 204.200736 
Q 89.127756 205.452634 89.127756 206.717599 
Q 89.127756 207.310878 88.969635 207.884555 
Q 88.811514 208.458233 88.3463 209.221394 
L 88.68345 209.221394 
Q 89.085938 208.688227 89.349908 208.063585 
Q 89.613879 207.438943 89.613879 206.712372 
Q 89.613879 206.066821 89.36559 205.410817 
Q 89.117301 204.754812 88.68345 204.200736 
M 42.274384 208.097561 
L 42.274384 204.24778 
L 41.968597 204.24778 
Q 41.673265 204.822765 40.860446 205.212186 
L 40.860446 205.666946 
Q 41.451112 205.434339 41.803943 205.099802 
L 41.803943 208.097561 
L 42.274384 208.097561 
M 64.466161 208.097561 
L 64.466161 204.266075 
L 63.956516 204.266075 
L 63.956516 208.097561 
L 64.466161 208.097561 
M 47.130387 206.529422 
L 45.828832 206.529422 
L 46.257457 205.382067 
Q 46.380294 205.052758 46.453474 204.665951 
L 46.466542 204.665951 
Q 46.539722 204.948216 46.599834 205.116791 
Q 46.659946 205.285366 47.130387 206.529422 
M 65.88794 205.951825 
L 65.88794 204.686859 
L 67.09802 204.686859 
Q 67.537099 204.686859 67.727889 204.869809 
Q 67.918679 205.052758 67.918679 205.314115 
Q 67.918679 205.515359 67.803683 205.6774 
Q 67.688686 205.839441 67.496589 205.895633 
Q 67.304492 205.951825 66.975183 205.951825 
L 65.88794 205.951825 
M 49.23692 205.951825 
L 49.23692 204.686859 
L 50.447001 204.686859 
Q 50.886079 204.686859 51.07687 204.869809 
Q 51.26766 205.052758 51.26766 205.314115 
Q 51.26766 205.515359 51.152663 205.6774 
Q 51.037666 205.839441 50.845569 205.895633 
Q 50.653472 205.951825 50.324163 205.951825 
L 49.23692 205.951825 
M 78.955762 206.090343 
L 78.955762 204.720836 
L 79.930622 204.720836 
Q 80.267772 204.720836 80.43896 204.763959 
Q 80.610149 204.807083 80.727759 204.983499 
Q 80.84537 205.159914 80.84537 205.389908 
Q 80.84537 206.090343 79.941076 206.090343 
L 78.955762 206.090343 
M 60.79933 207.642801 
L 60.79933 206.325564 
L 61.687942 206.325564 
Q 62.239404 206.325564 62.451102 206.499366 
Q 62.662801 206.673168 62.662801 206.984182 
Q 62.662801 207.292583 62.46417 207.467692 
Q 62.265539 207.642801 61.753281 207.642801 
L 60.79933 207.642801 
M 60.79933 205.870804 
L 60.79933 204.720836 
L 61.565104 204.720836 
Q 61.857823 204.720836 62.044693 204.749585 
Q 62.231563 204.778334 62.366162 204.907705 
Q 62.50076 205.037077 62.50076 205.308888 
Q 62.50076 205.567631 62.367468 205.690468 
Q 62.234177 205.813306 62.060375 205.842055 
Q 61.886573 205.870804 61.630443 205.870804 
L 60.79933 205.870804 
" clip-path="url(#p321a574f4f)" style="fill: #ff0000"/>
   </g>
   <g id="patch_19">
    <path d="M 397.245233 186.385809 
L 473.874945 186.385809 
L 473.874945 250.243902 
L 441.945898 250.243902 
L 441.945898 254.075388 
L 429.174279 254.075388 
L 429.174279 250.243902 
L 397.245233 250.243902 
L 397.245233 186.385809 
" clip-path="url(#p321a574f4f)" style="fill: none; stroke: #ffffff; stroke-width: 0.48; stroke-linejoin: miter"/>
   </g>
   <g id="patch_20">
    <path d="M 421.481688 192.70628 
Q 420.666256 192.70628 420.155304 193.248594 
Q 419.644352 193.790909 419.644352 194.734406 
Q 419.644352 195.544611 420.14877 196.106527 
Q 420.653188 196.668443 421.481688 196.668443 
Q 422.281439 196.668443 422.796311 196.126129 
Q 423.311183 195.583814 423.311183 194.692589 
Q 423.311183 193.798749 422.798924 193.252514 
Q 422.286666 192.70628 421.481688 192.70628 
M 407.682067 196.603104 
L 407.682067 192.771619 
L 407.007767 192.771619 
L 406.09302 195.437454 
Q 405.959728 195.829489 405.889162 196.051642 
L 405.878708 196.051642 
Q 405.855186 195.936645 405.703599 195.484499 
L 404.796692 192.771619 
L 404.038758 192.771619 
L 404.038758 196.603104 
L 404.519654 196.603104 
L 404.519654 193.343989 
L 404.535335 193.343989 
L 405.633033 196.603104 
L 406.087793 196.603104 
L 407.190717 193.396261 
L 407.201171 193.396261 
L 407.201171 196.603104 
L 407.682067 196.603104 
M 415.240496 193.895451 
L 415.726619 193.856248 
Q 415.703097 193.304786 415.314982 193.005533 
Q 414.926868 192.70628 414.289158 192.70628 
Q 413.66713 192.70628 413.306458 193.006839 
Q 412.945786 193.307399 412.945786 193.767387 
Q 412.945786 194.172489 413.230665 194.426005 
Q 413.515543 194.679521 414.1624 194.819346 
Q 414.809258 194.959172 415.083682 195.102918 
Q 415.358106 195.246664 415.358106 195.560292 
Q 415.358106 195.860852 415.095443 196.035961 
Q 414.83278 196.21107 414.406769 196.21107 
Q 413.952008 196.21107 413.63054 196.000678 
Q 413.309072 195.790286 413.275095 195.330298 
L 412.794199 195.372115 
Q 412.817721 195.9471 413.218904 196.307771 
Q 413.620086 196.668443 414.427677 196.668443 
Q 415.06016 196.668443 415.453501 196.341748 
Q 415.846843 196.015052 415.846843 195.521089 
Q 415.846843 195.131667 415.63253 194.900367 
Q 415.418218 194.669066 415.117658 194.559297 
Q 414.817098 194.449527 414.34143 194.344984 
Q 413.805649 194.22476 413.616165 194.10323 
Q 413.426682 193.981699 413.426682 193.73341 
Q 413.426682 193.453759 413.672357 193.307399 
Q 413.918032 193.16104 414.310067 193.16104 
Q 414.743918 193.16104 414.976526 193.345296 
Q 415.209133 193.529552 415.240496 193.895451 
M 419.275839 193.226379 
L 419.275839 192.771619 
L 416.241491 192.771619 
L 416.241491 193.226379 
L 417.498615 193.226379 
L 417.498615 196.603104 
L 418.008261 196.603104 
L 418.008261 193.226379 
L 419.275839 193.226379 
M 423.969801 192.771619 
L 423.969801 196.603104 
L 424.476833 196.603104 
L 424.476833 195.050647 
L 425.456919 195.050647 
Q 426.209626 195.050647 426.550696 194.730485 
Q 426.891766 194.410324 426.891766 193.87977 
Q 426.891766 193.613186 426.783303 193.368818 
Q 426.674841 193.12445 426.463142 192.982011 
Q 426.251443 192.839571 426.004461 192.805595 
Q 425.757479 192.771619 425.415102 192.771619 
L 423.969801 192.771619 
M 410.097001 196.603104 
L 410.097001 192.753324 
L 409.791214 192.753324 
Q 409.495881 193.328308 408.683062 193.717729 
L 408.683062 194.172489 
Q 409.273728 193.939882 409.626559 193.605346 
L 409.626559 196.603104 
L 410.097001 196.603104 
M 421.476461 196.234592 
Q 420.896249 196.234592 420.532964 195.822955 
Q 420.169678 195.411319 420.169678 194.74486 
Q 420.169678 193.929428 420.540805 193.534779 
Q 420.911931 193.140131 421.486915 193.140131 
Q 422.046218 193.140131 422.416037 193.54262 
Q 422.785857 193.945109 422.785857 194.692589 
Q 422.783243 195.419159 422.421264 195.826876 
Q 422.059286 196.234592 421.476461 196.234592 
M 424.476833 194.595887 
L 424.476833 193.226379 
L 425.451692 193.226379 
Q 425.788842 193.226379 425.960031 193.269503 
Q 426.131219 193.312626 426.248829 193.489042 
Q 426.36644 193.665458 426.36644 193.895451 
Q 426.36644 194.595887 425.462147 194.595887 
L 424.476833 194.595887 
" clip-path="url(#p321a574f4f)" style="fill: #ff0000"/>
   </g>
   <g id="patch_21">
    <path d="M 54.965854 234.91796 
L 106.052328 234.91796 
L 106.052328 260.461197 
L 131.595565 260.461197 
L 131.595565 311.547672 
L 106.052328 311.547672 
L 106.052328 337.090909 
L 54.965854 337.090909 
L 54.965854 311.547672 
L 29.422616 311.547672 
L 29.422616 260.461197 
L 54.965854 260.461197 
L 54.965854 234.91796 
" clip-path="url(#p321a574f4f)" style="fill: none; stroke: #ffffff; stroke-width: 0.48; stroke-linejoin: miter"/>
   </g>
   <g id="line2d_1">
    <path d="M 54.965854 311.547672 
L 106.052328 311.547672 
" clip-path="url(#p321a574f4f)" style="fill: none; stroke: #ff0000; stroke-width: 0.48; stroke-linecap: square"/>
   </g>
   <g id="line2d_2">
    <path d="M 54.965854 260.461197 
L 106.052328 260.461197 
" clip-path="url(#p321a574f4f)" style="fill: none; stroke: #ff0000; stroke-width: 0.48; stroke-linecap: square"/>
   </g>
   <g id="line2d_3">
    <path d="M 54.965854 311.547672 
L 54.965854 260.461197 
" clip-path="url(#p321a574f4f)" style="fill: none; stroke: #ff0000; stroke-width: 0.48; stroke-linecap: square"/>
   </g>
   <g id="line2d_4">
    <path d="M 106.052328 311.547672 
L 106.052328 260.461197 
" clip-path="url(#p321a574f4f)" style="fill: none; stroke: #ff0000; stroke-width: 0.48; stroke-linecap: square"/>
   </g>
   <g id="patch_22">
    <path d="M 61.571202 286.004435 
L 61.571202 282.172949 
L 60.896903 282.172949 
L 59.982155 284.838785 
Q 59.848863 285.230819 59.778297 285.452972 
L 59.767843 285.452972 
Q 59.744321 285.337976 59.592734 284.885829 
L 58.685827 282.172949 
L 57.927893 282.172949 
L 57.927893 286.004435 
L 58.408789 286.004435 
L 58.408789 282.74532 
L 58.424471 282.74532 
L 59.522168 286.004435 
L 59.976928 286.004435 
L 61.079852 282.797591 
L 61.090307 282.797591 
L 61.090307 286.004435 
L 61.571202 286.004435 
M 70.099263 284.789127 
L 69.594845 284.661062 
Q 69.482462 285.149799 69.201504 285.39286 
Q 68.920546 285.635922 68.471013 285.635922 
Q 67.922164 285.635922 67.581094 285.246501 
Q 67.240024 284.85708 67.240024 284.057329 
Q 67.240024 283.364734 67.564106 282.953098 
Q 67.888188 282.541462 68.515443 282.541462 
Q 68.899637 282.541462 69.155767 282.742706 
Q 69.411896 282.943951 69.537347 283.343826 
L 70.033924 283.226216 
Q 69.874497 282.677367 69.477235 282.392488 
Q 69.079973 282.10761 68.52067 282.10761 
Q 67.726147 282.10761 67.220422 282.626402 
Q 66.714697 283.145195 66.714697 284.062556 
Q 66.714697 284.891056 67.144629 285.480415 
Q 67.57456 286.069774 68.515443 286.069774 
Q 69.098268 286.069774 69.515132 285.752226 
Q 69.931995 285.434678 70.099263 284.789127 
M 73.745186 284.389252 
L 73.745186 282.172949 
L 73.235541 282.172949 
L 73.235541 284.381411 
Q 73.235541 284.789127 73.167588 285.046563 
Q 73.099635 285.303999 72.874869 285.4582 
Q 72.650102 285.6124 72.203183 285.6124 
Q 71.76149 285.6124 71.549792 285.418996 
Q 71.338093 285.225592 71.288435 284.975997 
Q 71.238778 284.726402 71.238778 284.381411 
L 71.238778 282.172949 
L 70.731746 282.172949 
L 70.731746 284.389252 
Q 70.731746 284.721174 70.772256 284.990372 
Q 70.812767 285.259569 70.959126 285.507857 
Q 71.105486 285.756146 71.419114 285.91296 
Q 71.732741 286.069774 72.245 286.069774 
Q 72.770326 286.069774 73.085261 285.893358 
Q 73.400195 285.716942 73.540021 285.451666 
Q 73.679847 285.186389 73.712516 284.935487 
Q 73.745186 284.684585 73.745186 284.389252 
M 74.586754 282.172949 
L 74.586754 286.004435 
L 75.093785 286.004435 
L 75.093785 284.451977 
L 76.073872 284.451977 
Q 76.826578 284.451977 77.167649 284.131816 
Q 77.508719 283.811654 77.508719 283.2811 
Q 77.508719 283.014517 77.400256 282.770148 
Q 77.291793 282.52578 77.080094 282.383341 
Q 76.868396 282.240902 76.621414 282.206925 
Q 76.374432 282.172949 76.032055 282.172949 
L 74.586754 282.172949 
M 63.986136 286.004435 
L 63.986136 282.154654 
L 63.680349 282.154654 
Q 63.385016 282.729638 62.572198 283.119059 
L 62.572198 283.57382 
Q 63.162863 283.341212 63.515694 283.006676 
L 63.515694 286.004435 
L 63.986136 286.004435 
M 75.093785 283.997217 
L 75.093785 282.627709 
L 76.068645 282.627709 
Q 76.405795 282.627709 76.576983 282.670833 
Q 76.748172 282.713957 76.865782 282.890372 
Q 76.983392 283.066788 76.983392 283.296782 
Q 76.983392 283.997217 76.079099 283.997217 
L 75.093785 283.997217 
" clip-path="url(#p321a574f4f)" style="fill: #ff0000"/>
   </g>
  </g>
 </g>
 <defs>
  <clipPath id="p321a574f4f">
   <rect x="7.2" y="7.2" width="488.897561" height="345.6"/>
  </clipPath>
 </defs>
</svg>
