<?xml version="1.0" encoding="utf-8" standalone="no"?>
<!DOCTYPE svg PUBLIC "-//W3C//DTD SVG 1.1//EN"
  "http://www.w3.org/Graphics/SVG/1.1/DTD/svg11.dtd">
<svg xmlns:xlink="http://www.w3.org/1999/xlink" width="497.407229pt" height="360pt" viewBox="0 0 497.407229 360" xmlns="http://www.w3.org/2000/svg" version="1.1">
 <metadata>
  <rdf:RDF xmlns:dc="http://purl.org/dc/elements/1.1/" xmlns:cc="http://creativecommons.org/ns#" xmlns:rdf="http://www.w3.org/1999/02/22-rdf-syntax-ns#">
   <cc:Work>
    <dc:type rdf:resource="http://purl.org/dc/dcmitype/StillImage"/>
    <dc:date>2026-03-20T00:31:32.137678</dc:date>
    <dc:format>image/svg+xml</dc:format>
    <dc:creator>
     <cc:Agent>
      <dc:title>Matplotlib v3.10.8, https://matplotlib.org/</dc:title>
     </cc:Agent>
    </dc:creator>
   </cc:Work>
  </rdf:RDF>
 </metadata>
 <defs>
  <style type="text/css">*{stroke-linejoin: round; stroke-linecap: butt}</style>
 </defs>
 <g id="figure_1">
  <g id="patch_1">
   <path d="M 0 360 
L 497.407229 360 
L 497.407229 0 
L 0 0 
z
" style="fill: #1a1a2e"/>
  </g>
  <g id="axes_1">
   <g id="patch_2">
    <path d="M 7.2 352.8 
L 490.207229 352.8 
L 490.207229 7.2 
L 7.2 7.2 
z
" style="fill: #1a1a2e"/>
   </g>
   <g id="patch_3">
    <path d="M 29.154874 174.322015 
L 281.509748 174.322015 
L 281.509748 22.909091 
L 29.154874 22.909091 
L 29.154874 174.322015 
" clip-path="url(#p3c6bfd5844)" style="fill: none; stroke: #ffffff; stroke-width: 0.48; stroke-linejoin: miter"/>
   </g>
   <g id="patch_4">
    <path d="M 39.465963 33.003286 
L 39.465963 29.217963 
L 38.799788 29.217963 
L 37.896061 31.85168 
Q 37.764375 32.238991 37.694659 32.458468 
L 37.684331 32.458468 
Q 37.661092 32.344857 37.511332 31.898157 
L 36.615352 29.217963 
L 35.86655 29.217963 
L 35.86655 33.003286 
L 36.341652 33.003286 
L 36.341652 29.783437 
L 36.357144 29.783437 
L 37.441616 33.003286 
L 37.890897 33.003286 
L 38.980533 29.835079 
L 38.990861 29.835079 
L 38.990861 33.003286 
L 39.465963 33.003286 
M 51.338348 33.003286 
L 49.794267 29.217963 
L 49.254613 29.217963 
L 47.800904 33.003286 
L 48.33023 33.003286 
L 48.748526 31.85168 
L 50.328756 31.85168 
L 50.772873 33.003286 
L 51.338348 33.003286 
M 53.987558 30.328255 
L 54.467824 30.289524 
Q 54.444585 29.744706 54.061147 29.449059 
Q 53.677709 29.153411 53.047682 29.153411 
Q 52.433148 29.153411 52.076822 29.45035 
Q 51.720495 29.747288 51.720495 30.201734 
Q 51.720495 30.601955 52.001941 30.852417 
Q 52.283388 31.102878 52.922451 31.241019 
Q 53.561515 31.37916 53.832633 31.521174 
Q 54.103751 31.663189 54.103751 31.973038 
Q 54.103751 32.269976 53.844252 32.442975 
Q 53.584754 32.615975 53.163875 32.615975 
Q 52.714594 32.615975 52.396999 32.408117 
Q 52.079404 32.20026 52.045837 31.745815 
L 51.570735 31.787128 
Q 51.593973 32.355185 51.990322 32.711511 
Q 52.386671 33.067838 53.184532 33.067838 
Q 53.809394 33.067838 54.197997 32.745078 
Q 54.586599 32.422319 54.586599 31.934306 
Q 54.586599 31.549577 54.374869 31.321063 
Q 54.163139 31.09255 53.8662 30.984103 
Q 53.569261 30.875655 53.099324 30.772372 
Q 52.569998 30.653597 52.382798 30.53353 
Q 52.195597 30.413464 52.195597 30.168167 
Q 52.195597 29.891885 52.438312 29.747288 
Q 52.681027 29.602692 53.068339 29.602692 
Q 53.496963 29.602692 53.726768 29.784728 
Q 53.956573 29.966765 53.987558 30.328255 
M 46.822297 30.989267 
Q 47.085669 30.852417 47.216064 30.641978 
Q 47.346459 30.431538 47.346459 30.183659 
Q 47.346459 29.817004 47.063721 29.517484 
Q 46.780984 29.217963 46.09157 29.217963 
L 44.671428 29.217963 
L 44.671428 33.003286 
L 46.119973 33.003286 
Q 46.623477 33.003286 46.917834 32.878055 
Q 47.212191 32.752825 47.372279 32.486871 
Q 47.532368 32.220917 47.532368 31.903322 
Q 47.532368 31.585726 47.355496 31.34172 
Q 47.178624 31.097714 46.822297 30.989267 
M 58.105969 33.003286 
L 58.105969 32.554005 
L 55.779518 32.554005 
L 55.779518 31.273295 
L 57.873582 31.273295 
L 57.873582 30.824014 
L 55.779518 30.824014 
L 55.779518 29.667244 
L 58.018178 29.667244 
L 58.018178 29.217963 
L 55.278596 29.217963 
L 55.278596 33.003286 
L 58.105969 33.003286 
M 41.851801 33.003286 
L 41.851801 29.199888 
L 41.549699 29.199888 
Q 41.257924 29.767945 40.454898 30.152674 
L 40.454898 30.601955 
Q 41.038448 30.372151 41.387028 30.041645 
L 41.387028 33.003286 
L 41.851801 33.003286 
M 50.176414 31.45404 
L 48.89054 31.45404 
L 49.314 30.320509 
Q 49.435358 29.995168 49.507656 29.61302 
L 49.520567 29.61302 
Q 49.592865 29.891885 49.652252 30.058428 
Q 49.71164 30.224972 50.176414 31.45404 
M 45.172351 32.554005 
L 45.172351 31.252638 
L 46.050257 31.252638 
Q 46.595075 31.252638 46.804223 31.424347 
Q 47.013371 31.596055 47.013371 31.903322 
Q 47.013371 32.208007 46.817133 32.381006 
Q 46.620895 32.554005 46.114809 32.554005 
L 45.172351 32.554005 
M 45.172351 30.803357 
L 45.172351 29.667244 
L 45.928899 29.667244 
Q 46.218092 29.667244 46.40271 29.695647 
Q 46.587328 29.72405 46.720305 29.851862 
Q 46.853282 29.979675 46.853282 30.248211 
Q 46.853282 30.503837 46.721596 30.625194 
Q 46.58991 30.746552 46.418202 30.774954 
Q 46.246494 30.803357 45.993451 30.803357 
L 45.172351 30.803357 
" clip-path="url(#p3c6bfd5844)" style="fill: #ff0000"/>
   </g>
   <g id="patch_5">
    <path d="M 77.796276 123.851041 
L 81.455422 123.851041 
L 81.455422 111.233297 
L 77.796276 111.233297 
L 77.796276 123.851041 
" clip-path="url(#p3c6bfd5844)" style="fill: none; stroke: #ffffff; stroke-width: 0.48; stroke-linejoin: miter"/>
   </g>
   <g id="patch_6">
    <path d="M 77.796276 85.997809 
L 81.455422 85.997809 
L 81.455422 73.380066 
L 77.796276 73.380066 
L 77.796276 85.997809 
" clip-path="url(#p3c6bfd5844)" style="fill: none; stroke: #ffffff; stroke-width: 0.48; stroke-linejoin: miter"/>
   </g>
   <g id="patch_7">
    <path d="M 229.2092 123.851041 
L 232.868346 123.851041 
L 232.868346 111.233297 
L 229.2092 111.233297 
L 229.2092 123.851041 
" clip-path="url(#p3c6bfd5844)" style="fill: none; stroke: #ffffff; stroke-width: 0.48; stroke-linejoin: miter"/>
   </g>
   <g id="patch_8">
    <path d="M 229.2092 85.997809 
L 232.868346 85.997809 
L 232.868346 73.380066 
L 229.2092 73.380066 
L 229.2092 85.997809 
" clip-path="url(#p3c6bfd5844)" style="fill: none; stroke: #ffffff; stroke-width: 0.48; stroke-linejoin: miter"/>
   </g>
   <g id="patch_9">
    <path d="M 58.86966 104.924425 
L 62.528806 104.924425 
L 62.528806 92.306681 
L 58.86966 92.306681 
L 58.86966 104.924425 
" clip-path="url(#p3c6bfd5844)" style="fill: none; stroke: #ffffff; stroke-width: 0.48; stroke-linejoin: miter"/>
   </g>
   <g id="patch_10">
    <path d="M 291.603943 174.322015 
L 367.310405 174.322015 
L 367.310405 73.380066 
L 291.603943 73.380066 
L 291.603943 174.322015 
" clip-path="url(#p3c6bfd5844)" style="fill: none; stroke: #ffffff; stroke-width: 0.48; stroke-linejoin: miter"/>
   </g>
   <g id="patch_11">
    <path d="M 304.221687 178.107338 
L 316.83943 178.107338 
L 316.83943 174.322015 
L 304.221687 174.322015 
L 304.221687 178.107338 
" clip-path="url(#p3c6bfd5844)" style="fill: none; stroke: #ffffff; stroke-width: 0.48; stroke-linejoin: miter"/>
   </g>
   <g id="patch_12">
    <path d="M 342.074918 178.107338 
L 354.692662 178.107338 
L 354.692662 174.322015 
L 342.074918 174.322015 
L 342.074918 178.107338 
" clip-path="url(#p3c6bfd5844)" style="fill: none; stroke: #ffffff; stroke-width: 0.48; stroke-linejoin: miter"/>
   </g>
   <g id="patch_13">
    <path d="M 331.476013 92.306681 
C 331.476013 93.421655 330.572148 94.32552 329.457174 94.32552 
C 328.3422 94.32552 327.438335 93.421655 327.438335 92.306681 
C 327.438335 91.191707 328.3422 90.287842 329.457174 90.287842 
C 330.572148 90.287842 331.476013 91.191707 331.476013 92.306681 
" clip-path="url(#p3c6bfd5844)" style="fill: none; stroke: #ffffff; stroke-width: 0.48; stroke-linejoin: miter"/>
   </g>
   <g id="patch_14">
    <path d="M 327.627601 106.186199 
L 331.286747 106.186199 
L 331.286747 78.427163 
L 327.627601 78.427163 
L 327.627601 106.186199 
" clip-path="url(#p3c6bfd5844)" style="fill: none; stroke: #ffffff; stroke-width: 0.48; stroke-linejoin: miter"/>
   </g>
   <g id="patch_15">
    <path d="M 301.915032 83.474261 
L 301.915032 79.688938 
L 301.248857 79.688938 
L 300.34513 82.322655 
Q 300.213444 82.709966 300.143728 82.929443 
L 300.1334 82.929443 
Q 300.110161 82.815831 299.960401 82.369132 
L 299.064421 79.688938 
L 298.315619 79.688938 
L 298.315619 83.474261 
L 298.790721 83.474261 
L 298.790721 80.254412 
L 298.806213 80.254412 
L 299.890685 83.474261 
L 300.339966 83.474261 
L 301.429602 80.306054 
L 301.43993 80.306054 
L 301.43993 83.474261 
L 301.915032 83.474261 
M 312.147799 79.688938 
L 312.147799 83.474261 
L 313.511135 83.474261 
Q 314.481995 83.474261 314.879635 82.935898 
Q 315.277275 82.397535 315.277275 81.560943 
Q 315.277275 81.12199 315.180447 80.813432 
Q 315.083619 80.504874 314.914493 80.267323 
Q 314.745367 80.029772 314.519435 79.894213 
Q 314.293504 79.758654 314.045624 79.723796 
Q 313.797745 79.688938 313.454329 79.688938 
L 312.147799 79.688938 
M 309.382396 80.79923 
L 309.862662 80.760499 
Q 309.839423 80.215681 309.455985 79.920033 
Q 309.072546 79.624386 308.44252 79.624386 
Q 307.827986 79.624386 307.471659 79.921324 
Q 307.115333 80.218263 307.115333 80.672708 
Q 307.115333 81.07293 307.396779 81.323392 
Q 307.678226 81.573853 308.317289 81.711994 
Q 308.956353 81.850135 309.227471 81.992149 
Q 309.498589 82.134163 309.498589 82.444012 
Q 309.498589 82.740951 309.23909 82.91395 
Q 308.979592 83.086949 308.558713 83.086949 
Q 308.109432 83.086949 307.791837 82.879092 
Q 307.474242 82.671235 307.440675 82.21679 
L 306.965573 82.258103 
Q 306.988811 82.82616 307.38516 83.182486 
Q 307.781509 83.538813 308.57937 83.538813 
Q 309.204232 83.538813 309.592835 83.216053 
Q 309.981437 82.893294 309.981437 82.405281 
Q 309.981437 82.020552 309.769707 81.792038 
Q 309.557977 81.563525 309.261038 81.455077 
Q 308.964099 81.34663 308.494161 81.243347 
Q 307.964836 81.124572 307.777635 81.004505 
Q 307.590435 80.884439 307.590435 80.639141 
Q 307.590435 80.362859 307.83315 80.218263 
Q 308.075865 80.073667 308.463177 80.073667 
Q 308.891801 80.073667 309.121606 80.255703 
Q 309.351411 80.43774 309.382396 80.79923 
M 318.788898 83.474261 
L 318.788898 83.024979 
L 316.462447 83.024979 
L 316.462447 81.74427 
L 318.556511 81.74427 
L 318.556511 81.294989 
L 316.462447 81.294989 
L 316.462447 80.138219 
L 318.701107 80.138219 
L 318.701107 79.688938 
L 315.961525 79.688938 
L 315.961525 83.474261 
L 318.788898 83.474261 
M 323.304948 83.474261 
L 323.304948 83.024979 
L 321.438107 83.024979 
L 321.438107 79.688938 
L 320.937185 79.688938 
L 320.937185 83.474261 
L 323.304948 83.474261 
M 304.30087 83.474261 
L 304.30087 79.670863 
L 303.998768 79.670863 
Q 303.706993 80.23892 302.903967 80.623649 
L 302.903967 81.07293 
Q 303.487517 80.843125 303.836097 80.51262 
L 303.836097 83.474261 
L 304.30087 83.474261 
M 311.244072 83.474261 
L 311.244072 79.688938 
L 310.740567 79.688938 
L 310.740567 83.474261 
L 311.244072 83.474261 
M 312.648721 83.024979 
L 312.648721 80.138219 
L 313.444001 80.138219 
Q 313.70479 80.138219 313.871334 80.158875 
Q 314.037878 80.179532 314.213459 80.273778 
Q 314.389041 80.368024 314.5246 80.570716 
Q 314.660158 80.773409 314.710509 81.019998 
Q 314.760859 81.266586 314.760859 81.550614 
Q 314.760859 82.064447 314.629174 82.376878 
Q 314.497488 82.68931 314.297377 82.82616 
Q 314.097266 82.96301 313.902319 82.993995 
Q 313.707373 83.024979 313.459493 83.024979 
L 312.648721 83.024979 
" clip-path="url(#p3c6bfd5844)" style="fill: #ff0000"/>
   </g>
   <g id="patch_16">
    <path d="M 377.4046 174.322015 
L 453.111062 174.322015 
L 453.111062 73.380066 
L 377.4046 73.380066 
L 377.4046 174.322015 
" clip-path="url(#p3c6bfd5844)" style="fill: none; stroke: #ffffff; stroke-width: 0.48; stroke-linejoin: miter"/>
   </g>
   <g id="patch_17">
    <path d="M 390.022344 178.107338 
L 402.640088 178.107338 
L 402.640088 174.322015 
L 390.022344 174.322015 
L 390.022344 178.107338 
" clip-path="url(#p3c6bfd5844)" style="fill: none; stroke: #ffffff; stroke-width: 0.48; stroke-linejoin: miter"/>
   </g>
   <g id="patch_18">
    <path d="M 427.875575 178.107338 
L 440.493319 178.107338 
L 440.493319 174.322015 
L 427.875575 174.322015 
L 427.875575 178.107338 
" clip-path="url(#p3c6bfd5844)" style="fill: none; stroke: #ffffff; stroke-width: 0.48; stroke-linejoin: miter"/>
   </g>
   <g id="patch_19">
    <path d="M 417.27667 92.306681 
C 417.27667 93.421655 416.372805 94.32552 415.257831 94.32552 
C 414.142857 94.32552 413.238992 93.421655 413.238992 92.306681 
C 413.238992 91.191707 414.142857 90.287842 415.257831 90.287842 
C 416.372805 90.287842 417.27667 91.191707 417.27667 92.306681 
" clip-path="url(#p3c6bfd5844)" style="fill: none; stroke: #ffffff; stroke-width: 0.48; stroke-linejoin: miter"/>
   </g>
   <g id="patch_20">
    <path d="M 413.428258 106.186199 
L 417.087404 106.186199 
L 417.087404 78.427163 
L 413.428258 78.427163 
L 413.428258 106.186199 
" clip-path="url(#p3c6bfd5844)" style="fill: none; stroke: #ffffff; stroke-width: 0.48; stroke-linejoin: miter"/>
   </g>
   <g id="patch_21">
    <path d="M 387.71569 83.474261 
L 387.71569 79.688938 
L 387.049514 79.688938 
L 386.145787 82.322655 
Q 386.014102 82.709966 385.944386 82.929443 
L 385.934057 82.929443 
Q 385.910819 82.815831 385.761058 82.369132 
L 384.865078 79.688938 
L 384.116276 79.688938 
L 384.116276 83.474261 
L 384.591378 83.474261 
L 384.591378 80.254412 
L 384.60687 80.254412 
L 385.691342 83.474261 
L 386.140623 83.474261 
L 387.230259 80.306054 
L 387.240588 80.306054 
L 387.240588 83.474261 
L 387.71569 83.474261 
M 410.099705 83.474261 
L 409.438693 82.444012 
Q 409.105605 81.922433 408.72604 81.754598 
L 408.72604 81.74427 
Q 409.245037 81.674554 409.516155 81.413764 
Q 409.787273 81.152975 409.787273 80.72435 
Q 409.787273 80.486799 409.693028 80.272487 
Q 409.598782 80.058174 409.423201 79.917451 
Q 409.24762 79.776728 409.015233 79.732833 
Q 408.782846 79.688938 408.43943 79.688938 
L 406.763663 79.688938 
L 406.763663 83.474261 
L 407.264585 83.474261 
L 407.264585 81.803658 
L 407.84297 81.803658 
Q 408.062447 81.803658 408.195424 81.842389 
Q 408.328401 81.88112 408.479452 82.027007 
Q 408.630503 82.172894 408.767353 82.376878 
Q 408.904203 82.580862 409.469678 83.474261 
L 410.099705 83.474261 
M 397.948456 79.688938 
L 397.948456 83.474261 
L 399.311792 83.474261 
Q 400.282652 83.474261 400.680292 82.935898 
Q 401.077932 82.397535 401.077932 81.560943 
Q 401.077932 81.12199 400.981104 80.813432 
Q 400.884276 80.504874 400.71515 80.267323 
Q 400.546024 80.029772 400.320093 79.894213 
Q 400.094161 79.758654 399.846282 79.723796 
Q 399.598402 79.688938 399.254986 79.688938 
L 397.948456 79.688938 
M 395.183053 80.79923 
L 395.663319 80.760499 
Q 395.64008 80.215681 395.256642 79.920033 
Q 394.873204 79.624386 394.243177 79.624386 
Q 393.628643 79.624386 393.272317 79.921324 
Q 392.91599 80.218263 392.91599 80.672708 
Q 392.91599 81.07293 393.197436 81.323392 
Q 393.478883 81.573853 394.117946 81.711994 
Q 394.75701 81.850135 395.028128 81.992149 
Q 395.299246 82.134163 395.299246 82.444012 
Q 395.299246 82.740951 395.039748 82.91395 
Q 394.780249 83.086949 394.359371 83.086949 
Q 393.910089 83.086949 393.592494 82.879092 
Q 393.274899 82.671235 393.241332 82.21679 
L 392.76623 82.258103 
Q 392.789468 82.82616 393.185817 83.182486 
Q 393.582166 83.538813 394.380027 83.538813 
Q 395.00489 83.538813 395.393492 83.216053 
Q 395.782094 82.893294 395.782094 82.405281 
Q 395.782094 82.020552 395.570364 81.792038 
Q 395.358634 81.563525 395.061695 81.455077 
Q 394.764756 81.34663 394.294819 81.243347 
Q 393.765493 81.124572 393.578293 81.004505 
Q 393.391092 80.884439 393.391092 80.639141 
Q 393.391092 80.362859 393.633807 80.218263 
Q 393.876522 80.073667 394.263834 80.073667 
Q 394.692458 80.073667 394.922263 80.255703 
Q 395.152068 80.43774 395.183053 80.79923 
M 404.589555 83.474261 
L 404.589555 83.024979 
L 402.263105 83.024979 
L 402.263105 81.74427 
L 404.357168 81.74427 
L 404.357168 81.294989 
L 402.263105 81.294989 
L 402.263105 80.138219 
L 404.501764 80.138219 
L 404.501764 79.688938 
L 401.762182 79.688938 
L 401.762182 83.474261 
L 404.589555 83.474261 
M 390.101528 83.474261 
L 390.101528 79.670863 
L 389.799425 79.670863 
Q 389.50765 80.23892 388.704625 80.623649 
L 388.704625 81.07293 
Q 389.288174 80.843125 389.636754 80.51262 
L 389.636754 83.474261 
L 390.101528 83.474261 
M 397.044729 83.474261 
L 397.044729 79.688938 
L 396.541225 79.688938 
L 396.541225 83.474261 
L 397.044729 83.474261 
M 407.264585 81.354376 
L 407.264585 80.104652 
L 408.460086 80.104652 
Q 408.893875 80.104652 409.082367 80.285397 
Q 409.270858 80.466142 409.270858 80.72435 
Q 409.270858 80.92317 409.157247 81.083258 
Q 409.043636 81.243347 408.853853 81.298862 
Q 408.66407 81.354376 408.338729 81.354376 
L 407.264585 81.354376 
M 398.449379 83.024979 
L 398.449379 80.138219 
L 399.244658 80.138219 
Q 399.505448 80.138219 399.671992 80.158875 
Q 399.838535 80.179532 400.014117 80.273778 
Q 400.189698 80.368024 400.325257 80.570716 
Q 400.460816 80.773409 400.511166 81.019998 
Q 400.561517 81.266586 400.561517 81.550614 
Q 400.561517 82.064447 400.429831 82.376878 
Q 400.298145 82.68931 400.098034 82.82616 
Q 399.897923 82.96301 399.702976 82.993995 
Q 399.50803 83.024979 399.26015 83.024979 
L 398.449379 83.024979 
" clip-path="url(#p3c6bfd5844)" style="fill: #ff0000"/>
   </g>
   <g id="patch_22">
    <path d="M 29.154874 222.269441 
L 382.451698 222.269441 
L 382.451698 197.033954 
L 29.154874 197.033954 
L 29.154874 222.269441 
" clip-path="url(#p3c6bfd5844)" style="fill: none; stroke: #ffffff; stroke-width: 0.48; stroke-linejoin: miter"/>
   </g>
   <g id="patch_23">
    <path d="M 132.115663 209.651698 
C 132.115663 210.766672 131.211798 211.670537 130.096824 211.670537 
C 128.98185 211.670537 128.077985 210.766672 128.077985 209.651698 
C 128.077985 208.536724 128.98185 207.632859 130.096824 207.632859 
C 131.211798 207.632859 132.115663 208.536724 132.115663 209.651698 
" clip-path="url(#p3c6bfd5844)" style="fill: none; stroke: #ffffff; stroke-width: 0.48; stroke-linejoin: miter"/>
   </g>
   <g id="patch_24">
    <path d="M 361.695509 215.96057 
L 365.354655 215.96057 
L 365.354655 203.342826 
L 361.695509 203.342826 
L 361.695509 215.96057 
" clip-path="url(#p3c6bfd5844)" style="fill: none; stroke: #ffffff; stroke-width: 0.48; stroke-linejoin: miter"/>
   </g>
   <g id="patch_25">
    <path d="M 55.627176 205.866375 
L 55.627176 202.081051 
L 54.961 202.081051 
L 54.057274 204.714769 
Q 53.925588 205.10208 53.855872 205.321557 
L 53.845543 205.321557 
Q 53.822305 205.207945 53.672544 204.761246 
L 52.776564 202.081051 
L 52.027762 202.081051 
L 52.027762 205.866375 
L 52.502864 205.866375 
L 52.502864 202.646526 
L 52.518356 202.646526 
L 53.602828 205.866375 
L 54.05211 205.866375 
L 55.141746 202.698168 
L 55.152074 202.698168 
L 55.152074 205.866375 
L 55.627176 205.866375 
M 39.465963 205.866375 
L 39.465963 202.081051 
L 38.799788 202.081051 
L 37.896061 204.714769 
Q 37.764375 205.10208 37.694659 205.321557 
L 37.684331 205.321557 
Q 37.661092 205.207945 37.511332 204.761246 
L 36.615352 202.081051 
L 35.86655 202.081051 
L 35.86655 205.866375 
L 36.341652 205.866375 
L 36.341652 202.646526 
L 36.357144 202.646526 
L 37.441616 205.866375 
L 37.890897 205.866375 
L 38.980533 202.698168 
L 38.990861 202.698168 
L 38.990861 205.866375 
L 39.465963 205.866375 
M 47.811232 205.866375 
L 46.267151 202.081051 
L 45.727497 202.081051 
L 44.273788 205.866375 
L 44.803114 205.866375 
L 45.22141 204.714769 
L 46.801641 204.714769 
L 47.245758 205.866375 
L 47.811232 205.866375 
M 87.146575 202.081051 
L 86.563026 202.081051 
Q 85.525031 203.650954 85.416584 203.862684 
Q 85.243585 203.547671 85.117063 203.354015 
L 84.285635 202.081051 
L 83.676265 202.081051 
L 85.135138 204.262906 
L 85.135138 205.866375 
L 85.638643 205.866375 
L 85.638643 204.262906 
L 87.146575 202.081051 
M 71.687687 204.665709 
L 71.189347 204.539188 
Q 71.078317 205.022036 70.800744 205.262169 
Q 70.523171 205.502302 70.079054 205.502302 
Q 69.536818 205.502302 69.199857 205.117573 
Q 68.862896 204.732843 68.862896 203.942728 
Q 68.862896 203.258478 69.183074 202.851801 
Q 69.503251 202.445124 70.122949 202.445124 
Q 70.502514 202.445124 70.755558 202.643944 
Q 71.008601 202.842764 71.132541 203.237821 
L 71.623135 203.121628 
Q 71.465629 202.579392 71.073153 202.297946 
Q 70.680678 202.0165 70.128113 202.0165 
Q 69.343162 202.0165 68.843531 202.529042 
Q 68.343899 203.041584 68.343899 203.947892 
Q 68.343899 204.76641 68.76865 205.348668 
Q 69.193402 205.930926 70.122949 205.930926 
Q 70.698752 205.930926 71.110593 205.617204 
Q 71.522434 205.303482 71.687687 204.665709 
M 68.015975 205.866375 
L 67.354964 204.836126 
Q 67.021876 204.314547 66.642311 204.146712 
L 66.642311 204.136384 
Q 67.161308 204.066668 67.432426 203.805878 
Q 67.703544 203.545088 67.703544 203.116464 
Q 67.703544 202.878913 67.609298 202.664601 
Q 67.515053 202.450288 67.339472 202.309565 
Q 67.16389 202.168842 66.931504 202.124947 
Q 66.699117 202.081051 66.355701 202.081051 
L 64.679933 202.081051 
L 64.679933 205.866375 
L 65.180856 205.866375 
L 65.180856 204.195772 
L 65.759241 204.195772 
Q 65.978718 204.195772 66.111695 204.234503 
Q 66.244671 204.273234 66.395723 204.419121 
Q 66.546774 204.565008 66.683624 204.768992 
Q 66.820474 204.972976 67.385949 205.866375 
L 68.015975 205.866375 
M 51.565571 205.866375 
L 50.904559 204.836126 
Q 50.571471 204.314547 50.191906 204.146712 
L 50.191906 204.136384 
Q 50.710903 204.066668 50.982021 203.805878 
Q 51.253139 203.545088 51.253139 203.116464 
Q 51.253139 202.878913 51.158894 202.664601 
Q 51.064648 202.450288 50.889067 202.309565 
Q 50.713486 202.168842 50.481099 202.124947 
Q 50.248712 202.081051 49.905296 202.081051 
L 48.229529 202.081051 
L 48.229529 205.866375 
L 48.730451 205.866375 
L 48.730451 204.195772 
L 49.308836 204.195772 
Q 49.528313 204.195772 49.66129 204.234503 
Q 49.794267 204.273234 49.945318 204.419121 
Q 50.096369 204.565008 50.233219 204.768992 
Q 50.370069 204.972976 50.935544 205.866375 
L 51.565571 205.866375 
M 75.289683 205.866375 
L 75.289683 202.081051 
L 74.786178 202.081051 
L 74.786178 203.635461 
L 72.818636 203.635461 
L 72.818636 202.081051 
L 72.317714 202.081051 
L 72.317714 205.866375 
L 72.818636 205.866375 
L 72.818636 204.084742 
L 74.786178 204.084742 
L 74.786178 205.866375 
L 75.289683 205.866375 
M 77.590312 202.081051 
L 77.590312 205.866375 
L 78.091235 205.866375 
L 78.091235 204.332622 
L 79.059514 204.332622 
Q 79.803151 204.332622 80.140112 204.016317 
Q 80.477073 203.700013 80.477073 203.175852 
Q 80.477073 202.91248 80.369917 202.671056 
Q 80.262761 202.429632 80.053613 202.288909 
Q 79.844465 202.148185 79.600458 202.114618 
Q 79.356452 202.081051 79.0182 202.081051 
L 77.590312 202.081051 
M 61.803501 203.852355 
Q 62.066873 203.715505 62.197268 203.505066 
Q 62.327662 203.294627 62.327662 203.046748 
Q 62.327662 202.680093 62.044925 202.380572 
Q 61.762188 202.081051 61.072774 202.081051 
L 59.652632 202.081051 
L 59.652632 205.866375 
L 61.101176 205.866375 
Q 61.604681 205.866375 61.899038 205.741144 
Q 62.193394 205.615913 62.353483 205.349959 
Q 62.513572 205.084006 62.513572 204.76641 
Q 62.513572 204.448815 62.3367 204.204809 
Q 62.159828 203.960803 61.803501 203.852355 
M 83.474863 205.866375 
L 83.474863 205.417093 
L 81.608022 205.417093 
L 81.608022 202.081051 
L 81.1071 202.081051 
L 81.1071 205.866375 
L 83.474863 205.866375 
M 59.069083 206.976667 
Q 58.297042 205.739853 58.297042 204.49271 
Q 58.297042 203.906579 58.453258 203.338522 
Q 58.609473 202.770466 59.069083 202.0165 
L 58.735995 202.0165 
Q 58.338355 202.543243 58.077566 203.160359 
Q 57.816776 203.777475 57.816776 204.497874 
Q 57.816776 205.133065 58.062073 205.781166 
Q 58.30737 206.429267 58.735995 206.976667 
L 59.069083 206.976667 
M 87.701721 202.0165 
L 87.368633 202.0165 
Q 88.140674 203.253314 88.140674 204.503039 
Q 88.140674 205.08917 87.984459 205.655935 
Q 87.828243 206.222701 87.368633 206.976667 
L 87.701721 206.976667 
Q 88.099361 206.449924 88.360151 205.832808 
Q 88.62094 205.215691 88.62094 204.497874 
Q 88.62094 203.860102 88.375643 203.212001 
Q 88.130346 202.5639 87.701721 202.0165 
M 41.851801 205.866375 
L 41.851801 202.062977 
L 41.549699 202.062977 
Q 41.257924 202.631034 40.454898 203.015763 
L 40.454898 203.465044 
Q 41.038448 203.235239 41.387028 202.904734 
L 41.387028 205.866375 
L 41.851801 205.866375 
M 63.776207 205.866375 
L 63.776207 202.081051 
L 63.272702 202.081051 
L 63.272702 205.866375 
L 63.776207 205.866375 
M 46.649298 204.317129 
L 45.363424 204.317129 
L 45.786885 203.183598 
Q 45.908242 202.858256 45.980541 202.476109 
L 45.993451 202.476109 
Q 46.065749 202.754973 46.125137 202.921517 
Q 46.184525 203.088061 46.649298 204.317129 
M 65.180856 203.74649 
L 65.180856 202.496766 
L 66.376357 202.496766 
Q 66.810146 202.496766 66.998638 202.677511 
Q 67.187129 202.858256 67.187129 203.116464 
Q 67.187129 203.315284 67.073518 203.475372 
Q 66.959906 203.635461 66.770124 203.690976 
Q 66.580341 203.74649 66.255 203.74649 
L 65.180856 203.74649 
M 48.730451 203.74649 
L 48.730451 202.496766 
L 49.925952 202.496766 
Q 50.359741 202.496766 50.548233 202.677511 
Q 50.736724 202.858256 50.736724 203.116464 
Q 50.736724 203.315284 50.623113 203.475372 
Q 50.509502 203.635461 50.319719 203.690976 
Q 50.129936 203.74649 49.804595 203.74649 
L 48.730451 203.74649 
M 78.091235 203.88334 
L 78.091235 202.530333 
L 79.054349 202.530333 
Q 79.387437 202.530333 79.556563 202.572937 
Q 79.725689 202.615541 79.841883 202.789831 
Q 79.958076 202.964121 79.958076 203.191344 
Q 79.958076 203.88334 79.064678 203.88334 
L 78.091235 203.88334 
M 60.153555 205.417093 
L 60.153555 204.115727 
L 61.03146 204.115727 
Q 61.576278 204.115727 61.785427 204.287435 
Q 61.994575 204.459143 61.994575 204.76641 
Q 61.994575 205.071095 61.798337 205.244094 
Q 61.602099 205.417093 61.096012 205.417093 
L 60.153555 205.417093 
M 60.153555 203.666446 
L 60.153555 202.530333 
L 60.910103 202.530333 
Q 61.199295 202.530333 61.383914 202.558736 
Q 61.568532 202.587138 61.701509 202.714951 
Q 61.834486 202.842764 61.834486 203.1113 
Q 61.834486 203.366925 61.7028 203.488283 
Q 61.571114 203.60964 61.399406 203.638043 
Q 61.227698 203.666446 60.974655 203.666446 
L 60.153555 203.666446 
" clip-path="url(#p3c6bfd5844)" style="fill: #ff0000"/>
   </g>
   <g id="patch_26">
    <path d="M 392.545893 247.504929 
L 468.252355 247.504929 
L 468.252355 184.41621 
L 392.545893 184.41621 
L 392.545893 247.504929 
" clip-path="url(#p3c6bfd5844)" style="fill: none; stroke: #ffffff; stroke-width: 0.48; stroke-linejoin: miter"/>
   </g>
   <g id="patch_27">
    <path d="M 424.090252 251.290252 
L 436.707996 251.290252 
L 436.707996 247.504929 
L 424.090252 247.504929 
L 424.090252 251.290252 
" clip-path="url(#p3c6bfd5844)" style="fill: none; stroke: #ffffff; stroke-width: 0.48; stroke-linejoin: miter"/>
   </g>
   <g id="patch_28">
    <path d="M 416.490342 190.66053 
Q 415.684735 190.66053 415.179939 191.196311 
Q 414.675143 191.732092 414.675143 192.664221 
Q 414.675143 193.464665 415.173484 194.019811 
Q 415.671824 194.574957 416.490342 194.574957 
Q 417.280457 194.574957 417.789126 194.039176 
Q 418.297795 193.503396 418.297795 192.622908 
Q 418.297795 191.739838 417.791708 191.200184 
Q 417.285622 190.66053 416.490342 190.66053 
M 402.856982 194.510405 
L 402.856982 190.725082 
L 402.190806 190.725082 
L 401.28708 193.358799 
Q 401.155394 193.746111 401.085678 193.965587 
L 401.07535 193.965587 
Q 401.052111 193.851976 400.902351 193.405277 
L 400.00637 190.725082 
L 399.257568 190.725082 
L 399.257568 194.510405 
L 399.73267 194.510405 
L 399.73267 191.290557 
L 399.748163 191.290557 
L 400.832635 194.510405 
L 401.281916 194.510405 
L 402.371552 191.342198 
L 402.38188 191.342198 
L 402.38188 194.510405 
L 402.856982 194.510405 
M 410.324345 191.835375 
L 410.804611 191.796644 
Q 410.781373 191.251826 410.397934 190.956178 
Q 410.014496 190.66053 409.38447 190.66053 
Q 408.769936 190.66053 408.413609 190.957469 
Q 408.057283 191.254408 408.057283 191.708853 
Q 408.057283 192.109075 408.338729 192.359536 
Q 408.620175 192.609997 409.259239 192.748139 
Q 409.898303 192.88628 410.169421 193.028294 
Q 410.440539 193.170308 410.440539 193.480157 
Q 410.440539 193.777096 410.18104 193.950095 
Q 409.921541 194.123094 409.500663 194.123094 
Q 409.051382 194.123094 408.733786 193.915237 
Q 408.416191 193.70738 408.382624 193.252934 
L 407.907522 193.294248 
Q 407.930761 193.862304 408.32711 194.218631 
Q 408.723458 194.574957 409.52132 194.574957 
Q 410.146182 194.574957 410.534784 194.252198 
Q 410.923387 193.929438 410.923387 193.441426 
Q 410.923387 193.056697 410.711657 192.828183 
Q 410.499926 192.599669 410.202988 192.491222 
Q 409.906049 192.382775 409.436111 192.279492 
Q 408.906786 192.160716 408.719585 192.04065 
Q 408.532385 191.920583 408.532385 191.675286 
Q 408.532385 191.399004 408.7751 191.254408 
Q 409.017815 191.109811 409.405126 191.109811 
Q 409.833751 191.109811 410.063556 191.291848 
Q 410.29336 191.473884 410.324345 191.835375 
M 414.31107 191.174363 
L 414.31107 190.725082 
L 411.31328 190.725082 
L 411.31328 191.174363 
L 412.555259 191.174363 
L 412.555259 194.510405 
L 413.058763 194.510405 
L 413.058763 191.174363 
L 414.31107 191.174363 
M 418.948478 190.725082 
L 418.948478 194.510405 
L 419.449401 194.510405 
L 419.449401 192.976652 
L 420.417679 192.976652 
Q 421.161317 192.976652 421.498278 192.660348 
Q 421.835239 192.344044 421.835239 191.819882 
Q 421.835239 191.556511 421.728083 191.315086 
Q 421.620927 191.073662 421.411779 190.932939 
Q 421.20263 190.792216 420.958624 190.758649 
Q 420.714618 190.725082 420.376366 190.725082 
L 418.948478 190.725082 
M 405.24282 194.510405 
L 405.24282 190.707008 
L 404.940717 190.707008 
Q 404.648943 191.275064 403.845917 191.659794 
L 403.845917 192.109075 
Q 404.429466 191.87927 404.778046 191.548764 
L 404.778046 194.510405 
L 405.24282 194.510405 
M 416.485178 194.146333 
Q 415.911957 194.146333 415.553049 193.739656 
Q 415.19414 193.332979 415.19414 192.674549 
Q 415.19414 191.868942 415.560795 191.479048 
Q 415.92745 191.089155 416.495506 191.089155 
Q 417.048071 191.089155 417.413434 191.486795 
Q 417.778798 191.884434 417.778798 192.622908 
Q 417.776216 193.340725 417.418598 193.743529 
Q 417.060981 194.146333 416.485178 194.146333 
M 419.449401 192.527371 
L 419.449401 191.174363 
L 420.412515 191.174363 
Q 420.745603 191.174363 420.914729 191.216968 
Q 421.083855 191.259572 421.200048 191.433862 
Q 421.316242 191.608152 421.316242 191.835375 
Q 421.316242 192.527371 420.422844 192.527371 
L 419.449401 192.527371 
" clip-path="url(#p3c6bfd5844)" style="fill: #ff0000"/>
   </g>
   <g id="patch_29">
    <path d="M 54.390361 308.070099 
L 104.861336 308.070099 
L 104.861336 257.599124 
L 54.390361 257.599124 
L 54.390361 308.070099 
" clip-path="url(#p3c6bfd5844)" style="fill: none; stroke: #ffffff; stroke-width: 0.48; stroke-linejoin: miter"/>
   </g>
   <g id="patch_30">
    <path d="M 54.390361 257.599124 
L 104.861336 257.599124 
L 104.861336 232.363636 
L 54.390361 232.363636 
L 54.390361 257.599124 
" clip-path="url(#p3c6bfd5844)" style="fill: none; stroke: #ffffff; stroke-width: 0.48; stroke-linejoin: miter"/>
   </g>
   <g id="patch_31">
    <path d="M 54.390361 333.305586 
L 104.861336 333.305586 
L 104.861336 308.070099 
L 54.390361 308.070099 
L 54.390361 333.305586 
" clip-path="url(#p3c6bfd5844)" style="fill: none; stroke: #ffffff; stroke-width: 0.48; stroke-linejoin: miter"/>
   </g>
   <g id="patch_32">
    <path d="M 29.154874 308.070099 
L 54.390361 308.070099 
L 54.390361 257.599124 
L 29.154874 257.599124 
L 29.154874 308.070099 
" clip-path="url(#p3c6bfd5844)" style="fill: none; stroke: #ffffff; stroke-width: 0.48; stroke-linejoin: miter"/>
   </g>
   <g id="patch_33">
    <path d="M 104.861336 308.070099 
L 130.096824 308.070099 
L 130.096824 257.599124 
L 104.861336 257.599124 
L 104.861336 308.070099 
" clip-path="url(#p3c6bfd5844)" style="fill: none; stroke: #ffffff; stroke-width: 0.48; stroke-linejoin: miter"/>
   </g>
   <g id="patch_34">
    <path d="M 73.316977 337.090909 
L 85.934721 337.090909 
L 85.934721 333.305586 
L 73.316977 333.305586 
L 73.316977 337.090909 
" clip-path="url(#p3c6bfd5844)" style="fill: none; stroke: #ffffff; stroke-width: 0.48; stroke-linejoin: miter"/>
   </g>
   <g id="line2d_1">
    <path d="M 54.390361 308.070099 
L 104.861336 308.070099 
" clip-path="url(#p3c6bfd5844)" style="fill: none; stroke: #ff0000; stroke-width: 0.48; stroke-linecap: square"/>
   </g>
   <g id="line2d_2">
    <path d="M 54.390361 257.599124 
L 104.861336 257.599124 
" clip-path="url(#p3c6bfd5844)" style="fill: none; stroke: #ff0000; stroke-width: 0.48; stroke-linecap: square"/>
   </g>
   <g id="line2d_3">
    <path d="M 54.390361 308.070099 
L 54.390361 257.599124 
" clip-path="url(#p3c6bfd5844)" style="fill: none; stroke: #ff0000; stroke-width: 0.48; stroke-linecap: square"/>
   </g>
   <g id="line2d_4">
    <path d="M 104.861336 308.070099 
L 104.861336 257.599124 
" clip-path="url(#p3c6bfd5844)" style="fill: none; stroke: #ff0000; stroke-width: 0.48; stroke-linecap: square"/>
   </g>
   <g id="patch_35">
    <path d="M 60.916128 282.834611 
L 60.916128 279.049288 
L 60.249952 279.049288 
L 59.346226 281.683005 
Q 59.21454 282.070317 59.144824 282.289793 
L 59.134495 282.289793 
Q 59.111257 282.176182 58.961496 281.729483 
L 58.065516 279.049288 
L 57.316714 279.049288 
L 57.316714 282.834611 
L 57.791816 282.834611 
L 57.791816 279.614763 
L 57.807308 279.614763 
L 58.89178 282.834611 
L 59.341061 282.834611 
L 60.430697 279.666404 
L 60.441026 279.666404 
L 60.441026 282.834611 
L 60.916128 282.834611 
M 69.341441 281.633946 
L 68.8431 281.507424 
Q 68.732071 281.990272 68.454498 282.230405 
Q 68.176925 282.470538 67.732808 282.470538 
Q 67.190572 282.470538 66.853611 282.085809 
Q 66.51665 281.70108 66.51665 280.910965 
Q 66.51665 280.226715 66.836827 279.820038 
Q 67.157005 279.413361 67.776703 279.413361 
Q 68.156268 279.413361 68.409312 279.612181 
Q 68.662355 279.811 68.786295 280.206058 
L 69.276889 280.089865 
Q 69.119382 279.547629 68.726907 279.266182 
Q 68.334431 278.984736 67.781867 278.984736 
Q 66.996916 278.984736 66.497284 279.497278 
Q 65.997653 280.00982 65.997653 280.916129 
Q 65.997653 281.734647 66.422404 282.316905 
Q 66.847156 282.899163 67.776703 282.899163 
Q 68.352506 282.899163 68.764347 282.585441 
Q 69.176188 282.271719 69.341441 281.633946 
M 72.943437 281.238888 
L 72.943437 279.049288 
L 72.439932 279.049288 
L 72.439932 281.231142 
Q 72.439932 281.633946 72.372798 281.88828 
Q 72.305664 282.142615 72.083605 282.294957 
Q 71.861547 282.4473 71.420012 282.4473 
Q 70.983641 282.4473 70.774493 282.256226 
Q 70.565345 282.065153 70.516285 281.818564 
Q 70.467226 281.571976 70.467226 281.231142 
L 70.467226 279.049288 
L 69.966303 279.049288 
L 69.966303 281.238888 
Q 69.966303 281.566812 70.006325 281.832766 
Q 70.046348 282.09872 70.190944 282.344017 
Q 70.33554 282.589314 70.645389 282.744239 
Q 70.955238 282.899163 71.461325 282.899163 
Q 71.980322 282.899163 72.291463 282.724873 
Q 72.602603 282.550583 72.740744 282.288502 
Q 72.878885 282.026421 72.911161 281.778542 
Q 72.943437 281.530663 72.943437 281.238888 
M 73.774865 279.049288 
L 73.774865 282.834611 
L 74.275788 282.834611 
L 74.275788 281.300858 
L 75.244066 281.300858 
Q 75.987704 281.300858 76.324665 280.984554 
Q 76.661626 280.66825 76.661626 280.144088 
Q 76.661626 279.880716 76.55447 279.639292 
Q 76.447314 279.397868 76.238165 279.257145 
Q 76.029017 279.116422 75.785011 279.082855 
Q 75.541005 279.049288 75.202753 279.049288 
L 73.774865 279.049288 
M 63.301966 282.834611 
L 63.301966 279.031214 
L 62.999863 279.031214 
Q 62.708088 279.59927 61.905063 279.983999 
L 61.905063 280.433281 
Q 62.488612 280.203476 62.837192 279.87297 
L 62.837192 282.834611 
L 63.301966 282.834611 
M 74.275788 280.851577 
L 74.275788 279.498569 
L 75.238902 279.498569 
Q 75.57199 279.498569 75.741116 279.541173 
Q 75.910242 279.583778 76.026435 279.758068 
Q 76.142629 279.932358 76.142629 280.159581 
Q 76.142629 280.851577 75.24923 280.851577 
L 74.275788 280.851577 
" clip-path="url(#p3c6bfd5844)" style="fill: #ff0000"/>
   </g>
  </g>
 </g>
 <defs>
  <clipPath id="p3c6bfd5844">
   <rect x="7.2" y="7.2" width="483.007229" height="345.6"/>
  </clipPath>
 </defs>
</svg>
