<?xml version="1.0" encoding="utf-8" standalone="no"?>
<!DOCTYPE svg PUBLIC "-//W3C//DTD SVG 1.1//EN"
  "http://www.w3.org/Graphics/SVG/1.1/DTD/svg11.dtd">
<svg xmlns:xlink="http://www.w3.org/1999/xlink" width="378.448399pt" height="360pt" viewBox="0 0 378.448399 360" xmlns="http://www.w3.org/2000/svg" version="1.1">
 <metadata>
  <rdf:RDF xmlns:dc="http://purl.org/dc/elements/1.1/" xmlns:cc="http://creativecommons.org/ns#" xmlns:rdf="http://www.w3.org/1999/02/22-rdf-syntax-ns#">
   <cc:Work>
    <dc:type rdf:resource="http://purl.org/dc/dcmitype/StillImage"/>
    <dc:date>2026-03-20T00:51:19.616374</dc:date>
    <dc:format>image/svg+xml</dc:format>
    <dc:creator>
     <cc:Agent>
      <dc:title>Matplotlib v3.10.8, https://matplotlib.org/</dc:title>
     </cc:Agent>
    </dc:creator>
   </cc:Work>
  </rdf:RDF>
 </metadata>
 <defs>
  <style type="text/css">*{stroke-linejoin: round; stroke-linecap: butt}</style>
 </defs>
 <g id="figure_1">
  <g id="patch_1">
   <path d="M 0 360 
L 378.448399 360 
L 378.448399 0 
L 0 0 
z
" style="fill: #1a1a2e"/>
  </g>
  <g id="axes_1">
   <g id="patch_2">
    <path d="M 7.2 352.8 
L 371.248399 352.8 
L 371.248399 7.2 
L 7.2 7.2 
z
" style="fill: #1a1a2e"/>
   </g>
   <g id="patch_3">
    <path d="M 23.747654 246.526043 
L 225.002912 246.526043 
L 225.002912 112.355872 
L 23.747654 112.355872 
L 23.747654 246.526043 
" clip-path="url(#pa34f3d9648)" style="fill: none; stroke: #ffffff; stroke-width: 0.48; stroke-linejoin: miter"/>
   </g>
   <g id="patch_4">
    <path d="M 32.884527 121.30055 
L 32.884527 117.946296 
L 32.294215 117.946296 
L 31.493404 120.280088 
Q 31.376714 120.623293 31.314938 120.817775 
L 31.305785 120.817775 
Q 31.285193 120.717102 31.152487 120.321272 
L 30.35854 117.946296 
L 29.695011 117.946296 
L 29.695011 121.30055 
L 30.116009 121.30055 
L 30.116009 118.447375 
L 30.129737 118.447375 
L 31.09071 121.30055 
L 31.488828 121.30055 
L 32.454377 118.493135 
L 32.463529 118.493135 
L 32.463529 121.30055 
L 32.884527 121.30055 
M 43.404896 121.30055 
L 42.036654 117.946296 
L 41.558455 117.946296 
L 40.270293 121.30055 
L 40.73934 121.30055 
L 41.110001 120.280088 
L 42.510276 120.280088 
L 42.903817 121.30055 
L 43.404896 121.30055 
M 45.752417 118.930149 
L 46.177991 118.895829 
Q 46.157398 118.413054 45.817626 118.151075 
Q 45.477853 117.889095 44.919573 117.889095 
Q 44.375022 117.889095 44.059273 118.152219 
Q 43.743525 118.415342 43.743525 118.818036 
Q 43.743525 119.172681 43.992921 119.39462 
Q 44.242316 119.616559 44.808604 119.738968 
Q 45.374892 119.861378 45.615135 119.98722 
Q 45.855378 120.113062 45.855378 120.387625 
Q 45.855378 120.650749 45.625431 120.804047 
Q 45.395484 120.957345 45.022535 120.957345 
Q 44.624417 120.957345 44.342989 120.773159 
Q 44.061561 120.588972 44.031817 120.186279 
L 43.610819 120.222887 
Q 43.631412 120.726254 43.982624 121.042002 
Q 44.333837 121.357751 45.040839 121.357751 
Q 45.594543 121.357751 45.938891 121.071747 
Q 46.28324 120.785743 46.28324 120.353305 
Q 46.28324 120.012388 46.095622 119.809897 
Q 45.908003 119.607407 45.644879 119.511309 
Q 45.381756 119.415212 44.965334 119.323691 
Q 44.496287 119.218441 44.330405 119.112048 
Q 44.164523 119.005654 44.164523 118.788291 
Q 44.164523 118.543472 44.379598 118.415342 
Q 44.594673 118.287212 44.937878 118.287212 
Q 45.317691 118.287212 45.521326 118.448519 
Q 45.72496 118.609825 45.752417 118.930149 
M 39.403129 119.515885 
Q 39.636508 119.39462 39.752054 119.208145 
Q 39.8676 119.021671 39.8676 118.80202 
Q 39.8676 118.477119 39.61706 118.211707 
Q 39.366521 117.946296 38.755616 117.946296 
L 37.497199 117.946296 
L 37.497199 121.30055 
L 38.780785 121.30055 
Q 39.226951 121.30055 39.487786 121.18958 
Q 39.748622 121.078611 39.89048 120.842944 
Q 40.032338 120.607276 40.032338 120.325849 
Q 40.032338 120.044421 39.875608 119.828202 
Q 39.718878 119.611983 39.403129 119.515885 
M 49.401827 121.30055 
L 49.401827 120.902432 
L 47.340311 120.902432 
L 47.340311 119.767569 
L 49.195904 119.767569 
L 49.195904 119.369451 
L 47.340311 119.369451 
L 47.340311 118.344413 
L 49.324034 118.344413 
L 49.324034 117.946296 
L 46.896433 117.946296 
L 46.896433 121.30055 
L 49.401827 121.30055 
M 35.607285 121.30055 
L 35.607285 120.902432 
L 33.957614 120.902432 
Q 34.076592 120.691934 34.440389 120.401354 
Q 35.133662 119.84765 35.365897 119.517029 
Q 35.598133 119.186409 35.598133 118.863796 
Q 35.598133 118.477119 35.322425 118.203699 
Q 35.046717 117.930279 34.552502 117.930279 
Q 34.097184 117.930279 33.800884 118.179675 
Q 33.504584 118.42907 33.465687 118.900405 
L 33.888973 118.948454 
Q 33.891261 118.609825 34.07888 118.439367 
Q 34.266498 118.268908 34.54335 118.268908 
Q 34.817914 118.268908 34.997524 118.43479 
Q 35.177135 118.600673 35.177135 118.854644 
Q 35.177135 119.1498 34.916299 119.441524 
Q 34.655464 119.733248 34.323699 119.99866 
Q 33.781436 120.435674 33.583521 120.726254 
Q 33.385606 121.016834 33.385606 121.30055 
L 35.607285 121.30055 
M 42.375282 119.927731 
L 41.235842 119.927731 
L 41.61108 118.923285 
Q 41.718617 118.634993 41.782682 118.296365 
L 41.794122 118.296365 
Q 41.858187 118.543472 41.910812 118.69105 
Q 41.963437 118.838628 42.375282 119.927731 
M 37.941077 120.902432 
L 37.941077 119.749265 
L 38.719008 119.749265 
Q 39.201782 119.749265 39.387113 119.901419 
Q 39.572444 120.053573 39.572444 120.325849 
Q 39.572444 120.595836 39.398553 120.749134 
Q 39.224663 120.902432 38.776209 120.902432 
L 37.941077 120.902432 
M 37.941077 119.351147 
L 37.941077 118.344413 
L 38.61147 118.344413 
Q 38.86773 118.344413 39.031324 118.369582 
Q 39.194918 118.39475 39.312752 118.508007 
Q 39.430586 118.621265 39.430586 118.85922 
Q 39.430586 119.085735 39.313896 119.193273 
Q 39.197206 119.30081 39.045052 119.325979 
Q 38.892898 119.351147 38.668671 119.351147 
L 37.941077 119.351147 
" clip-path="url(#pa34f3d9648)" style="fill: #ff0000"/>
   </g>
   <g id="patch_5">
    <path d="M 55.668974 201.802653 
L 58.91142 201.802653 
L 58.91142 190.621805 
L 55.668974 190.621805 
L 55.668974 201.802653 
" clip-path="url(#pa34f3d9648)" style="fill: none; stroke: #ffffff; stroke-width: 0.48; stroke-linejoin: miter"/>
   </g>
   <g id="patch_6">
    <path d="M 55.668974 168.26011 
L 58.91142 168.26011 
L 58.91142 157.079262 
L 55.668974 157.079262 
L 55.668974 168.26011 
" clip-path="url(#pa34f3d9648)" style="fill: none; stroke: #ffffff; stroke-width: 0.48; stroke-linejoin: miter"/>
   </g>
   <g id="patch_7">
    <path d="M 189.839146 201.802653 
L 193.081592 201.802653 
L 193.081592 190.621805 
L 189.839146 190.621805 
L 189.839146 201.802653 
" clip-path="url(#pa34f3d9648)" style="fill: none; stroke: #ffffff; stroke-width: 0.48; stroke-linejoin: miter"/>
   </g>
   <g id="patch_8">
    <path d="M 189.839146 168.26011 
L 193.081592 168.26011 
L 193.081592 157.079262 
L 189.839146 157.079262 
L 189.839146 168.26011 
" clip-path="url(#pa34f3d9648)" style="fill: none; stroke: #ffffff; stroke-width: 0.48; stroke-linejoin: miter"/>
   </g>
   <g id="patch_9">
    <path d="M 126.164219 224.164348 
C 126.164219 225.15235 125.363285 225.953284 124.375283 225.953284 
C 123.387281 225.953284 122.586347 225.15235 122.586347 224.164348 
C 122.586347 223.176346 123.387281 222.375412 124.375283 222.375412 
C 125.363285 222.375412 126.164219 223.176346 126.164219 224.164348 
" clip-path="url(#pa34f3d9648)" style="fill: none; stroke: #ffffff; stroke-width: 0.48; stroke-linejoin: miter"/>
   </g>
   <g id="patch_10">
    <path d="M 233.94759 246.526043 
L 289.851828 246.526043 
L 289.851828 22.909091 
L 233.94759 22.909091 
L 233.94759 246.526043 
" clip-path="url(#pa34f3d9648)" style="fill: none; stroke: #ffffff; stroke-width: 0.48; stroke-linejoin: miter"/>
   </g>
   <g id="patch_11">
    <path d="M 239.538014 249.880298 
L 250.718861 249.880298 
L 250.718861 246.526043 
L 239.538014 246.526043 
L 239.538014 249.880298 
" clip-path="url(#pa34f3d9648)" style="fill: none; stroke: #ffffff; stroke-width: 0.48; stroke-linejoin: miter"/>
   </g>
   <g id="patch_12">
    <path d="M 273.080556 249.880298 
L 284.261404 249.880298 
L 284.261404 246.526043 
L 273.080556 246.526043 
L 273.080556 249.880298 
" clip-path="url(#pa34f3d9648)" style="fill: none; stroke: #ffffff; stroke-width: 0.48; stroke-linejoin: miter"/>
   </g>
   <g id="patch_13">
    <path d="M 256.309285 26.207441 
L 267.490133 26.207441 
L 267.490133 22.964995 
L 256.309285 22.964995 
L 256.309285 26.207441 
" clip-path="url(#pa34f3d9648)" style="fill: none; stroke: #ffffff; stroke-width: 0.48; stroke-linejoin: miter"/>
   </g>
   <g id="patch_14">
    <path d="M 264.135878 45.270786 
C 264.135878 46.505788 263.134711 47.506956 261.899709 47.506956 
C 260.664707 47.506956 259.663539 46.505788 259.663539 45.270786 
C 259.663539 44.035784 260.664707 43.034617 261.899709 43.034617 
C 263.134711 43.034617 264.135878 44.035784 264.135878 45.270786 
" clip-path="url(#pa34f3d9648)" style="fill: none; stroke: #ffffff; stroke-width: 0.48; stroke-linejoin: miter"/>
   </g>
   <g id="patch_15">
    <path d="M 240.848293 34.089939 
L 240.848293 30.735684 
L 240.257981 30.735684 
L 239.45717 33.069476 
Q 239.34048 33.412681 239.278703 33.607164 
L 239.269551 33.607164 
Q 239.248959 33.50649 239.116253 33.110661 
L 238.322306 30.735684 
L 237.658777 30.735684 
L 237.658777 34.089939 
L 238.079775 34.089939 
L 238.079775 31.236763 
L 238.093503 31.236763 
L 239.054476 34.089939 
L 239.452594 34.089939 
L 240.418143 31.282524 
L 240.427295 31.282524 
L 240.427295 34.089939 
L 240.848293 34.089939 
M 248.121945 32.675935 
L 248.121945 30.735684 
L 247.675779 30.735684 
L 247.675779 32.669071 
Q 247.675779 33.026004 247.61629 33.251375 
Q 247.556802 33.476746 247.360031 33.61174 
Q 247.16326 33.746734 246.772007 33.746734 
Q 246.385329 33.746734 246.199999 33.577419 
Q 246.014668 33.408105 245.971196 33.189598 
Q 245.927723 32.971091 245.927723 32.669071 
L 245.927723 30.735684 
L 245.483845 30.735684 
L 245.483845 32.675935 
Q 245.483845 32.966515 245.519309 33.202182 
Q 245.554774 33.43785 245.682904 33.655213 
Q 245.811033 33.872576 246.085597 34.009857 
Q 246.360161 34.147139 246.808615 34.147139 
Q 247.26851 34.147139 247.544217 33.992697 
Q 247.819925 33.838255 247.942335 33.60602 
Q 248.064745 33.373785 248.093345 33.154134 
Q 248.121945 32.934483 248.121945 32.675935 
M 248.858692 30.735684 
L 248.858692 34.089939 
L 249.30257 34.089939 
L 249.30257 32.730848 
L 250.160582 32.730848 
Q 250.819535 32.730848 251.118123 32.450564 
Q 251.416711 32.17028 251.416711 31.70581 
Q 251.416711 31.47243 251.321758 31.258499 
Q 251.226804 31.044569 251.041474 30.919871 
Q 250.856143 30.795173 250.639924 30.765429 
Q 250.423705 30.735684 250.123973 30.735684 
L 248.858692 30.735684 
M 243.571051 34.089939 
L 243.571051 33.691821 
L 241.92138 33.691821 
Q 242.040357 33.481322 242.404154 33.190742 
Q 243.097428 32.637038 243.329663 32.306418 
Q 243.561898 31.975797 243.561898 31.653185 
Q 243.561898 31.266508 243.286191 30.993088 
Q 243.010483 30.719668 242.516268 30.719668 
Q 242.06095 30.719668 241.76465 30.969063 
Q 241.46835 31.218459 241.429453 31.689793 
L 241.852739 31.737842 
Q 241.855027 31.399213 242.042645 31.228755 
Q 242.230264 31.058297 242.507116 31.058297 
Q 242.78168 31.058297 242.96129 31.224179 
Q 243.140901 31.390061 243.140901 31.644033 
Q 243.140901 31.939189 242.880065 32.230913 
Q 242.619229 32.522637 242.287465 32.788049 
Q 241.745201 33.225063 241.547287 33.515643 
Q 241.349372 33.806223 241.349372 34.089939 
L 243.571051 34.089939 
M 255.375005 34.089939 
L 255.375005 33.691821 
L 253.720759 33.691821 
L 253.720759 30.735684 
L 253.276881 30.735684 
L 253.276881 34.089939 
L 255.375005 34.089939 
M 249.30257 32.33273 
L 249.30257 31.133802 
L 250.156005 31.133802 
Q 250.451162 31.133802 250.601028 31.171554 
Q 250.750894 31.209307 250.853855 31.363749 
Q 250.956816 31.518191 250.956816 31.719538 
Q 250.956816 32.33273 250.165158 32.33273 
L 249.30257 32.33273 
" clip-path="url(#pa34f3d9648)" style="fill: #ff0000"/>
   </g>
   <g id="patch_16">
    <path d="M 298.796506 246.526043 
L 354.700744 246.526043 
L 354.700744 22.909091 
L 298.796506 22.909091 
L 298.796506 246.526043 
" clip-path="url(#pa34f3d9648)" style="fill: none; stroke: #ffffff; stroke-width: 0.48; stroke-linejoin: miter"/>
   </g>
   <g id="patch_17">
    <path d="M 304.38693 249.880298 
L 315.567777 249.880298 
L 315.567777 246.526043 
L 304.38693 246.526043 
L 304.38693 249.880298 
" clip-path="url(#pa34f3d9648)" style="fill: none; stroke: #ffffff; stroke-width: 0.48; stroke-linejoin: miter"/>
   </g>
   <g id="patch_18">
    <path d="M 337.929473 249.880298 
L 349.11032 249.880298 
L 349.11032 246.526043 
L 337.929473 246.526043 
L 337.929473 249.880298 
" clip-path="url(#pa34f3d9648)" style="fill: none; stroke: #ffffff; stroke-width: 0.48; stroke-linejoin: miter"/>
   </g>
   <g id="patch_19">
    <path d="M 321.158201 26.207441 
L 332.339049 26.207441 
L 332.339049 22.964995 
L 321.158201 22.964995 
L 321.158201 26.207441 
" clip-path="url(#pa34f3d9648)" style="fill: none; stroke: #ffffff; stroke-width: 0.48; stroke-linejoin: miter"/>
   </g>
   <g id="patch_20">
    <path d="M 328.984795 45.270786 
C 328.984795 46.505788 327.983627 47.506956 326.748625 47.506956 
C 325.513623 47.506956 324.512456 46.505788 324.512456 45.270786 
C 324.512456 44.035784 325.513623 43.034617 326.748625 43.034617 
C 327.983627 43.034617 328.984795 44.035784 328.984795 45.270786 
" clip-path="url(#pa34f3d9648)" style="fill: none; stroke: #ffffff; stroke-width: 0.48; stroke-linejoin: miter"/>
   </g>
   <g id="patch_21">
    <path d="M 305.697209 34.089939 
L 305.697209 30.735684 
L 305.106897 30.735684 
L 304.306086 33.069476 
Q 304.189396 33.412681 304.12762 33.607164 
L 304.118467 33.607164 
Q 304.097875 33.50649 303.965169 33.110661 
L 303.171222 30.735684 
L 302.507693 30.735684 
L 302.507693 34.089939 
L 302.928691 34.089939 
L 302.928691 31.236763 
L 302.942419 31.236763 
L 303.903392 34.089939 
L 304.30151 34.089939 
L 305.267059 31.282524 
L 305.276211 31.282524 
L 305.276211 34.089939 
L 305.697209 34.089939 
M 321.104814 34.089939 
L 320.519078 33.177014 
Q 320.223922 32.714832 319.887581 32.56611 
L 319.887581 32.556957 
Q 320.347475 32.495181 320.587719 32.264089 
Q 320.827962 32.032998 320.827962 31.653185 
Q 320.827962 31.442686 320.744449 31.252779 
Q 320.660936 31.062873 320.50535 30.938175 
Q 320.349763 30.813477 320.143841 30.774581 
Q 319.937918 30.735684 319.63361 30.735684 
L 318.148677 30.735684 
L 318.148677 34.089939 
L 318.592555 34.089939 
L 318.592555 32.609582 
L 319.105074 32.609582 
Q 319.299557 32.609582 319.417391 32.643903 
Q 319.535224 32.678223 319.669074 32.807497 
Q 319.802924 32.936771 319.92419 33.117525 
Q 320.045455 33.29828 320.546534 34.089939 
L 321.104814 34.089939 
M 312.970862 32.675935 
L 312.970862 30.735684 
L 312.524695 30.735684 
L 312.524695 32.669071 
Q 312.524695 33.026004 312.465207 33.251375 
Q 312.405718 33.476746 312.208947 33.61174 
Q 312.012176 33.746734 311.620923 33.746734 
Q 311.234246 33.746734 311.048915 33.577419 
Q 310.863585 33.408105 310.820112 33.189598 
Q 310.776639 32.971091 310.776639 32.669071 
L 310.776639 30.735684 
L 310.332761 30.735684 
L 310.332761 32.675935 
Q 310.332761 32.966515 310.368226 33.202182 
Q 310.40369 33.43785 310.53182 33.655213 
Q 310.65995 33.872576 310.934513 34.009857 
Q 311.209077 34.147139 311.657531 34.147139 
Q 312.117426 34.147139 312.393134 33.992697 
Q 312.668841 33.838255 312.791251 33.60602 
Q 312.913661 33.373785 312.942261 33.154134 
Q 312.970862 32.934483 312.970862 32.675935 
M 313.707608 30.735684 
L 313.707608 34.089939 
L 314.151486 34.089939 
L 314.151486 32.730848 
L 315.009498 32.730848 
Q 315.668451 32.730848 315.967039 32.450564 
Q 316.265627 32.17028 316.265627 31.70581 
Q 316.265627 31.47243 316.170674 31.258499 
Q 316.07572 31.044569 315.89039 30.919871 
Q 315.705059 30.795173 315.48884 30.765429 
Q 315.272621 30.735684 314.972889 30.735684 
L 313.707608 30.735684 
M 308.419967 34.089939 
L 308.419967 33.691821 
L 306.770296 33.691821 
Q 306.889274 33.481322 307.253071 33.190742 
Q 307.946344 32.637038 308.178579 32.306418 
Q 308.410815 31.975797 308.410815 31.653185 
Q 308.410815 31.266508 308.135107 30.993088 
Q 307.859399 30.719668 307.365184 30.719668 
Q 306.909866 30.719668 306.613566 30.969063 
Q 306.317266 31.218459 306.278369 31.689793 
L 306.701655 31.737842 
Q 306.703943 31.399213 306.891562 31.228755 
Q 307.07918 31.058297 307.356032 31.058297 
Q 307.630596 31.058297 307.810206 31.224179 
Q 307.989817 31.390061 307.989817 31.644033 
Q 307.989817 31.939189 307.728981 32.230913 
Q 307.468146 32.522637 307.136381 32.788049 
Q 306.594118 33.225063 306.396203 33.515643 
Q 306.198288 33.806223 306.198288 34.089939 
L 308.419967 34.089939 
M 318.592555 32.211465 
L 318.592555 31.104057 
L 319.651914 31.104057 
Q 320.036303 31.104057 320.203329 31.26422 
Q 320.370356 31.424382 320.370356 31.653185 
Q 320.370356 31.829363 320.269682 31.971221 
Q 320.169009 32.113079 320.000839 32.162272 
Q 319.832668 32.211465 319.544376 32.211465 
L 318.592555 32.211465 
M 314.151486 32.33273 
L 314.151486 31.133802 
L 315.004922 31.133802 
Q 315.300078 31.133802 315.449944 31.171554 
Q 315.59981 31.209307 315.702771 31.363749 
Q 315.805733 31.518191 315.805733 31.719538 
Q 315.805733 32.33273 315.014074 32.33273 
L 314.151486 32.33273 
" clip-path="url(#pa34f3d9648)" style="fill: #ff0000"/>
   </g>
   <g id="patch_22">
    <path d="M 23.747654 311.37496 
L 164.626335 311.37496 
L 164.626335 277.832417 
L 23.747654 277.832417 
L 23.747654 311.37496 
" clip-path="url(#pa34f3d9648)" style="fill: none; stroke: #ffffff; stroke-width: 0.48; stroke-linejoin: miter"/>
   </g>
   <g id="patch_23">
    <path d="M 27.101909 314.729214 
L 38.282756 314.729214 
L 38.282756 311.37496 
L 27.101909 311.37496 
L 27.101909 314.729214 
" clip-path="url(#pa34f3d9648)" style="fill: none; stroke: #ffffff; stroke-width: 0.48; stroke-linejoin: miter"/>
   </g>
   <g id="patch_24">
    <path d="M 150.091233 314.729214 
L 161.27208 314.729214 
L 161.27208 311.37496 
L 150.091233 311.37496 
L 150.091233 314.729214 
" clip-path="url(#pa34f3d9648)" style="fill: none; stroke: #ffffff; stroke-width: 0.48; stroke-linejoin: miter"/>
   </g>
   <g id="patch_25">
    <path d="M 95.97593 294.603688 
C 95.97593 295.59169 95.174996 296.392624 94.186995 296.392624 
C 93.198993 296.392624 92.398059 295.59169 92.398059 294.603688 
C 92.398059 293.615686 93.198993 292.814753 94.186995 292.814753 
C 95.174996 292.814753 95.97593 293.615686 95.97593 294.603688 
" clip-path="url(#pa34f3d9648)" style="fill: none; stroke: #ffffff; stroke-width: 0.48; stroke-linejoin: miter"/>
   </g>
   <g id="patch_26">
    <path d="M 113.194435 294.603688 
C 113.194435 295.83869 112.193268 296.839858 110.958266 296.839858 
C 109.723264 296.839858 108.722096 295.83869 108.722096 294.603688 
C 108.722096 293.368686 109.723264 292.367519 110.958266 292.367519 
C 112.193268 292.367519 113.194435 293.368686 113.194435 294.603688 
" clip-path="url(#pa34f3d9648)" style="fill: none; stroke: #ffffff; stroke-width: 0.48; stroke-linejoin: miter"/>
   </g>
   <g id="patch_27">
    <path d="M 41.839883 283.36564 
Q 41.126017 283.36564 40.678707 283.840406 
Q 40.231397 284.315173 40.231397 285.141152 
Q 40.231397 285.850442 40.672987 286.342369 
Q 41.114577 286.834296 41.839883 286.834296 
Q 42.54002 286.834296 42.990763 286.359529 
Q 43.441505 285.884762 43.441505 285.104544 
Q 43.441505 284.322037 42.993051 283.843838 
Q 42.544597 283.36564 41.839883 283.36564 
M 32.884527 286.777095 
L 32.884527 283.422841 
L 32.294215 283.422841 
L 31.493404 285.756633 
Q 31.376714 286.099837 31.314938 286.29432 
L 31.305785 286.29432 
Q 31.285193 286.193647 31.152487 285.797817 
L 30.35854 283.422841 
L 29.695011 283.422841 
L 29.695011 286.777095 
L 30.116009 286.777095 
L 30.116009 283.923919 
L 30.129737 283.923919 
L 31.09071 286.777095 
L 31.488828 286.777095 
L 32.454377 283.96968 
L 32.463529 283.96968 
L 32.463529 286.777095 
L 32.884527 286.777095 
M 61.006723 286.777095 
L 61.006723 283.422841 
L 60.416411 283.422841 
L 59.6156 285.756633 
Q 59.49891 286.099837 59.437134 286.29432 
L 59.427982 286.29432 
Q 59.407389 286.193647 59.274683 285.797817 
L 58.480736 283.422841 
L 57.817207 283.422841 
L 57.817207 286.777095 
L 58.238205 286.777095 
L 58.238205 283.923919 
L 58.251933 283.923919 
L 59.212907 286.777095 
L 59.611024 286.777095 
L 60.576573 283.96968 
L 60.585725 283.96968 
L 60.585725 286.777095 
L 61.006723 286.777095 
M 57.46485 286.777095 
L 56.096608 283.422841 
L 55.618409 283.422841 
L 54.330247 286.777095 
L 54.799294 286.777095 
L 55.169955 285.756633 
L 56.57023 285.756633 
L 56.963772 286.777095 
L 57.46485 286.777095 
M 39.908784 283.820958 
L 39.908784 283.422841 
L 37.25238 283.422841 
L 37.25238 283.820958 
L 38.352923 283.820958 
L 38.352923 286.777095 
L 38.799089 286.777095 
L 38.799089 283.820958 
L 39.908784 283.820958 
M 44.018089 283.422841 
L 44.018089 286.777095 
L 44.461967 286.777095 
L 44.461967 285.418004 
L 45.319979 285.418004 
Q 45.978932 285.418004 46.27752 285.13772 
Q 46.576108 284.857436 46.576108 284.392966 
Q 46.576108 284.159587 46.481155 283.945656 
Q 46.386202 283.731725 46.200871 283.607027 
Q 46.01554 283.482329 45.799321 283.452585 
Q 45.583102 283.422841 45.28337 283.422841 
L 44.018089 283.422841 
M 50.337632 284.99243 
Q 50.571011 284.871164 50.686557 284.68469 
Q 50.802102 284.498215 50.802102 284.278564 
Q 50.802102 283.953664 50.551563 283.688252 
Q 50.301024 283.422841 49.690119 283.422841 
L 48.431702 283.422841 
L 48.431702 286.777095 
L 49.715287 286.777095 
Q 50.161454 286.777095 50.422289 286.666125 
Q 50.683125 286.555156 50.824983 286.319488 
Q 50.966841 286.083821 50.966841 285.802393 
Q 50.966841 285.520965 50.810111 285.304746 
Q 50.65338 285.088527 50.337632 284.99243 
M 54.085428 286.777095 
L 54.085428 286.378977 
L 52.023911 286.378977 
L 52.023911 285.244114 
L 53.879505 285.244114 
L 53.879505 284.845996 
L 52.023911 284.845996 
L 52.023911 283.820958 
L 54.007635 283.820958 
L 54.007635 283.422841 
L 51.580033 283.422841 
L 51.580033 286.777095 
L 54.085428 286.777095 
M 35.607285 286.777095 
L 35.607285 286.378977 
L 33.957614 286.378977 
Q 34.076592 286.168478 34.440389 285.877898 
Q 35.133662 285.324195 35.365897 284.993574 
Q 35.598133 284.662954 35.598133 284.340341 
Q 35.598133 283.953664 35.322425 283.680244 
Q 35.046717 283.406824 34.552502 283.406824 
Q 34.097184 283.406824 33.800884 283.65622 
Q 33.504584 283.905615 33.465687 284.37695 
L 33.888973 284.424998 
Q 33.891261 284.08637 34.07888 283.915911 
Q 34.266498 283.745453 34.54335 283.745453 
Q 34.817914 283.745453 34.997524 283.911335 
Q 35.177135 284.077218 35.177135 284.331189 
Q 35.177135 284.626345 34.916299 284.918069 
Q 34.655464 285.209793 34.323699 285.475205 
Q 33.781436 285.912219 33.583521 286.202799 
Q 33.385606 286.493379 33.385606 286.777095 
L 35.607285 286.777095 
M 41.835307 286.454482 
Q 41.327364 286.454482 41.009327 286.094117 
Q 40.691291 285.733752 40.691291 285.150304 
Q 40.691291 284.436438 41.016191 284.090946 
Q 41.341092 283.745453 41.844459 283.745453 
Q 42.334098 283.745453 42.657854 284.09781 
Q 42.981611 284.450167 42.981611 285.104544 
Q 42.979323 285.740616 42.66243 286.097549 
Q 42.345538 286.454482 41.835307 286.454482 
M 56.435236 285.404276 
L 55.295796 285.404276 
L 55.671034 284.39983 
Q 55.778571 284.111538 55.842636 283.772909 
L 55.854076 283.772909 
Q 55.918141 284.020017 55.970766 284.167595 
Q 56.023391 284.315173 56.435236 285.404276 
M 44.461967 285.019887 
L 44.461967 283.820958 
L 45.315403 283.820958 
Q 45.610559 283.820958 45.760425 283.858711 
Q 45.910291 283.896463 46.013252 284.050905 
Q 46.116214 284.205347 46.116214 284.406694 
Q 46.116214 285.019887 45.324555 285.019887 
L 44.461967 285.019887 
M 48.87558 286.378977 
L 48.87558 285.225809 
L 49.653511 285.225809 
Q 50.136285 285.225809 50.321616 285.377963 
Q 50.506946 285.530118 50.506946 285.802393 
Q 50.506946 286.072381 50.333056 286.225679 
Q 50.159166 286.378977 49.710711 286.378977 
L 48.87558 286.378977 
M 48.87558 284.827692 
L 48.87558 283.820958 
L 49.545973 283.820958 
Q 49.802233 283.820958 49.965827 283.846126 
Q 50.129421 283.871295 50.247255 283.984552 
Q 50.365088 284.09781 50.365088 284.335765 
Q 50.365088 284.56228 50.248399 284.669818 
Q 50.131709 284.777355 49.979555 284.802524 
Q 49.827401 284.827692 49.603174 284.827692 
L 48.87558 284.827692 
" clip-path="url(#pa34f3d9648)" style="fill: #ff0000"/>
   </g>
   <g id="patch_28">
    <path d="M 173.571013 311.37496 
L 229.475251 311.37496 
L 229.475251 255.470721 
L 173.571013 255.470721 
L 173.571013 311.37496 
" clip-path="url(#pa34f3d9648)" style="fill: none; stroke: #ffffff; stroke-width: 0.48; stroke-linejoin: miter"/>
   </g>
   <g id="patch_29">
    <path d="M 203.759301 261.061145 
C 203.759301 262.296148 202.758134 263.297315 201.523132 263.297315 
C 200.288129 263.297315 199.286962 262.296148 199.286962 261.061145 
C 199.286962 259.826143 200.288129 258.824976 201.523132 258.824976 
C 202.758134 258.824976 203.759301 259.826143 203.759301 261.061145 
" clip-path="url(#pa34f3d9648)" style="fill: none; stroke: #ffffff; stroke-width: 0.48; stroke-linejoin: miter"/>
   </g>
   <g id="patch_30">
    <path d="M 192.13122 294.603688 
C 192.13122 295.59169 191.330286 296.392624 190.342284 296.392624 
C 189.354282 296.392624 188.553348 295.59169 188.553348 294.603688 
C 188.553348 293.615686 189.354282 292.814753 190.342284 292.814753 
C 191.330286 292.814753 192.13122 293.615686 192.13122 294.603688 
" clip-path="url(#pa34f3d9648)" style="fill: none; stroke: #ffffff; stroke-width: 0.48; stroke-linejoin: miter"/>
   </g>
   <g id="patch_31">
    <path d="M 214.492915 294.603688 
C 214.492915 295.59169 213.691981 296.392624 212.703979 296.392624 
C 211.715977 296.392624 210.915044 295.59169 210.915044 294.603688 
C 210.915044 293.615686 211.715977 292.814753 212.703979 292.814753 
C 213.691981 292.814753 214.492915 293.615686 214.492915 294.603688 
" clip-path="url(#pa34f3d9648)" style="fill: none; stroke: #ffffff; stroke-width: 0.48; stroke-linejoin: miter"/>
   </g>
   <g id="patch_32">
    <path d="M 195.829746 274.420962 
Q 195.115881 274.420962 194.66857 274.895728 
Q 194.22126 275.370495 194.22126 276.196474 
Q 194.22126 276.905764 194.66285 277.397691 
Q 195.10444 277.889617 195.829746 277.889617 
Q 196.529884 277.889617 196.980626 277.414851 
Q 197.431369 276.940084 197.431369 276.159866 
Q 197.431369 275.377359 196.982914 274.89916 
Q 196.53446 274.420962 195.829746 274.420962 
M 192.184912 274.420962 
Q 191.471046 274.420962 191.023736 274.895728 
Q 190.576426 275.370495 190.576426 276.196474 
Q 190.576426 276.905764 191.018016 277.397691 
Q 191.459606 277.889617 192.184912 277.889617 
Q 192.88505 277.889617 193.335792 277.414851 
Q 193.786534 276.940084 193.786534 276.159866 
Q 193.786534 275.377359 193.33808 274.89916 
Q 192.889626 274.420962 192.184912 274.420962 
M 182.707885 277.832417 
L 182.707885 274.478162 
L 182.117573 274.478162 
L 181.316762 276.811955 
Q 181.200073 277.155159 181.138296 277.349642 
L 181.129144 277.349642 
Q 181.108551 277.248969 180.975845 276.853139 
L 180.181899 274.478162 
L 179.518369 274.478162 
L 179.518369 277.832417 
L 179.939367 277.832417 
L 179.939367 274.979241 
L 179.953095 274.979241 
L 180.914069 277.832417 
L 181.312186 277.832417 
L 182.277735 275.025002 
L 182.286888 275.025002 
L 182.286888 277.832417 
L 182.707885 277.832417 
M 200.762743 277.832417 
L 199.296114 275.837253 
L 200.700966 274.478162 
L 200.101501 274.478162 
L 198.433526 276.141561 
L 198.433526 274.478162 
L 197.989648 274.478162 
L 197.989648 277.832417 
L 198.433526 277.832417 
L 198.433526 276.670097 
L 198.98723 276.136985 
L 200.177006 277.832417 
L 200.762743 277.832417 
M 189.981538 277.832417 
L 189.981538 274.478162 
L 189.535372 274.478162 
L 189.535372 275.855557 
L 187.791892 275.855557 
L 187.791892 274.478162 
L 187.348013 274.478162 
L 187.348013 277.832417 
L 187.791892 277.832417 
L 187.791892 276.253675 
L 189.535372 276.253675 
L 189.535372 277.832417 
L 189.981538 277.832417 
M 185.430643 277.832417 
L 185.430643 277.434299 
L 183.780972 277.434299 
Q 183.89995 277.2238 184.263747 276.93322 
Q 184.95702 276.379517 185.189256 276.048896 
Q 185.421491 275.718276 185.421491 275.395663 
Q 185.421491 275.008986 185.145783 274.735566 
Q 184.870075 274.462146 184.37586 274.462146 
Q 183.920542 274.462146 183.624242 274.711542 
Q 183.327942 274.960937 183.289045 275.432272 
L 183.712331 275.48032 
Q 183.714619 275.141692 183.902238 274.971233 
Q 184.089856 274.800775 184.366708 274.800775 
Q 184.641272 274.800775 184.820883 274.966657 
Q 185.000493 275.132539 185.000493 275.386511 
Q 185.000493 275.681667 184.739657 275.973391 
Q 184.478822 276.265115 184.147057 276.530527 
Q 183.604794 276.967541 183.406879 277.258121 
Q 183.208964 277.548701 183.208964 277.832417 
L 185.430643 277.832417 
M 195.82517 277.509804 
Q 195.317227 277.509804 194.999191 277.149439 
Q 194.681155 276.789074 194.681155 276.205626 
Q 194.681155 275.49176 195.006055 275.146268 
Q 195.330956 274.800775 195.834323 274.800775 
Q 196.323961 274.800775 196.647718 275.153132 
Q 196.971474 275.505489 196.971474 276.159866 
Q 196.969186 276.795938 196.652294 277.152871 
Q 196.335401 277.509804 195.82517 277.509804 
M 192.180336 277.509804 
Q 191.672393 277.509804 191.354357 277.149439 
Q 191.03632 276.789074 191.03632 276.205626 
Q 191.03632 275.49176 191.361221 275.146268 
Q 191.686121 274.800775 192.189488 274.800775 
Q 192.679127 274.800775 193.002883 275.153132 
Q 193.32664 275.505489 193.32664 276.159866 
Q 193.324352 276.795938 193.007459 277.152871 
Q 192.690567 277.509804 192.180336 277.509804 
" clip-path="url(#pa34f3d9648)" style="fill: #ff0000"/>
   </g>
   <g id="patch_33">
    <path d="M 294.324167 283.422841 
C 294.324167 298.86037 281.809577 311.37496 266.372048 311.37496 
C 250.934519 311.37496 238.419929 298.86037 238.419929 283.422841 
C 238.419929 267.985311 250.934519 255.470721 266.372048 255.470721 
C 281.809577 255.470721 294.324167 267.985311 294.324167 283.422841 
" clip-path="url(#pa34f3d9648)" style="fill: none; stroke: #ffffff; stroke-width: 0.48; stroke-linejoin: miter"/>
   </g>
   <g id="patch_34">
    <path d="M 268.160984 283.422841 
C 268.160984 284.410842 267.36005 285.211776 266.372048 285.211776 
C 265.384046 285.211776 264.583112 284.410842 264.583112 283.422841 
C 264.583112 282.434839 265.384046 281.633905 266.372048 281.633905 
C 267.36005 281.633905 268.160984 282.434839 268.160984 283.422841 
" clip-path="url(#pa34f3d9648)" style="fill: none; stroke: #ffffff; stroke-width: 0.48; stroke-linejoin: miter"/>
   </g>
   <g id="patch_35">
    <path d="M 290.969913 283.422841 
C 290.969913 297.007866 279.957073 308.020705 266.372048 308.020705 
C 252.787022 308.020705 241.774183 297.007866 241.774183 283.422841 
C 241.774183 269.837815 252.787022 258.824976 266.372048 258.824976 
C 279.957073 258.824976 290.969913 269.837815 290.969913 283.422841 
" clip-path="url(#pa34f3d9648)" style="fill: none; stroke: #ff0000; stroke-width: 0.48; stroke-linejoin: miter"/>
   </g>
   <g id="patch_36">
    <path d="M 256.50148 285.65901 
L 256.50148 282.304756 
L 255.911168 282.304756 
L 255.110356 284.638548 
Q 254.993667 284.981753 254.93189 285.176235 
L 254.922738 285.176235 
Q 254.902146 285.075562 254.76944 284.679733 
L 253.975493 282.304756 
L 253.311964 282.304756 
L 253.311964 285.65901 
L 253.732961 285.65901 
L 253.732961 282.805835 
L 253.74669 282.805835 
L 254.707663 285.65901 
L 255.10578 285.65901 
L 256.07133 282.851595 
L 256.080482 282.851595 
L 256.080482 285.65901 
L 256.50148 285.65901 
M 278.711402 282.304756 
L 278.194307 282.304756 
Q 277.274518 283.695879 277.178421 283.883498 
Q 277.025123 283.604358 276.913009 283.432755 
L 276.176263 282.304756 
L 275.636288 282.304756 
L 276.929026 284.238142 
L 276.929026 285.65901 
L 277.375192 285.65901 
L 277.375192 284.238142 
L 278.711402 282.304756 
M 266.900583 284.245007 
L 266.900583 282.304756 
L 266.454417 282.304756 
L 266.454417 284.238142 
Q 266.454417 284.595075 266.394928 284.820446 
Q 266.335439 285.045818 266.138669 285.180811 
Q 265.941898 285.315805 265.550645 285.315805 
Q 265.163967 285.315805 264.978637 285.146491 
Q 264.793306 284.977177 264.749833 284.75867 
Q 264.706361 284.540163 264.706361 284.238142 
L 264.706361 282.304756 
L 264.262483 282.304756 
L 264.262483 284.245007 
Q 264.262483 284.535587 264.297947 284.771254 
Q 264.333412 285.006921 264.461542 285.224284 
Q 264.589671 285.441647 264.864235 285.578929 
Q 265.138799 285.716211 265.587253 285.716211 
Q 266.047147 285.716211 266.322855 285.561769 
Q 266.598563 285.407327 266.720973 285.175091 
Q 266.843382 284.942856 266.871983 284.723205 
Q 266.900583 284.503554 266.900583 284.245007 
M 261.12788 282.304756 
L 261.12788 285.65901 
L 261.571758 285.65901 
L 261.571758 284.299919 
L 262.429769 284.299919 
Q 263.088723 284.299919 263.387311 284.019635 
Q 263.685899 283.739352 263.685899 283.274881 
Q 263.685899 283.041502 263.590946 282.827571 
Q 263.495992 282.61364 263.310662 282.488942 
Q 263.125331 282.364245 262.909112 282.3345 
Q 262.692893 282.304756 262.393161 282.304756 
L 261.12788 282.304756 
M 275.364012 285.65901 
L 275.364012 285.260893 
L 273.302496 285.260893 
L 273.302496 284.126029 
L 275.158089 284.126029 
L 275.158089 283.727911 
L 273.302496 283.727911 
L 273.302496 282.702873 
L 275.286219 282.702873 
L 275.286219 282.304756 
L 272.858617 282.304756 
L 272.858617 285.65901 
L 275.364012 285.65901 
M 259.224237 285.65901 
L 259.224237 285.260893 
L 257.574566 285.260893 
Q 257.693544 285.050394 258.057341 284.759814 
Q 258.750615 284.20611 258.98285 283.875489 
Q 259.215085 283.544869 259.215085 283.222256 
Q 259.215085 282.835579 258.939377 282.562159 
Q 258.66367 282.28874 258.169455 282.28874 
Q 257.714136 282.28874 257.417836 282.538135 
Q 257.121536 282.78753 257.08264 283.258865 
L 257.505926 283.306914 
Q 257.508214 282.968285 257.695832 282.797827 
Q 257.883451 282.627368 258.160303 282.627368 
Q 258.434866 282.627368 258.614477 282.79325 
Q 258.794087 282.959133 258.794087 283.213104 
Q 258.794087 283.50826 258.533252 283.799984 
Q 258.272416 284.091708 257.940652 284.35712 
Q 257.398388 284.794134 257.200473 285.084714 
Q 257.002559 285.375294 257.002559 285.65901 
L 259.224237 285.65901 
M 272.33237 285.65901 
L 272.33237 285.260893 
L 270.678123 285.260893 
L 270.678123 282.304756 
L 270.234245 282.304756 
L 270.234245 285.65901 
L 272.33237 285.65901 
M 269.726302 285.65901 
L 269.726302 285.260893 
L 268.072055 285.260893 
L 268.072055 282.304756 
L 267.628177 282.304756 
L 267.628177 285.65901 
L 269.726302 285.65901 
M 261.571758 283.901802 
L 261.571758 282.702873 
L 262.425193 282.702873 
Q 262.720349 282.702873 262.870216 282.740626 
Q 263.020082 282.778378 263.123043 282.93282 
Q 263.226004 283.087263 263.226004 283.288609 
Q 263.226004 283.901802 262.434346 283.901802 
L 261.571758 283.901802 
" clip-path="url(#pa34f3d9648)" style="fill: #ff0000"/>
   </g>
   <g id="patch_37">
    <path d="M 347.992236 283.422841 
C 347.992236 295.772864 337.980564 305.784536 325.63054 305.784536 
C 313.280517 305.784536 303.268845 295.772864 303.268845 283.422841 
C 303.268845 271.072817 313.280517 261.061145 325.63054 261.061145 
C 337.980564 261.061145 347.992236 271.072817 347.992236 283.422841 
" clip-path="url(#pa34f3d9648)" style="fill: none; stroke: #ffffff; stroke-width: 0.48; stroke-linejoin: miter"/>
   </g>
   <g id="patch_38">
    <path d="M 327.419476 283.422841 
C 327.419476 284.410842 326.618542 285.211776 325.63054 285.211776 
C 324.642538 285.211776 323.841605 284.410842 323.841605 283.422841 
C 323.841605 282.434839 324.642538 281.633905 325.63054 281.633905 
C 326.618542 281.633905 327.419476 282.434839 327.419476 283.422841 
" clip-path="url(#pa34f3d9648)" style="fill: none; stroke: #ffffff; stroke-width: 0.48; stroke-linejoin: miter"/>
   </g>
   <g id="patch_39">
    <path d="M 335.693303 285.044063 
L 342.401812 285.044063 
L 342.401812 281.801618 
L 335.693303 281.801618 
L 335.693303 285.044063 
" clip-path="url(#pa34f3d9648)" style="fill: none; stroke: #ffffff; stroke-width: 0.48; stroke-linejoin: miter"/>
   </g>
   <g id="patch_40">
    <path d="M 315.759972 285.65901 
L 315.759972 282.304756 
L 315.16966 282.304756 
L 314.368849 284.638548 
Q 314.252159 284.981753 314.190382 285.176235 
L 314.18123 285.176235 
Q 314.160638 285.075562 314.027932 284.679733 
L 313.233985 282.304756 
L 312.570456 282.304756 
L 312.570456 285.65901 
L 312.991454 285.65901 
L 312.991454 282.805835 
L 313.005182 282.805835 
L 313.966155 285.65901 
L 314.364273 285.65901 
L 315.329822 282.851595 
L 315.338974 282.851595 
L 315.338974 285.65901 
L 315.759972 285.65901 
M 333.723308 285.65901 
L 333.723308 282.304756 
L 333.132996 282.304756 
L 332.332185 284.638548 
Q 332.215495 284.981753 332.153718 285.176235 
L 332.144566 285.176235 
Q 332.123974 285.075562 331.991268 284.679733 
L 331.197321 282.304756 
L 330.533792 282.304756 
L 330.533792 285.65901 
L 330.95479 285.65901 
L 330.95479 282.805835 
L 330.968518 282.805835 
L 331.929491 285.65901 
L 332.327609 285.65901 
L 333.293158 282.851595 
L 333.30231 282.851595 
L 333.30231 285.65901 
L 333.723308 285.65901 
M 326.740236 285.65901 
L 326.1545 284.746085 
Q 325.859343 284.283903 325.523003 284.135181 
L 325.523003 284.126029 
Q 325.982897 284.064252 326.22314 283.833161 
Q 326.463384 283.60207 326.463384 283.222256 
Q 326.463384 283.011757 326.379871 282.821851 
Q 326.296357 282.631944 326.140771 282.507247 
Q 325.985185 282.382549 325.779262 282.343652 
Q 325.573339 282.304756 325.269031 282.304756 
L 323.784099 282.304756 
L 323.784099 285.65901 
L 324.227977 285.65901 
L 324.227977 284.178654 
L 324.740496 284.178654 
Q 324.934979 284.178654 325.052812 284.212974 
Q 325.170646 284.247295 325.304496 284.376568 
Q 325.438346 284.505842 325.559611 284.686597 
Q 325.680877 284.867351 326.181956 285.65901 
L 326.740236 285.65901 
M 320.4001 282.304756 
L 320.4001 285.65901 
L 321.608181 285.65901 
Q 322.468481 285.65901 322.820838 285.181955 
Q 323.173194 284.704901 323.173194 283.963579 
Q 323.173194 283.574613 323.087393 283.301193 
Q 323.001592 283.027774 322.851726 282.817275 
Q 322.70186 282.606776 322.501657 282.486654 
Q 322.301454 282.366533 322.081803 282.335644 
Q 321.862152 282.304756 321.557844 282.304756 
L 320.4001 282.304756 
M 329.801622 284.245007 
L 329.801622 282.304756 
L 329.355456 282.304756 
L 329.355456 284.238142 
Q 329.355456 284.595075 329.295967 284.820446 
Q 329.236478 285.045818 329.039707 285.180811 
Q 328.842937 285.315805 328.451683 285.315805 
Q 328.065006 285.315805 327.879675 285.146491 
Q 327.694345 284.977177 327.650872 284.75867 
Q 327.6074 284.540163 327.6074 284.238142 
L 327.6074 282.304756 
L 327.163521 282.304756 
L 327.163521 284.245007 
Q 327.163521 284.535587 327.198986 284.771254 
Q 327.23445 285.006921 327.36258 285.224284 
Q 327.49071 285.441647 327.765274 285.578929 
Q 328.039838 285.716211 328.488292 285.716211 
Q 328.948186 285.716211 329.223894 285.561769 
Q 329.499602 285.407327 329.622011 285.175091 
Q 329.744421 284.942856 329.773021 284.723205 
Q 329.801622 284.503554 329.801622 284.245007 
M 318.48273 285.65901 
L 318.48273 285.260893 
L 316.833059 285.260893 
Q 316.952037 285.050394 317.315834 284.759814 
Q 318.009107 284.20611 318.241342 283.875489 
Q 318.473578 283.544869 318.473578 283.222256 
Q 318.473578 282.835579 318.19787 282.562159 
Q 317.922162 282.28874 317.427947 282.28874 
Q 316.972629 282.28874 316.676329 282.538135 
Q 316.380029 282.78753 316.341132 283.258865 
L 316.764418 283.306914 
Q 316.766706 282.968285 316.954325 282.797827 
Q 317.141943 282.627368 317.418795 282.627368 
Q 317.693359 282.627368 317.872969 282.79325 
Q 318.05258 282.959133 318.05258 283.213104 
Q 318.05258 283.50826 317.791744 283.799984 
Q 317.530909 284.091708 317.199144 284.35712 
Q 316.65688 284.794134 316.458966 285.084714 
Q 316.261051 285.375294 316.261051 285.65901 
L 318.48273 285.65901 
M 324.227977 283.780536 
L 324.227977 282.673129 
L 325.287336 282.673129 
Q 325.671725 282.673129 325.838751 282.833291 
Q 326.005777 282.993453 326.005777 283.222256 
Q 326.005777 283.398435 325.905104 283.540293 
Q 325.804431 283.682151 325.63626 283.731343 
Q 325.46809 283.780536 325.179798 283.780536 
L 324.227977 283.780536 
M 320.843978 285.260893 
L 320.843978 282.702873 
L 321.548692 282.702873 
Q 321.779783 282.702873 321.927361 282.721177 
Q 322.074939 282.739482 322.230525 282.822995 
Q 322.386112 282.906508 322.506233 283.086119 
Q 322.626355 283.265729 322.670971 283.484236 
Q 322.715588 283.702743 322.715588 283.954427 
Q 322.715588 284.409745 322.598898 284.686597 
Q 322.482209 284.963448 322.304886 285.084714 
Q 322.127564 285.20598 321.954818 285.233436 
Q 321.782071 285.260893 321.56242 285.260893 
L 320.843978 285.260893 
" clip-path="url(#pa34f3d9648)" style="fill: #ff0000"/>
   </g>
   <g id="patch_41">
    <path d="M 23.747654 337.090909 
L 113.194435 337.090909 
L 113.194435 320.319638 
L 23.747654 320.319638 
L 23.747654 337.090909 
" clip-path="url(#pa34f3d9648)" style="fill: none; stroke: #ffffff; stroke-width: 0.48; stroke-linejoin: miter"/>
   </g>
   <g id="patch_42">
    <path d="M 36.717438 328.705273 
C 36.717438 329.693275 35.916504 330.494209 34.928502 330.494209 
C 33.9405 330.494209 33.139566 329.693275 33.139566 328.705273 
C 33.139566 327.717272 33.9405 326.916338 34.928502 326.916338 
C 35.916504 326.916338 36.717438 327.717272 36.717438 328.705273 
" clip-path="url(#pa34f3d9648)" style="fill: none; stroke: #ffffff; stroke-width: 0.48; stroke-linejoin: miter"/>
   </g>
   <g id="patch_43">
    <path d="M 105.367842 328.705273 
C 105.367842 330.557777 103.866091 332.059528 102.013588 332.059528 
C 100.161084 332.059528 98.659334 330.557777 98.659334 328.705273 
C 98.659334 326.85277 100.161084 325.351019 102.013588 325.351019 
C 103.866091 325.351019 105.367842 326.85277 105.367842 328.705273 
" clip-path="url(#pa34f3d9648)" style="fill: none; stroke: #ffffff; stroke-width: 0.48; stroke-linejoin: miter"/>
   </g>
   <g id="patch_44">
    <path d="M 49.655799 334.85474 
L 49.655799 331.500485 
L 49.065487 331.500485 
L 48.264675 333.834277 
Q 48.147986 334.177482 48.086209 334.371965 
L 48.077057 334.371965 
Q 48.056465 334.271292 47.923759 333.875462 
L 47.129812 331.500485 
L 46.466283 331.500485 
L 46.466283 334.85474 
L 46.88728 334.85474 
L 46.88728 332.001564 
L 46.901009 332.001564 
L 47.861982 334.85474 
L 48.260099 334.85474 
L 49.225649 332.047325 
L 49.234801 332.047325 
L 49.234801 334.85474 
L 49.655799 334.85474 
M 63.818714 334.85474 
L 62.450471 331.500485 
L 61.972273 331.500485 
L 60.684111 334.85474 
L 61.153157 334.85474 
L 61.523818 333.834277 
L 62.924094 333.834277 
L 63.317635 334.85474 
L 63.818714 334.85474 
M 57.121646 333.790805 
L 56.680056 333.678691 
Q 56.58167 334.106553 56.335707 334.31934 
Q 56.089743 334.532127 55.696202 334.532127 
Q 55.215715 334.532127 54.917127 334.19121 
Q 54.618539 333.850294 54.618539 333.150156 
Q 54.618539 332.543828 54.902255 332.183463 
Q 55.185971 331.823098 55.735099 331.823098 
Q 56.071439 331.823098 56.295666 331.999276 
Q 56.519893 332.175455 56.629719 332.525523 
L 57.064445 332.422562 
Q 56.924875 331.942075 56.577094 331.69268 
Q 56.229313 331.443284 55.739675 331.443284 
Q 55.044113 331.443284 54.601379 331.897459 
Q 54.158645 332.351633 54.158645 333.154732 
Q 54.158645 333.880038 54.535026 334.395989 
Q 54.911407 334.91194 55.735099 334.91194 
Q 56.24533 334.91194 56.610271 334.633945 
Q 56.975212 334.355949 57.121646 333.790805 
M 60.636062 334.85474 
L 60.050326 333.941815 
Q 59.75517 333.479633 59.418829 333.330911 
L 59.418829 333.321758 
Q 59.878724 333.259982 60.118967 333.02889 
Q 60.35921 332.797799 60.35921 332.417986 
Q 60.35921 332.207487 60.275697 332.01758 
Q 60.192184 331.827674 60.036598 331.702976 
Q 59.881012 331.578278 59.675089 331.539382 
Q 59.469166 331.500485 59.164858 331.500485 
L 57.679925 331.500485 
L 57.679925 334.85474 
L 58.123804 334.85474 
L 58.123804 333.374383 
L 58.636323 333.374383 
Q 58.830805 333.374383 58.948639 333.408704 
Q 59.066473 333.443024 59.200322 333.572298 
Q 59.334172 333.701572 59.455438 333.882326 
Q 59.576704 334.063081 60.077782 334.85474 
L 60.636062 334.85474 
M 70.314436 334.85474 
L 68.847808 332.859576 
L 70.252659 331.500485 
L 69.653195 331.500485 
L 67.98522 333.163884 
L 67.98522 331.500485 
L 67.541341 331.500485 
L 67.541341 334.85474 
L 67.98522 334.85474 
L 67.98522 333.69242 
L 68.538923 333.159308 
L 69.7287 334.85474 
L 70.314436 334.85474 
M 66.8229 334.85474 
L 66.8229 331.500485 
L 66.399614 331.500485 
L 66.399614 334.13401 
L 66.390462 334.13401 
L 64.637829 331.500485 
L 64.184799 331.500485 
L 64.184799 334.85474 
L 64.605797 334.85474 
L 64.605797 332.221215 
L 64.614949 332.221215 
L 66.367581 334.85474 
L 66.8229 334.85474 
M 52.378556 334.85474 
L 52.378556 334.456622 
L 50.728885 334.456622 
Q 50.847863 334.246123 51.21166 333.955543 
Q 51.904934 333.40184 52.137169 333.071219 
Q 52.369404 332.740598 52.369404 332.417986 
Q 52.369404 332.031309 52.093696 331.757889 
Q 51.817989 331.484469 51.323774 331.484469 
Q 50.868455 331.484469 50.572155 331.733865 
Q 50.275855 331.98326 50.236959 332.454594 
L 50.660245 332.502643 
Q 50.662533 332.164014 50.850151 331.993556 
Q 51.03777 331.823098 51.314622 331.823098 
Q 51.589185 331.823098 51.768796 331.98898 
Q 51.948406 332.154862 51.948406 332.408834 
Q 51.948406 332.70399 51.687571 332.995714 
Q 51.426735 333.287438 51.094971 333.55285 
Q 50.552707 333.989864 50.354792 334.280444 
Q 50.156878 334.571024 50.156878 334.85474 
L 52.378556 334.85474 
M 62.7891 333.481921 
L 61.64966 333.481921 
L 62.024897 332.477475 
Q 62.132435 332.189183 62.1965 331.850554 
L 62.20794 331.850554 
Q 62.272005 332.097662 62.324629 332.24524 
Q 62.377254 332.392818 62.7891 333.481921 
M 58.123804 332.976266 
L 58.123804 331.868858 
L 59.183162 331.868858 
Q 59.567551 331.868858 59.734578 332.029021 
Q 59.901604 332.189183 59.901604 332.417986 
Q 59.901604 332.594164 59.800931 332.736022 
Q 59.700257 332.87788 59.532087 332.927073 
Q 59.363917 332.976266 59.075625 332.976266 
L 58.123804 332.976266 
" clip-path="url(#pa34f3d9648)" style="fill: #ff0000"/>
   </g>
  </g>
 </g>
 <defs>
  <clipPath id="pa34f3d9648">
   <rect x="7.2" y="7.2" width="364.048399" height="345.6"/>
  </clipPath>
 </defs>
</svg>
