<?xml version="1.0" encoding="utf-8" standalone="no"?>
<!DOCTYPE svg PUBLIC "-//W3C//DTD SVG 1.1//EN"
  "http://www.w3.org/Graphics/SVG/1.1/DTD/svg11.dtd">
<svg xmlns:xlink="http://www.w3.org/1999/xlink" width="385.043478pt" height="360pt" viewBox="0 0 385.043478 360" xmlns="http://www.w3.org/2000/svg" version="1.1">
 <metadata>
  <rdf:RDF xmlns:dc="http://purl.org/dc/elements/1.1/" xmlns:cc="http://creativecommons.org/ns#" xmlns:rdf="http://www.w3.org/1999/02/22-rdf-syntax-ns#">
   <cc:Work>
    <dc:type rdf:resource="http://purl.org/dc/dcmitype/StillImage"/>
    <dc:date>2026-03-20T00:01:46.925143</dc:date>
    <dc:format>image/svg+xml</dc:format>
    <dc:creator>
     <cc:Agent>
      <dc:title>Matplotlib v3.10.8, https://matplotlib.org/</dc:title>
     </cc:Agent>
    </dc:creator>
   </cc:Work>
  </rdf:RDF>
 </metadata>
 <defs>
  <style type="text/css">*{stroke-linejoin: round; stroke-linecap: butt}</style>
 </defs>
 <g id="figure_1">
  <g id="patch_1">
   <path d="M 0 360 
L 385.043478 360 
L 385.043478 0 
L 0 0 
z
" style="fill: #1a1a2e"/>
  </g>
  <g id="axes_1">
   <g id="patch_2">
    <path d="M 7.2 352.8 
L 377.843478 352.8 
L 377.843478 7.2 
L 7.2 7.2 
z
" style="fill: #1a1a2e"/>
   </g>
   <g id="patch_3">
    <path d="M 24.047431 250.577075 
L 228.948617 250.577075 
L 228.948617 113.976285 
L 24.047431 113.976285 
L 24.047431 250.577075 
" clip-path="url(#pffe3dfbdbd)" style="fill: none; stroke: #ffffff; stroke-width: 0.48; stroke-linejoin: miter"/>
   </g>
   <g id="patch_4">
    <path d="M 33.349827 123.083004 
L 33.349827 119.667984 
L 32.74882 119.667984 
L 31.933502 122.044055 
Q 31.814698 122.393477 31.751802 122.591483 
L 31.742484 122.591483 
Q 31.721519 122.488986 31.586409 122.085986 
L 30.778079 119.667984 
L 30.10253 119.667984 
L 30.10253 123.083004 
L 30.531154 123.083004 
L 30.531154 120.178141 
L 30.545131 120.178141 
L 31.523513 123.083004 
L 31.928843 123.083004 
L 32.911884 120.22473 
L 32.921202 120.22473 
L 32.921202 123.083004 
L 33.349827 123.083004 
M 44.060782 123.083004 
L 42.667752 119.667984 
L 42.180891 119.667984 
L 40.869393 123.083004 
L 41.346936 123.083004 
L 41.724312 122.044055 
L 43.149955 122.044055 
L 43.550626 123.083004 
L 44.060782 123.083004 
M 46.45083 120.669661 
L 46.884114 120.634719 
Q 46.863148 120.143198 46.51722 119.876473 
Q 46.171292 119.609747 45.602899 119.609747 
Q 45.048482 119.609747 44.727014 119.877638 
Q 44.405545 120.145528 44.405545 120.555517 
Q 44.405545 120.916586 44.659459 121.142546 
Q 44.913372 121.368506 45.489919 121.493133 
Q 46.066466 121.61776 46.311061 121.745882 
Q 46.555657 121.874003 46.555657 122.153541 
Q 46.555657 122.421431 46.321544 122.577506 
Q 46.087431 122.733582 45.707726 122.733582 
Q 45.302396 122.733582 45.01587 122.546058 
Q 44.729343 122.358535 44.69906 121.948547 
L 44.270436 121.985818 
Q 44.291401 122.498304 44.648976 122.819773 
Q 45.006552 123.141241 45.726361 123.141241 
Q 46.290096 123.141241 46.640683 122.850056 
Q 46.99127 122.558871 46.99127 122.118599 
Q 46.99127 121.771506 46.800252 121.565347 
Q 46.609235 121.359188 46.341345 121.261349 
Q 46.073454 121.163511 45.649489 121.070332 
Q 45.171945 120.963176 45.003057 120.854855 
Q 44.83417 120.746534 44.83417 120.525233 
Q 44.83417 120.275979 45.053141 120.145528 
Q 45.272113 120.015077 45.621535 120.015077 
Q 46.008229 120.015077 46.215553 120.179305 
Q 46.422876 120.343534 46.45083 120.669661 
M 39.986519 121.266008 
Q 40.224126 121.142546 40.341765 120.952693 
Q 40.459404 120.76284 40.459404 120.53921 
Q 40.459404 120.208424 40.204326 119.938204 
Q 39.949248 119.667984 39.327276 119.667984 
L 38.046061 119.667984 
L 38.046061 123.083004 
L 39.3529 123.083004 
Q 39.807149 123.083004 40.07271 122.970024 
Q 40.338271 122.857044 40.482699 122.617108 
Q 40.627127 122.377171 40.627127 122.090645 
Q 40.627127 121.804119 40.467557 121.583983 
Q 40.307988 121.363847 39.986519 121.266008 
M 50.166353 123.083004 
L 50.166353 122.677674 
L 48.06749 122.677674 
L 48.06749 121.522251 
L 49.9567 121.522251 
L 49.9567 121.116922 
L 48.06749 121.116922 
L 48.06749 120.073314 
L 50.087151 120.073314 
L 50.087151 119.667984 
L 47.615571 119.667984 
L 47.615571 123.083004 
L 50.166353 123.083004 
M 36.12191 123.083004 
L 36.12191 122.677674 
L 34.442353 122.677674 
Q 34.563486 122.463362 34.933874 122.167518 
Q 35.639707 121.603783 35.876149 121.267173 
Q 36.112592 120.930563 36.112592 120.602106 
Q 36.112592 120.208424 35.831889 119.930051 
Q 35.551187 119.651678 35.048019 119.651678 
Q 34.584452 119.651678 34.282784 119.905591 
Q 33.981116 120.159505 33.941515 120.639378 
L 34.372469 120.688297 
Q 34.374798 120.343534 34.565816 120.169987 
Q 34.756833 119.996441 35.038701 119.996441 
Q 35.318238 119.996441 35.501103 120.165328 
Q 35.683967 120.334216 35.683967 120.592788 
Q 35.683967 120.893291 35.418406 121.1903 
Q 35.152845 121.487309 34.81507 121.757529 
Q 34.262983 122.20246 34.061483 122.498304 
Q 33.859983 122.794148 33.859983 123.083004 
L 36.12191 123.083004 
M 43.012516 121.685315 
L 41.852434 121.685315 
L 42.234469 120.662673 
Q 42.343954 120.369158 42.40918 120.024395 
L 42.420827 120.024395 
Q 42.486053 120.275979 42.539631 120.42623 
Q 42.593209 120.576482 43.012516 121.685315 
M 38.497981 122.677674 
L 38.497981 121.503616 
L 39.290004 121.503616 
Q 39.781525 121.503616 39.970213 121.658526 
Q 40.158901 121.813437 40.158901 122.090645 
Q 40.158901 122.365524 39.98186 122.521599 
Q 39.80482 122.677674 39.348241 122.677674 
L 38.497981 122.677674 
M 38.497981 121.098286 
L 38.497981 120.073314 
L 39.180519 120.073314 
Q 39.441421 120.073314 39.607978 120.098938 
Q 39.774536 120.124563 39.894505 120.239872 
Q 40.014473 120.355181 40.014473 120.597447 
Q 40.014473 120.828066 39.895669 120.937552 
Q 39.776866 121.047037 39.621955 121.072661 
Q 39.467045 121.098286 39.238756 121.098286 
L 38.497981 121.098286 
" clip-path="url(#pffe3dfbdbd)" style="fill: #ff0000"/>
   </g>
   <g id="patch_5">
    <path d="M 56.547036 205.043478 
L 59.848221 205.043478 
L 59.848221 193.660079 
L 56.547036 193.660079 
L 56.547036 205.043478 
" clip-path="url(#pffe3dfbdbd)" style="fill: none; stroke: #ffffff; stroke-width: 0.48; stroke-linejoin: miter"/>
   </g>
   <g id="patch_6">
    <path d="M 56.547036 170.893281 
L 59.848221 170.893281 
L 59.848221 159.509881 
L 56.547036 159.509881 
L 56.547036 170.893281 
" clip-path="url(#pffe3dfbdbd)" style="fill: none; stroke: #ffffff; stroke-width: 0.48; stroke-linejoin: miter"/>
   </g>
   <g id="patch_7">
    <path d="M 193.147826 205.043478 
L 196.449012 205.043478 
L 196.449012 193.660079 
L 193.147826 193.660079 
L 193.147826 205.043478 
" clip-path="url(#pffe3dfbdbd)" style="fill: none; stroke: #ffffff; stroke-width: 0.48; stroke-linejoin: miter"/>
   </g>
   <g id="patch_8">
    <path d="M 193.147826 170.893281 
L 196.449012 170.893281 
L 196.449012 159.509881 
L 193.147826 159.509881 
L 193.147826 170.893281 
" clip-path="url(#pffe3dfbdbd)" style="fill: none; stroke: #ffffff; stroke-width: 0.48; stroke-linejoin: miter"/>
   </g>
   <g id="patch_9">
    <path d="M 128.319368 227.810277 
C 128.319368 228.816177 127.503924 229.631621 126.498024 229.631621 
C 125.492123 229.631621 124.67668 228.816177 124.67668 227.810277 
C 124.67668 226.804376 125.492123 225.988933 126.498024 225.988933 
C 127.503924 225.988933 128.319368 226.804376 128.319368 227.810277 
" clip-path="url(#pffe3dfbdbd)" style="fill: none; stroke: #ffffff; stroke-width: 0.48; stroke-linejoin: miter"/>
   </g>
   <g id="patch_10">
    <path d="M 238.055336 250.577075 
L 294.972332 250.577075 
L 294.972332 22.909091 
L 238.055336 22.909091 
L 238.055336 250.577075 
" clip-path="url(#pffe3dfbdbd)" style="fill: none; stroke: #ffffff; stroke-width: 0.48; stroke-linejoin: miter"/>
   </g>
   <g id="patch_11">
    <path d="M 243.747036 253.992095 
L 255.130435 253.992095 
L 255.130435 250.577075 
L 243.747036 250.577075 
L 243.747036 253.992095 
" clip-path="url(#pffe3dfbdbd)" style="fill: none; stroke: #ffffff; stroke-width: 0.48; stroke-linejoin: miter"/>
   </g>
   <g id="patch_12">
    <path d="M 277.897233 253.992095 
L 289.280632 253.992095 
L 289.280632 250.577075 
L 277.897233 250.577075 
L 277.897233 253.992095 
" clip-path="url(#pffe3dfbdbd)" style="fill: none; stroke: #ffffff; stroke-width: 0.48; stroke-linejoin: miter"/>
   </g>
   <g id="patch_13">
    <path d="M 260.822134 26.267194 
L 272.205534 26.267194 
L 272.205534 22.966008 
L 260.822134 22.966008 
L 260.822134 26.267194 
" clip-path="url(#pffe3dfbdbd)" style="fill: none; stroke: #ffffff; stroke-width: 0.48; stroke-linejoin: miter"/>
   </g>
   <g id="patch_14">
    <path d="M 268.790514 45.675889 
C 268.790514 46.933265 267.77121 47.952569 266.513834 47.952569 
C 265.256458 47.952569 264.237154 46.933265 264.237154 45.675889 
C 264.237154 44.418514 265.256458 43.399209 266.513834 43.399209 
C 267.77121 43.399209 268.790514 44.418514 268.790514 45.675889 
" clip-path="url(#pffe3dfbdbd)" style="fill: none; stroke: #ffffff; stroke-width: 0.48; stroke-linejoin: miter"/>
   </g>
   <g id="patch_15">
    <path d="M 245.081052 34.29249 
L 245.081052 30.87747 
L 244.480046 30.87747 
L 243.664727 33.253541 
Q 243.545924 33.602964 243.483028 33.80097 
L 243.47371 33.80097 
Q 243.452744 33.698472 243.317634 33.295472 
L 242.509304 30.87747 
L 241.833755 30.87747 
L 241.833755 34.29249 
L 242.262379 34.29249 
L 242.262379 31.387627 
L 242.276356 31.387627 
L 243.254738 34.29249 
L 243.660068 34.29249 
L 244.643109 31.434216 
L 244.652427 31.434216 
L 244.652427 34.29249 
L 245.081052 34.29249 
M 252.486473 32.852871 
L 252.486473 30.87747 
L 252.032224 30.87747 
L 252.032224 32.845882 
Q 252.032224 33.209281 251.971658 33.438735 
Q 251.911091 33.668189 251.710756 33.805629 
Q 251.510421 33.943068 251.112079 33.943068 
Q 250.718397 33.943068 250.529709 33.770686 
Q 250.341021 33.598305 250.296761 33.375839 
Q 250.252501 33.153374 250.252501 32.845882 
L 250.252501 30.87747 
L 249.800581 30.87747 
L 249.800581 32.852871 
Q 249.800581 33.148715 249.836688 33.388651 
Q 249.872795 33.628588 250.003246 33.849889 
Q 250.133697 34.071189 250.413235 34.210958 
Q 250.692773 34.350727 251.149351 34.350727 
Q 251.617577 34.350727 251.898279 34.193487 
Q 252.178982 34.036247 252.303609 33.799805 
Q 252.428236 33.563362 252.457355 33.339732 
Q 252.486473 33.116102 252.486473 32.852871 
M 253.236566 30.87747 
L 253.236566 34.29249 
L 253.688486 34.29249 
L 253.688486 32.908778 
L 254.562041 32.908778 
Q 255.232932 32.908778 255.536929 32.623417 
Q 255.840927 32.338055 255.840927 31.86517 
Q 255.840927 31.627563 255.744253 31.409757 
Q 255.64758 31.19195 255.458892 31.064994 
Q 255.270204 30.938037 255.050068 30.907754 
Q 254.829932 30.87747 254.52477 30.87747 
L 253.236566 30.87747 
M 247.853135 34.29249 
L 247.853135 33.88716 
L 246.173579 33.88716 
Q 246.294712 33.672848 246.665099 33.377004 
Q 247.370932 32.813269 247.607375 32.476659 
Q 247.843817 32.140049 247.843817 31.811592 
Q 247.843817 31.41791 247.563114 31.139537 
Q 247.282412 30.861164 246.779244 30.861164 
Q 246.315677 30.861164 246.014009 31.115077 
Q 245.712341 31.368991 245.67274 31.848864 
L 246.103694 31.897783 
Q 246.106024 31.55302 246.297041 31.379474 
Q 246.488059 31.205927 246.769926 31.205927 
Q 247.049464 31.205927 247.232328 31.374815 
Q 247.415192 31.543702 247.415192 31.802274 
Q 247.415192 32.102778 247.149631 32.399786 
Q 246.884071 32.696795 246.546296 32.967015 
Q 245.994209 33.411946 245.792709 33.70779 
Q 245.591208 34.003634 245.591208 34.29249 
L 247.853135 34.29249 
M 259.870929 34.29249 
L 259.870929 33.88716 
L 258.186714 33.88716 
L 258.186714 30.87747 
L 257.734795 30.87747 
L 257.734795 34.29249 
L 259.870929 34.29249 
M 253.688486 32.503448 
L 253.688486 31.2828 
L 254.557382 31.2828 
Q 254.857885 31.2828 255.010466 31.321237 
Q 255.163048 31.359673 255.267874 31.516913 
Q 255.372701 31.674153 255.372701 31.879147 
Q 255.372701 32.503448 254.5667 32.503448 
L 253.688486 32.503448 
" clip-path="url(#pffe3dfbdbd)" style="fill: #ff0000"/>
   </g>
   <g id="patch_16">
    <path d="M 304.079051 250.577075 
L 360.996047 250.577075 
L 360.996047 22.909091 
L 304.079051 22.909091 
L 304.079051 250.577075 
" clip-path="url(#pffe3dfbdbd)" style="fill: none; stroke: #ffffff; stroke-width: 0.48; stroke-linejoin: miter"/>
   </g>
   <g id="patch_17">
    <path d="M 309.770751 253.992095 
L 321.15415 253.992095 
L 321.15415 250.577075 
L 309.770751 250.577075 
L 309.770751 253.992095 
" clip-path="url(#pffe3dfbdbd)" style="fill: none; stroke: #ffffff; stroke-width: 0.48; stroke-linejoin: miter"/>
   </g>
   <g id="patch_18">
    <path d="M 343.920949 253.992095 
L 355.304348 253.992095 
L 355.304348 250.577075 
L 343.920949 250.577075 
L 343.920949 253.992095 
" clip-path="url(#pffe3dfbdbd)" style="fill: none; stroke: #ffffff; stroke-width: 0.48; stroke-linejoin: miter"/>
   </g>
   <g id="patch_19">
    <path d="M 326.84585 26.267194 
L 338.229249 26.267194 
L 338.229249 22.966008 
L 326.84585 22.966008 
L 326.84585 26.267194 
" clip-path="url(#pffe3dfbdbd)" style="fill: none; stroke: #ffffff; stroke-width: 0.48; stroke-linejoin: miter"/>
   </g>
   <g id="patch_20">
    <path d="M 334.814229 45.675889 
C 334.814229 46.933265 333.794925 47.952569 332.537549 47.952569 
C 331.280174 47.952569 330.26087 46.933265 330.26087 45.675889 
C 330.26087 44.418514 331.280174 43.399209 332.537549 43.399209 
C 333.794925 43.399209 334.814229 44.418514 334.814229 45.675889 
" clip-path="url(#pffe3dfbdbd)" style="fill: none; stroke: #ffffff; stroke-width: 0.48; stroke-linejoin: miter"/>
   </g>
   <g id="patch_21">
    <path d="M 311.104767 34.29249 
L 311.104767 30.87747 
L 310.503761 30.87747 
L 309.688443 33.253541 
Q 309.569639 33.602964 309.506743 33.80097 
L 309.497425 33.80097 
Q 309.47646 33.698472 309.34135 33.295472 
L 308.53302 30.87747 
L 307.85747 30.87747 
L 307.85747 34.29249 
L 308.286095 34.29249 
L 308.286095 31.387627 
L 308.300072 31.387627 
L 309.278454 34.29249 
L 309.683784 34.29249 
L 310.666825 31.434216 
L 310.676143 31.434216 
L 310.676143 34.29249 
L 311.104767 34.29249 
M 326.791495 34.29249 
L 326.195148 33.363027 
Q 325.894645 32.892472 325.552211 32.741055 
L 325.552211 32.731738 
Q 326.020437 32.668842 326.265032 32.433564 
Q 326.509628 32.198286 326.509628 31.811592 
Q 326.509628 31.59728 326.424602 31.403933 
Q 326.339576 31.210586 326.181171 31.083629 
Q 326.022766 30.956673 325.813113 30.917072 
Q 325.60346 30.87747 325.293639 30.87747 
L 323.781805 30.87747 
L 323.781805 34.29249 
L 324.233725 34.29249 
L 324.233725 32.785316 
L 324.755528 32.785316 
Q 324.953534 32.785316 325.073503 32.820258 
Q 325.193471 32.8552 325.329746 32.986816 
Q 325.46602 33.118431 325.589483 33.302461 
Q 325.712945 33.48649 326.223102 34.29249 
L 326.791495 34.29249 
M 318.510189 32.852871 
L 318.510189 30.87747 
L 318.05594 30.87747 
L 318.05594 32.845882 
Q 318.05594 33.209281 317.995373 33.438735 
Q 317.934807 33.668189 317.734471 33.805629 
Q 317.534136 33.943068 317.135795 33.943068 
Q 316.742112 33.943068 316.553424 33.770686 
Q 316.364736 33.598305 316.320476 33.375839 
Q 316.276216 33.153374 316.276216 32.845882 
L 316.276216 30.87747 
L 315.824297 30.87747 
L 315.824297 32.852871 
Q 315.824297 33.148715 315.860404 33.388651 
Q 315.896511 33.628588 316.026962 33.849889 
Q 316.157413 34.071189 316.43695 34.210958 
Q 316.716488 34.350727 317.173066 34.350727 
Q 317.641292 34.350727 317.921995 34.193487 
Q 318.202697 34.036247 318.327324 33.799805 
Q 318.451952 33.563362 318.48107 33.339732 
Q 318.510189 33.116102 318.510189 32.852871 
M 319.260282 30.87747 
L 319.260282 34.29249 
L 319.712201 34.29249 
L 319.712201 32.908778 
L 320.585757 32.908778 
Q 321.256647 32.908778 321.560645 32.623417 
Q 321.864642 32.338055 321.864642 31.86517 
Q 321.864642 31.627563 321.767969 31.409757 
Q 321.671295 31.19195 321.482607 31.064994 
Q 321.293919 30.938037 321.073783 30.907754 
Q 320.853647 30.87747 320.548485 30.87747 
L 319.260282 30.87747 
M 313.87685 34.29249 
L 313.87685 33.88716 
L 312.197294 33.88716 
Q 312.318427 33.672848 312.688815 33.377004 
Q 313.394648 32.813269 313.63109 32.476659 
Q 313.867532 32.140049 313.867532 31.811592 
Q 313.867532 31.41791 313.58683 31.139537 
Q 313.306127 30.861164 312.802959 30.861164 
Q 312.339393 30.861164 312.037725 31.115077 
Q 311.736057 31.368991 311.696456 31.848864 
L 312.12741 31.897783 
Q 312.129739 31.55302 312.320757 31.379474 
Q 312.511774 31.205927 312.793641 31.205927 
Q 313.073179 31.205927 313.256043 31.374815 
Q 313.438908 31.543702 313.438908 31.802274 
Q 313.438908 32.102778 313.173347 32.399786 
Q 312.907786 32.696795 312.570011 32.967015 
Q 312.017924 33.411946 311.816424 33.70779 
Q 311.614924 34.003634 311.614924 34.29249 
L 313.87685 34.29249 
M 324.233725 32.379986 
L 324.233725 31.252517 
L 325.312275 31.252517 
Q 325.703627 31.252517 325.87368 31.415581 
Q 326.043732 31.578644 326.043732 31.811592 
Q 326.043732 31.990962 325.941235 32.13539 
Q 325.838737 32.279818 325.66752 32.329902 
Q 325.496304 32.379986 325.202789 32.379986 
L 324.233725 32.379986 
M 319.712201 32.503448 
L 319.712201 31.2828 
L 320.581098 31.2828 
Q 320.881601 31.2828 321.034182 31.321237 
Q 321.186763 31.359673 321.29159 31.516913 
Q 321.396416 31.674153 321.396416 31.879147 
Q 321.396416 32.503448 320.590416 32.503448 
L 319.712201 32.503448 
" clip-path="url(#pffe3dfbdbd)" style="fill: #ff0000"/>
   </g>
   <g id="patch_22">
    <path d="M 24.047431 305.217391 
L 167.478261 305.217391 
L 167.478261 271.067194 
L 24.047431 271.067194 
L 24.047431 305.217391 
" clip-path="url(#pffe3dfbdbd)" style="fill: none; stroke: #ffffff; stroke-width: 0.48; stroke-linejoin: miter"/>
   </g>
   <g id="patch_23">
    <path d="M 27.462451 308.632411 
L 38.84585 308.632411 
L 38.84585 305.217391 
L 27.462451 305.217391 
L 27.462451 308.632411 
" clip-path="url(#pffe3dfbdbd)" style="fill: none; stroke: #ffffff; stroke-width: 0.48; stroke-linejoin: miter"/>
   </g>
   <g id="patch_24">
    <path d="M 152.679842 308.632411 
L 164.063241 308.632411 
L 164.063241 305.217391 
L 152.679842 305.217391 
L 152.679842 308.632411 
" clip-path="url(#pffe3dfbdbd)" style="fill: none; stroke: #ffffff; stroke-width: 0.48; stroke-linejoin: miter"/>
   </g>
   <g id="patch_25">
    <path d="M 97.58419 288.142292 
C 97.58419 289.148193 96.768746 289.963636 95.762846 289.963636 
C 94.756945 289.963636 93.941502 289.148193 93.941502 288.142292 
C 93.941502 287.136392 94.756945 286.320949 95.762846 286.320949 
C 96.768746 286.320949 97.58419 287.136392 97.58419 288.142292 
" clip-path="url(#pffe3dfbdbd)" style="fill: none; stroke: #ffffff; stroke-width: 0.48; stroke-linejoin: miter"/>
   </g>
   <g id="patch_26">
    <path d="M 115.114625 288.142292 
C 115.114625 289.399668 114.09532 290.418972 112.837945 290.418972 
C 111.580569 290.418972 110.561265 289.399668 110.561265 288.142292 
C 110.561265 286.884917 111.580569 285.865613 112.837945 285.865613 
C 114.09532 285.865613 115.114625 286.884917 115.114625 288.142292 
" clip-path="url(#pffe3dfbdbd)" style="fill: none; stroke: #ffffff; stroke-width: 0.48; stroke-linejoin: miter"/>
   </g>
   <g id="patch_27">
    <path d="M 42.467417 276.700656 
Q 41.740619 276.700656 41.285205 277.184024 
Q 40.829791 277.667391 40.829791 278.508334 
Q 40.829791 279.230473 41.279381 279.731312 
Q 41.728971 280.23215 42.467417 280.23215 
Q 43.180238 280.23215 43.639146 279.748783 
Q 44.098054 279.265415 44.098054 278.471062 
Q 44.098054 277.674379 43.641476 277.187518 
Q 43.184897 276.700656 42.467417 276.700656 
M 33.349827 280.173913 
L 33.349827 276.758893 
L 32.74882 276.758893 
L 31.933502 279.134964 
Q 31.814698 279.484387 31.751802 279.682392 
L 31.742484 279.682392 
Q 31.721519 279.579895 31.586409 279.176895 
L 30.778079 276.758893 
L 30.10253 276.758893 
L 30.10253 280.173913 
L 30.531154 280.173913 
L 30.531154 277.26905 
L 30.545131 277.26905 
L 31.523513 280.173913 
L 31.928843 280.173913 
L 32.911884 277.315639 
L 32.921202 277.315639 
L 32.921202 280.173913 
L 33.349827 280.173913 
M 61.981483 280.173913 
L 61.981483 276.758893 
L 61.380477 276.758893 
L 60.565158 279.134964 
Q 60.446355 279.484387 60.383459 279.682392 
L 60.374141 279.682392 
Q 60.353175 279.579895 60.218065 279.176895 
L 59.409735 276.758893 
L 58.734186 276.758893 
L 58.734186 280.173913 
L 59.16281 280.173913 
L 59.16281 277.26905 
L 59.176787 277.26905 
L 60.155169 280.173913 
L 60.560499 280.173913 
L 61.54354 277.315639 
L 61.552858 277.315639 
L 61.552858 280.173913 
L 61.981483 280.173913 
M 58.375446 280.173913 
L 56.982416 276.758893 
L 56.495554 276.758893 
L 55.184056 280.173913 
L 55.6616 280.173913 
L 56.038976 279.134964 
L 57.464618 279.134964 
L 57.865289 280.173913 
L 58.375446 280.173913 
M 40.501335 277.164223 
L 40.501335 276.758893 
L 37.796807 276.758893 
L 37.796807 277.164223 
L 38.917287 277.164223 
L 38.917287 280.173913 
L 39.371536 280.173913 
L 39.371536 277.164223 
L 40.501335 277.164223 
M 44.685083 276.758893 
L 44.685083 280.173913 
L 45.137003 280.173913 
L 45.137003 278.790201 
L 46.010558 278.790201 
Q 46.681449 278.790201 46.985446 278.50484 
Q 47.289443 278.219478 47.289443 277.746593 
Q 47.289443 277.508986 47.19277 277.29118 
Q 47.096097 277.073373 46.907409 276.946417 
Q 46.718721 276.81946 46.498585 276.789177 
Q 46.278449 276.758893 45.973286 276.758893 
L 44.685083 276.758893 
M 51.119111 278.356918 
Q 51.356718 278.233455 51.474357 278.043602 
Q 51.591996 277.85375 51.591996 277.630119 
Q 51.591996 277.299333 51.336917 277.029113 
Q 51.081839 276.758893 50.459868 276.758893 
L 49.178653 276.758893 
L 49.178653 280.173913 
L 50.485492 280.173913 
Q 50.939741 280.173913 51.205302 280.060933 
Q 51.470863 279.947953 51.61529 279.708017 
Q 51.759718 279.46808 51.759718 279.181554 
Q 51.759718 278.895028 51.600149 278.674892 
Q 51.440579 278.454756 51.119111 278.356918 
M 54.934801 280.173913 
L 54.934801 279.768583 
L 52.835939 279.768583 
L 52.835939 278.61316 
L 54.725148 278.61316 
L 54.725148 278.207831 
L 52.835939 278.207831 
L 52.835939 277.164223 
L 54.855599 277.164223 
L 54.855599 276.758893 
L 52.384019 276.758893 
L 52.384019 280.173913 
L 54.934801 280.173913 
M 36.12191 280.173913 
L 36.12191 279.768583 
L 34.442353 279.768583 
Q 34.563486 279.554271 34.933874 279.258427 
Q 35.639707 278.694692 35.876149 278.358082 
Q 36.112592 278.021472 36.112592 277.693015 
Q 36.112592 277.299333 35.831889 277.02096 
Q 35.551187 276.742587 35.048019 276.742587 
Q 34.584452 276.742587 34.282784 276.9965 
Q 33.981116 277.250414 33.941515 277.730287 
L 34.372469 277.779206 
Q 34.374798 277.434443 34.565816 277.260897 
Q 34.756833 277.08735 35.038701 277.08735 
Q 35.318238 277.08735 35.501103 277.256238 
Q 35.683967 277.425125 35.683967 277.683697 
Q 35.683967 277.984201 35.418406 278.281209 
Q 35.152845 278.578218 34.81507 278.848438 
Q 34.262983 279.293369 34.061483 279.589213 
Q 33.859983 279.885057 33.859983 280.173913 
L 36.12191 280.173913 
M 42.462758 279.845456 
Q 41.945613 279.845456 41.621815 279.478563 
Q 41.298017 279.11167 41.298017 278.517652 
Q 41.298017 277.790854 41.628804 277.439102 
Q 41.95959 277.08735 42.472076 277.08735 
Q 42.970585 277.08735 43.300207 277.44609 
Q 43.629828 277.80483 43.629828 278.471062 
Q 43.627499 279.118658 43.304865 279.482057 
Q 42.982232 279.845456 42.462758 279.845456 
M 57.327179 278.776224 
L 56.167097 278.776224 
L 56.549132 277.753582 
Q 56.658618 277.460067 56.723843 277.115304 
L 56.735491 277.115304 
Q 56.800716 277.366888 56.854294 277.517139 
Q 56.907872 277.667391 57.327179 278.776224 
M 45.137003 278.384871 
L 45.137003 277.164223 
L 46.005899 277.164223 
Q 46.306402 277.164223 46.458983 277.202659 
Q 46.611564 277.241096 46.716391 277.398336 
Q 46.821218 277.555576 46.821218 277.76057 
Q 46.821218 278.384871 46.015217 278.384871 
L 45.137003 278.384871 
M 49.630572 279.768583 
L 49.630572 278.594525 
L 50.422596 278.594525 
Q 50.914117 278.594525 51.102805 278.749435 
Q 51.291493 278.904346 51.291493 279.181554 
Q 51.291493 279.456433 51.114452 279.612508 
Q 50.937411 279.768583 50.480833 279.768583 
L 49.630572 279.768583 
M 49.630572 278.189195 
L 49.630572 277.164223 
L 50.31311 277.164223 
Q 50.574012 277.164223 50.74057 277.189847 
Q 50.907128 277.215472 51.027096 277.330781 
Q 51.147065 277.44609 51.147065 277.688356 
Q 51.147065 277.918975 51.028261 278.028461 
Q 50.909458 278.137946 50.754547 278.163571 
Q 50.599637 278.189195 50.371347 278.189195 
L 49.630572 278.189195 
" clip-path="url(#pffe3dfbdbd)" style="fill: #ff0000"/>
   </g>
   <g id="patch_28">
    <path d="M 233.501976 276.758893 
C 233.501976 292.476088 220.760673 305.217391 205.043478 305.217391 
C 189.326284 305.217391 176.58498 292.476088 176.58498 276.758893 
C 176.58498 261.041699 189.326284 248.300395 205.043478 248.300395 
C 220.760673 248.300395 233.501976 261.041699 233.501976 276.758893 
" clip-path="url(#pffe3dfbdbd)" style="fill: none; stroke: #ffffff; stroke-width: 0.48; stroke-linejoin: miter"/>
   </g>
   <g id="patch_29">
    <path d="M 206.864822 276.758893 
C 206.864822 277.764794 206.049379 278.580237 205.043478 278.580237 
C 204.037578 278.580237 203.222134 277.764794 203.222134 276.758893 
C 203.222134 275.752993 204.037578 274.937549 205.043478 274.937549 
C 206.049379 274.937549 206.864822 275.752993 206.864822 276.758893 
" clip-path="url(#pffe3dfbdbd)" style="fill: none; stroke: #ffffff; stroke-width: 0.48; stroke-linejoin: miter"/>
   </g>
   <g id="patch_30">
    <path d="M 230.086957 276.758893 
C 230.086957 290.590024 218.874609 301.802372 205.043478 301.802372 
C 191.212347 301.802372 180 290.590024 180 276.758893 
C 180 262.927762 191.212347 251.715415 205.043478 251.715415 
C 218.874609 251.715415 230.086957 262.927762 230.086957 276.758893 
" clip-path="url(#pffe3dfbdbd)" style="fill: none; stroke: #ff0000; stroke-width: 0.48; stroke-linejoin: miter"/>
   </g>
   <g id="patch_31">
    <path d="M 194.994095 279.035573 
L 194.994095 275.620553 
L 194.393089 275.620553 
L 193.577771 277.996624 
Q 193.458967 278.346047 193.396071 278.544053 
L 193.386753 278.544053 
Q 193.365788 278.441555 193.230678 278.038555 
L 192.422348 275.620553 
L 191.746798 275.620553 
L 191.746798 279.035573 
L 192.175423 279.035573 
L 192.175423 276.13071 
L 192.1894 276.13071 
L 193.167782 279.035573 
L 193.573112 279.035573 
L 194.556153 276.177299 
L 194.565471 276.177299 
L 194.565471 279.035573 
L 194.994095 279.035573 
M 217.606372 275.620553 
L 217.079909 275.620553 
Q 216.143457 277.036878 216.045619 277.227896 
Q 215.889544 276.943699 215.775399 276.768988 
L 215.025306 275.620553 
L 214.475549 275.620553 
L 215.791706 277.588965 
L 215.791706 279.035573 
L 216.245954 279.035573 
L 216.245954 277.588965 
L 217.606372 275.620553 
M 205.581588 277.595954 
L 205.581588 275.620553 
L 205.12734 275.620553 
L 205.12734 277.588965 
Q 205.12734 277.952364 205.066773 278.181818 
Q 205.006207 278.411272 204.805871 278.548712 
Q 204.605536 278.686151 204.207194 278.686151 
Q 203.813512 278.686151 203.624824 278.513769 
Q 203.436136 278.341388 203.391876 278.118922 
Q 203.347616 277.896457 203.347616 277.588965 
L 203.347616 275.620553 
L 202.895696 275.620553 
L 202.895696 277.595954 
Q 202.895696 277.891798 202.931803 278.131734 
Q 202.96791 278.371671 203.098361 278.592972 
Q 203.228812 278.814272 203.50835 278.954041 
Q 203.787888 279.09381 204.244466 279.09381 
Q 204.712692 279.09381 204.993394 278.93657 
Q 205.274097 278.77933 205.398724 278.542888 
Q 205.523351 278.306445 205.55247 278.082815 
Q 205.581588 277.859185 205.581588 277.595954 
M 199.704307 275.620553 
L 199.704307 279.035573 
L 200.156226 279.035573 
L 200.156226 277.651861 
L 201.029782 277.651861 
Q 201.700672 277.651861 202.00467 277.3665 
Q 202.308667 277.081138 202.308667 276.608253 
Q 202.308667 276.370646 202.211994 276.15284 
Q 202.11532 275.935033 201.926632 275.808077 
Q 201.737944 275.68112 201.517808 275.650837 
Q 201.297672 275.620553 200.99251 275.620553 
L 199.704307 275.620553 
M 214.19834 279.035573 
L 214.19834 278.630243 
L 212.099477 278.630243 
L 212.099477 277.474821 
L 213.988687 277.474821 
L 213.988687 277.069491 
L 212.099477 277.069491 
L 212.099477 276.025883 
L 214.119138 276.025883 
L 214.119138 275.620553 
L 211.647558 275.620553 
L 211.647558 279.035573 
L 214.19834 279.035573 
M 197.766178 279.035573 
L 197.766178 278.630243 
L 196.086622 278.630243 
Q 196.207755 278.415931 196.578143 278.120087 
Q 197.283976 277.556352 197.520418 277.219742 
Q 197.75686 276.883132 197.75686 276.554675 
Q 197.75686 276.160993 197.476158 275.88262 
Q 197.195455 275.604247 196.692287 275.604247 
Q 196.228721 275.604247 195.927053 275.85816 
Q 195.625385 276.112074 195.585784 276.591947 
L 196.016738 276.640866 
Q 196.019067 276.296103 196.210085 276.122557 
Q 196.401102 275.94901 196.682969 275.94901 
Q 196.962507 275.94901 197.145372 276.117898 
Q 197.328236 276.286785 197.328236 276.545357 
Q 197.328236 276.845861 197.062675 277.142869 
Q 196.797114 277.439878 196.459339 277.710098 
Q 195.907252 278.155029 195.705752 278.450873 
Q 195.504252 278.746717 195.504252 279.035573 
L 197.766178 279.035573 
M 211.111777 279.035573 
L 211.111777 278.630243 
L 209.427562 278.630243 
L 209.427562 275.620553 
L 208.975643 275.620553 
L 208.975643 279.035573 
L 211.111777 279.035573 
M 208.458498 279.035573 
L 208.458498 278.630243 
L 206.774283 278.630243 
L 206.774283 275.620553 
L 206.322364 275.620553 
L 206.322364 279.035573 
L 208.458498 279.035573 
M 200.156226 277.246531 
L 200.156226 276.025883 
L 201.025123 276.025883 
Q 201.325626 276.025883 201.478207 276.06432 
Q 201.630788 276.102756 201.735615 276.259996 
Q 201.840441 276.417236 201.840441 276.62223 
Q 201.840441 277.246531 201.034441 277.246531 
L 200.156226 277.246531 
" clip-path="url(#pffe3dfbdbd)" style="fill: #ff0000"/>
   </g>
   <g id="patch_32">
    <path d="M 288.142292 276.758893 
C 288.142292 289.332649 277.94925 299.525692 265.375494 299.525692 
C 252.801739 299.525692 242.608696 289.332649 242.608696 276.758893 
C 242.608696 264.185138 252.801739 253.992095 265.375494 253.992095 
C 277.94925 253.992095 288.142292 264.185138 288.142292 276.758893 
" clip-path="url(#pffe3dfbdbd)" style="fill: none; stroke: #ffffff; stroke-width: 0.48; stroke-linejoin: miter"/>
   </g>
   <g id="patch_33">
    <path d="M 267.196838 276.758893 
C 267.196838 277.764794 266.381395 278.580237 265.375494 278.580237 
C 264.369594 278.580237 263.55415 277.764794 263.55415 276.758893 
C 263.55415 275.752993 264.369594 274.937549 265.375494 274.937549 
C 266.381395 274.937549 267.196838 275.752993 267.196838 276.758893 
" clip-path="url(#pffe3dfbdbd)" style="fill: none; stroke: #ffffff; stroke-width: 0.48; stroke-linejoin: miter"/>
   </g>
   <g id="patch_34">
    <path d="M 275.620553 278.409486 
L 282.450593 278.409486 
L 282.450593 275.1083 
L 275.620553 275.1083 
L 275.620553 278.409486 
" clip-path="url(#pffe3dfbdbd)" style="fill: none; stroke: #ffffff; stroke-width: 0.48; stroke-linejoin: miter"/>
   </g>
   <g id="patch_35">
    <path d="M 255.326111 279.035573 
L 255.326111 275.620553 
L 254.725105 275.620553 
L 253.909787 277.996624 
Q 253.790983 278.346047 253.728087 278.544053 
L 253.718769 278.544053 
Q 253.697804 278.441555 253.562694 278.038555 
L 252.754364 275.620553 
L 252.078814 275.620553 
L 252.078814 279.035573 
L 252.507439 279.035573 
L 252.507439 276.13071 
L 252.521416 276.13071 
L 253.499798 279.035573 
L 253.905128 279.035573 
L 254.888169 276.177299 
L 254.897487 276.177299 
L 254.897487 279.035573 
L 255.326111 279.035573 
M 273.61487 279.035573 
L 273.61487 275.620553 
L 273.013864 275.620553 
L 272.198545 277.996624 
Q 272.079742 278.346047 272.016846 278.544053 
L 272.007528 278.544053 
Q 271.986562 278.441555 271.851452 278.038555 
L 271.043122 275.620553 
L 270.367573 275.620553 
L 270.367573 279.035573 
L 270.796197 279.035573 
L 270.796197 276.13071 
L 270.810174 276.13071 
L 271.788556 279.035573 
L 272.193886 279.035573 
L 273.176927 276.177299 
L 273.186245 276.177299 
L 273.186245 279.035573 
L 273.61487 279.035573 
M 266.505293 279.035573 
L 265.908945 278.10611 
Q 265.608442 277.635555 265.266008 277.484138 
L 265.266008 277.474821 
Q 265.734234 277.411925 265.97883 277.176647 
Q 266.223425 276.941369 266.223425 276.554675 
Q 266.223425 276.340363 266.138399 276.147016 
Q 266.053373 275.953669 265.894968 275.826712 
Q 265.736564 275.699756 265.52691 275.660155 
Q 265.317257 275.620553 265.007436 275.620553 
L 263.495603 275.620553 
L 263.495603 279.035573 
L 263.947522 279.035573 
L 263.947522 277.528399 
L 264.469326 277.528399 
Q 264.667332 277.528399 264.7873 277.563341 
Q 264.907268 277.598283 265.043543 277.729899 
Q 265.179818 277.861514 265.30328 278.045544 
Q 265.426743 278.229573 265.936899 279.035573 
L 266.505293 279.035573 
M 260.0503 275.620553 
L 260.0503 279.035573 
L 261.280266 279.035573 
Q 262.156151 279.035573 262.514891 278.549876 
Q 262.873631 278.064179 262.873631 277.309427 
Q 262.873631 276.913416 262.786275 276.635043 
Q 262.69892 276.356669 262.546339 276.142357 
Q 262.393758 275.928045 262.189928 275.805747 
Q 261.986099 275.683449 261.762468 275.652001 
Q 261.538838 275.620553 261.229017 275.620553 
L 260.0503 275.620553 
M 269.622139 277.595954 
L 269.622139 275.620553 
L 269.16789 275.620553 
L 269.16789 277.588965 
Q 269.16789 277.952364 269.107323 278.181818 
Q 269.046757 278.411272 268.846421 278.548712 
Q 268.646086 278.686151 268.247745 278.686151 
Q 267.854062 278.686151 267.665374 278.513769 
Q 267.476686 278.341388 267.432426 278.118922 
Q 267.388166 277.896457 267.388166 277.588965 
L 267.388166 275.620553 
L 266.936247 275.620553 
L 266.936247 277.595954 
Q 266.936247 277.891798 266.972354 278.131734 
Q 267.008461 278.371671 267.138912 278.592972 
Q 267.269362 278.814272 267.5489 278.954041 
Q 267.828438 279.09381 268.285016 279.09381 
Q 268.753242 279.09381 269.033945 278.93657 
Q 269.314647 278.77933 269.439274 278.542888 
Q 269.563902 278.306445 269.59302 278.082815 
Q 269.622139 277.859185 269.622139 277.595954 
M 258.098194 279.035573 
L 258.098194 278.630243 
L 256.418638 278.630243 
Q 256.539771 278.415931 256.910159 278.120087 
Q 257.615991 277.556352 257.852434 277.219742 
Q 258.088876 276.883132 258.088876 276.554675 
Q 258.088876 276.160993 257.808174 275.88262 
Q 257.527471 275.604247 257.024303 275.604247 
Q 256.560736 275.604247 256.259069 275.85816 
Q 255.957401 276.112074 255.9178 276.591947 
L 256.348754 276.640866 
Q 256.351083 276.296103 256.542101 276.122557 
Q 256.733118 275.94901 257.014985 275.94901 
Q 257.294523 275.94901 257.477387 276.117898 
Q 257.660252 276.286785 257.660252 276.545357 
Q 257.660252 276.845861 257.394691 277.142869 
Q 257.12913 277.439878 256.791355 277.710098 
Q 256.239268 278.155029 256.037768 278.450873 
Q 255.836268 278.746717 255.836268 279.035573 
L 258.098194 279.035573 
M 263.947522 277.123069 
L 263.947522 275.9956 
L 265.026072 275.9956 
Q 265.417425 275.9956 265.587477 276.158664 
Q 265.757529 276.321727 265.757529 276.554675 
Q 265.757529 276.734045 265.655032 276.878473 
Q 265.552535 277.022901 265.381318 277.072985 
Q 265.210101 277.123069 264.916586 277.123069 
L 263.947522 277.123069 
M 260.502219 278.630243 
L 260.502219 276.025883 
L 261.219699 276.025883 
Q 261.454977 276.025883 261.605228 276.044519 
Q 261.75548 276.063155 261.913885 276.148181 
Q 262.072289 276.233207 262.194587 276.416071 
Q 262.316885 276.598936 262.36231 276.821401 
Q 262.407735 277.043867 262.407735 277.300109 
Q 262.407735 277.763676 262.288931 278.045544 
Q 262.170128 278.327411 261.989593 278.450873 
Q 261.809058 278.574336 261.633182 278.60229 
Q 261.457306 278.630243 261.233676 278.630243 
L 260.502219 278.630243 
" clip-path="url(#pffe3dfbdbd)" style="fill: #ff0000"/>
   </g>
   <g id="patch_36">
    <path d="M 24.047431 337.090909 
L 115.114625 337.090909 
L 115.114625 320.01581 
L 24.047431 320.01581 
L 24.047431 337.090909 
" clip-path="url(#pffe3dfbdbd)" style="fill: none; stroke: #ffffff; stroke-width: 0.48; stroke-linejoin: miter"/>
   </g>
   <g id="patch_37">
    <path d="M 37.252174 328.55336 
C 37.252174 329.55926 36.43673 330.374704 35.43083 330.374704 
C 34.42493 330.374704 33.609486 329.55926 33.609486 328.55336 
C 33.609486 327.547459 34.42493 326.732016 35.43083 326.732016 
C 36.43673 326.732016 37.252174 327.547459 37.252174 328.55336 
" clip-path="url(#pffe3dfbdbd)" style="fill: none; stroke: #ffffff; stroke-width: 0.48; stroke-linejoin: miter"/>
   </g>
   <g id="patch_38">
    <path d="M 107.146245 328.55336 
C 107.146245 330.439423 105.617289 331.968379 103.731225 331.968379 
C 101.845162 331.968379 100.316206 330.439423 100.316206 328.55336 
C 100.316206 326.667296 101.845162 325.13834 103.731225 325.13834 
C 105.617289 325.13834 107.146245 326.667296 107.146245 328.55336 
" clip-path="url(#pffe3dfbdbd)" style="fill: none; stroke: #ffffff; stroke-width: 0.48; stroke-linejoin: miter"/>
   </g>
   <g id="patch_39">
    <path d="M 50.424925 334.814229 
L 50.424925 331.399209 
L 49.823919 331.399209 
L 49.008601 333.775281 
Q 48.889797 334.124703 48.826901 334.322709 
L 48.817583 334.322709 
Q 48.796618 334.220211 48.661508 333.817211 
L 47.853178 331.399209 
L 47.177628 331.399209 
L 47.177628 334.814229 
L 47.606253 334.814229 
L 47.606253 331.909366 
L 47.62023 331.909366 
L 48.598612 334.814229 
L 49.003942 334.814229 
L 49.986983 331.955956 
L 49.996301 331.955956 
L 49.996301 334.814229 
L 50.424925 334.814229 
M 64.844415 334.814229 
L 63.451386 331.399209 
L 62.964524 331.399209 
L 61.653026 334.814229 
L 62.13057 334.814229 
L 62.507946 333.775281 
L 63.933588 333.775281 
L 64.334259 334.814229 
L 64.844415 334.814229 
M 58.026023 333.73102 
L 57.576433 333.616876 
Q 57.476266 334.052489 57.225846 334.269131 
Q 56.975427 334.485772 56.574756 334.485772 
Q 56.085565 334.485772 55.781568 334.13868 
Q 55.477571 333.791587 55.477571 333.078766 
Q 55.477571 332.461453 55.766426 332.09456 
Q 56.055282 331.727666 56.614358 331.727666 
Q 56.956791 331.727666 57.185081 331.907036 
Q 57.41337 332.086407 57.525185 332.442817 
L 57.967786 332.33799 
Q 57.825688 331.848799 57.471607 331.594886 
Q 57.117526 331.340972 56.619017 331.340972 
Q 55.910854 331.340972 55.4601 331.803375 
Q 55.009345 332.265777 55.009345 333.083425 
Q 55.009345 333.82187 55.392545 334.347168 
Q 55.775744 334.872466 56.614358 334.872466 
Q 57.133832 334.872466 57.505384 334.589434 
Q 57.876937 334.306402 58.026023 333.73102 
M 61.604107 334.814229 
L 61.00776 333.884766 
Q 60.707256 333.414211 60.364823 333.262795 
L 60.364823 333.253477 
Q 60.833048 333.190581 61.077644 332.955303 
Q 61.32224 332.720025 61.32224 332.333332 
Q 61.32224 332.119019 61.237213 331.925672 
Q 61.152187 331.732325 60.993783 331.605369 
Q 60.835378 331.478412 60.625725 331.438811 
Q 60.416071 331.399209 60.10625 331.399209 
L 58.594417 331.399209 
L 58.594417 334.814229 
L 59.046336 334.814229 
L 59.046336 333.307055 
L 59.56814 333.307055 
Q 59.766146 333.307055 59.886114 333.341997 
Q 60.006083 333.376939 60.142357 333.508555 
Q 60.278632 333.640171 60.402094 333.8242 
Q 60.525557 334.008229 61.035713 334.814229 
L 61.604107 334.814229 
M 71.457813 334.814229 
L 69.964616 332.782921 
L 71.394917 331.399209 
L 70.784593 331.399209 
L 69.086401 333.092742 
L 69.086401 331.399209 
L 68.634482 331.399209 
L 68.634482 334.814229 
L 69.086401 334.814229 
L 69.086401 333.630853 
L 69.650136 333.088084 
L 70.861466 334.814229 
L 71.457813 334.814229 
M 67.903025 334.814229 
L 67.903025 331.399209 
L 67.47207 331.399209 
L 67.47207 334.080443 
L 67.462753 334.080443 
L 65.67837 331.399209 
L 65.217132 331.399209 
L 65.217132 334.814229 
L 65.645757 334.814229 
L 65.645757 332.132996 
L 65.655075 332.132996 
L 67.439458 334.814229 
L 67.903025 334.814229 
M 53.197008 334.814229 
L 53.197008 334.408899 
L 51.517452 334.408899 
Q 51.638585 334.194587 52.008973 333.898743 
Q 52.714806 333.335009 52.951248 332.998398 
Q 53.18769 332.661788 53.18769 332.333332 
Q 53.18769 331.939649 52.906988 331.661276 
Q 52.626285 331.382903 52.123117 331.382903 
Q 51.659551 331.382903 51.357883 331.636817 
Q 51.056215 331.89073 51.016614 332.370603 
L 51.447568 332.419522 
Q 51.449897 332.074759 51.640915 331.901213 
Q 51.831932 331.727666 52.113799 331.727666 
Q 52.393337 331.727666 52.576202 331.896554 
Q 52.759066 332.065441 52.759066 332.324014 
Q 52.759066 332.624517 52.493505 332.921526 
Q 52.227944 333.218534 51.890169 333.488754 
Q 51.338082 333.933685 51.136582 334.229529 
Q 50.935082 334.525374 50.935082 334.814229 
L 53.197008 334.814229 
M 63.796149 333.41654 
L 62.636067 333.41654 
L 63.018102 332.393898 
Q 63.127588 332.100383 63.192813 331.75562 
L 63.204461 331.75562 
Q 63.269686 332.007204 63.323264 332.157456 
Q 63.376842 332.307707 63.796149 333.41654 
M 59.046336 332.901725 
L 59.046336 331.774256 
L 60.124886 331.774256 
Q 60.516239 331.774256 60.686291 331.93732 
Q 60.856343 332.100383 60.856343 332.333332 
Q 60.856343 332.512702 60.753846 332.657129 
Q 60.651349 332.801557 60.480132 332.851641 
Q 60.308915 332.901725 60.0154 332.901725 
L 59.046336 332.901725 
" clip-path="url(#pffe3dfbdbd)" style="fill: #ff0000"/>
   </g>
   <g id="patch_40">
    <path d="M 124.221344 337.090909 
L 181.13834 337.090909 
L 181.13834 280.173913 
L 124.221344 280.173913 
L 124.221344 337.090909 
" clip-path="url(#pffe3dfbdbd)" style="fill: none; stroke: #ffffff; stroke-width: 0.48; stroke-linejoin: miter"/>
   </g>
   <g id="patch_41">
    <path d="M 154.956522 285.865613 
C 154.956522 287.122988 153.937217 288.142292 152.679842 288.142292 
C 151.422466 288.142292 150.403162 287.122988 150.403162 285.865613 
C 150.403162 284.608237 151.422466 283.588933 152.679842 283.588933 
C 153.937217 283.588933 154.956522 284.608237 154.956522 285.865613 
" clip-path="url(#pffe3dfbdbd)" style="fill: none; stroke: #ffffff; stroke-width: 0.48; stroke-linejoin: miter"/>
   </g>
   <g id="patch_42">
    <path d="M 143.117787 320.01581 
C 143.117787 321.021711 142.302343 321.837154 141.296443 321.837154 
C 140.290542 321.837154 139.475099 321.021711 139.475099 320.01581 
C 139.475099 319.00991 140.290542 318.194466 141.296443 318.194466 
C 142.302343 318.194466 143.117787 319.00991 143.117787 320.01581 
" clip-path="url(#pffe3dfbdbd)" style="fill: none; stroke: #ffffff; stroke-width: 0.48; stroke-linejoin: miter"/>
   </g>
   <g id="patch_43">
    <path d="M 165.884585 320.01581 
C 165.884585 321.021711 165.069142 321.837154 164.063241 321.837154 
C 163.057341 321.837154 162.241897 321.021711 162.241897 320.01581 
C 162.241897 319.00991 163.057341 318.194466 164.063241 318.194466 
C 165.069142 318.194466 165.884585 319.00991 165.884585 320.01581 
" clip-path="url(#pffe3dfbdbd)" style="fill: none; stroke: #ffffff; stroke-width: 0.48; stroke-linejoin: miter"/>
   </g>
   <g id="patch_44">
    <path d="M 146.883316 299.467455 
Q 146.156517 299.467455 145.701104 299.950822 
Q 145.24569 300.434189 145.24569 301.275132 
Q 145.24569 301.997271 145.69528 302.49811 
Q 146.14487 302.998948 146.883316 302.998948 
Q 147.596137 302.998948 148.055045 302.515581 
Q 148.513953 302.032214 148.513953 301.237861 
Q 148.513953 300.441178 148.057374 299.954316 
Q 147.600796 299.467455 146.883316 299.467455 
M 143.172452 299.467455 
Q 142.445654 299.467455 141.99024 299.950822 
Q 141.534826 300.434189 141.534826 301.275132 
Q 141.534826 301.997271 141.984416 302.49811 
Q 142.434006 302.998948 143.172452 302.998948 
Q 143.885273 302.998948 144.344181 302.515581 
Q 144.803089 302.032214 144.803089 301.237861 
Q 144.803089 300.441178 144.34651 299.954316 
Q 143.889932 299.467455 143.172452 299.467455 
M 133.52374 302.940711 
L 133.52374 299.525692 
L 132.922733 299.525692 
L 132.107415 301.901763 
Q 131.988611 302.251185 131.925715 302.449191 
L 131.916398 302.449191 
Q 131.895432 302.346694 131.760322 301.943693 
L 130.951992 299.525692 
L 130.276443 299.525692 
L 130.276443 302.940711 
L 130.705067 302.940711 
L 130.705067 300.035848 
L 130.719044 300.035848 
L 131.697426 302.940711 
L 132.102756 302.940711 
L 133.085797 300.082438 
L 133.095115 300.082438 
L 133.095115 302.940711 
L 133.52374 302.940711 
M 151.905678 302.940711 
L 150.41248 300.909404 
L 151.842782 299.525692 
L 151.232457 299.525692 
L 149.534265 301.219225 
L 149.534265 299.525692 
L 149.082346 299.525692 
L 149.082346 302.940711 
L 149.534265 302.940711 
L 149.534265 301.757335 
L 150.098 301.214566 
L 151.30933 302.940711 
L 151.905678 302.940711 
M 140.929161 302.940711 
L 140.929161 299.525692 
L 140.474912 299.525692 
L 140.474912 300.92804 
L 138.699847 300.92804 
L 138.699847 299.525692 
L 138.247928 299.525692 
L 138.247928 302.940711 
L 138.699847 302.940711 
L 138.699847 301.333369 
L 140.474912 301.333369 
L 140.474912 302.940711 
L 140.929161 302.940711 
M 136.295823 302.940711 
L 136.295823 302.535382 
L 134.616266 302.535382 
Q 134.7374 302.321069 135.107787 302.025225 
Q 135.81362 301.461491 136.050062 301.124881 
Q 136.286505 300.788271 136.286505 300.459814 
Q 136.286505 300.066131 136.005802 299.787758 
Q 135.7251 299.509385 135.221932 299.509385 
Q 134.758365 299.509385 134.456697 299.763299 
Q 134.155029 300.017212 134.115428 300.497085 
L 134.546382 300.546005 
Q 134.548712 300.201241 134.739729 300.027695 
Q 134.930746 299.854149 135.212614 299.854149 
Q 135.492151 299.854149 135.675016 300.023036 
Q 135.85788 300.191923 135.85788 300.450496 
Q 135.85788 300.750999 135.592319 301.048008 
Q 135.326758 301.345017 134.988983 301.615237 
Q 134.436896 302.060167 134.235396 302.356012 
Q 134.033896 302.651856 134.033896 302.940711 
L 136.295823 302.940711 
M 146.878657 302.612255 
Q 146.361512 302.612255 146.037714 302.245361 
Q 145.713916 301.878468 145.713916 301.28445 
Q 145.713916 300.557652 146.044702 300.2059 
Q 146.375489 299.854149 146.887975 299.854149 
Q 147.386484 299.854149 147.716105 300.212889 
Q 148.045727 300.571629 148.045727 301.237861 
Q 148.043397 301.885456 147.720764 302.248855 
Q 147.398131 302.612255 146.878657 302.612255 
M 143.167793 302.612255 
Q 142.650648 302.612255 142.32685 302.245361 
Q 142.003052 301.878468 142.003052 301.28445 
Q 142.003052 300.557652 142.333838 300.2059 
Q 142.664625 299.854149 143.177111 299.854149 
Q 143.67562 299.854149 144.005241 300.212889 
Q 144.334863 300.571629 144.334863 301.237861 
Q 144.332533 301.885456 144.0099 302.248855 
Q 143.687267 302.612255 143.167793 302.612255 
" clip-path="url(#pffe3dfbdbd)" style="fill: #ff0000"/>
   </g>
  </g>
 </g>
 <defs>
  <clipPath id="pffe3dfbdbd">
   <rect x="7.2" y="7.2" width="370.643478" height="345.6"/>
  </clipPath>
 </defs>
</svg>
