<?xml version="1.0" encoding="utf-8" standalone="no"?>
<!DOCTYPE svg PUBLIC "-//W3C//DTD SVG 1.1//EN"
  "http://www.w3.org/Graphics/SVG/1.1/DTD/svg11.dtd">
<svg xmlns:xlink="http://www.w3.org/1999/xlink" width="427.324675pt" height="360pt" viewBox="0 0 427.324675 360" xmlns="http://www.w3.org/2000/svg" version="1.1">
 <metadata>
  <rdf:RDF xmlns:dc="http://purl.org/dc/elements/1.1/" xmlns:cc="http://creativecommons.org/ns#" xmlns:rdf="http://www.w3.org/1999/02/22-rdf-syntax-ns#">
   <cc:Work>
    <dc:type rdf:resource="http://purl.org/dc/dcmitype/StillImage"/>
    <dc:date>2026-03-26T11:16:33.456311</dc:date>
    <dc:format>image/svg+xml</dc:format>
    <dc:creator>
     <cc:Agent>
      <dc:title>Matplotlib v3.10.8, https://matplotlib.org/</dc:title>
     </cc:Agent>
    </dc:creator>
   </cc:Work>
  </rdf:RDF>
 </metadata>
 <defs>
  <style type="text/css">*{stroke-linejoin: round; stroke-linecap: butt}</style>
 </defs>
 <g id="figure_1">
  <g id="patch_1">
   <path d="M -0 360 
L 427.324675 360 
L 427.324675 0 
L -0 0 
z
" style="fill: #1a1a2e"/>
  </g>
  <g id="axes_1">
   <g id="patch_2">
    <path d="M 7.2 352.8 
L 420.124675 352.8 
L 420.124675 7.2 
L 7.2 7.2 
z
" style="fill: #1a1a2e"/>
   </g>
   <g id="patch_3">
    <path d="M 25.969303 186.120425 
L 161.978749 186.120425 
L 161.978749 77.312869 
L 25.969303 77.312869 
L 25.969303 186.120425 
" clip-path="url(#pcc582dec13)" style="fill: none; stroke: #ffffff; stroke-width: 0.48; stroke-linejoin: miter"/>
   </g>
   <g id="patch_4">
    <path d="M 37.083854 88.193625 
L 37.083854 84.113341 
L 36.365769 84.113341 
L 35.391622 86.952283 
Q 35.249675 87.369775 35.174527 87.606353 
L 35.163393 87.606353 
Q 35.138344 87.483889 34.976914 87.002382 
L 34.011117 84.113341 
L 33.203967 84.113341 
L 33.203967 88.193625 
L 33.71609 88.193625 
L 33.71609 84.722879 
L 33.732789 84.722879 
L 34.901765 88.193625 
L 35.386056 88.193625 
L 36.560598 84.778544 
L 36.571731 84.778544 
L 36.571731 88.193625 
L 37.083854 88.193625 
M 49.88136 88.193625 
L 48.21696 84.113341 
L 47.635255 84.113341 
L 46.068271 88.193625 
L 46.638842 88.193625 
L 47.089733 86.952283 
L 48.793099 86.952283 
L 49.271822 88.193625 
L 49.88136 88.193625 
M 52.737001 85.31015 
L 53.254691 85.268401 
Q 53.229641 84.68113 52.816325 84.362444 
Q 52.403008 84.043759 51.723889 84.043759 
Q 51.061469 84.043759 50.677377 84.363836 
Q 50.293285 84.683913 50.293285 85.17377 
Q 50.293285 85.605177 50.596662 85.875155 
Q 50.900039 86.145133 51.5889 86.294038 
Q 52.277761 86.442944 52.570005 86.596024 
Q 52.862249 86.749104 52.862249 87.083097 
Q 52.862249 87.403174 52.582529 87.589654 
Q 52.30281 87.776133 51.849136 87.776133 
Q 51.364846 87.776133 51.022503 87.552079 
Q 50.68016 87.328026 50.643977 86.838169 
L 50.131855 86.882701 
Q 50.156904 87.495022 50.584137 87.879114 
Q 51.01137 88.263206 51.871402 88.263206 
Q 52.544955 88.263206 52.963838 87.915297 
Q 53.382721 87.567387 53.382721 87.041348 
Q 53.382721 86.62664 53.154493 86.38032 
Q 52.926264 86.134 52.606187 86.017102 
Q 52.286111 85.900205 51.779554 85.788874 
Q 51.208983 85.660843 51.007195 85.531421 
Q 50.805407 85.401998 50.805407 85.137587 
Q 50.805407 84.839776 51.067035 84.683913 
Q 51.328663 84.528049 51.746155 84.528049 
Q 52.208179 84.528049 52.45589 84.72427 
Q 52.703602 84.920491 52.737001 85.31015 
M 45.013409 86.022669 
Q 45.297303 85.875155 45.437859 85.648318 
Q 45.578414 85.421481 45.578414 85.154287 
Q 45.578414 84.759061 45.273645 84.436201 
Q 44.968877 84.113341 44.225742 84.113341 
L 42.69494 84.113341 
L 42.69494 88.193625 
L 44.256358 88.193625 
Q 44.799097 88.193625 45.11639 88.058636 
Q 45.433684 87.923647 45.606247 87.636969 
Q 45.77881 87.350292 45.77881 87.007949 
Q 45.77881 86.665606 45.588156 86.402586 
Q 45.397501 86.139566 45.013409 86.022669 
M 57.176327 88.193625 
L 57.176327 87.709334 
L 54.668595 87.709334 
L 54.668595 86.328829 
L 56.925832 86.328829 
L 56.925832 85.844539 
L 54.668595 85.844539 
L 54.668595 84.597631 
L 57.081696 84.597631 
L 57.081696 84.113341 
L 54.12864 84.113341 
L 54.12864 88.193625 
L 57.176327 88.193625 
M 39.677868 85.986486 
L 39.677868 85.975353 
Q 40.237307 85.724858 40.237307 85.154287 
Q 40.237307 84.708962 39.896355 84.40141 
Q 39.555404 84.093858 39.046064 84.093858 
Q 38.58404 84.093858 38.251439 84.35827 
Q 37.918837 84.622681 37.821423 85.154287 
L 38.322412 85.246135 
Q 38.372511 84.889875 38.563166 84.697829 
Q 38.75382 84.505783 39.057197 84.505783 
Q 39.321609 84.505783 39.523396 84.67278 
Q 39.725184 84.839776 39.725184 85.143154 
Q 39.725184 85.351899 39.630552 85.492455 
Q 39.535921 85.63301 39.39119 85.708159 
Q 39.24646 85.783307 39.129562 85.80279 
Q 39.012665 85.822273 38.812269 85.822273 
L 38.75382 86.262031 
Q 38.962566 86.209148 39.107296 86.209148 
Q 39.463556 86.209148 39.684826 86.434594 
Q 39.906097 86.660039 39.906097 87.002382 
Q 39.906097 87.358642 39.66256 87.604962 
Q 39.419023 87.851282 39.06833 87.851282 
Q 38.742687 87.851282 38.543683 87.650886 
Q 38.344679 87.45049 38.26953 87.046915 
L 37.76854 87.116497 
Q 37.826989 87.634186 38.177682 87.948696 
Q 38.528375 88.263206 39.06833 88.263206 
Q 39.633336 88.263206 40.038302 87.905555 
Q 40.443269 87.547904 40.443269 86.991249 
Q 40.443269 86.646123 40.249831 86.352487 
Q 40.056394 86.058851 39.677868 85.986486 
M 48.628885 86.523659 
L 47.242813 86.523659 
L 47.699271 85.3018 
Q 47.830085 84.951107 47.908017 84.539183 
L 47.921933 84.539183 
Q 47.999865 84.839776 48.06388 85.019298 
Q 48.127895 85.198819 48.628885 86.523659 
M 43.234895 87.709334 
L 43.234895 86.306563 
L 44.181209 86.306563 
Q 44.768481 86.306563 44.993926 86.491651 
Q 45.219371 86.676739 45.219371 87.007949 
Q 45.219371 87.336375 45.007842 87.522855 
Q 44.796313 87.709334 44.250791 87.709334 
L 43.234895 87.709334 
M 43.234895 85.822273 
L 43.234895 84.597631 
L 44.050395 84.597631 
Q 44.362122 84.597631 44.561127 84.628247 
Q 44.760131 84.658863 44.90347 84.796636 
Q 45.046808 84.934408 45.046808 85.223869 
Q 45.046808 85.499413 44.904861 85.630227 
Q 44.762914 85.761041 44.577826 85.791657 
Q 44.392738 85.822273 44.119977 85.822273 
L 43.234895 85.822273 
" clip-path="url(#pcc582dec13)" style="fill: #ff0000"/>
   </g>
   <g id="patch_5">
    <path d="M 51.199055 138.517119 
L 55.143329 138.517119 
L 55.143329 124.916175 
L 51.199055 124.916175 
L 51.199055 138.517119 
" clip-path="url(#pcc582dec13)" style="fill: none; stroke: #ffffff; stroke-width: 0.48; stroke-linejoin: miter"/>
   </g>
   <g id="patch_6">
    <path d="M 132.804723 138.517119 
L 136.748996 138.517119 
L 136.748996 124.916175 
L 132.804723 124.916175 
L 132.804723 138.517119 
" clip-path="url(#pcc582dec13)" style="fill: none; stroke: #ffffff; stroke-width: 0.48; stroke-linejoin: miter"/>
   </g>
   <g id="patch_7">
    <path d="M 172.859504 22.909091 
L 281.66706 22.909091 
L 281.66706 186.120425 
L 234.063754 186.120425 
L 234.063754 190.200708 
L 220.46281 190.200708 
L 220.46281 186.120425 
L 172.859504 186.120425 
L 172.859504 22.909091 
" clip-path="url(#pcc582dec13)" style="fill: none; stroke: #ffffff; stroke-width: 0.48; stroke-linejoin: miter"/>
   </g>
   <g id="patch_8">
    <path d="M 229.439433 131.716647 
C 229.439433 132.918502 228.465137 133.892798 227.263282 133.892798 
C 226.061427 133.892798 225.087131 132.918502 225.087131 131.716647 
C 225.087131 130.514792 226.061427 129.540496 227.263282 129.540496 
C 228.465137 129.540496 229.439433 130.514792 229.439433 131.716647 
" clip-path="url(#pcc582dec13)" style="fill: none; stroke: #ffffff; stroke-width: 0.48; stroke-linejoin: miter"/>
   </g>
   <g id="patch_9">
    <path d="M 225.291145 70.512397 
L 229.235419 70.512397 
L 229.235419 29.709563 
L 225.291145 29.709563 
L 225.291145 70.512397 
" clip-path="url(#pcc582dec13)" style="fill: none; stroke: #ffffff; stroke-width: 0.48; stroke-linejoin: miter"/>
   </g>
   <g id="patch_10">
    <path d="M 204.876462 36.510035 
L 204.876462 32.429752 
L 204.158376 32.429752 
L 203.184229 35.268694 
Q 203.042282 35.686186 202.967134 35.922764 
L 202.956001 35.922764 
Q 202.930951 35.8003 202.769521 35.318793 
L 201.803724 32.429752 
L 200.996574 32.429752 
L 200.996574 36.510035 
L 201.508697 36.510035 
L 201.508697 33.03929 
L 201.525397 33.03929 
L 202.694373 36.510035 
L 203.178663 36.510035 
L 204.353206 33.094955 
L 204.364339 33.094955 
L 204.364339 36.510035 
L 204.876462 36.510035 
M 183.974055 36.510035 
L 183.974055 32.429752 
L 183.25597 32.429752 
L 182.281823 35.268694 
Q 182.139876 35.686186 182.064727 35.922764 
L 182.053594 35.922764 
Q 182.028545 35.8003 181.867115 35.318793 
L 180.901318 32.429752 
L 180.094168 32.429752 
L 180.094168 36.510035 
L 180.60629 36.510035 
L 180.60629 33.03929 
L 180.62299 33.03929 
L 181.791966 36.510035 
L 182.276256 36.510035 
L 183.450799 33.094955 
L 183.461932 33.094955 
L 183.461932 36.510035 
L 183.974055 36.510035 
M 200.567949 36.510035 
L 198.90355 32.429752 
L 198.321845 32.429752 
L 196.754861 36.510035 
L 197.325432 36.510035 
L 197.776323 35.268694 
L 199.479688 35.268694 
L 199.958412 36.510035 
L 200.567949 36.510035 
M 196.696412 36.510035 
L 195.983893 35.399508 
Q 195.62485 34.837286 195.215709 34.656373 
L 195.215709 34.64524 
Q 195.775147 34.570092 196.067391 34.288981 
Q 196.359635 34.00787 196.359635 33.545846 
Q 196.359635 33.289785 196.258046 33.058773 
Q 196.156456 32.827761 195.967193 32.676072 
Q 195.777931 32.524383 195.527436 32.477068 
Q 195.276941 32.429752 194.906765 32.429752 
L 193.100419 32.429752 
L 193.100419 36.510035 
L 193.640374 36.510035 
L 193.640374 34.709256 
L 194.263828 34.709256 
Q 194.500407 34.709256 194.643745 34.751005 
Q 194.787084 34.792754 194.949906 34.950009 
Q 195.112728 35.107264 195.260241 35.327143 
Q 195.407755 35.547022 196.017292 36.510035 
L 196.696412 36.510035 
M 208.809231 36.510035 
L 208.809231 36.025745 
L 206.301499 36.025745 
L 206.301499 34.64524 
L 208.558736 34.64524 
L 208.558736 34.16095 
L 206.301499 34.16095 
L 206.301499 32.914042 
L 208.7146 32.914042 
L 208.7146 32.429752 
L 205.761543 32.429752 
L 205.761543 36.510035 
L 208.809231 36.510035 
M 192.3712 32.914042 
L 192.3712 32.429752 
L 189.61854 32.429752 
L 189.61854 36.510035 
L 190.158495 36.510035 
L 190.158495 34.66194 
L 192.076173 34.66194 
L 192.076173 34.17765 
L 190.158495 34.17765 
L 190.158495 32.914042 
L 192.3712 32.914042 
M 186.568069 34.302897 
L 186.568069 34.291764 
Q 187.127507 34.041269 187.127507 33.470697 
Q 187.127507 33.025373 186.786556 32.717821 
Q 186.445605 32.410269 185.936265 32.410269 
Q 185.474241 32.410269 185.141639 32.67468 
Q 184.809038 32.939092 184.711623 33.470697 
L 185.212613 33.562546 
Q 185.262712 33.206286 185.453366 33.01424 
Q 185.644021 32.822194 185.947398 32.822194 
Q 186.211809 32.822194 186.413597 32.989191 
Q 186.615384 33.156187 186.615384 33.459564 
Q 186.615384 33.66831 186.520753 33.808866 
Q 186.426122 33.949421 186.281391 34.02457 
Q 186.136661 34.099718 186.019763 34.119201 
Q 185.902866 34.138684 185.70247 34.138684 
L 185.644021 34.578442 
Q 185.852767 34.525559 185.997497 34.525559 
Q 186.353756 34.525559 186.575027 34.751005 
Q 186.796297 34.97645 186.796297 35.318793 
Q 186.796297 35.675052 186.552761 35.921372 
Q 186.309224 36.167692 185.958531 36.167692 
Q 185.632888 36.167692 185.433883 35.967297 
Q 185.234879 35.766901 185.159731 35.363325 
L 184.658741 35.432907 
Q 184.71719 35.950597 185.067883 36.265107 
Q 185.418575 36.579617 185.958531 36.579617 
Q 186.523536 36.579617 186.928503 36.221966 
Q 187.33347 35.864315 187.33347 35.30766 
Q 187.33347 34.962534 187.140032 34.668898 
Q 186.946594 34.375262 186.568069 34.302897 
M 213.677182 36.510035 
L 213.677182 36.025745 
L 211.664873 36.025745 
L 211.664873 32.429752 
L 211.124917 32.429752 
L 211.124917 36.510035 
L 213.677182 36.510035 
M 199.315475 34.84007 
L 197.929403 34.84007 
L 198.385861 33.618211 
Q 198.516675 33.267518 198.594606 32.855593 
L 198.608523 32.855593 
Q 198.686455 33.156187 198.75047 33.335709 
Q 198.814485 33.51523 199.315475 34.84007 
M 193.640374 34.224965 
L 193.640374 32.87786 
L 194.929031 32.87786 
Q 195.396622 32.87786 195.599801 33.072689 
Q 195.80298 33.267518 195.80298 33.545846 
Q 195.80298 33.760158 195.680516 33.932721 
Q 195.558052 34.105285 195.353481 34.165125 
Q 195.14891 34.224965 194.798217 34.224965 
L 193.640374 34.224965 
" clip-path="url(#pcc582dec13)" style="fill: #ff0000"/>
   </g>
   <g id="patch_11">
    <path d="M 292.547816 22.909091 
L 401.355372 22.909091 
L 401.355372 186.120425 
L 353.752066 186.120425 
L 353.752066 190.200708 
L 340.151122 190.200708 
L 340.151122 186.120425 
L 292.547816 186.120425 
L 292.547816 22.909091 
" clip-path="url(#pcc582dec13)" style="fill: none; stroke: #ffffff; stroke-width: 0.48; stroke-linejoin: miter"/>
   </g>
   <g id="patch_12">
    <path d="M 349.127745 131.716647 
C 349.127745 132.918502 348.153449 133.892798 346.951594 133.892798 
C 345.749739 133.892798 344.775443 132.918502 344.775443 131.716647 
C 344.775443 130.514792 345.749739 129.540496 346.951594 129.540496 
C 348.153449 129.540496 349.127745 130.514792 349.127745 131.716647 
" clip-path="url(#pcc582dec13)" style="fill: none; stroke: #ffffff; stroke-width: 0.48; stroke-linejoin: miter"/>
   </g>
   <g id="patch_13">
    <path d="M 344.979457 70.512397 
L 348.923731 70.512397 
L 348.923731 29.709563 
L 344.979457 29.709563 
L 344.979457 70.512397 
" clip-path="url(#pcc582dec13)" style="fill: none; stroke: #ffffff; stroke-width: 0.48; stroke-linejoin: miter"/>
   </g>
   <g id="patch_14">
    <path d="M 324.564773 36.510035 
L 324.564773 32.429752 
L 323.846688 32.429752 
L 322.872541 35.268694 
Q 322.730594 35.686186 322.655446 35.922764 
L 322.644312 35.922764 
Q 322.619263 35.8003 322.457833 35.318793 
L 321.492036 32.429752 
L 320.684886 32.429752 
L 320.684886 36.510035 
L 321.197009 36.510035 
L 321.197009 33.03929 
L 321.213708 33.03929 
L 322.382684 36.510035 
L 322.866975 36.510035 
L 324.041517 33.094955 
L 324.05265 33.094955 
L 324.05265 36.510035 
L 324.564773 36.510035 
M 303.662367 36.510035 
L 303.662367 32.429752 
L 302.944281 32.429752 
L 301.970135 35.268694 
Q 301.828187 35.686186 301.753039 35.922764 
L 301.741906 35.922764 
Q 301.716856 35.8003 301.555426 35.318793 
L 300.589629 32.429752 
L 299.782479 32.429752 
L 299.782479 36.510035 
L 300.294602 36.510035 
L 300.294602 33.03929 
L 300.311302 33.03929 
L 301.480278 36.510035 
L 301.964568 36.510035 
L 303.139111 33.094955 
L 303.150244 33.094955 
L 303.150244 36.510035 
L 303.662367 36.510035 
M 320.256261 36.510035 
L 318.591862 32.429752 
L 318.010157 32.429752 
L 316.443172 36.510035 
L 317.013744 36.510035 
L 317.464635 35.268694 
L 319.168 35.268694 
L 319.646724 36.510035 
L 320.256261 36.510035 
M 334.437055 36.510035 
L 333.724536 35.399508 
Q 333.365493 34.837286 332.956352 34.656373 
L 332.956352 34.64524 
Q 333.51579 34.570092 333.808034 34.288981 
Q 334.100278 34.00787 334.100278 33.545846 
Q 334.100278 33.289785 333.998689 33.058773 
Q 333.897099 32.827761 333.707837 32.676072 
Q 333.518574 32.524383 333.268079 32.477068 
Q 333.017584 32.429752 332.647408 32.429752 
L 330.841062 32.429752 
L 330.841062 36.510035 
L 331.381017 36.510035 
L 331.381017 34.709256 
L 332.004471 34.709256 
Q 332.24105 34.709256 332.384389 34.751005 
Q 332.527727 34.792754 332.690549 34.950009 
Q 332.853371 35.107264 333.000884 35.327143 
Q 333.148398 35.547022 333.757935 36.510035 
L 334.437055 36.510035 
M 316.384724 36.510035 
L 315.672205 35.399508 
Q 315.313162 34.837286 314.90402 34.656373 
L 314.90402 34.64524 
Q 315.463459 34.570092 315.755703 34.288981 
Q 316.047947 34.00787 316.047947 33.545846 
Q 316.047947 33.289785 315.946357 33.058773 
Q 315.844768 32.827761 315.655505 32.676072 
Q 315.466242 32.524383 315.215747 32.477068 
Q 314.965253 32.429752 314.595077 32.429752 
L 312.78873 32.429752 
L 312.78873 36.510035 
L 313.328686 36.510035 
L 313.328686 34.709256 
L 313.95214 34.709256 
Q 314.188718 34.709256 314.332057 34.751005 
Q 314.475396 34.792754 314.638218 34.950009 
Q 314.801039 35.107264 314.948553 35.327143 
Q 315.096067 35.547022 315.705604 36.510035 
L 316.384724 36.510035 
M 328.497543 36.510035 
L 328.497543 36.025745 
L 325.989811 36.025745 
L 325.989811 34.64524 
L 328.247048 34.64524 
L 328.247048 34.16095 
L 325.989811 34.16095 
L 325.989811 32.914042 
L 328.402911 32.914042 
L 328.402911 32.429752 
L 325.449855 32.429752 
L 325.449855 36.510035 
L 328.497543 36.510035 
M 312.059512 32.914042 
L 312.059512 32.429752 
L 309.306851 32.429752 
L 309.306851 36.510035 
L 309.846807 36.510035 
L 309.846807 34.66194 
L 311.764485 34.66194 
L 311.764485 34.17765 
L 309.846807 34.17765 
L 309.846807 32.914042 
L 312.059512 32.914042 
M 306.25638 34.302897 
L 306.25638 34.291764 
Q 306.815819 34.041269 306.815819 33.470697 
Q 306.815819 33.025373 306.474868 32.717821 
Q 306.133916 32.410269 305.624577 32.410269 
Q 305.162553 32.410269 304.829951 32.67468 
Q 304.49735 32.939092 304.399935 33.470697 
L 304.900925 33.562546 
Q 304.951024 33.206286 305.141678 33.01424 
Q 305.332333 32.822194 305.63571 32.822194 
Q 305.900121 32.822194 306.101909 32.989191 
Q 306.303696 33.156187 306.303696 33.459564 
Q 306.303696 33.66831 306.209065 33.808866 
Q 306.114433 33.949421 305.969703 34.02457 
Q 305.824972 34.099718 305.708075 34.119201 
Q 305.591177 34.138684 305.390781 34.138684 
L 305.332333 34.578442 
Q 305.541078 34.525559 305.685809 34.525559 
Q 306.042068 34.525559 306.263339 34.751005 
Q 306.484609 34.97645 306.484609 35.318793 
Q 306.484609 35.675052 306.241072 35.921372 
Q 305.997536 36.167692 305.646843 36.167692 
Q 305.321199 36.167692 305.122195 35.967297 
Q 304.923191 35.766901 304.848042 35.363325 
L 304.347053 35.432907 
Q 304.405501 35.950597 304.756194 36.265107 
Q 305.106887 36.579617 305.646843 36.579617 
Q 306.211848 36.579617 306.616815 36.221966 
Q 307.021781 35.864315 307.021781 35.30766 
Q 307.021781 34.962534 306.828344 34.668898 
Q 306.634906 34.375262 306.25638 34.302897 
M 319.003787 34.84007 
L 317.617715 34.84007 
L 318.074172 33.618211 
Q 318.204986 33.267518 318.282918 32.855593 
L 318.296835 32.855593 
Q 318.374766 33.156187 318.438782 33.335709 
Q 318.502797 33.51523 319.003787 34.84007 
M 331.381017 34.224965 
L 331.381017 32.87786 
L 332.669674 32.87786 
Q 333.137265 32.87786 333.340444 33.072689 
Q 333.543623 33.267518 333.543623 33.545846 
Q 333.543623 33.760158 333.421159 33.932721 
Q 333.298695 34.105285 333.094124 34.165125 
Q 332.889553 34.224965 332.53886 34.224965 
L 331.381017 34.224965 
M 313.328686 34.224965 
L 313.328686 32.87786 
L 314.617343 32.87786 
Q 315.084933 32.87786 315.288113 33.072689 
Q 315.491292 33.267518 315.491292 33.545846 
Q 315.491292 33.760158 315.368828 33.932721 
Q 315.246363 34.105285 315.041793 34.165125 
Q 314.837222 34.224965 314.486529 34.224965 
L 313.328686 34.224965 
" clip-path="url(#pcc582dec13)" style="fill: #ff0000"/>
   </g>
   <g id="patch_15">
    <path d="M 91.253837 271.806375 
L 91.9873 269.600335 
L 92.510034 267.26809 
L 92.799809 264.832282 
L 92.837291 262.319435 
L 92.606717 259.759513 
L 92.096478 257.18536 
L 91.299619 254.632048 
L 90.214218 252.136134 
L 88.843644 249.734869 
L 87.196681 247.465352 
L 85.287511 245.363681 
L 83.135554 243.464105 
L 80.765175 241.798208 
L 78.205253 240.394147 
L 75.488632 239.275971 
L 72.651469 238.463029 
L 69.73248 237.969495 
L 66.772137 237.804014 
L 63.811793 237.969495 
L 60.892805 238.463029 
L 58.055641 239.275971 
L 55.339021 240.394147 
L 52.779099 241.798208 
L 50.40872 243.464105 
L 48.256763 245.363681 
L 46.347593 247.465352 
L 44.70063 249.734869 
L 43.330056 252.136134 
L 42.244655 254.632048 
L 41.447796 257.18536 
L 40.937557 259.759513 
L 40.706982 262.319435 
L 40.744465 264.832282 
L 41.03424 267.26809 
L 41.556974 269.600335 
L 42.290437 271.806375 
L 43.21022 273.867776 
L 44.290498 275.770495 
L 45.504796 277.504942 
L 46.826746 279.065904 
L 48.230806 280.45234 
L 49.69293 281.66706 
L 51.19115 282.7163 
L 52.706077 283.609201 
L 54.221291 284.357221 
L 55.723614 284.973492 
L 57.203258 285.472151 
L 58.653854 285.867654 
L 60.072348 286.174119 
L 61.458784 286.404693 
L 62.815972 286.570984 
L 64.149063 286.682565 
L 65.465039 286.746574 
L 66.772137 286.767414 
L 68.079235 286.746574 
L 69.395211 286.682565 
L 70.728302 286.570984 
L 72.08549 286.404693 
L 73.471926 286.174119 
L 74.89042 285.867654 
L 76.341016 285.472151 
L 77.82066 284.973492 
L 79.322983 284.357221 
L 80.838197 283.609201 
L 82.353124 282.7163 
L 83.851344 281.66706 
L 85.313468 280.45234 
L 86.717528 279.065904 
L 88.039478 277.504942 
L 89.253776 275.770495 
L 90.334054 273.867776 
L 91.253837 271.806375 
" clip-path="url(#pcc582dec13)" style="fill: none; stroke: #ffffff; stroke-width: 0.48; stroke-linejoin: miter"/>
   </g>
   <g id="patch_16">
    <path d="M 68.948288 271.806375 
C 68.948288 273.008231 67.973992 273.982527 66.772137 273.982527 
C 65.570282 273.982527 64.595986 273.008231 64.595986 271.806375 
C 64.595986 270.60452 65.570282 269.630224 66.772137 269.630224 
C 67.973992 269.630224 68.948288 270.60452 68.948288 271.806375 
" clip-path="url(#pcc582dec13)" style="fill: none; stroke: #ffffff; stroke-width: 0.48; stroke-linejoin: miter"/>
   </g>
   <g id="patch_17">
    <path d="M 70.544404 273.955993 
L 70.544404 272.444674 
L 68.818773 272.444674 
L 68.818773 272.931747 
L 70.021148 272.931747 
L 70.021148 273.688798 
Q 69.47006 274.109073 68.829906 274.109073 
Q 68.409631 274.109073 68.05198 273.923985 
Q 67.694329 273.738897 67.512025 273.377071 
Q 67.32972 273.015245 67.32972 272.469723 
Q 67.32972 271.740505 67.705462 271.289614 
Q 68.081205 270.838723 68.818773 270.838723 
Q 69.294713 270.838723 69.589741 271.059993 
Q 69.884768 271.281264 69.998882 271.721022 
L 70.483172 271.584641 
Q 70.338442 270.98067 69.922342 270.678685 
Q 69.506242 270.376699 68.818773 270.376699 
Q 68.156353 270.376699 67.698504 270.650852 
Q 67.240655 270.925005 67.005468 271.424603 
Q 66.770281 271.924201 66.770281 272.503122 
Q 66.770281 273.45222 67.345028 274.024183 
Q 67.919775 274.596146 68.857739 274.596146 
Q 69.773437 274.596146 70.544404 273.955993 
M 74.978164 273.955993 
L 74.978164 272.444674 
L 73.252532 272.444674 
L 73.252532 272.931747 
L 74.454908 272.931747 
L 74.454908 273.688798 
Q 73.903819 274.109073 73.263666 274.109073 
Q 72.843391 274.109073 72.48574 273.923985 
Q 72.128089 273.738897 71.945784 273.377071 
Q 71.763479 273.015245 71.763479 272.469723 
Q 71.763479 271.740505 72.139222 271.289614 
Q 72.514964 270.838723 73.252532 270.838723 
Q 73.728473 270.838723 74.0235 271.059993 
Q 74.318527 271.281264 74.432642 271.721022 
L 74.916932 271.584641 
Q 74.772201 270.98067 74.356102 270.678685 
Q 73.940002 270.376699 73.252532 270.376699 
Q 72.590113 270.376699 72.132264 270.650852 
Q 71.674415 270.925005 71.439228 271.424603 
Q 71.204041 271.924201 71.204041 272.503122 
Q 71.204041 273.45222 71.778788 274.024183 
Q 72.353534 274.596146 73.291498 274.596146 
Q 74.207196 274.596146 74.978164 273.955993 
M 57.485271 274.526564 
L 57.485271 270.446281 
L 56.767186 270.446281 
L 55.793039 273.285223 
Q 55.651092 273.702714 55.575943 273.939293 
L 55.56481 273.939293 
Q 55.539761 273.816829 55.378331 273.335322 
L 54.412534 270.446281 
L 53.605384 270.446281 
L 53.605384 274.526564 
L 54.117506 274.526564 
L 54.117506 271.055819 
L 54.134206 271.055819 
L 55.303182 274.526564 
L 55.787472 274.526564 
L 56.962015 271.111484 
L 56.973148 271.111484 
L 56.973148 274.526564 
L 57.485271 274.526564 
M 66.171877 274.526564 
L 66.171877 274.042274 
L 63.664145 274.042274 
L 63.664145 272.661769 
L 65.921382 272.661769 
L 65.921382 272.177479 
L 63.664145 272.177479 
L 63.664145 270.930571 
L 66.077246 270.930571 
L 66.077246 270.446281 
L 63.124189 270.446281 
L 63.124189 274.526564 
L 66.171877 274.526564 
M 60.079285 272.319426 
L 60.079285 272.308293 
Q 60.638723 272.057798 60.638723 271.487226 
Q 60.638723 271.041902 60.297772 270.73435 
Q 59.956821 270.426798 59.447481 270.426798 
Q 58.985457 270.426798 58.652856 270.691209 
Q 58.320254 270.955621 58.222839 271.487226 
L 58.723829 271.579075 
Q 58.773928 271.222815 58.964582 271.030769 
Q 59.155237 270.838723 59.458614 270.838723 
Q 59.723025 270.838723 59.924813 271.00572 
Q 60.1266 271.172716 60.1266 271.476093 
Q 60.1266 271.684839 60.031969 271.825394 
Q 59.937338 271.96595 59.792607 272.041098 
Q 59.647877 272.116247 59.530979 272.13573 
Q 59.414082 272.155213 59.213686 272.155213 
L 59.155237 272.59497 
Q 59.363983 272.542088 59.508713 272.542088 
Q 59.864972 272.542088 60.086243 272.767534 
Q 60.307513 272.992979 60.307513 273.335322 
Q 60.307513 273.691581 60.063977 273.937901 
Q 59.82044 274.184221 59.469747 274.184221 
Q 59.144104 274.184221 58.9451 273.983825 
Q 58.746095 273.78343 58.670947 273.379854 
L 58.169957 273.449436 
Q 58.228406 273.967126 58.579099 274.281636 
Q 58.929792 274.596146 59.469747 274.596146 
Q 60.034752 274.596146 60.439719 274.238495 
Q 60.844686 273.880844 60.844686 273.324189 
Q 60.844686 272.979063 60.651248 272.685427 
Q 60.45781 272.391791 60.079285 272.319426 
" clip-path="url(#pcc582dec13)" style="fill: #ff0000"/>
   </g>
   <g id="patch_18">
    <path d="M 172.859504 271.806375 
C 172.859504 286.829564 160.680804 299.008264 145.657615 299.008264 
C 130.634427 299.008264 118.455726 286.829564 118.455726 271.806375 
C 118.455726 256.783187 130.634427 244.604486 145.657615 244.604486 
C 160.680804 244.604486 172.859504 256.783187 172.859504 271.806375 
" clip-path="url(#pcc582dec13)" style="fill: none; stroke: #ffffff; stroke-width: 0.48; stroke-linejoin: miter"/>
   </g>
   <g id="patch_19">
    <path d="M 154.634238 271.806375 
C 154.634238 273.008231 153.659942 273.982527 152.458087 273.982527 
C 151.256232 273.982527 150.281936 273.008231 150.281936 271.806375 
C 150.281936 270.60452 151.256232 269.630224 152.458087 269.630224 
C 153.659942 269.630224 154.634238 270.60452 154.634238 271.806375 
" clip-path="url(#pcc582dec13)" style="fill: none; stroke: #ffffff; stroke-width: 0.48; stroke-linejoin: miter"/>
   </g>
   <g id="patch_20">
    <path d="M 145.178892 270.376699 
Q 144.310509 270.376699 143.766379 270.954229 
Q 143.222248 271.531759 143.222248 272.536522 
Q 143.222248 273.399337 143.759421 273.997742 
Q 144.296593 274.596146 145.178892 274.596146 
Q 146.030574 274.596146 146.57888 274.018616 
Q 147.127185 273.441087 147.127185 272.491989 
Q 147.127185 271.540109 146.581663 270.958404 
Q 146.036141 270.376699 145.178892 270.376699 
M 133.65056 274.526564 
L 133.65056 270.446281 
L 132.932475 270.446281 
L 131.958328 273.285223 
Q 131.816381 273.702714 131.741233 273.939293 
L 131.730099 273.939293 
Q 131.70505 273.816829 131.54362 273.335322 
L 130.577823 270.446281 
L 129.770673 270.446281 
L 129.770673 274.526564 
L 130.282796 274.526564 
L 130.282796 271.055819 
L 130.299495 271.055819 
L 131.468472 274.526564 
L 131.952762 274.526564 
L 133.127304 271.111484 
L 133.138437 271.111484 
L 133.138437 274.526564 
L 133.65056 274.526564 
M 142.891038 274.526564 
L 142.178519 273.416037 
Q 141.819477 272.853815 141.410335 272.672902 
L 141.410335 272.661769 
Q 141.969774 272.586621 142.262018 272.30551 
Q 142.554262 272.024399 142.554262 271.562375 
Q 142.554262 271.306313 142.452672 271.075301 
Q 142.351083 270.84429 142.16182 270.692601 
Q 141.972557 270.540912 141.722062 270.493597 
Q 141.471567 270.446281 141.101391 270.446281 
L 139.295045 270.446281 
L 139.295045 274.526564 
L 139.835001 274.526564 
L 139.835001 272.725784 
L 140.458455 272.725784 
Q 140.695033 272.725784 140.838372 272.767534 
Q 140.981711 272.809283 141.144532 272.966538 
Q 141.307354 273.123793 141.454868 273.343672 
Q 141.602381 273.563551 142.211919 274.526564 
L 142.891038 274.526564 
M 156.078202 270.446281 
L 156.078202 274.526564 
L 157.547772 274.526564 
Q 158.594284 274.526564 159.022909 273.946251 
Q 159.451533 273.365938 159.451533 272.464156 
Q 159.451533 271.990999 159.347161 271.658398 
Q 159.242788 271.325796 159.060483 271.069735 
Q 158.878179 270.813673 158.634642 270.667551 
Q 158.391105 270.521429 158.123911 270.483855 
Q 157.856716 270.446281 157.48654 270.446281 
L 156.078202 270.446281 
M 151.048822 272.806499 
L 151.048822 270.446281 
L 150.506083 270.446281 
L 150.506083 272.79815 
Q 150.506083 273.232341 150.433718 273.506494 
Q 150.361352 273.780646 150.121991 273.94486 
Q 149.882629 274.109073 149.406689 274.109073 
Q 148.936315 274.109073 148.710869 273.90311 
Q 148.485424 273.697148 148.432542 273.431345 
Q 148.37966 273.165542 148.37966 272.79815 
L 148.37966 270.446281 
L 147.839704 270.446281 
L 147.839704 272.806499 
Q 147.839704 273.159976 147.882845 273.446653 
Q 147.925985 273.733331 148.081849 273.997742 
Q 148.237712 274.262153 148.571706 274.42915 
Q 148.905699 274.596146 149.451221 274.596146 
Q 150.01066 274.596146 150.346044 274.408275 
Q 150.681429 274.220404 150.830334 273.937901 
Q 150.97924 273.655399 151.014031 273.388204 
Q 151.048822 273.12101 151.048822 272.806499 
M 155.165288 274.526564 
L 155.165288 270.446281 
L 154.650381 270.446281 
L 154.650381 273.649832 
L 154.639248 273.649832 
L 152.507259 270.446281 
L 151.95617 270.446281 
L 151.95617 274.526564 
L 152.468293 274.526564 
L 152.468293 271.323013 
L 152.479426 271.323013 
L 154.611416 274.526564 
L 155.165288 274.526564 
M 136.244574 272.319426 
L 136.244574 272.308293 
Q 136.804013 272.057798 136.804013 271.487226 
Q 136.804013 271.041902 136.463061 270.73435 
Q 136.12211 270.426798 135.61277 270.426798 
Q 135.150746 270.426798 134.818145 270.691209 
Q 134.485543 270.955621 134.388129 271.487226 
L 134.889118 271.579075 
Q 134.939217 271.222815 135.129872 271.030769 
Q 135.320526 270.838723 135.623903 270.838723 
Q 135.888315 270.838723 136.090102 271.00572 
Q 136.29189 271.172716 136.29189 271.476093 
Q 136.29189 271.684839 136.197258 271.825394 
Q 136.102627 271.96595 135.957897 272.041098 
Q 135.813166 272.116247 135.696269 272.13573 
Q 135.579371 272.155213 135.378975 272.155213 
L 135.320526 272.59497 
Q 135.529272 272.542088 135.674002 272.542088 
Q 136.030262 272.542088 136.251532 272.767534 
Q 136.472803 272.992979 136.472803 273.335322 
Q 136.472803 273.691581 136.229266 273.937901 
Q 135.985729 274.184221 135.635036 274.184221 
Q 135.309393 274.184221 135.110389 273.983825 
Q 134.911385 273.78343 134.836236 273.379854 
L 134.335246 273.449436 
Q 134.393695 273.967126 134.744388 274.281636 
Q 135.095081 274.596146 135.635036 274.596146 
Q 136.200042 274.596146 136.605008 274.238495 
Q 137.009975 273.880844 137.009975 273.324189 
Q 137.009975 272.979063 136.816537 272.685427 
Q 136.6231 272.391791 136.244574 272.319426 
M 145.173325 274.134122 
Q 144.555438 274.134122 144.168562 273.695756 
Q 143.781687 273.25739 143.781687 272.547655 
Q 143.781687 271.679272 144.176912 271.258998 
Q 144.572137 270.838723 145.184458 270.838723 
Q 145.780079 270.838723 146.173913 271.267348 
Q 146.567747 271.695972 146.567747 272.491989 
Q 146.564963 273.26574 146.179479 273.699931 
Q 145.793996 274.134122 145.173325 274.134122 
M 139.835001 272.241494 
L 139.835001 270.894389 
L 141.123658 270.894389 
Q 141.591248 270.894389 141.794427 271.089218 
Q 141.997607 271.284047 141.997607 271.562375 
Q 141.997607 271.776687 141.875142 271.94925 
Q 141.752678 272.121813 141.548107 272.181654 
Q 141.343537 272.241494 140.992844 272.241494 
L 139.835001 272.241494 
M 156.618158 274.042274 
L 156.618158 270.930571 
L 157.475407 270.930571 
Q 157.756518 270.930571 157.936039 270.952837 
Q 158.115561 270.975104 158.304824 271.076693 
Q 158.494086 271.178283 158.640208 271.39677 
Q 158.78633 271.615257 158.840604 271.88106 
Q 158.894878 272.146863 158.894878 272.453023 
Q 158.894878 273.006895 158.752931 273.343672 
Q 158.610984 273.680448 158.39528 273.827962 
Q 158.179576 273.975476 157.969439 274.008875 
Q 157.759301 274.042274 157.492107 274.042274 
L 156.618158 274.042274 
" clip-path="url(#pcc582dec13)" style="fill: #ff0000"/>
   </g>
   <g id="patch_21">
    <path d="M 231.343566 271.806375 
L 231.574085 270.596279 
L 231.695033 269.346189 
L 231.701219 268.066181 
L 231.588387 266.766929 
L 231.353288 265.459617 
L 230.99373 264.155844 
L 230.508627 262.867522 
L 229.898037 261.60677 
L 229.163189 260.385808 
L 228.306498 259.216837 
L 227.331573 258.111933 
L 226.243211 257.082921 
L 225.047381 256.141268 
L 223.751192 255.297962 
L 222.362862 254.563402 
L 220.89166 253.947288 
L 219.347851 253.458516 
L 217.742621 253.105077 
L 216.088 252.893966 
L 214.396767 252.831095 
L 212.682357 252.921214 
L 210.95875 253.167844 
L 209.24036 253.573218 
L 207.541913 254.13823 
L 205.878324 254.862404 
L 204.264571 255.743861 
L 202.715558 256.779313 
L 201.245985 257.964054 
L 199.870213 259.29198 
L 198.60213 260.755608 
L 197.455023 262.346113 
L 196.441442 264.05338 
L 195.573084 265.866066 
L 194.860665 267.771669 
L 194.313815 269.756621 
L 193.940968 271.806375 
L 193.749266 273.905522 
L 193.744472 276.037897 
L 193.930896 278.186708 
L 194.311324 280.33467 
L 194.886972 282.464139 
L 195.65744 284.557261 
L 196.620684 286.596115 
L 197.773009 288.562869 
L 199.109063 290.439933 
L 200.621855 292.210109 
L 202.302783 293.856749 
L 204.141677 295.363902 
L 206.126856 296.716464 
L 208.245202 297.900319 
L 210.482243 298.902477 
L 212.822248 299.7112 
L 215.248341 300.316127 
L 217.742621 300.708383 
L 220.286293 300.880676 
L 222.859809 300.827393 
L 225.443022 300.544664 
L 228.015339 300.030437 
L 230.555888 299.284515 
L 233.043684 298.308593 
L 235.457804 297.106278 
L 237.777559 295.683085 
L 239.982674 294.046428 
L 242.053453 292.205586 
L 243.97096 290.171656 
L 245.717184 287.957497 
L 247.275201 285.577643 
L 248.62933 283.048218 
L 249.765286 280.386823 
L 250.670314 277.612416 
L 251.333318 274.745181 
L 231.343566 271.806375 
" clip-path="url(#pcc582dec13)" style="fill: none; stroke: #ffffff; stroke-width: 0.48; stroke-linejoin: miter"/>
   </g>
   <g id="patch_22">
    <path d="M 219.918772 271.806375 
C 219.918772 273.008231 218.944476 273.982527 217.742621 273.982527 
C 216.540766 273.982527 215.56647 273.008231 215.56647 271.806375 
C 215.56647 270.60452 216.540766 269.630224 217.742621 269.630224 
C 218.944476 269.630224 219.918772 270.60452 219.918772 271.806375 
" clip-path="url(#pcc582dec13)" style="fill: none; stroke: #ffffff; stroke-width: 0.48; stroke-linejoin: miter"/>
   </g>
   <g id="patch_23">
    <path d="M 205.735566 274.526564 
L 205.735566 270.446281 
L 205.017481 270.446281 
L 204.043334 273.285223 
Q 203.901387 273.702714 203.826239 273.939293 
L 203.815105 273.939293 
Q 203.790056 273.816829 203.628626 273.335322 
L 202.662829 270.446281 
L 201.855679 270.446281 
L 201.855679 274.526564 
L 202.367802 274.526564 
L 202.367802 271.055819 
L 202.384501 271.055819 
L 203.553477 274.526564 
L 204.037768 274.526564 
L 205.21231 271.111484 
L 205.223443 271.111484 
L 205.223443 274.526564 
L 205.735566 274.526564 
M 222.649537 274.526564 
L 220.985138 270.446281 
L 220.403433 270.446281 
L 218.836449 274.526564 
L 219.40702 274.526564 
L 219.857911 273.285223 
L 221.561276 273.285223 
L 222.04 274.526564 
L 222.649537 274.526564 
M 213.784802 271.64309 
L 214.302491 271.601341 
Q 214.277442 271.014069 213.864125 270.695384 
Q 213.450809 270.376699 212.771689 270.376699 
Q 212.109269 270.376699 211.725177 270.696776 
Q 211.341085 271.016853 211.341085 271.506709 
Q 211.341085 271.938117 211.644462 272.208095 
Q 211.947839 272.478073 212.6367 272.626978 
Q 213.325561 272.775883 213.617805 272.928964 
Q 213.910049 273.082044 213.910049 273.416037 
Q 213.910049 273.736114 213.63033 273.922593 
Q 213.350611 274.109073 212.896937 274.109073 
Q 212.412647 274.109073 212.070304 273.885019 
Q 211.72796 273.660965 211.691778 273.171109 
L 211.179655 273.215641 
Q 211.204705 273.827962 211.631937 274.212054 
Q 212.05917 274.596146 212.919203 274.596146 
Q 213.592756 274.596146 214.011639 274.248237 
Q 214.430522 273.900327 214.430522 273.374288 
Q 214.430522 272.95958 214.202293 272.71326 
Q 213.974065 272.46694 213.653988 272.350042 
Q 213.333911 272.233145 212.827355 272.121813 
Q 212.256783 271.993783 212.054995 271.86436 
Q 211.853208 271.734938 211.853208 271.470527 
Q 211.853208 271.172716 212.114836 271.016853 
Q 212.376464 270.860989 212.793955 270.860989 
Q 213.255979 270.860989 213.503691 271.05721 
Q 213.751403 271.253431 213.784802 271.64309 
M 218.385558 274.526564 
L 218.385558 270.446281 
L 217.870652 270.446281 
L 217.870652 273.649832 
L 217.859519 273.649832 
L 215.727529 270.446281 
L 215.17644 270.446281 
L 215.17644 274.526564 
L 215.688563 274.526564 
L 215.688563 271.323013 
L 215.699696 271.323013 
L 217.831686 274.526564 
L 218.385558 274.526564 
M 208.32958 272.319426 
L 208.32958 272.308293 
Q 208.889018 272.057798 208.889018 271.487226 
Q 208.889018 271.041902 208.548067 270.73435 
Q 208.207116 270.426798 207.697776 270.426798 
Q 207.235752 270.426798 206.903151 270.691209 
Q 206.570549 270.955621 206.473134 271.487226 
L 206.974124 271.579075 
Q 207.024223 271.222815 207.214878 271.030769 
Q 207.405532 270.838723 207.708909 270.838723 
Q 207.97332 270.838723 208.175108 271.00572 
Q 208.376896 271.172716 208.376896 271.476093 
Q 208.376896 271.684839 208.282264 271.825394 
Q 208.187633 271.96595 208.042902 272.041098 
Q 207.898172 272.116247 207.781274 272.13573 
Q 207.664377 272.155213 207.463981 272.155213 
L 207.405532 272.59497 
Q 207.614278 272.542088 207.759008 272.542088 
Q 208.115268 272.542088 208.336538 272.767534 
Q 208.557809 272.992979 208.557809 273.335322 
Q 208.557809 273.691581 208.314272 273.937901 
Q 208.070735 274.184221 207.720042 274.184221 
Q 207.394399 274.184221 207.195395 273.983825 
Q 206.99639 273.78343 206.921242 273.379854 
L 206.420252 273.449436 
Q 206.478701 273.967126 206.829394 274.281636 
Q 207.180087 274.596146 207.720042 274.596146 
Q 208.285047 274.596146 208.690014 274.238495 
Q 209.094981 273.880844 209.094981 273.324189 
Q 209.094981 272.979063 208.901543 272.685427 
Q 208.708105 272.391791 208.32958 272.319426 
M 227.208544 274.526564 
L 227.208544 274.042274 
L 225.196235 274.042274 
L 225.196235 270.446281 
L 224.65628 270.446281 
L 224.65628 274.526564 
L 227.208544 274.526564 
M 223.709966 274.526564 
L 223.709966 270.446281 
L 223.167227 270.446281 
L 223.167227 274.526564 
L 223.709966 274.526564 
M 221.397063 272.856598 
L 220.010991 272.856598 
L 220.467449 271.63474 
Q 220.598263 271.284047 220.676194 270.872122 
L 220.690111 270.872122 
Q 220.768043 271.172716 220.832058 271.352237 
Q 220.896073 271.531759 221.397063 272.856598 
" clip-path="url(#pcc582dec13)" style="fill: #ff0000"/>
   </g>
   <g id="patch_24">
    <path d="M 25.969303 337.090909 
L 134.77686 337.090909 
L 134.77686 316.689492 
L 25.969303 316.689492 
L 25.969303 337.090909 
" clip-path="url(#pcc582dec13)" style="fill: none; stroke: #ffffff; stroke-width: 0.48; stroke-linejoin: miter"/>
   </g>
   <g id="patch_25">
    <path d="M 130.016529 326.890201 
C 130.016529 328.01694 129.103126 328.930342 127.976387 328.930342 
C 126.849648 328.930342 125.936246 328.01694 125.936246 326.890201 
C 125.936246 325.763462 126.849648 324.850059 127.976387 324.850059 
C 129.103126 324.850059 130.016529 325.763462 130.016529 326.890201 
" clip-path="url(#pcc582dec13)" style="fill: none; stroke: #ffffff; stroke-width: 0.48; stroke-linejoin: miter"/>
   </g>
   <g id="patch_26">
    <path d="M 63.775476 330.244049 
Q 63.196554 330.244049 62.833801 330.629069 
Q 62.471047 331.014089 62.471047 331.683931 
Q 62.471047 332.259141 62.829162 332.658077 
Q 63.187277 333.057014 63.775476 333.057014 
Q 64.343264 333.057014 64.708801 332.671994 
Q 65.074338 332.286974 65.074338 331.654242 
Q 65.074338 331.019655 64.710657 330.631852 
Q 64.346975 330.244049 63.775476 330.244049 
M 62.111077 330.613297 
L 62.111077 330.290437 
L 60.27597 330.290437 
L 60.27597 333.010626 
L 60.63594 333.010626 
L 60.63594 331.778562 
L 61.914392 331.778562 
L 61.914392 331.455702 
L 60.63594 331.455702 
L 60.63594 330.613297 
L 62.111077 330.613297 
M 67.236016 333.010626 
L 67.236016 332.687766 
L 65.894477 332.687766 
L 65.894477 330.290437 
L 65.534507 330.290437 
L 65.534507 333.010626 
L 67.236016 333.010626 
M 63.771765 332.748998 
Q 63.35984 332.748998 63.101923 332.456754 
Q 62.844006 332.16451 62.844006 331.691353 
Q 62.844006 331.112431 63.10749 330.832248 
Q 63.370973 330.552065 63.779187 330.552065 
Q 64.176268 330.552065 64.438823 330.837815 
Q 64.701379 331.123564 64.701379 331.654242 
Q 64.699524 332.170076 64.442535 332.459537 
Q 64.185545 332.748998 63.771765 332.748998 
" clip-path="url(#pcc582dec13)" style="fill: #ff0000"/>
   </g>
   <g id="patch_27">
    <path d="M 145.657615 337.090909 
L 227.263282 337.090909 
L 227.263282 320.769776 
L 145.657615 320.769776 
L 145.657615 337.090909 
" clip-path="url(#pcc582dec13)" style="fill: none; stroke: #ffffff; stroke-width: 0.48; stroke-linejoin: miter"/>
   </g>
   <g id="patch_28">
    <path d="M 158.714522 328.930342 
C 158.714522 330.132197 157.740226 331.106494 156.538371 331.106494 
C 155.336516 331.106494 154.36222 330.132197 154.36222 328.930342 
C 154.36222 327.728487 155.336516 326.754191 156.538371 326.754191 
C 157.740226 326.754191 158.714522 327.728487 158.714522 328.930342 
" clip-path="url(#pcc582dec13)" style="fill: none; stroke: #ffffff; stroke-width: 0.48; stroke-linejoin: miter"/>
   </g>
   <g id="patch_29">
    <path d="M 173.015368 334.37072 
L 173.015368 331.650531 
L 172.536644 331.650531 
L 171.887213 333.543159 
Q 171.792581 333.821487 171.742482 333.979206 
L 171.73506 333.979206 
Q 171.718361 333.897563 171.610741 333.576559 
L 170.966876 331.650531 
L 170.428776 331.650531 
L 170.428776 334.37072 
L 170.770191 334.37072 
L 170.770191 332.05689 
L 170.781324 332.05689 
L 171.560642 334.37072 
L 171.883502 334.37072 
L 172.66653 332.094 
L 172.673952 332.094 
L 172.673952 334.37072 
L 173.015368 334.37072 
M 181.756711 334.37072 
L 180.647112 331.650531 
L 180.259309 331.650531 
L 179.214652 334.37072 
L 179.595033 334.37072 
L 179.895627 333.543159 
L 181.031204 333.543159 
L 181.350353 334.37072 
L 181.756711 334.37072 
M 184.801616 331.650531 
L 184.801616 334.37072 
L 185.781329 334.37072 
Q 186.479004 334.37072 186.764754 333.983845 
Q 187.050503 333.596969 187.050503 332.995782 
Q 187.050503 332.680344 186.980921 332.458609 
Q 186.911339 332.236875 186.789803 332.066167 
Q 186.668267 331.89546 186.505909 331.798045 
Q 186.343551 331.70063 186.165421 331.675581 
Q 185.987292 331.650531 185.740508 331.650531 
L 184.801616 331.650531 
M 184.193006 334.37072 
L 184.193006 331.650531 
L 183.849735 331.650531 
L 183.849735 333.786232 
L 183.842313 333.786232 
L 182.420987 331.650531 
L 182.053594 331.650531 
L 182.053594 334.37072 
L 182.395009 334.37072 
L 182.395009 332.235019 
L 182.402432 332.235019 
L 183.823758 334.37072 
L 184.193006 334.37072 
M 178.914058 334.37072 
L 178.914058 331.650531 
L 178.552232 331.650531 
L 178.552232 332.767553 
L 177.138328 332.767553 
L 177.138328 331.650531 
L 176.778357 331.650531 
L 176.778357 334.37072 
L 177.138328 334.37072 
L 177.138328 333.090413 
L 178.552232 333.090413 
L 178.552232 334.37072 
L 178.914058 334.37072 
M 191.687442 334.37072 
L 191.687442 334.04786 
L 190.01562 334.04786 
L 190.01562 333.127523 
L 191.520445 333.127523 
L 191.520445 332.804663 
L 190.01562 332.804663 
L 190.01562 331.973391 
L 191.624354 331.973391 
L 191.624354 331.650531 
L 189.65565 331.650531 
L 189.65565 334.37072 
L 191.687442 334.37072 
M 174.74471 332.899295 
L 174.74471 332.891873 
Q 175.117669 332.724876 175.117669 332.344495 
Q 175.117669 332.047612 174.890368 331.842577 
Q 174.663067 331.637543 174.323508 331.637543 
Q 174.015492 331.637543 173.793757 331.813817 
Q 173.572023 331.990091 173.50708 332.344495 
L 173.841073 332.405727 
Q 173.874472 332.168221 174.001575 332.04019 
Q 174.128678 331.912159 174.33093 331.912159 
Q 174.507204 331.912159 174.641729 332.02349 
Q 174.776254 332.134821 174.776254 332.337073 
Q 174.776254 332.476237 174.713166 332.56994 
Q 174.650079 332.663644 174.553592 332.713743 
Q 174.457105 332.763842 174.379173 332.776831 
Q 174.301241 332.789819 174.167644 332.789819 
L 174.128678 333.082991 
Q 174.267842 333.047736 174.364329 333.047736 
Q 174.601835 333.047736 174.749349 333.198033 
Q 174.896863 333.34833 174.896863 333.576559 
Q 174.896863 333.814065 174.734505 333.978278 
Q 174.572147 334.142492 174.338352 334.142492 
Q 174.121256 334.142492 173.988587 334.008894 
Q 173.855917 333.875297 173.805818 333.606247 
L 173.471825 333.652635 
Q 173.510791 333.997761 173.744586 334.207435 
Q 173.978381 334.417108 174.338352 334.417108 
Q 174.715022 334.417108 174.985 334.178674 
Q 175.254977 333.94024 175.254977 333.569137 
Q 175.254977 333.339052 175.126019 333.143295 
Q 174.99706 332.947538 174.74471 332.899295 
M 189.228881 334.37072 
L 189.228881 334.04786 
L 187.887342 334.04786 
L 187.887342 331.650531 
L 187.527371 331.650531 
L 187.527371 334.37072 
L 189.228881 334.37072 
M 180.921728 333.25741 
L 179.997681 333.25741 
L 180.301986 332.442837 
Q 180.389195 332.209042 180.441149 331.934425 
L 180.450427 331.934425 
Q 180.502381 332.134821 180.545058 332.254502 
Q 180.587735 332.374183 180.921728 333.25741 
M 185.161586 334.04786 
L 185.161586 331.973391 
L 185.733086 331.973391 
Q 185.920493 331.973391 186.040174 331.988236 
Q 186.159855 332.00308 186.28603 332.070806 
Q 186.412205 332.138532 186.50962 332.284191 
Q 186.607035 332.429849 186.643217 332.607051 
Q 186.6794 332.784253 186.6794 332.98836 
Q 186.6794 333.357608 186.584768 333.582125 
Q 186.490137 333.806643 186.346334 333.904985 
Q 186.202532 334.003328 186.06244 334.025594 
Q 185.922349 334.04786 185.744219 334.04786 
L 185.161586 334.04786 
" clip-path="url(#pcc582dec13)" style="fill: #ff0000"/>
   </g>
  </g>
 </g>
 <defs>
  <clipPath id="pcc582dec13">
   <rect x="7.2" y="7.2" width="412.924675" height="345.6"/>
  </clipPath>
 </defs>
</svg>
