<?xml version="1.0" encoding="utf-8" standalone="no"?>
<!DOCTYPE svg PUBLIC "-//W3C//DTD SVG 1.1//EN"
  "http://www.w3.org/Graphics/SVG/1.1/DTD/svg11.dtd">
<svg xmlns:xlink="http://www.w3.org/1999/xlink" width="446.00905pt" height="360pt" viewBox="0 0 446.00905 360" xmlns="http://www.w3.org/2000/svg" version="1.1">
 <metadata>
  <rdf:RDF xmlns:dc="http://purl.org/dc/elements/1.1/" xmlns:cc="http://creativecommons.org/ns#" xmlns:rdf="http://www.w3.org/1999/02/22-rdf-syntax-ns#">
   <cc:Work>
    <dc:type rdf:resource="http://purl.org/dc/dcmitype/StillImage"/>
    <dc:date>2026-03-19T14:26:01.650598</dc:date>
    <dc:format>image/svg+xml</dc:format>
    <dc:creator>
     <cc:Agent>
      <dc:title>Matplotlib v3.10.8, https://matplotlib.org/</dc:title>
     </cc:Agent>
    </dc:creator>
   </cc:Work>
  </rdf:RDF>
 </metadata>
 <defs>
  <style type="text/css">*{stroke-linejoin: round; stroke-linecap: butt}</style>
 </defs>
 <g id="figure_1">
  <g id="patch_1">
   <path d="M 0 360 
L 446.00905 360 
L 446.00905 0 
L 0 0 
z
" style="fill: #1a1a2e"/>
  </g>
  <g id="axes_1">
   <g id="patch_2">
    <path d="M 7.2 352.8 
L 438.80905 352.8 
L 438.80905 7.2 
L 7.2 7.2 
z
" style="fill: #1a1a2e"/>
   </g>
   <g id="patch_3">
    <path d="M 26.818593 193.505553 
L 168.982312 193.505553 
L 168.982312 79.774578 
L 26.818593 79.774578 
L 26.818593 193.505553 
" clip-path="url(#pccbadba705)" style="fill: none; stroke: #ffffff; stroke-width: 0.48; stroke-linejoin: miter"/>
   </g>
   <g id="patch_4">
    <path d="M 38.436065 91.147676 
L 38.436065 86.882764 
L 37.685487 86.882764 
L 36.667261 89.850165 
Q 36.518891 90.286548 36.440342 90.533831 
L 36.428705 90.533831 
Q 36.402522 90.405826 36.233788 89.902531 
L 35.22429 86.882764 
L 34.380617 86.882764 
L 34.380617 91.147676 
L 34.915913 91.147676 
L 34.915913 87.519883 
L 34.933368 87.519883 
L 36.155239 91.147676 
L 36.661443 91.147676 
L 37.889132 87.578067 
L 37.900769 87.578067 
L 37.900769 91.147676 
L 38.436065 91.147676 
M 51.812643 91.147676 
L 50.072931 86.882764 
L 49.464905 86.882764 
L 47.827016 91.147676 
L 48.423406 91.147676 
L 48.894699 89.850165 
L 50.675139 89.850165 
L 51.175524 91.147676 
L 51.812643 91.147676 
M 54.797499 88.133727 
L 55.338613 88.090089 
Q 55.31243 87.476244 54.880412 87.143139 
Q 54.448393 86.810034 53.738544 86.810034 
Q 53.046151 86.810034 52.644679 87.144594 
Q 52.243207 87.479154 52.243207 87.991176 
Q 52.243207 88.442104 52.560312 88.724298 
Q 52.877416 89.006492 53.597447 89.162136 
Q 54.317478 89.317779 54.622946 89.477786 
Q 54.928414 89.637792 54.928414 89.986898 
Q 54.928414 90.321458 54.636038 90.516376 
Q 54.343661 90.711293 53.869459 90.711293 
Q 53.363255 90.711293 53.005422 90.477101 
Q 52.647588 90.242909 52.609768 89.730887 
L 52.074472 89.777435 
Q 52.100655 90.417462 52.54722 90.818934 
Q 52.993785 91.220406 53.892733 91.220406 
Q 54.596763 91.220406 55.0346 90.856754 
Q 55.472437 90.493102 55.472437 89.94326 
Q 55.472437 89.509787 55.233882 89.252321 
Q 54.995326 88.994856 54.660766 88.872668 
Q 54.326206 88.750481 53.796729 88.634113 
Q 53.200339 88.500289 52.989421 88.36501 
Q 52.778503 88.229732 52.778503 87.953356 
Q 52.778503 87.64207 53.051969 87.479154 
Q 53.325435 87.316238 53.761818 87.316238 
Q 54.244748 87.316238 54.503668 87.521337 
Q 54.762589 87.726437 54.797499 88.133727 
M 46.724423 88.878487 
Q 47.021163 88.724298 47.168079 88.487197 
Q 47.314994 88.250096 47.314994 87.970811 
Q 47.314994 87.557703 46.996435 87.220233 
Q 46.677876 86.882764 45.901115 86.882764 
L 44.301046 86.882764 
L 44.301046 91.147676 
L 45.933116 91.147676 
Q 46.500413 91.147676 46.832064 91.006579 
Q 47.163715 90.865482 47.344086 90.565833 
Q 47.524458 90.266183 47.524458 89.90835 
Q 47.524458 89.550516 47.325176 89.275595 
Q 47.125895 89.000674 46.724423 88.878487 
M 59.4377 91.147676 
L 59.4377 90.641472 
L 56.816495 90.641472 
L 56.816495 89.198501 
L 59.17587 89.198501 
L 59.17587 88.692297 
L 56.816495 88.692297 
L 56.816495 87.388968 
L 59.338786 87.388968 
L 59.338786 86.882764 
L 56.252107 86.882764 
L 56.252107 91.147676 
L 59.4377 91.147676 
M 41.147455 88.840667 
L 41.147455 88.82903 
Q 41.732207 88.567201 41.732207 87.970811 
Q 41.732207 87.505337 41.375828 87.183868 
Q 41.019449 86.8624 40.487063 86.8624 
Q 40.004133 86.8624 39.656481 87.138775 
Q 39.30883 87.415151 39.207007 87.970811 
L 39.730666 88.066815 
Q 39.783032 87.694436 39.982313 87.4937 
Q 40.181595 87.292964 40.498699 87.292964 
Q 40.775075 87.292964 40.985993 87.467517 
Q 41.196911 87.64207 41.196911 87.959174 
Q 41.196911 88.177366 41.097998 88.324281 
Q 40.999085 88.471197 40.847805 88.549745 
Q 40.696526 88.628294 40.574339 88.648659 
Q 40.452152 88.669023 40.242688 88.669023 
L 40.181595 89.12868 
Q 40.399786 89.073404 40.551065 89.073404 
Q 40.923445 89.073404 41.154728 89.309051 
Q 41.386011 89.544697 41.386011 89.902531 
Q 41.386011 90.274911 41.131454 90.532377 
Q 40.876898 90.789842 40.510336 90.789842 
Q 40.169958 90.789842 39.961949 90.580379 
Q 39.75394 90.370915 39.675391 89.949079 
L 39.151732 90.021809 
Q 39.212826 90.562923 39.579387 90.891665 
Q 39.945948 91.220406 40.510336 91.220406 
Q 41.100907 91.220406 41.524198 90.846572 
Q 41.947489 90.472738 41.947489 89.890894 
Q 41.947489 89.530151 41.745299 89.223229 
Q 41.543108 88.916307 41.147455 88.840667 
M 50.503495 89.402146 
L 49.054706 89.402146 
L 49.531817 88.125 
Q 49.66855 87.758438 49.750008 87.327874 
L 49.764554 87.327874 
Q 49.846012 87.64207 49.912924 87.829714 
Q 49.979836 88.017359 50.503495 89.402146 
M 44.865434 90.641472 
L 44.865434 89.175227 
L 45.854567 89.175227 
Q 46.468412 89.175227 46.704058 89.36869 
Q 46.939705 89.562153 46.939705 89.90835 
Q 46.939705 90.251637 46.718605 90.446555 
Q 46.497504 90.641472 45.927298 90.641472 
L 44.865434 90.641472 
M 44.865434 88.669023 
L 44.865434 87.388968 
L 45.717834 87.388968 
Q 46.043666 87.388968 46.251675 87.420969 
Q 46.459684 87.452971 46.609509 87.596977 
Q 46.759334 87.740983 46.759334 88.043542 
Q 46.759334 88.331554 46.610964 88.468287 
Q 46.462594 88.605021 46.269131 88.637022 
Q 46.075668 88.669023 45.790564 88.669023 
L 44.865434 88.669023 
" clip-path="url(#pccbadba705)" style="fill: #ff0000"/>
   </g>
   <g id="patch_5">
    <path d="M 53.189963 143.748252 
L 57.312711 143.748252 
L 57.312711 129.53188 
L 53.189963 129.53188 
L 53.189963 143.748252 
" clip-path="url(#pccbadba705)" style="fill: none; stroke: #ffffff; stroke-width: 0.48; stroke-linejoin: miter"/>
   </g>
   <g id="patch_6">
    <path d="M 138.488194 143.748252 
L 142.610942 143.748252 
L 142.610942 129.53188 
L 138.488194 129.53188 
L 138.488194 143.748252 
" clip-path="url(#pccbadba705)" style="fill: none; stroke: #ffffff; stroke-width: 0.48; stroke-linejoin: miter"/>
   </g>
   <g id="patch_7">
    <path d="M 180.355409 193.505553 
L 294.086384 193.505553 
L 294.086384 22.909091 
L 180.355409 22.909091 
L 180.355409 193.505553 
" clip-path="url(#pccbadba705)" style="fill: none; stroke: #ffffff; stroke-width: 0.48; stroke-linejoin: miter"/>
   </g>
   <g id="patch_8">
    <path d="M 230.112711 197.770465 
L 244.329083 197.770465 
L 244.329083 193.505553 
L 230.112711 193.505553 
L 230.112711 197.770465 
" clip-path="url(#pccbadba705)" style="fill: none; stroke: #ffffff; stroke-width: 0.48; stroke-linejoin: miter"/>
   </g>
   <g id="patch_9">
    <path d="M 239.495516 136.640066 
C 239.495516 137.896303 238.477134 138.914685 237.220897 138.914685 
C 235.964659 138.914685 234.946277 137.896303 234.946277 136.640066 
C 234.946277 135.383828 235.964659 134.365446 237.220897 134.365446 
C 238.477134 134.365446 239.495516 135.383828 239.495516 136.640066 
" clip-path="url(#pccbadba705)" style="fill: none; stroke: #ffffff; stroke-width: 0.48; stroke-linejoin: miter"/>
   </g>
   <g id="patch_10">
    <path d="M 235.159523 72.666392 
L 239.282271 72.666392 
L 239.282271 30.017277 
L 235.159523 30.017277 
L 235.159523 72.666392 
" clip-path="url(#pccbadba705)" style="fill: none; stroke: #ffffff; stroke-width: 0.48; stroke-linejoin: miter"/>
   </g>
   <g id="patch_11">
    <path d="M 213.821098 37.125463 
L 213.821098 32.860551 
L 213.07052 32.860551 
L 212.052294 35.827952 
Q 211.903924 36.264335 211.825375 36.511618 
L 211.813738 36.511618 
Q 211.787555 36.383613 211.618821 35.880318 
L 210.609323 32.860551 
L 209.76565 32.860551 
L 209.76565 37.125463 
L 210.300946 37.125463 
L 210.300946 33.49767 
L 210.318401 33.49767 
L 211.540272 37.125463 
L 212.046476 37.125463 
L 213.274165 33.555854 
L 213.285802 33.555854 
L 213.285802 37.125463 
L 213.821098 37.125463 
M 191.972881 37.125463 
L 191.972881 32.860551 
L 191.222303 32.860551 
L 190.204077 35.827952 
Q 190.055707 36.264335 189.977158 36.511618 
L 189.965522 36.511618 
Q 189.939339 36.383613 189.770604 35.880318 
L 188.761106 32.860551 
L 187.917433 32.860551 
L 187.917433 37.125463 
L 188.452729 37.125463 
L 188.452729 33.49767 
L 188.470184 33.49767 
L 189.692055 37.125463 
L 190.198259 37.125463 
L 191.425948 33.555854 
L 191.437585 33.555854 
L 191.437585 37.125463 
L 191.972881 37.125463 
M 209.31763 37.125463 
L 207.577919 32.860551 
L 206.969893 32.860551 
L 205.332004 37.125463 
L 205.928393 37.125463 
L 206.399686 35.827952 
L 208.180127 35.827952 
L 208.680512 37.125463 
L 209.31763 37.125463 
M 205.27091 37.125463 
L 204.526151 35.964685 
Q 204.150862 35.377024 203.723207 35.187925 
L 203.723207 35.176288 
Q 204.307959 35.097739 204.613427 34.803908 
Q 204.918895 34.510077 204.918895 34.027147 
Q 204.918895 33.759499 204.812709 33.518034 
Q 204.706522 33.276569 204.508695 33.118017 
Q 204.310869 32.959465 204.049039 32.910008 
Q 203.78721 32.860551 203.400284 32.860551 
L 201.512202 32.860551 
L 201.512202 37.125463 
L 202.07659 37.125463 
L 202.07659 35.2432 
L 202.728255 35.2432 
Q 202.975538 35.2432 203.125363 35.286838 
Q 203.275188 35.330476 203.445377 35.494847 
Q 203.615566 35.659218 203.769754 35.889046 
Q 203.923943 36.118874 204.561061 37.125463 
L 205.27091 37.125463 
M 217.931821 37.125463 
L 217.931821 36.619259 
L 215.310617 36.619259 
L 215.310617 35.176288 
L 217.669991 35.176288 
L 217.669991 34.670084 
L 215.310617 34.670084 
L 215.310617 33.366755 
L 217.832907 33.366755 
L 217.832907 32.860551 
L 214.746229 32.860551 
L 214.746229 37.125463 
L 217.931821 37.125463 
M 200.749988 33.366755 
L 200.749988 32.860551 
L 197.872772 32.860551 
L 197.872772 37.125463 
L 198.43716 37.125463 
L 198.43716 35.193743 
L 200.441611 35.193743 
L 200.441611 34.687539 
L 198.43716 34.687539 
L 198.43716 33.366755 
L 200.749988 33.366755 
M 194.684271 34.818454 
L 194.684271 34.806817 
Q 195.269023 34.544988 195.269023 33.948598 
Q 195.269023 33.483124 194.912644 33.161655 
Q 194.556265 32.840187 194.023879 32.840187 
Q 193.540949 32.840187 193.193297 33.116562 
Q 192.845646 33.392938 192.743823 33.948598 
L 193.267482 34.044602 
Q 193.319848 33.672223 193.51913 33.471487 
Q 193.718411 33.270751 194.035516 33.270751 
Q 194.311891 33.270751 194.522809 33.445304 
Q 194.733728 33.619857 194.733728 33.936961 
Q 194.733728 34.155153 194.634814 34.302068 
Q 194.535901 34.448983 194.384622 34.527532 
Q 194.233342 34.606081 194.111155 34.626446 
Q 193.988968 34.64681 193.779505 34.64681 
L 193.718411 35.106466 
Q 193.936602 35.051191 194.087881 35.051191 
Q 194.460261 35.051191 194.691544 35.286838 
Q 194.922827 35.522484 194.922827 35.880318 
Q 194.922827 36.252698 194.66827 36.510163 
Q 194.413714 36.767629 194.047152 36.767629 
Q 193.706774 36.767629 193.498765 36.558166 
Q 193.290756 36.348702 193.212207 35.926866 
L 192.688548 35.999596 
Q 192.749642 36.54071 193.116203 36.869452 
Q 193.482764 37.198193 194.047152 37.198193 
Q 194.637723 37.198193 195.061014 36.824359 
Q 195.484305 36.450525 195.484305 35.868681 
Q 195.484305 35.507938 195.282115 35.201016 
Q 195.079924 34.894094 194.684271 34.818454 
M 223.020041 37.125463 
L 223.020041 36.619259 
L 220.916677 36.619259 
L 220.916677 32.860551 
L 220.352289 32.860551 
L 220.352289 37.125463 
L 223.020041 37.125463 
M 208.008483 35.379933 
L 206.559693 35.379933 
L 207.036805 34.102787 
Q 207.173538 33.736225 207.254996 33.305661 
L 207.269542 33.305661 
Q 207.351 33.619857 207.417912 33.807501 
Q 207.484824 33.995146 208.008483 35.379933 
M 202.07659 34.736996 
L 202.07659 33.328935 
L 203.423558 33.328935 
Q 203.912306 33.328935 204.124679 33.53258 
Q 204.337052 33.736225 204.337052 34.027147 
Q 204.337052 34.251157 204.209046 34.431528 
Q 204.081041 34.6119 203.867213 34.674448 
Q 203.653386 34.736996 203.286824 34.736996 
L 202.07659 34.736996 
" clip-path="url(#pccbadba705)" style="fill: #ff0000"/>
   </g>
   <g id="patch_12">
    <path d="M 305.459482 193.505553 
L 419.190457 193.505553 
L 419.190457 22.909091 
L 305.459482 22.909091 
L 305.459482 193.505553 
" clip-path="url(#pccbadba705)" style="fill: none; stroke: #ffffff; stroke-width: 0.48; stroke-linejoin: miter"/>
   </g>
   <g id="patch_13">
    <path d="M 355.216783 197.770465 
L 369.433155 197.770465 
L 369.433155 193.505553 
L 355.216783 193.505553 
L 355.216783 197.770465 
" clip-path="url(#pccbadba705)" style="fill: none; stroke: #ffffff; stroke-width: 0.48; stroke-linejoin: miter"/>
   </g>
   <g id="patch_14">
    <path d="M 364.599589 136.640066 
C 364.599589 137.896303 363.581207 138.914685 362.324969 138.914685 
C 361.068731 138.914685 360.05035 137.896303 360.05035 136.640066 
C 360.05035 135.383828 361.068731 134.365446 362.324969 134.365446 
C 363.581207 134.365446 364.599589 135.383828 364.599589 136.640066 
" clip-path="url(#pccbadba705)" style="fill: none; stroke: #ffffff; stroke-width: 0.48; stroke-linejoin: miter"/>
   </g>
   <g id="patch_15">
    <path d="M 360.263595 72.666392 
L 364.386343 72.666392 
L 364.386343 30.017277 
L 360.263595 30.017277 
L 360.263595 72.666392 
" clip-path="url(#pccbadba705)" style="fill: none; stroke: #ffffff; stroke-width: 0.48; stroke-linejoin: miter"/>
   </g>
   <g id="patch_16">
    <path d="M 338.92517 37.125463 
L 338.92517 32.860551 
L 338.174592 32.860551 
L 337.156366 35.827952 
Q 337.007996 36.264335 336.929448 36.511618 
L 336.917811 36.511618 
Q 336.891628 36.383613 336.722893 35.880318 
L 335.713395 32.860551 
L 334.869722 32.860551 
L 334.869722 37.125463 
L 335.405018 37.125463 
L 335.405018 33.49767 
L 335.422473 33.49767 
L 336.644344 37.125463 
L 337.150548 37.125463 
L 338.378237 33.555854 
L 338.389874 33.555854 
L 338.389874 37.125463 
L 338.92517 37.125463 
M 317.076953 37.125463 
L 317.076953 32.860551 
L 316.326375 32.860551 
L 315.30815 35.827952 
Q 315.15978 36.264335 315.081231 36.511618 
L 315.069594 36.511618 
Q 315.043411 36.383613 314.874676 35.880318 
L 313.865178 32.860551 
L 313.021505 32.860551 
L 313.021505 37.125463 
L 313.556801 37.125463 
L 313.556801 33.49767 
L 313.574257 33.49767 
L 314.796128 37.125463 
L 315.302331 37.125463 
L 316.530021 33.555854 
L 316.541658 33.555854 
L 316.541658 37.125463 
L 317.076953 37.125463 
M 334.421703 37.125463 
L 332.681991 32.860551 
L 332.073965 32.860551 
L 330.436076 37.125463 
L 331.032465 37.125463 
L 331.503759 35.827952 
L 333.284199 35.827952 
L 333.784584 37.125463 
L 334.421703 37.125463 
M 349.244162 37.125463 
L 348.499402 35.964685 
Q 348.124113 35.377024 347.696458 35.187925 
L 347.696458 35.176288 
Q 348.281211 35.097739 348.586679 34.803908 
Q 348.892146 34.510077 348.892146 34.027147 
Q 348.892146 33.759499 348.78596 33.518034 
Q 348.679773 33.276569 348.481947 33.118017 
Q 348.28412 32.959465 348.022291 32.910008 
Q 347.760461 32.860551 347.373535 32.860551 
L 345.485454 32.860551 
L 345.485454 37.125463 
L 346.049842 37.125463 
L 346.049842 35.2432 
L 346.701506 35.2432 
Q 346.94879 35.2432 347.098614 35.286838 
Q 347.248439 35.330476 347.418628 35.494847 
Q 347.588817 35.659218 347.743006 35.889046 
Q 347.897194 36.118874 348.534313 37.125463 
L 349.244162 37.125463 
M 330.374983 37.125463 
L 329.630223 35.964685 
Q 329.254934 35.377024 328.827279 35.187925 
L 328.827279 35.176288 
Q 329.412032 35.097739 329.7175 34.803908 
Q 330.022967 34.510077 330.022967 34.027147 
Q 330.022967 33.759499 329.916781 33.518034 
Q 329.810595 33.276569 329.612768 33.118017 
Q 329.414941 32.959465 329.153112 32.910008 
Q 328.891282 32.860551 328.504356 32.860551 
L 326.616275 32.860551 
L 326.616275 37.125463 
L 327.180663 37.125463 
L 327.180663 35.2432 
L 327.832327 35.2432 
Q 328.079611 35.2432 328.229435 35.286838 
Q 328.37926 35.330476 328.549449 35.494847 
Q 328.719638 35.659218 328.873827 35.889046 
Q 329.028015 36.118874 329.665134 37.125463 
L 330.374983 37.125463 
M 343.035893 37.125463 
L 343.035893 36.619259 
L 340.414689 36.619259 
L 340.414689 35.176288 
L 342.774064 35.176288 
L 342.774064 34.670084 
L 340.414689 34.670084 
L 340.414689 33.366755 
L 342.93698 33.366755 
L 342.93698 32.860551 
L 339.850301 32.860551 
L 339.850301 37.125463 
L 343.035893 37.125463 
M 325.85406 33.366755 
L 325.85406 32.860551 
L 322.976845 32.860551 
L 322.976845 37.125463 
L 323.541233 37.125463 
L 323.541233 35.193743 
L 325.545683 35.193743 
L 325.545683 34.687539 
L 323.541233 34.687539 
L 323.541233 33.366755 
L 325.85406 33.366755 
M 319.788343 34.818454 
L 319.788343 34.806817 
Q 320.373096 34.544988 320.373096 33.948598 
Q 320.373096 33.483124 320.016717 33.161655 
Q 319.660338 32.840187 319.127951 32.840187 
Q 318.645021 32.840187 318.29737 33.116562 
Q 317.949718 33.392938 317.847896 33.948598 
L 318.371555 34.044602 
Q 318.423921 33.672223 318.623202 33.471487 
Q 318.822483 33.270751 319.139588 33.270751 
Q 319.415964 33.270751 319.626882 33.445304 
Q 319.8378 33.619857 319.8378 33.936961 
Q 319.8378 34.155153 319.738887 34.302068 
Q 319.639973 34.448983 319.488694 34.527532 
Q 319.337415 34.606081 319.215228 34.626446 
Q 319.09304 34.64681 318.883577 34.64681 
L 318.822483 35.106466 
Q 319.040675 35.051191 319.191954 35.051191 
Q 319.564334 35.051191 319.795616 35.286838 
Q 320.026899 35.522484 320.026899 35.880318 
Q 320.026899 36.252698 319.772343 36.510163 
Q 319.517786 36.767629 319.151225 36.767629 
Q 318.810846 36.767629 318.602837 36.558166 
Q 318.394829 36.348702 318.31628 35.926866 
L 317.792621 35.999596 
Q 317.853714 36.54071 318.220276 36.869452 
Q 318.586837 37.198193 319.151225 37.198193 
Q 319.741796 37.198193 320.165087 36.824359 
Q 320.588378 36.450525 320.588378 35.868681 
Q 320.588378 35.507938 320.386187 35.201016 
Q 320.183997 34.894094 319.788343 34.818454 
M 333.112555 35.379933 
L 331.663765 35.379933 
L 332.140877 34.102787 
Q 332.27761 33.736225 332.359068 33.305661 
L 332.373614 33.305661 
Q 332.455072 33.619857 332.521984 33.807501 
Q 332.588896 33.995146 333.112555 35.379933 
M 346.049842 34.736996 
L 346.049842 33.328935 
L 347.396809 33.328935 
Q 347.885557 33.328935 348.09793 33.53258 
Q 348.310303 33.736225 348.310303 34.027147 
Q 348.310303 34.251157 348.182297 34.431528 
Q 348.054292 34.6119 347.840464 34.674448 
Q 347.626637 34.736996 347.260076 34.736996 
L 346.049842 34.736996 
M 327.180663 34.736996 
L 327.180663 33.328935 
L 328.52763 33.328935 
Q 329.016378 33.328935 329.228751 33.53258 
Q 329.441124 33.736225 329.441124 34.027147 
Q 329.441124 34.251157 329.313118 34.431528 
Q 329.185113 34.6119 328.971286 34.674448 
Q 328.757458 34.736996 328.390897 34.736996 
L 327.180663 34.736996 
" clip-path="url(#pccbadba705)" style="fill: #ff0000"/>
   </g>
   <g id="patch_17">
    <path d="M 95.057178 283.068696 
L 95.823829 280.762834 
L 96.370217 278.325058 
L 96.673103 275.779033 
L 96.712282 273.152482 
L 96.471275 270.476726 
L 95.937948 267.786096 
L 95.105032 265.117249 
L 93.970517 262.508398 
L 92.537926 259.998479 
L 90.81644 257.626269 
L 88.820882 255.4295 
L 86.571552 253.44397 
L 84.093916 251.702693 
L 81.41816 250.2351 
L 78.578616 249.066328 
L 75.613073 248.216601 
L 72.562004 247.700735 
L 69.467709 247.527766 
L 66.373413 247.700735 
L 63.322344 248.216601 
L 60.356802 249.066328 
L 57.517257 250.2351 
L 54.841501 251.702693 
L 52.363865 253.44397 
L 50.114535 255.4295 
L 48.118977 257.626269 
L 46.397491 259.998479 
L 44.9649 262.508398 
L 43.830386 265.117249 
L 42.99747 267.786096 
L 42.464143 270.476726 
L 42.223136 273.152482 
L 42.262314 275.779033 
L 42.565201 278.325058 
L 43.111589 280.762834 
L 43.878239 283.068696 
L 44.839642 285.223373 
L 45.968801 287.212187 
L 47.238045 289.025117 
L 48.619811 290.65671 
L 50.087404 292.105881 
L 51.615687 293.375566 
L 53.1817 294.472282 
L 54.765176 295.405586 
L 56.348952 296.187453 
L 57.919253 296.83161 
L 59.465849 297.352832 
L 60.982083 297.766231 
L 62.464762 298.086564 
L 63.913932 298.327571 
L 65.332532 298.501386 
L 66.725944 298.618017 
L 68.101466 298.684922 
L 69.467709 298.706705 
L 70.833951 298.684922 
L 72.209474 298.618017 
L 73.602886 298.501386 
L 75.021485 298.327571 
L 76.470655 298.086564 
L 77.953335 297.766231 
L 79.469568 297.352832 
L 81.016165 296.83161 
L 82.586466 296.187453 
L 84.170242 295.405586 
L 85.753718 294.472282 
L 87.319731 293.375566 
L 88.848014 292.105881 
L 90.315607 290.65671 
L 91.697373 289.025117 
L 92.966617 287.212187 
L 94.095776 285.223373 
L 95.057178 283.068696 
" clip-path="url(#pccbadba705)" style="fill: none; stroke: #ffffff; stroke-width: 0.48; stroke-linejoin: miter"/>
   </g>
   <g id="patch_18">
    <path d="M 71.742328 283.068696 
C 71.742328 284.324934 70.723946 285.343316 69.467709 285.343316 
C 68.211471 285.343316 67.193089 284.324934 67.193089 283.068696 
C 67.193089 281.812458 68.211471 280.794077 69.467709 280.794077 
C 70.723946 280.794077 71.742328 281.812458 71.742328 283.068696 
" clip-path="url(#pccbadba705)" style="fill: none; stroke: #ffffff; stroke-width: 0.48; stroke-linejoin: miter"/>
   </g>
   <g id="patch_19">
    <path d="M 73.410667 285.315581 
L 73.410667 283.735876 
L 71.606953 283.735876 
L 71.606953 284.244989 
L 72.863734 284.244989 
L 72.863734 285.036296 
Q 72.287709 285.475588 71.61859 285.475588 
Q 71.179298 285.475588 70.805464 285.282125 
Q 70.431629 285.088662 70.241076 284.710464 
Q 70.050522 284.332266 70.050522 283.762059 
Q 70.050522 282.999845 70.443266 282.528551 
Q 70.83601 282.057258 71.606953 282.057258 
Q 72.104429 282.057258 72.412806 282.288541 
Q 72.721183 282.519824 72.840461 282.97948 
L 73.346664 282.836928 
Q 73.195385 282.205628 72.760457 281.889978 
Q 72.325529 281.574328 71.606953 281.574328 
Q 70.914559 281.574328 70.435993 281.860886 
Q 69.957427 282.147444 69.711598 282.669648 
Q 69.465769 283.191853 69.465769 283.79697 
Q 69.465769 284.789013 70.066523 285.386857 
Q 70.667276 285.984701 71.647682 285.984701 
Q 72.604814 285.984701 73.410667 285.315581 
M 78.045049 285.315581 
L 78.045049 283.735876 
L 76.241335 283.735876 
L 76.241335 284.244989 
L 77.498116 284.244989 
L 77.498116 285.036296 
Q 76.922091 285.475588 76.252972 285.475588 
Q 75.81368 285.475588 75.439846 285.282125 
Q 75.066011 285.088662 74.875458 284.710464 
Q 74.684904 284.332266 74.684904 283.762059 
Q 74.684904 282.999845 75.077648 282.528551 
Q 75.470392 282.057258 76.241335 282.057258 
Q 76.738811 282.057258 77.047188 282.288541 
Q 77.355565 282.519824 77.474843 282.97948 
L 77.981046 282.836928 
Q 77.829767 282.205628 77.394839 281.889978 
Q 76.959911 281.574328 76.241335 281.574328 
Q 75.548941 281.574328 75.070375 281.860886 
Q 74.591809 282.147444 74.34598 282.669648 
Q 74.100151 283.191853 74.100151 283.79697 
Q 74.100151 284.789013 74.700905 285.386857 
Q 75.301658 285.984701 76.282064 285.984701 
Q 77.239196 285.984701 78.045049 285.315581 
M 59.760623 285.91197 
L 59.760623 281.647059 
L 59.010045 281.647059 
L 57.991819 284.61446 
Q 57.843449 285.050842 57.7649 285.298126 
L 57.753263 285.298126 
Q 57.72708 285.17012 57.558346 284.666826 
L 56.548848 281.647059 
L 55.705175 281.647059 
L 55.705175 285.91197 
L 56.240471 285.91197 
L 56.240471 282.284177 
L 56.257926 282.284177 
L 57.479797 285.91197 
L 57.986001 285.91197 
L 59.21369 282.342362 
L 59.225327 282.342362 
L 59.225327 285.91197 
L 59.760623 285.91197 
M 68.840288 285.91197 
L 68.840288 285.405767 
L 66.219084 285.405767 
L 66.219084 283.962795 
L 68.578458 283.962795 
L 68.578458 283.456592 
L 66.219084 283.456592 
L 66.219084 282.153263 
L 68.741374 282.153263 
L 68.741374 281.647059 
L 65.654696 281.647059 
L 65.654696 285.91197 
L 68.840288 285.91197 
M 62.472013 283.604962 
L 62.472013 283.593325 
Q 63.056765 283.331495 63.056765 282.735106 
Q 63.056765 282.269631 62.700386 281.948163 
Q 62.344007 281.626694 61.81162 281.626694 
Q 61.32869 281.626694 60.981039 281.90307 
Q 60.633388 282.179445 60.531565 282.735106 
L 61.055224 282.83111 
Q 61.10759 282.45873 61.306871 282.257994 
Q 61.506153 282.057258 61.823257 282.057258 
Q 62.099633 282.057258 62.310551 282.231811 
Q 62.521469 282.406364 62.521469 282.723469 
Q 62.521469 282.94166 62.422556 283.088576 
Q 62.323642 283.235491 62.172363 283.31404 
Q 62.021084 283.392589 61.898897 283.412953 
Q 61.77671 283.433318 61.567246 283.433318 
L 61.506153 283.892974 
Q 61.724344 283.837699 61.875623 283.837699 
Q 62.248003 283.837699 62.479286 284.073345 
Q 62.710568 284.308992 62.710568 284.666826 
Q 62.710568 285.039205 62.456012 285.296671 
Q 62.201455 285.554137 61.834894 285.554137 
Q 61.494516 285.554137 61.286507 285.344673 
Q 61.078498 285.13521 60.999949 284.713373 
L 60.47629 284.786104 
Q 60.537383 285.327218 60.903945 285.655959 
Q 61.270506 285.984701 61.834894 285.984701 
Q 62.425465 285.984701 62.848756 285.610866 
Q 63.272047 285.237032 63.272047 284.655189 
Q 63.272047 284.294446 63.069857 283.987524 
Q 62.867666 283.680601 62.472013 283.604962 
" clip-path="url(#pccbadba705)" style="fill: #ff0000"/>
   </g>
   <g id="patch_20">
    <path d="M 180.355409 283.068696 
C 180.355409 298.771667 167.625636 311.50144 151.922666 311.50144 
C 136.219695 311.50144 123.489922 298.771667 123.489922 283.068696 
C 123.489922 267.365725 136.219695 254.635952 151.922666 254.635952 
C 167.625636 254.635952 180.355409 267.365725 180.355409 283.068696 
" clip-path="url(#pccbadba705)" style="fill: none; stroke: #ffffff; stroke-width: 0.48; stroke-linejoin: miter"/>
   </g>
   <g id="patch_21">
    <path d="M 161.305471 283.068696 
C 161.305471 284.324934 160.287089 285.343316 159.030852 285.343316 
C 157.774614 285.343316 156.756232 284.324934 156.756232 283.068696 
C 156.756232 281.812458 157.774614 280.794077 159.030852 280.794077 
C 160.287089 280.794077 161.305471 281.812458 161.305471 283.068696 
" clip-path="url(#pccbadba705)" style="fill: none; stroke: #ffffff; stroke-width: 0.48; stroke-linejoin: miter"/>
   </g>
   <g id="patch_22">
    <path d="M 151.42228 281.574328 
Q 150.514605 281.574328 149.945853 282.177991 
Q 149.377101 282.781653 149.377101 283.831881 
Q 149.377101 284.733738 149.93858 285.359219 
Q 150.500059 285.984701 151.42228 285.984701 
Q 152.312501 285.984701 152.885616 285.381038 
Q 153.458732 284.777376 153.458732 283.785333 
Q 153.458732 282.790381 152.888525 282.182355 
Q 152.318319 281.574328 151.42228 281.574328 
M 139.372305 285.91197 
L 139.372305 281.647059 
L 138.621727 281.647059 
L 137.603501 284.61446 
Q 137.455131 285.050842 137.376582 285.298126 
L 137.364946 285.298126 
Q 137.338763 285.17012 137.170028 284.666826 
L 136.16053 281.647059 
L 135.316857 281.647059 
L 135.316857 285.91197 
L 135.852153 285.91197 
L 135.852153 282.284177 
L 135.869608 282.284177 
L 137.091479 285.91197 
L 137.597683 285.91197 
L 138.825372 282.342362 
L 138.837009 282.342362 
L 138.837009 285.91197 
L 139.372305 285.91197 
M 149.030904 285.91197 
L 148.286145 284.751193 
Q 147.910856 284.163531 147.483201 283.974432 
L 147.483201 283.962795 
Q 148.067954 283.884246 148.373421 283.590416 
Q 148.678889 283.296585 148.678889 282.813655 
Q 148.678889 282.546007 148.572703 282.304542 
Q 148.466516 282.063077 148.26869 281.904524 
Q 148.070863 281.745972 147.809033 281.696516 
Q 147.547204 281.647059 147.160278 281.647059 
L 145.272196 281.647059 
L 145.272196 285.91197 
L 145.836584 285.91197 
L 145.836584 284.029707 
L 146.488249 284.029707 
Q 146.735532 284.029707 146.885357 284.073345 
Q 147.035182 284.116984 147.205371 284.281354 
Q 147.37556 284.445725 147.529748 284.675553 
Q 147.683937 284.905381 148.321055 285.91197 
L 149.030904 285.91197 
M 162.814773 281.647059 
L 162.814773 285.91197 
L 164.350839 285.91197 
Q 165.444704 285.91197 165.892724 285.305399 
Q 166.340743 284.698827 166.340743 283.756241 
Q 166.340743 283.261674 166.231647 282.914023 
Q 166.122552 282.566371 165.931998 282.298723 
Q 165.741444 282.031075 165.486888 281.878342 
Q 165.232332 281.725608 164.953047 281.686333 
Q 164.673762 281.647059 164.286836 281.647059 
L 162.814773 281.647059 
M 157.557818 284.114075 
L 157.557818 281.647059 
L 156.990521 281.647059 
L 156.990521 284.105347 
Q 156.990521 284.559185 156.914881 284.845742 
Q 156.839242 285.1323 156.589049 285.303944 
Q 156.338856 285.475588 155.84138 285.475588 
Q 155.349723 285.475588 155.114076 285.260306 
Q 154.87843 285.045024 154.823155 284.767194 
Q 154.767879 284.489363 154.767879 284.105347 
L 154.767879 281.647059 
L 154.203491 281.647059 
L 154.203491 284.114075 
Q 154.203491 284.483545 154.248584 284.783194 
Q 154.293677 285.082844 154.456593 285.359219 
Q 154.619509 285.635595 154.968615 285.810148 
Q 155.317721 285.984701 155.887928 285.984701 
Q 156.47268 285.984701 156.823241 285.788329 
Q 157.173802 285.591957 157.329445 285.296671 
Q 157.485088 285.001386 157.521453 284.722101 
Q 157.557818 284.442816 157.557818 284.114075 
M 161.86055 285.91197 
L 161.86055 281.647059 
L 161.322344 281.647059 
L 161.322344 284.995567 
L 161.310708 284.995567 
L 159.082248 281.647059 
L 158.506223 281.647059 
L 158.506223 285.91197 
L 159.041519 285.91197 
L 159.041519 282.563462 
L 159.053155 282.563462 
L 161.281615 285.91197 
L 161.86055 285.91197 
M 142.083695 283.604962 
L 142.083695 283.593325 
Q 142.668448 283.331495 142.668448 282.735106 
Q 142.668448 282.269631 142.312068 281.948163 
Q 141.955689 281.626694 141.423303 281.626694 
Q 140.940373 281.626694 140.592721 281.90307 
Q 140.24507 282.179445 140.143247 282.735106 
L 140.666906 282.83111 
Q 140.719272 282.45873 140.918554 282.257994 
Q 141.117835 282.057258 141.43494 282.057258 
Q 141.711315 282.057258 141.922233 282.231811 
Q 142.133152 282.406364 142.133152 282.723469 
Q 142.133152 282.94166 142.034238 283.088576 
Q 141.935325 283.235491 141.784046 283.31404 
Q 141.632766 283.392589 141.510579 283.412953 
Q 141.388392 283.433318 141.178929 283.433318 
L 141.117835 283.892974 
Q 141.336026 283.837699 141.487306 283.837699 
Q 141.859685 283.837699 142.090968 284.073345 
Q 142.322251 284.308992 142.322251 284.666826 
Q 142.322251 285.039205 142.067694 285.296671 
Q 141.813138 285.554137 141.446577 285.554137 
Q 141.106198 285.554137 140.898189 285.344673 
Q 140.69018 285.13521 140.611631 284.713373 
L 140.087972 284.786104 
Q 140.149066 285.327218 140.515627 285.655959 
Q 140.882189 285.984701 141.446577 285.984701 
Q 142.037148 285.984701 142.460439 285.610866 
Q 142.88373 285.237032 142.88373 284.655189 
Q 142.88373 284.294446 142.681539 283.987524 
Q 142.479348 283.680601 142.083695 283.604962 
M 151.416462 285.501771 
Q 150.770616 285.501771 150.366235 285.043569 
Q 149.961854 284.585368 149.961854 283.843517 
Q 149.961854 282.935842 150.374962 282.49655 
Q 150.788071 282.057258 151.428099 282.057258 
Q 152.050671 282.057258 152.462325 282.505278 
Q 152.873979 282.953297 152.873979 283.785333 
Q 152.87107 284.594095 152.468144 285.047933 
Q 152.065217 285.501771 151.416462 285.501771 
M 145.836584 283.523504 
L 145.836584 282.115443 
L 147.183552 282.115443 
Q 147.6723 282.115443 147.884673 282.319088 
Q 148.097046 282.522733 148.097046 282.813655 
Q 148.097046 283.037664 147.96904 283.218036 
Q 147.841035 283.398407 147.627207 283.460955 
Q 147.41338 283.523504 147.046819 283.523504 
L 145.836584 283.523504 
M 163.379161 285.405767 
L 163.379161 282.153263 
L 164.275199 282.153263 
Q 164.56903 282.153263 164.756675 282.176536 
Q 164.944319 282.19981 165.142146 282.305996 
Q 165.339973 282.412183 165.492706 282.640556 
Q 165.64544 282.86893 165.70217 283.14676 
Q 165.7589 283.42459 165.7589 283.744604 
Q 165.7589 284.323538 165.61053 284.675553 
Q 165.46216 285.027569 165.236695 285.181757 
Q 165.011231 285.335945 164.791585 285.370856 
Q 164.571939 285.405767 164.292655 285.405767 
L 163.379161 285.405767 
" clip-path="url(#pccbadba705)" style="fill: #ff0000"/>
   </g>
   <g id="patch_23">
    <path d="M 241.485808 283.068696 
L 241.726758 281.803844 
L 241.853179 280.497189 
L 241.859645 279.159261 
L 241.741708 277.80122 
L 241.495971 276.434754 
L 241.120143 275.071987 
L 240.61309 273.725369 
L 239.974871 272.40757 
L 239.206772 271.131361 
L 238.311317 269.909496 
L 237.292278 268.754595 
L 236.154669 267.679022 
L 234.904728 266.69476 
L 233.549889 265.813296 
L 232.098738 265.045498 
L 230.560966 264.401505 
L 228.947301 263.890616 
L 227.269436 263.521185 
L 225.539945 263.300521 
L 223.772186 263.234806 
L 221.980201 263.329002 
L 220.178603 263.586792 
L 218.382458 264.010508 
L 216.607158 264.601087 
L 214.868294 265.358029 
L 213.18152 266.279371 
L 211.562416 267.361676 
L 210.026346 268.600026 
L 208.588322 269.988039 
L 207.26286 271.517894 
L 206.063847 273.180367 
L 205.004404 274.964887 
L 204.096753 276.859594 
L 203.352098 278.851424 
L 202.780504 280.926192 
L 202.390786 283.068696 
L 202.190409 285.262827 
L 202.185399 287.491689 
L 202.380258 289.737731 
L 202.7779 291.982886 
L 203.379596 294.208712 
L 204.184925 296.396545 
L 205.191756 298.527655 
L 206.396222 300.583402 
L 207.792731 302.545401 
L 209.373976 304.395676 
L 211.130963 306.116824 
L 213.053065 307.692174 
L 215.128071 309.105938 
L 217.34227 310.343361 
L 219.680534 311.390865 
L 222.126422 312.236182 
L 224.662293 312.868481 
L 227.269436 313.278486 
L 229.928206 313.458576 
L 232.618172 313.402881 
L 235.318272 313.10736 
L 238.006984 312.569865 
L 240.662489 311.79019 
L 243.262855 310.770109 
L 245.786211 309.513391 
L 248.210933 308.0258 
L 250.515826 306.315086 
L 252.680306 304.390947 
L 254.684578 302.264985 
L 256.509817 299.950638 
L 258.138332 297.463098 
L 259.553734 294.819219 
L 260.741091 292.037399 
L 261.68707 289.137453 
L 262.380075 286.140479 
L 241.485808 283.068696 
" clip-path="url(#pccbadba705)" style="fill: none; stroke: #ffffff; stroke-width: 0.48; stroke-linejoin: miter"/>
   </g>
   <g id="patch_24">
    <path d="M 229.544056 283.068696 
C 229.544056 284.324934 228.525674 285.343316 227.269436 285.343316 
C 226.013199 285.343316 224.994817 284.324934 224.994817 283.068696 
C 224.994817 281.812458 226.013199 280.794077 227.269436 280.794077 
C 228.525674 280.794077 229.544056 281.812458 229.544056 283.068696 
" clip-path="url(#pccbadba705)" style="fill: none; stroke: #ffffff; stroke-width: 0.48; stroke-linejoin: miter"/>
   </g>
   <g id="patch_25">
    <path d="M 214.719076 285.91197 
L 214.719076 281.647059 
L 213.968498 281.647059 
L 212.950272 284.61446 
Q 212.801902 285.050842 212.723353 285.298126 
L 212.711716 285.298126 
Q 212.685534 285.17012 212.516799 284.666826 
L 211.507301 281.647059 
L 210.663628 281.647059 
L 210.663628 285.91197 
L 211.198924 285.91197 
L 211.198924 282.284177 
L 211.216379 282.284177 
L 212.43825 285.91197 
L 212.944454 285.91197 
L 214.172143 282.342362 
L 214.18378 282.342362 
L 214.18378 285.91197 
L 214.719076 285.91197 
M 232.398385 285.91197 
L 230.658674 281.647059 
L 230.050648 281.647059 
L 228.412759 285.91197 
L 229.009148 285.91197 
L 229.480441 284.61446 
L 231.260882 284.61446 
L 231.761267 285.91197 
L 232.398385 285.91197 
M 223.13253 282.898022 
L 223.673645 282.854384 
Q 223.647462 282.240539 223.215443 281.907434 
Q 222.783424 281.574328 222.073576 281.574328 
Q 221.381182 281.574328 220.97971 281.908888 
Q 220.578238 282.243448 220.578238 282.75547 
Q 220.578238 283.206399 220.895343 283.488593 
Q 221.212447 283.770787 221.932479 283.92643 
Q 222.65251 284.082073 222.957977 284.24208 
Q 223.263445 284.402087 223.263445 284.751193 
Q 223.263445 285.085753 222.971069 285.28067 
Q 222.678693 285.475588 222.20449 285.475588 
Q 221.698287 285.475588 221.340453 285.241396 
Q 220.982619 285.007204 220.9448 284.495182 
L 220.409504 284.541729 
Q 220.435687 285.181757 220.882251 285.583229 
Q 221.328816 285.984701 222.227764 285.984701 
Q 222.931794 285.984701 223.369632 285.621049 
Q 223.807469 285.257397 223.807469 284.707555 
Q 223.807469 284.274081 223.568913 284.016616 
Q 223.330357 283.75915 222.995797 283.636963 
Q 222.661237 283.514776 222.13176 283.398407 
Q 221.53537 283.264583 221.324452 283.129305 
Q 221.113534 282.994026 221.113534 282.717651 
Q 221.113534 282.406364 221.387 282.243448 
Q 221.660467 282.080532 222.096849 282.080532 
Q 222.579779 282.080532 222.8387 282.285632 
Q 223.09762 282.490732 223.13253 282.898022 
M 227.941465 285.91197 
L 227.941465 281.647059 
L 227.40326 281.647059 
L 227.40326 284.995567 
L 227.391624 284.995567 
L 225.163164 281.647059 
L 224.587139 281.647059 
L 224.587139 285.91197 
L 225.122435 285.91197 
L 225.122435 282.563462 
L 225.134071 282.563462 
L 227.362531 285.91197 
L 227.941465 285.91197 
M 217.430466 283.604962 
L 217.430466 283.593325 
Q 218.015218 283.331495 218.015218 282.735106 
Q 218.015218 282.269631 217.658839 281.948163 
Q 217.30246 281.626694 216.770074 281.626694 
Q 216.287144 281.626694 215.939492 281.90307 
Q 215.591841 282.179445 215.490018 282.735106 
L 216.013677 282.83111 
Q 216.066043 282.45873 216.265325 282.257994 
Q 216.464606 282.057258 216.781711 282.057258 
Q 217.058086 282.057258 217.269004 282.231811 
Q 217.479923 282.406364 217.479923 282.723469 
Q 217.479923 282.94166 217.381009 283.088576 
Q 217.282096 283.235491 217.130817 283.31404 
Q 216.979537 283.392589 216.85735 283.412953 
Q 216.735163 283.433318 216.525699 283.433318 
L 216.464606 283.892974 
Q 216.682797 283.837699 216.834076 283.837699 
Q 217.206456 283.837699 217.437739 284.073345 
Q 217.669022 284.308992 217.669022 284.666826 
Q 217.669022 285.039205 217.414465 285.296671 
Q 217.159909 285.554137 216.793347 285.554137 
Q 216.452969 285.554137 216.24496 285.344673 
Q 216.036951 285.13521 215.958402 284.713373 
L 215.434743 284.786104 
Q 215.495837 285.327218 215.862398 285.655959 
Q 216.228959 285.984701 216.793347 285.984701 
Q 217.383918 285.984701 217.807209 285.610866 
Q 218.2305 285.237032 218.2305 284.655189 
Q 218.2305 284.294446 218.02831 283.987524 
Q 217.826119 283.680601 217.430466 283.604962 
M 237.163682 285.91197 
L 237.163682 285.405767 
L 235.060319 285.405767 
L 235.060319 281.647059 
L 234.495931 281.647059 
L 234.495931 285.91197 
L 237.163682 285.91197 
M 233.506797 285.91197 
L 233.506797 281.647059 
L 232.9395 281.647059 
L 232.9395 285.91197 
L 233.506797 285.91197 
M 231.089238 284.16644 
L 229.640448 284.16644 
L 230.11756 282.889294 
Q 230.254293 282.522733 230.335751 282.092169 
L 230.350297 282.092169 
Q 230.431755 282.406364 230.498667 282.594009 
Q 230.565579 282.781653 231.089238 284.16644 
" clip-path="url(#pccbadba705)" style="fill: #ff0000"/>
   </g>
   <g id="patch_26">
    <path d="M 26.818593 337.090909 
L 48.143151 337.090909 
L 48.143151 223.359934 
L 26.818593 223.359934 
L 26.818593 337.090909 
" clip-path="url(#pccbadba705)" style="fill: none; stroke: #ffffff; stroke-width: 0.48; stroke-linejoin: miter"/>
   </g>
   <g id="patch_27">
    <path d="M 39.613328 230.46812 
C 39.613328 231.645843 38.658595 232.600576 37.480872 232.600576 
C 36.303149 232.600576 35.348416 231.645843 35.348416 230.46812 
C 35.348416 229.290397 36.303149 228.335664 37.480872 228.335664 
C 38.658595 228.335664 39.613328 229.290397 39.613328 230.46812 
" clip-path="url(#pccbadba705)" style="fill: none; stroke: #ffffff; stroke-width: 0.48; stroke-linejoin: miter"/>
   </g>
   <g id="patch_28">
    <path d="M 32.21616 284.441846 
Q 31.611043 284.441846 31.231875 284.844288 
Q 30.852707 285.24673 30.852707 285.946881 
Q 30.852707 286.548119 31.227026 286.965107 
Q 31.601345 287.382095 32.21616 287.382095 
Q 32.80964 287.382095 33.191717 286.979653 
Q 33.573794 286.577211 33.573794 285.915849 
Q 33.573794 285.252548 33.193657 284.847197 
Q 32.813519 284.441846 32.21616 284.441846 
M 30.476448 284.827802 
L 30.476448 284.490333 
L 28.558305 284.490333 
L 28.558305 287.333608 
L 28.934563 287.333608 
L 28.934563 286.045794 
L 30.270864 286.045794 
L 30.270864 285.708325 
L 28.934563 285.708325 
L 28.934563 284.827802 
L 30.476448 284.827802 
M 35.833286 287.333608 
L 35.833286 286.996138 
L 34.431043 286.996138 
L 34.431043 284.490333 
L 34.054785 284.490333 
L 34.054785 287.333608 
L 35.833286 287.333608 
M 32.212281 287.060141 
Q 31.781717 287.060141 31.512129 286.754673 
Q 31.242542 286.449206 31.242542 285.954639 
Q 31.242542 285.349522 31.517948 285.056661 
Q 31.793354 284.7638 32.220039 284.7638 
Q 32.635087 284.7638 32.909523 285.062479 
Q 33.183959 285.361159 33.183959 285.915849 
Q 33.18202 286.455024 32.913402 286.757583 
Q 32.644784 287.060141 32.212281 287.060141 
" clip-path="url(#pccbadba705)" style="fill: #ff0000"/>
   </g>
   <g id="patch_29">
    <path d="M 59.516248 337.090909 
L 144.81448 337.090909 
L 144.81448 320.031263 
L 59.516248 320.031263 
L 59.516248 337.090909 
" clip-path="url(#pccbadba705)" style="fill: none; stroke: #ffffff; stroke-width: 0.48; stroke-linejoin: miter"/>
   </g>
   <g id="patch_30">
    <path d="M 73.163965 328.561086 
C 73.163965 329.817324 72.145584 330.835705 70.889346 330.835705 
C 69.633108 330.835705 68.614726 329.817324 68.614726 328.561086 
C 68.614726 327.304848 69.633108 326.286466 70.889346 326.286466 
C 72.145584 326.286466 73.163965 327.304848 73.163965 328.561086 
" clip-path="url(#pccbadba705)" style="fill: none; stroke: #ffffff; stroke-width: 0.48; stroke-linejoin: miter"/>
   </g>
   <g id="patch_31">
    <path d="M 88.111908 334.247635 
L 88.111908 331.40436 
L 87.611523 331.40436 
L 86.932706 333.382628 
Q 86.833792 333.673549 86.781427 333.838405 
L 86.773669 333.838405 
Q 86.756213 333.753068 86.643724 333.417538 
L 85.970725 331.40436 
L 85.408276 331.40436 
L 85.408276 334.247635 
L 85.76514 334.247635 
L 85.76514 331.829106 
L 85.776777 331.829106 
L 86.591358 334.247635 
L 86.928827 334.247635 
L 87.747286 331.867896 
L 87.755044 331.867896 
L 87.755044 334.247635 
L 88.111908 334.247635 
M 97.248788 334.247635 
L 96.08898 331.40436 
L 95.683629 331.40436 
L 94.591703 334.247635 
L 94.989296 334.247635 
L 95.303492 333.382628 
L 96.490452 333.382628 
L 96.824042 334.247635 
L 97.248788 334.247635 
M 100.431471 331.40436 
L 100.431471 334.247635 
L 101.455515 334.247635 
Q 102.184759 334.247635 102.483438 333.843254 
Q 102.782118 333.438872 102.782118 332.810482 
Q 102.782118 332.48077 102.709388 332.249003 
Q 102.636657 332.017235 102.509621 331.838803 
Q 102.382586 331.660371 102.212881 331.558549 
Q 102.043177 331.456726 101.856987 331.430543 
Q 101.670797 331.40436 101.412847 331.40436 
L 100.431471 331.40436 
M 99.795322 334.247635 
L 99.795322 331.40436 
L 99.436519 331.40436 
L 99.436519 333.636699 
L 99.428761 333.636699 
L 97.943121 331.40436 
L 97.559104 331.40436 
L 97.559104 334.247635 
L 97.915968 334.247635 
L 97.915968 332.015296 
L 97.923726 332.015296 
L 99.409366 334.247635 
L 99.795322 334.247635 
M 94.277508 334.247635 
L 94.277508 331.40436 
L 93.89931 331.40436 
L 93.89931 332.571926 
L 92.421428 332.571926 
L 92.421428 331.40436 
L 92.045169 331.40436 
L 92.045169 334.247635 
L 92.421428 334.247635 
L 92.421428 332.909395 
L 93.89931 332.909395 
L 93.89931 334.247635 
L 94.277508 334.247635 
M 107.628873 334.247635 
L 107.628873 333.910166 
L 105.881403 333.910166 
L 105.881403 332.948185 
L 107.45432 332.948185 
L 107.45432 332.610716 
L 105.881403 332.610716 
L 105.881403 331.741829 
L 107.562931 331.741829 
L 107.562931 331.40436 
L 105.505145 331.40436 
L 105.505145 334.247635 
L 107.628873 334.247635 
M 89.919502 332.709629 
L 89.919502 332.701871 
Q 90.309337 332.527318 90.309337 332.129725 
Q 90.309337 331.819409 90.071751 331.605096 
Q 89.834165 331.390784 89.47924 331.390784 
Q 89.157287 331.390784 88.925519 331.575034 
Q 88.693752 331.759285 88.62587 332.129725 
L 88.974976 332.193728 
Q 89.009887 331.945475 89.142741 331.811651 
Q 89.275595 331.677827 89.486998 331.677827 
Q 89.671248 331.677827 89.811861 331.794195 
Q 89.952473 331.910564 89.952473 332.121967 
Q 89.952473 332.267428 89.88653 332.365372 
Q 89.820588 332.463315 89.719735 332.515681 
Q 89.618883 332.568047 89.537424 332.581623 
Q 89.455966 332.5952 89.316324 332.5952 
L 89.275595 332.901637 
Q 89.421056 332.864787 89.521909 332.864787 
Q 89.770162 332.864787 89.92435 333.021885 
Q 90.078539 333.178982 90.078539 333.417538 
Q 90.078539 333.665791 89.908834 333.837435 
Q 89.73913 334.009079 89.494756 334.009079 
Q 89.267837 334.009079 89.129164 333.869437 
Q 88.990492 333.729794 88.938126 333.44857 
L 88.58902 333.497057 
Q 88.629749 333.8578 88.874123 334.076961 
Q 89.118497 334.296122 89.494756 334.296122 
Q 89.88847 334.296122 90.170664 334.046899 
Q 90.452858 333.797676 90.452858 333.40978 
Q 90.452858 333.169285 90.318064 332.96467 
Q 90.183271 332.760055 89.919502 332.709629 
M 105.059065 334.247635 
L 105.059065 333.910166 
L 103.656822 333.910166 
L 103.656822 331.40436 
L 103.280564 331.40436 
L 103.280564 334.247635 
L 105.059065 334.247635 
M 96.376023 333.083948 
L 95.410163 333.083948 
L 95.728237 332.232517 
Q 95.819393 331.988143 95.873698 331.7011 
L 95.883396 331.7011 
Q 95.937701 331.910564 95.982309 332.03566 
Q 96.026917 332.160757 96.376023 333.083948 
M 100.80773 333.910166 
L 100.80773 331.741829 
L 101.405089 331.741829 
Q 101.600976 331.741829 101.726072 331.757345 
Q 101.851169 331.772861 101.983053 331.843652 
Q 102.114938 331.914443 102.21676 332.066692 
Q 102.318583 332.218941 102.356403 332.404161 
Q 102.394222 332.589381 102.394222 332.802724 
Q 102.394222 333.18868 102.295309 333.423357 
Q 102.196396 333.658033 102.046086 333.760826 
Q 101.895777 333.863618 101.749346 333.886892 
Q 101.602916 333.910166 101.416726 333.910166 
L 100.80773 333.910166 
" clip-path="url(#pccbadba705)" style="fill: #ff0000"/>
   </g>
  </g>
 </g>
 <defs>
  <clipPath id="pccbadba705">
   <rect x="7.2" y="7.2" width="431.60905" height="345.6"/>
  </clipPath>
 </defs>
</svg>
