<?xml version="1.0" encoding="utf-8" standalone="no"?>
<!DOCTYPE svg PUBLIC "-//W3C//DTD SVG 1.1//EN"
  "http://www.w3.org/Graphics/SVG/1.1/DTD/svg11.dtd">
<svg xmlns:xlink="http://www.w3.org/1999/xlink" width="556.363636pt" height="360pt" viewBox="0 0 556.363636 360" xmlns="http://www.w3.org/2000/svg" version="1.1">
 <metadata>
  <rdf:RDF xmlns:dc="http://purl.org/dc/elements/1.1/" xmlns:cc="http://creativecommons.org/ns#" xmlns:rdf="http://www.w3.org/1999/02/22-rdf-syntax-ns#">
   <cc:Work>
    <dc:type rdf:resource="http://purl.org/dc/dcmitype/StillImage"/>
    <dc:date>2026-03-19T14:26:01.689391</dc:date>
    <dc:format>image/svg+xml</dc:format>
    <dc:creator>
     <cc:Agent>
      <dc:title>Matplotlib v3.10.8, https://matplotlib.org/</dc:title>
     </cc:Agent>
    </dc:creator>
   </cc:Work>
  </rdf:RDF>
 </metadata>
 <defs>
  <style type="text/css">*{stroke-linejoin: round; stroke-linecap: butt}</style>
 </defs>
 <g id="figure_1">
  <g id="patch_1">
   <path d="M 0 360 
L 556.363636 360 
L 556.363636 0 
L 0 0 
z
" style="fill: #1a1a2e"/>
  </g>
  <g id="axes_1">
   <g id="patch_2">
    <path d="M 7.2 352.8 
L 549.163636 352.8 
L 549.163636 7.2 
L 7.2 7.2 
z
" style="fill: #1a1a2e"/>
   </g>
   <g id="patch_3">
    <path d="M 31.834711 201.421488 
L 317.454545 201.421488 
L 317.454545 22.909091 
L 31.834711 22.909091 
L 31.834711 201.421488 
" clip-path="url(#p4dc6dc3230)" style="fill: none; stroke: #ffffff; stroke-width: 0.48; stroke-linejoin: miter"/>
   </g>
   <g id="patch_4">
    <path d="M 46.422559 37.190083 
L 46.422559 31.834711 
L 45.480072 31.834711 
L 44.201504 35.560822 
Q 44.015198 36.10878 43.916566 36.419289 
L 43.901954 36.419289 
Q 43.869076 36.258555 43.6572 35.626577 
L 42.389591 31.834711 
L 41.330206 31.834711 
L 41.330206 37.190083 
L 42.002368 37.190083 
L 42.002368 32.634729 
L 42.024286 32.634729 
L 43.558567 37.190083 
L 44.194198 37.190083 
L 45.735785 32.70779 
L 45.750397 32.70779 
L 45.750397 37.190083 
L 46.422559 37.190083 
M 63.219284 37.190083 
L 61.03476 31.834711 
L 60.271273 31.834711 
L 58.214605 37.190083 
L 58.963481 37.190083 
L 59.555275 35.560822 
L 61.790942 35.560822 
L 62.419266 37.190083 
L 63.219284 37.190083 
M 66.967314 33.405522 
L 67.646782 33.350727 
Q 67.613904 32.579933 67.071426 32.161659 
Q 66.528948 31.743384 65.637604 31.743384 
Q 64.768178 31.743384 64.264057 32.163485 
Q 63.759936 32.583586 63.759936 33.226523 
Q 63.759936 33.792746 64.158118 34.147092 
Q 64.556301 34.501438 65.460431 34.696876 
Q 66.364561 34.892314 66.748131 35.093232 
Q 67.131701 35.294149 67.131701 35.732516 
Q 67.131701 36.152616 66.76457 36.397371 
Q 66.397438 36.642125 65.801991 36.642125 
Q 65.16636 36.642125 64.717035 36.348055 
Q 64.26771 36.053984 64.22022 35.411047 
L 63.548059 35.469496 
Q 63.580936 36.273167 64.14168 36.777288 
Q 64.702423 37.281409 65.831216 37.281409 
Q 66.715254 37.281409 67.265038 36.824778 
Q 67.814822 36.368146 67.814822 35.67772 
Q 67.814822 35.133415 67.515272 34.81012 
Q 67.215722 34.486825 66.795621 34.333397 
Q 66.37552 34.179969 65.710665 34.033847 
Q 64.96179 33.865807 64.696943 33.69594 
Q 64.432097 33.526073 64.432097 33.179033 
Q 64.432097 32.788157 64.775484 32.583586 
Q 65.118871 32.379015 65.666828 32.379015 
Q 66.273235 32.379015 66.598356 32.636555 
Q 66.923478 32.894095 66.967314 33.405522 
M 56.830099 34.340703 
Q 57.20271 34.147092 57.38719 33.849368 
Q 57.571669 33.551644 57.571669 33.200952 
Q 57.571669 32.682218 57.17166 32.258465 
Q 56.771651 31.834711 55.796286 31.834711 
L 53.787108 31.834711 
L 53.787108 37.190083 
L 55.83647 37.190083 
Q 56.548814 37.190083 56.965262 37.01291 
Q 57.38171 36.835737 57.608199 36.459473 
Q 57.834688 36.083208 57.834688 35.633883 
Q 57.834688 35.184558 57.584454 34.839345 
Q 57.33422 34.494131 56.830099 34.340703 
M 72.79393 37.190083 
L 72.79393 36.554452 
L 69.502531 36.554452 
L 69.502531 34.742539 
L 72.465155 34.742539 
L 72.465155 34.106908 
L 69.502531 34.106908 
L 69.502531 32.470342 
L 72.669726 32.470342 
L 72.669726 31.834711 
L 68.793839 31.834711 
L 68.793839 37.190083 
L 72.79393 37.190083 
M 50.806219 35.911515 
L 50.806219 35.305109 
L 50.082915 35.305109 
L 50.082915 31.834711 
L 49.542264 31.834711 
L 47.105679 35.305109 
L 47.105679 35.911515 
L 49.425366 35.911515 
L 49.425366 37.190083 
L 50.082915 37.190083 
L 50.082915 35.911515 
L 50.806219 35.911515 
M 61.575412 34.998252 
L 59.756193 34.998252 
L 60.355293 33.394563 
Q 60.526986 32.934279 60.629272 32.393627 
L 60.647537 32.393627 
Q 60.749822 32.788157 60.833843 33.023779 
Q 60.917863 33.2594 61.575412 34.998252 
M 54.4958 36.554452 
L 54.4958 34.713314 
L 55.737837 34.713314 
Q 56.508631 34.713314 56.804528 34.956242 
Q 57.100425 35.19917 57.100425 35.633883 
Q 57.100425 36.064943 56.822793 36.309697 
Q 56.545161 36.554452 55.829164 36.554452 
L 54.4958 36.554452 
M 54.4958 34.077684 
L 54.4958 32.470342 
L 55.566144 32.470342 
Q 55.975286 32.470342 56.236479 32.510525 
Q 56.497672 32.550709 56.685804 32.731535 
Q 56.873936 32.912361 56.873936 33.292278 
Q 56.873936 33.65393 56.68763 33.825623 
Q 56.501325 33.997317 56.258397 34.0375 
Q 56.015469 34.077684 55.65747 34.077684 
L 54.4958 34.077684 
M 49.425366 35.305109 
L 47.748616 35.305109 
L 49.410754 32.886789 
L 49.425366 32.886789 
L 49.425366 35.305109 
" clip-path="url(#p4dc6dc3230)" style="fill: #ff0000"/>
   </g>
   <g id="patch_5">
    <path d="M 100.65124 147.867769 
L 105.828099 147.867769 
L 105.828099 130.016529 
L 100.65124 130.016529 
L 100.65124 147.867769 
" clip-path="url(#p4dc6dc3230)" style="fill: none; stroke: #ffffff; stroke-width: 0.48; stroke-linejoin: miter"/>
   </g>
   <g id="patch_6">
    <path d="M 100.65124 94.31405 
L 105.828099 94.31405 
L 105.828099 76.46281 
L 100.65124 76.46281 
L 100.65124 94.31405 
" clip-path="url(#p4dc6dc3230)" style="fill: none; stroke: #ffffff; stroke-width: 0.48; stroke-linejoin: miter"/>
   </g>
   <g id="patch_7">
    <path d="M 243.461157 147.867769 
L 248.638017 147.867769 
L 248.638017 130.016529 
L 243.461157 130.016529 
L 243.461157 147.867769 
" clip-path="url(#p4dc6dc3230)" style="fill: none; stroke: #ffffff; stroke-width: 0.48; stroke-linejoin: miter"/>
   </g>
   <g id="patch_8">
    <path d="M 243.461157 94.31405 
L 248.638017 94.31405 
L 248.638017 76.46281 
L 243.461157 76.46281 
L 243.461157 94.31405 
" clip-path="url(#p4dc6dc3230)" style="fill: none; stroke: #ffffff; stroke-width: 0.48; stroke-linejoin: miter"/>
   </g>
   <g id="patch_9">
    <path d="M 172.056198 165.719008 
L 177.233058 165.719008 
L 177.233058 147.867769 
L 172.056198 147.867769 
L 172.056198 165.719008 
" clip-path="url(#p4dc6dc3230)" style="fill: none; stroke: #ffffff; stroke-width: 0.48; stroke-linejoin: miter"/>
   </g>
   <g id="patch_10">
    <path d="M 331.735537 201.421488 
L 420.991736 201.421488 
L 420.991736 76.46281 
L 331.735537 76.46281 
L 331.735537 201.421488 
" clip-path="url(#p4dc6dc3230)" style="fill: none; stroke: #ffffff; stroke-width: 0.48; stroke-linejoin: miter"/>
   </g>
   <g id="patch_11">
    <path d="M 340.661157 206.77686 
L 358.512397 206.77686 
L 358.512397 201.421488 
L 340.661157 201.421488 
L 340.661157 206.77686 
" clip-path="url(#p4dc6dc3230)" style="fill: none; stroke: #ffffff; stroke-width: 0.48; stroke-linejoin: miter"/>
   </g>
   <g id="patch_12">
    <path d="M 394.214876 206.77686 
L 412.066116 206.77686 
L 412.066116 201.421488 
L 394.214876 201.421488 
L 394.214876 206.77686 
" clip-path="url(#p4dc6dc3230)" style="fill: none; stroke: #ffffff; stroke-width: 0.48; stroke-linejoin: miter"/>
   </g>
   <g id="patch_13">
    <path d="M 363.689256 121.090909 
C 363.689256 123.95001 361.371497 126.267769 358.512397 126.267769 
C 355.653296 126.267769 353.335537 123.95001 353.335537 121.090909 
C 353.335537 118.231809 355.653296 115.91405 358.512397 115.91405 
C 361.371497 115.91405 363.689256 118.231809 363.689256 121.090909 
" clip-path="url(#p4dc6dc3230)" style="fill: none; stroke: #ffffff; stroke-width: 0.48; stroke-linejoin: miter"/>
   </g>
   <g id="patch_14">
    <path d="M 397.071074 121.090909 
C 397.071074 122.668344 395.792311 123.947107 394.214876 123.947107 
C 392.637441 123.947107 391.358678 122.668344 391.358678 121.090909 
C 391.358678 119.513474 392.637441 118.234711 394.214876 118.234711 
C 395.792311 118.234711 397.071074 119.513474 397.071074 121.090909 
" clip-path="url(#p4dc6dc3230)" style="fill: none; stroke: #ffffff; stroke-width: 0.48; stroke-linejoin: miter"/>
   </g>
   <g id="patch_15">
    <path d="M 342.753137 94.31405 
L 342.753137 88.958678 
L 341.81065 88.958678 
L 340.532083 92.684789 
Q 340.345777 93.232747 340.247145 93.543256 
L 340.232532 93.543256 
Q 340.199655 93.382522 339.987778 92.750544 
L 338.72017 88.958678 
L 337.660785 88.958678 
L 337.660785 94.31405 
L 338.332946 94.31405 
L 338.332946 89.758696 
L 338.354865 89.758696 
L 339.889146 94.31405 
L 340.524776 94.31405 
L 342.066364 89.831757 
L 342.080976 89.831757 
L 342.080976 94.31405 
L 342.753137 94.31405 
M 354.559796 94.31405 
L 352.375272 88.958678 
L 351.611784 88.958678 
L 349.555117 94.31405 
L 350.303992 94.31405 
L 350.895787 92.684789 
L 353.131453 92.684789 
L 353.759778 94.31405 
L 354.559796 94.31405 
M 359.49872 94.31405 
L 357.471277 91.479282 
L 359.348945 88.958678 
L 358.578152 88.958678 
Q 357.215564 90.748672 357.073095 90.993427 
Q 356.985422 90.81808 356.802769 90.558714 
L 355.673977 88.958678 
L 354.830122 88.958678 
L 356.663953 91.523119 
L 354.589021 94.31405 
L 355.443834 94.31405 
Q 357.036564 92.11126 357.036564 92.045505 
L 357.051177 92.045505 
Q 357.153462 92.235464 357.547991 92.794381 
L 358.621988 94.31405 
L 359.49872 94.31405 
M 347.136798 93.035482 
L 347.136798 92.429076 
L 346.413494 92.429076 
L 346.413494 88.958678 
L 345.872842 88.958678 
L 343.436258 92.429076 
L 343.436258 93.035482 
L 345.755945 93.035482 
L 345.755945 94.31405 
L 346.413494 94.31405 
L 346.413494 93.035482 
L 347.136798 93.035482 
M 365.53356 94.31405 
L 365.53356 93.678419 
L 362.892404 93.678419 
L 362.892404 88.958678 
L 362.183712 88.958678 
L 362.183712 94.31405 
L 365.53356 94.31405 
M 352.915923 92.122219 
L 351.096704 92.122219 
L 351.695805 90.51853 
Q 351.867498 90.058246 351.969783 89.517594 
L 351.988049 89.517594 
Q 352.090334 89.912124 352.174354 90.147746 
Q 352.258374 90.383367 352.915923 92.122219 
M 345.755945 92.429076 
L 344.079195 92.429076 
L 345.741332 90.010756 
L 345.755945 90.010756 
L 345.755945 92.429076 
" clip-path="url(#p4dc6dc3230)" style="fill: #ff0000"/>
   </g>
   <g id="patch_16">
    <path d="M 435.272727 201.421488 
L 524.528926 201.421488 
L 524.528926 76.46281 
L 435.272727 76.46281 
L 435.272727 201.421488 
" clip-path="url(#p4dc6dc3230)" style="fill: none; stroke: #ffffff; stroke-width: 0.48; stroke-linejoin: miter"/>
   </g>
   <g id="patch_17">
    <path d="M 444.198347 206.77686 
L 462.049587 206.77686 
L 462.049587 201.421488 
L 444.198347 201.421488 
L 444.198347 206.77686 
" clip-path="url(#p4dc6dc3230)" style="fill: none; stroke: #ffffff; stroke-width: 0.48; stroke-linejoin: miter"/>
   </g>
   <g id="patch_18">
    <path d="M 497.752066 206.77686 
L 515.603306 206.77686 
L 515.603306 201.421488 
L 497.752066 201.421488 
L 497.752066 206.77686 
" clip-path="url(#p4dc6dc3230)" style="fill: none; stroke: #ffffff; stroke-width: 0.48; stroke-linejoin: miter"/>
   </g>
   <g id="patch_19">
    <path d="M 467.226446 121.090909 
C 467.226446 123.95001 464.908687 126.267769 462.049587 126.267769 
C 459.190486 126.267769 456.872727 123.95001 456.872727 121.090909 
C 456.872727 118.231809 459.190486 115.91405 462.049587 115.91405 
C 464.908687 115.91405 467.226446 118.231809 467.226446 121.090909 
" clip-path="url(#p4dc6dc3230)" style="fill: none; stroke: #ffffff; stroke-width: 0.48; stroke-linejoin: miter"/>
   </g>
   <g id="patch_20">
    <path d="M 500.608264 121.090909 
C 500.608264 122.668344 499.329501 123.947107 497.752066 123.947107 
C 496.174631 123.947107 494.895868 122.668344 494.895868 121.090909 
C 494.895868 119.513474 496.174631 118.234711 497.752066 118.234711 
C 499.329501 118.234711 500.608264 119.513474 500.608264 121.090909 
" clip-path="url(#p4dc6dc3230)" style="fill: none; stroke: #ffffff; stroke-width: 0.48; stroke-linejoin: miter"/>
   </g>
   <g id="patch_21">
    <path d="M 446.290327 94.31405 
L 446.290327 88.958678 
L 445.34784 88.958678 
L 444.069273 92.684789 
Q 443.882967 93.232747 443.784335 93.543256 
L 443.769723 93.543256 
Q 443.736845 93.382522 443.524968 92.750544 
L 442.25736 88.958678 
L 441.197975 88.958678 
L 441.197975 94.31405 
L 441.870136 94.31405 
L 441.870136 89.758696 
L 441.892055 89.758696 
L 443.426336 94.31405 
L 444.061967 94.31405 
L 445.603554 89.831757 
L 445.618166 89.831757 
L 445.618166 94.31405 
L 446.290327 94.31405 
M 458.096986 94.31405 
L 455.912462 88.958678 
L 455.148975 88.958678 
L 453.092307 94.31405 
L 453.841183 94.31405 
L 454.432977 92.684789 
L 456.668644 92.684789 
L 457.296968 94.31405 
L 458.096986 94.31405 
M 463.03591 94.31405 
L 461.008467 91.479282 
L 462.886135 88.958678 
L 462.115342 88.958678 
Q 460.752754 90.748672 460.610285 90.993427 
Q 460.522612 90.81808 460.339959 90.558714 
L 459.211167 88.958678 
L 458.367312 88.958678 
L 460.201143 91.523119 
L 458.126211 94.31405 
L 458.981024 94.31405 
Q 460.573754 92.11126 460.573754 92.045505 
L 460.588367 92.045505 
Q 460.690652 92.235464 461.085181 92.794381 
L 462.159178 94.31405 
L 463.03591 94.31405 
M 470.477174 94.31405 
L 469.541993 92.856482 
Q 469.07075 92.118566 468.533751 91.881118 
L 468.533751 91.866506 
Q 469.268014 91.767873 469.651585 91.398915 
Q 470.035155 91.029957 470.035155 90.423551 
Q 470.035155 90.08747 469.901819 89.784267 
Q 469.768482 89.481064 469.520075 89.281973 
Q 469.271667 89.082881 468.942893 89.02078 
Q 468.614118 88.958678 468.128263 88.958678 
L 465.757433 88.958678 
L 465.757433 94.31405 
L 466.466125 94.31405 
L 466.466125 91.950526 
L 467.284408 91.950526 
Q 467.594917 91.950526 467.783049 92.005322 
Q 467.971181 92.060117 468.184885 92.266515 
Q 468.398588 92.472912 468.5922 92.761503 
Q 468.785812 93.050094 469.58583 94.31405 
L 470.477174 94.31405 
M 450.673988 93.035482 
L 450.673988 92.429076 
L 449.950684 92.429076 
L 449.950684 88.958678 
L 449.410032 88.958678 
L 446.973448 92.429076 
L 446.973448 93.035482 
L 449.293135 93.035482 
L 449.293135 94.31405 
L 449.950684 94.31405 
L 449.950684 93.035482 
L 450.673988 93.035482 
M 456.453114 92.122219 
L 454.633894 92.122219 
L 455.232995 90.51853 
Q 455.404688 90.058246 455.506973 89.517594 
L 455.525239 89.517594 
Q 455.627524 89.912124 455.711544 90.147746 
Q 455.795564 90.383367 456.453114 92.122219 
M 466.466125 91.314895 
L 466.466125 89.546819 
L 468.157487 89.546819 
Q 468.7712 89.546819 469.037872 89.802532 
Q 469.304545 90.058246 469.304545 90.423551 
Q 469.304545 90.704836 469.143811 90.931325 
Q 468.983076 91.157814 468.714577 91.236355 
Q 468.446078 91.314895 467.985794 91.314895 
L 466.466125 91.314895 
M 449.293135 92.429076 
L 447.616385 92.429076 
L 449.278523 90.010756 
L 449.293135 90.010756 
L 449.293135 92.429076 
" clip-path="url(#p4dc6dc3230)" style="fill: #ff0000"/>
   </g>
   <g id="patch_22">
    <path d="M 31.834711 304.958678 
L 174.644628 304.958678 
L 174.644628 233.553719 
L 31.834711 233.553719 
L 31.834711 304.958678 
" clip-path="url(#p4dc6dc3230)" style="fill: none; stroke: #ffffff; stroke-width: 0.48; stroke-linejoin: miter"/>
   </g>
   <g id="patch_23">
    <path d="M 81.818182 287.107438 
L 124.661157 287.107438 
L 124.661157 251.404959 
L 81.818182 251.404959 
L 81.818182 287.107438 
" clip-path="url(#p4dc6dc3230)" style="fill: none; stroke: #ffffff; stroke-width: 0.48; stroke-linejoin: miter"/>
   </g>
   <g id="patch_24">
    <path d="M 56.112397 269.256198 
C 56.112397 270.833633 54.833633 272.112397 53.256198 272.112397 
C 51.678764 272.112397 50.4 270.833633 50.4 269.256198 
C 50.4 267.678764 51.678764 266.4 53.256198 266.4 
C 54.833633 266.4 56.112397 267.678764 56.112397 269.256198 
" clip-path="url(#p4dc6dc3230)" style="fill: none; stroke: #ffffff; stroke-width: 0.48; stroke-linejoin: miter"/>
   </g>
   <g id="patch_25">
    <path d="M 156.079339 269.256198 
C 156.079339 270.833633 154.800575 272.112397 153.22314 272.112397 
C 151.645706 272.112397 150.366942 270.833633 150.366942 269.256198 
C 150.366942 267.678764 151.645706 266.4 153.22314 266.4 
C 154.800575 266.4 156.079339 267.678764 156.079339 269.256198 
" clip-path="url(#p4dc6dc3230)" style="fill: none; stroke: #ffffff; stroke-width: 0.48; stroke-linejoin: miter"/>
   </g>
   <g id="patch_26">
    <path d="M 94.31405 310.31405 
L 112.165289 310.31405 
L 112.165289 304.958678 
L 94.31405 304.958678 
L 94.31405 310.31405 
" clip-path="url(#p4dc6dc3230)" style="fill: none; stroke: #ffffff; stroke-width: 0.48; stroke-linejoin: miter"/>
   </g>
   <g id="patch_27">
    <path d="M 73.601254 242.388013 
Q 72.461502 242.388013 71.747331 243.146021 
Q 71.033159 243.904029 71.033159 245.22278 
Q 71.033159 246.355225 71.738198 247.140631 
Q 72.443237 247.926037 73.601254 247.926037 
Q 74.719087 247.926037 75.438738 247.168029 
Q 76.158389 246.410021 76.158389 245.164331 
Q 76.158389 243.914988 75.442391 243.1515 
Q 74.726393 242.388013 73.601254 242.388013 
M 70.112591 247.834711 
L 70.112591 242.479339 
L 69.170104 242.479339 
L 67.891536 246.20545 
Q 67.70523 246.753408 67.606598 247.063917 
L 67.591986 247.063917 
Q 67.559108 246.903183 67.347231 246.271205 
L 66.079623 242.479339 
L 65.020238 242.479339 
L 65.020238 247.834711 
L 65.6924 247.834711 
L 65.6924 243.279357 
L 65.714318 243.279357 
L 67.248599 247.834711 
L 67.88423 247.834711 
L 69.425817 243.352418 
L 69.440429 243.352418 
L 69.440429 247.834711 
L 70.112591 247.834711 
M 46.422559 247.834711 
L 46.422559 242.479339 
L 45.480072 242.479339 
L 44.201504 246.20545 
Q 44.015198 246.753408 43.916566 247.063917 
L 43.901954 247.063917 
Q 43.869076 246.903183 43.6572 246.271205 
L 42.389591 242.479339 
L 41.330206 242.479339 
L 41.330206 247.834711 
L 42.002368 247.834711 
L 42.002368 243.279357 
L 42.024286 243.279357 
L 43.558567 247.834711 
L 44.194198 247.834711 
L 45.735785 243.352418 
L 45.750397 243.352418 
L 45.750397 247.834711 
L 46.422559 247.834711 
M 81.305537 245.577126 
L 81.305537 242.479339 
L 80.593192 242.479339 
L 80.593192 245.566166 
Q 80.593192 246.136042 80.498213 246.495868 
Q 80.403234 246.855693 80.089071 247.071223 
Q 79.774909 247.286753 79.150237 247.286753 
Q 78.532872 247.286753 78.236975 247.016427 
Q 77.941078 246.746102 77.87167 246.397235 
Q 77.802262 246.048369 77.802262 245.566166 
L 77.802262 242.479339 
L 77.09357 242.479339 
L 77.09357 245.577126 
Q 77.09357 246.041063 77.150192 246.417327 
Q 77.206815 246.793591 77.411385 247.140631 
Q 77.615956 247.487671 78.054322 247.706854 
Q 78.492688 247.926037 79.208686 247.926037 
Q 79.942949 247.926037 80.383142 247.679456 
Q 80.823334 247.432875 81.018773 247.062091 
Q 81.214211 246.691306 81.259874 246.340613 
Q 81.305537 245.98992 81.305537 245.577126 
M 91.713078 243.11497 
L 91.713078 242.479339 
L 87.471886 242.479339 
L 87.471886 243.11497 
L 89.229003 243.11497 
L 89.229003 247.834711 
L 89.941348 247.834711 
L 89.941348 243.11497 
L 91.713078 243.11497 
M 62.20739 243.11497 
L 62.20739 242.479339 
L 57.966198 242.479339 
L 57.966198 243.11497 
L 59.723315 243.11497 
L 59.723315 247.834711 
L 60.43566 247.834711 
L 60.43566 243.11497 
L 62.20739 243.11497 
M 57.637423 243.11497 
L 57.637423 242.479339 
L 53.396232 242.479339 
L 53.396232 243.11497 
L 55.153349 243.11497 
L 55.153349 247.834711 
L 55.865694 247.834711 
L 55.865694 243.11497 
L 57.637423 243.11497 
M 86.708399 247.834711 
L 86.708399 242.479339 
L 86.032584 242.479339 
L 86.032584 246.684 
L 86.017972 246.684 
L 83.219735 242.479339 
L 82.496432 242.479339 
L 82.496432 247.834711 
L 83.168593 247.834711 
L 83.168593 243.63005 
L 83.183205 243.63005 
L 85.981442 247.834711 
L 86.708399 247.834711 
M 50.806219 246.556143 
L 50.806219 245.949737 
L 50.082915 245.949737 
L 50.082915 242.479339 
L 49.542264 242.479339 
L 47.105679 245.949737 
L 47.105679 246.556143 
L 49.425366 246.556143 
L 49.425366 247.834711 
L 50.082915 247.834711 
L 50.082915 246.556143 
L 50.806219 246.556143 
M 73.593948 247.319631 
Q 72.78297 247.319631 72.275196 246.744275 
Q 71.767422 246.16892 71.767422 245.237392 
Q 71.767422 244.09764 72.286156 243.54603 
Q 72.804889 242.994419 73.60856 242.994419 
Q 74.390313 242.994419 74.907219 243.556989 
Q 75.424126 244.119558 75.424126 245.164331 
Q 75.420473 246.179879 74.914525 246.749755 
Q 74.408578 247.319631 73.593948 247.319631 
M 49.425366 245.949737 
L 47.748616 245.949737 
L 49.410754 243.531417 
L 49.425366 243.531417 
L 49.425366 245.949737 
" clip-path="url(#p4dc6dc3230)" style="fill: #ff0000"/>
   </g>
   <g id="patch_28">
    <path d="M 238.895208 270.089102 
L 238.909091 269.256198 
L 238.895208 268.423295 
L 230.435361 265.415334 
L 230.29818 264.86697 
L 230.1428 264.323481 
L 235.965262 257.488588 
L 235.560833 256.760331 
L 235.132358 256.045956 
L 226.301936 257.67091 
L 225.908951 257.264602 
L 225.502644 256.871618 
L 227.127597 248.041195 
L 226.413223 247.61272 
L 225.684966 247.208292 
L 218.850072 253.030754 
L 218.306584 252.875374 
L 217.75822 252.738193 
L 214.750259 244.278346 
L 213.917355 244.264463 
L 213.084452 244.278346 
L 210.076491 252.738193 
L 209.528127 252.875374 
L 208.984638 253.030754 
L 202.149745 247.208292 
L 201.421488 247.61272 
L 200.707113 248.041195 
L 202.332067 256.871618 
L 201.925759 257.264602 
L 201.532775 257.67091 
L 192.702352 256.045956 
L 192.273878 256.760331 
L 191.869449 257.488588 
L 197.691911 264.323481 
L 197.536531 264.86697 
L 197.39935 265.415334 
L 188.939503 268.423295 
L 188.92562 269.256198 
L 188.939503 270.089102 
L 197.39935 273.097062 
L 197.536531 273.645427 
L 197.691911 274.188915 
L 191.869449 281.023809 
L 192.273878 281.752066 
L 192.702352 282.46644 
L 201.532775 280.841487 
L 201.925759 281.247794 
L 202.332067 281.640779 
L 200.707113 290.471201 
L 201.421488 290.899676 
L 202.149745 291.304105 
L 208.984638 285.481643 
L 209.528127 285.637023 
L 210.076491 285.774204 
L 213.084452 294.234051 
L 213.917355 294.247934 
L 214.750259 294.234051 
L 217.75822 285.774204 
L 218.306584 285.637023 
L 218.850072 285.481643 
L 225.684966 291.304105 
L 226.413223 290.899676 
L 227.127597 290.471201 
L 225.502644 281.640779 
L 225.908951 281.247794 
L 226.301936 280.841487 
L 235.132358 282.46644 
L 235.560833 281.752066 
L 235.965262 281.023809 
L 230.1428 274.188915 
L 230.29818 273.645427 
L 230.435361 273.097062 
L 238.895208 270.089102 
" clip-path="url(#p4dc6dc3230)" style="fill: none; stroke: #ffffff; stroke-width: 0.48; stroke-linejoin: miter"/>
   </g>
   <g id="patch_29">
    <path d="M 219.094215 269.256198 
C 219.094215 272.115299 216.776456 274.433058 213.917355 274.433058 
C 211.058255 274.433058 208.740496 272.115299 208.740496 269.256198 
C 208.740496 266.397098 211.058255 264.079339 213.917355 264.079339 
C 216.776456 264.079339 219.094215 266.397098 219.094215 269.256198 
" clip-path="url(#p4dc6dc3230)" style="fill: none; stroke: #ffffff; stroke-width: 0.48; stroke-linejoin: miter"/>
   </g>
   <g id="patch_30">
    <path d="M 218.622484 272.826446 
L 218.622484 269.256198 
L 217.99416 269.256198 
L 217.141781 271.740273 
Q 217.017577 272.105578 216.951823 272.312584 
L 216.942081 272.312584 
Q 216.920163 272.205428 216.778912 271.784109 
L 215.933839 269.256198 
L 215.227583 269.256198 
L 215.227583 272.826446 
L 215.67569 272.826446 
L 215.67569 269.789544 
L 215.690303 269.789544 
L 216.713157 272.826446 
L 217.13691 272.826446 
L 218.164635 269.838251 
L 218.174377 269.838251 
L 218.174377 272.826446 
L 218.622484 272.826446 
M 206.98143 272.826446 
L 206.98143 269.256198 
L 206.353106 269.256198 
L 205.500727 271.740273 
Q 205.376524 272.105578 205.310769 272.312584 
L 205.301027 272.312584 
Q 205.279109 272.205428 205.137858 271.784109 
L 204.292785 269.256198 
L 203.586529 269.256198 
L 203.586529 272.826446 
L 204.034636 272.826446 
L 204.034636 269.789544 
L 204.049249 269.789544 
L 205.072103 272.826446 
L 205.495856 272.826446 
L 206.523581 269.838251 
L 206.533323 269.838251 
L 206.533323 272.826446 
L 206.98143 272.826446 
M 214.024512 270.303406 
L 214.47749 270.266876 
Q 214.455571 269.753013 214.093919 269.474164 
Q 213.732267 269.195314 213.138038 269.195314 
Q 212.558421 269.195314 212.22234 269.475381 
Q 211.886259 269.755449 211.886259 270.184073 
Q 211.886259 270.561555 212.151714 270.797786 
Q 212.417169 271.034016 213.019923 271.164308 
Q 213.622676 271.2946 213.87839 271.428546 
Q 214.134103 271.562491 214.134103 271.854735 
Q 214.134103 272.134802 213.889349 272.297972 
Q 213.644594 272.461141 213.247629 272.461141 
Q 212.823876 272.461141 212.524325 272.265094 
Q 212.224775 272.069047 212.193116 271.640423 
L 211.745008 271.679388 
Q 211.766926 272.215169 212.140755 272.55125 
Q 212.514584 272.88733 213.267112 272.88733 
Q 213.856471 272.88733 214.222994 272.58291 
Q 214.589517 272.278489 214.589517 271.818204 
Q 214.589517 271.455335 214.389817 271.239805 
Q 214.190116 271.024275 213.910049 270.921989 
Q 213.629982 270.819704 213.186745 270.722289 
Q 212.687495 270.610262 212.510931 270.497018 
Q 212.334367 270.383773 212.334367 270.152413 
Q 212.334367 269.891829 212.563291 269.755449 
Q 212.792216 269.619068 213.157521 269.619068 
Q 213.561792 269.619068 213.778539 269.790761 
Q 213.995287 269.962455 214.024512 270.303406 
M 209.903871 271.974068 
L 209.903871 271.569797 
L 209.421668 271.569797 
L 209.421668 269.256198 
L 209.061234 269.256198 
L 207.436844 271.569797 
L 207.436844 271.974068 
L 208.983302 271.974068 
L 208.983302 272.826446 
L 209.421668 272.826446 
L 209.421668 271.974068 
L 209.903871 271.974068 
M 208.983302 271.569797 
L 207.865469 271.569797 
L 208.97356 269.957584 
L 208.983302 269.957584 
L 208.983302 271.569797 
" clip-path="url(#p4dc6dc3230)" style="fill: #ff0000"/>
   </g>
   <g id="patch_31">
    <path d="M 388.855317 270.009902 
L 388.855317 268.502495 
L 380.653116 264.706383 
L 380.537295 263.382542 
L 387.955698 258.219805 
L 387.69394 256.735299 
L 378.957161 254.421156 
L 378.613217 253.137538 
L 385.022418 246.765043 
L 384.506854 245.348543 
L 375.50096 244.586683 
L 374.939343 243.382292 
L 380.144602 235.993663 
L 379.390898 234.68821 
L 370.389528 235.501782 
L 369.627303 234.413212 
L 373.47046 226.232949 
L 372.501518 225.078208 
L 363.778174 227.442491 
L 362.838501 226.502818 
L 365.202784 217.779474 
L 364.048043 216.810532 
L 355.86778 220.653688 
L 354.77921 219.891464 
L 355.592781 210.890094 
L 354.287329 210.13639 
L 346.898699 215.341649 
L 345.694308 214.780032 
L 344.932448 205.774138 
L 343.515949 205.258574 
L 337.143453 211.667775 
L 335.859836 211.323831 
L 333.545693 202.587052 
L 332.061187 202.325294 
L 326.89845 209.743697 
L 325.574608 209.627876 
L 321.778497 201.425675 
L 320.27109 201.425675 
L 316.474978 209.627876 
L 315.151137 209.743697 
L 309.9884 202.325294 
L 308.503894 202.587052 
L 306.189751 211.323831 
L 304.906134 211.667775 
L 298.533638 205.258574 
L 297.117138 205.774138 
L 296.355278 214.780032 
L 295.150887 215.341649 
L 287.762258 210.13639 
L 286.456805 210.890094 
L 287.270377 219.891464 
L 286.181807 220.653688 
L 278.001544 216.810532 
L 276.846803 217.779474 
L 279.211086 226.502818 
L 278.271413 227.442491 
L 269.548069 225.078208 
L 268.579127 226.232949 
L 272.422283 234.413212 
L 271.660059 235.501782 
L 262.658689 234.68821 
L 261.904985 235.993663 
L 267.110244 243.382292 
L 266.548627 244.586683 
L 257.542733 245.348543 
L 257.027169 246.765043 
L 263.43637 253.137538 
L 263.092426 254.421156 
L 254.355647 256.735299 
L 254.093889 258.219805 
L 261.512292 263.382542 
L 261.396471 264.706383 
L 253.19427 268.502495 
L 253.19427 270.009902 
L 261.396471 273.806013 
L 261.512292 275.129855 
L 254.093889 280.292592 
L 254.355647 281.777098 
L 263.092426 284.091241 
L 263.43637 285.374858 
L 257.027169 291.747354 
L 257.542733 293.163853 
L 266.548627 293.925713 
L 267.110244 295.130104 
L 261.904985 302.518734 
L 262.658689 303.824186 
L 271.660059 303.010615 
L 272.422283 304.099185 
L 268.579127 312.279448 
L 269.548069 313.434189 
L 278.271413 311.069906 
L 279.211086 312.009579 
L 276.846803 320.732923 
L 278.001544 321.701865 
L 286.181807 317.858708 
L 287.270377 318.620933 
L 286.456805 327.622303 
L 287.762258 328.376007 
L 295.150887 323.170748 
L 296.355278 323.732365 
L 297.117138 332.738259 
L 298.533638 333.253822 
L 304.906134 326.844622 
L 306.189751 327.188566 
L 308.503894 335.925345 
L 309.9884 336.187103 
L 315.151137 328.7687 
L 316.474978 328.884521 
L 320.27109 337.086722 
L 321.778497 337.086722 
L 325.574608 328.884521 
L 326.89845 328.7687 
L 332.061187 336.187103 
L 333.545693 335.925345 
L 335.859836 327.188566 
L 337.143453 326.844622 
L 343.515949 333.253822 
L 344.932448 332.738259 
L 345.694308 323.732365 
L 346.898699 323.170748 
L 354.287329 328.376007 
L 355.592781 327.622303 
L 354.77921 318.620933 
L 355.86778 317.858708 
L 364.048043 321.701865 
L 365.202784 320.732923 
L 362.838501 312.009579 
L 363.778174 311.069906 
L 372.501518 313.434189 
L 373.47046 312.279448 
L 369.627303 304.099185 
L 370.389528 303.010615 
L 379.390898 303.824186 
L 380.144602 302.518734 
L 374.939343 295.130104 
L 375.50096 293.925713 
L 384.506854 293.163853 
L 385.022418 291.747354 
L 378.613217 285.374858 
L 378.957161 284.091241 
L 387.69394 281.777098 
L 387.955698 280.292592 
L 380.537295 275.129855 
L 380.653116 273.806013 
L 388.855317 270.009902 
L 388.855317 270.009902 
" clip-path="url(#p4dc6dc3230)" style="fill: none; stroke: #ffffff; stroke-width: 0.48; stroke-linejoin: miter"/>
   </g>
   <g id="patch_32">
    <path d="M 323.880992 269.256198 
C 323.880992 270.833633 322.602228 272.112397 321.024793 272.112397 
C 319.447359 272.112397 318.168595 270.833633 318.168595 269.256198 
C 318.168595 267.678764 319.447359 266.4 321.024793 266.4 
C 322.602228 266.4 323.880992 267.678764 323.880992 269.256198 
" clip-path="url(#p4dc6dc3230)" style="fill: none; stroke: #ffffff; stroke-width: 0.48; stroke-linejoin: miter"/>
   </g>
   <g id="patch_33">
    <path d="M 324.962782 272.327196 
L 324.962782 271.004792 
L 323.452854 271.004792 
L 323.452854 271.430981 
L 324.504933 271.430981 
L 324.504933 272.093401 
Q 324.02273 272.461141 323.462596 272.461141 
Q 323.094855 272.461141 322.781911 272.299189 
Q 322.468966 272.137237 322.309449 271.82064 
Q 322.149933 271.504042 322.149933 271.02671 
Q 322.149933 270.388644 322.478707 269.994115 
Q 322.807482 269.599585 323.452854 269.599585 
Q 323.869302 269.599585 324.127451 269.793197 
Q 324.3856 269.986808 324.48545 270.371596 
L 324.909204 270.252263 
Q 324.782565 269.723789 324.418477 269.459551 
Q 324.05439 269.195314 323.452854 269.195314 
Q 322.873237 269.195314 322.472619 269.435198 
Q 322.072001 269.675081 321.866213 270.11223 
Q 321.660424 270.549378 321.660424 271.055935 
Q 321.660424 271.886395 322.163327 272.386863 
Q 322.666231 272.88733 323.486949 272.88733 
Q 324.288185 272.88733 324.962782 272.327196 
M 314.088868 272.826446 
L 314.088868 269.256198 
L 313.460544 269.256198 
L 312.608165 271.740273 
Q 312.483962 272.105578 312.418207 272.312584 
L 312.408465 272.312584 
Q 312.386547 272.205428 312.245296 271.784109 
L 311.400223 269.256198 
L 310.693967 269.256198 
L 310.693967 272.826446 
L 311.142074 272.826446 
L 311.142074 269.789544 
L 311.156687 269.789544 
L 312.179541 272.826446 
L 312.603295 272.826446 
L 313.631019 269.838251 
L 313.640761 269.838251 
L 313.640761 272.826446 
L 314.088868 272.826446 
M 317.011309 271.974068 
L 317.011309 271.569797 
L 316.529106 271.569797 
L 316.529106 269.256198 
L 316.168672 269.256198 
L 314.544282 271.569797 
L 314.544282 271.974068 
L 316.09074 271.974068 
L 316.09074 272.826446 
L 316.529106 272.826446 
L 316.529106 271.974068 
L 317.011309 271.974068 
M 321.23667 272.826446 
L 321.23667 272.402692 
L 319.4759 272.402692 
L 319.4759 269.256198 
L 319.003439 269.256198 
L 319.003439 272.826446 
L 321.23667 272.826446 
M 316.09074 271.569797 
L 314.972907 271.569797 
L 316.080999 269.957584 
L 316.09074 269.957584 
L 316.09074 271.569797 
" clip-path="url(#p4dc6dc3230)" style="fill: #ff0000"/>
   </g>
   <g id="patch_34">
    <path d="M 474.545455 269.256198 
C 474.545455 288.974133 458.56091 304.958678 438.842975 304.958678 
C 419.12504 304.958678 403.140496 288.974133 403.140496 269.256198 
C 403.140496 249.538263 419.12504 233.553719 438.842975 233.553719 
C 458.56091 233.553719 474.545455 249.538263 474.545455 269.256198 
" clip-path="url(#p4dc6dc3230)" style="fill: none; stroke: #ffffff; stroke-width: 0.48; stroke-linejoin: miter"/>
   </g>
   <g id="patch_35">
    <path d="M 441.699174 269.256198 
C 441.699174 270.833633 440.42041 272.112397 438.842975 272.112397 
C 437.26554 272.112397 435.986777 270.833633 435.986777 269.256198 
C 435.986777 267.678764 437.26554 266.4 438.842975 266.4 
C 440.42041 266.4 441.699174 267.678764 441.699174 269.256198 
" clip-path="url(#p4dc6dc3230)" style="fill: none; stroke: #ffffff; stroke-width: 0.48; stroke-linejoin: miter"/>
   </g>
   <g id="patch_36">
    <path d="M 468.297521 269.256198 
C 468.297521 270.735043 467.09868 271.933884 465.619835 271.933884 
C 464.14099 271.933884 462.942149 270.735043 462.942149 269.256198 
C 462.942149 267.777353 464.14099 266.578512 465.619835 266.578512 
C 467.09868 266.578512 468.297521 267.777353 468.297521 269.256198 
" clip-path="url(#p4dc6dc3230)" style="fill: none; stroke: #ffffff; stroke-width: 0.48; stroke-linejoin: miter"/>
   </g>
   <g id="patch_37">
    <path d="M 426.653964 272.826446 
L 426.653964 267.471074 
L 425.711477 267.471074 
L 424.432909 271.197186 
Q 424.246603 271.745143 424.147971 272.055653 
L 424.133359 272.055653 
Q 424.100481 271.894918 423.888605 271.262941 
L 422.620996 267.471074 
L 421.561611 267.471074 
L 421.561611 272.826446 
L 422.233773 272.826446 
L 422.233773 268.271092 
L 422.255691 268.271092 
L 423.789972 272.826446 
L 424.425603 272.826446 
L 425.96719 268.344153 
L 425.981802 268.344153 
L 425.981802 272.826446 
L 426.653964 272.826446 
M 455.334062 272.826446 
L 455.334062 267.471074 
L 454.391575 267.471074 
L 453.113008 271.197186 
Q 452.926702 271.745143 452.82807 272.055653 
L 452.813458 272.055653 
Q 452.78058 271.894918 452.568703 271.262941 
L 451.301095 267.471074 
L 450.24171 267.471074 
L 450.24171 272.826446 
L 450.913871 272.826446 
L 450.913871 268.271092 
L 450.93579 268.271092 
L 452.470071 272.826446 
L 453.105702 272.826446 
L 454.647289 268.344153 
L 454.661901 268.344153 
L 454.661901 272.826446 
L 455.334062 272.826446 
M 444.184953 272.826446 
L 443.249772 271.368879 
Q 442.778528 270.630963 442.24153 270.393515 
L 442.24153 270.378903 
Q 442.975793 270.28027 443.359363 269.911312 
Q 443.742933 269.542354 443.742933 268.935948 
Q 443.742933 268.599867 443.609597 268.296664 
Q 443.476261 267.993461 443.227853 267.794369 
Q 442.979446 267.595278 442.650671 267.533176 
Q 442.321897 267.471074 441.836041 267.471074 
L 439.465211 267.471074 
L 439.465211 272.826446 
L 440.173903 272.826446 
L 440.173903 270.462923 
L 440.992187 270.462923 
Q 441.302696 270.462923 441.490828 270.517718 
Q 441.67896 270.572514 441.892663 270.778912 
Q 442.106367 270.985309 442.299979 271.2739 
Q 442.49359 271.562491 443.293608 272.826446 
L 444.184953 272.826446 
M 434.06235 267.471074 
L 434.06235 272.826446 
L 435.991161 272.826446 
Q 437.364707 272.826446 437.927277 272.064785 
Q 438.489847 271.303124 438.489847 270.119536 
Q 438.489847 269.498517 438.352858 269.061978 
Q 438.215868 268.625438 437.976593 268.289358 
Q 437.737319 267.953277 437.417677 267.761492 
Q 437.098035 267.569707 436.747342 267.520391 
Q 436.396649 267.471074 435.910793 267.471074 
L 434.06235 267.471074 
M 449.072734 270.568861 
L 449.072734 267.471074 
L 448.360389 267.471074 
L 448.360389 270.557902 
Q 448.360389 271.127778 448.26541 271.487603 
Q 448.170431 271.847429 447.856268 272.062959 
Q 447.542106 272.278489 446.917434 272.278489 
Q 446.300069 272.278489 446.004172 272.008163 
Q 445.708275 271.737837 445.638867 271.388971 
Q 445.569459 271.040105 445.569459 270.557902 
L 445.569459 267.471074 
L 444.860767 267.471074 
L 444.860767 270.568861 
Q 444.860767 271.032799 444.917389 271.409063 
Q 444.974011 271.785327 445.178582 272.132367 
Q 445.383153 272.479406 445.821519 272.69859 
Q 446.259885 272.917773 446.975883 272.917773 
Q 447.710146 272.917773 448.150339 272.671192 
Q 448.590531 272.424611 448.78597 272.053826 
Q 448.981408 271.683042 449.027071 271.332349 
Q 449.072734 270.981656 449.072734 270.568861 
M 431.037624 271.547879 
L 431.037624 270.941472 
L 430.31432 270.941472 
L 430.31432 267.471074 
L 429.773669 267.471074 
L 427.337084 270.941472 
L 427.337084 271.547879 
L 429.656771 271.547879 
L 429.656771 272.826446 
L 430.31432 272.826446 
L 430.31432 271.547879 
L 431.037624 271.547879 
M 440.173903 269.827292 
L 440.173903 268.059215 
L 441.865266 268.059215 
Q 442.478978 268.059215 442.745651 268.314929 
Q 443.012323 268.570643 443.012323 268.935948 
Q 443.012323 269.217232 442.851589 269.443722 
Q 442.690855 269.670211 442.422356 269.748751 
Q 442.153857 269.827292 441.693572 269.827292 
L 440.173903 269.827292 
M 434.771042 272.190816 
L 434.771042 268.106705 
L 435.896181 268.106705 
Q 436.265139 268.106705 436.500761 268.13593 
Q 436.736383 268.165154 436.98479 268.29849 
Q 437.233198 268.431827 437.424983 268.718591 
Q 437.616768 269.005356 437.688002 269.354222 
Q 437.759237 269.703088 437.759237 270.104924 
Q 437.759237 270.831881 437.572931 271.2739 
Q 437.386626 271.715919 437.103514 271.909531 
Q 436.820403 272.103142 436.544598 272.146979 
Q 436.268792 272.190816 435.9181 272.190816 
L 434.771042 272.190816 
M 429.656771 270.941472 
L 427.980021 270.941472 
L 429.642159 268.523153 
L 429.656771 268.523153 
L 429.656771 270.941472 
" clip-path="url(#p4dc6dc3230)" style="fill: #ff0000"/>
   </g>
  </g>
 </g>
 <defs>
  <clipPath id="p4dc6dc3230">
   <rect x="7.2" y="7.2" width="541.963636" height="345.6"/>
  </clipPath>
 </defs>
</svg>
