<?xml version="1.0" encoding="utf-8" standalone="no"?>
<!DOCTYPE svg PUBLIC "-//W3C//DTD SVG 1.1//EN"
  "http://www.w3.org/Graphics/SVG/1.1/DTD/svg11.dtd">
<svg xmlns:xlink="http://www.w3.org/1999/xlink" width="527.225806pt" height="360pt" viewBox="0 0 527.225806 360" xmlns="http://www.w3.org/2000/svg" version="1.1">
 <metadata>
  <rdf:RDF xmlns:dc="http://purl.org/dc/elements/1.1/" xmlns:cc="http://creativecommons.org/ns#" xmlns:rdf="http://www.w3.org/1999/02/22-rdf-syntax-ns#">
   <cc:Work>
    <dc:type rdf:resource="http://purl.org/dc/dcmitype/StillImage"/>
    <dc:date>2026-03-20T00:01:47.021835</dc:date>
    <dc:format>image/svg+xml</dc:format>
    <dc:creator>
     <cc:Agent>
      <dc:title>Matplotlib v3.10.8, https://matplotlib.org/</dc:title>
     </cc:Agent>
    </dc:creator>
   </cc:Work>
  </rdf:RDF>
 </metadata>
 <defs>
  <style type="text/css">*{stroke-linejoin: round; stroke-linecap: butt}</style>
 </defs>
 <g id="figure_1">
  <g id="patch_1">
   <path d="M 0 360 
L 527.225806 360 
L 527.225806 0 
L 0 0 
z
" style="fill: #1a1a2e"/>
  </g>
  <g id="axes_1">
   <g id="patch_2">
    <path d="M 7.2 352.8 
L 520.025806 352.8 
L 520.025806 7.2 
L 7.2 7.2 
z
" style="fill: #1a1a2e"/>
   </g>
   <g id="patch_3">
    <path d="M 30.510264 191.824047 
L 300.774194 191.824047 
L 300.774194 22.909091 
L 30.510264 22.909091 
L 30.510264 191.824047 
" clip-path="url(#pe7cd648c0b)" style="fill: none; stroke: #ffffff; stroke-width: 0.48; stroke-linejoin: miter"/>
   </g>
   <g id="patch_4">
    <path d="M 44.313819 36.422287 
L 44.313819 31.354839 
L 43.422003 31.354839 
L 42.212176 34.880622 
Q 42.035887 35.399119 41.942557 35.692934 
L 41.928731 35.692934 
Q 41.897621 35.540842 41.697135 34.942841 
L 40.497678 31.354839 
L 39.495249 31.354839 
L 39.495249 36.422287 
L 40.131273 36.422287 
L 40.131273 32.111845 
L 40.152013 32.111845 
L 41.603806 36.422287 
L 42.205263 36.422287 
L 43.663969 32.180978 
L 43.677795 32.180978 
L 43.677795 36.422287 
L 44.313819 36.422287 
M 60.207495 36.422287 
L 58.140418 31.354839 
L 57.417979 31.354839 
L 55.471885 36.422287 
L 56.180498 36.422287 
L 56.740475 34.880622 
L 58.855945 34.880622 
L 59.450489 36.422287 
L 60.207495 36.422287 
M 63.754018 32.841198 
L 64.396955 32.789348 
Q 64.365845 32.059995 63.852532 31.664209 
Q 63.33922 31.268422 62.495797 31.268422 
Q 61.673115 31.268422 61.196097 31.665937 
Q 60.719079 32.063452 60.719079 32.671822 
Q 60.719079 33.207603 61.095854 33.542898 
Q 61.472629 33.878193 62.32815 34.063124 
Q 63.183671 34.248055 63.546619 34.43817 
Q 63.909567 34.628286 63.909567 35.043084 
Q 63.909567 35.440599 63.562174 35.672194 
Q 63.21478 35.90379 62.651346 35.90379 
Q 62.049889 35.90379 61.624721 35.62553 
Q 61.199554 35.347269 61.154617 34.738899 
L 60.518593 34.794205 
Q 60.549703 35.554668 61.080299 36.031686 
Q 61.610895 36.508704 62.679 36.508704 
Q 63.515509 36.508704 64.035735 36.076622 
Q 64.555961 35.644541 64.555961 34.991234 
Q 64.555961 34.476194 64.272515 34.17028 
Q 63.98907 33.864367 63.591555 33.719187 
Q 63.19404 33.574008 62.56493 33.435742 
Q 61.856317 33.276736 61.60571 33.116002 
Q 61.355103 32.955268 61.355103 32.626886 
Q 61.355103 32.257024 61.680028 32.063452 
Q 62.004953 31.86988 62.52345 31.86988 
Q 63.097254 31.86988 63.404896 32.113573 
Q 63.712538 32.357267 63.754018 32.841198 
M 54.161814 33.726101 
Q 54.514393 33.542898 54.688954 33.261181 
Q 54.863514 32.979464 54.863514 32.647626 
Q 54.863514 32.156781 54.485011 31.75581 
Q 54.106508 31.354839 53.183583 31.354839 
L 51.282425 31.354839 
L 51.282425 36.422287 
L 53.221606 36.422287 
Q 53.895652 36.422287 54.28971 36.25464 
Q 54.683769 36.086992 54.898081 35.730957 
Q 55.112393 35.374922 55.112393 34.949755 
Q 55.112393 34.524587 54.875613 34.197933 
Q 54.638832 33.87128 54.161814 33.726101 
M 69.267374 36.422287 
L 69.267374 35.82083 
L 66.152933 35.82083 
L 66.152933 34.106332 
L 68.956276 34.106332 
L 68.956276 33.504875 
L 66.152933 33.504875 
L 66.152933 31.956296 
L 69.149848 31.956296 
L 69.149848 31.354839 
L 65.482343 31.354839 
L 65.482343 36.422287 
L 69.267374 36.422287 
M 48.461799 35.21246 
L 48.461799 34.638656 
L 47.777382 34.638656 
L 47.777382 31.354839 
L 47.265798 31.354839 
L 44.960213 34.638656 
L 44.960213 35.21246 
L 47.155185 35.21246 
L 47.155185 36.422287 
L 47.777382 36.422287 
L 47.777382 35.21246 
L 48.461799 35.21246 
M 58.652003 34.348297 
L 56.930591 34.348297 
L 57.497482 32.830828 
Q 57.659944 32.39529 57.75673 31.883706 
L 57.774014 31.883706 
Q 57.8708 32.257024 57.950303 32.479978 
Q 58.029806 32.702932 58.652003 34.348297 
M 51.953015 35.82083 
L 51.953015 34.078679 
L 53.128276 34.078679 
Q 53.857629 34.078679 54.137618 34.308546 
Q 54.417607 34.538413 54.417607 34.949755 
Q 54.417607 35.357639 54.154901 35.589235 
Q 53.892196 35.82083 53.214692 35.82083 
L 51.953015 35.82083 
M 51.953015 33.477222 
L 51.953015 31.956296 
L 52.965814 31.956296 
Q 53.352958 31.956296 53.600109 31.994319 
Q 53.847259 32.032342 54.025277 32.203446 
Q 54.203294 32.37455 54.203294 32.734042 
Q 54.203294 33.07625 54.027005 33.238713 
Q 53.850716 33.401175 53.620849 33.439199 
Q 53.390982 33.477222 53.05223 33.477222 
L 51.953015 33.477222 
M 47.155185 34.638656 
L 45.568583 34.638656 
L 47.141359 32.350354 
L 47.155185 32.350354 
L 47.155185 34.638656 
" clip-path="url(#pe7cd648c0b)" style="fill: #ff0000"/>
   </g>
   <g id="patch_5">
    <path d="M 95.626979 141.14956 
L 100.525513 141.14956 
L 100.525513 124.258065 
L 95.626979 124.258065 
L 95.626979 141.14956 
" clip-path="url(#pe7cd648c0b)" style="fill: none; stroke: #ffffff; stroke-width: 0.48; stroke-linejoin: miter"/>
   </g>
   <g id="patch_6">
    <path d="M 95.626979 90.475073 
L 100.525513 90.475073 
L 100.525513 73.583578 
L 95.626979 73.583578 
L 95.626979 90.475073 
" clip-path="url(#pe7cd648c0b)" style="fill: none; stroke: #ffffff; stroke-width: 0.48; stroke-linejoin: miter"/>
   </g>
   <g id="patch_7">
    <path d="M 230.758944 141.14956 
L 235.657478 141.14956 
L 235.657478 124.258065 
L 230.758944 124.258065 
L 230.758944 141.14956 
" clip-path="url(#pe7cd648c0b)" style="fill: none; stroke: #ffffff; stroke-width: 0.48; stroke-linejoin: miter"/>
   </g>
   <g id="patch_8">
    <path d="M 230.758944 90.475073 
L 235.657478 90.475073 
L 235.657478 73.583578 
L 230.758944 73.583578 
L 230.758944 90.475073 
" clip-path="url(#pe7cd648c0b)" style="fill: none; stroke: #ffffff; stroke-width: 0.48; stroke-linejoin: miter"/>
   </g>
   <g id="patch_9">
    <path d="M 163.192962 158.041056 
L 168.091496 158.041056 
L 168.091496 141.14956 
L 163.192962 141.14956 
L 163.192962 158.041056 
" clip-path="url(#pe7cd648c0b)" style="fill: none; stroke: #ffffff; stroke-width: 0.48; stroke-linejoin: miter"/>
   </g>
   <g id="patch_10">
    <path d="M 314.28739 191.824047 
L 398.744868 191.824047 
L 398.744868 73.583578 
L 314.28739 73.583578 
L 314.28739 191.824047 
" clip-path="url(#pe7cd648c0b)" style="fill: none; stroke: #ffffff; stroke-width: 0.48; stroke-linejoin: miter"/>
   </g>
   <g id="patch_11">
    <path d="M 322.733138 196.891496 
L 339.624633 196.891496 
L 339.624633 191.824047 
L 322.733138 191.824047 
L 322.733138 196.891496 
" clip-path="url(#pe7cd648c0b)" style="fill: none; stroke: #ffffff; stroke-width: 0.48; stroke-linejoin: miter"/>
   </g>
   <g id="patch_12">
    <path d="M 373.407625 196.891496 
L 390.29912 196.891496 
L 390.29912 191.824047 
L 373.407625 191.824047 
L 373.407625 196.891496 
" clip-path="url(#pe7cd648c0b)" style="fill: none; stroke: #ffffff; stroke-width: 0.48; stroke-linejoin: miter"/>
   </g>
   <g id="patch_13">
    <path d="M 344.523167 115.812317 
C 344.523167 118.517702 342.330019 120.71085 339.624633 120.71085 
C 336.919248 120.71085 334.7261 118.517702 334.7261 115.812317 
C 334.7261 113.106931 336.919248 110.913783 339.624633 110.913783 
C 342.330019 110.913783 344.523167 113.106931 344.523167 115.812317 
" clip-path="url(#pe7cd648c0b)" style="fill: none; stroke: #ffffff; stroke-width: 0.48; stroke-linejoin: miter"/>
   </g>
   <g id="patch_14">
    <path d="M 376.110264 115.812317 
C 376.110264 117.304943 374.900251 118.514956 373.407625 118.514956 
C 371.914998 118.514956 370.704985 117.304943 370.704985 115.812317 
C 370.704985 114.31969 371.914998 113.109677 373.407625 113.109677 
C 374.900251 113.109677 376.110264 114.31969 376.110264 115.812317 
" clip-path="url(#pe7cd648c0b)" style="fill: none; stroke: #ffffff; stroke-width: 0.48; stroke-linejoin: miter"/>
   </g>
   <g id="patch_15">
    <path d="M 324.712646 90.475073 
L 324.712646 85.407625 
L 323.82083 85.407625 
L 322.611003 88.933407 
Q 322.434714 89.451905 322.341384 89.74572 
L 322.327558 89.74572 
Q 322.296448 89.593628 322.095962 88.995627 
L 320.896505 85.407625 
L 319.894076 85.407625 
L 319.894076 90.475073 
L 320.5301 90.475073 
L 320.5301 86.164631 
L 320.55084 86.164631 
L 322.002632 90.475073 
L 322.60409 90.475073 
L 324.062796 86.233764 
L 324.076622 86.233764 
L 324.076622 90.475073 
L 324.712646 90.475073 
M 335.884538 90.475073 
L 333.817462 85.407625 
L 333.095022 85.407625 
L 331.148928 90.475073 
L 331.857541 90.475073 
L 332.417518 88.933407 
L 334.532988 88.933407 
L 335.127532 90.475073 
L 335.884538 90.475073 
M 340.557929 90.475073 
L 338.639488 87.792713 
L 340.416206 85.407625 
L 339.686853 85.407625 
Q 338.397523 87.101383 338.262713 87.332979 
Q 338.179754 87.167059 338.006921 86.921637 
L 336.938816 85.407625 
L 336.14033 85.407625 
L 337.875569 87.834193 
L 335.912191 90.475073 
L 336.721048 90.475073 
Q 338.228147 88.390713 338.228147 88.328494 
L 338.241973 88.328494 
Q 338.33876 88.50824 338.712078 89.037107 
L 339.728333 90.475073 
L 340.557929 90.475073 
M 328.860626 89.265246 
L 328.860626 88.691442 
L 328.176209 88.691442 
L 328.176209 85.407625 
L 327.664625 85.407625 
L 325.359039 88.691442 
L 325.359039 89.265246 
L 327.554012 89.265246 
L 327.554012 90.475073 
L 328.176209 90.475073 
L 328.176209 89.265246 
L 328.860626 89.265246 
M 346.268314 90.475073 
L 346.268314 89.873616 
L 343.769157 89.873616 
L 343.769157 85.407625 
L 343.098567 85.407625 
L 343.098567 90.475073 
L 346.268314 90.475073 
M 334.329046 88.401083 
L 332.607634 88.401083 
L 333.174525 86.883614 
Q 333.336987 86.448076 333.433774 85.936492 
L 333.451057 85.936492 
Q 333.547843 86.30981 333.627346 86.532764 
Q 333.706849 86.755718 334.329046 88.401083 
M 327.554012 88.691442 
L 325.96741 88.691442 
L 327.540186 86.40314 
L 327.554012 86.40314 
L 327.554012 88.691442 
" clip-path="url(#pe7cd648c0b)" style="fill: #ff0000"/>
   </g>
   <g id="patch_16">
    <path d="M 412.258065 191.824047 
L 496.715543 191.824047 
L 496.715543 73.583578 
L 412.258065 73.583578 
L 412.258065 191.824047 
" clip-path="url(#pe7cd648c0b)" style="fill: none; stroke: #ffffff; stroke-width: 0.48; stroke-linejoin: miter"/>
   </g>
   <g id="patch_17">
    <path d="M 420.703812 196.891496 
L 437.595308 196.891496 
L 437.595308 191.824047 
L 420.703812 191.824047 
L 420.703812 196.891496 
" clip-path="url(#pe7cd648c0b)" style="fill: none; stroke: #ffffff; stroke-width: 0.48; stroke-linejoin: miter"/>
   </g>
   <g id="patch_18">
    <path d="M 471.378299 196.891496 
L 488.269795 196.891496 
L 488.269795 191.824047 
L 471.378299 191.824047 
L 471.378299 196.891496 
" clip-path="url(#pe7cd648c0b)" style="fill: none; stroke: #ffffff; stroke-width: 0.48; stroke-linejoin: miter"/>
   </g>
   <g id="patch_19">
    <path d="M 442.493842 115.812317 
C 442.493842 118.517702 440.300693 120.71085 437.595308 120.71085 
C 434.889922 120.71085 432.696774 118.517702 432.696774 115.812317 
C 432.696774 113.106931 434.889922 110.913783 437.595308 110.913783 
C 440.300693 110.913783 442.493842 113.106931 442.493842 115.812317 
" clip-path="url(#pe7cd648c0b)" style="fill: none; stroke: #ffffff; stroke-width: 0.48; stroke-linejoin: miter"/>
   </g>
   <g id="patch_20">
    <path d="M 474.080938 115.812317 
C 474.080938 117.304943 472.870926 118.514956 471.378299 118.514956 
C 469.885673 118.514956 468.67566 117.304943 468.67566 115.812317 
C 468.67566 114.31969 469.885673 113.109677 471.378299 113.109677 
C 472.870926 113.109677 474.080938 114.31969 474.080938 115.812317 
" clip-path="url(#pe7cd648c0b)" style="fill: none; stroke: #ffffff; stroke-width: 0.48; stroke-linejoin: miter"/>
   </g>
   <g id="patch_21">
    <path d="M 422.68332 90.475073 
L 422.68332 85.407625 
L 421.791505 85.407625 
L 420.581677 88.933407 
Q 420.405388 89.451905 420.312059 89.74572 
L 420.298232 89.74572 
Q 420.267122 89.593628 420.066637 88.995627 
L 418.867179 85.407625 
L 417.864751 85.407625 
L 417.864751 90.475073 
L 418.500774 90.475073 
L 418.500774 86.164631 
L 418.521514 86.164631 
L 419.973307 90.475073 
L 420.574764 90.475073 
L 422.03347 86.233764 
L 422.047297 86.233764 
L 422.047297 90.475073 
L 422.68332 90.475073 
M 433.855213 90.475073 
L 431.788136 85.407625 
L 431.065696 85.407625 
L 429.119602 90.475073 
L 429.828216 90.475073 
L 430.388193 88.933407 
L 432.503663 88.933407 
L 433.098206 90.475073 
L 433.855213 90.475073 
M 438.528603 90.475073 
L 436.610163 87.792713 
L 438.386881 85.407625 
L 437.657528 85.407625 
Q 436.368197 87.101383 436.233388 87.332979 
Q 436.150428 87.167059 435.977596 86.921637 
L 434.909491 85.407625 
L 434.111005 85.407625 
L 435.846243 87.834193 
L 433.882866 90.475073 
L 434.691722 90.475073 
Q 436.198821 88.390713 436.198821 88.328494 
L 436.212648 88.328494 
Q 436.309434 88.50824 436.682752 89.037107 
L 437.699007 90.475073 
L 438.528603 90.475073 
M 445.569799 90.475073 
L 444.684897 89.09587 
Q 444.238989 88.397627 443.730861 88.172945 
L 443.730861 88.159118 
Q 444.425648 88.065788 444.788596 87.716667 
Q 445.151544 87.367545 445.151544 86.793741 
Q 445.151544 86.475729 445.025377 86.188827 
Q 444.899209 85.901926 444.664157 85.713538 
Q 444.429105 85.525151 444.118006 85.466388 
Q 443.806908 85.407625 443.347173 85.407625 
L 441.103808 85.407625 
L 441.103808 90.475073 
L 441.774398 90.475073 
L 441.774398 88.238621 
L 442.548687 88.238621 
Q 442.842502 88.238621 443.02052 88.290471 
Q 443.198537 88.34232 443.400751 88.537621 
Q 443.602965 88.732922 443.786168 89.005997 
Q 443.96937 89.279072 444.726377 90.475073 
L 445.569799 90.475073 
M 426.8313 89.265246 
L 426.8313 88.691442 
L 426.146884 88.691442 
L 426.146884 85.407625 
L 425.635299 85.407625 
L 423.329714 88.691442 
L 423.329714 89.265246 
L 425.524687 89.265246 
L 425.524687 90.475073 
L 426.146884 90.475073 
L 426.146884 89.265246 
L 426.8313 89.265246 
M 432.29972 88.401083 
L 430.578309 88.401083 
L 431.145199 86.883614 
Q 431.307662 86.448076 431.404448 85.936492 
L 431.421731 85.936492 
Q 431.518517 86.30981 431.59802 86.532764 
Q 431.677523 86.755718 432.29972 88.401083 
M 441.774398 87.637164 
L 441.774398 85.964145 
L 443.374826 85.964145 
Q 443.955544 85.964145 444.207879 86.206111 
Q 444.460215 86.448076 444.460215 86.793741 
Q 444.460215 87.059903 444.308122 87.274216 
Q 444.156029 87.488528 443.901966 87.562846 
Q 443.647902 87.637164 443.212364 87.637164 
L 441.774398 87.637164 
M 425.524687 88.691442 
L 423.938084 88.691442 
L 425.51086 86.40314 
L 425.524687 86.40314 
L 425.524687 88.691442 
" clip-path="url(#pe7cd648c0b)" style="fill: #ff0000"/>
   </g>
   <g id="patch_22">
    <path d="M 30.510264 306.686217 
L 165.642229 306.686217 
L 165.642229 239.120235 
L 30.510264 239.120235 
L 30.510264 306.686217 
" clip-path="url(#pe7cd648c0b)" style="fill: none; stroke: #ffffff; stroke-width: 0.48; stroke-linejoin: miter"/>
   </g>
   <g id="patch_23">
    <path d="M 77.806452 289.794721 
L 118.346041 289.794721 
L 118.346041 256.01173 
L 77.806452 256.01173 
L 77.806452 289.794721 
" clip-path="url(#pe7cd648c0b)" style="fill: none; stroke: #ffffff; stroke-width: 0.48; stroke-linejoin: miter"/>
   </g>
   <g id="patch_24">
    <path d="M 53.482698 272.903226 
C 53.482698 274.395852 52.272685 275.605865 50.780059 275.605865 
C 49.287432 275.605865 48.077419 274.395852 48.077419 272.903226 
C 48.077419 271.410599 49.287432 270.200587 50.780059 270.200587 
C 52.272685 270.200587 53.482698 271.410599 53.482698 272.903226 
" clip-path="url(#pe7cd648c0b)" style="fill: none; stroke: #ffffff; stroke-width: 0.48; stroke-linejoin: miter"/>
   </g>
   <g id="patch_25">
    <path d="M 148.075073 272.903226 
C 148.075073 274.395852 146.86506 275.605865 145.372434 275.605865 
C 143.879808 275.605865 142.669795 274.395852 142.669795 272.903226 
C 142.669795 271.410599 143.879808 270.200587 145.372434 270.200587 
C 146.86506 270.200587 148.075073 271.410599 148.075073 272.903226 
" clip-path="url(#pe7cd648c0b)" style="fill: none; stroke: #ffffff; stroke-width: 0.48; stroke-linejoin: miter"/>
   </g>
   <g id="patch_26">
    <path d="M 89.630499 311.753666 
L 106.521994 311.753666 
L 106.521994 306.686217 
L 89.630499 306.686217 
L 89.630499 311.753666 
" clip-path="url(#pe7cd648c0b)" style="fill: none; stroke: #ffffff; stroke-width: 0.48; stroke-linejoin: miter"/>
   </g>
   <g id="patch_27">
    <path d="M 70.031294 247.479566 
Q 68.952819 247.479566 68.277044 248.196821 
Q 67.601269 248.914076 67.601269 250.161926 
Q 67.601269 251.233488 68.268402 251.976668 
Q 68.935536 252.719847 70.031294 252.719847 
Q 71.089029 252.719847 71.769989 252.002592 
Q 72.450949 251.285338 72.450949 250.10662 
Q 72.450949 248.924446 71.773445 248.202006 
Q 71.095942 247.479566 70.031294 247.479566 
M 66.730193 252.633431 
L 66.730193 247.565982 
L 65.838378 247.565982 
L 64.62855 251.091765 
Q 64.452261 251.610263 64.358931 251.904078 
L 64.345105 251.904078 
Q 64.313995 251.751985 64.113509 251.153985 
L 62.914052 247.565982 
L 61.911623 247.565982 
L 61.911623 252.633431 
L 62.547647 252.633431 
L 62.547647 248.322989 
L 62.568387 248.322989 
L 64.02018 252.633431 
L 64.621637 252.633431 
L 66.080343 248.392122 
L 66.09417 248.392122 
L 66.09417 252.633431 
L 66.730193 252.633431 
M 44.313819 252.633431 
L 44.313819 247.565982 
L 43.422003 247.565982 
L 42.212176 251.091765 
Q 42.035887 251.610263 41.942557 251.904078 
L 41.928731 251.904078 
Q 41.897621 251.751985 41.697135 251.153985 
L 40.497678 247.565982 
L 39.495249 247.565982 
L 39.495249 252.633431 
L 40.131273 252.633431 
L 40.131273 248.322989 
L 40.152013 248.322989 
L 41.603806 252.633431 
L 42.205263 252.633431 
L 43.663969 248.392122 
L 43.677795 248.392122 
L 43.677795 252.633431 
L 44.313819 252.633431 
M 77.321368 250.497221 
L 77.321368 247.565982 
L 76.647322 247.565982 
L 76.647322 250.486852 
Q 76.647322 251.026089 76.557449 251.366569 
Q 76.467576 251.707049 76.170304 251.910991 
Q 75.873032 252.114934 75.281945 252.114934 
Q 74.697771 252.114934 74.417783 251.859142 
Q 74.137794 251.603349 74.072118 251.273239 
Q 74.006441 250.943129 74.006441 250.486852 
L 74.006441 247.565982 
L 73.335851 247.565982 
L 73.335851 250.497221 
Q 73.335851 250.936216 73.389429 251.292251 
Q 73.443007 251.648286 73.63658 251.976668 
Q 73.830152 252.305049 74.24495 252.512448 
Q 74.659748 252.719847 75.337251 252.719847 
Q 76.032038 252.719847 76.448564 252.486523 
Q 76.865091 252.2532 77.050021 251.90235 
Q 77.234952 251.5515 77.27816 251.219661 
Q 77.321368 250.887823 77.321368 250.497221 
M 87.169364 248.167439 
L 87.169364 247.565982 
L 83.156193 247.565982 
L 83.156193 248.167439 
L 84.818842 248.167439 
L 84.818842 252.633431 
L 85.492889 252.633431 
L 85.492889 248.167439 
L 87.169364 248.167439 
M 59.250003 248.167439 
L 59.250003 247.565982 
L 55.236833 247.565982 
L 55.236833 248.167439 
L 56.899481 248.167439 
L 56.899481 252.633431 
L 57.573528 252.633431 
L 57.573528 248.167439 
L 59.250003 248.167439 
M 54.925734 248.167439 
L 54.925734 247.565982 
L 50.912564 247.565982 
L 50.912564 248.167439 
L 52.575212 248.167439 
L 52.575212 252.633431 
L 53.249259 252.633431 
L 53.249259 248.167439 
L 54.925734 248.167439 
M 82.433754 252.633431 
L 82.433754 247.565982 
L 81.794273 247.565982 
L 81.794273 251.544586 
L 81.780447 251.544586 
L 79.132653 247.565982 
L 78.448236 247.565982 
L 78.448236 252.633431 
L 79.08426 252.633431 
L 79.08426 248.654827 
L 79.098086 248.654827 
L 81.74588 252.633431 
L 82.433754 252.633431 
M 48.461799 251.423604 
L 48.461799 250.8498 
L 47.777382 250.8498 
L 47.777382 247.565982 
L 47.265798 247.565982 
L 44.960213 250.8498 
L 44.960213 251.423604 
L 47.155185 251.423604 
L 47.155185 252.633431 
L 47.777382 252.633431 
L 47.777382 251.423604 
L 48.461799 251.423604 
M 70.024381 252.146043 
Q 69.257004 252.146043 68.77653 251.601621 
Q 68.296056 251.057199 68.296056 250.175753 
Q 68.296056 249.097278 68.7869 248.575324 
Q 69.277744 248.05337 70.038207 248.05337 
Q 70.77793 248.05337 71.267046 248.585694 
Q 71.756162 249.118018 71.756162 250.10662 
Q 71.752706 251.067569 71.27396 251.606806 
Q 70.795214 252.146043 70.024381 252.146043 
M 47.155185 250.8498 
L 45.568583 250.8498 
L 47.141359 248.561498 
L 47.155185 248.561498 
L 47.155185 250.8498 
" clip-path="url(#pe7cd648c0b)" style="fill: #ff0000"/>
   </g>
   <g id="patch_28">
    <path d="M 226.438476 273.69135 
L 226.451613 272.903226 
L 226.438476 272.115102 
L 218.43346 269.26886 
L 218.303654 268.749977 
L 218.156628 268.235709 
L 223.666054 261.768282 
L 223.283369 261.079179 
L 222.877931 260.403212 
L 214.522262 261.940802 
L 214.150406 261.556339 
L 213.765943 261.184483 
L 215.303533 252.828814 
L 214.627566 252.423376 
L 213.938462 252.040691 
L 207.471036 257.550117 
L 206.956768 257.403091 
L 206.437885 257.273285 
L 203.591643 249.268269 
L 202.803519 249.255132 
L 202.015395 249.268269 
L 199.169153 257.273285 
L 198.65027 257.403091 
L 198.136002 257.550117 
L 191.668576 252.040691 
L 190.979472 252.423376 
L 190.303505 252.828814 
L 191.841095 261.184483 
L 191.456633 261.556339 
L 191.084776 261.940802 
L 182.729108 260.403212 
L 182.323669 261.079179 
L 181.940984 261.768282 
L 187.45041 268.235709 
L 187.303384 268.749977 
L 187.173578 269.26886 
L 179.168562 272.115102 
L 179.155425 272.903226 
L 179.168562 273.69135 
L 187.173578 276.537592 
L 187.303384 277.056475 
L 187.45041 277.570743 
L 181.940984 284.038169 
L 182.323669 284.727273 
L 182.729108 285.40324 
L 191.084776 283.86565 
L 191.456633 284.250112 
L 191.841095 284.621969 
L 190.303505 292.977637 
L 190.979472 293.383076 
L 191.668576 293.765761 
L 198.136002 288.256335 
L 198.65027 288.403361 
L 199.169153 288.533167 
L 202.015395 296.538183 
L 202.803519 296.55132 
L 203.591643 296.538183 
L 206.437885 288.533167 
L 206.956768 288.403361 
L 207.471036 288.256335 
L 213.938462 293.765761 
L 214.627566 293.383076 
L 215.303533 292.977637 
L 213.765943 284.621969 
L 214.150406 284.250112 
L 214.522262 283.86565 
L 222.877931 285.40324 
L 223.283369 284.727273 
L 223.666054 284.038169 
L 218.156628 277.570743 
L 218.303654 277.056475 
L 218.43346 276.537592 
L 226.438476 273.69135 
" clip-path="url(#pe7cd648c0b)" style="fill: none; stroke: #ffffff; stroke-width: 0.48; stroke-linejoin: miter"/>
   </g>
   <g id="patch_29">
    <path d="M 207.702053 272.903226 
C 207.702053 275.608611 205.508905 277.80176 202.803519 277.80176 
C 200.098134 277.80176 197.904985 275.608611 197.904985 272.903226 
C 197.904985 270.19784 200.098134 268.004692 202.803519 268.004692 
C 205.508905 268.004692 207.702053 270.19784 207.702053 272.903226 
" clip-path="url(#pe7cd648c0b)" style="fill: none; stroke: #ffffff; stroke-width: 0.48; stroke-linejoin: miter"/>
   </g>
   <g id="patch_30">
    <path d="M 207.255684 276.281525 
L 207.255684 272.903226 
L 206.66114 272.903226 
L 205.854589 275.253748 
Q 205.737063 275.599413 205.674843 275.79529 
L 205.665625 275.79529 
Q 205.644885 275.693894 205.511228 275.295228 
L 204.71159 272.903226 
L 204.043304 272.903226 
L 204.043304 276.281525 
L 204.46732 276.281525 
L 204.46732 273.407897 
L 204.481146 273.407897 
L 205.449008 276.281525 
L 205.84998 276.281525 
L 206.822451 273.453985 
L 206.831668 273.453985 
L 206.831668 276.281525 
L 207.255684 276.281525 
M 196.240493 276.281525 
L 196.240493 272.903226 
L 195.645949 272.903226 
L 194.839398 275.253748 
Q 194.721872 275.599413 194.659652 275.79529 
L 194.650434 275.79529 
Q 194.629694 275.693894 194.496037 275.295228 
L 193.696399 272.903226 
L 193.028113 272.903226 
L 193.028113 276.281525 
L 193.452129 276.281525 
L 193.452129 273.407897 
L 193.465956 273.407897 
L 194.433818 276.281525 
L 194.834789 276.281525 
L 195.80726 273.453985 
L 195.816477 273.453985 
L 195.816477 276.281525 
L 196.240493 276.281525 
M 202.904914 273.894132 
L 203.333539 273.859566 
Q 203.312799 273.37333 202.97059 273.109473 
Q 202.628382 272.845615 202.0661 272.845615 
Q 201.517645 272.845615 201.199634 273.110625 
Q 200.881622 273.375635 200.881622 273.781215 
Q 200.881622 274.138402 201.132805 274.361932 
Q 201.383988 274.585462 201.954335 274.708749 
Q 202.524683 274.832036 202.766648 274.95878 
Q 203.008614 275.085524 203.008614 275.362056 
Q 203.008614 275.627066 202.777018 275.781463 
Q 202.545423 275.93586 202.1698 275.93586 
Q 201.768829 275.93586 201.485383 275.750353 
Q 201.201938 275.564846 201.17198 275.159266 
L 200.747965 275.196137 
Q 200.768705 275.703112 201.122435 276.021124 
Q 201.476166 276.339136 202.188235 276.339136 
Q 202.745908 276.339136 203.092725 276.051082 
Q 203.439543 275.763027 203.439543 275.32749 
Q 203.439543 274.984129 203.250579 274.780187 
Q 203.061616 274.576244 202.796606 274.479458 
Q 202.531596 274.382672 202.112189 274.290495 
Q 201.63978 274.184491 201.472709 274.077335 
Q 201.305637 273.970178 201.305637 273.751257 
Q 201.305637 273.504683 201.522254 273.375635 
Q 201.738871 273.246586 202.084536 273.246586 
Q 202.467072 273.246586 202.672166 273.409049 
Q 202.877261 273.571511 202.904914 273.894132 
M 199.005813 275.474973 
L 199.005813 275.092437 
L 198.549535 275.092437 
L 198.549535 272.903226 
L 198.208479 272.903226 
L 196.671422 275.092437 
L 196.671422 275.474973 
L 198.134737 275.474973 
L 198.134737 276.281525 
L 198.549535 276.281525 
L 198.549535 275.474973 
L 199.005813 275.474973 
M 198.134737 275.092437 
L 197.077002 275.092437 
L 198.12552 273.566903 
L 198.134737 273.566903 
L 198.134737 275.092437 
" clip-path="url(#pe7cd648c0b)" style="fill: #ff0000"/>
   </g>
   <g id="patch_31">
    <path d="M 368.336214 273.616408 
L 368.336214 272.190044 
L 360.574992 268.598024 
L 360.465397 267.345357 
L 367.484962 262.460187 
L 367.237276 261.055493 
L 358.970217 258.865766 
L 358.644764 257.651161 
L 364.709384 251.621272 
L 364.221539 250.280929 
L 355.699833 249.560029 
L 355.168411 248.42039 
L 360.093817 241.428999 
L 359.380635 240.193732 
L 350.863209 240.963563 
L 350.141965 239.933518 
L 353.7785 232.193054 
L 352.861651 231.100396 
L 344.607304 233.337567 
L 343.718151 232.448414 
L 345.955322 224.194067 
L 344.862664 223.277218 
L 337.1222 226.913754 
L 336.092156 226.192509 
L 336.861987 217.675084 
L 335.62672 216.961902 
L 328.635328 221.887308 
L 327.49569 221.355885 
L 326.77479 212.834179 
L 325.434446 212.346334 
L 319.404558 218.410954 
L 318.189952 218.085502 
L 316.000226 209.818442 
L 314.595532 209.570757 
L 309.710361 216.590321 
L 308.457694 216.480727 
L 304.865674 208.719505 
L 303.439311 208.719505 
L 299.847291 216.480727 
L 298.594624 216.590321 
L 293.709453 209.570757 
L 292.304759 209.818442 
L 290.115033 218.085502 
L 288.900427 218.410954 
L 282.870539 212.346334 
L 281.530195 212.834179 
L 280.809296 221.355885 
L 279.669657 221.887308 
L 272.678266 216.961902 
L 271.442999 217.675084 
L 272.212829 226.192509 
L 271.182785 226.913754 
L 263.442321 223.277218 
L 262.349663 224.194067 
L 264.586834 232.448414 
L 263.697681 233.337567 
L 255.443334 231.100396 
L 254.526485 232.193054 
L 258.163021 239.933518 
L 257.441776 240.963563 
L 248.924351 240.193732 
L 248.211169 241.428999 
L 253.136575 248.42039 
L 252.605152 249.560029 
L 244.083446 250.280929 
L 243.595601 251.621272 
L 249.660221 257.651161 
L 249.334769 258.865766 
L 241.067709 261.055493 
L 240.820024 262.460187 
L 247.839588 267.345357 
L 247.729994 268.598024 
L 239.968772 272.190044 
L 239.968772 273.616408 
L 247.729994 277.208427 
L 247.839588 278.461094 
L 240.820024 283.346265 
L 241.067709 284.750959 
L 249.334769 286.940686 
L 249.660221 288.155291 
L 243.595601 294.18518 
L 244.083446 295.525523 
L 252.605152 296.246423 
L 253.136575 297.386062 
L 248.211169 304.377453 
L 248.924351 305.61272 
L 257.441776 304.842889 
L 258.163021 305.872933 
L 254.526485 313.613398 
L 255.443334 314.706055 
L 263.697681 312.468885 
L 264.586834 313.358038 
L 262.349663 321.612384 
L 263.442321 322.529233 
L 271.182785 318.892698 
L 272.212829 319.613943 
L 271.442999 328.131368 
L 272.678266 328.84455 
L 279.669657 323.919144 
L 280.809296 324.450566 
L 281.530195 332.972272 
L 282.870539 333.460117 
L 288.900427 327.395497 
L 290.115033 327.72095 
L 292.304759 335.988009 
L 293.709453 336.235695 
L 298.594624 329.216131 
L 299.847291 329.325725 
L 303.439311 337.086947 
L 304.865674 337.086947 
L 308.457694 329.325725 
L 309.710361 329.216131 
L 314.595532 336.235695 
L 316.000226 335.988009 
L 318.189952 327.72095 
L 319.404558 327.395497 
L 325.434446 333.460117 
L 326.77479 332.972272 
L 327.49569 324.450566 
L 328.635328 323.919144 
L 335.62672 328.84455 
L 336.861987 328.131368 
L 336.092156 319.613943 
L 337.1222 318.892698 
L 344.862664 322.529233 
L 345.955322 321.612384 
L 343.718151 313.358038 
L 344.607304 312.468885 
L 352.861651 314.706055 
L 353.7785 313.613398 
L 350.141965 305.872933 
L 350.863209 304.842889 
L 359.380635 305.61272 
L 360.093817 304.377453 
L 355.168411 297.386062 
L 355.699833 296.246423 
L 364.221539 295.525523 
L 364.709384 294.18518 
L 358.644764 288.155291 
L 358.970217 286.940686 
L 367.237276 284.750959 
L 367.484962 283.346265 
L 360.465397 278.461094 
L 360.574992 277.208427 
L 368.336214 273.616408 
L 368.336214 273.616408 
" clip-path="url(#pe7cd648c0b)" style="fill: none; stroke: #ffffff; stroke-width: 0.48; stroke-linejoin: miter"/>
   </g>
   <g id="patch_32">
    <path d="M 306.855132 272.903226 
C 306.855132 274.395852 305.645119 275.605865 304.152493 275.605865 
C 302.659866 275.605865 301.449853 274.395852 301.449853 272.903226 
C 301.449853 271.410599 302.659866 270.200587 304.152493 270.200587 
C 305.645119 270.200587 306.855132 271.410599 306.855132 272.903226 
" clip-path="url(#pe7cd648c0b)" style="fill: none; stroke: #ffffff; stroke-width: 0.48; stroke-linejoin: miter"/>
   </g>
   <g id="patch_33">
    <path d="M 307.878761 275.809116 
L 307.878761 274.557809 
L 306.450013 274.557809 
L 306.450013 274.961085 
L 307.445528 274.961085 
L 307.445528 275.587891 
Q 306.98925 275.93586 306.45923 275.93586 
Q 306.111261 275.93586 305.815141 275.782615 
Q 305.519022 275.62937 305.368081 275.329794 
Q 305.217141 275.030218 305.217141 274.578549 
Q 305.217141 273.974787 305.528239 273.601469 
Q 305.839338 273.228151 306.450013 273.228151 
Q 306.844071 273.228151 307.088341 273.411353 
Q 307.332611 273.594556 307.427092 273.958656 
L 307.828064 273.845739 
Q 307.708233 273.345677 307.36372 273.095646 
Q 307.019208 272.845615 306.450013 272.845615 
Q 305.901557 272.845615 305.522478 273.072602 
Q 305.143399 273.299588 304.948674 273.713234 
Q 304.75395 274.12688 304.75395 274.606202 
Q 304.75395 275.392014 305.229815 275.865575 
Q 305.705681 276.339136 306.482275 276.339136 
Q 307.240433 276.339136 307.878761 275.809116 
M 297.589467 276.281525 
L 297.589467 272.903226 
L 296.994923 272.903226 
L 296.188371 275.253748 
Q 296.070845 275.599413 296.008626 275.79529 
L 295.999408 275.79529 
Q 295.978668 275.693894 295.845011 275.295228 
L 295.045373 272.903226 
L 294.377087 272.903226 
L 294.377087 276.281525 
L 294.801103 276.281525 
L 294.801103 273.407897 
L 294.814929 273.407897 
L 295.782791 276.281525 
L 296.183763 276.281525 
L 297.156233 273.453985 
L 297.165451 273.453985 
L 297.165451 276.281525 
L 297.589467 276.281525 
M 300.354787 275.474973 
L 300.354787 275.092437 
L 299.898509 275.092437 
L 299.898509 272.903226 
L 299.557453 272.903226 
L 298.020396 275.092437 
L 298.020396 275.474973 
L 299.483711 275.474973 
L 299.483711 276.281525 
L 299.898509 276.281525 
L 299.898509 275.474973 
L 300.354787 275.474973 
M 304.352978 276.281525 
L 304.352978 275.880554 
L 302.686873 275.880554 
L 302.686873 272.903226 
L 302.239813 272.903226 
L 302.239813 276.281525 
L 304.352978 276.281525 
M 299.483711 275.092437 
L 298.425976 275.092437 
L 299.474493 273.566903 
L 299.483711 273.566903 
L 299.483711 275.092437 
" clip-path="url(#pe7cd648c0b)" style="fill: #ff0000"/>
   </g>
   <g id="patch_34">
    <path d="M 449.419355 272.903226 
C 449.419355 291.561057 434.294194 306.686217 415.636364 306.686217 
C 396.978533 306.686217 381.853372 291.561057 381.853372 272.903226 
C 381.853372 254.245395 396.978533 239.120235 415.636364 239.120235 
C 434.294194 239.120235 449.419355 254.245395 449.419355 272.903226 
" clip-path="url(#pe7cd648c0b)" style="fill: none; stroke: #ffffff; stroke-width: 0.48; stroke-linejoin: miter"/>
   </g>
   <g id="patch_35">
    <path d="M 418.339003 272.903226 
C 418.339003 274.395852 417.12899 275.605865 415.636364 275.605865 
C 414.143737 275.605865 412.933724 274.395852 412.933724 272.903226 
C 412.933724 271.410599 414.143737 270.200587 415.636364 270.200587 
C 417.12899 270.200587 418.339003 271.410599 418.339003 272.903226 
" clip-path="url(#pe7cd648c0b)" style="fill: none; stroke: #ffffff; stroke-width: 0.48; stroke-linejoin: miter"/>
   </g>
   <g id="patch_36">
    <path d="M 443.507331 272.903226 
C 443.507331 274.302563 442.372944 275.43695 440.973607 275.43695 
C 439.57427 275.43695 438.439883 274.302563 438.439883 272.903226 
C 438.439883 271.503888 439.57427 270.369501 440.973607 270.369501 
C 442.372944 270.369501 443.507331 271.503888 443.507331 272.903226 
" clip-path="url(#pe7cd648c0b)" style="fill: none; stroke: #ffffff; stroke-width: 0.48; stroke-linejoin: miter"/>
   </g>
   <g id="patch_37">
    <path d="M 404.102675 276.281525 
L 404.102675 271.214076 
L 403.21086 271.214076 
L 402.001032 274.739859 
Q 401.824743 275.258357 401.731414 275.552172 
L 401.717587 275.552172 
Q 401.686477 275.400079 401.485991 274.802079 
L 400.286534 271.214076 
L 399.284105 271.214076 
L 399.284105 276.281525 
L 399.920129 276.281525 
L 399.920129 271.971083 
L 399.940869 271.971083 
L 401.392662 276.281525 
L 401.994119 276.281525 
L 403.452825 272.040216 
L 403.466652 272.040216 
L 403.466652 276.281525 
L 404.102675 276.281525 
M 431.240833 276.281525 
L 431.240833 271.214076 
L 430.349018 271.214076 
L 429.13919 274.739859 
Q 428.962901 275.258357 428.869571 275.552172 
L 428.855745 275.552172 
Q 428.824635 275.400079 428.624149 274.802079 
L 427.424692 271.214076 
L 426.422263 271.214076 
L 426.422263 276.281525 
L 427.058287 276.281525 
L 427.058287 271.971083 
L 427.079027 271.971083 
L 428.53082 276.281525 
L 429.132277 276.281525 
L 430.590983 272.040216 
L 430.60481 272.040216 
L 430.60481 276.281525 
L 431.240833 276.281525 
M 420.691138 276.281525 
L 419.806236 274.902322 
Q 419.360328 274.204078 418.8522 273.979396 
L 418.8522 273.96557 
Q 419.546987 273.87224 419.909935 273.523118 
Q 420.272883 273.173997 420.272883 272.600193 
Q 420.272883 272.282181 420.146716 271.995279 
Q 420.020548 271.708377 419.785496 271.51999 
Q 419.550443 271.331602 419.239345 271.272839 
Q 418.928247 271.214076 418.468512 271.214076 
L 416.225146 271.214076 
L 416.225146 276.281525 
L 416.895736 276.281525 
L 416.895736 274.045072 
L 417.670026 274.045072 
Q 417.963841 274.045072 418.141859 274.096922 
Q 418.319876 274.148772 418.52209 274.344073 
Q 418.724304 274.539373 418.907507 274.812449 
Q 419.090709 275.085524 419.847715 276.281525 
L 420.691138 276.281525 
M 411.112761 271.214076 
L 411.112761 276.281525 
L 412.937872 276.281525 
Q 414.237573 276.281525 414.769897 275.560813 
Q 415.302221 274.840102 415.302221 273.720147 
Q 415.302221 273.132517 415.172596 272.719447 
Q 415.042972 272.306378 414.816562 271.988366 
Q 414.590151 271.670354 414.287694 271.48888 
Q 413.985237 271.307406 413.653399 271.260741 
Q 413.32156 271.214076 412.861826 271.214076 
L 411.112761 271.214076 
M 425.316135 274.145315 
L 425.316135 271.214076 
L 424.642089 271.214076 
L 424.642089 274.134945 
Q 424.642089 274.674183 424.552216 275.014663 
Q 424.462343 275.355143 424.165071 275.559085 
Q 423.867799 275.763027 423.276712 275.763027 
Q 422.692538 275.763027 422.41255 275.507235 
Q 422.132561 275.251443 422.066885 274.921333 
Q 422.001208 274.591223 422.001208 274.134945 
L 422.001208 271.214076 
L 421.330618 271.214076 
L 421.330618 274.145315 
Q 421.330618 274.58431 421.384196 274.940345 
Q 421.437774 275.29638 421.631347 275.624761 
Q 421.824919 275.953143 422.239717 276.160542 
Q 422.654515 276.367941 423.332018 276.367941 
Q 424.026805 276.367941 424.443331 276.134617 
Q 424.859858 275.901293 425.044788 275.550443 
Q 425.229719 275.199594 425.272927 274.867755 
Q 425.316135 274.535917 425.316135 274.145315 
M 408.250655 275.071697 
L 408.250655 274.497894 
L 407.566238 274.497894 
L 407.566238 271.214076 
L 407.054654 271.214076 
L 404.749069 274.497894 
L 404.749069 275.071697 
L 406.944041 275.071697 
L 406.944041 276.281525 
L 407.566238 276.281525 
L 407.566238 275.071697 
L 408.250655 275.071697 
M 416.895736 273.443615 
L 416.895736 271.770597 
L 418.496165 271.770597 
Q 419.076882 271.770597 419.329218 272.012562 
Q 419.581553 272.254528 419.581553 272.600193 
Q 419.581553 272.866355 419.429461 273.080667 
Q 419.277368 273.294979 419.023304 273.369297 
Q 418.769241 273.443615 418.333703 273.443615 
L 416.895736 273.443615 
M 411.783351 275.680068 
L 411.783351 271.815533 
L 412.847999 271.815533 
Q 413.197121 271.815533 413.420075 271.843187 
Q 413.643029 271.87084 413.878081 271.997007 
Q 414.113133 272.123175 414.294607 272.394522 
Q 414.476082 272.665869 414.543486 272.995979 
Q 414.610891 273.326089 414.610891 273.706321 
Q 414.610891 274.394194 414.434602 274.812449 
Q 414.258313 275.230703 413.990422 275.413906 
Q 413.722532 275.597108 413.461555 275.638588 
Q 413.200578 275.680068 412.868739 275.680068 
L 411.783351 275.680068 
M 406.944041 274.497894 
L 405.357439 274.497894 
L 406.930215 272.209591 
L 406.944041 272.209591 
L 406.944041 274.497894 
" clip-path="url(#pe7cd648c0b)" style="fill: #ff0000"/>
   </g>
  </g>
 </g>
 <defs>
  <clipPath id="pe7cd648c0b">
   <rect x="7.2" y="7.2" width="512.825806" height="345.6"/>
  </clipPath>
 </defs>
</svg>
