<?xml version="1.0" encoding="utf-8" standalone="no"?>
<!DOCTYPE svg PUBLIC "-//W3C//DTD SVG 1.1//EN"
  "http://www.w3.org/Graphics/SVG/1.1/DTD/svg11.dtd">
<svg xmlns:xlink="http://www.w3.org/1999/xlink" width="375.709091pt" height="360pt" viewBox="0 0 375.709091 360" xmlns="http://www.w3.org/2000/svg" version="1.1">
 <metadata>
  <rdf:RDF xmlns:dc="http://purl.org/dc/elements/1.1/" xmlns:cc="http://creativecommons.org/ns#" xmlns:rdf="http://www.w3.org/1999/02/22-rdf-syntax-ns#">
   <cc:Work>
    <dc:type rdf:resource="http://purl.org/dc/dcmitype/StillImage"/>
    <dc:date>2026-03-19T15:11:01.013643</dc:date>
    <dc:format>image/svg+xml</dc:format>
    <dc:creator>
     <cc:Agent>
      <dc:title>Matplotlib v3.10.8, https://matplotlib.org/</dc:title>
     </cc:Agent>
    </dc:creator>
   </cc:Work>
  </rdf:RDF>
 </metadata>
 <defs>
  <style type="text/css">*{stroke-linejoin: round; stroke-linecap: butt}</style>
 </defs>
 <g id="figure_1">
  <g id="patch_1">
   <path d="M 0 360 
L 375.709091 360 
L 375.709091 0 
L 0 0 
z
" style="fill: #1a1a2e"/>
  </g>
  <g id="axes_1">
   <g id="patch_2">
    <path d="M 7.2 352.8 
L 368.509091 352.8 
L 368.509091 7.2 
L 7.2 7.2 
z
" style="fill: #1a1a2e"/>
   </g>
   <g id="patch_3">
    <path d="M 23.62314 189.520661 
L 190.234711 189.520661 
L 190.234711 70.512397 
L 23.62314 70.512397 
L 23.62314 189.520661 
" clip-path="url(#pa5e7f643bf)" style="fill: none; stroke: #ffffff; stroke-width: 0.48; stroke-linejoin: miter"/>
   </g>
   <g id="patch_4">
    <path d="M 33.348372 80.033058 
L 33.348372 76.46281 
L 32.720048 76.46281 
L 31.867669 78.946884 
Q 31.743466 79.312189 31.677711 79.519195 
L 31.667969 79.519195 
Q 31.646051 79.412039 31.5048 78.990721 
L 30.659727 76.46281 
L 29.953471 76.46281 
L 29.953471 80.033058 
L 30.401578 80.033058 
L 30.401578 76.996155 
L 30.416191 76.996155 
L 31.439045 80.033058 
L 31.862799 80.033058 
L 32.890523 77.044863 
L 32.900265 77.044863 
L 32.900265 80.033058 
L 33.348372 80.033058 
M 44.54619 80.033058 
L 43.08984 76.46281 
L 42.580849 76.46281 
L 41.209737 80.033058 
L 41.708987 80.033058 
L 42.103517 78.946884 
L 43.593961 78.946884 
L 44.012844 80.033058 
L 44.54619 80.033058 
M 47.044876 77.510018 
L 47.497854 77.473487 
Q 47.475936 76.959625 47.114284 76.680775 
Q 46.752632 76.401926 46.158403 76.401926 
Q 45.578785 76.401926 45.242705 76.681993 
Q 44.906624 76.96206 44.906624 77.390685 
Q 44.906624 77.768167 45.172079 78.004397 
Q 45.437534 78.240628 46.040287 78.37092 
Q 46.643041 78.501212 46.898754 78.635157 
Q 47.154468 78.769102 47.154468 79.061346 
Q 47.154468 79.341414 46.909713 79.504583 
Q 46.664959 79.667753 46.267994 79.667753 
Q 45.84424 79.667753 45.54469 79.471706 
Q 45.24514 79.275659 45.21348 78.847034 
L 44.765373 78.886 
Q 44.787291 79.421781 45.16112 79.757861 
Q 45.534949 80.093942 46.287477 80.093942 
Q 46.876836 80.093942 47.243359 79.789521 
Q 47.609881 79.4851 47.609881 79.024816 
Q 47.609881 78.661946 47.410181 78.446416 
Q 47.210481 78.230886 46.930414 78.128601 
Q 46.650347 78.026315 46.20711 77.928901 
Q 45.70786 77.816874 45.531296 77.703629 
Q 45.354731 77.590385 45.354731 77.359025 
Q 45.354731 77.098441 45.583656 76.96206 
Q 45.81258 76.82568 46.177886 76.82568 
Q 46.582156 76.82568 46.798904 76.997373 
Q 47.015652 77.169066 47.044876 77.510018 
M 40.286733 78.133472 
Q 40.53514 78.004397 40.658126 77.805915 
Q 40.781112 77.607432 40.781112 77.373637 
Q 40.781112 77.027815 40.51444 76.745312 
Q 40.247767 76.46281 39.597524 76.46281 
L 38.258072 76.46281 
L 38.258072 80.033058 
L 39.624313 80.033058 
Q 40.09921 80.033058 40.376841 79.914943 
Q 40.654473 79.796827 40.805466 79.545984 
Q 40.956459 79.295142 40.956459 78.995592 
Q 40.956459 78.696041 40.789636 78.465899 
Q 40.622814 78.235757 40.286733 78.133472 
M 50.929286 80.033058 
L 50.929286 79.609304 
L 48.735021 79.609304 
L 48.735021 78.401362 
L 50.710103 78.401362 
L 50.710103 77.977608 
L 48.735021 77.977608 
L 48.735021 76.886564 
L 50.846484 76.886564 
L 50.846484 76.46281 
L 48.26256 76.46281 
L 48.26256 80.033058 
L 50.929286 80.033058 
M 34.517349 77.8875 
L 34.709743 76.935271 
L 36.131997 76.935271 
L 36.131997 76.511517 
L 34.361485 76.511517 
L 34.013228 78.347784 
L 34.42724 78.396491 
Q 34.653729 78.053105 35.075048 78.053105 
Q 35.408693 78.053105 35.62057 78.269852 
Q 35.832447 78.4866 35.832447 78.861646 
Q 35.832447 79.229387 35.625441 79.481447 
Q 35.418434 79.733508 35.084789 79.733508 
Q 34.816899 79.733508 34.634246 79.566685 
Q 34.451594 79.399862 34.39558 79.061346 
L 33.937731 79.095442 
Q 33.986439 79.589821 34.312778 79.841882 
Q 34.639117 80.093942 35.084789 80.093942 
Q 35.630311 80.093942 35.966392 79.722549 
Q 36.302473 79.351155 36.302473 78.820245 
Q 36.302473 78.294206 35.971263 77.978826 
Q 35.640053 77.663446 35.194381 77.663446 
Q 34.843688 77.663446 34.517349 77.8875 
M 43.450275 78.571838 
L 42.237462 78.571838 
L 42.636862 77.502712 
Q 42.751324 77.195855 42.819515 76.835421 
L 42.831691 76.835421 
Q 42.899882 77.098441 42.955895 77.255522 
Q 43.011908 77.412603 43.450275 78.571838 
M 38.730533 79.609304 
L 38.730533 78.381879 
L 39.558558 78.381879 
Q 40.072421 78.381879 40.269685 78.543831 
Q 40.46695 78.705783 40.46695 78.995592 
Q 40.46695 79.282965 40.281862 79.446134 
Q 40.096774 79.609304 39.619442 79.609304 
L 38.730533 79.609304 
M 38.730533 77.958125 
L 38.730533 76.886564 
L 39.444096 76.886564 
Q 39.716857 76.886564 39.890986 76.913353 
Q 40.065114 76.940142 40.190536 77.060693 
Q 40.315957 77.181243 40.315957 77.434521 
Q 40.315957 77.675623 40.191754 77.790085 
Q 40.06755 77.904547 39.905598 77.931336 
Q 39.743646 77.958125 39.50498 77.958125 
L 38.730533 77.958125 
" clip-path="url(#pa5e7f643bf)" style="fill: #ff0000"/>
   </g>
   <g id="patch_5">
    <path d="M 45.699174 153.818182 
L 49.150413 153.818182 
L 49.150413 141.917355 
L 45.699174 141.917355 
L 45.699174 153.818182 
" clip-path="url(#pa5e7f643bf)" style="fill: none; stroke: #ffffff; stroke-width: 0.48; stroke-linejoin: miter"/>
   </g>
   <g id="patch_6">
    <path d="M 45.699174 118.115702 
L 49.150413 118.115702 
L 49.150413 106.214876 
L 45.699174 106.214876 
L 45.699174 118.115702 
" clip-path="url(#pa5e7f643bf)" style="fill: none; stroke: #ffffff; stroke-width: 0.48; stroke-linejoin: miter"/>
   </g>
   <g id="patch_7">
    <path d="M 164.707438 153.818182 
L 168.158678 153.818182 
L 168.158678 141.917355 
L 164.707438 141.917355 
L 164.707438 153.818182 
" clip-path="url(#pa5e7f643bf)" style="fill: none; stroke: #ffffff; stroke-width: 0.48; stroke-linejoin: miter"/>
   </g>
   <g id="patch_8">
    <path d="M 164.707438 118.115702 
L 168.158678 118.115702 
L 168.158678 106.214876 
L 164.707438 106.214876 
L 164.707438 118.115702 
" clip-path="url(#pa5e7f643bf)" style="fill: none; stroke: #ffffff; stroke-width: 0.48; stroke-linejoin: miter"/>
   </g>
   <g id="patch_9">
    <path d="M 199.755372 189.520661 
L 271.160331 189.520661 
L 271.160331 22.909091 
L 199.755372 22.909091 
L 199.755372 189.520661 
" clip-path="url(#pa5e7f643bf)" style="fill: none; stroke: #ffffff; stroke-width: 0.48; stroke-linejoin: miter"/>
   </g>
   <g id="patch_10">
    <path d="M 211.656198 193.090909 
L 223.557025 193.090909 
L 223.557025 189.520661 
L 211.656198 189.520661 
L 211.656198 193.090909 
" clip-path="url(#pa5e7f643bf)" style="fill: none; stroke: #ffffff; stroke-width: 0.48; stroke-linejoin: miter"/>
   </g>
   <g id="patch_11">
    <path d="M 247.358678 193.090909 
L 259.259504 193.090909 
L 259.259504 189.520661 
L 247.358678 189.520661 
L 247.358678 193.090909 
" clip-path="url(#pa5e7f643bf)" style="fill: none; stroke: #ffffff; stroke-width: 0.48; stroke-linejoin: miter"/>
   </g>
   <g id="patch_12">
    <path d="M 237.361983 147.867769 
C 237.361983 148.919392 236.509474 149.771901 235.457851 149.771901 
C 234.406228 149.771901 233.553719 148.919392 233.553719 147.867769 
C 233.553719 146.816145 234.406228 145.963636 235.457851 145.963636 
C 236.509474 145.963636 237.361983 146.816145 237.361983 147.867769 
" clip-path="url(#pa5e7f643bf)" style="fill: none; stroke: #ffffff; stroke-width: 0.48; stroke-linejoin: miter"/>
   </g>
   <g id="patch_13">
    <path d="M 233.732231 79.438017 
L 237.183471 79.438017 
L 237.183471 37.785124 
L 233.732231 37.785124 
L 233.732231 79.438017 
" clip-path="url(#pa5e7f643bf)" style="fill: none; stroke: #ffffff; stroke-width: 0.48; stroke-linejoin: miter"/>
   </g>
   <g id="patch_14">
    <path d="M 229.507438 30.585124 
L 241.408264 30.585124 
L 241.408264 27.133884 
L 229.507438 27.133884 
L 229.507438 30.585124 
" clip-path="url(#pa5e7f643bf)" style="fill: none; stroke: #ffffff; stroke-width: 0.48; stroke-linejoin: miter"/>
   </g>
   <g id="patch_15">
    <path d="M 207.100439 37.190083 
L 207.100439 33.619835 
L 206.472114 33.619835 
L 205.619735 36.103909 
Q 205.495532 36.469214 205.429777 36.67622 
L 205.420035 36.67622 
Q 205.398117 36.569064 205.256866 36.147746 
L 204.411793 33.619835 
L 203.705537 33.619835 
L 203.705537 37.190083 
L 204.153645 37.190083 
L 204.153645 34.15318 
L 204.168257 34.15318 
L 205.191111 37.190083 
L 205.614865 37.190083 
L 206.64259 34.201887 
L 206.652331 34.201887 
L 206.652331 37.190083 
L 207.100439 37.190083 
M 218.232501 37.190083 
L 217.609047 36.218371 
Q 217.294885 35.726427 216.936886 35.568128 
L 216.936886 35.558387 
Q 217.426394 35.492632 217.682108 35.24666 
Q 217.937821 35.000688 217.937821 34.596417 
Q 217.937821 34.372363 217.848931 34.170228 
Q 217.76004 33.968092 217.594435 33.835365 
Q 217.42883 33.702637 217.209647 33.661236 
Q 216.990464 33.619835 216.66656 33.619835 
L 215.086007 33.619835 
L 215.086007 37.190083 
L 215.558468 37.190083 
L 215.558468 35.6144 
L 216.10399 35.6144 
Q 216.310996 35.6144 216.436418 35.650931 
Q 216.561839 35.687461 216.704308 35.825059 
Q 216.846777 35.962658 216.975852 36.155052 
Q 217.104926 36.347446 217.638271 37.190083 
L 218.232501 37.190083 
M 214.447941 34.043589 
L 214.447941 33.619835 
L 212.039363 33.619835 
L 212.039363 37.190083 
L 212.511824 37.190083 
L 212.511824 35.572999 
L 214.189792 35.572999 
L 214.189792 35.149245 
L 212.511824 35.149245 
L 212.511824 34.043589 
L 214.447941 34.043589 
M 208.269415 35.044524 
L 208.461809 34.092296 
L 209.884063 34.092296 
L 209.884063 33.668542 
L 208.113551 33.668542 
L 207.765294 35.504809 
L 208.179306 35.553516 
Q 208.405795 35.210129 208.827114 35.210129 
Q 209.160759 35.210129 209.372636 35.426877 
Q 209.584513 35.643625 209.584513 36.018671 
Q 209.584513 36.386412 209.377507 36.638472 
Q 209.1705 36.890533 208.836855 36.890533 
Q 208.568965 36.890533 208.386312 36.72371 
Q 208.20366 36.556887 208.147646 36.218371 
L 207.689797 36.252466 
Q 207.738505 36.746846 208.064844 36.998906 
Q 208.391183 37.250967 208.836855 37.250967 
Q 209.382377 37.250967 209.718458 36.879573 
Q 210.054539 36.50818 210.054539 35.97727 
Q 210.054539 35.451231 209.723329 35.135851 
Q 209.392119 34.820471 208.946447 34.820471 
Q 208.595754 34.820471 208.269415 35.044524 
M 222.282516 37.190083 
L 222.282516 36.766329 
L 220.521746 36.766329 
L 220.521746 33.619835 
L 220.049285 33.619835 
L 220.049285 37.190083 
L 222.282516 37.190083 
M 215.558468 35.190646 
L 215.558468 34.011929 
L 216.686043 34.011929 
Q 217.095185 34.011929 217.272966 34.182404 
Q 217.450748 34.35288 217.450748 34.596417 
Q 217.450748 34.78394 217.343592 34.934933 
Q 217.236436 35.085926 217.057436 35.138286 
Q 216.878437 35.190646 216.571581 35.190646 
L 215.558468 35.190646 
" clip-path="url(#pa5e7f643bf)" style="fill: #ff0000"/>
   </g>
   <g id="patch_16">
    <path d="M 280.680992 189.520661 
L 352.08595 189.520661 
L 352.08595 22.909091 
L 280.680992 22.909091 
L 280.680992 189.520661 
" clip-path="url(#pa5e7f643bf)" style="fill: none; stroke: #ffffff; stroke-width: 0.48; stroke-linejoin: miter"/>
   </g>
   <g id="patch_17">
    <path d="M 292.581818 193.090909 
L 304.482645 193.090909 
L 304.482645 189.520661 
L 292.581818 189.520661 
L 292.581818 193.090909 
" clip-path="url(#pa5e7f643bf)" style="fill: none; stroke: #ffffff; stroke-width: 0.48; stroke-linejoin: miter"/>
   </g>
   <g id="patch_18">
    <path d="M 328.284298 193.090909 
L 340.185124 193.090909 
L 340.185124 189.520661 
L 328.284298 189.520661 
L 328.284298 193.090909 
" clip-path="url(#pa5e7f643bf)" style="fill: none; stroke: #ffffff; stroke-width: 0.48; stroke-linejoin: miter"/>
   </g>
   <g id="patch_19">
    <path d="M 318.287603 147.867769 
C 318.287603 148.919392 317.435094 149.771901 316.383471 149.771901 
C 315.331848 149.771901 314.479339 148.919392 314.479339 147.867769 
C 314.479339 146.816145 315.331848 145.963636 316.383471 145.963636 
C 317.435094 145.963636 318.287603 146.816145 318.287603 147.867769 
" clip-path="url(#pa5e7f643bf)" style="fill: none; stroke: #ffffff; stroke-width: 0.48; stroke-linejoin: miter"/>
   </g>
   <g id="patch_20">
    <path d="M 314.657851 79.438017 
L 318.109091 79.438017 
L 318.109091 37.785124 
L 314.657851 37.785124 
L 314.657851 79.438017 
" clip-path="url(#pa5e7f643bf)" style="fill: none; stroke: #ffffff; stroke-width: 0.48; stroke-linejoin: miter"/>
   </g>
   <g id="patch_21">
    <path d="M 310.433058 30.585124 
L 322.333884 30.585124 
L 322.333884 27.133884 
L 310.433058 27.133884 
L 310.433058 30.585124 
" clip-path="url(#pa5e7f643bf)" style="fill: none; stroke: #ffffff; stroke-width: 0.48; stroke-linejoin: miter"/>
   </g>
   <g id="patch_22">
    <path d="M 288.026058 37.190083 
L 288.026058 33.619835 
L 287.397734 33.619835 
L 286.545355 36.103909 
Q 286.421152 36.469214 286.355397 36.67622 
L 286.345655 36.67622 
Q 286.323737 36.569064 286.182486 36.147746 
L 285.337413 33.619835 
L 284.631157 33.619835 
L 284.631157 37.190083 
L 285.079264 37.190083 
L 285.079264 34.15318 
L 285.093877 34.15318 
L 286.116731 37.190083 
L 286.540485 37.190083 
L 287.568209 34.201887 
L 287.577951 34.201887 
L 287.577951 37.190083 
L 288.026058 37.190083 
M 304.145752 37.190083 
L 303.522298 36.218371 
Q 303.208136 35.726427 302.850137 35.568128 
L 302.850137 35.558387 
Q 303.339646 35.492632 303.595359 35.24666 
Q 303.851073 35.000688 303.851073 34.596417 
Q 303.851073 34.372363 303.762182 34.170228 
Q 303.673291 33.968092 303.507686 33.835365 
Q 303.342081 33.702637 303.122898 33.661236 
Q 302.903715 33.619835 302.579811 33.619835 
L 300.999258 33.619835 
L 300.999258 37.190083 
L 301.471719 37.190083 
L 301.471719 35.6144 
L 302.017241 35.6144 
Q 302.224248 35.6144 302.349669 35.650931 
Q 302.47509 35.687461 302.617559 35.825059 
Q 302.760028 35.962658 302.889103 36.155052 
Q 303.018177 36.347446 303.551523 37.190083 
L 304.145752 37.190083 
M 299.158121 37.190083 
L 298.534667 36.218371 
Q 298.220504 35.726427 297.862505 35.568128 
L 297.862505 35.558387 
Q 298.352014 35.492632 298.607728 35.24666 
Q 298.863441 35.000688 298.863441 34.596417 
Q 298.863441 34.372363 298.77455 34.170228 
Q 298.68566 33.968092 298.520055 33.835365 
Q 298.35445 33.702637 298.135267 33.661236 
Q 297.916084 33.619835 297.59218 33.619835 
L 296.011627 33.619835 
L 296.011627 37.190083 
L 296.484088 37.190083 
L 296.484088 35.6144 
L 297.02961 35.6144 
Q 297.236616 35.6144 297.362038 35.650931 
Q 297.487459 35.687461 297.629928 35.825059 
Q 297.772397 35.962658 297.901471 36.155052 
Q 298.030546 36.347446 298.563891 37.190083 
L 299.158121 37.190083 
M 295.37356 34.043589 
L 295.37356 33.619835 
L 292.964983 33.619835 
L 292.964983 37.190083 
L 293.437444 37.190083 
L 293.437444 35.572999 
L 295.115412 35.572999 
L 295.115412 35.149245 
L 293.437444 35.149245 
L 293.437444 34.043589 
L 295.37356 34.043589 
M 289.195035 35.044524 
L 289.387429 34.092296 
L 290.809683 34.092296 
L 290.809683 33.668542 
L 289.039171 33.668542 
L 288.690914 35.504809 
L 289.104926 35.553516 
Q 289.331415 35.210129 289.752734 35.210129 
Q 290.086379 35.210129 290.298256 35.426877 
Q 290.510133 35.643625 290.510133 36.018671 
Q 290.510133 36.386412 290.303127 36.638472 
Q 290.09612 36.890533 289.762475 36.890533 
Q 289.494585 36.890533 289.311932 36.72371 
Q 289.12928 36.556887 289.073266 36.218371 
L 288.615417 36.252466 
Q 288.664125 36.746846 288.990464 36.998906 
Q 289.316803 37.250967 289.762475 37.250967 
Q 290.307997 37.250967 290.644078 36.879573 
Q 290.980159 36.50818 290.980159 35.97727 
Q 290.980159 35.451231 290.648949 35.135851 
Q 290.317739 34.820471 289.872067 34.820471 
Q 289.521374 34.820471 289.195035 35.044524 
M 301.471719 35.190646 
L 301.471719 34.011929 
L 302.599294 34.011929 
Q 303.008436 34.011929 303.186218 34.182404 
Q 303.363999 34.35288 303.363999 34.596417 
Q 303.363999 34.78394 303.256843 34.934933 
Q 303.149687 35.085926 302.970688 35.138286 
Q 302.791688 35.190646 302.484832 35.190646 
L 301.471719 35.190646 
M 296.484088 35.190646 
L 296.484088 34.011929 
L 297.611663 34.011929 
Q 298.020804 34.011929 298.198586 34.182404 
Q 298.376368 34.35288 298.376368 34.596417 
Q 298.376368 34.78394 298.269212 34.934933 
Q 298.162056 35.085926 297.983056 35.138286 
Q 297.804057 35.190646 297.4972 35.190646 
L 296.484088 35.190646 
" clip-path="url(#pa5e7f643bf)" style="fill: #ff0000"/>
   </g>
   <g id="patch_23">
    <path d="M 83.127273 264.495868 
C 83.127273 280.92748 69.806819 294.247934 53.375207 294.247934 
C 36.943594 294.247934 23.62314 280.92748 23.62314 264.495868 
C 23.62314 248.064255 36.943594 234.743802 53.375207 234.743802 
C 69.806819 234.743802 83.127273 248.064255 83.127273 264.495868 
" clip-path="url(#pa5e7f643bf)" style="fill: none; stroke: #ffffff; stroke-width: 0.48; stroke-linejoin: miter"/>
   </g>
   <g id="patch_24">
    <path d="M 55.279339 264.495868 
C 55.279339 265.547491 54.42683 266.4 53.375207 266.4 
C 52.323583 266.4 51.471074 265.547491 51.471074 264.495868 
C 51.471074 263.444245 52.323583 262.591736 53.375207 262.591736 
C 54.42683 262.591736 55.279339 263.444245 55.279339 264.495868 
" clip-path="url(#pa5e7f643bf)" style="fill: none; stroke: #ffffff; stroke-width: 0.48; stroke-linejoin: miter"/>
   </g>
   <g id="patch_25">
    <path d="M 73.130579 264.495868 
C 73.130579 265.547491 72.278069 266.4 71.226446 266.4 
C 70.174823 266.4 69.322314 265.547491 69.322314 264.495868 
C 69.322314 263.444245 70.174823 262.591736 71.226446 262.591736 
C 72.278069 262.591736 73.130579 263.444245 73.130579 264.495868 
" clip-path="url(#pa5e7f643bf)" style="fill: none; stroke: #ffffff; stroke-width: 0.48; stroke-linejoin: miter"/>
   </g>
   <g id="patch_26">
    <path d="M 42.869034 266.876033 
L 42.869034 263.305785 
L 42.240709 263.305785 
L 41.388331 265.789859 
Q 41.264127 266.155164 41.198372 266.362171 
L 41.18863 266.362171 
Q 41.166712 266.255014 41.025461 265.833696 
L 40.180389 263.305785 
L 39.474132 263.305785 
L 39.474132 266.876033 
L 39.92224 266.876033 
L 39.92224 263.83913 
L 39.936852 263.83913 
L 40.959706 266.876033 
L 41.38346 266.876033 
L 42.411185 263.887838 
L 42.420926 263.887838 
L 42.420926 266.876033 
L 42.869034 266.876033 
M 57.943955 266.876033 
L 56.487606 263.305785 
L 55.978614 263.305785 
L 54.607502 266.876033 
L 55.106753 266.876033 
L 55.501282 265.789859 
L 56.991727 265.789859 
L 57.41061 266.876033 
L 57.943955 266.876033 
M 50.815636 265.743587 
L 50.34561 265.624254 
Q 50.240889 266.079668 49.979087 266.306157 
Q 49.717285 266.532646 49.298402 266.532646 
Q 48.786975 266.532646 48.46916 266.169777 
Q 48.151345 265.806907 48.151345 265.061685 
Q 48.151345 264.416312 48.45333 264.032742 
Q 48.755316 263.649172 49.339804 263.649172 
Q 49.697803 263.649172 49.936468 263.836695 
Q 50.175134 264.024218 50.292032 264.39683 
L 50.754752 264.287238 
Q 50.606194 263.775811 50.236019 263.510356 
Q 49.865843 263.244901 49.344674 263.244901 
Q 48.604323 263.244901 48.133079 263.728321 
Q 47.661836 264.211742 47.661836 265.066555 
Q 47.661836 265.838567 48.062454 266.387742 
Q 48.463071 266.936917 49.339804 266.936917 
Q 49.88289 266.936917 50.271331 266.64102 
Q 50.659772 266.345123 50.815636 265.743587 
M 54.55636 266.876033 
L 53.932906 265.904322 
Q 53.618743 265.412378 53.260744 265.254079 
L 53.260744 265.244337 
Q 53.750253 265.178582 54.005967 264.93261 
Q 54.26168 264.686638 54.26168 264.282367 
Q 54.26168 264.058314 54.172789 263.856178 
Q 54.083898 263.654043 53.918293 263.521315 
Q 53.752688 263.388588 53.533505 263.347186 
Q 53.314322 263.305785 52.990419 263.305785 
L 51.409865 263.305785 
L 51.409865 266.876033 
L 51.882327 266.876033 
L 51.882327 265.300351 
L 52.427849 265.300351 
Q 52.634855 265.300351 52.760276 265.336881 
Q 52.885698 265.373412 53.028167 265.51101 
Q 53.170636 265.648608 53.29971 265.841002 
Q 53.428785 266.033396 53.96213 266.876033 
L 54.55636 266.876033 
M 64.857962 266.876033 
L 63.296892 264.752393 
L 64.792207 263.305785 
L 64.154141 263.305785 
L 62.378758 265.076297 
L 62.378758 263.305785 
L 61.906297 263.305785 
L 61.906297 266.876033 
L 62.378758 266.876033 
L 62.378758 265.638867 
L 62.968117 265.071426 
L 64.234508 266.876033 
L 64.857962 266.876033 
M 61.141592 266.876033 
L 61.141592 263.305785 
L 60.691049 263.305785 
L 60.691049 266.108892 
L 60.681307 266.108892 
L 58.815816 263.305785 
L 58.333614 263.305785 
L 58.333614 266.876033 
L 58.781721 266.876033 
L 58.781721 264.072926 
L 58.791463 264.072926 
L 60.656954 266.876033 
L 61.141592 266.876033 
M 44.03801 264.730475 
L 44.230404 263.778246 
L 45.652658 263.778246 
L 45.652658 263.354492 
L 43.882146 263.354492 
L 43.533889 265.190759 
L 43.947901 265.239466 
Q 44.17439 264.89608 44.595709 264.89608 
Q 44.929354 264.89608 45.141231 265.112827 
Q 45.353108 265.329575 45.353108 265.704622 
Q 45.353108 266.072362 45.146102 266.324422 
Q 44.939096 266.576483 44.60545 266.576483 
Q 44.33756 266.576483 44.154907 266.40966 
Q 43.972255 266.242838 43.916241 265.904322 
L 43.458392 265.938417 
Q 43.5071 266.432796 43.833439 266.684857 
Q 44.159778 266.936917 44.60545 266.936917 
Q 45.150972 266.936917 45.487053 266.565524 
Q 45.823134 266.19413 45.823134 265.66322 
Q 45.823134 265.137181 45.491924 264.821801 
Q 45.160714 264.506421 44.715042 264.506421 
Q 44.364349 264.506421 44.03801 264.730475 
M 56.84804 265.414813 
L 55.635227 265.414813 
L 56.034627 264.345687 
Q 56.14909 264.038831 56.21728 263.678396 
L 56.229457 263.678396 
Q 56.297647 263.941416 56.35366 264.098497 
Q 56.409674 264.255578 56.84804 265.414813 
M 51.882327 264.876597 
L 51.882327 263.697879 
L 53.009902 263.697879 
Q 53.419043 263.697879 53.596825 263.868355 
Q 53.774607 264.038831 53.774607 264.282367 
Q 53.774607 264.469891 53.667451 264.620883 
Q 53.560294 264.771876 53.381295 264.824236 
Q 53.202296 264.876597 52.895439 264.876597 
L 51.882327 264.876597 
" clip-path="url(#pa5e7f643bf)" style="fill: #ff0000"/>
   </g>
   <g id="patch_27">
    <path d="M 137.871074 264.495868 
L 138.418583 262.782067 
L 138.802891 260.974065 
L 139.007381 259.089288 
L 139.017653 257.148073 
L 138.822019 255.17332 
L 138.411946 253.190083 
L 137.782426 251.225063 
L 136.932259 249.306061 
L 135.864248 247.461372 
L 134.585286 245.719154 
L 133.106342 244.106785 
L 131.442339 242.650227 
L 129.611931 241.37341 
L 127.637179 240.297661 
L 125.543133 239.441189 
L 123.35734 238.818642 
L 121.10928 238.440748 
L 118.829752 238.31405 
L 116.550224 238.440748 
L 114.302164 238.818642 
L 112.116371 239.441189 
L 110.022325 240.297661 
L 108.047573 241.37341 
L 106.217166 242.650227 
L 104.553163 244.106785 
L 103.074218 245.719154 
L 101.795256 247.461372 
L 100.727245 249.306061 
L 99.877078 251.225063 
L 99.247558 253.190083 
L 98.837485 255.17332 
L 98.641851 257.148073 
L 98.652123 259.089288 
L 98.856614 260.974065 
L 99.240921 262.782067 
L 99.78843 264.495868 
L 100.480855 266.101188 
L 101.298807 267.587046 
L 102.222371 268.945802 
L 103.231673 270.173104 
L 104.307422 271.267742 
L 105.431409 272.231405 
L 106.58695 273.06837 
L 107.759261 273.785113 
L 108.935752 274.389868 
L 110.106234 274.892152 
L 111.263034 275.302261 
L 112.401016 275.630765 
L 113.51751 275.888007 
L 114.612147 276.083641 
L 115.686619 276.226199 
L 116.744358 276.322726 
L 117.790159 276.378476 
L 118.829752 276.396694 
L 119.869346 276.378476 
L 120.915146 276.322726 
L 121.972885 276.226199 
L 123.047357 276.083641 
L 124.141994 275.888007 
L 125.258488 275.630765 
L 126.39647 275.302261 
L 127.55327 274.892152 
L 128.723752 274.389868 
L 129.900243 273.785113 
L 131.072555 273.06837 
L 132.228096 272.231405 
L 133.352082 271.267742 
L 134.427831 270.173104 
L 135.437133 268.945802 
L 136.360697 267.587046 
L 137.178649 266.101188 
L 137.871074 264.495868 
" clip-path="url(#pa5e7f643bf)" style="fill: none; stroke: #ffffff; stroke-width: 0.48; stroke-linejoin: miter"/>
   </g>
   <g id="patch_28">
    <path d="M 120.733884 264.495868 
C 120.733884 265.547491 119.881375 266.4 118.829752 266.4 
C 117.778129 266.4 116.92562 265.547491 116.92562 264.495868 
C 116.92562 263.444245 117.778129 262.591736 118.829752 262.591736 
C 119.881375 262.591736 120.733884 263.444245 120.733884 264.495868 
" clip-path="url(#pa5e7f643bf)" style="fill: none; stroke: #ffffff; stroke-width: 0.48; stroke-linejoin: miter"/>
   </g>
   <g id="patch_29">
    <path d="M 125.946706 266.876033 
L 125.946706 263.305785 
L 125.318381 263.305785 
L 124.466003 265.789859 
Q 124.341799 266.155164 124.276044 266.362171 
L 124.266303 266.362171 
Q 124.244385 266.255014 124.103133 265.833696 
L 123.258061 263.305785 
L 122.551805 263.305785 
L 122.551805 266.876033 
L 122.999912 266.876033 
L 122.999912 263.83913 
L 123.014524 263.83913 
L 124.037378 266.876033 
L 124.461132 266.876033 
L 125.488857 263.887838 
L 125.498599 263.887838 
L 125.498599 266.876033 
L 125.946706 266.876033 
M 110.703744 266.876033 
L 110.703744 263.305785 
L 110.07542 263.305785 
L 109.223041 265.789859 
Q 109.098838 266.155164 109.033083 266.362171 
L 109.023341 266.362171 
Q 109.001423 266.255014 108.860172 265.833696 
L 108.015099 263.305785 
L 107.308843 263.305785 
L 107.308843 266.876033 
L 107.75695 266.876033 
L 107.75695 263.83913 
L 107.771563 263.83913 
L 108.794417 266.876033 
L 109.218171 266.876033 
L 110.245895 263.887838 
L 110.255637 263.887838 
L 110.255637 266.876033 
L 110.703744 266.876033 
M 122.176758 266.876033 
L 120.720409 263.305785 
L 120.211417 263.305785 
L 118.840305 266.876033 
L 119.339556 266.876033 
L 119.734085 265.789859 
L 121.22453 265.789859 
L 121.643413 266.876033 
L 122.176758 266.876033 
M 118.650347 265.743587 
L 118.180321 265.624254 
Q 118.0756 266.079668 117.813798 266.306157 
Q 117.551996 266.532646 117.133113 266.532646 
Q 116.621686 266.532646 116.303871 266.169777 
Q 115.986055 265.806907 115.986055 265.061685 
Q 115.986055 264.416312 116.288041 264.032742 
Q 116.590026 263.649172 117.174514 263.649172 
Q 117.532513 263.649172 117.771179 263.836695 
Q 118.009845 264.024218 118.126743 264.39683 
L 118.589463 264.287238 
Q 118.440905 263.775811 118.070729 263.510356 
Q 117.700554 263.244901 117.179385 263.244901 
Q 116.439034 263.244901 115.96779 263.728321 
Q 115.496547 264.211742 115.496547 265.066555 
Q 115.496547 265.838567 115.897164 266.387742 
Q 116.297782 266.936917 117.174514 266.936917 
Q 117.717601 266.936917 118.106042 266.64102 
Q 118.494483 266.345123 118.650347 265.743587 
M 111.872721 264.730475 
L 112.065114 263.778246 
L 113.487369 263.778246 
L 113.487369 263.354492 
L 111.716857 263.354492 
L 111.3686 265.190759 
L 111.782612 265.239466 
Q 112.009101 264.89608 112.43042 264.89608 
Q 112.764065 264.89608 112.975942 265.112827 
Q 113.187819 265.329575 113.187819 265.704622 
Q 113.187819 266.072362 112.980812 266.324422 
Q 112.773806 266.576483 112.440161 266.576483 
Q 112.172271 266.576483 111.989618 266.40966 
Q 111.806966 266.242838 111.750952 265.904322 
L 111.293103 265.938417 
Q 111.341811 266.432796 111.66815 266.684857 
Q 111.994489 266.936917 112.440161 266.936917 
Q 112.985683 266.936917 113.321764 266.565524 
Q 113.657844 266.19413 113.657844 265.66322 
Q 113.657844 265.137181 113.326635 264.821801 
Q 112.995425 264.506421 112.549753 264.506421 
Q 112.19906 264.506421 111.872721 264.730475 
M 121.080843 265.414813 
L 119.86803 265.414813 
L 120.26743 264.345687 
Q 120.381893 264.038831 120.450083 263.678396 
L 120.46226 263.678396 
Q 120.53045 263.941416 120.586463 264.098497 
Q 120.642477 264.255578 121.080843 265.414813 
" clip-path="url(#pa5e7f643bf)" style="fill: #ff0000"/>
   </g>
   <g id="patch_30">
    <path d="M 154.532231 318.049587 
L 168.813223 318.049587 
L 168.813223 210.942149 
L 154.532231 210.942149 
L 154.532231 318.049587 
" clip-path="url(#pa5e7f643bf)" style="fill: none; stroke: #ffffff; stroke-width: 0.48; stroke-linejoin: miter"/>
   </g>
   <g id="patch_31">
    <path d="M 163.457851 216.892562 
C 163.457851 217.878459 162.658624 218.677686 161.672727 218.677686 
C 160.686831 218.677686 159.887603 217.878459 159.887603 216.892562 
C 159.887603 215.906665 160.686831 215.107438 161.672727 215.107438 
C 162.658624 215.107438 163.457851 215.906665 163.457851 216.892562 
" clip-path="url(#pa5e7f643bf)" style="fill: none; stroke: #ffffff; stroke-width: 0.48; stroke-linejoin: miter"/>
   </g>
   <g id="patch_32">
    <path d="M 159.050649 268.025526 
Q 158.544093 268.025526 158.226683 268.362419 
Q 157.909274 268.699311 157.909274 269.285423 
Q 157.909274 269.788732 158.222624 270.137801 
Q 158.535975 270.48687 159.050649 270.48687 
Q 159.547464 270.48687 159.867309 270.149978 
Q 160.187153 269.813086 160.187153 269.259446 
Q 160.187153 268.704182 159.868932 268.364854 
Q 159.550711 268.025526 159.050649 268.025526 
M 157.594299 268.348618 
L 157.594299 268.066116 
L 155.988581 268.066116 
L 155.988581 270.446281 
L 156.303555 270.446281 
L 156.303555 269.368225 
L 157.4222 269.368225 
L 157.4222 269.085723 
L 156.303555 269.085723 
L 156.303555 268.348618 
L 157.594299 268.348618 
M 162.078622 270.446281 
L 162.078622 270.163778 
L 160.904775 270.163778 
L 160.904775 268.066116 
L 160.589801 268.066116 
L 160.589801 270.446281 
L 162.078622 270.446281 
M 159.047402 270.217356 
Q 158.686967 270.217356 158.46129 269.961643 
Q 158.235613 269.705929 158.235613 269.291917 
Q 158.235613 268.785361 158.466161 268.5402 
Q 158.696709 268.29504 159.053896 268.29504 
Q 159.401342 268.29504 159.631078 268.545071 
Q 159.860814 268.795102 159.860814 269.259446 
Q 159.859191 269.7108 159.634325 269.964078 
Q 159.40946 270.217356 159.047402 270.217356 
" clip-path="url(#pa5e7f643bf)" style="fill: #ff0000"/>
   </g>
   <g id="patch_33">
    <path d="M 178.333884 272.826446 
L 261.639669 272.826446 
L 261.639669 256.165289 
L 178.333884 256.165289 
L 178.333884 272.826446 
" clip-path="url(#pa5e7f643bf)" style="fill: none; stroke: #ffffff; stroke-width: 0.48; stroke-linejoin: miter"/>
   </g>
   <g id="patch_34">
    <path d="M 189.758678 264.495868 
C 189.758678 265.547491 188.906169 266.4 187.854545 266.4 
C 186.802922 266.4 185.950413 265.547491 185.950413 264.495868 
C 185.950413 263.444245 186.802922 262.591736 187.854545 262.591736 
C 188.906169 262.591736 189.758678 263.444245 189.758678 264.495868 
" clip-path="url(#pa5e7f643bf)" style="fill: none; stroke: #ffffff; stroke-width: 0.48; stroke-linejoin: miter"/>
   </g>
   <g id="patch_35">
    <path d="M 255.689256 264.495868 
C 255.689256 266.467661 254.090802 268.066116 252.119008 268.066116 
C 250.147215 268.066116 248.54876 266.467661 248.54876 264.495868 
C 248.54876 262.524074 250.147215 260.92562 252.119008 260.92562 
C 254.090802 260.92562 255.689256 262.524074 255.689256 264.495868 
" clip-path="url(#pa5e7f643bf)" style="fill: none; stroke: #ffffff; stroke-width: 0.48; stroke-linejoin: miter"/>
   </g>
   <g id="patch_36">
    <path d="M 202.271918 270.446281 
L 202.271918 268.066116 
L 201.853035 268.066116 
L 201.284782 269.722165 
Q 201.20198 269.965702 201.158143 270.103706 
L 201.151649 270.103706 
Q 201.137037 270.032269 201.042869 269.75139 
L 200.479488 268.066116 
L 200.00865 268.066116 
L 200.00865 270.446281 
L 200.307388 270.446281 
L 200.307388 268.421679 
L 200.31713 268.421679 
L 200.999033 270.446281 
L 201.281535 270.446281 
L 201.966685 268.454151 
L 201.973179 268.454151 
L 201.973179 270.446281 
L 202.271918 270.446281 
M 209.920594 270.446281 
L 208.949694 268.066116 
L 208.610366 268.066116 
L 207.696292 270.446281 
L 208.029125 270.446281 
L 208.292145 269.722165 
L 209.285775 269.722165 
L 209.56503 270.446281 
L 209.920594 270.446281 
M 212.584885 268.066116 
L 212.584885 270.446281 
L 213.442134 270.446281 
Q 214.052599 270.446281 214.30263 270.107765 
Q 214.552661 269.769249 214.552661 269.24321 
Q 214.552661 268.967201 214.491777 268.773184 
Q 214.430893 268.579166 214.324549 268.429797 
Q 214.218204 268.280428 214.076141 268.19519 
Q 213.934078 268.109952 213.778215 268.088034 
Q 213.622351 268.066116 213.406415 268.066116 
L 212.584885 268.066116 
M 212.052351 270.446281 
L 212.052351 268.066116 
L 211.751989 268.066116 
L 211.751989 269.934854 
L 211.745495 269.934854 
L 210.501834 268.066116 
L 210.180366 268.066116 
L 210.180366 270.446281 
L 210.479104 270.446281 
L 210.479104 268.577543 
L 210.485599 268.577543 
L 211.729259 270.446281 
L 212.052351 270.446281 
M 207.433272 270.446281 
L 207.433272 268.066116 
L 207.116674 268.066116 
L 207.116674 269.04351 
L 205.879508 269.04351 
L 205.879508 268.066116 
L 205.564534 268.066116 
L 205.564534 270.446281 
L 205.879508 270.446281 
L 205.879508 269.326012 
L 207.116674 269.326012 
L 207.116674 270.446281 
L 207.433272 270.446281 
M 218.609983 270.446281 
L 218.609983 270.163778 
L 217.147139 270.163778 
L 217.147139 269.358484 
L 218.463861 269.358484 
L 218.463861 269.075981 
L 217.147139 269.075981 
L 217.147139 268.348618 
L 218.554781 268.348618 
L 218.554781 268.066116 
L 216.832165 268.066116 
L 216.832165 270.446281 
L 218.609983 270.446281 
M 203.051235 269.015909 
L 203.179498 268.38109 
L 204.127667 268.38109 
L 204.127667 268.098587 
L 202.947326 268.098587 
L 202.715155 269.322765 
L 202.991163 269.355237 
Q 203.142156 269.126312 203.423035 269.126312 
Q 203.645465 269.126312 203.786716 269.270811 
Q 203.927967 269.415309 203.927967 269.66534 
Q 203.927967 269.9105 203.789963 270.078541 
Q 203.651959 270.246581 203.429529 270.246581 
Q 203.250935 270.246581 203.129167 270.135366 
Q 203.007399 270.024151 202.970056 269.798473 
L 202.664824 269.821203 
Q 202.697295 270.15079 202.914855 270.31883 
Q 203.132414 270.48687 203.429529 270.48687 
Q 203.79321 270.48687 204.017264 270.239275 
Q 204.241318 269.991679 204.241318 269.637739 
Q 204.241318 269.287046 204.020511 269.076793 
Q 203.799705 268.86654 203.50259 268.86654 
Q 203.268795 268.86654 203.051235 269.015909 
M 216.458742 270.446281 
L 216.458742 270.163778 
L 215.284895 270.163778 
L 215.284895 268.066116 
L 214.969921 268.066116 
L 214.969921 270.446281 
L 216.458742 270.446281 
M 209.189983 269.472134 
L 208.381442 269.472134 
L 208.647708 268.759383 
Q 208.724017 268.554813 208.769477 268.314523 
L 208.777595 268.314523 
Q 208.823055 268.48987 208.860397 268.59459 
Q 208.897739 268.699311 209.189983 269.472134 
M 212.899859 270.163778 
L 212.899859 268.348618 
L 213.399921 268.348618 
Q 213.563902 268.348618 213.668623 268.361607 
Q 213.773344 268.374596 213.883747 268.433856 
Q 213.994151 268.493117 214.079388 268.620568 
Q 214.164626 268.748018 214.196286 268.90307 
Q 214.227946 269.058122 214.227946 269.236715 
Q 214.227946 269.559807 214.145143 269.75626 
Q 214.062341 269.952713 213.936514 270.038763 
Q 213.810686 270.124813 213.688106 270.144295 
Q 213.565526 270.163778 213.409663 270.163778 
L 212.899859 270.163778 
" clip-path="url(#pa5e7f643bf)" style="fill: #ff0000"/>
   </g>
   <g id="patch_37">
    <path d="M 23.62314 333.520661 
L 142.631405 333.520661 
L 142.631405 238.31405 
L 23.62314 238.31405 
L 23.62314 333.520661 
" clip-path="url(#pa5e7f643bf)" style="fill: none; stroke: #ffffff; stroke-width: 0.48; stroke-linejoin: miter"/>
   </g>
   <g id="patch_38">
    <path d="M 29.573554 337.090909 
L 41.47438 337.090909 
L 41.47438 333.520661 
L 29.573554 333.520661 
L 29.573554 337.090909 
" clip-path="url(#pa5e7f643bf)" style="fill: none; stroke: #ffffff; stroke-width: 0.48; stroke-linejoin: miter"/>
   </g>
   <g id="patch_39">
    <path d="M 124.780165 337.090909 
L 136.680992 337.090909 
L 136.680992 333.520661 
L 124.780165 333.520661 
L 124.780165 337.090909 
" clip-path="url(#pa5e7f643bf)" style="fill: none; stroke: #ffffff; stroke-width: 0.48; stroke-linejoin: miter"/>
   </g>
   <g id="patch_40">
    <path d="M 80.21157 330.545455 
L 86.042975 330.545455 
L 86.042975 312.694215 
L 80.21157 312.694215 
L 80.21157 330.545455 
" clip-path="url(#pa5e7f643bf)" style="fill: none; stroke: #ffffff; stroke-width: 0.48; stroke-linejoin: miter"/>
   </g>
   <g id="patch_41">
    <path d="M 33.348372 250.214876 
L 33.348372 246.644628 
L 32.720048 246.644628 
L 31.867669 249.128702 
Q 31.743466 249.494007 31.677711 249.701014 
L 31.667969 249.701014 
Q 31.646051 249.593857 31.5048 249.172539 
L 30.659727 246.644628 
L 29.953471 246.644628 
L 29.953471 250.214876 
L 30.401578 250.214876 
L 30.401578 247.177973 
L 30.416191 247.177973 
L 31.439045 250.214876 
L 31.862799 250.214876 
L 32.890523 247.226681 
L 32.900265 247.226681 
L 32.900265 250.214876 
L 33.348372 250.214876 
M 63.115863 250.214876 
L 61.659513 246.644628 
L 61.150521 246.644628 
L 59.77941 250.214876 
L 60.27866 250.214876 
L 60.67319 249.128702 
L 62.163634 249.128702 
L 62.582517 250.214876 
L 63.115863 250.214876 
M 44.621686 249.08243 
L 44.15166 248.963097 
Q 44.046939 249.418511 43.785137 249.645 
Q 43.523336 249.871489 43.104452 249.871489 
Q 42.593025 249.871489 42.27521 249.50862 
Q 41.957395 249.14575 41.957395 248.400528 
Q 41.957395 247.755155 42.25938 247.371585 
Q 42.561366 246.988015 43.145854 246.988015 
Q 43.503853 246.988015 43.742519 247.175538 
Q 43.981185 247.363061 44.098082 247.735672 
L 44.560802 247.626081 
Q 44.412244 247.114654 44.042069 246.849199 
Q 43.671893 246.583744 43.150724 246.583744 
Q 42.410373 246.583744 41.939129 247.067164 
Q 41.467886 247.550585 41.467886 248.405398 
Q 41.467886 249.17741 41.868504 249.726585 
Q 42.269122 250.27576 43.145854 250.27576 
Q 43.688941 250.27576 44.077382 249.979863 
Q 44.465823 249.683966 44.621686 249.08243 
M 40.391454 247.691836 
L 40.844432 247.655305 
Q 40.822514 247.141443 40.460862 246.862593 
Q 40.09921 246.583744 39.50498 246.583744 
Q 38.925363 246.583744 38.589282 246.863811 
Q 38.253201 247.143878 38.253201 247.572503 
Q 38.253201 247.949985 38.518656 248.186215 
Q 38.784111 248.422446 39.386865 248.552738 
Q 39.989618 248.68303 40.245332 248.816975 
Q 40.501045 248.950921 40.501045 249.243165 
Q 40.501045 249.523232 40.256291 249.686401 
Q 40.011536 249.849571 39.614572 249.849571 
Q 39.190818 249.849571 38.891268 249.653524 
Q 38.591717 249.457477 38.560058 249.028852 
L 38.11195 249.067818 
Q 38.133869 249.603599 38.507697 249.93968 
Q 38.881526 250.27576 39.634055 250.27576 
Q 40.223413 250.27576 40.589936 249.971339 
Q 40.956459 249.666918 40.956459 249.206634 
Q 40.956459 248.843764 40.756759 248.628234 
Q 40.557059 248.412704 40.276991 248.310419 
Q 39.996924 248.208134 39.553687 248.110719 
Q 39.054437 247.998692 38.877873 247.885448 
Q 38.701309 247.772203 38.701309 247.540843 
Q 38.701309 247.280259 38.930234 247.143878 
Q 39.159158 247.007498 39.524463 247.007498 
Q 39.928734 247.007498 40.145482 247.179191 
Q 40.362229 247.350885 40.391454 247.691836 
M 51.345734 250.214876 
L 51.345734 246.644628 
L 50.895191 246.644628 
L 50.895191 249.447735 
L 50.88545 249.447735 
L 49.019959 246.644628 
L 48.537756 246.644628 
L 48.537756 250.214876 
L 48.985864 250.214876 
L 48.985864 247.411769 
L 48.995605 247.411769 
L 50.861096 250.214876 
L 51.345734 250.214876 
M 66.313499 250.214876 
L 66.313499 246.644628 
L 65.862956 246.644628 
L 65.862956 249.447735 
L 65.853215 249.447735 
L 63.987724 246.644628 
L 63.505521 246.644628 
L 63.505521 250.214876 
L 63.953629 250.214876 
L 63.953629 247.411769 
L 63.96337 247.411769 
L 65.828861 250.214876 
L 66.313499 250.214876 
M 56.842357 246.644628 
L 56.842357 250.214876 
L 57.314819 250.214876 
L 57.314819 248.768268 
L 58.228081 248.768268 
Q 58.929467 248.768268 59.247282 248.469936 
Q 59.565098 248.171603 59.565098 247.677224 
Q 59.565098 247.428816 59.46403 247.201109 
Q 59.362962 246.973403 59.165697 246.840675 
Q 58.968433 246.707948 58.738291 246.676288 
Q 58.508148 246.644628 58.189115 246.644628 
L 56.842357 246.644628 
M 69.774156 250.214876 
L 69.774156 249.791122 
L 67.57989 249.791122 
L 67.57989 248.58318 
L 69.554973 248.58318 
L 69.554973 248.159426 
L 67.57989 248.159426 
L 67.57989 247.068382 
L 69.691353 247.068382 
L 69.691353 246.644628 
L 67.107429 246.644628 
L 67.107429 250.214876 
L 69.774156 250.214876 
M 47.877772 250.214876 
L 47.877772 249.791122 
L 45.683506 249.791122 
L 45.683506 248.58318 
L 47.658589 248.58318 
L 47.658589 248.159426 
L 45.683506 248.159426 
L 45.683506 247.068382 
L 47.794969 247.068382 
L 47.794969 246.644628 
L 45.211045 246.644628 
L 45.211045 250.214876 
L 47.877772 250.214876 
M 54.806391 250.214876 
L 54.806391 249.791122 
L 52.612125 249.791122 
L 52.612125 248.58318 
L 54.587208 248.58318 
L 54.587208 248.159426 
L 52.612125 248.159426 
L 52.612125 247.068382 
L 54.723588 247.068382 
L 54.723588 246.644628 
L 52.139664 246.644628 
L 52.139664 250.214876 
L 54.806391 250.214876 
M 34.517349 248.069318 
L 34.709743 247.117089 
L 36.131997 247.117089 
L 36.131997 246.693335 
L 34.361485 246.693335 
L 34.013228 248.529602 
L 34.42724 248.578309 
Q 34.653729 248.234923 35.075048 248.234923 
Q 35.408693 248.234923 35.62057 248.45167 
Q 35.832447 248.668418 35.832447 249.043465 
Q 35.832447 249.411205 35.625441 249.663265 
Q 35.418434 249.915326 35.084789 249.915326 
Q 34.816899 249.915326 34.634246 249.748503 
Q 34.451594 249.581681 34.39558 249.243165 
L 33.937731 249.27726 
Q 33.986439 249.771639 34.312778 250.0237 
Q 34.639117 250.27576 35.084789 250.27576 
Q 35.630311 250.27576 35.966392 249.904367 
Q 36.302473 249.532973 36.302473 249.002063 
Q 36.302473 248.476024 35.971263 248.160644 
Q 35.640053 247.845264 35.194381 247.845264 
Q 34.843688 247.845264 34.517349 248.069318 
M 72.647889 250.214876 
L 72.647889 249.791122 
L 70.887118 249.791122 
L 70.887118 246.644628 
L 70.414657 246.644628 
L 70.414657 250.214876 
L 72.647889 250.214876 
M 62.019947 248.753656 
L 60.807135 248.753656 
L 61.206535 247.68453 
Q 61.320997 247.377674 61.389187 247.017239 
L 61.401364 247.017239 
Q 61.469555 247.280259 61.525568 247.43734 
Q 61.581581 247.594421 62.019947 248.753656 
M 57.314819 248.344514 
L 57.314819 247.068382 
L 58.22321 247.068382 
Q 58.537373 247.068382 58.696889 247.108566 
Q 58.856406 247.148749 58.965997 247.313136 
Q 59.075589 247.477524 59.075589 247.691836 
Q 59.075589 248.344514 58.232952 248.344514 
L 57.314819 248.344514 
" clip-path="url(#pa5e7f643bf)" style="fill: #ff0000"/>
   </g>
  </g>
 </g>
 <defs>
  <clipPath id="pa5e7f643bf">
   <rect x="7.2" y="7.2" width="361.309091" height="345.6"/>
  </clipPath>
 </defs>
</svg>
