<?xml version="1.0" encoding="utf-8" standalone="no"?>
<!DOCTYPE svg PUBLIC "-//W3C//DTD SVG 1.1//EN"
  "http://www.w3.org/Graphics/SVG/1.1/DTD/svg11.dtd">
<svg xmlns:xlink="http://www.w3.org/1999/xlink" width="315.581191pt" height="360pt" viewBox="0 0 315.581191 360" xmlns="http://www.w3.org/2000/svg" version="1.1">
 <metadata>
  <rdf:RDF xmlns:dc="http://purl.org/dc/elements/1.1/" xmlns:cc="http://creativecommons.org/ns#" xmlns:rdf="http://www.w3.org/1999/02/22-rdf-syntax-ns#">
   <cc:Work>
    <dc:type rdf:resource="http://purl.org/dc/dcmitype/StillImage"/>
    <dc:date>2026-03-26T11:08:13.534434</dc:date>
    <dc:format>image/svg+xml</dc:format>
    <dc:creator>
     <cc:Agent>
      <dc:title>Matplotlib v3.10.8, https://matplotlib.org/</dc:title>
     </cc:Agent>
    </dc:creator>
   </cc:Work>
  </rdf:RDF>
 </metadata>
 <defs>
  <style type="text/css">*{stroke-linejoin: round; stroke-linecap: butt}</style>
 </defs>
 <g id="figure_1">
  <g id="patch_1">
   <path d="M 0 360 
L 315.581191 360 
L 315.581191 0 
L 0 0 
z
" style="fill: #1a1a2e"/>
  </g>
  <g id="axes_1">
   <g id="patch_2">
    <path d="M 7.2 352.8 
L 308.381191 352.8 
L 308.381191 7.2 
L 7.2 7.2 
z
" style="fill: #1a1a2e"/>
   </g>
   <g id="patch_3">
    <path d="M 20.890054 160.794528 
L 158.775492 160.794528 
L 158.775492 62.30493 
L 20.890054 62.30493 
L 20.890054 160.794528 
" clip-path="url(#p33bb80068d)" style="fill: none; stroke: #ffffff; stroke-width: 0.48; stroke-linejoin: miter"/>
   </g>
   <g id="patch_4">
    <path d="M 28.938522 70.184098 
L 28.938522 67.22941 
L 28.418529 67.22941 
L 27.713113 69.285196 
Q 27.610323 69.587517 27.555905 69.758833 
L 27.547843 69.758833 
Q 27.529704 69.670152 27.412807 69.321474 
L 26.713436 67.22941 
L 26.128948 67.22941 
L 26.128948 70.184098 
L 26.499796 70.184098 
L 26.499796 67.670799 
L 26.511889 67.670799 
L 27.358389 70.184098 
L 27.709082 70.184098 
L 28.559612 67.711109 
L 28.567674 67.711109 
L 28.567674 70.184098 
L 28.938522 70.184098 
M 38.205681 70.184098 
L 37.000426 67.22941 
L 36.579192 67.22941 
L 35.444479 70.184098 
L 35.857651 70.184098 
L 36.184159 69.285196 
L 37.41763 69.285196 
L 37.764292 70.184098 
L 38.205681 70.184098 
M 40.27356 68.096065 
L 40.648438 68.065833 
Q 40.630299 67.640567 40.331001 67.409795 
Q 40.031702 67.179023 39.539926 67.179023 
Q 39.060243 67.179023 38.782107 67.410803 
Q 38.503972 67.642583 38.503972 67.997306 
Q 38.503972 68.309705 38.723658 68.505206 
Q 38.943345 68.700708 39.442176 68.808536 
Q 39.941006 68.916364 40.152631 69.027215 
Q 40.364256 69.138066 40.364256 69.379923 
Q 40.364256 69.611703 40.161701 69.74674 
Q 39.959145 69.881777 39.630623 69.881777 
Q 39.27993 69.881777 39.032026 69.719531 
Q 38.784123 69.557285 38.757921 69.202561 
L 38.387074 69.234809 
Q 38.405213 69.678214 38.714589 69.956349 
Q 39.023964 70.234485 39.646746 70.234485 
Q 40.134492 70.234485 40.437821 69.98255 
Q 40.74115 69.730616 40.74115 69.349691 
Q 40.74115 69.049385 40.575881 68.871015 
Q 40.410612 68.692646 40.178832 68.607996 
Q 39.947052 68.523346 39.580236 68.442727 
Q 39.167063 68.350015 39.020941 68.256295 
Q 38.874819 68.162576 38.874819 67.971105 
Q 38.874819 67.755449 39.064274 67.642583 
Q 39.253729 67.529716 39.55605 67.529716 
Q 39.890619 67.529716 40.069996 67.671807 
Q 40.249374 67.813898 40.27356 68.096065 
M 34.680613 68.612027 
Q 34.886192 68.505206 34.987973 68.340945 
Q 35.089755 68.176684 35.089755 67.983198 
Q 35.089755 67.697001 34.86906 67.463205 
Q 34.648366 67.22941 34.110234 67.22941 
L 33.001722 67.22941 
L 33.001722 70.184098 
L 34.132404 70.184098 
Q 34.525422 70.184098 34.755186 70.086347 
Q 34.98495 69.988597 35.10991 69.781003 
Q 35.234869 69.573409 35.234869 69.325505 
Q 35.234869 69.077602 35.096809 68.887139 
Q 34.958749 68.696677 34.680613 68.612027 
M 43.488244 70.184098 
L 43.488244 69.833405 
L 41.6723 69.833405 
L 41.6723 68.833729 
L 43.306851 68.833729 
L 43.306851 68.483036 
L 41.6723 68.483036 
L 41.6723 67.580103 
L 43.419718 67.580103 
L 43.419718 67.22941 
L 41.281298 67.22941 
L 41.281298 70.184098 
L 43.488244 70.184098 
M 29.905951 68.408464 
L 30.065173 67.620412 
L 31.242211 67.620412 
L 31.242211 67.26972 
L 29.77696 67.26972 
L 29.488747 68.789389 
L 29.831378 68.829698 
Q 30.018817 68.545516 30.367495 68.545516 
Q 30.643615 68.545516 30.818961 68.724893 
Q 30.994308 68.904271 30.994308 69.214654 
Q 30.994308 69.518991 30.822992 69.727593 
Q 30.651677 69.936194 30.375556 69.936194 
Q 30.153854 69.936194 30.002693 69.798134 
Q 29.851533 69.660074 29.805177 69.379923 
L 29.426267 69.40814 
Q 29.466577 69.817281 29.736651 70.025883 
Q 30.006724 70.234485 30.375556 70.234485 
Q 30.827023 70.234485 31.105159 69.927125 
Q 31.383294 69.619765 31.383294 69.180391 
Q 31.383294 68.745048 31.10919 68.484044 
Q 30.835085 68.22304 30.466253 68.22304 
Q 30.176024 68.22304 29.905951 68.408464 
M 37.298717 68.974812 
L 36.29501 68.974812 
L 36.625548 68.090018 
Q 36.720275 67.836068 36.776708 67.537778 
L 36.786786 67.537778 
Q 36.843219 67.755449 36.889575 67.885448 
Q 36.935931 68.015446 37.298717 68.974812 
M 33.392724 69.833405 
L 33.392724 68.817605 
L 34.077986 68.817605 
Q 34.503251 68.817605 34.666505 68.951634 
Q 34.829759 69.085664 34.829759 69.325505 
Q 34.829759 69.563331 34.676582 69.698368 
Q 34.523406 69.833405 34.128373 69.833405 
L 33.392724 69.833405 
M 33.392724 68.466912 
L 33.392724 67.580103 
L 33.983259 67.580103 
Q 34.208992 67.580103 34.353099 67.602273 
Q 34.497205 67.624443 34.601002 67.724209 
Q 34.704799 67.823976 34.704799 68.033585 
Q 34.704799 68.233117 34.60201 68.327845 
Q 34.499221 68.422572 34.365191 68.444742 
Q 34.231162 68.466912 34.033646 68.466912 
L 33.392724 68.466912 
" clip-path="url(#p33bb80068d)" style="fill: #ff0000"/>
   </g>
   <g id="patch_5">
    <path d="M 39.159875 131.247649 
L 42.016073 131.247649 
L 42.016073 121.398689 
L 39.159875 121.398689 
L 39.159875 131.247649 
" clip-path="url(#p33bb80068d)" style="fill: none; stroke: #ffffff; stroke-width: 0.48; stroke-linejoin: miter"/>
   </g>
   <g id="patch_6">
    <path d="M 39.159875 101.700769 
L 42.016073 101.700769 
L 42.016073 91.85181 
L 39.159875 91.85181 
L 39.159875 101.700769 
" clip-path="url(#p33bb80068d)" style="fill: none; stroke: #ffffff; stroke-width: 0.48; stroke-linejoin: miter"/>
   </g>
   <g id="patch_7">
    <path d="M 137.649473 131.247649 
L 140.505671 131.247649 
L 140.505671 121.398689 
L 137.649473 121.398689 
L 137.649473 131.247649 
" clip-path="url(#p33bb80068d)" style="fill: none; stroke: #ffffff; stroke-width: 0.48; stroke-linejoin: miter"/>
   </g>
   <g id="patch_8">
    <path d="M 137.649473 101.700769 
L 140.505671 101.700769 
L 140.505671 91.85181 
L 137.649473 91.85181 
L 137.649473 101.700769 
" clip-path="url(#p33bb80068d)" style="fill: none; stroke: #ffffff; stroke-width: 0.48; stroke-linejoin: miter"/>
   </g>
   <g id="patch_9">
    <path d="M 166.654659 22.909091 
L 225.748418 22.909091 
L 225.748418 160.794528 
L 215.899459 160.794528 
L 215.899459 163.749216 
L 206.050499 163.749216 
L 206.050499 160.794528 
L 186.352579 160.794528 
L 186.352579 163.749216 
L 176.503619 163.749216 
L 176.503619 160.794528 
L 166.654659 160.794528 
L 166.654659 22.909091 
" clip-path="url(#p33bb80068d)" style="fill: none; stroke: #ffffff; stroke-width: 0.48; stroke-linejoin: miter"/>
   </g>
   <g id="patch_10">
    <path d="M 197.777372 126.323169 
C 197.777372 127.193478 197.071848 127.899003 196.201539 127.899003 
C 195.33123 127.899003 194.625705 127.193478 194.625705 126.323169 
C 194.625705 125.45286 195.33123 124.747335 196.201539 124.747335 
C 197.071848 124.747335 197.777372 125.45286 197.777372 126.323169 
" clip-path="url(#p33bb80068d)" style="fill: none; stroke: #ffffff; stroke-width: 0.48; stroke-linejoin: miter"/>
   </g>
   <g id="patch_11">
    <path d="M 194.77344 69.69165 
L 197.629638 69.69165 
L 197.629638 35.220291 
L 194.77344 35.220291 
L 194.77344 69.69165 
" clip-path="url(#p33bb80068d)" style="fill: none; stroke: #ffffff; stroke-width: 0.48; stroke-linejoin: miter"/>
   </g>
   <g id="patch_12">
    <path d="M 191.277059 29.26167 
L 201.126019 29.26167 
L 201.126019 26.405472 
L 191.277059 26.405472 
L 191.277059 29.26167 
" clip-path="url(#p33bb80068d)" style="fill: none; stroke: #ffffff; stroke-width: 0.48; stroke-linejoin: miter"/>
   </g>
   <g id="patch_13">
    <path d="M 172.733335 34.727843 
L 172.733335 31.773155 
L 172.213342 31.773155 
L 171.507926 33.82894 
Q 171.405137 34.131262 171.350719 34.302577 
L 171.342657 34.302577 
Q 171.324518 34.213896 171.20762 33.865219 
L 170.50825 31.773155 
L 169.923762 31.773155 
L 169.923762 34.727843 
L 170.294609 34.727843 
L 170.294609 32.214544 
L 170.306702 32.214544 
L 171.153202 34.727843 
L 171.503895 34.727843 
L 172.354426 32.254854 
L 172.362488 32.254854 
L 172.362488 34.727843 
L 172.733335 34.727843 
M 181.946077 34.727843 
L 181.430115 33.923668 
Q 181.170118 33.516542 180.873843 33.385536 
L 180.873843 33.377474 
Q 181.278954 33.323056 181.490579 33.119493 
Q 181.702204 32.91593 181.702204 32.581361 
Q 181.702204 32.395937 181.628639 32.228652 
Q 181.555074 32.061368 181.418022 31.951524 
Q 181.280969 31.841681 181.099577 31.807418 
Q 180.918184 31.773155 180.650125 31.773155 
L 179.342081 31.773155 
L 179.342081 34.727843 
L 179.733084 34.727843 
L 179.733084 33.42383 
L 180.18455 33.42383 
Q 180.355866 33.42383 180.459663 33.454062 
Q 180.56346 33.484294 180.681365 33.598168 
Q 180.799271 33.712043 180.906091 33.871265 
Q 181.012911 34.030488 181.4543 34.727843 
L 181.946077 34.727843 
M 178.814027 32.123848 
L 178.814027 31.773155 
L 176.820721 31.773155 
L 176.820721 34.727843 
L 177.211723 34.727843 
L 177.211723 33.389567 
L 178.600386 33.389567 
L 178.600386 33.038874 
L 177.211723 33.038874 
L 177.211723 32.123848 
L 178.814027 32.123848 
M 173.700764 32.952208 
L 173.859986 32.164157 
L 175.037024 32.164157 
L 175.037024 31.813464 
L 173.571773 31.813464 
L 173.28356 33.333133 
L 173.626191 33.373443 
Q 173.813631 33.089261 174.162308 33.089261 
Q 174.438428 33.089261 174.613775 33.268638 
Q 174.789121 33.448015 174.789121 33.758399 
Q 174.789121 34.062736 174.617805 34.271337 
Q 174.44649 34.479939 174.17037 34.479939 
Q 173.948667 34.479939 173.797507 34.341879 
Q 173.646346 34.203819 173.59999 33.923668 
L 173.221081 33.951884 
Q 173.26139 34.361026 173.531464 34.569628 
Q 173.801538 34.77823 174.17037 34.77823 
Q 174.621836 34.77823 174.899972 34.470869 
Q 175.178108 34.163509 175.178108 33.724136 
Q 175.178108 33.288793 174.904003 33.027789 
Q 174.629898 32.766784 174.261066 32.766784 
Q 173.970838 32.766784 173.700764 32.952208 
M 185.297813 34.727843 
L 185.297813 34.37715 
L 183.840624 34.37715 
L 183.840624 31.773155 
L 183.449622 31.773155 
L 183.449622 34.727843 
L 185.297813 34.727843 
M 179.733084 33.073137 
L 179.733084 32.097646 
L 180.666249 32.097646 
Q 181.004849 32.097646 181.151979 32.23873 
Q 181.299109 32.379813 181.299109 32.581361 
Q 181.299109 32.736552 181.210428 32.861512 
Q 181.121747 32.986471 180.973609 33.029804 
Q 180.825472 33.073137 180.571522 33.073137 
L 179.733084 33.073137 
" clip-path="url(#p33bb80068d)" style="fill: #ff0000"/>
   </g>
   <g id="patch_14">
    <path d="M 233.627586 22.909091 
L 292.721345 22.909091 
L 292.721345 160.794528 
L 282.872385 160.794528 
L 282.872385 163.749216 
L 273.023425 163.749216 
L 273.023425 160.794528 
L 253.325506 160.794528 
L 253.325506 163.749216 
L 243.476546 163.749216 
L 243.476546 160.794528 
L 233.627586 160.794528 
L 233.627586 22.909091 
" clip-path="url(#p33bb80068d)" style="fill: none; stroke: #ffffff; stroke-width: 0.48; stroke-linejoin: miter"/>
   </g>
   <g id="patch_15">
    <path d="M 264.750299 126.323169 
C 264.750299 127.193478 264.044775 127.899003 263.174466 127.899003 
C 262.304157 127.899003 261.598632 127.193478 261.598632 126.323169 
C 261.598632 125.45286 262.304157 124.747335 263.174466 124.747335 
C 264.044775 124.747335 264.750299 125.45286 264.750299 126.323169 
" clip-path="url(#p33bb80068d)" style="fill: none; stroke: #ffffff; stroke-width: 0.48; stroke-linejoin: miter"/>
   </g>
   <g id="patch_16">
    <path d="M 261.746366 69.69165 
L 264.602565 69.69165 
L 264.602565 35.220291 
L 261.746366 35.220291 
L 261.746366 69.69165 
" clip-path="url(#p33bb80068d)" style="fill: none; stroke: #ffffff; stroke-width: 0.48; stroke-linejoin: miter"/>
   </g>
   <g id="patch_17">
    <path d="M 258.249986 29.26167 
L 268.098946 29.26167 
L 268.098946 26.405472 
L 258.249986 26.405472 
L 258.249986 29.26167 
" clip-path="url(#p33bb80068d)" style="fill: none; stroke: #ffffff; stroke-width: 0.48; stroke-linejoin: miter"/>
   </g>
   <g id="patch_18">
    <path d="M 239.706262 34.727843 
L 239.706262 31.773155 
L 239.186269 31.773155 
L 238.480853 33.82894 
Q 238.378063 34.131262 238.323645 34.302577 
L 238.315584 34.302577 
Q 238.297444 34.213896 238.180547 33.865219 
L 237.481176 31.773155 
L 236.896688 31.773155 
L 236.896688 34.727843 
L 237.267536 34.727843 
L 237.267536 32.214544 
L 237.279629 32.214544 
L 238.126129 34.727843 
L 238.476822 34.727843 
L 239.327353 32.254854 
L 239.335414 32.254854 
L 239.335414 34.727843 
L 239.706262 34.727843 
M 253.046698 34.727843 
L 252.530736 33.923668 
Q 252.27074 33.516542 251.974465 33.385536 
L 251.974465 33.377474 
Q 252.379576 33.323056 252.591201 33.119493 
Q 252.802826 32.91593 252.802826 32.581361 
Q 252.802826 32.395937 252.729261 32.228652 
Q 252.655696 32.061368 252.518644 31.951524 
Q 252.381591 31.841681 252.200198 31.807418 
Q 252.018806 31.773155 251.750747 31.773155 
L 250.442703 31.773155 
L 250.442703 34.727843 
L 250.833706 34.727843 
L 250.833706 33.42383 
L 251.285172 33.42383 
Q 251.456488 33.42383 251.560285 33.454062 
Q 251.664082 33.484294 251.781987 33.598168 
Q 251.899892 33.712043 252.006713 33.871265 
Q 252.113533 34.030488 252.554922 34.727843 
L 253.046698 34.727843 
M 248.919003 34.727843 
L 248.403041 33.923668 
Q 248.143045 33.516542 247.84677 33.385536 
L 247.84677 33.377474 
Q 248.251881 33.323056 248.463506 33.119493 
Q 248.675131 32.91593 248.675131 32.581361 
Q 248.675131 32.395937 248.601566 32.228652 
Q 248.528001 32.061368 248.390949 31.951524 
Q 248.253896 31.841681 248.072503 31.807418 
Q 247.89111 31.773155 247.623052 31.773155 
L 246.315008 31.773155 
L 246.315008 34.727843 
L 246.706011 34.727843 
L 246.706011 33.42383 
L 247.157477 33.42383 
Q 247.328793 33.42383 247.43259 33.454062 
Q 247.536387 33.484294 247.654292 33.598168 
Q 247.772197 33.712043 247.879018 33.871265 
Q 247.985838 34.030488 248.427227 34.727843 
L 248.919003 34.727843 
M 245.786953 32.123848 
L 245.786953 31.773155 
L 243.793648 31.773155 
L 243.793648 34.727843 
L 244.18465 34.727843 
L 244.18465 33.389567 
L 245.573313 33.389567 
L 245.573313 33.038874 
L 244.18465 33.038874 
L 244.18465 32.123848 
L 245.786953 32.123848 
M 240.673691 32.952208 
L 240.832913 32.164157 
L 242.009951 32.164157 
L 242.009951 31.813464 
L 240.5447 31.813464 
L 240.256487 33.333133 
L 240.599118 33.373443 
Q 240.786557 33.089261 241.135235 33.089261 
Q 241.411355 33.089261 241.586701 33.268638 
Q 241.762048 33.448015 241.762048 33.758399 
Q 241.762048 34.062736 241.590732 34.271337 
Q 241.419417 34.479939 241.143297 34.479939 
Q 240.921594 34.479939 240.770433 34.341879 
Q 240.619273 34.203819 240.572917 33.923668 
L 240.194007 33.951884 
Q 240.234317 34.361026 240.504391 34.569628 
Q 240.774464 34.77823 241.143297 34.77823 
Q 241.594763 34.77823 241.872899 34.470869 
Q 242.151035 34.163509 242.151035 33.724136 
Q 242.151035 33.288793 241.87693 33.027789 
Q 241.602825 32.766784 241.233993 32.766784 
Q 240.943764 32.766784 240.673691 32.952208 
M 250.833706 33.073137 
L 250.833706 32.097646 
L 251.766871 32.097646 
Q 252.105471 32.097646 252.252601 32.23873 
Q 252.39973 32.379813 252.39973 32.581361 
Q 252.39973 32.736552 252.31105 32.861512 
Q 252.222369 32.986471 252.074231 33.029804 
Q 251.926094 33.073137 251.672144 33.073137 
L 250.833706 33.073137 
M 246.706011 33.073137 
L 246.706011 32.097646 
L 247.639176 32.097646 
Q 247.977776 32.097646 248.124906 32.23873 
Q 248.272035 32.379813 248.272035 32.581361 
Q 248.272035 32.736552 248.183355 32.861512 
Q 248.094674 32.986471 247.946536 33.029804 
Q 247.798399 33.073137 247.544449 33.073137 
L 246.706011 33.073137 
" clip-path="url(#p33bb80068d)" style="fill: #ff0000"/>
   </g>
   <g id="patch_19">
    <path d="M 70.134853 222.842975 
C 70.134853 236.441551 59.111029 247.465375 45.512454 247.465375 
C 31.913878 247.465375 20.890054 236.441551 20.890054 222.842975 
C 20.890054 209.244399 31.913878 198.220576 45.512454 198.220576 
C 59.111029 198.220576 70.134853 209.244399 70.134853 222.842975 
" clip-path="url(#p33bb80068d)" style="fill: none; stroke: #ffffff; stroke-width: 0.48; stroke-linejoin: miter"/>
   </g>
   <g id="patch_20">
    <path d="M 47.088287 222.842975 
C 47.088287 223.713284 46.382763 224.418809 45.512454 224.418809 
C 44.642145 224.418809 43.93662 223.713284 43.93662 222.842975 
C 43.93662 221.972666 44.642145 221.267142 45.512454 221.267142 
C 46.382763 221.267142 47.088287 221.972666 47.088287 222.842975 
" clip-path="url(#p33bb80068d)" style="fill: none; stroke: #ffffff; stroke-width: 0.48; stroke-linejoin: miter"/>
   </g>
   <g id="patch_21">
    <path d="M 61.861727 222.842975 
C 61.861727 223.713284 61.156202 224.418809 60.285893 224.418809 
C 59.415585 224.418809 58.71006 223.713284 58.71006 222.842975 
C 58.71006 221.972666 59.415585 221.267142 60.285893 221.267142 
C 61.156202 221.267142 61.861727 221.972666 61.861727 222.842975 
" clip-path="url(#p33bb80068d)" style="fill: none; stroke: #ffffff; stroke-width: 0.48; stroke-linejoin: miter"/>
   </g>
   <g id="patch_22">
    <path d="M 36.81769 224.812767 
L 36.81769 221.858079 
L 36.297697 221.858079 
L 35.59228 223.913865 
Q 35.489491 224.216186 35.435073 224.387502 
L 35.427011 224.387502 
Q 35.408872 224.298821 35.291974 223.950143 
L 34.592604 221.858079 
L 34.008116 221.858079 
L 34.008116 224.812767 
L 34.378964 224.812767 
L 34.378964 222.299468 
L 34.391057 222.299468 
L 35.237557 224.812767 
L 35.588249 224.812767 
L 36.43878 222.339778 
L 36.446842 222.339778 
L 36.446842 224.812767 
L 36.81769 224.812767 
M 49.293487 224.812767 
L 48.088232 221.858079 
L 47.666998 221.858079 
L 46.532285 224.812767 
L 46.945457 224.812767 
L 47.271964 223.913865 
L 48.505436 223.913865 
L 48.852098 224.812767 
L 49.293487 224.812767 
M 43.394188 223.875571 
L 43.005201 223.776812 
Q 42.918536 224.153706 42.701872 224.341146 
Q 42.485209 224.528585 42.138547 224.528585 
Q 41.715297 224.528585 41.452277 224.228279 
Q 41.189257 223.927973 41.189257 223.311237 
Q 41.189257 222.777136 41.439177 222.459699 
Q 41.689096 222.142261 42.17281 222.142261 
Q 42.469085 222.142261 42.666601 222.297453 
Q 42.864118 222.452645 42.960861 222.761013 
L 43.343801 222.670316 
Q 43.220857 222.247066 42.914505 222.027379 
Q 42.608153 221.807692 42.176841 221.807692 
Q 41.564136 221.807692 41.174141 222.207764 
Q 40.784147 222.607836 40.784147 223.315268 
Q 40.784147 223.954174 41.115693 224.408664 
Q 41.447238 224.863154 42.17281 224.863154 
Q 42.622261 224.863154 42.943729 224.618274 
Q 43.265198 224.373393 43.394188 223.875571 
M 46.48996 224.812767 
L 45.973998 224.008592 
Q 45.714001 223.601466 45.417726 223.47046 
L 45.417726 223.462398 
Q 45.822837 223.40798 46.034462 223.204417 
Q 46.246087 223.000854 46.246087 222.666285 
Q 46.246087 222.480861 46.172522 222.313577 
Q 46.098957 222.146292 45.961905 222.036449 
Q 45.824852 221.926605 45.64346 221.892342 
Q 45.462067 221.858079 45.194008 221.858079 
L 43.885964 221.858079 
L 43.885964 224.812767 
L 44.276967 224.812767 
L 44.276967 223.508754 
L 44.728433 223.508754 
Q 44.899749 223.508754 45.003546 223.538986 
Q 45.107343 223.569218 45.225248 223.683093 
Q 45.343154 223.796967 45.449974 223.95619 
Q 45.556794 224.115412 45.998183 224.812767 
L 46.48996 224.812767 
M 55.015423 224.812767 
L 53.723503 223.055272 
L 54.961006 221.858079 
L 54.432951 221.858079 
L 52.963669 223.32333 
L 52.963669 221.858079 
L 52.572666 221.858079 
L 52.572666 224.812767 
L 52.963669 224.812767 
L 52.963669 223.788905 
L 53.451414 223.319299 
L 54.499462 224.812767 
L 55.015423 224.812767 
M 51.939807 224.812767 
L 51.939807 221.858079 
L 51.566944 221.858079 
L 51.566944 224.177892 
L 51.558882 224.177892 
L 50.015027 221.858079 
L 49.615963 221.858079 
L 49.615963 224.812767 
L 49.986811 224.812767 
L 49.986811 222.492954 
L 49.994873 222.492954 
L 51.538727 224.812767 
L 51.939807 224.812767 
M 37.785118 223.037133 
L 37.944341 222.249082 
L 39.121379 222.249082 
L 39.121379 221.898389 
L 37.656128 221.898389 
L 37.367915 223.418058 
L 37.710546 223.458367 
Q 37.897985 223.174185 38.246662 223.174185 
Q 38.522783 223.174185 38.698129 223.353562 
Q 38.873475 223.53294 38.873475 223.843323 
Q 38.873475 224.14766 38.70216 224.356262 
Q 38.530845 224.564864 38.254724 224.564864 
Q 38.033022 224.564864 37.881861 224.426803 
Q 37.730701 224.288743 37.684345 224.008592 
L 37.305435 224.036809 
Q 37.345745 224.445951 37.615818 224.654552 
Q 37.885892 224.863154 38.254724 224.863154 
Q 38.706191 224.863154 38.984327 224.555794 
Q 39.262462 224.248434 39.262462 223.80906 
Q 39.262462 223.373717 38.988358 223.112713 
Q 38.714253 222.851709 38.345421 222.851709 
Q 38.055192 222.851709 37.785118 223.037133 
M 48.386523 223.603482 
L 47.382816 223.603482 
L 47.713354 222.718688 
Q 47.808081 222.464738 47.864514 222.166447 
L 47.874592 222.166447 
Q 47.931025 222.384118 47.977381 222.514117 
Q 48.023737 222.644115 48.386523 223.603482 
M 44.276967 223.158061 
L 44.276967 222.182571 
L 45.210132 222.182571 
Q 45.548732 222.182571 45.695862 222.323654 
Q 45.842992 222.464738 45.842992 222.666285 
Q 45.842992 222.821477 45.754311 222.946436 
Q 45.66563 223.071396 45.517492 223.114729 
Q 45.369355 223.158061 45.115405 223.158061 
L 44.276967 223.158061 
" clip-path="url(#p33bb80068d)" style="fill: #ff0000"/>
   </g>
   <g id="patch_23">
    <path d="M 115.440068 222.842975 
L 115.893179 221.424657 
L 116.211227 219.928379 
L 116.38046 218.368565 
L 116.388961 216.762041 
L 116.227057 215.127764 
L 115.887687 213.486463 
L 115.366704 211.86024 
L 114.663118 210.2721 
L 113.779247 208.745461 
L 112.720795 207.303626 
L 111.496841 205.969252 
L 110.119735 204.763824 
L 108.604915 203.707148 
L 106.970638 202.816873 
L 105.237634 202.108069 
L 103.428702 201.592858 
L 101.568238 201.280117 
L 99.681733 201.175264 
L 97.795227 201.280117 
L 95.934764 201.592858 
L 94.125831 202.108069 
L 92.392828 202.816873 
L 90.75855 203.707148 
L 89.24373 204.763824 
L 87.866624 205.969252 
L 86.64267 207.303626 
L 85.584219 208.745461 
L 84.700348 210.2721 
L 83.996761 211.86024 
L 83.475779 213.486463 
L 83.136408 215.127764 
L 82.974504 216.762041 
L 82.983005 218.368565 
L 83.152239 219.928379 
L 83.470286 221.424657 
L 83.923397 222.842975 
L 84.496438 224.171516 
L 85.173364 225.401192 
L 85.937693 226.525679 
L 86.772978 227.541378 
L 87.663253 228.447285 
L 88.593448 229.244799 
L 89.549758 229.93746 
L 90.519947 230.530626 
L 91.493595 231.031113 
L 92.462269 231.446797 
L 93.419621 231.786197 
L 94.3614 232.058062 
L 95.285395 232.270953 
L 96.191301 232.432857 
L 97.080519 232.550836 
L 97.955889 232.63072 
L 98.821379 232.676858 
L 99.681733 232.691935 
L 100.542086 232.676858 
L 101.407576 232.63072 
L 102.282946 232.550836 
L 103.172164 232.432857 
L 104.078071 232.270953 
L 105.002066 232.058062 
L 105.943844 231.786197 
L 106.901196 231.446797 
L 107.869871 231.031113 
L 108.843519 230.530626 
L 109.813707 229.93746 
L 110.770017 229.244799 
L 111.700213 228.447285 
L 112.590488 227.541378 
L 113.425772 226.525679 
L 114.190101 225.401192 
L 114.867027 224.171516 
L 115.440068 222.842975 
" clip-path="url(#p33bb80068d)" style="fill: none; stroke: #ffffff; stroke-width: 0.48; stroke-linejoin: miter"/>
   </g>
   <g id="patch_24">
    <path d="M 101.257566 222.842975 
C 101.257566 223.713284 100.552042 224.418809 99.681733 224.418809 
C 98.811424 224.418809 98.105899 223.713284 98.105899 222.842975 
C 98.105899 221.972666 98.811424 221.267142 99.681733 221.267142 
C 100.552042 221.267142 101.257566 221.972666 101.257566 222.842975 
" clip-path="url(#p33bb80068d)" style="fill: none; stroke: #ffffff; stroke-width: 0.48; stroke-linejoin: miter"/>
   </g>
   <g id="patch_25">
    <path d="M 105.571626 224.812767 
L 105.571626 221.858079 
L 105.051633 221.858079 
L 104.346216 223.913865 
Q 104.243427 224.216186 104.189009 224.387502 
L 104.180947 224.387502 
Q 104.162808 224.298821 104.04591 223.950143 
L 103.34654 221.858079 
L 102.762052 221.858079 
L 102.762052 224.812767 
L 103.1329 224.812767 
L 103.1329 222.299468 
L 103.144992 222.299468 
L 103.991492 224.812767 
L 104.342185 224.812767 
L 105.192716 222.339778 
L 105.200778 222.339778 
L 105.200778 224.812767 
L 105.571626 224.812767 
M 92.956761 224.812767 
L 92.956761 221.858079 
L 92.436768 221.858079 
L 91.731351 223.913865 
Q 91.628562 224.216186 91.574144 224.387502 
L 91.566082 224.387502 
Q 91.547943 224.298821 91.431045 223.950143 
L 90.731675 221.858079 
L 90.147187 221.858079 
L 90.147187 224.812767 
L 90.518035 224.812767 
L 90.518035 222.299468 
L 90.530128 222.299468 
L 91.376628 224.812767 
L 91.72732 224.812767 
L 92.577851 222.339778 
L 92.585913 222.339778 
L 92.585913 224.812767 
L 92.956761 224.812767 
M 102.451669 224.812767 
L 101.246414 221.858079 
L 100.825179 221.858079 
L 99.690466 224.812767 
L 100.103639 224.812767 
L 100.430146 223.913865 
L 101.663618 223.913865 
L 102.010279 224.812767 
L 102.451669 224.812767 
M 99.533259 223.875571 
L 99.144272 223.776812 
Q 99.057607 224.153706 98.840943 224.341146 
Q 98.62428 224.528585 98.277618 224.528585 
Q 97.854368 224.528585 97.591348 224.228279 
Q 97.328328 223.927973 97.328328 223.311237 
Q 97.328328 222.777136 97.578247 222.459699 
Q 97.828167 222.142261 98.311881 222.142261 
Q 98.608156 222.142261 98.805672 222.297453 
Q 99.003189 222.452645 99.099932 222.761013 
L 99.482872 222.670316 
Q 99.359928 222.247066 99.053576 222.027379 
Q 98.747224 221.807692 98.315912 221.807692 
Q 97.703207 221.807692 97.313212 222.207764 
Q 96.923218 222.607836 96.923218 223.315268 
Q 96.923218 223.954174 97.254764 224.408664 
Q 97.586309 224.863154 98.311881 224.863154 
Q 98.761332 224.863154 99.0828 224.618274 
Q 99.404269 224.373393 99.533259 223.875571 
M 93.924189 223.037133 
L 94.083412 222.249082 
L 95.26045 222.249082 
L 95.26045 221.898389 
L 93.795199 221.898389 
L 93.506986 223.418058 
L 93.849617 223.458367 
Q 94.037056 223.174185 94.385733 223.174185 
Q 94.661854 223.174185 94.8372 223.353562 
Q 95.012546 223.53294 95.012546 223.843323 
Q 95.012546 224.14766 94.841231 224.356262 
Q 94.669915 224.564864 94.393795 224.564864 
Q 94.172093 224.564864 94.020932 224.426803 
Q 93.869771 224.288743 93.823416 224.008592 
L 93.444506 224.036809 
Q 93.484816 224.445951 93.754889 224.654552 
Q 94.024963 224.863154 94.393795 224.863154 
Q 94.845262 224.863154 95.123398 224.555794 
Q 95.401533 224.248434 95.401533 223.80906 
Q 95.401533 223.373717 95.127429 223.112713 
Q 94.853324 222.851709 94.484492 222.851709 
Q 94.194263 222.851709 93.924189 223.037133 
M 101.544704 223.603482 
L 100.540997 223.603482 
L 100.871535 222.718688 
Q 100.966263 222.464738 101.022696 222.166447 
L 101.032773 222.166447 
Q 101.089207 222.384118 101.135563 222.514117 
Q 101.181919 222.644115 101.544704 223.603482 
" clip-path="url(#p33bb80068d)" style="fill: #ff0000"/>
   </g>
   <g id="patch_26">
    <path d="M 129.228612 228.752351 
L 217.86925 228.752351 
L 217.86925 216.933599 
L 129.228612 216.933599 
L 129.228612 228.752351 
" clip-path="url(#p33bb80068d)" style="fill: none; stroke: #ffffff; stroke-width: 0.48; stroke-linejoin: miter"/>
   </g>
   <g id="patch_27">
    <path d="M 214.422115 222.842975 
C 214.422115 223.65889 213.760685 224.320319 212.944771 224.320319 
C 212.128856 224.320319 211.467427 223.65889 211.467427 222.842975 
C 211.467427 222.027061 212.128856 221.365631 212.944771 221.365631 
C 213.760685 221.365631 214.422115 222.027061 214.422115 222.842975 
" clip-path="url(#p33bb80068d)" style="fill: none; stroke: #ffffff; stroke-width: 0.48; stroke-linejoin: miter"/>
   </g>
   <g id="patch_28">
    <path d="M 161.529976 224.779176 
Q 161.110757 224.779176 160.848073 225.057983 
Q 160.585389 225.336791 160.585389 225.821849 
Q 160.585389 226.238381 160.844714 226.527265 
Q 161.104038 226.81615 161.529976 226.81615 
Q 161.941133 226.81615 162.205832 226.537343 
Q 162.470531 226.258535 162.470531 225.80035 
Q 162.470531 225.340822 162.207176 225.059999 
Q 161.94382 224.779176 161.529976 224.779176 
M 160.324721 225.046562 
L 160.324721 224.812767 
L 158.99585 224.812767 
L 158.99585 226.782559 
L 159.256519 226.782559 
L 159.256519 225.890375 
L 160.182294 225.890375 
L 160.182294 225.65658 
L 159.256519 225.65658 
L 159.256519 225.046562 
L 160.324721 225.046562 
M 164.035884 226.782559 
L 164.035884 226.548764 
L 163.064425 226.548764 
L 163.064425 224.812767 
L 162.803756 224.812767 
L 162.803756 226.782559 
L 164.035884 226.782559 
M 161.527288 226.593104 
Q 161.228998 226.593104 161.04223 226.381479 
Q 160.855463 226.169854 160.855463 225.827223 
Q 160.855463 225.408004 161.046261 225.205113 
Q 161.23706 225.002222 161.532663 225.002222 
Q 161.820204 225.002222 162.010331 225.209144 
Q 162.200457 225.416066 162.200457 225.80035 
Q 162.199114 226.173885 162.013018 226.383495 
Q 161.826922 226.593104 161.527288 226.593104 
" clip-path="url(#p33bb80068d)" style="fill: #ff0000"/>
   </g>
   <g id="patch_29">
    <path d="M 225.748418 229.737247 
L 294.691137 229.737247 
L 294.691137 215.948703 
L 225.748418 215.948703 
L 225.748418 229.737247 
" clip-path="url(#p33bb80068d)" style="fill: none; stroke: #ffffff; stroke-width: 0.48; stroke-linejoin: miter"/>
   </g>
   <g id="patch_30">
    <path d="M 235.20342 222.842975 
C 235.20342 223.713284 234.497895 224.418809 233.627586 224.418809 
C 232.757277 224.418809 232.051753 223.713284 232.051753 222.842975 
C 232.051753 221.972666 232.757277 221.267142 233.627586 221.267142 
C 234.497895 221.267142 235.20342 221.972666 235.20342 222.842975 
" clip-path="url(#p33bb80068d)" style="fill: none; stroke: #ffffff; stroke-width: 0.48; stroke-linejoin: miter"/>
   </g>
   <g id="patch_31">
    <path d="M 289.766657 222.842975 
C 289.766657 224.474804 288.443798 225.797663 286.811969 225.797663 
C 285.18014 225.797663 283.857281 224.474804 283.857281 222.842975 
C 283.857281 221.211146 285.18014 219.888287 286.811969 219.888287 
C 288.443798 219.888287 289.766657 221.211146 289.766657 222.842975 
" clip-path="url(#p33bb80068d)" style="fill: none; stroke: #ffffff; stroke-width: 0.48; stroke-linejoin: miter"/>
   </g>
   <g id="patch_32">
    <path d="M 245.559205 227.767455 
L 245.559205 225.797663 
L 245.212543 225.797663 
L 244.742265 227.168187 
Q 244.673739 227.369735 244.63746 227.483945 
L 244.632086 227.483945 
Q 244.619993 227.424824 244.542061 227.192373 
L 244.075814 225.797663 
L 243.686156 225.797663 
L 243.686156 227.767455 
L 243.933387 227.767455 
L 243.933387 226.091923 
L 243.941449 226.091923 
L 244.505782 227.767455 
L 244.739578 227.767455 
L 245.306598 226.118796 
L 245.311973 226.118796 
L 245.311973 227.767455 
L 245.559205 227.767455 
M 251.889143 227.767455 
L 251.08564 225.797663 
L 250.804817 225.797663 
L 250.048342 227.767455 
L 250.32379 227.767455 
L 250.541462 227.168187 
L 251.363776 227.168187 
L 251.594884 227.767455 
L 251.889143 227.767455 
M 254.094074 225.797663 
L 254.094074 227.767455 
L 254.803522 227.767455 
Q 255.308734 227.767455 255.515657 227.487304 
Q 255.722579 227.207153 255.722579 226.77181 
Q 255.722579 226.543389 255.672192 226.382823 
Q 255.621805 226.222257 255.533796 226.098641 
Q 255.445787 225.975025 255.328217 225.904483 
Q 255.210648 225.833942 255.081657 225.815802 
Q 254.952667 225.797663 254.773961 225.797663 
L 254.094074 225.797663 
M 253.653357 227.767455 
L 253.653357 225.797663 
L 253.404781 225.797663 
L 253.404781 227.344205 
L 253.399407 227.344205 
L 252.37017 225.797663 
L 252.104127 225.797663 
L 252.104127 227.767455 
L 252.351359 227.767455 
L 252.351359 226.220913 
L 252.356734 226.220913 
L 253.38597 227.767455 
L 253.653357 227.767455 
M 249.83067 227.767455 
L 249.83067 225.797663 
L 249.568658 225.797663 
L 249.568658 226.606541 
L 248.544797 226.606541 
L 248.544797 225.797663 
L 248.284128 225.797663 
L 248.284128 227.767455 
L 248.544797 227.767455 
L 248.544797 226.840336 
L 249.568658 226.840336 
L 249.568658 227.767455 
L 249.83067 227.767455 
M 259.080362 227.767455 
L 259.080362 227.53366 
L 257.869733 227.53366 
L 257.869733 226.867209 
L 258.959433 226.867209 
L 258.959433 226.633414 
L 257.869733 226.633414 
L 257.869733 226.031458 
L 259.034678 226.031458 
L 259.034678 225.797663 
L 257.609064 225.797663 
L 257.609064 227.767455 
L 259.080362 227.767455 
M 246.204157 226.583699 
L 246.310305 226.058331 
L 247.094997 226.058331 
L 247.094997 225.824536 
L 246.118163 225.824536 
L 245.926021 226.837649 
L 246.154442 226.864522 
Q 246.279401 226.675067 246.511853 226.675067 
Q 246.695933 226.675067 246.812831 226.794652 
Q 246.929728 226.914237 246.929728 227.121159 
Q 246.929728 227.32405 246.815518 227.463118 
Q 246.701308 227.602186 246.517228 227.602186 
Q 246.369426 227.602186 246.268652 227.510146 
Q 246.167878 227.418106 246.136974 227.231338 
L 245.884368 227.25015 
Q 245.911241 227.522911 246.09129 227.661979 
Q 246.27134 227.801046 246.517228 227.801046 
Q 246.818205 227.801046 247.003629 227.59614 
Q 247.189053 227.391233 247.189053 227.098317 
Q 247.189053 226.808088 247.006316 226.634086 
Q 246.82358 226.460083 246.577692 226.460083 
Q 246.384206 226.460083 246.204157 226.583699 
M 257.300025 227.767455 
L 257.300025 227.53366 
L 256.328565 227.53366 
L 256.328565 225.797663 
L 256.067897 225.797663 
L 256.067897 227.767455 
L 257.300025 227.767455 
M 251.2845 226.961265 
L 250.615362 226.961265 
L 250.835721 226.371402 
Q 250.898873 226.202102 250.936495 226.003242 
L 250.943213 226.003242 
Q 250.980835 226.148356 251.011739 226.235021 
Q 251.042643 226.321687 251.2845 226.961265 
M 254.354742 227.53366 
L 254.354742 226.031458 
L 254.768587 226.031458 
Q 254.904295 226.031458 254.990961 226.042208 
Q 255.077626 226.052957 255.168995 226.102 
Q 255.260363 226.151043 255.330905 226.25652 
Q 255.401446 226.361996 255.427647 226.490315 
Q 255.453849 226.618634 255.453849 226.766435 
Q 255.453849 227.033822 255.385322 227.196404 
Q 255.316796 227.358985 255.212663 227.430199 
Q 255.10853 227.501412 255.007085 227.517536 
Q 254.905639 227.53366 254.776649 227.53366 
L 254.354742 227.53366 
" clip-path="url(#p33bb80068d)" style="fill: #ff0000"/>
   </g>
   <g id="patch_33">
    <path d="M 20.890054 255.344543 
L 119.379652 255.344543 
L 119.379652 334.136221 
L 114.455172 334.136221 
L 114.455172 337.090909 
L 104.606213 337.090909 
L 104.606213 334.136221 
L 35.663494 334.136221 
L 35.663494 337.090909 
L 25.814534 337.090909 
L 25.814534 334.136221 
L 20.890054 334.136221 
L 20.890054 255.344543 
" clip-path="url(#p33bb80068d)" style="fill: none; stroke: #ffffff; stroke-width: 0.48; stroke-linejoin: miter"/>
   </g>
   <g id="patch_34">
    <path d="M 67.721858 331.673981 
L 72.547848 331.673981 
L 72.547848 316.900541 
L 67.721858 316.900541 
L 67.721858 331.673981 
" clip-path="url(#p33bb80068d)" style="fill: none; stroke: #ffffff; stroke-width: 0.48; stroke-linejoin: miter"/>
   </g>
   <g id="patch_35">
    <path d="M 28.938522 265.193502 
L 28.938522 262.238814 
L 28.418529 262.238814 
L 27.713113 264.2946 
Q 27.610323 264.596922 27.555905 264.768237 
L 27.547843 264.768237 
Q 27.529704 264.679556 27.412807 264.330879 
L 26.713436 262.238814 
L 26.128948 262.238814 
L 26.128948 265.193502 
L 26.499796 265.193502 
L 26.499796 262.680204 
L 26.511889 262.680204 
L 27.358389 265.193502 
L 27.709082 265.193502 
L 28.559612 262.720513 
L 28.567674 262.720513 
L 28.567674 265.193502 
L 28.938522 265.193502 
M 53.573686 265.193502 
L 52.368432 262.238814 
L 51.947197 262.238814 
L 50.812484 265.193502 
L 51.225657 265.193502 
L 51.552164 264.2946 
L 52.785635 264.2946 
L 53.132297 265.193502 
L 53.573686 265.193502 
M 38.268161 264.256306 
L 37.879174 264.157548 
Q 37.792508 264.534442 37.575845 264.721881 
Q 37.359181 264.90932 37.012519 264.90932 
Q 36.589269 264.90932 36.32625 264.609014 
Q 36.06323 264.308708 36.06323 263.691973 
Q 36.06323 263.157872 36.313149 262.840434 
Q 36.563068 262.522997 37.046782 262.522997 
Q 37.343057 262.522997 37.540574 262.678188 
Q 37.738091 262.83338 37.834833 263.141748 
L 38.217774 263.051051 
Q 38.09483 262.627801 37.788477 262.408114 
Q 37.482125 262.188428 37.050813 262.188428 
Q 36.438109 262.188428 36.048114 262.5885 
Q 35.658119 262.988572 35.658119 263.696004 
Q 35.658119 264.33491 35.989665 264.789399 
Q 36.321211 265.243889 37.046782 265.243889 
Q 37.496233 265.243889 37.817702 264.999009 
Q 38.13917 264.754129 38.268161 264.256306 
M 34.767279 263.105469 
L 35.142157 263.075237 
Q 35.124018 262.649972 34.82472 262.4192 
Q 34.525422 262.188428 34.033646 262.188428 
Q 33.553962 262.188428 33.275827 262.420207 
Q 32.997691 262.651987 32.997691 263.006711 
Q 32.997691 263.31911 33.217378 263.514611 
Q 33.437065 263.710112 33.935895 263.81794 
Q 34.434725 263.925768 34.64635 264.036619 
Q 34.857975 264.14747 34.857975 264.389327 
Q 34.857975 264.621107 34.65542 264.756144 
Q 34.452865 264.891181 34.124342 264.891181 
Q 33.773649 264.891181 33.525746 264.728935 
Q 33.277842 264.566689 33.251641 264.211966 
L 32.880793 264.244213 
Q 32.898933 264.687618 33.208308 264.965754 
Q 33.517684 265.243889 34.140466 265.243889 
Q 34.628211 265.243889 34.93154 264.991955 
Q 35.234869 264.74002 35.234869 264.359095 
Q 35.234869 264.058789 35.0696 263.88042 
Q 34.904331 263.70205 34.672551 263.6174 
Q 34.440772 263.53275 34.073955 263.452131 
Q 33.660782 263.359419 33.51466 263.2657 
Q 33.368538 263.17198 33.368538 262.98051 
Q 33.368538 262.764854 33.557993 262.651987 
Q 33.747448 262.53912 34.049769 262.53912 
Q 34.384338 262.53912 34.563716 262.681211 
Q 34.743093 262.823303 34.767279 263.105469 
M 43.83289 265.193502 
L 43.83289 262.238814 
L 43.460027 262.238814 
L 43.460027 264.558627 
L 43.451965 264.558627 
L 41.908111 262.238814 
L 41.509046 262.238814 
L 41.509046 265.193502 
L 41.879894 265.193502 
L 41.879894 262.873689 
L 41.887956 262.873689 
L 43.431811 265.193502 
L 43.83289 265.193502 
M 56.220006 265.193502 
L 56.220006 262.238814 
L 55.847143 262.238814 
L 55.847143 264.558627 
L 55.839081 264.558627 
L 54.295227 262.238814 
L 53.896162 262.238814 
L 53.896162 265.193502 
L 54.26701 265.193502 
L 54.26701 262.873689 
L 54.275072 262.873689 
L 55.818927 265.193502 
L 56.220006 265.193502 
M 48.38182 262.238814 
L 48.38182 265.193502 
L 48.772822 265.193502 
L 48.772822 263.99631 
L 49.528626 263.99631 
Q 50.109083 263.99631 50.372102 263.749414 
Q 50.635122 263.502518 50.635122 263.093376 
Q 50.635122 262.887798 50.55148 262.699351 
Q 50.467838 262.510904 50.304584 262.40106 
Q 50.14133 262.291217 49.950868 262.265016 
Q 49.760405 262.238814 49.496378 262.238814 
L 48.38182 262.238814 
M 59.083998 265.193502 
L 59.083998 264.84281 
L 57.268054 264.84281 
L 57.268054 263.843133 
L 58.902605 263.843133 
L 58.902605 263.492441 
L 57.268054 263.492441 
L 57.268054 262.589507 
L 59.015472 262.589507 
L 59.015472 262.238814 
L 56.877052 262.238814 
L 56.877052 265.193502 
L 59.083998 265.193502 
M 40.962852 265.193502 
L 40.962852 264.84281 
L 39.146908 264.84281 
L 39.146908 263.843133 
L 40.781459 263.843133 
L 40.781459 263.492441 
L 39.146908 263.492441 
L 39.146908 262.589507 
L 40.894326 262.589507 
L 40.894326 262.238814 
L 38.755906 262.238814 
L 38.755906 265.193502 
L 40.962852 265.193502 
M 46.696882 265.193502 
L 46.696882 264.84281 
L 44.880938 264.84281 
L 44.880938 263.843133 
L 46.515489 263.843133 
L 46.515489 263.492441 
L 44.880938 263.492441 
L 44.880938 262.589507 
L 46.628356 262.589507 
L 46.628356 262.238814 
L 44.489935 262.238814 
L 44.489935 265.193502 
L 46.696882 265.193502 
M 29.905951 263.417868 
L 30.065173 262.629817 
L 31.242211 262.629817 
L 31.242211 262.279124 
L 29.77696 262.279124 
L 29.488747 263.798793 
L 29.831378 263.839102 
Q 30.018817 263.55492 30.367495 263.55492 
Q 30.643615 263.55492 30.818961 263.734298 
Q 30.994308 263.913675 30.994308 264.224058 
Q 30.994308 264.528395 30.822992 264.736997 
Q 30.651677 264.945599 30.375556 264.945599 
Q 30.153854 264.945599 30.002693 264.807539 
Q 29.851533 264.669479 29.805177 264.389327 
L 29.426267 264.417544 
Q 29.466577 264.826686 29.736651 265.035288 
Q 30.006724 265.243889 30.375556 265.243889 
Q 30.827023 265.243889 31.105159 264.936529 
Q 31.383294 264.629169 31.383294 264.189795 
Q 31.383294 263.754452 31.10919 263.493448 
Q 30.835085 263.232444 30.466253 263.232444 
Q 30.176024 263.232444 29.905951 263.417868 
M 61.46226 265.193502 
L 61.46226 264.84281 
L 60.00507 264.84281 
L 60.00507 262.238814 
L 59.614068 262.238814 
L 59.614068 265.193502 
L 61.46226 265.193502 
M 52.666722 263.984217 
L 51.663015 263.984217 
L 51.993553 263.099423 
Q 52.08828 262.845473 52.144714 262.547182 
L 52.154791 262.547182 
Q 52.211224 262.764854 52.25758 262.894852 
Q 52.303936 263.02485 52.666722 263.984217 
M 48.772822 263.645617 
L 48.772822 262.589507 
L 49.524595 262.589507 
Q 49.784591 262.589507 49.916605 262.622763 
Q 50.048619 262.656018 50.139315 262.792063 
Q 50.230011 262.928107 50.230011 263.105469 
Q 50.230011 263.645617 49.532657 263.645617 
L 48.772822 263.645617 
" clip-path="url(#p33bb80068d)" style="fill: #ff0000"/>
   </g>
  </g>
 </g>
 <defs>
  <clipPath id="p33bb80068d">
   <rect x="7.2" y="7.2" width="301.181191" height="345.6"/>
  </clipPath>
 </defs>
</svg>
