<?xml version="1.0" encoding="utf-8" standalone="no"?>
<!DOCTYPE svg PUBLIC "-//W3C//DTD SVG 1.1//EN"
  "http://www.w3.org/Graphics/SVG/1.1/DTD/svg11.dtd">
<svg xmlns:xlink="http://www.w3.org/1999/xlink" width="303.163926pt" height="360pt" viewBox="0 0 303.163926 360" xmlns="http://www.w3.org/2000/svg" version="1.1">
 <metadata>
  <rdf:RDF xmlns:dc="http://purl.org/dc/elements/1.1/" xmlns:cc="http://creativecommons.org/ns#" xmlns:rdf="http://www.w3.org/1999/02/22-rdf-syntax-ns#">
   <cc:Work>
    <dc:type rdf:resource="http://purl.org/dc/dcmitype/StillImage"/>
    <dc:date>2026-03-20T00:31:32.386684</dc:date>
    <dc:format>image/svg+xml</dc:format>
    <dc:creator>
     <cc:Agent>
      <dc:title>Matplotlib v3.10.8, https://matplotlib.org/</dc:title>
     </cc:Agent>
    </dc:creator>
   </cc:Work>
  </rdf:RDF>
 </metadata>
 <defs>
  <style type="text/css">*{stroke-linejoin: round; stroke-linecap: butt}</style>
 </defs>
 <g id="figure_1">
  <g id="patch_1">
   <path d="M 0 360 
L 303.163926 360 
L 303.163926 0 
L 0 0 
z
" style="fill: #1a1a2e"/>
  </g>
  <g id="axes_1">
   <g id="patch_2">
    <path d="M 7.2 352.8 
L 295.963926 352.8 
L 295.963926 7.2 
L 7.2 7.2 
z
" style="fill: #1a1a2e"/>
   </g>
   <g id="patch_3">
    <path d="M 20.325633 231.252472 
L 187.000338 231.252472 
L 187.000338 106.246443 
L 20.325633 106.246443 
L 20.325633 231.252472 
" clip-path="url(#p2ee13bf694)" style="fill: none; stroke: #ffffff; stroke-width: 0.48; stroke-linejoin: miter"/>
   </g>
   <g id="patch_4">
    <path d="M 27.135875 112.913431 
L 27.135875 110.413311 
L 26.695881 110.413311 
L 26.09899 112.152822 
Q 26.012015 112.408632 25.965969 112.553591 
L 25.959147 112.553591 
Q 25.943798 112.478554 25.844885 112.183519 
L 25.25311 110.413311 
L 24.758543 110.413311 
L 24.758543 112.913431 
L 25.072338 112.913431 
L 25.072338 110.786794 
L 25.08257 110.786794 
L 25.798839 112.913431 
L 26.095579 112.913431 
L 26.815259 110.820902 
L 26.822081 110.820902 
L 26.822081 112.913431 
L 27.135875 112.913431 
M 34.977317 112.913431 
L 33.957486 110.413311 
L 33.601057 110.413311 
L 32.640915 112.913431 
L 32.990523 112.913431 
L 33.266798 112.152822 
L 34.310505 112.152822 
L 34.603834 112.913431 
L 34.977317 112.913431 
M 36.727061 111.146634 
L 37.044266 111.121053 
Q 37.028917 110.761213 36.775665 110.565944 
Q 36.522412 110.370676 36.106294 110.370676 
Q 35.700408 110.370676 35.465063 110.566797 
Q 35.229717 110.762918 35.229717 111.063069 
Q 35.229717 111.327407 35.415606 111.492831 
Q 35.601495 111.658255 36.023582 111.749494 
Q 36.445669 111.840733 36.624736 111.93453 
Q 36.803804 112.028327 36.803804 112.232976 
Q 36.803804 112.429097 36.632411 112.543359 
Q 36.461018 112.657621 36.183037 112.657621 
Q 35.886297 112.657621 35.676532 112.520336 
Q 35.466768 112.383051 35.444598 112.0829 
L 35.130804 112.110187 
Q 35.146152 112.485375 35.407932 112.720721 
Q 35.669711 112.956066 36.19668 112.956066 
Q 36.609388 112.956066 36.866051 112.742891 
Q 37.122714 112.529716 37.122714 112.207395 
Q 37.122714 111.95329 36.982871 111.802361 
Q 36.843028 111.651433 36.646907 111.579806 
Q 36.450785 111.508179 36.140402 111.439963 
Q 35.790794 111.361515 35.667153 111.282214 
Q 35.543511 111.202912 35.543511 111.040899 
Q 35.543511 110.858421 35.703819 110.762918 
Q 35.864127 110.667416 36.119937 110.667416 
Q 36.403034 110.667416 36.554815 110.787647 
Q 36.706596 110.907878 36.727061 111.146634 
M 31.994568 111.583217 
Q 32.168519 111.492831 32.254642 111.35384 
Q 32.340764 111.21485 32.340764 111.051131 
Q 32.340764 110.808964 32.154023 110.611138 
Q 31.967281 110.413311 31.511939 110.413311 
L 30.573967 110.413311 
L 30.573967 112.913431 
L 31.530698 112.913431 
Q 31.863252 112.913431 32.057668 112.830719 
Q 32.252084 112.748007 32.357819 112.572351 
Q 32.463553 112.396694 32.463553 112.18693 
Q 32.463553 111.977165 32.346733 111.816005 
Q 32.229913 111.654844 31.994568 111.583217 
M 39.447178 112.913431 
L 39.447178 112.616691 
L 37.91061 112.616691 
L 37.91061 111.770811 
L 39.293692 111.770811 
L 39.293692 111.474071 
L 37.91061 111.474071 
L 37.91061 110.710051 
L 39.389194 110.710051 
L 39.389194 110.413311 
L 37.579762 110.413311 
L 37.579762 112.913431 
L 39.447178 112.913431 
M 27.858966 111.624147 
L 27.852144 111.624147 
Q 27.852144 111.121053 28.020979 110.887413 
Q 28.189814 110.653773 28.42516 110.653773 
Q 28.764535 110.653773 28.848099 111.051131 
L 29.155072 111.023845 
Q 29.112437 110.715167 28.918021 110.55827 
Q 28.723605 110.401373 28.442214 110.401373 
Q 28.007336 110.401373 27.777959 110.73819 
Q 27.548582 111.075007 27.548582 111.743525 
Q 27.548582 112.423981 27.801835 112.690024 
Q 28.055087 112.956066 28.414927 112.956066 
Q 28.769651 112.956066 28.983679 112.706225 
Q 29.197707 112.456383 29.197707 112.099954 
Q 29.197707 111.746936 28.982826 111.520117 
Q 28.767946 111.293299 28.460973 111.293299 
Q 28.070436 111.293299 27.858966 111.624147 
M 34.209886 111.89019 
L 33.360595 111.89019 
L 33.640281 111.141518 
Q 33.720435 110.926637 33.768187 110.674237 
L 33.776714 110.674237 
Q 33.824465 110.858421 33.863689 110.968419 
Q 33.902913 111.078418 34.209886 111.89019 
M 30.904815 112.616691 
L 30.904815 111.757168 
L 31.484652 111.757168 
Q 31.844492 111.757168 31.98263 111.870578 
Q 32.120768 111.983987 32.120768 112.18693 
Q 32.120768 112.388167 31.991157 112.502429 
Q 31.861546 112.616691 31.527287 112.616691 
L 30.904815 112.616691 
M 30.904815 111.460428 
L 30.904815 110.710051 
L 31.404498 110.710051 
Q 31.595503 110.710051 31.71744 110.72881 
Q 31.839376 110.74757 31.927204 110.831987 
Q 32.015033 110.916405 32.015033 111.093767 
Q 32.015033 111.262601 31.928057 111.342755 
Q 31.841081 111.422909 31.727672 111.441669 
Q 31.614263 111.460428 31.447133 111.460428 
L 30.904815 111.460428 
M 28.408106 112.703667 
Q 28.189814 112.703667 28.045707 112.52801 
Q 27.901601 112.352354 27.901601 112.103365 
Q 27.901601 111.859492 28.048266 111.71027 
Q 28.19493 111.561047 28.397873 111.561047 
Q 28.619575 111.561047 28.750892 111.719649 
Q 28.882208 111.878252 28.882208 112.120419 
Q 28.882208 112.362586 28.750892 112.533127 
Q 28.619575 112.703667 28.408106 112.703667 
" clip-path="url(#p2ee13bf694)" style="fill: #ff0000"/>
   </g>
   <g id="patch_5">
    <path d="M 94.120858 189.583796 
L 96.537642 189.583796 
L 96.537642 181.25006 
L 94.120858 181.25006 
L 94.120858 189.583796 
" clip-path="url(#p2ee13bf694)" style="fill: none; stroke: #ffffff; stroke-width: 0.48; stroke-linejoin: miter"/>
   </g>
   <g id="patch_6">
    <path d="M 94.120858 156.248855 
L 96.537642 156.248855 
L 96.537642 147.915119 
L 94.120858 147.915119 
L 94.120858 156.248855 
" clip-path="url(#p2ee13bf694)" style="fill: none; stroke: #ffffff; stroke-width: 0.48; stroke-linejoin: miter"/>
   </g>
   <g id="patch_7">
    <path d="M 110.788329 189.583796 
L 113.205112 189.583796 
L 113.205112 181.25006 
L 110.788329 181.25006 
L 110.788329 189.583796 
" clip-path="url(#p2ee13bf694)" style="fill: none; stroke: #ffffff; stroke-width: 0.48; stroke-linejoin: miter"/>
   </g>
   <g id="patch_8">
    <path d="M 110.788329 156.248855 
L 113.205112 156.248855 
L 113.205112 147.915119 
L 110.788329 147.915119 
L 110.788329 156.248855 
" clip-path="url(#p2ee13bf694)" style="fill: none; stroke: #ffffff; stroke-width: 0.48; stroke-linejoin: miter"/>
   </g>
   <g id="patch_9">
    <path d="M 49.493706 168.749457 
C 49.493706 171.050755 47.628136 172.916325 45.326839 172.916325 
C 43.025541 172.916325 41.159971 171.050755 41.159971 168.749457 
C 41.159971 166.44816 43.025541 164.58259 45.326839 164.58259 
C 47.628136 164.58259 49.493706 166.44816 49.493706 168.749457 
" clip-path="url(#p2ee13bf694)" style="fill: none; stroke: #ffffff; stroke-width: 0.48; stroke-linejoin: miter"/>
   </g>
   <g id="patch_10">
    <path d="M 70.328044 168.749457 
C 70.328044 171.050755 68.462474 172.916325 66.161177 172.916325 
C 63.859879 172.916325 61.994309 171.050755 61.994309 168.749457 
C 61.994309 166.44816 63.859879 164.58259 66.161177 164.58259 
C 68.462474 164.58259 70.328044 166.44816 70.328044 168.749457 
" clip-path="url(#p2ee13bf694)" style="fill: none; stroke: #ffffff; stroke-width: 0.48; stroke-linejoin: miter"/>
   </g>
   <g id="patch_11">
    <path d="M 163.33253 206.251266 
C 163.33253 206.987681 162.735547 207.584664 161.999132 207.584664 
C 161.262717 207.584664 160.665734 206.987681 160.665734 206.251266 
C 160.665734 205.514851 161.262717 204.917868 161.999132 204.917868 
C 162.735547 204.917868 163.33253 205.514851 163.33253 206.251266 
" clip-path="url(#p2ee13bf694)" style="fill: none; stroke: #ffffff; stroke-width: 0.48; stroke-linejoin: miter"/>
   </g>
   <g id="patch_12">
    <path d="M 193.667326 231.252472 
L 227.002267 231.252472 
L 227.002267 22.909091 
L 193.667326 22.909091 
L 193.667326 231.252472 
" clip-path="url(#p2ee13bf694)" style="fill: none; stroke: #ffffff; stroke-width: 0.48; stroke-linejoin: miter"/>
   </g>
   <g id="patch_13">
    <path d="M 197.834193 233.752592 
L 206.167929 233.752592 
L 206.167929 231.252472 
L 197.834193 231.252472 
L 197.834193 233.752592 
" clip-path="url(#p2ee13bf694)" style="fill: none; stroke: #ffffff; stroke-width: 0.48; stroke-linejoin: miter"/>
   </g>
   <g id="patch_14">
    <path d="M 214.501664 233.752592 
L 222.835399 233.752592 
L 222.835399 231.252472 
L 214.501664 231.252472 
L 214.501664 233.752592 
" clip-path="url(#p2ee13bf694)" style="fill: none; stroke: #ffffff; stroke-width: 0.48; stroke-linejoin: miter"/>
   </g>
   <g id="patch_15">
    <path d="M 206.167929 32.451218 
L 214.501664 32.451218 
L 214.501664 30.034435 
L 206.167929 30.034435 
L 206.167929 32.451218 
" clip-path="url(#p2ee13bf694)" style="fill: none; stroke: #ffffff; stroke-width: 0.48; stroke-linejoin: miter"/>
   </g>
   <g id="patch_16">
    <path d="M 206.167929 165.790981 
L 214.501664 165.790981 
L 214.501664 163.374198 
L 206.167929 163.374198 
L 206.167929 165.790981 
" clip-path="url(#p2ee13bf694)" style="fill: none; stroke: #ffffff; stroke-width: 0.48; stroke-linejoin: miter"/>
   </g>
   <g id="patch_17">
    <path d="M 206.167929 99.1211 
L 214.501664 99.1211 
L 214.501664 96.704316 
L 206.167929 96.704316 
L 206.167929 99.1211 
" clip-path="url(#p2ee13bf694)" style="fill: none; stroke: #ffffff; stroke-width: 0.48; stroke-linejoin: miter"/>
   </g>
   <g id="patch_18">
    <path d="M 212.001543 43.743429 
C 212.001543 44.663948 211.255315 45.410176 210.334796 45.410176 
C 209.414277 45.410176 208.668049 44.663948 208.668049 43.743429 
C 208.668049 42.82291 209.414277 42.076682 210.334796 42.076682 
C 211.255315 42.076682 212.001543 42.82291 212.001543 43.743429 
" clip-path="url(#p2ee13bf694)" style="fill: none; stroke: #ffffff; stroke-width: 0.48; stroke-linejoin: miter"/>
   </g>
   <g id="patch_19">
    <path d="M 202.810559 29.576079 
L 202.588857 29.576079 
L 202.326224 30.647072 
Q 202.270515 30.874459 202.246639 31.009754 
L 202.242091 31.009754 
Q 202.202299 30.732342 202.113618 30.418548 
L 201.877135 29.576079 
L 201.608818 29.576079 
L 201.291613 30.700508 
Q 201.265464 30.793737 201.219987 31.009754 
L 201.215439 31.009754 
Q 201.215439 31.006344 201.213165 30.985879 
Q 201.199522 30.884692 201.14836 30.669811 
L 200.891412 29.576079 
L 200.666299 29.576079 
L 201.110841 31.242826 
L 201.33368 31.242826 
L 201.688404 29.974006 
L 201.735018 29.77618 
L 201.739566 29.77618 
Q 201.747524 29.828479 201.775948 29.929666 
L 202.139767 31.242826 
L 202.351237 31.242826 
L 202.810559 29.576079 
M 197.096322 31.242826 
L 197.096322 29.576079 
L 196.802993 29.576079 
L 196.405066 30.735753 
Q 196.347082 30.906293 196.316385 31.002933 
L 196.311837 31.002933 
Q 196.301605 30.952908 196.235662 30.756218 
L 195.841146 29.576079 
L 195.511435 29.576079 
L 195.511435 31.242826 
L 195.720631 31.242826 
L 195.720631 29.825068 
L 195.727452 29.825068 
L 196.204965 31.242826 
L 196.402792 31.242826 
L 196.882579 29.847807 
L 196.887126 29.847807 
L 196.887126 31.242826 
L 197.096322 31.242826 
M 204.490949 31.242826 
L 204.199894 30.789189 
Q 204.053229 30.559528 203.8861 30.485627 
L 203.8861 30.48108 
Q 204.114624 30.450382 204.234002 30.335552 
Q 204.35338 30.220721 204.35338 30.03199 
Q 204.35338 29.927392 204.311882 29.833026 
Q 204.270384 29.738661 204.193072 29.676698 
Q 204.115761 29.614735 204.013436 29.595407 
Q 203.911112 29.576079 203.7599 29.576079 
L 203.022029 29.576079 
L 203.022029 31.242826 
L 203.242594 31.242826 
L 203.242594 30.507229 
L 203.497268 30.507229 
Q 203.593907 30.507229 203.652459 30.524283 
Q 203.711012 30.541337 203.777522 30.605574 
Q 203.844033 30.669811 203.904291 30.759629 
Q 203.964548 30.849447 204.213537 31.242826 
L 204.490949 31.242826 
M 200.586714 29.773906 
L 200.586714 29.576079 
L 199.266732 29.576079 
L 199.266732 29.773906 
L 199.813598 29.773906 
L 199.813598 31.242826 
L 200.0353 31.242826 
L 200.0353 29.773906 
L 200.586714 29.773906 
M 197.578383 30.383303 
L 197.573835 30.383303 
Q 197.573835 30.047907 197.686392 29.892147 
Q 197.798948 29.736387 197.955845 29.736387 
Q 198.182096 29.736387 198.237805 30.001293 
L 198.442454 29.983102 
Q 198.41403 29.777317 198.28442 29.672719 
Q 198.154809 29.568121 197.967215 29.568121 
Q 197.677296 29.568121 197.524379 29.792665 
Q 197.371461 30.01721 197.371461 30.462889 
Q 197.371461 30.916526 197.540296 31.093888 
Q 197.709131 31.27125 197.949024 31.27125 
Q 198.185506 31.27125 198.328192 31.104689 
Q 198.470877 30.938127 198.470877 30.700508 
Q 198.470877 30.465162 198.327623 30.31395 
Q 198.184369 30.162738 197.979721 30.162738 
Q 197.719363 30.162738 197.578383 30.383303 
M 206.381672 31.242826 
L 206.381672 31.044999 
L 205.559668 31.044999 
L 205.559668 29.576079 
L 205.339103 29.576079 
L 205.339103 31.242826 
L 206.381672 31.242826 
M 203.242594 30.309402 
L 203.242594 29.759126 
L 203.768995 29.759126 
Q 203.96 29.759126 204.042997 29.838711 
Q 204.125993 29.918297 204.125993 30.03199 
Q 204.125993 30.119534 204.075968 30.190024 
Q 204.025943 30.260514 203.942378 30.284958 
Q 203.858813 30.309402 203.715559 30.309402 
L 203.242594 30.309402 
M 197.944476 31.102983 
Q 197.798948 31.102983 197.702877 30.985879 
Q 197.606806 30.868774 197.606806 30.702782 
Q 197.606806 30.5402 197.704583 30.440718 
Q 197.802359 30.341237 197.937654 30.341237 
Q 198.085456 30.341237 198.173 30.446971 
Q 198.260544 30.552706 198.260544 30.714151 
Q 198.260544 30.875596 198.173 30.98929 
Q 198.085456 31.102983 197.944476 31.102983 
" clip-path="url(#p2ee13bf694)" style="fill: #ff0000"/>
   </g>
   <g id="patch_20">
    <path d="M 233.669255 231.252472 
L 267.004196 231.252472 
L 267.004196 22.909091 
L 233.669255 22.909091 
L 233.669255 231.252472 
" clip-path="url(#p2ee13bf694)" style="fill: none; stroke: #ffffff; stroke-width: 0.48; stroke-linejoin: miter"/>
   </g>
   <g id="patch_21">
    <path d="M 237.836122 233.752592 
L 246.169858 233.752592 
L 246.169858 231.252472 
L 237.836122 231.252472 
L 237.836122 233.752592 
" clip-path="url(#p2ee13bf694)" style="fill: none; stroke: #ffffff; stroke-width: 0.48; stroke-linejoin: miter"/>
   </g>
   <g id="patch_22">
    <path d="M 254.503593 233.752592 
L 262.837328 233.752592 
L 262.837328 231.252472 
L 254.503593 231.252472 
L 254.503593 233.752592 
" clip-path="url(#p2ee13bf694)" style="fill: none; stroke: #ffffff; stroke-width: 0.48; stroke-linejoin: miter"/>
   </g>
   <g id="patch_23">
    <path d="M 246.169858 32.451218 
L 254.503593 32.451218 
L 254.503593 30.034435 
L 246.169858 30.034435 
L 246.169858 32.451218 
" clip-path="url(#p2ee13bf694)" style="fill: none; stroke: #ffffff; stroke-width: 0.48; stroke-linejoin: miter"/>
   </g>
   <g id="patch_24">
    <path d="M 246.169858 165.790981 
L 254.503593 165.790981 
L 254.503593 163.374198 
L 246.169858 163.374198 
L 246.169858 165.790981 
" clip-path="url(#p2ee13bf694)" style="fill: none; stroke: #ffffff; stroke-width: 0.48; stroke-linejoin: miter"/>
   </g>
   <g id="patch_25">
    <path d="M 246.169858 99.1211 
L 254.503593 99.1211 
L 254.503593 96.704316 
L 246.169858 96.704316 
L 246.169858 99.1211 
" clip-path="url(#p2ee13bf694)" style="fill: none; stroke: #ffffff; stroke-width: 0.48; stroke-linejoin: miter"/>
   </g>
   <g id="patch_26">
    <path d="M 252.003472 43.743429 
C 252.003472 44.663948 251.257244 45.410176 250.336725 45.410176 
C 249.416206 45.410176 248.669978 44.663948 248.669978 43.743429 
C 248.669978 42.82291 249.416206 42.076682 250.336725 42.076682 
C 251.257244 42.076682 252.003472 42.82291 252.003472 43.743429 
" clip-path="url(#p2ee13bf694)" style="fill: none; stroke: #ffffff; stroke-width: 0.48; stroke-linejoin: miter"/>
   </g>
   <g id="patch_27">
    <path d="M 242.812488 29.576079 
L 242.590786 29.576079 
L 242.328154 30.647072 
Q 242.272444 30.874459 242.248568 31.009754 
L 242.24402 31.009754 
Q 242.204228 30.732342 242.115547 30.418548 
L 241.879064 29.576079 
L 241.610747 29.576079 
L 241.293543 30.700508 
Q 241.267393 30.793737 241.221916 31.009754 
L 241.217368 31.009754 
Q 241.217368 31.006344 241.215094 30.985879 
Q 241.201451 30.884692 241.150289 30.669811 
L 240.893341 29.576079 
L 240.668228 29.576079 
L 241.11277 31.242826 
L 241.335609 31.242826 
L 241.690333 29.974006 
L 241.736947 29.77618 
L 241.741495 29.77618 
Q 241.749454 29.828479 241.777877 29.929666 
L 242.141696 31.242826 
L 242.353166 31.242826 
L 242.812488 29.576079 
M 237.098252 31.242826 
L 237.098252 29.576079 
L 236.804922 29.576079 
L 236.406995 30.735753 
Q 236.349011 30.906293 236.318314 31.002933 
L 236.313766 31.002933 
Q 236.303534 30.952908 236.237592 30.756218 
L 235.843075 29.576079 
L 235.513364 29.576079 
L 235.513364 31.242826 
L 235.72256 31.242826 
L 235.72256 29.825068 
L 235.729382 29.825068 
L 236.206894 31.242826 
L 236.404721 31.242826 
L 236.884508 29.847807 
L 236.889055 29.847807 
L 236.889055 31.242826 
L 237.098252 31.242826 
M 246.821322 31.242826 
L 246.530266 30.789189 
Q 246.383602 30.559528 246.216472 30.485627 
L 246.216472 30.48108 
Q 246.444996 30.450382 246.564374 30.335552 
Q 246.683752 30.220721 246.683752 30.03199 
Q 246.683752 29.927392 246.642254 29.833026 
Q 246.600756 29.738661 246.523445 29.676698 
Q 246.446133 29.614735 246.343809 29.595407 
Q 246.241485 29.576079 246.090272 29.576079 
L 245.352401 29.576079 
L 245.352401 31.242826 
L 245.572967 31.242826 
L 245.572967 30.507229 
L 245.82764 30.507229 
Q 245.92428 30.507229 245.982832 30.524283 
Q 246.041384 30.541337 246.107895 30.605574 
Q 246.174405 30.669811 246.234663 30.759629 
Q 246.294921 30.849447 246.543909 31.242826 
L 246.821322 31.242826 
M 244.492878 31.242826 
L 244.201823 30.789189 
Q 244.055158 30.559528 243.888029 30.485627 
L 243.888029 30.48108 
Q 244.116553 30.450382 244.235931 30.335552 
Q 244.355309 30.220721 244.355309 30.03199 
Q 244.355309 29.927392 244.313811 29.833026 
Q 244.272313 29.738661 244.195001 29.676698 
Q 244.11769 29.614735 244.015365 29.595407 
Q 243.913041 29.576079 243.761829 29.576079 
L 243.023958 29.576079 
L 243.023958 31.242826 
L 243.244523 31.242826 
L 243.244523 30.507229 
L 243.499197 30.507229 
Q 243.595836 30.507229 243.654389 30.524283 
Q 243.712941 30.541337 243.779451 30.605574 
Q 243.845962 30.669811 243.90622 30.759629 
Q 243.966477 30.849447 244.215466 31.242826 
L 244.492878 31.242826 
M 240.588643 29.773906 
L 240.588643 29.576079 
L 239.268661 29.576079 
L 239.268661 29.773906 
L 239.815527 29.773906 
L 239.815527 31.242826 
L 240.037229 31.242826 
L 240.037229 29.773906 
L 240.588643 29.773906 
M 237.580312 30.383303 
L 237.575764 30.383303 
Q 237.575764 30.047907 237.688321 29.892147 
Q 237.800878 29.736387 237.957775 29.736387 
Q 238.184025 29.736387 238.239735 30.001293 
L 238.444383 29.983102 
Q 238.415959 29.777317 238.286349 29.672719 
Q 238.156738 29.568121 237.969144 29.568121 
Q 237.679225 29.568121 237.526308 29.792665 
Q 237.37339 30.01721 237.37339 30.462889 
Q 237.37339 30.916526 237.542225 31.093888 
Q 237.71106 31.27125 237.950953 31.27125 
Q 238.187435 31.27125 238.330121 31.104689 
Q 238.472806 30.938127 238.472806 30.700508 
Q 238.472806 30.465162 238.329552 30.31395 
Q 238.186299 30.162738 237.98165 30.162738 
Q 237.721292 30.162738 237.580312 30.383303 
M 245.572967 30.309402 
L 245.572967 29.759126 
L 246.099368 29.759126 
Q 246.290373 29.759126 246.373369 29.838711 
Q 246.456365 29.918297 246.456365 30.03199 
Q 246.456365 30.119534 246.40634 30.190024 
Q 246.356315 30.260514 246.27275 30.284958 
Q 246.189186 30.309402 246.045932 30.309402 
L 245.572967 30.309402 
M 243.244523 30.309402 
L 243.244523 29.759126 
L 243.770924 29.759126 
Q 243.96193 29.759126 244.044926 29.838711 
Q 244.127922 29.918297 244.127922 30.03199 
Q 244.127922 30.119534 244.077897 30.190024 
Q 244.027872 30.260514 243.944307 30.284958 
Q 243.860742 30.309402 243.717488 30.309402 
L 243.244523 30.309402 
M 237.946405 31.102983 
Q 237.800878 31.102983 237.704806 30.985879 
Q 237.608735 30.868774 237.608735 30.702782 
Q 237.608735 30.5402 237.706512 30.440718 
Q 237.804288 30.341237 237.939584 30.341237 
Q 238.087385 30.341237 238.174929 30.446971 
Q 238.262473 30.552706 238.262473 30.714151 
Q 238.262473 30.875596 238.174929 30.98929 
Q 238.087385 31.102983 237.946405 31.102983 
" clip-path="url(#p2ee13bf694)" style="fill: #ff0000"/>
   </g>
   <g id="patch_28">
    <path d="M 20.325633 262.920666 
L 203.667808 262.920666 
L 203.667808 242.086327 
L 20.325633 242.086327 
L 20.325633 262.920666 
" clip-path="url(#p2ee13bf694)" style="fill: none; stroke: #ffffff; stroke-width: 0.48; stroke-linejoin: miter"/>
   </g>
   <g id="patch_29">
    <path d="M 24.492501 265.420786 
L 32.826236 265.420786 
L 32.826236 262.920666 
L 24.492501 262.920666 
L 24.492501 265.420786 
" clip-path="url(#p2ee13bf694)" style="fill: none; stroke: #ffffff; stroke-width: 0.48; stroke-linejoin: miter"/>
   </g>
   <g id="patch_30">
    <path d="M 192.500603 252.503497 
C 192.500603 253.239912 191.90362 253.836894 191.167205 253.836894 
C 190.43079 253.836894 189.833808 253.239912 189.833808 252.503497 
C 189.833808 251.767081 190.43079 251.170099 191.167205 251.170099 
C 191.90362 251.170099 192.500603 251.767081 192.500603 252.503497 
" clip-path="url(#p2ee13bf694)" style="fill: none; stroke: #ffffff; stroke-width: 0.48; stroke-linejoin: miter"/>
   </g>
   <g id="patch_31">
    <path d="M 192.833952 244.586448 
C 192.833952 245.506967 192.087724 246.253195 191.167205 246.253195 
C 190.246686 246.253195 189.500458 245.506967 189.500458 244.586448 
C 189.500458 243.665929 190.246686 242.919701 191.167205 242.919701 
C 192.087724 242.919701 192.833952 243.665929 192.833952 244.586448 
" clip-path="url(#p2ee13bf694)" style="fill: none; stroke: #ffffff; stroke-width: 0.48; stroke-linejoin: miter"/>
   </g>
   <g id="patch_32">
    <path d="M 27.135875 248.753316 
L 27.135875 246.253195 
L 26.695881 246.253195 
L 26.09899 247.992706 
Q 26.012015 248.248516 25.965969 248.393476 
L 25.959147 248.393476 
Q 25.943798 248.318438 25.844885 248.023403 
L 25.25311 246.253195 
L 24.758543 246.253195 
L 24.758543 248.753316 
L 25.072338 248.753316 
L 25.072338 246.626678 
L 25.08257 246.626678 
L 25.798839 248.753316 
L 26.095579 248.753316 
L 26.815259 246.660786 
L 26.822081 246.660786 
L 26.822081 248.753316 
L 27.135875 248.753316 
M 34.711274 247.423101 
Q 34.885226 247.332715 34.971348 247.193725 
Q 35.057471 247.054734 35.057471 246.891016 
Q 35.057471 246.648849 34.87073 246.451022 
Q 34.683988 246.253195 34.228645 246.253195 
L 33.290674 246.253195 
L 33.290674 248.753316 
L 34.247405 248.753316 
Q 34.579958 248.753316 34.774374 248.670604 
Q 34.96879 248.587892 35.074525 248.412235 
Q 35.18026 248.236579 35.18026 248.026814 
Q 35.18026 247.817049 35.06344 247.655889 
Q 34.94662 247.494728 34.711274 247.423101 
M 27.858966 247.464031 
L 27.852144 247.464031 
Q 27.852144 246.960937 28.020979 246.727297 
Q 28.189814 246.493657 28.42516 246.493657 
Q 28.764535 246.493657 28.848099 246.891016 
L 29.155072 246.863729 
Q 29.112437 246.555051 28.918021 246.398154 
Q 28.723605 246.241257 28.442214 246.241257 
Q 28.007336 246.241257 27.777959 246.578074 
Q 27.548582 246.914891 27.548582 247.583409 
Q 27.548582 248.263865 27.801835 248.529908 
Q 28.055087 248.795951 28.414927 248.795951 
Q 28.769651 248.795951 28.983679 248.546109 
Q 29.197707 248.296268 29.197707 247.939838 
Q 29.197707 247.58682 28.982826 247.360002 
Q 28.767946 247.133183 28.460973 247.133183 
Q 28.070436 247.133183 27.858966 247.464031 
M 31.781392 247.953482 
L 31.781392 246.253195 
L 31.450544 246.253195 
L 31.450544 247.970536 
Q 31.450544 248.127433 31.431785 248.232315 
Q 31.413025 248.337197 31.331166 248.417351 
Q 31.249307 248.497505 31.080472 248.497505 
Q 30.896288 248.497505 30.802491 248.373011 
Q 30.708694 248.248516 30.705283 247.999528 
L 30.408543 248.040457 
Q 30.408543 248.419057 30.576525 248.607504 
Q 30.744507 248.795951 31.080472 248.795951 
Q 31.41132 248.795951 31.596356 248.604093 
Q 31.781392 248.412235 31.781392 247.953482 
M 32.714248 248.753316 
L 32.714248 246.253195 
L 32.381694 246.253195 
L 32.381694 248.753316 
L 32.714248 248.753316 
M 33.621522 248.456576 
L 33.621522 247.597053 
L 34.201359 247.597053 
Q 34.561199 247.597053 34.699337 247.710462 
Q 34.837474 247.823871 34.837474 248.026814 
Q 34.837474 248.228052 34.707864 248.342314 
Q 34.578253 248.456576 34.243994 248.456576 
L 33.621522 248.456576 
M 33.621522 247.300312 
L 33.621522 246.549935 
L 34.121205 246.549935 
Q 34.31221 246.549935 34.434146 246.568695 
Q 34.556083 246.587454 34.643911 246.671871 
Q 34.731739 246.756289 34.731739 246.933651 
Q 34.731739 247.102486 34.644764 247.18264 
Q 34.557788 247.262794 34.444379 247.281553 
Q 34.33097 247.300312 34.16384 247.300312 
L 33.621522 247.300312 
M 28.408106 248.543551 
Q 28.189814 248.543551 28.045707 248.367895 
Q 27.901601 248.192238 27.901601 247.943249 
Q 27.901601 247.699377 28.048266 247.550154 
Q 28.19493 247.400931 28.397873 247.400931 
Q 28.619575 247.400931 28.750892 247.559534 
Q 28.882208 247.718136 28.882208 247.960303 
Q 28.882208 248.202471 28.750892 248.373011 
Q 28.619575 248.543551 28.408106 248.543551 
" clip-path="url(#p2ee13bf694)" style="fill: #ff0000"/>
   </g>
   <g id="patch_33">
    <path d="M 210.334796 262.920666 
L 227.002267 262.920666 
L 227.002267 246.253195 
L 210.334796 246.253195 
L 210.334796 262.920666 
" clip-path="url(#p2ee13bf694)" style="fill: none; stroke: #ffffff; stroke-width: 0.48; stroke-linejoin: miter"/>
   </g>
   <g id="patch_34">
    <path d="M 207.834676 258.753798 
L 210.334796 258.753798 
L 210.334796 250.420063 
L 207.834676 250.420063 
L 207.834676 258.753798 
" clip-path="url(#p2ee13bf694)" style="fill: none; stroke: #ffffff; stroke-width: 0.48; stroke-linejoin: miter"/>
   </g>
   <g id="patch_35">
    <path d="M 227.002267 258.753798 
L 229.502387 258.753798 
L 229.502387 250.420063 
L 227.002267 250.420063 
L 227.002267 258.753798 
" clip-path="url(#p2ee13bf694)" style="fill: none; stroke: #ffffff; stroke-width: 0.48; stroke-linejoin: miter"/>
   </g>
   <g id="patch_36">
    <path d="M 215.209975 258.753798 
L 214.918919 258.300161 
Q 214.772254 258.0705 214.605125 257.996599 
L 214.605125 257.992051 
Q 214.833649 257.961354 214.953027 257.846524 
Q 215.072405 257.731693 215.072405 257.542962 
Q 215.072405 257.438364 215.030907 257.343998 
Q 214.989409 257.249633 214.912097 257.18767 
Q 214.834786 257.125707 214.732462 257.106379 
Q 214.630138 257.087051 214.478925 257.087051 
L 213.741054 257.087051 
L 213.741054 258.753798 
L 213.96162 258.753798 
L 213.96162 258.018201 
L 214.216293 258.018201 
Q 214.312933 258.018201 214.371485 258.035255 
Q 214.430037 258.052309 214.496548 258.116546 
Q 214.563058 258.180783 214.623316 258.2706 
Q 214.683573 258.360418 214.932562 258.753798 
L 215.209975 258.753798 
M 213.121424 257.866988 
Q 213.237392 257.806731 213.294807 257.714071 
Q 213.352222 257.62141 213.352222 257.512265 
Q 213.352222 257.35082 213.227728 257.218935 
Q 213.103234 257.087051 212.799672 257.087051 
L 212.174357 257.087051 
L 212.174357 258.753798 
L 212.812178 258.753798 
Q 213.03388 258.753798 213.163491 258.698657 
Q 213.293102 258.643515 213.363592 258.526411 
Q 213.434082 258.409307 213.434082 258.269464 
Q 213.434082 258.12962 213.356202 258.02218 
Q 213.278322 257.91474 213.121424 257.866988 
M 216.10929 258.753798 
L 216.10929 257.079092 
L 215.976269 257.079092 
Q 215.847795 257.329218 215.494208 257.498621 
L 215.494208 257.696448 
Q 215.751156 257.595261 215.904642 257.449733 
L 215.904642 258.753798 
L 216.10929 258.753798 
M 213.96162 257.820374 
L 213.96162 257.270097 
L 214.488021 257.270097 
Q 214.679026 257.270097 214.762022 257.349683 
Q 214.845018 257.429268 214.845018 257.542962 
Q 214.845018 257.630506 214.794993 257.700996 
Q 214.744968 257.771486 214.661403 257.79593 
Q 214.577839 257.820374 214.434585 257.820374 
L 213.96162 257.820374 
M 212.394923 258.555971 
L 212.394923 257.982956 
L 212.781481 257.982956 
Q 213.021374 257.982956 213.113466 258.058562 
Q 213.205558 258.134168 213.205558 258.269464 
Q 213.205558 258.403622 213.119151 258.479797 
Q 213.032744 258.555971 212.809904 258.555971 
L 212.394923 258.555971 
M 212.394923 257.785129 
L 212.394923 257.284878 
L 212.728045 257.284878 
Q 212.855382 257.284878 212.936673 257.297384 
Q 213.017963 257.30989 213.076516 257.366168 
Q 213.135068 257.422447 213.135068 257.540688 
Q 213.135068 257.653245 213.077084 257.706681 
Q 213.0191 257.760117 212.943494 257.772623 
Q 212.867888 257.785129 212.756468 257.785129 
L 212.394923 257.785129 
" clip-path="url(#p2ee13bf694)" style="fill: #ff0000"/>
   </g>
   <g id="patch_37">
    <path d="M 233.669255 262.920666 
L 250.336725 262.920666 
L 250.336725 246.253195 
L 233.669255 246.253195 
L 233.669255 262.920666 
" clip-path="url(#p2ee13bf694)" style="fill: none; stroke: #ffffff; stroke-width: 0.48; stroke-linejoin: miter"/>
   </g>
   <g id="patch_38">
    <path d="M 231.169134 258.753798 
L 233.669255 258.753798 
L 233.669255 250.420063 
L 231.169134 250.420063 
L 231.169134 258.753798 
" clip-path="url(#p2ee13bf694)" style="fill: none; stroke: #ffffff; stroke-width: 0.48; stroke-linejoin: miter"/>
   </g>
   <g id="patch_39">
    <path d="M 250.336725 258.753798 
L 252.836846 258.753798 
L 252.836846 250.420063 
L 250.336725 250.420063 
L 250.336725 258.753798 
" clip-path="url(#p2ee13bf694)" style="fill: none; stroke: #ffffff; stroke-width: 0.48; stroke-linejoin: miter"/>
   </g>
   <g id="patch_40">
    <path d="M 238.544433 258.753798 
L 238.253378 258.300161 
Q 238.106713 258.0705 237.939584 257.996599 
L 237.939584 257.992051 
Q 238.168108 257.961354 238.287486 257.846524 
Q 238.406864 257.731693 238.406864 257.542962 
Q 238.406864 257.438364 238.365366 257.343998 
Q 238.323868 257.249633 238.246556 257.18767 
Q 238.169245 257.125707 238.06692 257.106379 
Q 237.964596 257.087051 237.813384 257.087051 
L 237.075513 257.087051 
L 237.075513 258.753798 
L 237.296078 258.753798 
L 237.296078 258.018201 
L 237.550752 258.018201 
Q 237.647391 258.018201 237.705943 258.035255 
Q 237.764496 258.052309 237.831006 258.116546 
Q 237.897517 258.180783 237.957775 258.2706 
Q 238.018032 258.360418 238.267021 258.753798 
L 238.544433 258.753798 
M 236.455883 257.866988 
Q 236.571851 257.806731 236.629266 257.714071 
Q 236.686681 257.62141 236.686681 257.512265 
Q 236.686681 257.35082 236.562187 257.218935 
Q 236.437692 257.087051 236.13413 257.087051 
L 235.508816 257.087051 
L 235.508816 258.753798 
L 236.146637 258.753798 
Q 236.368339 258.753798 236.49795 258.698657 
Q 236.62756 258.643515 236.69805 258.526411 
Q 236.76854 258.409307 236.76854 258.269464 
Q 236.76854 258.12962 236.69066 258.02218 
Q 236.61278 257.91474 236.455883 257.866988 
M 239.746174 258.753798 
L 239.746174 258.555971 
L 238.926443 258.555971 
Q 238.985564 258.451373 239.166337 258.306982 
Q 239.510828 258.031844 239.626227 257.867557 
Q 239.741626 257.70327 239.741626 257.542962 
Q 239.741626 257.35082 239.604625 257.214956 
Q 239.467625 257.079092 239.222047 257.079092 
Q 238.995796 257.079092 238.848563 257.203018 
Q 238.70133 257.326944 238.682002 257.561153 
L 238.892335 257.585029 
Q 238.893472 257.416762 238.986701 257.33206 
Q 239.07993 257.247359 239.217499 257.247359 
Q 239.353931 257.247359 239.44318 257.329787 
Q 239.53243 257.412214 239.53243 257.538414 
Q 239.53243 257.685079 239.402819 257.830038 
Q 239.273209 257.974997 239.108353 258.106882 
Q 238.838899 258.324036 238.740554 258.468427 
Q 238.64221 258.612818 238.64221 258.753798 
L 239.746174 258.753798 
M 237.296078 257.820374 
L 237.296078 257.270097 
L 237.822479 257.270097 
Q 238.013484 257.270097 238.096481 257.349683 
Q 238.179477 257.429268 238.179477 257.542962 
Q 238.179477 257.630506 238.129452 257.700996 
Q 238.079427 257.771486 237.995862 257.79593 
Q 237.912297 257.820374 237.769043 257.820374 
L 237.296078 257.820374 
M 235.729382 258.555971 
L 235.729382 257.982956 
L 236.115939 257.982956 
Q 236.355833 257.982956 236.447925 258.058562 
Q 236.540016 258.134168 236.540016 258.269464 
Q 236.540016 258.403622 236.453609 258.479797 
Q 236.367202 258.555971 236.144363 258.555971 
L 235.729382 258.555971 
M 235.729382 257.785129 
L 235.729382 257.284878 
L 236.062504 257.284878 
Q 236.18984 257.284878 236.271131 257.297384 
Q 236.352422 257.30989 236.410974 257.366168 
Q 236.469526 257.422447 236.469526 257.540688 
Q 236.469526 257.653245 236.411543 257.706681 
Q 236.353559 257.760117 236.277953 257.772623 
Q 236.202347 257.785129 236.090927 257.785129 
L 235.729382 257.785129 
" clip-path="url(#p2ee13bf694)" style="fill: #ff0000"/>
   </g>
   <g id="patch_41">
    <path d="M 49.493706 315.423197 
C 49.493706 323.477739 42.964211 330.007234 34.90967 330.007234 
C 26.855129 330.007234 20.325633 323.477739 20.325633 315.423197 
C 20.325633 307.368656 26.855129 300.839161 34.90967 300.839161 
C 42.964211 300.839161 49.493706 307.368656 49.493706 315.423197 
" clip-path="url(#p2ee13bf694)" style="fill: none; stroke: #ffffff; stroke-width: 0.48; stroke-linejoin: miter"/>
   </g>
   <g id="patch_42">
    <path d="M 36.243067 315.423197 
C 36.243067 316.159613 35.646085 316.756595 34.90967 316.756595 
C 34.173254 316.756595 33.576272 316.159613 33.576272 315.423197 
C 33.576272 314.686782 34.173254 314.0898 34.90967 314.0898 
C 35.646085 314.0898 36.243067 314.686782 36.243067 315.423197 
" clip-path="url(#p2ee13bf694)" style="fill: none; stroke: #ffffff; stroke-width: 0.48; stroke-linejoin: miter"/>
   </g>
   <g id="patch_43">
    <path d="M 40.743284 316.631589 
L 45.743525 316.631589 
L 45.743525 314.214806 
L 40.743284 314.214806 
L 40.743284 316.631589 
" clip-path="url(#p2ee13bf694)" style="fill: none; stroke: #ffffff; stroke-width: 0.48; stroke-linejoin: miter"/>
   </g>
   <g id="patch_44">
    <path d="M 33.382766 317.089945 
L 33.382766 315.423197 
L 33.089436 315.423197 
L 32.691509 316.582871 
Q 32.633525 316.753412 32.602828 316.850051 
L 32.59828 316.850051 
Q 32.588048 316.800026 32.522106 316.603336 
L 32.127589 315.423197 
L 31.797878 315.423197 
L 31.797878 317.089945 
L 32.007074 317.089945 
L 32.007074 315.672186 
L 32.013896 315.672186 
L 32.491408 317.089945 
L 32.689235 317.089945 
L 33.169022 315.694925 
L 33.17357 315.694925 
L 33.17357 317.089945 
L 33.382766 317.089945 
M 29.912839 317.089945 
L 29.621784 316.636307 
Q 29.475119 316.406646 29.30799 316.332746 
L 29.30799 316.328198 
Q 29.536514 316.297501 29.655892 316.18267 
Q 29.77527 316.06784 29.77527 315.879109 
Q 29.77527 315.77451 29.733772 315.680145 
Q 29.692274 315.585779 29.614962 315.523816 
Q 29.537651 315.461853 29.435327 315.442525 
Q 29.333002 315.423197 29.18179 315.423197 
L 28.443919 315.423197 
L 28.443919 317.089945 
L 28.664484 317.089945 
L 28.664484 316.354347 
L 28.919158 316.354347 
Q 29.015797 316.354347 29.07435 316.371401 
Q 29.132902 316.388456 29.199412 316.452692 
Q 29.265923 316.516929 29.326181 316.606747 
Q 29.386438 316.696565 29.635427 317.089945 
L 29.912839 317.089945 
M 26.762392 315.423197 
L 26.762392 317.089945 
L 27.362694 317.089945 
Q 27.790181 317.089945 27.965269 316.852894 
Q 28.140357 316.615843 28.140357 316.247476 
Q 28.140357 316.054197 28.097722 315.918333 
Q 28.055087 315.782469 27.980618 315.677871 
Q 27.906149 315.573273 27.806667 315.513584 
Q 27.707185 315.453895 27.598039 315.438546 
Q 27.488893 315.423197 27.337681 315.423197 
L 26.762392 315.423197 
M 31.434059 316.387319 
L 31.434059 315.423197 
L 31.212356 315.423197 
L 31.212356 316.383908 
Q 31.212356 316.56127 31.182796 316.673258 
Q 31.153236 316.785246 31.055459 316.852325 
Q 30.957683 316.919404 30.763267 316.919404 
Q 30.571125 316.919404 30.479033 316.835271 
Q 30.386941 316.751138 30.36534 316.642561 
Q 30.343738 316.533983 30.343738 316.383908 
L 30.343738 315.423197 
L 30.123172 315.423197 
L 30.123172 316.387319 
Q 30.123172 316.531709 30.140795 316.648814 
Q 30.158417 316.765918 30.222086 316.873927 
Q 30.285754 316.981936 30.422186 317.050152 
Q 30.558619 317.118368 30.781458 317.118368 
Q 31.009982 317.118368 31.146982 317.041625 
Q 31.283983 316.964882 31.344809 316.849483 
Q 31.405635 316.734084 31.419847 316.624938 
Q 31.434059 316.515792 31.434059 316.387319 
M 28.664484 316.156521 
L 28.664484 315.606244 
L 29.190885 315.606244 
Q 29.381891 315.606244 29.464887 315.68583 
Q 29.547883 315.765415 29.547883 315.879109 
Q 29.547883 315.966653 29.497858 316.037143 
Q 29.447833 316.107633 29.364268 316.132077 
Q 29.280703 316.156521 29.137449 316.156521 
L 28.664484 316.156521 
M 26.982957 316.892118 
L 26.982957 315.621024 
L 27.333133 315.621024 
Q 27.447964 315.621024 27.521296 315.63012 
Q 27.594628 315.639215 27.67194 315.680713 
Q 27.749252 315.722211 27.808941 315.811461 
Q 27.86863 315.90071 27.8908 316.009288 
Q 27.91297 316.117865 27.91297 316.242928 
Q 27.91297 316.469178 27.854987 316.606747 
Q 27.797003 316.744316 27.70889 316.804574 
Q 27.620778 316.864831 27.534939 316.878475 
Q 27.449101 316.892118 27.339955 316.892118 
L 26.982957 316.892118 
" clip-path="url(#p2ee13bf694)" style="fill: #ff0000"/>
   </g>
   <g id="patch_45">
    <path d="M 79.488672 315.812033 
L 79.495153 315.423197 
L 79.488672 315.034362 
L 75.539247 313.630115 
L 75.475205 313.374115 
L 75.402667 313.120391 
L 78.120846 309.929565 
L 77.932041 309.589583 
L 77.73201 309.256082 
L 73.609585 310.014681 
L 73.426122 309.824999 
L 73.236441 309.641537 
L 73.995039 305.519111 
L 73.661538 305.319081 
L 73.321556 305.130276 
L 70.130731 307.848454 
L 69.877007 307.775916 
L 69.621006 307.711874 
L 68.216759 303.762449 
L 67.827924 303.755968 
L 67.439088 303.762449 
L 66.034841 307.711874 
L 65.778841 307.775916 
L 65.525117 307.848454 
L 62.334291 305.130276 
L 61.994309 305.319081 
L 61.660808 305.519111 
L 62.419407 309.641537 
L 62.229725 309.824999 
L 62.046263 310.014681 
L 57.923838 309.256082 
L 57.723807 309.589583 
L 57.535002 309.929565 
L 60.25318 313.120391 
L 60.180642 313.374115 
L 60.1166 313.630115 
L 56.167176 315.034362 
L 56.160694 315.423197 
L 56.167176 315.812033 
L 60.1166 317.21628 
L 60.180642 317.47228 
L 60.25318 317.726004 
L 57.535002 320.91683 
L 57.723807 321.256812 
L 57.923838 321.590313 
L 62.046263 320.831714 
L 62.229725 321.021396 
L 62.419407 321.204858 
L 61.660808 325.327284 
L 61.994309 325.527314 
L 62.334291 325.716119 
L 65.525117 322.997941 
L 65.778841 323.070479 
L 66.034841 323.134521 
L 67.439088 327.083946 
L 67.827924 327.090427 
L 68.216759 327.083946 
L 69.621006 323.134521 
L 69.877007 323.070479 
L 70.130731 322.997941 
L 73.321556 325.716119 
L 73.661538 325.527314 
L 73.995039 325.327284 
L 73.236441 321.204858 
L 73.426122 321.021396 
L 73.609585 320.831714 
L 77.73201 321.590313 
L 77.932041 321.256812 
L 78.120846 320.91683 
L 75.402667 317.726004 
L 75.475205 317.47228 
L 75.539247 317.21628 
L 79.488672 315.812033 
" clip-path="url(#p2ee13bf694)" style="fill: none; stroke: #ffffff; stroke-width: 0.48; stroke-linejoin: miter"/>
   </g>
   <g id="patch_46">
    <path d="M 69.161321 315.423197 
C 69.161321 316.159613 68.564339 316.756595 67.827924 316.756595 
C 67.091509 316.756595 66.494526 316.159613 66.494526 315.423197 
C 66.494526 314.686782 67.091509 314.0898 67.827924 314.0898 
C 68.564339 314.0898 69.161321 314.686782 69.161321 315.423197 
" clip-path="url(#p2ee13bf694)" style="fill: none; stroke: #ffffff; stroke-width: 0.48; stroke-linejoin: miter"/>
   </g>
   <g id="patch_47">
    <path d="M 66.142986 317.089945 
L 66.142986 315.423197 
L 65.849657 315.423197 
L 65.451729 316.582871 
Q 65.393745 316.753412 65.363048 316.850051 
L 65.3585 316.850051 
Q 65.348268 316.800026 65.282326 316.603336 
L 64.887809 315.423197 
L 64.558098 315.423197 
L 64.558098 317.089945 
L 64.767294 317.089945 
L 64.767294 315.672186 
L 64.774116 315.672186 
L 65.251629 317.089945 
L 65.449455 317.089945 
L 65.929242 315.694925 
L 65.93379 315.694925 
L 65.93379 317.089945 
L 66.142986 317.089945 
M 63.996452 315.91208 
L 64.207922 315.895026 
Q 64.19769 315.655132 64.028855 315.524953 
Q 63.86002 315.394774 63.582608 315.394774 
Q 63.312017 315.394774 63.15512 315.525522 
Q 62.998223 315.656269 62.998223 315.85637 
Q 62.998223 316.032595 63.122149 316.142877 
Q 63.246075 316.25316 63.527466 316.313986 
Q 63.808858 316.374812 63.928236 316.437344 
Q 64.047614 316.499875 64.047614 316.636307 
Q 64.047614 316.767055 63.933352 316.84323 
Q 63.81909 316.919404 63.63377 316.919404 
Q 63.435943 316.919404 63.2961 316.827881 
Q 63.156257 316.736358 63.141477 316.536257 
L 62.932281 316.554448 
Q 62.942513 316.804574 63.117033 316.961471 
Q 63.291552 317.118368 63.642865 317.118368 
Q 63.918004 317.118368 64.089112 316.976251 
Q 64.260221 316.834134 64.260221 316.619253 
Q 64.260221 316.44985 64.166992 316.349231 
Q 64.073764 316.248612 63.943016 316.200861 
Q 63.812269 316.15311 63.605346 316.107633 
Q 63.372275 316.055333 63.289847 316.002466 
Q 63.207419 315.949599 63.207419 315.84159 
Q 63.207419 315.719938 63.314291 315.656269 
Q 63.421163 315.592601 63.591703 315.592601 
Q 63.780434 315.592601 63.881622 315.672755 
Q 63.982809 315.752909 63.996452 315.91208 
" clip-path="url(#p2ee13bf694)" style="fill: #ff0000"/>
   </g>
   <g id="patch_48">
    <path d="M 129.494555 315.784309 
L 129.494555 315.062086 
L 125.630606 313.380872 
L 125.552653 312.788758 
L 128.849811 310.164767 
L 128.662886 309.467153 
L 124.495468 308.843289 
L 124.26692 308.291526 
L 126.772591 304.903578 
L 126.41148 304.278114 
L 122.224595 304.754115 
L 121.861028 304.280306 
L 123.404455 300.359284 
L 122.893766 299.848595 
L 118.972744 301.392022 
L 118.498935 301.028456 
L 118.974936 296.841571 
L 118.349472 296.480459 
L 114.961524 298.98613 
L 114.409762 298.757583 
L 113.785898 294.590165 
L 113.088283 294.403239 
L 110.464292 297.700398 
L 109.872178 297.622444 
L 108.190965 293.758495 
L 107.468741 293.758495 
L 105.787528 297.622444 
L 105.195414 297.700398 
L 102.571423 294.403239 
L 101.873808 294.590165 
L 101.249944 298.757583 
L 100.698182 298.98613 
L 97.310234 296.480459 
L 96.68477 296.841571 
L 97.160771 301.028456 
L 96.686962 301.392022 
L 92.76594 299.848595 
L 92.25525 300.359284 
L 93.798678 304.280306 
L 93.435111 304.754115 
L 89.248226 304.278114 
L 88.887114 304.903578 
L 91.392786 308.291526 
L 91.164238 308.843289 
L 86.99682 309.467153 
L 86.809895 310.164767 
L 90.107053 312.788758 
L 90.0291 313.380872 
L 86.165151 315.062086 
L 86.165151 315.784309 
L 90.0291 317.465523 
L 90.107053 318.057637 
L 86.809895 320.681628 
L 86.99682 321.379242 
L 91.164238 322.003106 
L 91.392786 322.554869 
L 88.887114 325.942817 
L 89.248226 326.568281 
L 93.435111 326.09228 
L 93.798678 326.566089 
L 92.25525 330.487111 
L 92.76594 330.9978 
L 96.686962 329.454373 
L 97.160771 329.817939 
L 96.68477 334.004824 
L 97.310234 334.365936 
L 100.698182 331.860265 
L 101.249944 332.088812 
L 101.873808 336.25623 
L 102.571423 336.443156 
L 105.195414 333.145997 
L 105.787528 333.223951 
L 107.468741 337.0879 
L 108.190965 337.0879 
L 109.872178 333.223951 
L 110.464292 333.145997 
L 113.088283 336.443156 
L 113.785898 336.25623 
L 114.409762 332.088812 
L 114.961524 331.860265 
L 118.349472 334.365936 
L 118.974936 334.004824 
L 118.498935 329.817939 
L 118.972744 329.454373 
L 122.893766 330.9978 
L 123.404455 330.487111 
L 121.861028 326.566089 
L 122.224595 326.09228 
L 126.41148 326.568281 
L 126.772591 325.942817 
L 124.26692 322.554869 
L 124.495468 322.003106 
L 128.662886 321.379242 
L 128.849811 320.681628 
L 125.552653 318.057637 
L 125.630606 317.465523 
L 129.494555 315.784309 
L 129.494555 315.784309 
" clip-path="url(#p2ee13bf694)" style="fill: none; stroke: #ffffff; stroke-width: 0.48; stroke-linejoin: miter"/>
   </g>
   <g id="patch_49">
    <path d="M 109.163251 315.423197 
C 109.163251 316.159613 108.566268 316.756595 107.829853 316.756595 
C 107.093438 316.756595 106.496455 316.159613 106.496455 315.423197 
C 106.496455 314.686782 107.093438 314.0898 107.829853 314.0898 
C 108.566268 314.0898 109.163251 314.686782 109.163251 315.423197 
" clip-path="url(#p2ee13bf694)" style="fill: none; stroke: #ffffff; stroke-width: 0.48; stroke-linejoin: miter"/>
   </g>
   <g id="patch_50">
    <path d="M 105.78678 316.856873 
L 105.78678 316.239517 
L 105.08188 316.239517 
L 105.08188 316.438481 
L 105.573036 316.438481 
L 105.573036 316.747727 
Q 105.347923 316.919404 105.086428 316.919404 
Q 104.914751 316.919404 104.768655 316.843798 
Q 104.622559 316.768192 104.548089 316.62039 
Q 104.47362 316.472589 104.47362 316.249749 
Q 104.47362 315.951872 104.627106 315.767689 
Q 104.780593 315.583505 105.08188 315.583505 
Q 105.276296 315.583505 105.396812 315.673892 
Q 105.517327 315.764278 105.563941 315.943914 
L 105.761768 315.888204 
Q 105.702647 315.641489 105.532675 315.518132 
Q 105.362703 315.394774 105.08188 315.394774 
Q 104.81129 315.394774 104.624264 315.506762 
Q 104.437238 315.61875 104.341167 315.82283 
Q 104.245096 316.02691 104.245096 316.263393 
Q 104.245096 316.651088 104.479873 316.884728 
Q 104.71465 317.118368 105.097798 317.118368 
Q 105.471849 317.118368 105.78678 316.856873 
M 104.047269 317.089945 
L 104.047269 316.892118 
L 103.225265 316.892118 
L 103.225265 315.423197 
L 103.0047 315.423197 
L 103.0047 317.089945 
L 104.047269 317.089945 
" clip-path="url(#p2ee13bf694)" style="fill: #ff0000"/>
   </g>
   <g id="patch_51">
    <path d="M 136.164553 332.090668 
L 169.499494 332.090668 
L 169.499494 298.755727 
L 136.164553 298.755727 
L 136.164553 332.090668 
" clip-path="url(#p2ee13bf694)" style="fill: none; stroke: #ffffff; stroke-width: 0.48; stroke-linejoin: miter"/>
   </g>
   <g id="patch_52">
    <path d="M 154.49877 302.922595 
C 154.49877 303.843114 153.752542 304.589342 152.832023 304.589342 
C 151.911504 304.589342 151.165276 303.843114 151.165276 302.922595 
C 151.165276 302.002076 151.911504 301.255848 152.832023 301.255848 
C 153.752542 301.255848 154.49877 302.002076 154.49877 302.922595 
" clip-path="url(#p2ee13bf694)" style="fill: none; stroke: #ffffff; stroke-width: 0.48; stroke-linejoin: miter"/>
   </g>
   <g id="patch_53">
    <path d="M 148.665156 332.090668 
L 148.665156 322.090186 
L 156.998891 322.090186 
L 156.998891 332.090668 
" clip-path="url(#p2ee13bf694)" style="fill: none; stroke: #ffffff; stroke-width: 0.48; stroke-linejoin: miter"/>
   </g>
   <g id="patch_54">
    <path d="M 152.75528 311.213695 
Q 152.223194 311.213695 151.889788 311.567566 
Q 151.556382 311.921437 151.556382 312.537087 
Q 151.556382 313.065762 151.885525 313.432424 
Q 152.214667 313.799086 152.75528 313.799086 
Q 153.277133 313.799086 153.613098 313.445214 
Q 153.949062 313.091343 153.949062 312.509801 
Q 153.949062 311.926553 153.614803 311.570124 
Q 153.280544 311.213695 152.75528 311.213695 
M 150.038573 311.213695 
Q 149.506488 311.213695 149.173081 311.567566 
Q 148.839675 311.921437 148.839675 312.537087 
Q 148.839675 313.065762 149.168818 313.432424 
Q 149.497961 313.799086 150.038573 313.799086 
Q 150.560427 313.799086 150.896391 313.445214 
Q 151.232355 313.091343 151.232355 312.509801 
Q 151.232355 311.926553 150.898096 311.570124 
Q 150.563837 311.213695 150.038573 311.213695 
M 142.974795 313.75645 
L 142.974795 311.25633 
L 142.534801 311.25633 
L 141.93791 312.995841 
Q 141.850934 313.251651 141.804888 313.39661 
L 141.798067 313.39661 
Q 141.782718 313.321573 141.683805 313.026538 
L 141.09203 311.25633 
L 140.597463 311.25633 
L 140.597463 313.75645 
L 140.911257 313.75645 
L 140.911257 311.629813 
L 140.92149 311.629813 
L 141.637759 313.75645 
L 141.934499 313.75645 
L 142.654179 311.663921 
L 142.661001 311.663921 
L 142.661001 313.75645 
L 142.974795 313.75645 
M 156.432129 313.75645 
L 155.338965 312.269339 
L 156.386083 311.25633 
L 155.939267 311.25633 
L 154.696028 312.496158 
L 154.696028 311.25633 
L 154.36518 311.25633 
L 154.36518 313.75645 
L 154.696028 313.75645 
L 154.696028 312.890106 
L 155.108736 312.492747 
L 155.995545 313.75645 
L 156.432129 313.75645 
M 148.39627 313.75645 
L 148.39627 311.25633 
L 148.063717 311.25633 
L 148.063717 312.282982 
L 146.7642 312.282982 
L 146.7642 311.25633 
L 146.433352 311.25633 
L 146.433352 313.75645 
L 146.7642 313.75645 
L 146.7642 312.579722 
L 148.063717 312.579722 
L 148.063717 313.75645 
L 148.39627 313.75645 
M 143.697886 312.467166 
L 143.691064 312.467166 
Q 143.691064 311.964072 143.859899 311.730432 
Q 144.028734 311.496792 144.264079 311.496792 
Q 144.603454 311.496792 144.687019 311.894151 
L 144.993992 311.866864 
Q 144.951357 311.558186 144.756941 311.401289 
Q 144.562525 311.244392 144.281133 311.244392 
Q 143.846256 311.244392 143.616879 311.581209 
Q 143.387502 311.918026 143.387502 312.586544 
Q 143.387502 313.267 143.640755 313.533043 
Q 143.894007 313.799086 144.253847 313.799086 
Q 144.608571 313.799086 144.822599 313.549244 
Q 145.036627 313.299402 145.036627 312.942973 
Q 145.036627 312.589955 144.821746 312.363136 
Q 144.606865 312.136318 144.299893 312.136318 
Q 143.909355 312.136318 143.697886 312.467166 
M 152.751869 313.515989 
Q 152.37327 313.515989 152.136219 313.247388 
Q 151.899168 312.978787 151.899168 312.543909 
Q 151.899168 312.011823 152.141335 311.754308 
Q 152.383502 311.496792 152.758691 311.496792 
Q 153.123647 311.496792 153.364962 311.759424 
Q 153.606276 312.022056 153.606276 312.509801 
Q 153.604571 312.983903 153.368372 313.249946 
Q 153.132174 313.515989 152.751869 313.515989 
M 150.035162 313.515989 
Q 149.656563 313.515989 149.419512 313.247388 
Q 149.182461 312.978787 149.182461 312.543909 
Q 149.182461 312.011823 149.424628 311.754308 
Q 149.666795 311.496792 150.041984 311.496792 
Q 150.40694 311.496792 150.648255 311.759424 
Q 150.889569 312.022056 150.889569 312.509801 
Q 150.887864 312.983903 150.651666 313.249946 
Q 150.415467 313.515989 150.035162 313.515989 
M 144.247025 313.546686 
Q 144.028734 313.546686 143.884627 313.371029 
Q 143.740521 313.195373 143.740521 312.946384 
Q 143.740521 312.702511 143.887185 312.553289 
Q 144.03385 312.404066 144.236793 312.404066 
Q 144.458495 312.404066 144.589811 312.562668 
Q 144.721127 312.721271 144.721127 312.963438 
Q 144.721127 313.205605 144.589811 313.376146 
Q 144.458495 313.546686 144.247025 313.546686 
" clip-path="url(#p2ee13bf694)" style="fill: #ff0000"/>
   </g>
   <g id="patch_55">
    <path d="M 176.166482 321.256812 
L 234.502628 321.256812 
L 234.502628 309.589583 
L 176.166482 309.589583 
L 176.166482 321.256812 
" clip-path="url(#p2ee13bf694)" style="fill: none; stroke: #ffffff; stroke-width: 0.48; stroke-linejoin: miter"/>
   </g>
   <g id="patch_56">
    <path d="M 184.166868 315.423197 
C 184.166868 316.159613 183.569885 316.756595 182.83347 316.756595 
C 182.097055 316.756595 181.500072 316.159613 181.500072 315.423197 
C 181.500072 314.686782 182.097055 314.0898 182.83347 314.0898 
C 183.569885 314.0898 184.166868 314.686782 184.166868 315.423197 
" clip-path="url(#p2ee13bf694)" style="fill: none; stroke: #ffffff; stroke-width: 0.48; stroke-linejoin: miter"/>
   </g>
   <g id="patch_57">
    <path d="M 230.335761 315.423197 
C 230.335761 316.803976 229.216419 317.923318 227.83564 317.923318 
C 226.454862 317.923318 225.33552 316.803976 225.33552 315.423197 
C 225.33552 314.042419 226.454862 312.923077 227.83564 312.923077 
C 229.216419 312.923077 230.335761 314.042419 230.335761 315.423197 
" clip-path="url(#p2ee13bf694)" style="fill: none; stroke: #ffffff; stroke-width: 0.48; stroke-linejoin: miter"/>
   </g>
   <g id="patch_58">
    <path d="M 192.929455 319.590065 
L 192.929455 317.923318 
L 192.636126 317.923318 
L 192.238198 319.082992 
Q 192.180214 319.253532 192.149517 319.350172 
L 192.14497 319.350172 
Q 192.134737 319.300147 192.068795 319.103457 
L 191.674278 317.923318 
L 191.344567 317.923318 
L 191.344567 319.590065 
L 191.553763 319.590065 
L 191.553763 318.172307 
L 191.560585 318.172307 
L 192.038098 319.590065 
L 192.235924 319.590065 
L 192.715711 318.195046 
L 192.720259 318.195046 
L 192.720259 319.590065 
L 192.929455 319.590065 
M 199.967084 319.590065 
L 199.287197 317.923318 
L 199.049577 317.923318 
L 198.409483 319.590065 
L 198.642554 319.590065 
L 198.826738 319.082992 
L 199.522542 319.082992 
L 199.718095 319.590065 
L 199.967084 319.590065 
M 196.639274 319.06139 
L 196.419846 319.00568 
Q 196.370958 319.218287 196.248737 319.324022 
Q 196.126517 319.429757 195.930964 319.429757 
Q 195.692207 319.429757 195.543837 319.260354 
Q 195.395467 319.090951 195.395467 318.743048 
Q 195.395467 318.441761 195.536447 318.262693 
Q 195.677427 318.083626 195.950292 318.083626 
Q 196.117421 318.083626 196.228841 318.17117 
Q 196.340261 318.258714 196.394833 318.432665 
L 196.610851 318.381503 
Q 196.541498 318.142747 196.368684 318.018821 
Q 196.19587 317.894895 195.952566 317.894895 
Q 195.606937 317.894895 195.38694 318.120576 
Q 195.166943 318.346258 195.166943 318.745322 
Q 195.166943 319.105731 195.353969 319.36211 
Q 195.540995 319.618488 195.950292 319.618488 
Q 196.203828 319.618488 196.385169 319.480351 
Q 196.566511 319.342213 196.639274 319.06139 
M 198.385607 319.590065 
L 198.094552 319.136428 
Q 197.947887 318.906767 197.780757 318.832866 
L 197.780757 318.828319 
Q 198.009281 318.797621 198.12866 318.682791 
Q 198.248038 318.56796 198.248038 318.379229 
Q 198.248038 318.274631 198.20654 318.180265 
Q 198.165042 318.0859 198.08773 318.023937 
Q 198.010418 317.961974 197.908094 317.942646 
Q 197.80577 317.923318 197.654558 317.923318 
L 196.916687 317.923318 
L 196.916687 319.590065 
L 197.137252 319.590065 
L 197.137252 318.854468 
L 197.391926 318.854468 
Q 197.488565 318.854468 197.547117 318.871522 
Q 197.605669 318.888576 197.67218 318.952813 
Q 197.738691 319.01705 197.798948 319.106868 
Q 197.859206 319.196686 198.108195 319.590065 
L 198.385607 319.590065 
M 203.194843 319.590065 
L 202.466068 318.598658 
L 203.164146 317.923318 
L 202.866269 317.923318 
L 202.037443 318.74987 
L 202.037443 317.923318 
L 201.816878 317.923318 
L 201.816878 319.590065 
L 202.037443 319.590065 
L 202.037443 319.012502 
L 202.312581 318.747596 
L 202.903788 319.590065 
L 203.194843 319.590065 
M 201.45988 319.590065 
L 201.45988 317.923318 
L 201.249547 317.923318 
L 201.249547 319.231931 
L 201.244999 319.231931 
L 200.374107 317.923318 
L 200.148994 317.923318 
L 200.148994 319.590065 
L 200.35819 319.590065 
L 200.35819 318.281453 
L 200.362737 318.281453 
L 201.23363 319.590065 
L 201.45988 319.590065 
M 193.411515 318.730542 
L 193.406968 318.730542 
Q 193.406968 318.395146 193.519524 318.239386 
Q 193.632081 318.083626 193.788978 318.083626 
Q 194.015228 318.083626 194.070938 318.348532 
L 194.275586 318.330341 
Q 194.247163 318.124556 194.117552 318.019958 
Q 193.987942 317.91536 193.800347 317.91536 
Q 193.510429 317.91536 193.357511 318.139904 
Q 193.204593 318.364449 193.204593 318.810128 
Q 193.204593 319.263765 193.373428 319.441127 
Q 193.542263 319.618488 193.782156 319.618488 
Q 194.018639 319.618488 194.161324 319.451927 
Q 194.30401 319.285366 194.30401 319.047747 
Q 194.30401 318.812401 194.160756 318.661189 
Q 194.017502 318.509977 193.812853 318.509977 
Q 193.552495 318.509977 193.411515 318.730542 
M 199.455463 318.907904 
L 198.889269 318.907904 
L 199.075727 318.408789 
Q 199.129163 318.265536 199.160997 318.097269 
L 199.166681 318.097269 
Q 199.198516 318.220058 199.224665 318.29339 
Q 199.250815 318.366723 199.455463 318.907904 
M 197.137252 318.656641 
L 197.137252 318.106365 
L 197.663653 318.106365 
Q 197.854658 318.106365 197.937654 318.18595 
Q 198.020651 318.265536 198.020651 318.379229 
Q 198.020651 318.466773 197.970626 318.537263 
Q 197.9206 318.607753 197.837036 318.632197 
Q 197.753471 318.656641 197.610217 318.656641 
L 197.137252 318.656641 
M 193.777608 319.450222 
Q 193.632081 319.450222 193.53601 319.333118 
Q 193.439939 319.216013 193.439939 319.050021 
Q 193.439939 318.887439 193.537715 318.787957 
Q 193.635492 318.688475 193.770787 318.688475 
Q 193.918588 318.688475 194.006132 318.79421 
Q 194.093676 318.899945 194.093676 319.06139 
Q 194.093676 319.222835 194.006132 319.336529 
Q 193.918588 319.450222 193.777608 319.450222 
" clip-path="url(#p2ee13bf694)" style="fill: #ff0000"/>
   </g>
   <g id="patch_59">
    <path d="M 282.838293 315.423197 
C 282.838293 326.929685 273.510442 336.257536 262.003955 336.257536 
C 250.497467 336.257536 241.169617 326.929685 241.169617 315.423197 
C 241.169617 303.91671 250.497467 294.588859 262.003955 294.588859 
C 273.510442 294.588859 282.838293 303.91671 282.838293 315.423197 
" clip-path="url(#p2ee13bf694)" style="fill: none; stroke: #ffffff; stroke-width: 0.48; stroke-linejoin: miter"/>
   </g>
   <g id="patch_60">
    <path d="M 263.337352 315.423197 
C 263.337352 316.159613 262.74037 316.756595 262.003955 316.756595 
C 261.267539 316.756595 260.670557 316.159613 260.670557 315.423197 
C 260.670557 314.686782 261.267539 314.0898 262.003955 314.0898 
C 262.74037 314.0898 263.337352 314.686782 263.337352 315.423197 
" clip-path="url(#p2ee13bf694)" style="fill: none; stroke: #ffffff; stroke-width: 0.48; stroke-linejoin: miter"/>
   </g>
   <g id="patch_61">
    <path d="M 280.338172 315.423197 
C 280.338172 325.548906 272.129663 333.757415 262.003955 333.757415 
C 251.878246 333.757415 243.669737 325.548906 243.669737 315.423197 
C 243.669737 305.297489 251.878246 297.08898 262.003955 297.08898 
C 272.129663 297.08898 280.338172 305.297489 280.338172 315.423197 
" clip-path="url(#p2ee13bf694)" style="fill: none; stroke: #ff0000; stroke-width: 0.48; stroke-linejoin: miter"/>
   </g>
   <g id="patch_62">
    <path d="M 254.646847 317.089945 
L 254.646847 314.589824 
L 254.206853 314.589824 
L 253.609962 316.329335 
Q 253.522986 316.585145 253.47694 316.730105 
L 253.470119 316.730105 
Q 253.45477 316.655067 253.355857 316.360032 
L 252.764082 314.589824 
L 252.269515 314.589824 
L 252.269515 317.089945 
L 252.583309 317.089945 
L 252.583309 314.963307 
L 252.593542 314.963307 
L 253.309811 317.089945 
L 253.606551 317.089945 
L 254.326231 314.997415 
L 254.333053 314.997415 
L 254.333053 317.089945 
L 254.646847 317.089945 
M 262.397903 316.036006 
L 262.397903 314.589824 
L 262.065349 314.589824 
L 262.065349 316.030889 
Q 262.065349 316.296932 262.021009 316.464914 
Q 261.976668 316.632897 261.830004 316.733515 
Q 261.683339 316.834134 261.391715 316.834134 
Q 261.103502 316.834134 260.965364 316.707934 
Q 260.827227 316.581734 260.794824 316.418869 
Q 260.762421 316.256003 260.762421 316.030889 
L 260.762421 314.589824 
L 260.431573 314.589824 
L 260.431573 316.036006 
Q 260.431573 316.252592 260.458007 316.428248 
Q 260.484441 316.603905 260.579943 316.765918 
Q 260.675446 316.927931 260.880094 317.030255 
Q 261.084743 317.13258 261.419001 317.13258 
Q 261.761787 317.13258 261.967289 317.017465 
Q 262.17279 316.90235 262.264029 316.729252 
Q 262.355268 316.556153 262.376585 316.392435 
Q 262.397903 316.228716 262.397903 316.036006 
M 258.095171 314.589824 
L 258.095171 317.089945 
L 258.426019 317.089945 
L 258.426019 316.076935 
L 259.065546 316.076935 
Q 259.556702 316.076935 259.779257 315.868023 
Q 260.001812 315.659112 260.001812 315.312915 
Q 260.001812 315.138964 259.931038 314.979509 
Q 259.860263 314.820053 259.722126 314.727109 
Q 259.583988 314.634164 259.422827 314.611994 
Q 259.261667 314.589824 259.038259 314.589824 
L 258.095171 314.589824 
M 255.369938 315.80066 
L 255.363116 315.80066 
Q 255.363116 315.297566 255.531951 315.063926 
Q 255.700786 314.830286 255.936131 314.830286 
Q 256.275507 314.830286 256.359071 315.227645 
L 256.666044 315.200358 
Q 256.623409 314.89168 256.428993 314.734783 
Q 256.234577 314.577886 255.953185 314.577886 
Q 255.518308 314.577886 255.288931 314.914703 
Q 255.059554 315.25152 255.059554 315.920038 
Q 255.059554 316.600494 255.312807 316.866537 
Q 255.566059 317.13258 255.925899 317.13258 
Q 256.280623 317.13258 256.494651 316.882738 
Q 256.708679 316.632897 256.708679 316.276467 
Q 256.708679 315.923449 256.493798 315.69663 
Q 256.278917 315.469812 255.971945 315.469812 
Q 255.581408 315.469812 255.369938 315.80066 
M 264.504075 317.089945 
L 264.504075 316.793204 
L 263.271069 316.793204 
L 263.271069 314.589824 
L 262.940221 314.589824 
L 262.940221 317.089945 
L 264.504075 317.089945 
M 258.426019 315.780195 
L 258.426019 314.886564 
L 259.062135 314.886564 
Q 259.282132 314.886564 259.393836 314.914703 
Q 259.505539 314.942842 259.582283 315.057957 
Q 259.659026 315.173072 259.659026 315.323147 
Q 259.659026 315.780195 259.068956 315.780195 
L 258.426019 315.780195 
M 255.919077 316.88018 
Q 255.700786 316.88018 255.556679 316.704523 
Q 255.412573 316.528867 255.412573 316.279878 
Q 255.412573 316.036006 255.559237 315.886783 
Q 255.705902 315.73756 255.908845 315.73756 
Q 256.130547 315.73756 256.261863 315.896163 
Q 256.393179 316.054765 256.393179 316.296932 
Q 256.393179 316.539099 256.261863 316.70964 
Q 256.130547 316.88018 255.919077 316.88018 
" clip-path="url(#p2ee13bf694)" style="fill: #ff0000"/>
   </g>
  </g>
 </g>
 <defs>
  <clipPath id="p2ee13bf694">
   <rect x="7.2" y="7.2" width="288.763926" height="345.6"/>
  </clipPath>
 </defs>
</svg>
