<?xml version="1.0" encoding="utf-8" standalone="no"?>
<!DOCTYPE svg PUBLIC "-//W3C//DTD SVG 1.1//EN"
  "http://www.w3.org/Graphics/SVG/1.1/DTD/svg11.dtd">
<svg xmlns:xlink="http://www.w3.org/1999/xlink" width="539.103764pt" height="360pt" viewBox="0 0 539.103764 360" xmlns="http://www.w3.org/2000/svg" version="1.1">
 <metadata>
  <rdf:RDF xmlns:dc="http://purl.org/dc/elements/1.1/" xmlns:cc="http://creativecommons.org/ns#" xmlns:rdf="http://www.w3.org/1999/02/22-rdf-syntax-ns#">
   <cc:Work>
    <dc:type rdf:resource="http://purl.org/dc/dcmitype/StillImage"/>
    <dc:date>2026-03-19T14:26:01.859846</dc:date>
    <dc:format>image/svg+xml</dc:format>
    <dc:creator>
     <cc:Agent>
      <dc:title>Matplotlib v3.10.8, https://matplotlib.org/</dc:title>
     </cc:Agent>
    </dc:creator>
   </cc:Work>
  </rdf:RDF>
 </metadata>
 <defs>
  <style type="text/css">*{stroke-linejoin: round; stroke-linecap: butt}</style>
 </defs>
 <g id="figure_1">
  <g id="patch_1">
   <path d="M 0 360 
L 539.103764 360 
L 539.103764 0 
L 0 0 
z
" style="fill: #1a1a2e"/>
  </g>
  <g id="axes_1">
   <g id="patch_2">
    <path d="M 7.2 352.8 
L 531.903764 352.8 
L 531.903764 7.2 
L 7.2 7.2 
z
" style="fill: #1a1a2e"/>
   </g>
   <g id="patch_3">
    <path d="M 31.050171 146.806084 
L 263.357032 146.806084 
L 263.357032 22.909091 
L 31.050171 22.909091 
L 31.050171 146.806084 
" clip-path="url(#pe353651380)" style="fill: none; stroke: #ffffff; stroke-width: 0.48; stroke-linejoin: miter"/>
   </g>
   <g id="patch_4">
    <path d="M 43.706088 35.29879 
L 43.706088 30.652653 
L 42.888419 30.652653 
L 41.779177 33.8853 
Q 41.617545 34.360689 41.531975 34.630076 
L 41.519298 34.630076 
Q 41.490775 34.490629 41.306957 33.942346 
L 40.207224 30.652653 
L 39.288138 30.652653 
L 39.288138 35.29879 
L 39.871282 35.29879 
L 39.871282 31.346721 
L 39.890298 31.346721 
L 41.221387 35.29879 
L 41.772839 35.29879 
L 43.110267 31.410106 
L 43.122944 31.410106 
L 43.122944 35.29879 
L 43.706088 35.29879 
M 63.323816 35.29879 
L 61.428598 30.652653 
L 60.766222 30.652653 
L 58.981928 35.29879 
L 59.631627 35.29879 
L 60.145047 33.8853 
L 62.084635 33.8853 
L 62.629748 35.29879 
L 63.323816 35.29879 
M 54.047388 33.825084 
L 53.435721 33.66979 
Q 53.299443 34.262442 52.958747 34.557183 
Q 52.618051 34.851924 52.072938 34.851924 
Q 51.407394 34.851924 50.993805 34.379704 
Q 50.580216 33.907484 50.580216 32.93769 
Q 50.580216 32.097836 50.973205 31.598677 
Q 51.366193 31.099519 52.126816 31.099519 
Q 52.592697 31.099519 52.903285 31.343552 
Q 53.213873 31.587585 53.365997 32.072482 
L 53.968157 31.929865 
Q 53.774832 31.26432 53.293104 30.918871 
Q 52.811376 30.573421 52.133154 30.573421 
Q 51.169699 30.573421 50.556447 31.20252 
Q 49.943195 31.831618 49.943195 32.944029 
Q 49.943195 33.948685 50.464538 34.663353 
Q 50.985882 35.378022 52.126816 35.378022 
Q 52.833561 35.378022 53.339058 34.992956 
Q 53.844556 34.607891 54.047388 33.825084 
M 66.575479 32.015435 
L 67.164961 31.967896 
Q 67.136438 31.299182 66.665803 30.936302 
Q 66.195167 30.573421 65.421867 30.573421 
Q 64.667583 30.573421 64.230225 30.937886 
Q 63.792867 31.302352 63.792867 31.860142 
Q 63.792867 32.351377 64.138317 32.658795 
Q 64.483766 32.966214 65.268158 33.135769 
Q 66.05255 33.305325 66.385323 33.479634 
Q 66.718095 33.653944 66.718095 34.034255 
Q 66.718095 34.39872 66.399585 34.61106 
Q 66.081074 34.823401 65.564484 34.823401 
Q 65.013033 34.823401 64.623214 34.568275 
Q 64.233394 34.31315 64.192194 33.75536 
L 63.60905 33.806068 
Q 63.637573 34.503306 64.124055 34.940664 
Q 64.610537 35.378022 65.589838 35.378022 
Q 66.3568 35.378022 66.833773 34.981864 
Q 67.310747 34.585706 67.310747 33.986716 
Q 67.310747 33.514496 67.050868 33.234016 
Q 66.790988 32.953537 66.426523 32.820428 
Q 66.062058 32.687319 65.485253 32.560548 
Q 64.835554 32.414762 64.605783 32.267392 
Q 64.376011 32.120021 64.376011 31.818941 
Q 64.376011 31.47983 64.673922 31.302352 
Q 64.971832 31.124873 65.447222 31.124873 
Q 65.973319 31.124873 66.255383 31.348306 
Q 66.537447 31.571739 66.575479 32.015435 
M 77.037211 32.015435 
L 77.626693 31.967896 
Q 77.59817 31.299182 77.127534 30.936302 
Q 76.656899 30.573421 75.883599 30.573421 
Q 75.129315 30.573421 74.691957 30.937886 
Q 74.254599 31.302352 74.254599 31.860142 
Q 74.254599 32.351377 74.600049 32.658795 
Q 74.945498 32.966214 75.72989 33.135769 
Q 76.514282 33.305325 76.847055 33.479634 
Q 77.179827 33.653944 77.179827 34.034255 
Q 77.179827 34.39872 76.861317 34.61106 
Q 76.542806 34.823401 76.026216 34.823401 
Q 75.474765 34.823401 75.084946 34.568275 
Q 74.695126 34.31315 74.653926 33.75536 
L 74.070782 33.806068 
Q 74.099305 34.503306 74.585787 34.940664 
Q 75.072268 35.378022 76.05157 35.378022 
Q 76.818531 35.378022 77.295505 34.981864 
Q 77.772479 34.585706 77.772479 33.986716 
Q 77.772479 33.514496 77.5126 33.234016 
Q 77.25272 32.953537 76.888255 32.820428 
Q 76.52379 32.687319 75.946985 32.560548 
Q 75.297286 32.414762 75.067515 32.267392 
Q 74.837743 32.120021 74.837743 31.818941 
Q 74.837743 31.47983 75.135654 31.302352 
Q 75.433564 31.124873 75.908953 31.124873 
Q 76.435051 31.124873 76.717115 31.348306 
Q 76.999179 31.571739 77.037211 32.015435 
M 70.90469 32.015435 
L 71.494172 31.967896 
Q 71.465649 31.299182 70.995014 30.936302 
Q 70.524378 30.573421 69.751079 30.573421 
Q 68.996794 30.573421 68.559436 30.937886 
Q 68.122078 31.302352 68.122078 31.860142 
Q 68.122078 32.351377 68.467528 32.658795 
Q 68.812977 32.966214 69.597369 33.135769 
Q 70.381762 33.305325 70.714534 33.479634 
Q 71.047306 33.653944 71.047306 34.034255 
Q 71.047306 34.39872 70.728796 34.61106 
Q 70.410285 34.823401 69.893695 34.823401 
Q 69.342244 34.823401 68.952425 34.568275 
Q 68.562606 34.31315 68.521405 33.75536 
L 67.938261 33.806068 
Q 67.966784 34.503306 68.453266 34.940664 
Q 68.939748 35.378022 69.919049 35.378022 
Q 70.686011 35.378022 71.162985 34.981864 
Q 71.639958 34.585706 71.639958 33.986716 
Q 71.639958 33.514496 71.380079 33.234016 
Q 71.120199 32.953537 70.755734 32.820428 
Q 70.391269 32.687319 69.814464 32.560548 
Q 69.164765 32.414762 68.934994 32.267392 
Q 68.705222 32.120021 68.705222 31.818941 
Q 68.705222 31.47983 69.003133 31.302352 
Q 69.301043 31.124873 69.776433 31.124873 
Q 70.30253 31.124873 70.584594 31.348306 
Q 70.866659 31.571739 70.90469 32.015435 
M 58.468508 35.29879 
L 58.468508 30.652653 
L 57.850502 30.652653 
L 57.850502 32.560548 
L 55.435525 32.560548 
L 55.435525 30.652653 
L 54.820688 30.652653 
L 54.820688 35.29879 
L 55.435525 35.29879 
L 55.435525 33.112 
L 57.850502 33.112 
L 57.850502 35.29879 
L 58.468508 35.29879 
M 47.51871 31.156566 
L 47.51871 30.716038 
L 44.511081 30.716038 
L 44.511081 31.26749 
L 46.783441 31.26749 
Q 46.073527 32.085159 45.628245 33.21817 
Q 45.182964 34.351181 45.160779 35.29879 
L 45.743923 35.29879 
Q 45.832663 34.119825 46.333406 33.013753 
Q 46.834149 31.90768 47.51871 31.156566 
M 73.189727 35.29879 
L 73.189727 30.652653 
L 72.571721 30.652653 
L 72.571721 35.29879 
L 73.189727 35.29879 
M 61.897649 33.397233 
L 60.319357 33.397233 
L 60.839115 32.005928 
Q 60.988071 31.606601 61.07681 31.13755 
L 61.092656 31.13755 
Q 61.181396 31.47983 61.254289 31.684248 
Q 61.327182 31.888665 61.897649 33.397233 
" clip-path="url(#pe353651380)" style="fill: #ff0000"/>
   </g>
   <g id="patch_5">
    <path d="M 62.024419 133.564592 
L 77.511543 133.564592 
L 77.511543 129.073326 
L 62.024419 129.073326 
L 62.024419 133.564592 
" clip-path="url(#pe353651380)" style="fill: none; stroke: #ffffff; stroke-width: 0.48; stroke-linejoin: miter"/>
   </g>
   <g id="patch_6">
    <path d="M 216.89566 133.564592 
L 232.382784 133.564592 
L 232.382784 129.073326 
L 216.89566 129.073326 
L 216.89566 133.564592 
" clip-path="url(#pe353651380)" style="fill: none; stroke: #ffffff; stroke-width: 0.48; stroke-linejoin: miter"/>
   </g>
   <g id="patch_7">
    <path d="M 62.024419 40.641848 
L 77.511543 40.641848 
L 77.511543 36.150582 
L 62.024419 36.150582 
L 62.024419 40.641848 
" clip-path="url(#pe353651380)" style="fill: none; stroke: #ffffff; stroke-width: 0.48; stroke-linejoin: miter"/>
   </g>
   <g id="patch_8">
    <path d="M 216.89566 40.641848 
L 232.382784 40.641848 
L 232.382784 36.150582 
L 216.89566 36.150582 
L 216.89566 40.641848 
" clip-path="url(#pe353651380)" style="fill: none; stroke: #ffffff; stroke-width: 0.48; stroke-linejoin: miter"/>
   </g>
   <g id="patch_9">
    <path d="M 139.46004 87.10322 
L 154.947164 87.10322 
L 154.947164 82.611954 
L 139.46004 82.611954 
L 139.46004 87.10322 
" clip-path="url(#pe353651380)" style="fill: none; stroke: #ffffff; stroke-width: 0.48; stroke-linejoin: miter"/>
   </g>
   <g id="patch_10">
    <path d="M 64.502359 139.062522 
C 64.502359 140.43105 63.392948 141.540461 62.024419 141.540461 
C 60.655891 141.540461 59.546479 140.43105 59.546479 139.062522 
C 59.546479 137.693993 60.655891 136.584582 62.024419 136.584582 
C 63.392948 136.584582 64.502359 137.693993 64.502359 139.062522 
" clip-path="url(#pe353651380)" style="fill: none; stroke: #ffffff; stroke-width: 0.48; stroke-linejoin: miter"/>
   </g>
   <g id="patch_11">
    <path d="M 64.502359 30.652653 
C 64.502359 32.021181 63.392948 33.130593 62.024419 33.130593 
C 60.655891 33.130593 59.546479 32.021181 59.546479 30.652653 
C 59.546479 29.284125 60.655891 28.174713 62.024419 28.174713 
C 63.392948 28.174713 64.502359 29.284125 64.502359 30.652653 
" clip-path="url(#pe353651380)" style="fill: none; stroke: #ffffff; stroke-width: 0.48; stroke-linejoin: miter"/>
   </g>
   <g id="patch_12">
    <path d="M 234.860724 139.062522 
C 234.860724 140.43105 233.751312 141.540461 232.382784 141.540461 
C 231.014256 141.540461 229.904844 140.43105 229.904844 139.062522 
C 229.904844 137.693993 231.014256 136.584582 232.382784 136.584582 
C 233.751312 136.584582 234.860724 137.693993 234.860724 139.062522 
" clip-path="url(#pe353651380)" style="fill: none; stroke: #ffffff; stroke-width: 0.48; stroke-linejoin: miter"/>
   </g>
   <g id="patch_13">
    <path d="M 234.860724 30.652653 
C 234.860724 32.021181 233.751312 33.130593 232.382784 33.130593 
C 231.014256 33.130593 229.904844 32.021181 229.904844 30.652653 
C 229.904844 29.284125 231.014256 28.174713 232.382784 28.174713 
C 233.751312 28.174713 234.860724 29.284125 234.860724 30.652653 
" clip-path="url(#pe353651380)" style="fill: none; stroke: #ffffff; stroke-width: 0.48; stroke-linejoin: miter"/>
   </g>
   <g id="patch_14">
    <path d="M 119.326778 115.831835 
C 119.326778 117.542496 117.940014 118.92926 116.229354 118.92926 
C 114.518693 118.92926 113.131929 117.542496 113.131929 115.831835 
C 113.131929 114.121175 114.518693 112.734411 116.229354 112.734411 
C 117.940014 112.734411 119.326778 114.121175 119.326778 115.831835 
" clip-path="url(#pe353651380)" style="fill: none; stroke: #ffffff; stroke-width: 0.48; stroke-linejoin: miter"/>
   </g>
   <g id="patch_15">
    <path d="M 181.275275 115.831835 
C 181.275275 117.542496 179.88851 118.92926 178.17785 118.92926 
C 176.467189 118.92926 175.080425 117.542496 175.080425 115.831835 
C 175.080425 114.121175 176.467189 112.734411 178.17785 112.734411 
C 179.88851 112.734411 181.275275 114.121175 181.275275 115.831835 
" clip-path="url(#pe353651380)" style="fill: none; stroke: #ffffff; stroke-width: 0.48; stroke-linejoin: miter"/>
   </g>
   <g id="patch_16">
    <path d="M 275.746732 146.806084 
L 508.053593 146.806084 
L 508.053593 100.344711 
L 275.746732 100.344711 
L 275.746732 146.806084 
" clip-path="url(#pe353651380)" style="fill: none; stroke: #ffffff; stroke-width: 0.48; stroke-linejoin: miter"/>
   </g>
   <g id="patch_17">
    <path d="M 306.72098 151.452221 
L 322.208104 151.452221 
L 322.208104 146.806084 
L 306.72098 146.806084 
L 306.72098 151.452221 
" clip-path="url(#pe353651380)" style="fill: none; stroke: #ffffff; stroke-width: 0.48; stroke-linejoin: miter"/>
   </g>
   <g id="patch_18">
    <path d="M 461.59222 151.452221 
L 477.079345 151.452221 
L 477.079345 146.806084 
L 461.59222 146.806084 
L 461.59222 151.452221 
" clip-path="url(#pe353651380)" style="fill: none; stroke: #ffffff; stroke-width: 0.48; stroke-linejoin: miter"/>
   </g>
   <g id="patch_19">
    <path d="M 303.623555 100.344711 
L 303.623555 112.734411 
L 309.818405 112.734411 
L 309.818405 100.344711 
" clip-path="url(#pe353651380)" style="fill: none; stroke: #ffffff; stroke-width: 0.48; stroke-linejoin: miter"/>
   </g>
   <g id="patch_20">
    <path d="M 473.98192 100.344711 
L 473.98192 112.734411 
L 480.176769 112.734411 
L 480.176769 100.344711 
" clip-path="url(#pe353651380)" style="fill: none; stroke: #ffffff; stroke-width: 0.48; stroke-linejoin: miter"/>
   </g>
   <g id="patch_21">
    <path d="M 288.402649 115.831835 
L 288.402649 111.185698 
L 287.584979 111.185698 
L 286.475738 114.418345 
Q 286.314105 114.893734 286.228535 115.163121 
L 286.215858 115.163121 
Q 286.187335 115.023674 286.003518 114.475391 
L 284.903784 111.185698 
L 283.984698 111.185698 
L 283.984698 115.831835 
L 284.567842 115.831835 
L 284.567842 111.879766 
L 284.586858 111.879766 
L 285.917948 115.831835 
L 286.469399 115.831835 
L 287.806828 111.943152 
L 287.819505 111.943152 
L 287.819505 115.831835 
L 288.402649 115.831835 
M 303.333039 115.831835 
L 301.437821 111.185698 
L 300.775445 111.185698 
L 298.991151 115.831835 
L 299.64085 115.831835 
L 300.15427 114.418345 
L 302.093858 114.418345 
L 302.638971 115.831835 
L 303.333039 115.831835 
M 298.924597 115.831835 
L 298.113266 114.5673 
Q 297.704431 113.927109 297.23855 113.721107 
L 297.23855 113.70843 
Q 297.875571 113.62286 298.208344 113.302765 
Q 298.541116 112.982669 298.541116 112.456572 
Q 298.541116 112.165 298.425438 111.901951 
Q 298.30976 111.638903 298.09425 111.466178 
Q 297.87874 111.293453 297.593507 111.239576 
Q 297.308273 111.185698 296.886762 111.185698 
L 294.829911 111.185698 
L 294.829911 115.831835 
L 295.444748 115.831835 
L 295.444748 113.781323 
L 296.154662 113.781323 
Q 296.424049 113.781323 296.587266 113.828862 
Q 296.750483 113.876401 296.935885 114.055464 
Q 297.121287 114.234528 297.289258 114.484899 
Q 297.457229 114.735271 298.151297 115.831835 
L 298.924597 115.831835 
M 292.21527 111.689611 
L 292.21527 111.249083 
L 289.207641 111.249083 
L 289.207641 111.800535 
L 291.480002 111.800535 
Q 290.770087 112.618204 290.324806 113.751215 
Q 289.879525 114.884226 289.85734 115.831835 
L 290.440484 115.831835 
Q 290.529223 114.65287 291.029966 113.546798 
Q 291.53071 112.440726 292.21527 111.689611 
M 313.937388 115.831835 
L 313.937388 115.280384 
L 311.646012 115.280384 
L 311.646012 111.185698 
L 311.031175 111.185698 
L 311.031175 115.831835 
L 313.937388 115.831835 
M 308.524289 115.831835 
L 308.524289 115.280384 
L 306.232913 115.280384 
L 306.232913 111.185698 
L 305.618077 111.185698 
L 305.618077 115.831835 
L 308.524289 115.831835 
M 304.540528 115.831835 
L 304.540528 111.185698 
L 303.922522 111.185698 
L 303.922522 115.831835 
L 304.540528 115.831835 
M 301.906872 113.930279 
L 300.328579 113.930279 
L 300.848338 112.538973 
Q 300.997294 112.139646 301.086033 111.670595 
L 301.101879 111.670595 
Q 301.190619 112.012875 301.263512 112.217293 
Q 301.336405 112.42171 301.906872 113.930279 
M 295.444748 113.229872 
L 295.444748 111.695949 
L 296.912116 111.695949 
Q 297.444552 111.695949 297.675908 111.917798 
Q 297.907264 112.139646 297.907264 112.456572 
Q 297.907264 112.700605 297.767816 112.897099 
Q 297.628369 113.093594 297.395428 113.161733 
Q 297.162487 113.229872 296.76316 113.229872 
L 295.444748 113.229872 
" clip-path="url(#pe353651380)" style="fill: #ff0000"/>
   </g>
   <g id="patch_22">
    <path d="M 275.746732 87.955012 
L 508.053593 87.955012 
L 508.053593 41.49364 
L 275.746732 41.49364 
L 275.746732 87.955012 
" clip-path="url(#pe353651380)" style="fill: none; stroke: #ffffff; stroke-width: 0.48; stroke-linejoin: miter"/>
   </g>
   <g id="patch_23">
    <path d="M 306.72098 92.601149 
L 322.208104 92.601149 
L 322.208104 87.955012 
L 306.72098 87.955012 
L 306.72098 92.601149 
" clip-path="url(#pe353651380)" style="fill: none; stroke: #ffffff; stroke-width: 0.48; stroke-linejoin: miter"/>
   </g>
   <g id="patch_24">
    <path d="M 461.59222 92.601149 
L 477.079345 92.601149 
L 477.079345 87.955012 
L 461.59222 87.955012 
L 461.59222 92.601149 
" clip-path="url(#pe353651380)" style="fill: none; stroke: #ffffff; stroke-width: 0.48; stroke-linejoin: miter"/>
   </g>
   <g id="patch_25">
    <path d="M 303.623555 41.49364 
L 303.623555 53.883339 
L 309.818405 53.883339 
L 309.818405 41.49364 
" clip-path="url(#pe353651380)" style="fill: none; stroke: #ffffff; stroke-width: 0.48; stroke-linejoin: miter"/>
   </g>
   <g id="patch_26">
    <path d="M 473.98192 41.49364 
L 473.98192 53.883339 
L 480.176769 53.883339 
L 480.176769 41.49364 
" clip-path="url(#pe353651380)" style="fill: none; stroke: #ffffff; stroke-width: 0.48; stroke-linejoin: miter"/>
   </g>
   <g id="patch_27">
    <path d="M 288.402649 56.980764 
L 288.402649 52.334627 
L 287.584979 52.334627 
L 286.475738 55.567273 
Q 286.314105 56.042663 286.228535 56.31205 
L 286.215858 56.31205 
Q 286.187335 56.172602 286.003518 55.62432 
L 284.903784 52.334627 
L 283.984698 52.334627 
L 283.984698 56.980764 
L 284.567842 56.980764 
L 284.567842 53.028695 
L 284.586858 53.028695 
L 285.917948 56.980764 
L 286.469399 56.980764 
L 287.806828 53.09208 
L 287.819505 53.09208 
L 287.819505 56.980764 
L 288.402649 56.980764 
M 303.333039 56.980764 
L 301.437821 52.334627 
L 300.775445 52.334627 
L 298.991151 56.980764 
L 299.64085 56.980764 
L 300.15427 55.567273 
L 302.093858 55.567273 
L 302.638971 56.980764 
L 303.333039 56.980764 
M 315.157554 56.980764 
L 314.346223 55.716229 
Q 313.937388 55.076038 313.471506 54.870036 
L 313.471506 54.857359 
Q 314.108528 54.771789 314.4413 54.451693 
Q 314.774073 54.131598 314.774073 53.6055 
Q 314.774073 53.313928 314.658395 53.05088 
Q 314.542717 52.787831 314.327207 52.615106 
Q 314.111697 52.442382 313.826464 52.388504 
Q 313.54123 52.334627 313.119718 52.334627 
L 311.062868 52.334627 
L 311.062868 56.980764 
L 311.677705 56.980764 
L 311.677705 54.930252 
L 312.387619 54.930252 
Q 312.657006 54.930252 312.820223 54.977791 
Q 312.98344 55.02533 313.168842 55.204393 
Q 313.354244 55.383456 313.522215 55.633828 
Q 313.690186 55.884199 314.384254 56.980764 
L 315.157554 56.980764 
M 298.924597 56.980764 
L 298.113266 55.716229 
Q 297.704431 55.076038 297.23855 54.870036 
L 297.23855 54.857359 
Q 297.875571 54.771789 298.208344 54.451693 
Q 298.541116 54.131598 298.541116 53.6055 
Q 298.541116 53.313928 298.425438 53.05088 
Q 298.30976 52.787831 298.09425 52.615106 
Q 297.87874 52.442382 297.593507 52.388504 
Q 297.308273 52.334627 296.886762 52.334627 
L 294.829911 52.334627 
L 294.829911 56.980764 
L 295.444748 56.980764 
L 295.444748 54.930252 
L 296.154662 54.930252 
Q 296.424049 54.930252 296.587266 54.977791 
Q 296.750483 55.02533 296.935885 55.204393 
Q 297.121287 55.383456 297.289258 55.633828 
Q 297.457229 55.884199 298.151297 56.980764 
L 298.924597 56.980764 
M 292.21527 52.838539 
L 292.21527 52.398012 
L 289.207641 52.398012 
L 289.207641 52.949463 
L 291.480002 52.949463 
Q 290.770087 53.767133 290.324806 54.900144 
Q 289.879525 56.033155 289.85734 56.980764 
L 290.440484 56.980764 
Q 290.529223 55.801799 291.029966 54.695726 
Q 291.53071 53.589654 292.21527 52.838539 
M 308.524289 56.980764 
L 308.524289 56.429312 
L 306.232913 56.429312 
L 306.232913 52.334627 
L 305.618077 52.334627 
L 305.618077 56.980764 
L 308.524289 56.980764 
M 304.540528 56.980764 
L 304.540528 52.334627 
L 303.922522 52.334627 
L 303.922522 56.980764 
L 304.540528 56.980764 
M 301.906872 55.079207 
L 300.328579 55.079207 
L 300.848338 53.687901 
Q 300.997294 53.288574 301.086033 52.819524 
L 301.101879 52.819524 
Q 301.190619 53.161804 301.263512 53.366221 
Q 301.336405 53.570639 301.906872 55.079207 
M 311.677705 54.3788 
L 311.677705 52.844878 
L 313.145073 52.844878 
Q 313.677508 52.844878 313.908865 53.066726 
Q 314.140221 53.288574 314.140221 53.6055 
Q 314.140221 53.849534 314.000773 54.046028 
Q 313.861326 54.242522 313.628385 54.310661 
Q 313.395444 54.3788 312.996117 54.3788 
L 311.677705 54.3788 
M 295.444748 54.3788 
L 295.444748 52.844878 
L 296.912116 52.844878 
Q 297.444552 52.844878 297.675908 53.066726 
Q 297.907264 53.288574 297.907264 53.6055 
Q 297.907264 53.849534 297.767816 54.046028 
Q 297.628369 54.242522 297.395428 54.310661 
Q 297.162487 54.3788 296.76316 54.3788 
L 295.444748 54.3788 
" clip-path="url(#pe353651380)" style="fill: #ff0000"/>
   </g>
   <g id="patch_28">
    <path d="M 131.716478 213.400717 
C 131.716478 239.060624 110.915013 259.862089 85.255105 259.862089 
C 59.595198 259.862089 38.793733 239.060624 38.793733 213.400717 
C 38.793733 187.74081 59.595198 166.939345 85.255105 166.939345 
C 110.915013 166.939345 131.716478 187.74081 131.716478 213.400717 
" clip-path="url(#pe353651380)" style="fill: none; stroke: #ffffff; stroke-width: 0.48; stroke-linejoin: miter"/>
   </g>
   <g id="patch_29">
    <path d="M 87.733045 213.400717 
C 87.733045 214.769245 86.623634 215.878657 85.255105 215.878657 
C 83.886577 215.878657 82.777166 214.769245 82.777166 213.400717 
C 82.777166 212.032189 83.886577 210.922777 85.255105 210.922777 
C 86.623634 210.922777 87.733045 212.032189 87.733045 213.400717 
" clip-path="url(#pe353651380)" style="fill: none; stroke: #ffffff; stroke-width: 0.48; stroke-linejoin: miter"/>
   </g>
   <g id="patch_30">
    <path d="M 127.07034 213.400717 
C 127.07034 236.494634 108.349022 255.215952 85.255105 255.215952 
C 62.161189 255.215952 43.43987 236.494634 43.43987 213.400717 
C 43.43987 190.3068 62.161189 171.585482 85.255105 171.585482 
C 108.349022 171.585482 127.07034 190.3068 127.07034 213.400717 
" clip-path="url(#pe353651380)" style="fill: none; stroke: #ff0000; stroke-width: 0.48; stroke-linejoin: miter"/>
   </g>
   <g id="patch_31">
    <path d="M 119.326778 213.400717 
C 119.326778 217.677368 115.859868 221.144279 111.583216 221.144279 
C 107.306565 221.144279 103.839654 217.677368 103.839654 213.400717 
C 103.839654 209.124066 107.306565 205.657155 111.583216 205.657155 
C 115.859868 205.657155 119.326778 209.124066 119.326778 213.400717 
" clip-path="url(#pe353651380)" style="fill: none; stroke: #ffffff; stroke-width: 0.48; stroke-linejoin: miter"/>
   </g>
   <g id="patch_32">
    <path d="M 106.162723 190.599904 
C 106.162723 194.876555 102.695812 198.343466 98.419161 198.343466 
C 94.14251 198.343466 90.675599 194.876555 90.675599 190.599904 
C 90.675599 186.323253 94.14251 182.856342 98.419161 182.856342 
C 102.695812 182.856342 106.162723 186.323253 106.162723 190.599904 
" clip-path="url(#pe353651380)" style="fill: none; stroke: #ffffff; stroke-width: 0.48; stroke-linejoin: miter"/>
   </g>
   <g id="patch_33">
    <path d="M 79.834612 190.599904 
C 79.834612 194.876555 76.367701 198.343466 72.09105 198.343466 
C 67.814399 198.343466 64.347488 194.876555 64.347488 190.599904 
C 64.347488 186.323253 67.814399 182.856342 72.09105 182.856342 
C 76.367701 182.856342 79.834612 186.323253 79.834612 190.599904 
" clip-path="url(#pe353651380)" style="fill: none; stroke: #ffffff; stroke-width: 0.48; stroke-linejoin: miter"/>
   </g>
   <g id="patch_34">
    <path d="M 66.670556 213.400717 
C 66.670556 217.677368 63.203646 221.144279 58.926994 221.144279 
C 54.650343 221.144279 51.183432 217.677368 51.183432 213.400717 
C 51.183432 209.124066 54.650343 205.657155 58.926994 205.657155 
C 63.203646 205.657155 66.670556 209.124066 66.670556 213.400717 
" clip-path="url(#pe353651380)" style="fill: none; stroke: #ffffff; stroke-width: 0.48; stroke-linejoin: miter"/>
   </g>
   <g id="patch_35">
    <path d="M 79.834612 236.20153 
C 79.834612 240.478181 76.367701 243.945092 72.09105 243.945092 
C 67.814399 243.945092 64.347488 240.478181 64.347488 236.20153 
C 64.347488 231.924879 67.814399 228.457968 72.09105 228.457968 
C 76.367701 228.457968 79.834612 231.924879 79.834612 236.20153 
" clip-path="url(#pe353651380)" style="fill: none; stroke: #ffffff; stroke-width: 0.48; stroke-linejoin: miter"/>
   </g>
   <g id="patch_36">
    <path d="M 106.162723 236.20153 
C 106.162723 240.478181 102.695812 243.945092 98.419161 243.945092 
C 94.14251 243.945092 90.675599 240.478181 90.675599 236.20153 
C 90.675599 231.924879 94.14251 228.457968 98.419161 228.457968 
C 102.695812 228.457968 106.162723 231.924879 106.162723 236.20153 
" clip-path="url(#pe353651380)" style="fill: none; stroke: #ffffff; stroke-width: 0.48; stroke-linejoin: miter"/>
   </g>
   <g id="patch_37">
    <path d="M 80.00047 213.400717 
L 79.588466 213.400717 
L 79.1004 215.391013 
Q 78.99687 215.813581 78.952501 216.06501 
L 78.944049 216.06501 
Q 78.8701 215.549476 78.705298 214.966332 
L 78.265828 213.400717 
L 77.767197 213.400717 
L 77.177714 215.490317 
Q 77.129119 215.66357 77.044605 216.06501 
L 77.036154 216.06501 
Q 77.036154 216.058671 77.031928 216.02064 
Q 77.006574 215.832597 76.911496 215.43327 
L 76.433994 213.400717 
L 76.015652 213.400717 
L 76.841773 216.498142 
L 77.25589 216.498142 
L 77.915096 214.140211 
L 78.001722 213.772577 
L 78.010174 213.772577 
Q 78.024964 213.869768 78.077785 214.057811 
L 78.753894 216.498142 
L 79.146882 216.498142 
L 80.00047 213.400717 
M 81.669614 216.498142 
L 81.669614 213.385927 
L 81.422412 213.385927 
Q 81.183661 213.850752 80.526567 214.165565 
L 80.526567 214.5332 
Q 81.004069 214.345157 81.289303 214.074713 
L 81.289303 216.498142 
L 81.669614 216.498142 
" clip-path="url(#pe353651380)" style="fill: #ff0000"/>
   </g>
   <g id="patch_38">
    <path d="M 237.028921 213.400717 
C 237.028921 239.060624 216.227456 259.862089 190.567549 259.862089 
C 164.907642 259.862089 144.106177 239.060624 144.106177 213.400717 
C 144.106177 187.74081 164.907642 166.939345 190.567549 166.939345 
C 216.227456 166.939345 237.028921 187.74081 237.028921 213.400717 
" clip-path="url(#pe353651380)" style="fill: none; stroke: #ffffff; stroke-width: 0.48; stroke-linejoin: miter"/>
   </g>
   <g id="patch_39">
    <path d="M 193.045489 213.400717 
C 193.045489 214.769245 191.936077 215.878657 190.567549 215.878657 
C 189.199021 215.878657 188.089609 214.769245 188.089609 213.400717 
C 188.089609 212.032189 189.199021 210.922777 190.567549 210.922777 
C 191.936077 210.922777 193.045489 212.032189 193.045489 213.400717 
" clip-path="url(#pe353651380)" style="fill: none; stroke: #ffffff; stroke-width: 0.48; stroke-linejoin: miter"/>
   </g>
   <g id="patch_40">
    <path d="M 232.382784 213.400717 
C 232.382784 236.494634 213.661466 255.215952 190.567549 255.215952 
C 167.473632 255.215952 148.752314 236.494634 148.752314 213.400717 
C 148.752314 190.3068 167.473632 171.585482 190.567549 171.585482 
C 213.661466 171.585482 232.382784 190.3068 232.382784 213.400717 
" clip-path="url(#pe353651380)" style="fill: none; stroke: #ff0000; stroke-width: 0.48; stroke-linejoin: miter"/>
   </g>
   <g id="patch_41">
    <path d="M 224.639222 213.400717 
C 224.639222 217.677368 221.172311 221.144279 216.89566 221.144279 
C 212.619009 221.144279 209.152098 217.677368 209.152098 213.400717 
C 209.152098 209.124066 212.619009 205.657155 216.89566 205.657155 
C 221.172311 205.657155 224.639222 209.124066 224.639222 213.400717 
" clip-path="url(#pe353651380)" style="fill: none; stroke: #ffffff; stroke-width: 0.48; stroke-linejoin: miter"/>
   </g>
   <g id="patch_42">
    <path d="M 211.475167 190.599904 
C 211.475167 194.876555 208.008256 198.343466 203.731605 198.343466 
C 199.454953 198.343466 195.988043 194.876555 195.988043 190.599904 
C 195.988043 186.323253 199.454953 182.856342 203.731605 182.856342 
C 208.008256 182.856342 211.475167 186.323253 211.475167 190.599904 
" clip-path="url(#pe353651380)" style="fill: none; stroke: #ffffff; stroke-width: 0.48; stroke-linejoin: miter"/>
   </g>
   <g id="patch_43">
    <path d="M 185.147056 190.599904 
C 185.147056 194.876555 181.680145 198.343466 177.403494 198.343466 
C 173.126842 198.343466 169.659932 194.876555 169.659932 190.599904 
C 169.659932 186.323253 173.126842 182.856342 177.403494 182.856342 
C 181.680145 182.856342 185.147056 186.323253 185.147056 190.599904 
" clip-path="url(#pe353651380)" style="fill: none; stroke: #ffffff; stroke-width: 0.48; stroke-linejoin: miter"/>
   </g>
   <g id="patch_44">
    <path d="M 171.983 213.400717 
C 171.983 217.677368 168.516089 221.144279 164.239438 221.144279 
C 159.962787 221.144279 156.495876 217.677368 156.495876 213.400717 
C 156.495876 209.124066 159.962787 205.657155 164.239438 205.657155 
C 168.516089 205.657155 171.983 209.124066 171.983 213.400717 
" clip-path="url(#pe353651380)" style="fill: none; stroke: #ffffff; stroke-width: 0.48; stroke-linejoin: miter"/>
   </g>
   <g id="patch_45">
    <path d="M 185.147056 236.20153 
C 185.147056 240.478181 181.680145 243.945092 177.403494 243.945092 
C 173.126842 243.945092 169.659932 240.478181 169.659932 236.20153 
C 169.659932 231.924879 173.126842 228.457968 177.403494 228.457968 
C 181.680145 228.457968 185.147056 231.924879 185.147056 236.20153 
" clip-path="url(#pe353651380)" style="fill: none; stroke: #ffffff; stroke-width: 0.48; stroke-linejoin: miter"/>
   </g>
   <g id="patch_46">
    <path d="M 211.475167 236.20153 
C 211.475167 240.478181 208.008256 243.945092 203.731605 243.945092 
C 199.454953 243.945092 195.988043 240.478181 195.988043 236.20153 
C 195.988043 231.924879 199.454953 228.457968 203.731605 228.457968 
C 208.008256 228.457968 211.475167 231.924879 211.475167 236.20153 
" clip-path="url(#pe353651380)" style="fill: none; stroke: #ffffff; stroke-width: 0.48; stroke-linejoin: miter"/>
   </g>
   <g id="patch_47">
    <path d="M 185.312914 213.400717 
L 184.90091 213.400717 
L 184.412843 215.391013 
Q 184.309314 215.813581 184.264945 216.06501 
L 184.256493 216.06501 
Q 184.182544 215.549476 184.017742 214.966332 
L 183.578271 213.400717 
L 183.079641 213.400717 
L 182.490158 215.490317 
Q 182.441563 215.66357 182.357049 216.06501 
L 182.348598 216.06501 
Q 182.348598 216.058671 182.344372 216.02064 
Q 182.319018 215.832597 182.22394 215.43327 
L 181.746438 213.400717 
L 181.328096 213.400717 
L 182.154216 216.498142 
L 182.568333 216.498142 
L 183.22754 214.140211 
L 183.314166 213.772577 
L 183.322618 213.772577 
Q 183.337407 213.869768 183.390228 214.057811 
L 184.066338 216.498142 
L 184.459326 216.498142 
L 185.312914 213.400717 
M 187.544074 216.498142 
L 187.544074 216.130508 
L 186.020715 216.130508 
Q 186.130583 215.936126 186.466525 215.667795 
Q 187.106716 215.156488 187.321169 214.851182 
Q 187.535622 214.545877 187.535622 214.247966 
Q 187.535622 213.890896 187.281025 213.638412 
Q 187.026428 213.385927 186.570054 213.385927 
Q 186.149599 213.385927 185.875986 213.616227 
Q 185.602373 213.846527 185.566455 214.281772 
L 185.95733 214.326141 
Q 185.959443 214.013441 186.132696 213.856034 
Q 186.305949 213.698628 186.561603 213.698628 
Q 186.815144 213.698628 186.981002 213.851809 
Q 187.14686 214.00499 187.14686 214.239515 
Q 187.14686 214.512071 186.905996 214.781459 
Q 186.665132 215.050846 186.35877 215.295935 
Q 185.858027 215.699488 185.675266 215.967819 
Q 185.492505 216.23615 185.492505 216.498142 
L 187.544074 216.498142 
" clip-path="url(#pe353651380)" style="fill: #ff0000"/>
   </g>
   <g id="patch_48">
    <path d="M 342.341365 213.400717 
C 342.341365 239.060624 321.5399 259.862089 295.879993 259.862089 
C 270.220085 259.862089 249.418621 239.060624 249.418621 213.400717 
C 249.418621 187.74081 270.220085 166.939345 295.879993 166.939345 
C 321.5399 166.939345 342.341365 187.74081 342.341365 213.400717 
" clip-path="url(#pe353651380)" style="fill: none; stroke: #ffffff; stroke-width: 0.48; stroke-linejoin: miter"/>
   </g>
   <g id="patch_49">
    <path d="M 298.357933 213.400717 
C 298.357933 214.769245 297.248521 215.878657 295.879993 215.878657 
C 294.511464 215.878657 293.402053 214.769245 293.402053 213.400717 
C 293.402053 212.032189 294.511464 210.922777 295.879993 210.922777 
C 297.248521 210.922777 298.357933 212.032189 298.357933 213.400717 
" clip-path="url(#pe353651380)" style="fill: none; stroke: #ffffff; stroke-width: 0.48; stroke-linejoin: miter"/>
   </g>
   <g id="patch_50">
    <path d="M 337.695228 213.400717 
C 337.695228 236.494634 318.973909 255.215952 295.879993 255.215952 
C 272.786076 255.215952 254.064758 236.494634 254.064758 213.400717 
C 254.064758 190.3068 272.786076 171.585482 295.879993 171.585482 
C 318.973909 171.585482 337.695228 190.3068 337.695228 213.400717 
" clip-path="url(#pe353651380)" style="fill: none; stroke: #ff0000; stroke-width: 0.48; stroke-linejoin: miter"/>
   </g>
   <g id="patch_51">
    <path d="M 329.951666 213.400717 
C 329.951666 217.677368 326.484755 221.144279 322.208104 221.144279 
C 317.931453 221.144279 314.464542 217.677368 314.464542 213.400717 
C 314.464542 209.124066 317.931453 205.657155 322.208104 205.657155 
C 326.484755 205.657155 329.951666 209.124066 329.951666 213.400717 
" clip-path="url(#pe353651380)" style="fill: none; stroke: #ffffff; stroke-width: 0.48; stroke-linejoin: miter"/>
   </g>
   <g id="patch_52">
    <path d="M 316.78761 190.599904 
C 316.78761 194.876555 313.3207 198.343466 309.044048 198.343466 
C 304.767397 198.343466 301.300486 194.876555 301.300486 190.599904 
C 301.300486 186.323253 304.767397 182.856342 309.044048 182.856342 
C 313.3207 182.856342 316.78761 186.323253 316.78761 190.599904 
" clip-path="url(#pe353651380)" style="fill: none; stroke: #ffffff; stroke-width: 0.48; stroke-linejoin: miter"/>
   </g>
   <g id="patch_53">
    <path d="M 290.459499 190.599904 
C 290.459499 194.876555 286.992589 198.343466 282.715937 198.343466 
C 278.439286 198.343466 274.972375 194.876555 274.972375 190.599904 
C 274.972375 186.323253 278.439286 182.856342 282.715937 182.856342 
C 286.992589 182.856342 290.459499 186.323253 290.459499 190.599904 
" clip-path="url(#pe353651380)" style="fill: none; stroke: #ffffff; stroke-width: 0.48; stroke-linejoin: miter"/>
   </g>
   <g id="patch_54">
    <path d="M 277.295444 213.400717 
C 277.295444 217.677368 273.828533 221.144279 269.551882 221.144279 
C 265.275231 221.144279 261.80832 217.677368 261.80832 213.400717 
C 261.80832 209.124066 265.275231 205.657155 269.551882 205.657155 
C 273.828533 205.657155 277.295444 209.124066 277.295444 213.400717 
" clip-path="url(#pe353651380)" style="fill: none; stroke: #ffffff; stroke-width: 0.48; stroke-linejoin: miter"/>
   </g>
   <g id="patch_55">
    <path d="M 290.459499 236.20153 
C 290.459499 240.478181 286.992589 243.945092 282.715937 243.945092 
C 278.439286 243.945092 274.972375 240.478181 274.972375 236.20153 
C 274.972375 231.924879 278.439286 228.457968 282.715937 228.457968 
C 286.992589 228.457968 290.459499 231.924879 290.459499 236.20153 
" clip-path="url(#pe353651380)" style="fill: none; stroke: #ffffff; stroke-width: 0.48; stroke-linejoin: miter"/>
   </g>
   <g id="patch_56">
    <path d="M 316.78761 236.20153 
C 316.78761 240.478181 313.3207 243.945092 309.044048 243.945092 
C 304.767397 243.945092 301.300486 240.478181 301.300486 236.20153 
C 301.300486 231.924879 304.767397 228.457968 309.044048 228.457968 
C 313.3207 228.457968 316.78761 231.924879 316.78761 236.20153 
" clip-path="url(#pe353651380)" style="fill: none; stroke: #ffffff; stroke-width: 0.48; stroke-linejoin: miter"/>
   </g>
   <g id="patch_57">
    <path d="M 290.625357 213.400717 
L 290.213353 213.400717 
L 289.725287 215.391013 
Q 289.621758 215.813581 289.577388 216.06501 
L 289.568937 216.06501 
Q 289.494988 215.549476 289.330186 214.966332 
L 288.890715 213.400717 
L 288.392085 213.400717 
L 287.802602 215.490317 
Q 287.754007 215.66357 287.669493 216.06501 
L 287.661042 216.06501 
Q 287.661042 216.058671 287.656816 216.02064 
Q 287.631462 215.832597 287.536384 215.43327 
L 287.058882 213.400717 
L 286.640539 213.400717 
L 287.46666 216.498142 
L 287.880777 216.498142 
L 288.539983 214.140211 
L 288.62661 213.772577 
L 288.635061 213.772577 
Q 288.649851 213.869768 288.702672 214.057811 
L 289.378781 216.498142 
L 289.77177 216.498142 
L 290.625357 213.400717 
M 292.311404 214.822659 
L 292.311404 214.814208 
Q 292.736086 214.624052 292.736086 214.19092 
Q 292.736086 213.852865 292.477262 213.619396 
Q 292.218439 213.385927 291.83179 213.385927 
Q 291.481058 213.385927 291.228574 213.586647 
Q 290.976089 213.787367 290.90214 214.19092 
L 291.282451 214.260643 
Q 291.320482 213.9902 291.465212 213.844414 
Q 291.609941 213.698628 291.840241 213.698628 
Q 292.040961 213.698628 292.194142 213.825398 
Q 292.347323 213.952169 292.347323 214.182468 
Q 292.347323 214.340931 292.275486 214.44763 
Q 292.20365 214.554328 292.093782 214.611375 
Q 291.983914 214.668422 291.895175 214.683212 
Q 291.806436 214.698001 291.654311 214.698001 
L 291.609941 215.03183 
Q 291.768404 214.991686 291.878272 214.991686 
Q 292.148716 214.991686 292.316687 215.162826 
Q 292.484657 215.333967 292.484657 215.593846 
Q 292.484657 215.86429 292.299784 216.051276 
Q 292.11491 216.238262 291.848692 216.238262 
Q 291.60149 216.238262 291.450422 216.086138 
Q 291.299354 215.934013 291.242307 215.627651 
L 290.861996 215.680472 
Q 290.906365 216.073461 291.172583 216.312212 
Q 291.438801 216.550963 291.848692 216.550963 
Q 292.277599 216.550963 292.585017 216.279463 
Q 292.892436 216.007963 292.892436 215.585395 
Q 292.892436 215.323402 292.745593 215.100498 
Q 292.598751 214.877593 292.311404 214.822659 
" clip-path="url(#pe353651380)" style="fill: #ff0000"/>
   </g>
   <g id="patch_58">
    <path d="M 447.653809 213.400717 
C 447.653809 239.060624 426.852344 259.862089 401.192437 259.862089 
C 375.532529 259.862089 354.731064 239.060624 354.731064 213.400717 
C 354.731064 187.74081 375.532529 166.939345 401.192437 166.939345 
C 426.852344 166.939345 447.653809 187.74081 447.653809 213.400717 
" clip-path="url(#pe353651380)" style="fill: none; stroke: #ffffff; stroke-width: 0.48; stroke-linejoin: miter"/>
   </g>
   <g id="patch_59">
    <path d="M 403.670376 213.400717 
C 403.670376 214.769245 402.560965 215.878657 401.192437 215.878657 
C 399.823908 215.878657 398.714497 214.769245 398.714497 213.400717 
C 398.714497 212.032189 399.823908 210.922777 401.192437 210.922777 
C 402.560965 210.922777 403.670376 212.032189 403.670376 213.400717 
" clip-path="url(#pe353651380)" style="fill: none; stroke: #ffffff; stroke-width: 0.48; stroke-linejoin: miter"/>
   </g>
   <g id="patch_60">
    <path d="M 443.007672 213.400717 
C 443.007672 236.494634 424.286353 255.215952 401.192437 255.215952 
C 378.09852 255.215952 359.377202 236.494634 359.377202 213.400717 
C 359.377202 190.3068 378.09852 171.585482 401.192437 171.585482 
C 424.286353 171.585482 443.007672 190.3068 443.007672 213.400717 
" clip-path="url(#pe353651380)" style="fill: none; stroke: #ff0000; stroke-width: 0.48; stroke-linejoin: miter"/>
   </g>
   <g id="patch_61">
    <path d="M 435.26411 213.400717 
C 435.26411 217.677368 431.797199 221.144279 427.520548 221.144279 
C 423.243896 221.144279 419.776985 217.677368 419.776985 213.400717 
C 419.776985 209.124066 423.243896 205.657155 427.520548 205.657155 
C 431.797199 205.657155 435.26411 209.124066 435.26411 213.400717 
" clip-path="url(#pe353651380)" style="fill: none; stroke: #ffffff; stroke-width: 0.48; stroke-linejoin: miter"/>
   </g>
   <g id="patch_62">
    <path d="M 422.100054 190.599904 
C 422.100054 194.876555 418.633143 198.343466 414.356492 198.343466 
C 410.079841 198.343466 406.61293 194.876555 406.61293 190.599904 
C 406.61293 186.323253 410.079841 182.856342 414.356492 182.856342 
C 418.633143 182.856342 422.100054 186.323253 422.100054 190.599904 
" clip-path="url(#pe353651380)" style="fill: none; stroke: #ffffff; stroke-width: 0.48; stroke-linejoin: miter"/>
   </g>
   <g id="patch_63">
    <path d="M 395.771943 190.599904 
C 395.771943 194.876555 392.305032 198.343466 388.028381 198.343466 
C 383.75173 198.343466 380.284819 194.876555 380.284819 190.599904 
C 380.284819 186.323253 383.75173 182.856342 388.028381 182.856342 
C 392.305032 182.856342 395.771943 186.323253 395.771943 190.599904 
" clip-path="url(#pe353651380)" style="fill: none; stroke: #ffffff; stroke-width: 0.48; stroke-linejoin: miter"/>
   </g>
   <g id="patch_64">
    <path d="M 382.607888 213.400717 
C 382.607888 217.677368 379.140977 221.144279 374.864326 221.144279 
C 370.587674 221.144279 367.120764 217.677368 367.120764 213.400717 
C 367.120764 209.124066 370.587674 205.657155 374.864326 205.657155 
C 379.140977 205.657155 382.607888 209.124066 382.607888 213.400717 
" clip-path="url(#pe353651380)" style="fill: none; stroke: #ffffff; stroke-width: 0.48; stroke-linejoin: miter"/>
   </g>
   <g id="patch_65">
    <path d="M 395.771943 236.20153 
C 395.771943 240.478181 392.305032 243.945092 388.028381 243.945092 
C 383.75173 243.945092 380.284819 240.478181 380.284819 236.20153 
C 380.284819 231.924879 383.75173 228.457968 388.028381 228.457968 
C 392.305032 228.457968 395.771943 231.924879 395.771943 236.20153 
" clip-path="url(#pe353651380)" style="fill: none; stroke: #ffffff; stroke-width: 0.48; stroke-linejoin: miter"/>
   </g>
   <g id="patch_66">
    <path d="M 422.100054 236.20153 
C 422.100054 240.478181 418.633143 243.945092 414.356492 243.945092 
C 410.079841 243.945092 406.61293 240.478181 406.61293 236.20153 
C 406.61293 231.924879 410.079841 228.457968 414.356492 228.457968 
C 418.633143 228.457968 422.100054 231.924879 422.100054 236.20153 
" clip-path="url(#pe353651380)" style="fill: none; stroke: #ffffff; stroke-width: 0.48; stroke-linejoin: miter"/>
   </g>
   <g id="patch_67">
    <path d="M 395.937801 213.400717 
L 395.525797 213.400717 
L 395.037731 215.391013 
Q 394.934202 215.813581 394.889832 216.06501 
L 394.881381 216.06501 
Q 394.807431 215.549476 394.64263 214.966332 
L 394.203159 213.400717 
L 393.704528 213.400717 
L 393.115046 215.490317 
Q 393.06645 215.66357 392.981937 216.06501 
L 392.973485 216.06501 
Q 392.973485 216.058671 392.96926 216.02064 
Q 392.943906 215.832597 392.848828 215.43327 
L 392.371326 213.400717 
L 391.952983 213.400717 
L 392.779104 216.498142 
L 393.193221 216.498142 
L 393.852427 214.140211 
L 393.939054 213.772577 
L 393.947505 213.772577 
Q 393.962295 213.869768 394.015116 214.057811 
L 394.691225 216.498142 
L 395.084213 216.498142 
L 395.937801 213.400717 
M 398.19009 215.758648 
L 398.19009 215.407916 
L 397.771747 215.407916 
L 397.771747 213.400717 
L 397.459047 213.400717 
L 396.049782 215.407916 
L 396.049782 215.758648 
L 397.391436 215.758648 
L 397.391436 216.498142 
L 397.771747 216.498142 
L 397.771747 215.758648 
L 398.19009 215.758648 
M 397.391436 215.407916 
L 396.421642 215.407916 
L 397.382984 214.009215 
L 397.391436 214.009215 
L 397.391436 215.407916 
" clip-path="url(#pe353651380)" style="fill: #ff0000"/>
   </g>
   <g id="patch_68">
    <path d="M 31.050171 318.713161 
L 154.947164 318.713161 
L 154.947164 256.764665 
L 31.050171 256.764665 
L 31.050171 318.713161 
" clip-path="url(#pe353651380)" style="fill: none; stroke: #ffffff; stroke-width: 0.48; stroke-linejoin: miter"/>
   </g>
   <g id="patch_69">
    <path d="M 74.414119 303.226037 
L 111.583216 303.226037 
L 111.583216 272.251789 
L 74.414119 272.251789 
L 74.414119 303.226037 
" clip-path="url(#pe353651380)" style="fill: none; stroke: #ffffff; stroke-width: 0.48; stroke-linejoin: miter"/>
   </g>
   <g id="patch_70">
    <path d="M 52.11266 287.738913 
C 52.11266 289.107441 51.003248 290.216853 49.63472 290.216853 
C 48.266192 290.216853 47.15678 289.107441 47.15678 287.738913 
C 47.15678 286.370384 48.266192 285.260973 49.63472 285.260973 
C 51.003248 285.260973 52.11266 286.370384 52.11266 287.738913 
" clip-path="url(#pe353651380)" style="fill: none; stroke: #ffffff; stroke-width: 0.48; stroke-linejoin: miter"/>
   </g>
   <g id="patch_71">
    <path d="M 138.840555 287.738913 
C 138.840555 289.107441 137.731143 290.216853 136.362615 290.216853 
C 134.994086 290.216853 133.884675 289.107441 133.884675 287.738913 
C 133.884675 286.370384 134.994086 285.260973 136.362615 285.260973 
C 137.731143 285.260973 138.840555 286.370384 138.840555 287.738913 
" clip-path="url(#pe353651380)" style="fill: none; stroke: #ffffff; stroke-width: 0.48; stroke-linejoin: miter"/>
   </g>
   <g id="patch_72">
    <path d="M 85.255105 323.359298 
L 100.742229 323.359298 
L 100.742229 318.713161 
L 85.255105 318.713161 
L 85.255105 323.359298 
" clip-path="url(#pe353651380)" style="fill: none; stroke: #ffffff; stroke-width: 0.48; stroke-linejoin: miter"/>
   </g>
   <g id="patch_73">
    <path d="M 67.285393 264.428995 
Q 66.296584 264.428995 65.676993 265.086617 
Q 65.057402 265.744238 65.057402 266.888342 
Q 65.057402 267.870813 65.66907 268.552204 
Q 66.280737 269.233595 67.285393 269.233595 
Q 68.255187 269.233595 68.879532 268.575974 
Q 69.503876 267.918352 69.503876 266.837634 
Q 69.503876 265.753746 68.882701 265.091371 
Q 68.261526 264.428995 67.285393 264.428995 
M 64.258749 269.154364 
L 64.258749 264.508227 
L 63.441079 264.508227 
L 62.331838 267.740873 
Q 62.170205 268.216262 62.084635 268.48565 
L 62.071958 268.48565 
Q 62.043435 268.346202 61.859618 267.79792 
L 60.759884 264.508227 
L 59.840798 264.508227 
L 59.840798 269.154364 
L 60.423942 269.154364 
L 60.423942 265.202295 
L 60.442958 265.202295 
L 61.774048 269.154364 
L 62.325499 269.154364 
L 63.662927 265.26568 
L 63.675604 265.26568 
L 63.675604 269.154364 
L 64.258749 269.154364 
M 43.706088 269.154364 
L 43.706088 264.508227 
L 42.888419 264.508227 
L 41.779177 267.740873 
Q 41.617545 268.216262 41.531975 268.48565 
L 41.519298 268.48565 
Q 41.490775 268.346202 41.306957 267.79792 
L 40.207224 264.508227 
L 39.288138 264.508227 
L 39.288138 269.154364 
L 39.871282 269.154364 
L 39.871282 265.202295 
L 39.890298 265.202295 
L 41.221387 269.154364 
L 41.772839 269.154364 
L 43.110267 265.26568 
L 43.122944 265.26568 
L 43.122944 269.154364 
L 43.706088 269.154364 
M 73.969365 267.19576 
L 73.969365 264.508227 
L 73.35136 264.508227 
L 73.35136 267.186252 
Q 73.35136 267.680657 73.268959 267.992829 
Q 73.186558 268.305002 72.914001 268.491988 
Q 72.641445 268.678975 72.099501 268.678975 
Q 71.563896 268.678975 71.307186 268.444449 
Q 71.050476 268.209924 70.99026 267.907259 
Q 70.930044 267.604595 70.930044 267.186252 
L 70.930044 264.508227 
L 70.315207 264.508227 
L 70.315207 267.19576 
Q 70.315207 267.598256 70.364331 267.92469 
Q 70.413454 268.251124 70.590933 268.552204 
Q 70.768411 268.853284 71.148723 269.04344 
Q 71.529034 269.233595 72.150209 269.233595 
Q 72.787231 269.233595 73.169127 269.01967 
Q 73.551023 268.805745 73.720578 268.484065 
Q 73.890134 268.162385 73.92975 267.858136 
Q 73.969365 267.553887 73.969365 267.19576 
M 82.998591 265.059678 
L 82.998591 264.508227 
L 79.319079 264.508227 
L 79.319079 265.059678 
L 80.843493 265.059678 
L 80.843493 269.154364 
L 81.461499 269.154364 
L 81.461499 265.059678 
L 82.998591 265.059678 
M 57.400467 265.059678 
L 57.400467 264.508227 
L 53.720954 264.508227 
L 53.720954 265.059678 
L 55.245369 265.059678 
L 55.245369 269.154364 
L 55.863375 269.154364 
L 55.863375 265.059678 
L 57.400467 265.059678 
M 53.435721 265.059678 
L 53.435721 264.508227 
L 49.756208 264.508227 
L 49.756208 265.059678 
L 51.280623 265.059678 
L 51.280623 269.154364 
L 51.898629 269.154364 
L 51.898629 265.059678 
L 53.435721 265.059678 
M 78.656703 269.154364 
L 78.656703 264.508227 
L 78.07039 264.508227 
L 78.07039 268.156046 
L 78.057713 268.156046 
L 75.630058 264.508227 
L 75.002545 264.508227 
L 75.002545 269.154364 
L 75.585689 269.154364 
L 75.585689 265.506544 
L 75.598366 265.506544 
L 78.02602 269.154364 
L 78.656703 269.154364 
M 47.51871 265.012139 
L 47.51871 264.571612 
L 44.511081 264.571612 
L 44.511081 265.123063 
L 46.783441 265.123063 
Q 46.073527 265.940733 45.628245 267.073744 
Q 45.182964 268.206755 45.160779 269.154364 
L 45.743923 269.154364 
Q 45.832663 267.975399 46.333406 266.869326 
Q 46.834149 265.763254 47.51871 265.012139 
M 67.279055 268.707498 
Q 66.575479 268.707498 66.134951 268.208339 
Q 65.694424 267.709181 65.694424 266.901019 
Q 65.694424 265.912209 66.144459 265.433651 
Q 66.594494 264.955092 67.291732 264.955092 
Q 67.969954 264.955092 68.418404 265.443159 
Q 68.866855 265.931225 68.866855 266.837634 
Q 68.863685 267.718688 68.424743 268.213093 
Q 67.9858 268.707498 67.279055 268.707498 
" clip-path="url(#pe353651380)" style="fill: #ff0000"/>
   </g>
   <g id="patch_74">
    <path d="M 204.491095 288.482096 
L 204.505961 287.738913 
L 204.491095 286.995729 
L 197.102959 284.594201 
L 196.96826 284.149574 
L 196.815888 283.710689 
L 201.381434 277.425175 
L 200.956628 276.815189 
L 200.507769 276.222678 
L 193.119058 278.62244 
L 192.748739 278.341903 
L 192.367498 278.076399 
L 192.366569 270.307751 
L 191.664353 270.063956 
L 190.95295 269.848438 
L 186.385902 276.132861 
L 185.921412 276.12357 
L 185.456922 276.132861 
L 180.889874 269.848438 
L 180.17847 270.063956 
L 179.476254 270.307751 
L 179.475326 278.076399 
L 179.094085 278.341903 
L 178.723765 278.62244 
L 171.335055 276.222678 
L 170.886196 276.815189 
L 170.46139 277.425175 
L 175.026936 283.710689 
L 174.874564 284.149574 
L 174.739865 284.594201 
L 167.351729 286.995729 
L 167.336863 287.738913 
L 167.351729 288.482096 
L 174.739865 290.883624 
L 174.874564 291.328251 
L 175.026936 291.767136 
L 170.46139 298.05265 
L 170.886196 298.662636 
L 171.335055 299.255147 
L 178.723765 296.855386 
L 179.094085 297.135923 
L 179.475326 297.401426 
L 179.476254 305.170075 
L 180.17847 305.413869 
L 180.889874 305.629387 
L 185.456922 299.344965 
L 185.921412 299.354256 
L 186.385902 299.344965 
L 190.95295 305.629387 
L 191.664353 305.413869 
L 192.366569 305.170075 
L 192.367498 297.401426 
L 192.748739 297.135923 
L 193.119058 296.855386 
L 200.507769 299.255147 
L 200.956628 298.662636 
L 201.381434 298.05265 
L 196.815888 291.767136 
L 196.96826 291.328251 
L 197.102959 290.883624 
L 204.491095 288.482096 
" clip-path="url(#pe353651380)" style="fill: none; stroke: #ffffff; stroke-width: 0.48; stroke-linejoin: miter"/>
   </g>
   <g id="patch_75">
    <path d="M 190.412678 287.738913 
C 190.412678 290.21937 188.40187 292.230179 185.921412 292.230179 
C 183.440954 292.230179 181.430146 290.21937 181.430146 287.738913 
C 181.430146 285.258455 183.440954 283.247647 185.921412 283.247647 
C 188.40187 283.247647 190.412678 285.258455 190.412678 287.738913 
" clip-path="url(#pe353651380)" style="fill: none; stroke: #ffffff; stroke-width: 0.48; stroke-linejoin: miter"/>
   </g>
   <g id="patch_76">
    <path d="M 182.790182 290.836337 
L 182.790182 287.738913 
L 182.245069 287.738913 
L 181.505574 289.89401 
Q 181.397819 290.210937 181.340773 290.390528 
L 181.332321 290.390528 
Q 181.313306 290.297563 181.190761 289.932042 
L 180.457605 287.738913 
L 179.844881 287.738913 
L 179.844881 290.836337 
L 180.233644 290.836337 
L 180.233644 288.201625 
L 180.246321 288.201625 
L 181.133714 290.836337 
L 181.501349 290.836337 
L 182.392968 288.243882 
L 182.401419 288.243882 
L 182.401419 290.836337 
L 182.790182 290.836337 
M 178.801138 288.647434 
L 179.194126 288.615742 
Q 179.175111 288.169932 178.861354 287.928012 
Q 178.547597 287.686092 178.032064 287.686092 
Q 177.529208 287.686092 177.237636 287.929068 
Q 176.946064 288.172045 176.946064 288.543905 
Q 176.946064 288.871395 177.176363 289.076341 
Q 177.406663 289.281287 177.929591 289.394324 
Q 178.452519 289.507361 178.674367 289.623567 
Q 178.896216 289.739773 178.896216 289.993314 
Q 178.896216 290.236291 178.683875 290.377851 
Q 178.471535 290.519411 178.127142 290.519411 
Q 177.759507 290.519411 177.499628 290.349328 
Q 177.239748 290.179244 177.212282 289.807384 
L 176.823519 289.841189 
Q 176.842534 290.306014 177.166855 290.597586 
Q 177.491177 290.889158 178.144044 290.889158 
Q 178.655352 290.889158 178.973334 290.625053 
Q 179.291317 290.360948 179.291317 289.961621 
Q 179.291317 289.646808 179.118064 289.459822 
Q 178.944811 289.272835 178.701834 289.184096 
Q 178.458858 289.095357 178.074321 289.010843 
Q 177.641188 288.913652 177.488007 288.815405 
Q 177.334826 288.717158 177.334826 288.516438 
Q 177.334826 288.290364 177.533433 288.172045 
Q 177.73204 288.053726 178.048967 288.053726 
Q 178.399698 288.053726 178.587741 288.202681 
Q 178.775784 288.351637 178.801138 288.647434 
" clip-path="url(#pe353651380)" style="fill: #ff0000"/>
   </g>
   <g id="patch_77">
    <path d="M 316.008849 288.399677 
L 316.008849 287.078148 
L 308.866329 283.852218 
L 308.747617 282.72275 
L 315.063347 278.0823 
L 314.788586 276.78965 
L 307.131438 275.119227 
L 306.780491 274.039123 
L 311.993404 268.186964 
L 311.45589 266.979687 
L 303.618769 266.937778 
L 303.050924 265.954242 
L 306.93319 259.146142 
L 306.156415 258.077002 
L 298.48184 259.665437 
L 297.721916 258.821456 
L 300.103861 251.35496 
L 299.121774 250.470685 
L 291.945161 253.620043 
L 291.02637 252.952502 
L 291.803892 245.153933 
L 290.659414 244.493168 
L 284.294416 249.065807 
L 283.256913 248.60388 
L 282.396031 240.814073 
L 281.139182 240.405698 
L 275.86398 246.201771 
L 274.753108 245.965648 
L 272.291446 238.525054 
L 270.977157 238.386916 
L 267.022301 245.153107 
L 265.886613 245.153107 
L 261.931757 238.386916 
L 260.617468 238.525054 
L 258.155806 245.965648 
L 257.044935 246.201771 
L 251.769732 240.405698 
L 250.512884 240.814073 
L 249.652001 248.60388 
L 248.614498 249.065807 
L 242.2495 244.493168 
L 241.105022 245.153933 
L 241.882544 252.952502 
L 240.963753 253.620043 
L 233.78714 250.470685 
L 232.805053 251.35496 
L 235.186998 258.821456 
L 234.427074 259.665437 
L 226.752499 258.077002 
L 225.975724 259.146142 
L 229.85799 265.954242 
L 229.290145 266.937778 
L 221.453025 266.979687 
L 220.91551 268.186964 
L 226.128423 274.039123 
L 225.777476 275.119227 
L 218.120328 276.78965 
L 217.845567 278.0823 
L 224.161297 282.72275 
L 224.042585 283.852218 
L 216.900065 287.078148 
L 216.900065 288.399677 
L 224.042585 291.625608 
L 224.161297 292.755075 
L 217.845567 297.395525 
L 218.120328 298.688175 
L 225.777476 300.358598 
L 226.128423 301.438702 
L 220.91551 307.290861 
L 221.453025 308.498138 
L 229.290145 308.540048 
L 229.85799 309.523583 
L 225.975724 316.331684 
L 226.752499 317.400823 
L 234.427074 315.812388 
L 235.186998 316.656369 
L 232.805053 324.122865 
L 233.78714 325.00714 
L 240.963753 321.857782 
L 241.882544 322.525324 
L 241.105022 330.323893 
L 242.2495 330.984657 
L 248.614498 326.412019 
L 249.652001 326.873945 
L 250.512884 334.663753 
L 251.769732 335.072127 
L 257.044935 329.276055 
L 258.155806 329.512178 
L 260.617468 336.952772 
L 261.931757 337.090909 
L 265.886613 330.324718 
L 267.022301 330.324718 
L 270.977157 337.090909 
L 272.291446 336.952772 
L 274.753108 329.512178 
L 275.86398 329.276055 
L 281.139182 335.072127 
L 282.396031 334.663753 
L 283.256913 326.873945 
L 284.294416 326.412019 
L 290.659414 330.984657 
L 291.803892 330.323893 
L 291.02637 322.525324 
L 291.945161 321.857782 
L 299.121774 325.00714 
L 300.103861 324.122865 
L 297.721916 316.656369 
L 298.48184 315.812388 
L 306.156415 317.400823 
L 306.93319 316.331684 
L 303.050924 309.523583 
L 303.618769 308.540048 
L 311.45589 308.498138 
L 311.993404 307.290861 
L 306.780491 301.438702 
L 307.131438 300.358598 
L 314.788586 298.688175 
L 315.063347 297.395525 
L 308.747617 292.755075 
L 308.866329 291.625608 
L 316.008849 288.399677 
L 316.008849 288.399677 
" clip-path="url(#pe353651380)" style="fill: none; stroke: #ffffff; stroke-width: 0.48; stroke-linejoin: miter"/>
   </g>
   <g id="patch_78">
    <path d="M 268.932397 287.738913 
C 268.932397 289.107441 267.822985 290.216853 266.454457 290.216853 
C 265.085929 290.216853 263.976517 289.107441 263.976517 287.738913 
C 263.976517 286.370384 265.085929 285.260973 266.454457 285.260973 
C 267.822985 285.260973 268.932397 286.370384 268.932397 287.738913 
" clip-path="url(#pe353651380)" style="fill: none; stroke: #ffffff; stroke-width: 0.48; stroke-linejoin: miter"/>
   </g>
   <g id="patch_79">
    <path d="M 262.657682 290.403205 
L 262.657682 289.255932 
L 261.347721 289.255932 
L 261.347721 289.62568 
L 262.260468 289.62568 
L 262.260468 290.200372 
Q 261.842125 290.519411 261.356172 290.519411 
Q 261.037133 290.519411 260.765633 290.378907 
Q 260.494133 290.238403 260.355742 289.963734 
Q 260.217351 289.689065 260.217351 289.274948 
Q 260.217351 288.721384 260.502584 288.379103 
Q 260.787818 288.036823 261.347721 288.036823 
Q 261.709016 288.036823 261.932977 288.204794 
Q 262.156939 288.372765 262.243565 288.706594 
L 262.611199 288.603065 
Q 262.501332 288.144578 262.185462 287.915335 
Q 261.869592 287.686092 261.347721 287.686092 
Q 260.844864 287.686092 260.497302 287.894206 
Q 260.14974 288.102321 259.971205 288.481576 
Q 259.79267 288.860831 259.79267 289.300302 
Q 259.79267 290.020781 260.228971 290.45497 
Q 260.665273 290.889158 261.3773 290.889158 
Q 262.072425 290.889158 262.657682 290.403205 
M 259.425035 290.836337 
L 259.425035 290.468703 
L 257.897451 290.468703 
L 257.897451 287.738913 
L 257.48756 287.738913 
L 257.48756 290.836337 
L 259.425035 290.836337 
" clip-path="url(#pe353651380)" style="fill: #ff0000"/>
   </g>
  </g>
 </g>
 <defs>
  <clipPath id="pe353651380">
   <rect x="7.2" y="7.2" width="524.703764" height="345.6"/>
  </clipPath>
 </defs>
</svg>
