<?xml version="1.0" encoding="utf-8" standalone="no"?>
<!DOCTYPE svg PUBLIC "-//W3C//DTD SVG 1.1//EN"
  "http://www.w3.org/Graphics/SVG/1.1/DTD/svg11.dtd">
<svg xmlns:xlink="http://www.w3.org/1999/xlink" width="487.76893pt" height="360pt" viewBox="0 0 487.76893 360" xmlns="http://www.w3.org/2000/svg" version="1.1">
 <metadata>
  <rdf:RDF xmlns:dc="http://purl.org/dc/elements/1.1/" xmlns:cc="http://creativecommons.org/ns#" xmlns:rdf="http://www.w3.org/1999/02/22-rdf-syntax-ns#">
   <cc:Work>
    <dc:type rdf:resource="http://purl.org/dc/dcmitype/StillImage"/>
    <dc:date>2026-03-20T00:51:19.873263</dc:date>
    <dc:format>image/svg+xml</dc:format>
    <dc:creator>
     <cc:Agent>
      <dc:title>Matplotlib v3.10.8, https://matplotlib.org/</dc:title>
     </cc:Agent>
    </dc:creator>
   </cc:Work>
  </rdf:RDF>
 </metadata>
 <defs>
  <style type="text/css">*{stroke-linejoin: round; stroke-linecap: butt}</style>
 </defs>
 <g id="figure_1">
  <g id="patch_1">
   <path d="M 0 360 
L 487.76893 360 
L 487.76893 0 
L 0 0 
z
" style="fill: #1a1a2e"/>
  </g>
  <g id="axes_1">
   <g id="patch_2">
    <path d="M 7.2 352.8 
L 480.56893 352.8 
L 480.56893 7.2 
L 7.2 7.2 
z
" style="fill: #1a1a2e"/>
   </g>
   <g id="patch_3">
    <path d="M 28.71677 134.684517 
L 238.295694 134.684517 
L 238.295694 22.909091 
L 28.71677 22.909091 
L 28.71677 134.684517 
" clip-path="url(#p660d1459c1)" style="fill: none; stroke: #ffffff; stroke-width: 0.48; stroke-linejoin: miter"/>
   </g>
   <g id="patch_4">
    <path d="M 40.134484 34.086634 
L 40.134484 29.895055 
L 39.396812 29.895055 
L 38.396094 32.811433 
Q 38.250276 33.240312 38.173077 33.483344 
L 38.161641 33.483344 
Q 38.135908 33.357539 37.970075 32.862898 
L 36.977934 29.895055 
L 36.148768 29.895055 
L 36.148768 34.086634 
L 36.67486 34.086634 
L 36.67486 30.521219 
L 36.692015 30.521219 
L 37.892876 34.086634 
L 38.390376 34.086634 
L 39.596956 30.578402 
L 39.608393 30.578402 
L 39.608393 34.086634 
L 40.134484 34.086634 
M 57.832896 34.086634 
L 56.123098 29.895055 
L 55.525526 29.895055 
L 53.9158 34.086634 
L 54.501935 34.086634 
L 54.965124 32.811433 
L 56.714951 32.811433 
L 57.206732 34.086634 
L 57.832896 34.086634 
M 49.464035 32.757108 
L 48.91221 32.617008 
Q 48.789265 33.151677 48.481902 33.417582 
Q 48.174538 33.683487 47.682757 33.683487 
Q 47.082326 33.683487 46.709201 33.257467 
Q 46.336076 32.831447 46.336076 31.956534 
Q 46.336076 31.198848 46.690616 30.748524 
Q 47.045157 30.298201 47.731363 30.298201 
Q 48.151665 30.298201 48.431866 30.518359 
Q 48.712067 30.738517 48.849308 31.175974 
L 49.392555 31.04731 
Q 49.218144 30.44688 48.783546 30.135227 
Q 48.348949 29.823575 47.737081 29.823575 
Q 46.867886 29.823575 46.314632 30.391125 
Q 45.761378 30.958675 45.761378 31.962252 
Q 45.761378 32.868617 46.231716 33.513365 
Q 46.702053 34.158113 47.731363 34.158113 
Q 48.368963 34.158113 48.825005 33.810721 
Q 49.281046 33.463329 49.464035 32.757108 
M 60.766429 31.124508 
L 61.298239 31.081621 
Q 61.272506 30.478331 60.847916 30.150953 
Q 60.423325 29.823575 59.725682 29.823575 
Q 59.045194 29.823575 58.650625 30.152383 
Q 58.256056 30.48119 58.256056 30.984408 
Q 58.256056 31.427583 58.567709 31.704925 
Q 58.879361 31.982267 59.587011 32.135234 
Q 60.294662 32.2882 60.594877 32.445456 
Q 60.895093 32.602712 60.895093 32.945815 
Q 60.895093 33.274622 60.607744 33.466188 
Q 60.320394 33.657754 59.854346 33.657754 
Q 59.356846 33.657754 59.005165 33.427589 
Q 58.653484 33.197424 58.616315 32.694206 
L 58.090223 32.739953 
Q 58.115956 33.368976 58.554842 33.763545 
Q 58.993728 34.158113 59.877219 34.158113 
Q 60.569144 34.158113 60.999453 33.800714 
Q 61.429762 33.443315 61.429762 32.902927 
Q 61.429762 32.476907 61.195308 32.223869 
Q 60.960854 31.97083 60.632047 31.850744 
Q 60.303239 31.730658 59.782866 31.61629 
Q 59.196731 31.484767 58.98944 31.351814 
Q 58.782148 31.218862 58.782148 30.947238 
Q 58.782148 30.641305 59.050912 30.48119 
Q 59.319677 30.321075 59.748556 30.321075 
Q 60.223182 30.321075 60.47765 30.522648 
Q 60.732118 30.724221 60.766429 31.124508 
M 70.204628 31.124508 
L 70.736438 31.081621 
Q 70.710706 30.478331 70.286115 30.150953 
Q 69.861525 29.823575 69.163882 29.823575 
Q 68.483394 29.823575 68.088825 30.152383 
Q 67.694256 30.48119 67.694256 30.984408 
Q 67.694256 31.427583 68.005908 31.704925 
Q 68.31756 31.982267 69.025211 32.135234 
Q 69.732861 32.2882 70.033077 32.445456 
Q 70.333292 32.602712 70.333292 32.945815 
Q 70.333292 33.274622 70.045943 33.466188 
Q 69.758594 33.657754 69.292545 33.657754 
Q 68.795046 33.657754 68.443365 33.427589 
Q 68.091684 33.197424 68.054514 32.694206 
L 67.528423 32.739953 
Q 67.554155 33.368976 67.993042 33.763545 
Q 68.431928 34.158113 69.315419 34.158113 
Q 70.007344 34.158113 70.437653 33.800714 
Q 70.867961 33.443315 70.867961 32.902927 
Q 70.867961 32.476907 70.633507 32.223869 
Q 70.399054 31.97083 70.070246 31.850744 
Q 69.741439 31.730658 69.221066 31.61629 
Q 68.634931 31.484767 68.427639 31.351814 
Q 68.220348 31.218862 68.220348 30.947238 
Q 68.220348 30.641305 68.489112 30.48119 
Q 68.757876 30.321075 69.186755 30.321075 
Q 69.661381 30.321075 69.91585 30.522648 
Q 70.170318 30.724221 70.204628 31.124508 
M 64.672088 31.124508 
L 65.203898 31.081621 
Q 65.178165 30.478331 64.753575 30.150953 
Q 64.328985 29.823575 63.631341 29.823575 
Q 62.950853 29.823575 62.556284 30.152383 
Q 62.161715 30.48119 62.161715 30.984408 
Q 62.161715 31.427583 62.473368 31.704925 
Q 62.78502 31.982267 63.49267 32.135234 
Q 64.200321 32.2882 64.500536 32.445456 
Q 64.800752 32.602712 64.800752 32.945815 
Q 64.800752 33.274622 64.513403 33.466188 
Q 64.226054 33.657754 63.760005 33.657754 
Q 63.262505 33.657754 62.910824 33.427589 
Q 62.559143 33.197424 62.521974 32.694206 
L 61.995882 32.739953 
Q 62.021615 33.368976 62.460501 33.763545 
Q 62.899388 34.158113 63.782878 34.158113 
Q 64.474803 34.158113 64.905112 33.800714 
Q 65.335421 33.443315 65.335421 32.902927 
Q 65.335421 32.476907 65.100967 32.223869 
Q 64.866513 31.97083 64.537706 31.850744 
Q 64.208898 31.730658 63.688525 31.61629 
Q 63.10239 31.484767 62.895099 31.351814 
Q 62.687807 31.218862 62.687807 30.947238 
Q 62.687807 30.641305 62.956571 30.48119 
Q 63.225336 30.321075 63.654215 30.321075 
Q 64.128841 30.321075 64.383309 30.522648 
Q 64.637778 30.724221 64.672088 31.124508 
M 53.45261 34.086634 
L 53.45261 29.895055 
L 52.895068 29.895055 
L 52.895068 31.61629 
L 50.716362 31.61629 
L 50.716362 29.895055 
L 50.161678 29.895055 
L 50.161678 34.086634 
L 50.716362 34.086634 
L 50.716362 32.11379 
L 52.895068 32.11379 
L 52.895068 34.086634 
L 53.45261 34.086634 
M 43.574095 30.349667 
L 43.574095 29.952239 
L 40.86072 29.952239 
L 40.86072 30.449739 
L 42.910762 30.449739 
Q 42.270302 31.187411 41.868586 32.209573 
Q 41.466869 33.231735 41.446855 34.086634 
L 41.972946 34.086634 
Q 42.053004 33.023013 42.504756 32.025155 
Q 42.956509 31.027296 43.574095 30.349667 
M 66.733567 34.086634 
L 66.733567 29.895055 
L 66.176024 29.895055 
L 66.176024 34.086634 
L 66.733567 34.086634 
M 56.546258 32.371117 
L 55.12238 32.371117 
L 55.591288 31.115931 
Q 55.72567 30.755672 55.805727 30.332512 
L 55.820023 30.332512 
Q 55.90008 30.641305 55.965842 30.825723 
Q 56.031603 31.010141 56.546258 32.371117 
" clip-path="url(#p660d1459c1)" style="fill: #ff0000"/>
   </g>
   <g id="patch_5">
    <path d="M 56.660626 122.738518 
L 70.632554 122.738518 
L 70.632554 118.686659 
L 56.660626 118.686659 
L 56.660626 122.738518 
" clip-path="url(#p660d1459c1)" style="fill: none; stroke: #ffffff; stroke-width: 0.48; stroke-linejoin: miter"/>
   </g>
   <g id="patch_6">
    <path d="M 196.379909 122.738518 
L 210.351837 122.738518 
L 210.351837 118.686659 
L 196.379909 118.686659 
L 196.379909 122.738518 
" clip-path="url(#p660d1459c1)" style="fill: none; stroke: #ffffff; stroke-width: 0.48; stroke-linejoin: miter"/>
   </g>
   <g id="patch_7">
    <path d="M 56.660626 38.906949 
L 70.632554 38.906949 
L 70.632554 34.85509 
L 56.660626 34.85509 
L 56.660626 38.906949 
" clip-path="url(#p660d1459c1)" style="fill: none; stroke: #ffffff; stroke-width: 0.48; stroke-linejoin: miter"/>
   </g>
   <g id="patch_8">
    <path d="M 196.379909 38.906949 
L 210.351837 38.906949 
L 210.351837 34.85509 
L 196.379909 34.85509 
L 196.379909 38.906949 
" clip-path="url(#p660d1459c1)" style="fill: none; stroke: #ffffff; stroke-width: 0.48; stroke-linejoin: miter"/>
   </g>
   <g id="patch_9">
    <path d="M 126.520268 80.822734 
L 140.492196 80.822734 
L 140.492196 76.770874 
L 126.520268 76.770874 
L 126.520268 80.822734 
" clip-path="url(#p660d1459c1)" style="fill: none; stroke: #ffffff; stroke-width: 0.48; stroke-linejoin: miter"/>
   </g>
   <g id="patch_10">
    <path d="M 58.896135 127.698553 
C 58.896135 128.93319 57.895263 129.934062 56.660626 129.934062 
C 55.425989 129.934062 54.425118 128.93319 54.425118 127.698553 
C 54.425118 126.463916 55.425989 125.463044 56.660626 125.463044 
C 57.895263 125.463044 58.896135 126.463916 58.896135 127.698553 
" clip-path="url(#p660d1459c1)" style="fill: none; stroke: #ffffff; stroke-width: 0.48; stroke-linejoin: miter"/>
   </g>
   <g id="patch_11">
    <path d="M 58.896135 29.895055 
C 58.896135 31.129692 57.895263 32.130564 56.660626 32.130564 
C 55.425989 32.130564 54.425118 31.129692 54.425118 29.895055 
C 54.425118 28.660418 55.425989 27.659547 56.660626 27.659547 
C 57.895263 27.659547 58.896135 28.660418 58.896135 29.895055 
" clip-path="url(#p660d1459c1)" style="fill: none; stroke: #ffffff; stroke-width: 0.48; stroke-linejoin: miter"/>
   </g>
   <g id="patch_12">
    <path d="M 212.587346 127.698553 
C 212.587346 128.93319 211.586474 129.934062 210.351837 129.934062 
C 209.1172 129.934062 208.116329 128.93319 208.116329 127.698553 
C 208.116329 126.463916 209.1172 125.463044 210.351837 125.463044 
C 211.586474 125.463044 212.587346 126.463916 212.587346 127.698553 
" clip-path="url(#p660d1459c1)" style="fill: none; stroke: #ffffff; stroke-width: 0.48; stroke-linejoin: miter"/>
   </g>
   <g id="patch_13">
    <path d="M 212.587346 29.895055 
C 212.587346 31.129692 211.586474 32.130564 210.351837 32.130564 
C 209.1172 32.130564 208.116329 31.129692 208.116329 29.895055 
C 208.116329 28.660418 209.1172 27.659547 210.351837 27.659547 
C 211.586474 27.659547 212.587346 28.660418 212.587346 29.895055 
" clip-path="url(#p660d1459c1)" style="fill: none; stroke: #ffffff; stroke-width: 0.48; stroke-linejoin: miter"/>
   </g>
   <g id="patch_14">
    <path d="M 108.356761 106.740661 
C 108.356761 108.283957 107.105672 109.535046 105.562375 109.535046 
C 104.019079 109.535046 102.767989 108.283957 102.767989 106.740661 
C 102.767989 105.197364 104.019079 103.946275 105.562375 103.946275 
C 107.105672 103.946275 108.356761 105.197364 108.356761 106.740661 
" clip-path="url(#p660d1459c1)" style="fill: none; stroke: #ffffff; stroke-width: 0.48; stroke-linejoin: miter"/>
   </g>
   <g id="patch_15">
    <path d="M 164.244474 106.740661 
C 164.244474 108.283957 162.993385 109.535046 161.450088 109.535046 
C 159.906792 109.535046 158.655703 108.283957 158.655703 106.740661 
C 158.655703 105.197364 159.906792 103.946275 161.450088 103.946275 
C 162.993385 103.946275 164.244474 105.197364 164.244474 106.740661 
" clip-path="url(#p660d1459c1)" style="fill: none; stroke: #ffffff; stroke-width: 0.48; stroke-linejoin: miter"/>
   </g>
   <g id="patch_16">
    <path d="M 249.473236 134.684517 
L 459.052161 134.684517 
L 459.052161 92.768732 
L 249.473236 92.768732 
L 249.473236 134.684517 
" clip-path="url(#p660d1459c1)" style="fill: none; stroke: #ffffff; stroke-width: 0.48; stroke-linejoin: miter"/>
   </g>
   <g id="patch_17">
    <path d="M 277.417093 138.876096 
L 291.389021 138.876096 
L 291.389021 134.684517 
L 277.417093 134.684517 
L 277.417093 138.876096 
" clip-path="url(#p660d1459c1)" style="fill: none; stroke: #ffffff; stroke-width: 0.48; stroke-linejoin: miter"/>
   </g>
   <g id="patch_18">
    <path d="M 417.136376 138.876096 
L 431.108304 138.876096 
L 431.108304 134.684517 
L 417.136376 134.684517 
L 417.136376 138.876096 
" clip-path="url(#p660d1459c1)" style="fill: none; stroke: #ffffff; stroke-width: 0.48; stroke-linejoin: miter"/>
   </g>
   <g id="patch_19">
    <path d="M 274.622707 92.768732 
L 274.622707 103.946275 
L 280.211479 103.946275 
L 280.211479 92.768732 
" clip-path="url(#p660d1459c1)" style="fill: none; stroke: #ffffff; stroke-width: 0.48; stroke-linejoin: miter"/>
   </g>
   <g id="patch_20">
    <path d="M 428.313918 92.768732 
L 428.313918 103.946275 
L 433.90269 103.946275 
L 433.90269 92.768732 
" clip-path="url(#p660d1459c1)" style="fill: none; stroke: #ffffff; stroke-width: 0.48; stroke-linejoin: miter"/>
   </g>
   <g id="patch_21">
    <path d="M 260.890951 106.740661 
L 260.890951 102.549082 
L 260.153279 102.549082 
L 259.152561 105.46546 
Q 259.006742 105.894339 258.929544 106.137371 
L 258.918107 106.137371 
Q 258.892375 106.011566 258.726541 105.516926 
L 257.734401 102.549082 
L 256.905235 102.549082 
L 256.905235 106.740661 
L 257.431326 106.740661 
L 257.431326 103.175246 
L 257.448482 103.175246 
L 258.649343 106.740661 
L 259.146843 106.740661 
L 260.353423 103.232429 
L 260.36486 103.232429 
L 260.36486 106.740661 
L 260.890951 106.740661 
M 274.360614 106.740661 
L 272.650816 102.549082 
L 272.053245 102.549082 
L 270.443519 106.740661 
L 271.029653 106.740661 
L 271.492843 105.46546 
L 273.24267 105.46546 
L 273.734451 106.740661 
L 274.360614 106.740661 
M 270.383476 106.740661 
L 269.651522 105.599842 
Q 269.282686 105.022285 268.862384 104.836437 
L 268.862384 104.825001 
Q 269.437082 104.747802 269.737298 104.459024 
Q 270.037513 104.170245 270.037513 103.695619 
Q 270.037513 103.432573 269.933152 103.19526 
Q 269.828792 102.957947 269.634367 102.802121 
Q 269.439942 102.646295 269.182614 102.597688 
Q 268.925287 102.549082 268.545014 102.549082 
L 266.689397 102.549082 
L 266.689397 106.740661 
L 267.24408 106.740661 
L 267.24408 104.890762 
L 267.88454 104.890762 
Q 268.127571 104.890762 268.27482 104.93365 
Q 268.422068 104.976538 268.589331 105.138082 
Q 268.756594 105.299627 268.908131 105.525503 
Q 269.059669 105.751379 269.685832 106.740661 
L 270.383476 106.740661 
M 264.330562 103.003694 
L 264.330562 102.606266 
L 261.617187 102.606266 
L 261.617187 103.103766 
L 263.667229 103.103766 
Q 263.026769 103.841438 262.625052 104.8636 
Q 262.223336 105.885762 262.203321 106.740661 
L 262.729413 106.740661 
Q 262.809471 105.67704 263.261223 104.679182 
Q 263.712976 103.681323 264.330562 103.003694 
M 283.927478 106.740661 
L 283.927478 106.243161 
L 281.86028 106.243161 
L 281.86028 102.549082 
L 281.305597 102.549082 
L 281.305597 106.740661 
L 283.927478 106.740661 
M 279.043974 106.740661 
L 279.043974 106.243161 
L 276.976777 106.243161 
L 276.976777 102.549082 
L 276.422093 102.549082 
L 276.422093 106.740661 
L 279.043974 106.740661 
M 275.449967 106.740661 
L 275.449967 102.549082 
L 274.892425 102.549082 
L 274.892425 106.740661 
L 275.449967 106.740661 
M 273.073977 105.025144 
L 271.650099 105.025144 
L 272.119006 103.769958 
Q 272.253388 103.4097 272.333446 102.986539 
L 272.347742 102.986539 
Q 272.427799 103.295332 272.493561 103.47975 
Q 272.559322 103.664168 273.073977 105.025144 
M 267.24408 104.393262 
L 267.24408 103.009412 
L 268.567887 103.009412 
Q 269.048232 103.009412 269.256953 103.209556 
Q 269.465674 103.4097 269.465674 103.695619 
Q 269.465674 103.915777 269.33987 104.093047 
Q 269.214065 104.270317 269.003914 104.33179 
Q 268.793764 104.393262 268.433505 104.393262 
L 267.24408 104.393262 
" clip-path="url(#p660d1459c1)" style="fill: #ff0000"/>
   </g>
   <g id="patch_22">
    <path d="M 249.473236 81.59119 
L 459.052161 81.59119 
L 459.052161 39.675405 
L 249.473236 39.675405 
L 249.473236 81.59119 
" clip-path="url(#p660d1459c1)" style="fill: none; stroke: #ffffff; stroke-width: 0.48; stroke-linejoin: miter"/>
   </g>
   <g id="patch_23">
    <path d="M 277.417093 85.782768 
L 291.389021 85.782768 
L 291.389021 81.59119 
L 277.417093 81.59119 
L 277.417093 85.782768 
" clip-path="url(#p660d1459c1)" style="fill: none; stroke: #ffffff; stroke-width: 0.48; stroke-linejoin: miter"/>
   </g>
   <g id="patch_24">
    <path d="M 417.136376 85.782768 
L 431.108304 85.782768 
L 431.108304 81.59119 
L 417.136376 81.59119 
L 417.136376 85.782768 
" clip-path="url(#p660d1459c1)" style="fill: none; stroke: #ffffff; stroke-width: 0.48; stroke-linejoin: miter"/>
   </g>
   <g id="patch_25">
    <path d="M 274.622707 39.675405 
L 274.622707 50.852947 
L 280.211479 50.852947 
L 280.211479 39.675405 
" clip-path="url(#p660d1459c1)" style="fill: none; stroke: #ffffff; stroke-width: 0.48; stroke-linejoin: miter"/>
   </g>
   <g id="patch_26">
    <path d="M 428.313918 39.675405 
L 428.313918 50.852947 
L 433.90269 50.852947 
L 433.90269 39.675405 
" clip-path="url(#p660d1459c1)" style="fill: none; stroke: #ffffff; stroke-width: 0.48; stroke-linejoin: miter"/>
   </g>
   <g id="patch_27">
    <path d="M 260.890951 53.647333 
L 260.890951 49.455755 
L 260.153279 49.455755 
L 259.152561 52.372133 
Q 259.006742 52.801012 258.929544 53.044043 
L 258.918107 53.044043 
Q 258.892375 52.918239 258.726541 52.423598 
L 257.734401 49.455755 
L 256.905235 49.455755 
L 256.905235 53.647333 
L 257.431326 53.647333 
L 257.431326 50.081918 
L 257.448482 50.081918 
L 258.649343 53.647333 
L 259.146843 53.647333 
L 260.353423 50.139102 
L 260.36486 50.139102 
L 260.36486 53.647333 
L 260.890951 53.647333 
M 274.360614 53.647333 
L 272.650816 49.455755 
L 272.053245 49.455755 
L 270.443519 53.647333 
L 271.029653 53.647333 
L 271.492843 52.372133 
L 273.24267 52.372133 
L 273.734451 53.647333 
L 274.360614 53.647333 
M 285.028267 53.647333 
L 284.296314 52.506515 
Q 283.927478 51.928957 283.507176 51.74311 
L 283.507176 51.731673 
Q 284.081874 51.654475 284.38209 51.365696 
Q 284.682305 51.076918 284.682305 50.602291 
Q 284.682305 50.339246 284.577944 50.101932 
Q 284.473584 49.864619 284.279159 49.708793 
Q 284.084733 49.552967 283.827406 49.504361 
Q 283.570079 49.455755 283.189806 49.455755 
L 281.334189 49.455755 
L 281.334189 53.647333 
L 281.888872 53.647333 
L 281.888872 51.797435 
L 282.529332 51.797435 
Q 282.772363 51.797435 282.919612 51.840322 
Q 283.06686 51.88321 283.234123 52.044755 
Q 283.401386 52.206299 283.552923 52.432176 
Q 283.704461 52.658052 284.330624 53.647333 
L 285.028267 53.647333 
M 270.383476 53.647333 
L 269.651522 52.506515 
Q 269.282686 51.928957 268.862384 51.74311 
L 268.862384 51.731673 
Q 269.437082 51.654475 269.737298 51.365696 
Q 270.037513 51.076918 270.037513 50.602291 
Q 270.037513 50.339246 269.933152 50.101932 
Q 269.828792 49.864619 269.634367 49.708793 
Q 269.439942 49.552967 269.182614 49.504361 
Q 268.925287 49.455755 268.545014 49.455755 
L 266.689397 49.455755 
L 266.689397 53.647333 
L 267.24408 53.647333 
L 267.24408 51.797435 
L 267.88454 51.797435 
Q 268.127571 51.797435 268.27482 51.840322 
Q 268.422068 51.88321 268.589331 52.044755 
Q 268.756594 52.206299 268.908131 52.432176 
Q 269.059669 52.658052 269.685832 53.647333 
L 270.383476 53.647333 
M 264.330562 49.910366 
L 264.330562 49.512939 
L 261.617187 49.512939 
L 261.617187 50.010438 
L 263.667229 50.010438 
Q 263.026769 50.74811 262.625052 51.770272 
Q 262.223336 52.792434 262.203321 53.647333 
L 262.729413 53.647333 
Q 262.809471 52.583713 263.261223 51.585854 
Q 263.712976 50.587995 264.330562 49.910366 
M 279.043974 53.647333 
L 279.043974 53.149833 
L 276.976777 53.149833 
L 276.976777 49.455755 
L 276.422093 49.455755 
L 276.422093 53.647333 
L 279.043974 53.647333 
M 275.449967 53.647333 
L 275.449967 49.455755 
L 274.892425 49.455755 
L 274.892425 53.647333 
L 275.449967 53.647333 
M 273.073977 51.931817 
L 271.650099 51.931817 
L 272.119006 50.676631 
Q 272.253388 50.316372 272.333446 49.893211 
L 272.347742 49.893211 
Q 272.427799 50.202004 272.493561 50.386422 
Q 272.559322 50.57084 273.073977 51.931817 
M 281.888872 51.299935 
L 281.888872 49.916085 
L 283.212679 49.916085 
Q 283.693024 49.916085 283.901745 50.116228 
Q 284.110466 50.316372 284.110466 50.602291 
Q 284.110466 50.822449 283.984662 50.999719 
Q 283.858857 51.176989 283.648706 51.238462 
Q 283.438556 51.299935 283.078297 51.299935 
L 281.888872 51.299935 
M 267.24408 51.299935 
L 267.24408 49.916085 
L 268.567887 49.916085 
Q 269.048232 49.916085 269.256953 50.116228 
Q 269.465674 50.316372 269.465674 50.602291 
Q 269.465674 50.822449 269.33987 50.999719 
Q 269.214065 51.176989 269.003914 51.238462 
Q 268.793764 51.299935 268.433505 51.299935 
L 267.24408 51.299935 
" clip-path="url(#p660d1459c1)" style="fill: #ff0000"/>
   </g>
   <g id="patch_28">
    <path d="M 119.534303 194.763809 
C 119.534303 217.913257 100.767967 236.679594 77.618519 236.679594 
C 54.46907 236.679594 35.702734 217.913257 35.702734 194.763809 
C 35.702734 171.61436 54.46907 152.848024 77.618519 152.848024 
C 100.767967 152.848024 119.534303 171.61436 119.534303 194.763809 
" clip-path="url(#p660d1459c1)" style="fill: none; stroke: #ffffff; stroke-width: 0.48; stroke-linejoin: miter"/>
   </g>
   <g id="patch_29">
    <path d="M 79.854027 194.763809 
C 79.854027 195.998446 78.853156 196.999317 77.618519 196.999317 
C 76.383881 196.999317 75.38301 195.998446 75.38301 194.763809 
C 75.38301 193.529171 76.383881 192.5283 77.618519 192.5283 
C 78.853156 192.5283 79.854027 193.529171 79.854027 194.763809 
" clip-path="url(#p660d1459c1)" style="fill: none; stroke: #ffffff; stroke-width: 0.48; stroke-linejoin: miter"/>
   </g>
   <g id="patch_30">
    <path d="M 115.342725 194.763809 
C 115.342725 215.598313 98.453022 232.488015 77.618519 232.488015 
C 56.784015 232.488015 39.894312 215.598313 39.894312 194.763809 
C 39.894312 173.929305 56.784015 157.039602 77.618519 157.039602 
C 98.453022 157.039602 115.342725 173.929305 115.342725 194.763809 
" clip-path="url(#p660d1459c1)" style="fill: none; stroke: #ff0000; stroke-width: 0.48; stroke-linejoin: miter"/>
   </g>
   <g id="patch_31">
    <path d="M 108.356761 194.763809 
C 108.356761 198.62205 105.229038 201.749773 101.370797 201.749773 
C 97.512555 201.749773 94.384832 198.62205 94.384832 194.763809 
C 94.384832 190.905567 97.512555 187.777845 101.370797 187.777845 
C 105.229038 187.777845 108.356761 190.905567 108.356761 194.763809 
" clip-path="url(#p660d1459c1)" style="fill: none; stroke: #ffffff; stroke-width: 0.48; stroke-linejoin: miter"/>
   </g>
   <g id="patch_32">
    <path d="M 96.480622 174.193733 
C 96.480622 178.051974 93.352899 181.179697 89.494658 181.179697 
C 85.636416 181.179697 82.508693 178.051974 82.508693 174.193733 
C 82.508693 170.335491 85.636416 167.207768 89.494658 167.207768 
C 93.352899 167.207768 96.480622 170.335491 96.480622 174.193733 
" clip-path="url(#p660d1459c1)" style="fill: none; stroke: #ffffff; stroke-width: 0.48; stroke-linejoin: miter"/>
   </g>
   <g id="patch_33">
    <path d="M 72.728344 174.193733 
C 72.728344 178.051974 69.600621 181.179697 65.742379 181.179697 
C 61.884138 181.179697 58.756415 178.051974 58.756415 174.193733 
C 58.756415 170.335491 61.884138 167.207768 65.742379 167.207768 
C 69.600621 167.207768 72.728344 170.335491 72.728344 174.193733 
" clip-path="url(#p660d1459c1)" style="fill: none; stroke: #ffffff; stroke-width: 0.48; stroke-linejoin: miter"/>
   </g>
   <g id="patch_34">
    <path d="M 60.852205 194.763809 
C 60.852205 198.62205 57.724482 201.749773 53.86624 201.749773 
C 50.007999 201.749773 46.880276 198.62205 46.880276 194.763809 
C 46.880276 190.905567 50.007999 187.777845 53.86624 187.777845 
C 57.724482 187.777845 60.852205 190.905567 60.852205 194.763809 
" clip-path="url(#p660d1459c1)" style="fill: none; stroke: #ffffff; stroke-width: 0.48; stroke-linejoin: miter"/>
   </g>
   <g id="patch_35">
    <path d="M 72.728344 215.333885 
C 72.728344 219.192126 69.600621 222.319849 65.742379 222.319849 
C 61.884138 222.319849 58.756415 219.192126 58.756415 215.333885 
C 58.756415 211.475644 61.884138 208.347921 65.742379 208.347921 
C 69.600621 208.347921 72.728344 211.475644 72.728344 215.333885 
" clip-path="url(#p660d1459c1)" style="fill: none; stroke: #ffffff; stroke-width: 0.48; stroke-linejoin: miter"/>
   </g>
   <g id="patch_36">
    <path d="M 96.480622 215.333885 
C 96.480622 219.192126 93.352899 222.319849 89.494658 222.319849 
C 85.636416 222.319849 82.508693 219.192126 82.508693 215.333885 
C 82.508693 211.475644 85.636416 208.347921 89.494658 208.347921 
C 93.352899 208.347921 96.480622 211.475644 96.480622 215.333885 
" clip-path="url(#p660d1459c1)" style="fill: none; stroke: #ffffff; stroke-width: 0.48; stroke-linejoin: miter"/>
   </g>
   <g id="patch_37">
    <path d="M 72.877975 194.763809 
L 72.50628 194.763809 
L 72.065964 196.559383 
Q 71.972563 196.940608 71.932535 197.167438 
L 71.92491 197.167438 
Q 71.858196 196.702342 71.709517 196.176251 
L 71.313043 194.763809 
L 70.863196 194.763809 
L 70.331386 196.648971 
Q 70.287545 196.805273 70.2113 197.167438 
L 70.203675 197.167438 
Q 70.203675 197.161719 70.199863 197.127409 
Q 70.176989 196.957764 70.091214 196.597505 
L 69.660428 194.763809 
L 69.283015 194.763809 
L 70.028311 197.558194 
L 70.401913 197.558194 
L 70.996625 195.430954 
L 71.074776 195.099288 
L 71.082401 195.099288 
Q 71.095744 195.186969 71.143397 195.356615 
L 71.753358 197.558194 
L 72.107899 197.558194 
L 72.877975 194.763809 
M 74.383817 197.558194 
L 74.383817 194.750466 
L 74.1608 194.750466 
Q 73.945407 195.169814 73.352601 195.453828 
L 73.352601 195.785494 
Q 73.783386 195.615849 74.040714 195.371864 
L 74.040714 197.558194 
L 74.383817 197.558194 
" clip-path="url(#p660d1459c1)" style="fill: #ff0000"/>
   </g>
   <g id="patch_38">
    <path d="M 214.543416 194.763809 
C 214.543416 217.913257 195.77708 236.679594 172.627631 236.679594 
C 149.478182 236.679594 130.711846 217.913257 130.711846 194.763809 
C 130.711846 171.61436 149.478182 152.848024 172.627631 152.848024 
C 195.77708 152.848024 214.543416 171.61436 214.543416 194.763809 
" clip-path="url(#p660d1459c1)" style="fill: none; stroke: #ffffff; stroke-width: 0.48; stroke-linejoin: miter"/>
   </g>
   <g id="patch_39">
    <path d="M 174.863139 194.763809 
C 174.863139 195.998446 173.862268 196.999317 172.627631 196.999317 
C 171.392994 196.999317 170.392122 195.998446 170.392122 194.763809 
C 170.392122 193.529171 171.392994 192.5283 172.627631 192.5283 
C 173.862268 192.5283 174.863139 193.529171 174.863139 194.763809 
" clip-path="url(#p660d1459c1)" style="fill: none; stroke: #ffffff; stroke-width: 0.48; stroke-linejoin: miter"/>
   </g>
   <g id="patch_40">
    <path d="M 210.351837 194.763809 
C 210.351837 215.598313 193.462135 232.488015 172.627631 232.488015 
C 151.793127 232.488015 134.903424 215.598313 134.903424 194.763809 
C 134.903424 173.929305 151.793127 157.039602 172.627631 157.039602 
C 193.462135 157.039602 210.351837 173.929305 210.351837 194.763809 
" clip-path="url(#p660d1459c1)" style="fill: none; stroke: #ff0000; stroke-width: 0.48; stroke-linejoin: miter"/>
   </g>
   <g id="patch_41">
    <path d="M 203.365873 194.763809 
C 203.365873 198.62205 200.23815 201.749773 196.379909 201.749773 
C 192.521667 201.749773 189.393945 198.62205 189.393945 194.763809 
C 189.393945 190.905567 192.521667 187.777845 196.379909 187.777845 
C 200.23815 187.777845 203.365873 190.905567 203.365873 194.763809 
" clip-path="url(#p660d1459c1)" style="fill: none; stroke: #ffffff; stroke-width: 0.48; stroke-linejoin: miter"/>
   </g>
   <g id="patch_42">
    <path d="M 191.489734 174.193733 
C 191.489734 178.051974 188.362011 181.179697 184.50377 181.179697 
C 180.645528 181.179697 177.517806 178.051974 177.517806 174.193733 
C 177.517806 170.335491 180.645528 167.207768 184.50377 167.207768 
C 188.362011 167.207768 191.489734 170.335491 191.489734 174.193733 
" clip-path="url(#p660d1459c1)" style="fill: none; stroke: #ffffff; stroke-width: 0.48; stroke-linejoin: miter"/>
   </g>
   <g id="patch_43">
    <path d="M 167.737456 174.193733 
C 167.737456 178.051974 164.609733 181.179697 160.751492 181.179697 
C 156.89325 181.179697 153.765528 178.051974 153.765528 174.193733 
C 153.765528 170.335491 156.89325 167.207768 160.751492 167.207768 
C 164.609733 167.207768 167.737456 170.335491 167.737456 174.193733 
" clip-path="url(#p660d1459c1)" style="fill: none; stroke: #ffffff; stroke-width: 0.48; stroke-linejoin: miter"/>
   </g>
   <g id="patch_44">
    <path d="M 155.861317 194.763809 
C 155.861317 198.62205 152.733594 201.749773 148.875353 201.749773 
C 145.017111 201.749773 141.889389 198.62205 141.889389 194.763809 
C 141.889389 190.905567 145.017111 187.777845 148.875353 187.777845 
C 152.733594 187.777845 155.861317 190.905567 155.861317 194.763809 
" clip-path="url(#p660d1459c1)" style="fill: none; stroke: #ffffff; stroke-width: 0.48; stroke-linejoin: miter"/>
   </g>
   <g id="patch_45">
    <path d="M 167.737456 215.333885 
C 167.737456 219.192126 164.609733 222.319849 160.751492 222.319849 
C 156.89325 222.319849 153.765528 219.192126 153.765528 215.333885 
C 153.765528 211.475644 156.89325 208.347921 160.751492 208.347921 
C 164.609733 208.347921 167.737456 211.475644 167.737456 215.333885 
" clip-path="url(#p660d1459c1)" style="fill: none; stroke: #ffffff; stroke-width: 0.48; stroke-linejoin: miter"/>
   </g>
   <g id="patch_46">
    <path d="M 191.489734 215.333885 
C 191.489734 219.192126 188.362011 222.319849 184.50377 222.319849 
C 180.645528 222.319849 177.517806 219.192126 177.517806 215.333885 
C 177.517806 211.475644 180.645528 208.347921 184.50377 208.347921 
C 188.362011 208.347921 191.489734 211.475644 191.489734 215.333885 
" clip-path="url(#p660d1459c1)" style="fill: none; stroke: #ffffff; stroke-width: 0.48; stroke-linejoin: miter"/>
   </g>
   <g id="patch_47">
    <path d="M 167.887087 194.763809 
L 167.515392 194.763809 
L 167.075076 196.559383 
Q 166.981676 196.940608 166.941647 197.167438 
L 166.934022 197.167438 
Q 166.867308 196.702342 166.71863 196.176251 
L 166.322155 194.763809 
L 165.872308 194.763809 
L 165.340498 196.648971 
Q 165.296657 196.805273 165.220412 197.167438 
L 165.212788 197.167438 
Q 165.212788 197.161719 165.208975 197.127409 
Q 165.186102 196.957764 165.100326 196.597505 
L 164.669541 194.763809 
L 164.292127 194.763809 
L 165.037424 197.558194 
L 165.411025 197.558194 
L 166.005737 195.430954 
L 166.083889 195.099288 
L 166.091513 195.099288 
Q 166.104856 195.186969 166.152509 195.356615 
L 166.762471 197.558194 
L 167.117011 197.558194 
L 167.887087 194.763809 
M 169.89996 197.558194 
L 169.89996 197.226528 
L 168.52564 197.226528 
Q 168.624759 197.051164 168.927834 196.809086 
Q 169.505391 196.347802 169.698863 196.072367 
Q 169.892335 195.796931 169.892335 195.528167 
Q 169.892335 195.206031 169.662647 194.978248 
Q 169.432958 194.750466 169.021234 194.750466 
Q 168.641914 194.750466 168.395071 194.958234 
Q 168.148227 195.166002 168.115823 195.558665 
L 168.468457 195.598693 
Q 168.470363 195.316586 168.626665 195.17458 
Q 168.782968 195.032573 169.01361 195.032573 
Q 169.242345 195.032573 169.391976 195.170767 
Q 169.541607 195.308962 169.541607 195.520542 
Q 169.541607 195.766433 169.324309 196.009464 
Q 169.10701 196.252496 168.830621 196.473607 
Q 168.378868 196.837678 168.213988 197.079756 
Q 168.049108 197.321834 168.049108 197.558194 
L 169.89996 197.558194 
" clip-path="url(#p660d1459c1)" style="fill: #ff0000"/>
   </g>
   <g id="patch_48">
    <path d="M 309.552528 194.763809 
C 309.552528 217.913257 290.786192 236.679594 267.636743 236.679594 
C 244.487294 236.679594 225.720958 217.913257 225.720958 194.763809 
C 225.720958 171.61436 244.487294 152.848024 267.636743 152.848024 
C 290.786192 152.848024 309.552528 171.61436 309.552528 194.763809 
" clip-path="url(#p660d1459c1)" style="fill: none; stroke: #ffffff; stroke-width: 0.48; stroke-linejoin: miter"/>
   </g>
   <g id="patch_49">
    <path d="M 269.872252 194.763809 
C 269.872252 195.998446 268.87138 196.999317 267.636743 196.999317 
C 266.402106 196.999317 265.401235 195.998446 265.401235 194.763809 
C 265.401235 193.529171 266.402106 192.5283 267.636743 192.5283 
C 268.87138 192.5283 269.872252 193.529171 269.872252 194.763809 
" clip-path="url(#p660d1459c1)" style="fill: none; stroke: #ffffff; stroke-width: 0.48; stroke-linejoin: miter"/>
   </g>
   <g id="patch_50">
    <path d="M 305.360949 194.763809 
C 305.360949 215.598313 288.471247 232.488015 267.636743 232.488015 
C 246.802239 232.488015 229.912537 215.598313 229.912537 194.763809 
C 229.912537 173.929305 246.802239 157.039602 267.636743 157.039602 
C 288.471247 157.039602 305.360949 173.929305 305.360949 194.763809 
" clip-path="url(#p660d1459c1)" style="fill: none; stroke: #ff0000; stroke-width: 0.48; stroke-linejoin: miter"/>
   </g>
   <g id="patch_51">
    <path d="M 298.374985 194.763809 
C 298.374985 198.62205 295.247263 201.749773 291.389021 201.749773 
C 287.53078 201.749773 284.403057 198.62205 284.403057 194.763809 
C 284.403057 190.905567 287.53078 187.777845 291.389021 187.777845 
C 295.247263 187.777845 298.374985 190.905567 298.374985 194.763809 
" clip-path="url(#p660d1459c1)" style="fill: none; stroke: #ffffff; stroke-width: 0.48; stroke-linejoin: miter"/>
   </g>
   <g id="patch_52">
    <path d="M 286.498846 174.193733 
C 286.498846 178.051974 283.371124 181.179697 279.512882 181.179697 
C 275.654641 181.179697 272.526918 178.051974 272.526918 174.193733 
C 272.526918 170.335491 275.654641 167.207768 279.512882 167.207768 
C 283.371124 167.207768 286.498846 170.335491 286.498846 174.193733 
" clip-path="url(#p660d1459c1)" style="fill: none; stroke: #ffffff; stroke-width: 0.48; stroke-linejoin: miter"/>
   </g>
   <g id="patch_53">
    <path d="M 262.746568 174.193733 
C 262.746568 178.051974 259.618846 181.179697 255.760604 181.179697 
C 251.902363 181.179697 248.77464 178.051974 248.77464 174.193733 
C 248.77464 170.335491 251.902363 167.207768 255.760604 167.207768 
C 259.618846 167.207768 262.746568 170.335491 262.746568 174.193733 
" clip-path="url(#p660d1459c1)" style="fill: none; stroke: #ffffff; stroke-width: 0.48; stroke-linejoin: miter"/>
   </g>
   <g id="patch_54">
    <path d="M 250.870429 194.763809 
C 250.870429 198.62205 247.742707 201.749773 243.884465 201.749773 
C 240.026224 201.749773 236.898501 198.62205 236.898501 194.763809 
C 236.898501 190.905567 240.026224 187.777845 243.884465 187.777845 
C 247.742707 187.777845 250.870429 190.905567 250.870429 194.763809 
" clip-path="url(#p660d1459c1)" style="fill: none; stroke: #ffffff; stroke-width: 0.48; stroke-linejoin: miter"/>
   </g>
   <g id="patch_55">
    <path d="M 262.746568 215.333885 
C 262.746568 219.192126 259.618846 222.319849 255.760604 222.319849 
C 251.902363 222.319849 248.77464 219.192126 248.77464 215.333885 
C 248.77464 211.475644 251.902363 208.347921 255.760604 208.347921 
C 259.618846 208.347921 262.746568 211.475644 262.746568 215.333885 
" clip-path="url(#p660d1459c1)" style="fill: none; stroke: #ffffff; stroke-width: 0.48; stroke-linejoin: miter"/>
   </g>
   <g id="patch_56">
    <path d="M 286.498846 215.333885 
C 286.498846 219.192126 283.371124 222.319849 279.512882 222.319849 
C 275.654641 222.319849 272.526918 219.192126 272.526918 215.333885 
C 272.526918 211.475644 275.654641 208.347921 279.512882 208.347921 
C 283.371124 208.347921 286.498846 211.475644 286.498846 215.333885 
" clip-path="url(#p660d1459c1)" style="fill: none; stroke: #ffffff; stroke-width: 0.48; stroke-linejoin: miter"/>
   </g>
   <g id="patch_57">
    <path d="M 262.896199 194.763809 
L 262.524504 194.763809 
L 262.084188 196.559383 
Q 261.990788 196.940608 261.950759 197.167438 
L 261.943135 197.167438 
Q 261.87642 196.702342 261.727742 196.176251 
L 261.331267 194.763809 
L 260.881421 194.763809 
L 260.349611 196.648971 
Q 260.30577 196.805273 260.229524 197.167438 
L 260.2219 197.167438 
Q 260.2219 197.161719 260.218088 197.127409 
Q 260.195214 196.957764 260.109438 196.597505 
L 259.678653 194.763809 
L 259.301239 194.763809 
L 260.046536 197.558194 
L 260.420137 197.558194 
L 261.01485 195.430954 
L 261.093001 195.099288 
L 261.100626 195.099288 
Q 261.113968 195.186969 261.161622 195.356615 
L 261.771583 197.558194 
L 262.126123 197.558194 
L 262.896199 194.763809 
M 264.417291 196.046634 
L 264.417291 196.039009 
Q 264.800423 195.867458 264.800423 195.476701 
Q 264.800423 195.17172 264.566922 194.961093 
Q 264.333421 194.750466 263.984599 194.750466 
Q 263.668182 194.750466 263.440399 194.931548 
Q 263.212617 195.11263 263.145902 195.476701 
L 263.489006 195.539603 
Q 263.523316 195.295619 263.653886 195.164096 
Q 263.784456 195.032573 263.992224 195.032573 
Q 264.173306 195.032573 264.3115 195.146941 
Q 264.449695 195.261309 264.449695 195.469077 
Q 264.449695 195.612036 264.384886 195.708296 
Q 264.320078 195.804555 264.220959 195.856021 
Q 264.121841 195.907486 264.041783 195.920829 
Q 263.961726 195.934172 263.824484 195.934172 
L 263.784456 196.235341 
Q 263.927415 196.199124 264.026534 196.199124 
Q 264.270519 196.199124 264.422056 196.353521 
Q 264.573593 196.507917 264.573593 196.742371 
Q 264.573593 196.986356 264.406807 197.155048 
Q 264.240021 197.32374 263.999848 197.32374 
Q 263.776831 197.32374 263.640543 197.186499 
Q 263.504255 197.049258 263.452789 196.772869 
L 263.109686 196.820522 
Q 263.149715 197.175062 263.389887 197.390455 
Q 263.630059 197.605848 263.999848 197.605848 
Q 264.386793 197.605848 264.664134 197.36091 
Q 264.941476 197.115972 264.941476 196.734747 
Q 264.941476 196.498386 264.809 196.29729 
Q 264.676524 196.096193 264.417291 196.046634 
" clip-path="url(#p660d1459c1)" style="fill: #ff0000"/>
   </g>
   <g id="patch_58">
    <path d="M 404.56164 194.763809 
C 404.56164 217.913257 385.795304 236.679594 362.645855 236.679594 
C 339.496407 236.679594 320.730071 217.913257 320.730071 194.763809 
C 320.730071 171.61436 339.496407 152.848024 362.645855 152.848024 
C 385.795304 152.848024 404.56164 171.61436 404.56164 194.763809 
" clip-path="url(#p660d1459c1)" style="fill: none; stroke: #ffffff; stroke-width: 0.48; stroke-linejoin: miter"/>
   </g>
   <g id="patch_59">
    <path d="M 364.881364 194.763809 
C 364.881364 195.998446 363.880493 196.999317 362.645855 196.999317 
C 361.411218 196.999317 360.410347 195.998446 360.410347 194.763809 
C 360.410347 193.529171 361.411218 192.5283 362.645855 192.5283 
C 363.880493 192.5283 364.881364 193.529171 364.881364 194.763809 
" clip-path="url(#p660d1459c1)" style="fill: none; stroke: #ffffff; stroke-width: 0.48; stroke-linejoin: miter"/>
   </g>
   <g id="patch_60">
    <path d="M 400.370062 194.763809 
C 400.370062 215.598313 383.480359 232.488015 362.645855 232.488015 
C 341.811352 232.488015 324.921649 215.598313 324.921649 194.763809 
C 324.921649 173.929305 341.811352 157.039602 362.645855 157.039602 
C 383.480359 157.039602 400.370062 173.929305 400.370062 194.763809 
" clip-path="url(#p660d1459c1)" style="fill: none; stroke: #ff0000; stroke-width: 0.48; stroke-linejoin: miter"/>
   </g>
   <g id="patch_61">
    <path d="M 393.384098 194.763809 
C 393.384098 198.62205 390.256375 201.749773 386.398134 201.749773 
C 382.539892 201.749773 379.412169 198.62205 379.412169 194.763809 
C 379.412169 190.905567 382.539892 187.777845 386.398134 187.777845 
C 390.256375 187.777845 393.384098 190.905567 393.384098 194.763809 
" clip-path="url(#p660d1459c1)" style="fill: none; stroke: #ffffff; stroke-width: 0.48; stroke-linejoin: miter"/>
   </g>
   <g id="patch_62">
    <path d="M 381.507959 174.193733 
C 381.507959 178.051974 378.380236 181.179697 374.521994 181.179697 
C 370.663753 181.179697 367.53603 178.051974 367.53603 174.193733 
C 367.53603 170.335491 370.663753 167.207768 374.521994 167.207768 
C 378.380236 167.207768 381.507959 170.335491 381.507959 174.193733 
" clip-path="url(#p660d1459c1)" style="fill: none; stroke: #ffffff; stroke-width: 0.48; stroke-linejoin: miter"/>
   </g>
   <g id="patch_63">
    <path d="M 357.755681 174.193733 
C 357.755681 178.051974 354.627958 181.179697 350.769716 181.179697 
C 346.911475 181.179697 343.783752 178.051974 343.783752 174.193733 
C 343.783752 170.335491 346.911475 167.207768 350.769716 167.207768 
C 354.627958 167.207768 357.755681 170.335491 357.755681 174.193733 
" clip-path="url(#p660d1459c1)" style="fill: none; stroke: #ffffff; stroke-width: 0.48; stroke-linejoin: miter"/>
   </g>
   <g id="patch_64">
    <path d="M 345.879541 194.763809 
C 345.879541 198.62205 342.751819 201.749773 338.893577 201.749773 
C 335.035336 201.749773 331.907613 198.62205 331.907613 194.763809 
C 331.907613 190.905567 335.035336 187.777845 338.893577 187.777845 
C 342.751819 187.777845 345.879541 190.905567 345.879541 194.763809 
" clip-path="url(#p660d1459c1)" style="fill: none; stroke: #ffffff; stroke-width: 0.48; stroke-linejoin: miter"/>
   </g>
   <g id="patch_65">
    <path d="M 357.755681 215.333885 
C 357.755681 219.192126 354.627958 222.319849 350.769716 222.319849 
C 346.911475 222.319849 343.783752 219.192126 343.783752 215.333885 
C 343.783752 211.475644 346.911475 208.347921 350.769716 208.347921 
C 354.627958 208.347921 357.755681 211.475644 357.755681 215.333885 
" clip-path="url(#p660d1459c1)" style="fill: none; stroke: #ffffff; stroke-width: 0.48; stroke-linejoin: miter"/>
   </g>
   <g id="patch_66">
    <path d="M 381.507959 215.333885 
C 381.507959 219.192126 378.380236 222.319849 374.521994 222.319849 
C 370.663753 222.319849 367.53603 219.192126 367.53603 215.333885 
C 367.53603 211.475644 370.663753 208.347921 374.521994 208.347921 
C 378.380236 208.347921 381.507959 211.475644 381.507959 215.333885 
" clip-path="url(#p660d1459c1)" style="fill: none; stroke: #ffffff; stroke-width: 0.48; stroke-linejoin: miter"/>
   </g>
   <g id="patch_67">
    <path d="M 357.905312 194.763809 
L 357.533616 194.763809 
L 357.093301 196.559383 
Q 356.9999 196.940608 356.959872 197.167438 
L 356.952247 197.167438 
Q 356.885532 196.702342 356.736854 196.176251 
L 356.340379 194.763809 
L 355.890533 194.763809 
L 355.358723 196.648971 
Q 355.314882 196.805273 355.238637 197.167438 
L 355.231012 197.167438 
Q 355.231012 197.161719 355.2272 197.127409 
Q 355.204326 196.957764 355.118551 196.597505 
L 354.687765 194.763809 
L 354.310352 194.763809 
L 355.055648 197.558194 
L 355.42925 197.558194 
L 356.023962 195.430954 
L 356.102113 195.099288 
L 356.109738 195.099288 
Q 356.123081 195.186969 356.170734 195.356615 
L 356.780695 197.558194 
L 357.135235 197.558194 
L 357.905312 194.763809 
M 359.937246 196.891049 
L 359.937246 196.574632 
L 359.559832 196.574632 
L 359.559832 194.763809 
L 359.277725 194.763809 
L 358.006337 196.574632 
L 358.006337 196.891049 
L 359.216729 196.891049 
L 359.216729 197.558194 
L 359.559832 197.558194 
L 359.559832 196.891049 
L 359.937246 196.891049 
M 359.216729 196.574632 
L 358.341815 196.574632 
L 359.209104 195.312774 
L 359.216729 195.312774 
L 359.216729 196.574632 
" clip-path="url(#p660d1459c1)" style="fill: #ff0000"/>
   </g>
   <g id="patch_68">
    <path d="M 28.71677 320.511163 
L 140.492196 320.511163 
L 140.492196 264.62345 
L 28.71677 264.62345 
L 28.71677 320.511163 
" clip-path="url(#p660d1459c1)" style="fill: none; stroke: #ffffff; stroke-width: 0.48; stroke-linejoin: miter"/>
   </g>
   <g id="patch_69">
    <path d="M 67.838169 306.539235 
L 101.370797 306.539235 
L 101.370797 278.595378 
L 67.838169 278.595378 
L 67.838169 306.539235 
" clip-path="url(#p660d1459c1)" style="fill: none; stroke: #ffffff; stroke-width: 0.48; stroke-linejoin: miter"/>
   </g>
   <g id="patch_70">
    <path d="M 47.718592 292.567307 
C 47.718592 293.801944 46.717721 294.802815 45.483083 294.802815 
C 44.248446 294.802815 43.247575 293.801944 43.247575 292.567307 
C 43.247575 291.332669 44.248446 290.331798 45.483083 290.331798 
C 46.717721 290.331798 47.718592 291.332669 47.718592 292.567307 
" clip-path="url(#p660d1459c1)" style="fill: none; stroke: #ffffff; stroke-width: 0.48; stroke-linejoin: miter"/>
   </g>
   <g id="patch_71">
    <path d="M 125.96139 292.567307 
C 125.96139 293.801944 124.960519 294.802815 123.725882 294.802815 
C 122.491245 294.802815 121.490373 293.801944 121.490373 292.567307 
C 121.490373 291.332669 122.491245 290.331798 123.725882 290.331798 
C 124.960519 290.331798 125.96139 291.332669 125.96139 292.567307 
" clip-path="url(#p660d1459c1)" style="fill: none; stroke: #ffffff; stroke-width: 0.48; stroke-linejoin: miter"/>
   </g>
   <g id="patch_72">
    <path d="M 77.618519 324.702742 
L 91.590447 324.702742 
L 91.590447 320.511163 
L 77.618519 320.511163 
L 77.618519 324.702742 
" clip-path="url(#p660d1459c1)" style="fill: none; stroke: #ffffff; stroke-width: 0.48; stroke-linejoin: miter"/>
   </g>
   <g id="patch_73">
    <path d="M 61.406888 271.537934 
Q 60.51482 271.537934 59.955847 272.131217 
Q 59.396875 272.7245 59.396875 273.756669 
Q 59.396875 274.643019 59.948699 275.257746 
Q 60.500524 275.872473 61.406888 275.872473 
Q 62.281802 275.872473 62.845063 275.27919 
Q 63.408324 274.685907 63.408324 273.710922 
Q 63.408324 272.733078 62.847922 272.135506 
Q 62.28752 271.537934 61.406888 271.537934 
M 58.676358 275.800993 
L 58.676358 271.609414 
L 57.938686 271.609414 
L 56.937968 274.525792 
Q 56.792149 274.954671 56.714951 275.197703 
L 56.703514 275.197703 
Q 56.677781 275.071898 56.511948 274.577258 
L 55.519808 271.609414 
L 54.690641 271.609414 
L 54.690641 275.800993 
L 55.216733 275.800993 
L 55.216733 272.235578 
L 55.233888 272.235578 
L 56.43475 275.800993 
L 56.93225 275.800993 
L 58.138829 272.292762 
L 58.150266 272.292762 
L 58.150266 275.800993 
L 58.676358 275.800993 
M 40.134484 275.800993 
L 40.134484 271.609414 
L 39.396812 271.609414 
L 38.396094 274.525792 
Q 38.250276 274.954671 38.173077 275.197703 
L 38.161641 275.197703 
Q 38.135908 275.071898 37.970075 274.577258 
L 36.977934 271.609414 
L 36.148768 271.609414 
L 36.148768 275.800993 
L 36.67486 275.800993 
L 36.67486 272.235578 
L 36.692015 272.235578 
L 37.892876 275.800993 
L 38.390376 275.800993 
L 39.596956 272.292762 
L 39.608393 272.292762 
L 39.608393 275.800993 
L 40.134484 275.800993 
M 67.436929 274.034011 
L 67.436929 271.609414 
L 66.879386 271.609414 
L 66.879386 274.025433 
Q 66.879386 274.471468 66.805047 274.753098 
Q 66.730708 275.034729 66.484817 275.203421 
Q 66.238926 275.372114 65.750004 275.372114 
Q 65.2668 275.372114 65.035205 275.160533 
Q 64.803611 274.948953 64.749286 274.6759 
Q 64.694961 274.402847 64.694961 274.025433 
L 64.694961 271.609414 
L 64.140278 271.609414 
L 64.140278 274.034011 
Q 64.140278 274.397128 64.184595 274.691625 
Q 64.228913 274.986122 64.389028 275.257746 
Q 64.549143 275.529369 64.892246 275.700921 
Q 65.235349 275.872473 65.795751 275.872473 
Q 66.370449 275.872473 66.714982 275.679477 
Q 67.059515 275.486481 67.212482 275.196273 
Q 67.365449 274.906065 67.401189 274.631582 
Q 67.436929 274.3571 67.436929 274.034011 
M 75.582772 272.106914 
L 75.582772 271.609414 
L 72.263248 271.609414 
L 72.263248 272.106914 
L 73.63852 272.106914 
L 73.63852 275.800993 
L 74.196063 275.800993 
L 74.196063 272.106914 
L 75.582772 272.106914 
M 52.489062 272.106914 
L 52.489062 271.609414 
L 49.169538 271.609414 
L 49.169538 272.106914 
L 50.54481 272.106914 
L 50.54481 275.800993 
L 51.102353 275.800993 
L 51.102353 272.106914 
L 52.489062 272.106914 
M 48.91221 272.106914 
L 48.91221 271.609414 
L 45.592686 271.609414 
L 45.592686 272.106914 
L 46.967958 272.106914 
L 46.967958 275.800993 
L 47.525501 275.800993 
L 47.525501 272.106914 
L 48.91221 272.106914 
M 71.665677 275.800993 
L 71.665677 271.609414 
L 71.136726 271.609414 
L 71.136726 274.900347 
L 71.125289 274.900347 
L 68.935146 271.609414 
L 68.369026 271.609414 
L 68.369026 275.800993 
L 68.895117 275.800993 
L 68.895117 272.51006 
L 68.906554 272.51006 
L 71.096697 275.800993 
L 71.665677 275.800993 
M 43.574095 272.064026 
L 43.574095 271.666598 
L 40.86072 271.666598 
L 40.86072 272.164098 
L 42.910762 272.164098 
Q 42.270302 272.90177 41.868586 273.923932 
Q 41.466869 274.946094 41.446855 275.800993 
L 41.972946 275.800993 
Q 42.053004 274.737373 42.504756 273.739514 
Q 42.956509 272.741655 43.574095 272.064026 
M 61.40117 275.397846 
Q 60.766429 275.397846 60.369001 274.947523 
Q 59.971573 274.4972 59.971573 273.768106 
Q 59.971573 272.876037 60.377578 272.444299 
Q 60.783584 272.012561 61.412607 272.012561 
Q 62.024474 272.012561 62.42905 272.452877 
Q 62.833626 272.893192 62.833626 273.710922 
Q 62.830767 274.505778 62.434769 274.951812 
Q 62.03877 275.397846 61.40117 275.397846 
" clip-path="url(#p660d1459c1)" style="fill: #ff0000"/>
   </g>
   <g id="patch_74">
    <path d="M 185.188955 293.23778 
L 185.202366 292.567307 
L 185.188955 291.896833 
L 178.523643 289.730261 
L 178.402122 289.329134 
L 178.264658 288.933188 
L 182.38353 283.262622 
L 182.000285 282.712315 
L 181.595341 282.177773 
L 174.929511 284.342751 
L 174.595422 284.089661 
L 174.25148 283.850133 
L 174.250642 276.841537 
L 173.617128 276.621595 
L 172.975326 276.427162 
L 168.855098 282.096743 
L 168.436052 282.08836 
L 168.017006 282.096743 
L 163.896779 276.427162 
L 163.254976 276.621595 
L 162.621462 276.841537 
L 162.620625 283.850133 
L 162.276682 284.089661 
L 161.942594 284.342751 
L 155.276764 282.177773 
L 154.871819 282.712315 
L 154.488575 283.262622 
L 158.607446 288.933188 
L 158.469982 289.329134 
L 158.348462 289.730261 
L 151.68315 291.896833 
L 151.669738 292.567307 
L 151.68315 293.23778 
L 158.348462 295.404352 
L 158.469982 295.805479 
L 158.607446 296.201425 
L 154.488575 301.871991 
L 154.871819 302.422299 
L 155.276764 302.95684 
L 161.942594 300.791862 
L 162.276682 301.044952 
L 162.620625 301.28448 
L 162.621462 308.293076 
L 163.254976 308.513019 
L 163.896779 308.707452 
L 168.017006 303.037871 
L 168.436052 303.046253 
L 168.855098 303.037871 
L 172.975326 308.707452 
L 173.617128 308.513019 
L 174.250642 308.293076 
L 174.25148 301.28448 
L 174.595422 301.044952 
L 174.929511 300.791862 
L 181.595341 302.95684 
L 182.000285 302.422299 
L 182.38353 301.871991 
L 178.264658 296.201425 
L 178.402122 295.805479 
L 178.523643 295.404352 
L 185.188955 293.23778 
" clip-path="url(#p660d1459c1)" style="fill: none; stroke: #ffffff; stroke-width: 0.48; stroke-linejoin: miter"/>
   </g>
   <g id="patch_75">
    <path d="M 172.487912 292.567307 
C 172.487912 294.805087 170.673832 296.619166 168.436052 296.619166 
C 166.198272 296.619166 164.384193 294.805087 164.384193 292.567307 
C 164.384193 290.329527 166.198272 288.515448 168.436052 288.515448 
C 170.673832 288.515448 172.487912 290.329527 172.487912 292.567307 
" clip-path="url(#p660d1459c1)" style="fill: none; stroke: #ffffff; stroke-width: 0.48; stroke-linejoin: miter"/>
   </g>
   <g id="patch_76">
    <path d="M 165.611169 295.361692 
L 165.611169 292.567307 
L 165.119387 292.567307 
L 164.452242 294.511559 
Q 164.355029 294.797478 164.303564 294.959499 
L 164.295939 294.959499 
Q 164.278784 294.875629 164.168229 294.545869 
L 163.506802 292.567307 
L 162.954024 292.567307 
L 162.954024 295.361692 
L 163.304752 295.361692 
L 163.304752 292.984749 
L 163.316189 292.984749 
L 164.116763 295.361692 
L 164.44843 295.361692 
L 165.252816 293.022872 
L 165.260441 293.022872 
L 165.260441 295.361692 
L 165.611169 295.361692 
M 162.012396 293.386942 
L 162.366936 293.35835 
Q 162.349781 292.956157 162.066721 292.737905 
Q 161.783661 292.519653 161.318565 292.519653 
Q 160.864906 292.519653 160.601861 292.738858 
Q 160.338815 292.958063 160.338815 293.293542 
Q 160.338815 293.588992 160.546583 293.773887 
Q 160.754351 293.958781 161.226118 294.060759 
Q 161.697885 294.162737 161.898029 294.267574 
Q 162.098172 294.372411 162.098172 294.601147 
Q 162.098172 294.820352 161.906606 294.948062 
Q 161.71504 295.075773 161.404341 295.075773 
Q 161.072675 295.075773 160.838221 294.92233 
Q 160.603767 294.768886 160.578987 294.433407 
L 160.228259 294.463905 
Q 160.245414 294.883254 160.538005 295.1463 
Q 160.830596 295.409346 161.41959 295.409346 
Q 161.880873 295.409346 162.167746 295.171079 
Q 162.454618 294.932813 162.454618 294.572555 
Q 162.454618 294.288542 162.298316 294.119849 
Q 162.142013 293.951157 161.922808 293.871099 
Q 161.703603 293.791042 161.356688 293.714797 
Q 160.965931 293.627115 160.827737 293.53848 
Q 160.689543 293.449845 160.689543 293.268762 
Q 160.689543 293.064806 160.868719 292.958063 
Q 161.047895 292.85132 161.333814 292.85132 
Q 161.650232 292.85132 161.819877 292.985702 
Q 161.989523 293.120084 162.012396 293.386942 
" clip-path="url(#p660d1459c1)" style="fill: #ff0000"/>
   </g>
   <g id="patch_77">
    <path d="M 285.796276 293.163425 
L 285.796276 291.971189 
L 279.35255 289.06087 
L 279.245453 288.041905 
L 284.943278 283.855457 
L 284.695398 282.689275 
L 277.787394 281.182279 
L 277.470782 280.207847 
L 282.173685 274.928239 
L 281.688759 273.839078 
L 274.618389 273.801268 
L 274.106101 272.913958 
L 277.608541 266.771933 
L 276.907763 265.807394 
L 269.984037 267.240423 
L 269.29846 266.479014 
L 271.447366 259.743009 
L 270.561362 258.945247 
L 264.086879 261.786485 
L 263.257978 261.184254 
L 263.959431 254.148664 
L 262.926924 253.552546 
L 257.184651 257.677816 
L 256.248653 257.261083 
L 255.471996 250.233398 
L 254.338112 249.864977 
L 249.579013 255.093986 
L 248.576825 254.880964 
L 246.356002 248.168327 
L 245.170297 248.043704 
L 241.602368 254.147919 
L 240.577791 254.147919 
L 237.009862 248.043704 
L 235.824157 248.168327 
L 233.603334 254.880964 
L 232.601145 255.093986 
L 227.842047 249.864977 
L 226.708163 250.233398 
L 225.931506 257.261083 
L 224.995508 257.677816 
L 219.253235 253.552546 
L 218.220728 254.148664 
L 218.92218 261.184254 
L 218.09328 261.786485 
L 211.618797 258.945247 
L 210.732793 259.743009 
L 212.881699 266.479014 
L 212.196122 267.240423 
L 205.272396 265.807394 
L 204.571617 266.771933 
L 208.074058 272.913958 
L 207.561769 273.801268 
L 200.4914 273.839078 
L 200.006474 274.928239 
L 204.709377 280.207847 
L 204.392765 281.182279 
L 197.484761 282.689275 
L 197.236881 283.855457 
L 202.934706 288.041905 
L 202.827609 289.06087 
L 196.383883 291.971189 
L 196.383883 293.163425 
L 202.827609 296.073744 
L 202.934706 297.092709 
L 197.236881 301.279156 
L 197.484761 302.445339 
L 204.392765 303.952335 
L 204.709377 304.926766 
L 200.006474 310.206374 
L 200.4914 311.295536 
L 207.561769 311.333345 
L 208.074058 312.220656 
L 204.571617 318.36268 
L 205.272396 319.327219 
L 212.196122 317.89419 
L 212.881699 318.6556 
L 210.732793 325.391604 
L 211.618797 326.189366 
L 218.09328 323.348128 
L 218.92218 323.95036 
L 218.220728 330.985949 
L 219.253235 331.582067 
L 224.995508 327.456797 
L 225.931506 327.87353 
L 226.708163 334.901215 
L 227.842047 335.269637 
L 232.601145 330.040628 
L 233.603334 330.253649 
L 235.824157 336.966287 
L 237.009862 337.090909 
L 240.577791 330.986694 
L 241.602368 330.986694 
L 245.170297 337.090909 
L 246.356002 336.966287 
L 248.576825 330.253649 
L 249.579013 330.040628 
L 254.338112 335.269637 
L 255.471996 334.901215 
L 256.248653 327.87353 
L 257.184651 327.456797 
L 262.926924 331.582067 
L 263.959431 330.985949 
L 263.257978 323.95036 
L 264.086879 323.348128 
L 270.561362 326.189366 
L 271.447366 325.391604 
L 269.29846 318.6556 
L 269.984037 317.89419 
L 276.907763 319.327219 
L 277.608541 318.36268 
L 274.106101 312.220656 
L 274.618389 311.333345 
L 281.688759 311.295536 
L 282.173685 310.206374 
L 277.470782 304.926766 
L 277.787394 303.952335 
L 284.695398 302.445339 
L 284.943278 301.279156 
L 279.245453 297.092709 
L 279.35255 296.073744 
L 285.796276 293.163425 
L 285.796276 293.163425 
" clip-path="url(#p660d1459c1)" style="fill: none; stroke: #ffffff; stroke-width: 0.48; stroke-linejoin: miter"/>
   </g>
   <g id="patch_78">
    <path d="M 243.325588 292.567307 
C 243.325588 293.801944 242.324717 294.802815 241.090079 294.802815 
C 239.855442 294.802815 238.854571 293.801944 238.854571 292.567307 
C 238.854571 291.332669 239.855442 290.331798 241.090079 290.331798 
C 242.324717 290.331798 243.325588 291.332669 243.325588 292.567307 
" clip-path="url(#p660d1459c1)" style="fill: none; stroke: #ffffff; stroke-width: 0.48; stroke-linejoin: miter"/>
   </g>
   <g id="patch_79">
    <path d="M 237.664765 294.970936 
L 237.664765 293.935908 
L 236.482965 293.935908 
L 236.482965 294.26948 
L 237.306413 294.26948 
L 237.306413 294.787947 
Q 236.928999 295.075773 236.490589 295.075773 
Q 236.202764 295.075773 235.957826 294.949015 
Q 235.712888 294.822258 235.588037 294.574461 
Q 235.463185 294.326664 235.463185 293.953063 
Q 235.463185 293.453657 235.720513 293.144864 
Q 235.97784 292.836071 236.482965 292.836071 
Q 236.808913 292.836071 237.010963 292.987608 
Q 237.213012 293.139146 237.291164 293.440314 
L 237.62283 293.346914 
Q 237.523711 292.933284 237.238745 292.726469 
Q 236.953779 292.519653 236.482965 292.519653 
Q 236.029306 292.519653 235.715748 292.707407 
Q 235.402189 292.895161 235.241121 293.237311 
Q 235.080053 293.579461 235.080053 293.975936 
Q 235.080053 294.625926 235.473669 295.017636 
Q 235.867285 295.409346 236.509651 295.409346 
Q 237.136767 295.409346 237.664765 294.970936 
M 234.748387 295.361692 
L 234.748387 295.030026 
L 233.370255 295.030026 
L 233.370255 292.567307 
L 233.000466 292.567307 
L 233.000466 295.361692 
L 234.748387 295.361692 
" clip-path="url(#p660d1459c1)" style="fill: #ff0000"/>
   </g>
  </g>
 </g>
 <defs>
  <clipPath id="p660d1459c1">
   <rect x="7.2" y="7.2" width="473.36893" height="345.6"/>
  </clipPath>
 </defs>
</svg>
