<?xml version="1.0" encoding="utf-8" standalone="no"?>
<!DOCTYPE svg PUBLIC "-//W3C//DTD SVG 1.1//EN"
  "http://www.w3.org/Graphics/SVG/1.1/DTD/svg11.dtd">
<svg xmlns:xlink="http://www.w3.org/1999/xlink" width="486.576569pt" height="360pt" viewBox="0 0 486.576569 360" xmlns="http://www.w3.org/2000/svg" version="1.1">
 <metadata>
  <rdf:RDF xmlns:dc="http://purl.org/dc/elements/1.1/" xmlns:cc="http://creativecommons.org/ns#" xmlns:rdf="http://www.w3.org/1999/02/22-rdf-syntax-ns#">
   <cc:Work>
    <dc:type rdf:resource="http://purl.org/dc/dcmitype/StillImage"/>
    <dc:date>2026-03-26T11:16:33.767329</dc:date>
    <dc:format>image/svg+xml</dc:format>
    <dc:creator>
     <cc:Agent>
      <dc:title>Matplotlib v3.10.8, https://matplotlib.org/</dc:title>
     </cc:Agent>
    </dc:creator>
   </cc:Work>
  </rdf:RDF>
 </metadata>
 <defs>
  <style type="text/css">*{stroke-linejoin: round; stroke-linecap: butt}</style>
 </defs>
 <g id="figure_1">
  <g id="patch_1">
   <path d="M 0 360 
L 486.576569 360 
L 486.576569 0 
L 0 0 
z
" style="fill: #1a1a2e"/>
  </g>
  <g id="axes_1">
   <g id="patch_2">
    <path d="M 7.2 352.8 
L 479.376569 352.8 
L 479.376569 7.2 
L 7.2 7.2 
z
" style="fill: #1a1a2e"/>
   </g>
   <g id="patch_3">
    <path d="M 28.662571 181.054353 
L 254.584374 181.054353 
L 254.584374 143.400719 
L 28.662571 143.400719 
L 28.662571 181.054353 
" clip-path="url(#pfea91c8a25)" style="fill: none; stroke: #ffffff; stroke-width: 0.48; stroke-linejoin: miter"/>
   </g>
   <g id="patch_4">
    <path d="M 59.915087 162.227536 
C 59.915087 163.891178 58.566439 165.239827 56.902797 165.239827 
C 55.239154 165.239827 53.890506 163.891178 53.890506 162.227536 
C 53.890506 160.563894 55.239154 159.215245 56.902797 159.215245 
C 58.566439 159.215245 59.915087 160.563894 59.915087 162.227536 
" clip-path="url(#pfea91c8a25)" style="fill: none; stroke: #ffffff; stroke-width: 0.48; stroke-linejoin: miter"/>
   </g>
   <g id="patch_5">
    <path d="M 106.98213 162.227536 
C 106.98213 163.891178 105.633481 165.239827 103.969839 165.239827 
C 102.306197 165.239827 100.957548 163.891178 100.957548 162.227536 
C 100.957548 160.563894 102.306197 159.215245 103.969839 159.215245 
C 105.633481 159.215245 106.98213 160.563894 106.98213 162.227536 
" clip-path="url(#pfea91c8a25)" style="fill: none; stroke: #ffffff; stroke-width: 0.48; stroke-linejoin: miter"/>
   </g>
   <g id="patch_6">
    <path d="M 128.768327 171.640945 
L 128.768327 165.9929 
L 127.774333 165.9929 
L 126.425891 169.922644 
Q 126.229404 170.500548 126.125381 170.828027 
L 126.10997 170.828027 
Q 126.075296 170.658508 125.85184 169.991993 
L 124.514956 165.9929 
L 123.397676 165.9929 
L 123.397676 171.640945 
L 124.106571 171.640945 
L 124.106571 166.836639 
L 124.129687 166.836639 
L 125.747817 171.640945 
L 126.418186 171.640945 
L 128.044021 166.913693 
L 128.059432 166.913693 
L 128.059432 171.640945 
L 128.768327 171.640945 
M 146.918355 171.640945 
L 144.614445 165.9929 
L 143.809233 165.9929 
L 141.640168 171.640945 
L 142.42997 171.640945 
L 143.054105 169.922644 
L 145.411952 169.922644 
L 146.074615 171.640945 
L 146.918355 171.640945 
M 153.240621 165.9929 
L 153.240621 171.640945 
L 155.274841 171.640945 
Q 156.723453 171.640945 157.316768 170.837659 
Q 157.910082 170.034372 157.910082 168.786101 
Q 157.910082 168.131143 157.765606 167.670747 
Q 157.62113 167.21035 157.368779 166.855902 
Q 157.116428 166.501455 156.779317 166.299189 
Q 156.442207 166.096922 156.072349 166.044911 
Q 155.70249 165.9929 155.190082 165.9929 
L 153.240621 165.9929 
M 174.796427 166.663268 
L 174.796427 165.9929 
L 170.323453 165.9929 
L 170.323453 166.663268 
L 172.176597 166.663268 
L 172.176597 171.640945 
L 172.927872 171.640945 
L 172.927872 166.663268 
L 174.796427 166.663268 
M 151.976938 171.640945 
L 151.976938 165.9929 
L 151.26419 165.9929 
L 151.26419 170.427347 
L 151.248779 170.427347 
L 148.297618 165.9929 
L 147.534785 165.9929 
L 147.534785 171.640945 
L 148.24368 171.640945 
L 148.24368 167.206497 
L 148.259091 167.206497 
L 151.210252 171.640945 
L 151.976938 171.640945 
M 141.016032 171.640945 
L 141.016032 165.9929 
L 140.264757 165.9929 
L 140.264757 168.31222 
L 137.329007 168.31222 
L 137.329007 165.9929 
L 136.581585 165.9929 
L 136.581585 171.640945 
L 137.329007 171.640945 
L 137.329007 168.982588 
L 140.264757 168.982588 
L 140.264757 171.640945 
L 141.016032 171.640945 
M 167.537957 171.640945 
L 167.537957 170.970576 
L 164.066682 170.970576 
L 164.066682 169.059642 
L 167.191215 169.059642 
L 167.191215 168.389273 
L 164.066682 168.389273 
L 164.066682 166.663268 
L 167.406966 166.663268 
L 167.406966 165.9929 
L 163.31926 165.9929 
L 163.31926 171.640945 
L 167.537957 171.640945 
M 132.359035 168.585761 
L 132.359035 168.57035 
Q 133.187364 168.273693 133.187364 167.441511 
Q 133.187364 166.828934 132.734673 166.397432 
Q 132.281981 165.965931 131.546117 165.965931 
Q 130.821811 165.965931 130.374899 166.383948 
Q 129.927987 166.801965 129.927987 167.426101 
Q 129.927987 168.308367 130.775579 168.57035 
L 130.775579 168.585761 
Q 130.282435 168.67052 129.991556 169.0712 
Q 129.700678 169.47188 129.700678 170.007404 
Q 129.700678 170.750973 130.218865 171.244117 
Q 130.737052 171.737262 131.561528 171.737262 
Q 132.378299 171.737262 132.898412 171.24797 
Q 133.418525 170.758678 133.418525 170.03052 
Q 133.418525 168.924797 132.359035 168.585761 
M 162.433141 171.640945 
L 162.433141 170.970576 
L 159.647646 170.970576 
L 159.647646 165.9929 
L 158.900224 165.9929 
L 158.900224 171.640945 
L 162.433141 171.640945 
M 145.184644 169.32933 
L 143.266003 169.32933 
L 143.897845 167.637999 
Q 144.078921 167.15256 144.186797 166.582361 
L 144.20606 166.582361 
Q 144.313935 166.998452 144.402547 167.246951 
Q 144.491159 167.495449 145.184644 169.32933 
M 153.988043 170.970576 
L 153.988043 166.663268 
L 155.174672 166.663268 
Q 155.563793 166.663268 155.812292 166.694089 
Q 156.06079 166.724911 156.322773 166.865534 
Q 156.584756 167.006157 156.787023 167.308594 
Q 156.989289 167.61103 157.064416 167.978962 
Q 157.139544 168.346894 157.139544 168.77069 
Q 157.139544 169.537375 156.943057 170.003551 
Q 156.746569 170.469727 156.447986 170.673919 
Q 156.149402 170.878112 155.858524 170.924344 
Q 155.567646 170.970576 155.197788 170.970576 
L 153.988043 170.970576 
M 131.561528 171.167064 
Q 131.060678 171.167064 130.735126 170.835732 
Q 130.409573 170.504401 130.409573 170.015109 
Q 130.409573 169.545081 130.725494 169.211823 
Q 131.041415 168.878565 131.546117 168.878565 
Q 132.031556 168.878565 132.368667 169.202191 
Q 132.705777 169.525817 132.705777 170.03052 
Q 132.705777 170.535222 132.378299 170.851143 
Q 132.05082 171.167064 131.561528 171.167064 
M 131.561528 168.31222 
Q 131.172406 168.31222 130.906571 168.067574 
Q 130.640735 167.822928 130.640735 167.402984 
Q 130.640735 167.05239 130.898865 166.794259 
Q 131.156996 166.536129 131.553823 166.536129 
Q 131.942944 166.536129 132.210707 166.798112 
Q 132.478469 167.060095 132.478469 167.441511 
Q 132.478469 167.815222 132.214559 168.063721 
Q 131.95065 168.31222 131.561528 168.31222 
" clip-path="url(#pfea91c8a25)" style="fill: #ff0000"/>
   </g>
   <g id="patch_7">
    <path d="M 28.662571 128.339266 
L 254.584374 128.339266 
L 254.584374 90.685632 
L 28.662571 90.685632 
L 28.662571 128.339266 
" clip-path="url(#pfea91c8a25)" style="fill: none; stroke: #ffffff; stroke-width: 0.48; stroke-linejoin: miter"/>
   </g>
   <g id="patch_8">
    <path d="M 59.915087 109.512449 
C 59.915087 111.176091 58.566439 112.524739 56.902797 112.524739 
C 55.239154 112.524739 53.890506 111.176091 53.890506 109.512449 
C 53.890506 107.848807 55.239154 106.500158 56.902797 106.500158 
C 58.566439 106.500158 59.915087 107.848807 59.915087 109.512449 
" clip-path="url(#pfea91c8a25)" style="fill: none; stroke: #ffffff; stroke-width: 0.48; stroke-linejoin: miter"/>
   </g>
   <g id="patch_9">
    <path d="M 106.98213 109.512449 
C 106.98213 111.176091 105.633481 112.524739 103.969839 112.524739 
C 102.306197 112.524739 100.957548 111.176091 100.957548 109.512449 
C 100.957548 107.848807 102.306197 106.500158 103.969839 106.500158 
C 105.633481 106.500158 106.98213 107.848807 106.98213 109.512449 
" clip-path="url(#pfea91c8a25)" style="fill: none; stroke: #ffffff; stroke-width: 0.48; stroke-linejoin: miter"/>
   </g>
   <g id="patch_10">
    <path d="M 128.768327 118.925857 
L 128.768327 113.277812 
L 127.774333 113.277812 
L 126.425891 117.207557 
Q 126.229404 117.785461 126.125381 118.112939 
L 126.10997 118.112939 
Q 126.075296 117.943421 125.85184 117.276905 
L 124.514956 113.277812 
L 123.397676 113.277812 
L 123.397676 118.925857 
L 124.106571 118.925857 
L 124.106571 114.121552 
L 124.129687 114.121552 
L 125.747817 118.925857 
L 126.418186 118.925857 
L 128.044021 114.198605 
L 128.059432 114.198605 
L 128.059432 118.925857 
L 128.768327 118.925857 
M 146.918355 118.925857 
L 144.614445 113.277812 
L 143.809233 113.277812 
L 141.640168 118.925857 
L 142.42997 118.925857 
L 143.054105 117.207557 
L 145.411952 117.207557 
L 146.074615 118.925857 
L 146.918355 118.925857 
M 153.240621 113.277812 
L 153.240621 118.925857 
L 155.274841 118.925857 
Q 156.723453 118.925857 157.316768 118.122571 
Q 157.910082 117.319285 157.910082 116.071013 
Q 157.910082 115.416056 157.765606 114.955659 
Q 157.62113 114.495263 157.368779 114.140815 
Q 157.116428 113.786367 156.779317 113.584101 
Q 156.442207 113.381835 156.072349 113.329824 
Q 155.70249 113.277812 155.190082 113.277812 
L 153.240621 113.277812 
M 151.976938 118.925857 
L 151.976938 113.277812 
L 151.26419 113.277812 
L 151.26419 117.71226 
L 151.248779 117.71226 
L 148.297618 113.277812 
L 147.534785 113.277812 
L 147.534785 118.925857 
L 148.24368 118.925857 
L 148.24368 114.49141 
L 148.259091 114.49141 
L 151.210252 118.925857 
L 151.976938 118.925857 
M 141.016032 118.925857 
L 141.016032 113.277812 
L 140.264757 113.277812 
L 140.264757 115.597132 
L 137.329007 115.597132 
L 137.329007 113.277812 
L 136.581585 113.277812 
L 136.581585 118.925857 
L 137.329007 118.925857 
L 137.329007 116.2675 
L 140.264757 116.2675 
L 140.264757 118.925857 
L 141.016032 118.925857 
M 173.944982 115.920758 
Q 174.337957 115.716566 174.532518 115.402571 
Q 174.727079 115.088577 174.727079 114.718719 
Q 174.727079 114.171636 174.305209 113.724724 
Q 173.883339 113.277812 172.854671 113.277812 
L 170.735691 113.277812 
L 170.735691 118.925857 
L 172.89705 118.925857 
Q 173.648325 118.925857 174.087532 118.739002 
Q 174.526739 118.552146 174.765606 118.155319 
Q 175.004472 117.758492 175.004472 117.284611 
Q 175.004472 116.81073 174.740563 116.446651 
Q 174.476654 116.082571 173.944982 115.920758 
M 167.537957 118.925857 
L 167.537957 118.255489 
L 164.066682 118.255489 
L 164.066682 116.344554 
L 167.191215 116.344554 
L 167.191215 115.674186 
L 164.066682 115.674186 
L 164.066682 113.94818 
L 167.406966 113.94818 
L 167.406966 113.277812 
L 163.31926 113.277812 
L 163.31926 118.925857 
L 167.537957 118.925857 
M 132.359035 115.870673 
L 132.359035 115.855262 
Q 133.187364 115.558605 133.187364 114.726424 
Q 133.187364 114.113846 132.734673 113.682345 
Q 132.281981 113.250843 131.546117 113.250843 
Q 130.821811 113.250843 130.374899 113.66886 
Q 129.927987 114.086877 129.927987 114.711013 
Q 129.927987 115.593279 130.775579 115.855262 
L 130.775579 115.870673 
Q 130.282435 115.955432 129.991556 116.356112 
Q 129.700678 116.756792 129.700678 117.292316 
Q 129.700678 118.035886 130.218865 118.52903 
Q 130.737052 119.022175 131.561528 119.022175 
Q 132.378299 119.022175 132.898412 118.532883 
Q 133.418525 118.043591 133.418525 117.315432 
Q 133.418525 116.20971 132.359035 115.870673 
M 162.433141 118.925857 
L 162.433141 118.255489 
L 159.647646 118.255489 
L 159.647646 113.277812 
L 158.900224 113.277812 
L 158.900224 118.925857 
L 162.433141 118.925857 
M 145.184644 116.614243 
L 143.266003 116.614243 
L 143.897845 114.922911 
Q 144.078921 114.437472 144.186797 113.867274 
L 144.20606 113.867274 
Q 144.313935 114.283365 144.402547 114.531863 
Q 144.491159 114.780362 145.184644 116.614243 
M 153.988043 118.255489 
L 153.988043 113.94818 
L 155.174672 113.94818 
Q 155.563793 113.94818 155.812292 113.979002 
Q 156.06079 114.009823 156.322773 114.150447 
Q 156.584756 114.29107 156.787023 114.593506 
Q 156.989289 114.895942 157.064416 115.263874 
Q 157.139544 115.631806 157.139544 116.055602 
Q 157.139544 116.822288 156.943057 117.288464 
Q 156.746569 117.754639 156.447986 117.958832 
Q 156.149402 118.163024 155.858524 118.209257 
Q 155.567646 118.255489 155.197788 118.255489 
L 153.988043 118.255489 
M 171.483113 118.255489 
L 171.483113 116.313733 
L 172.793028 116.313733 
Q 173.605946 116.313733 173.918013 116.569937 
Q 174.230081 116.826141 174.230081 117.284611 
Q 174.230081 117.739228 173.937277 117.997359 
Q 173.644472 118.255489 172.889345 118.255489 
L 171.483113 118.255489 
M 171.483113 115.643364 
L 171.483113 113.94818 
L 172.611951 113.94818 
Q 173.043453 113.94818 173.31892 113.99056 
Q 173.594387 114.03294 173.792801 114.223648 
Q 173.991215 114.414356 173.991215 114.815036 
Q 173.991215 115.196452 173.794727 115.377529 
Q 173.59824 115.558605 173.342036 115.600985 
Q 173.085832 115.643364 172.708268 115.643364 
L 171.483113 115.643364 
M 131.561528 118.451976 
Q 131.060678 118.451976 130.735126 118.120645 
Q 130.409573 117.789313 130.409573 117.300022 
Q 130.409573 116.829993 130.725494 116.496736 
Q 131.041415 116.163478 131.546117 116.163478 
Q 132.031556 116.163478 132.368667 116.487104 
Q 132.705777 116.81073 132.705777 117.315432 
Q 132.705777 117.820135 132.378299 118.136056 
Q 132.05082 118.451976 131.561528 118.451976 
M 131.561528 115.597132 
Q 131.172406 115.597132 130.906571 115.352486 
Q 130.640735 115.10784 130.640735 114.687897 
Q 130.640735 114.337302 130.898865 114.079172 
Q 131.156996 113.821042 131.553823 113.821042 
Q 131.942944 113.821042 132.210707 114.083025 
Q 132.478469 114.345008 132.478469 114.726424 
Q 132.478469 115.100135 132.214559 115.348634 
Q 131.95065 115.597132 131.561528 115.597132 
" clip-path="url(#pfea91c8a25)" style="fill: #ff0000"/>
   </g>
   <g id="patch_11">
    <path d="M 269.645828 181.054353 
L 457.913997 181.054353 
L 457.913997 152.814128 
L 269.645828 152.814128 
L 269.645828 181.054353 
" clip-path="url(#pfea91c8a25)" style="fill: none; stroke: #ffffff; stroke-width: 0.48; stroke-linejoin: miter"/>
   </g>
   <g id="patch_12">
    <path d="M 291.484936 166.93424 
C 291.484936 168.597883 290.136287 169.946531 288.472645 169.946531 
C 286.809003 169.946531 285.460354 168.597883 285.460354 166.93424 
C 285.460354 165.270598 286.809003 163.92195 288.472645 163.92195 
C 290.136287 163.92195 291.484936 165.270598 291.484936 166.93424 
" clip-path="url(#pfea91c8a25)" style="fill: none; stroke: #ffffff; stroke-width: 0.48; stroke-linejoin: miter"/>
   </g>
   <g id="patch_13">
    <path d="M 366.792203 166.93424 
C 366.792203 168.597883 365.443555 169.946531 363.779913 169.946531 
C 362.11627 169.946531 360.767622 168.597883 360.767622 166.93424 
C 360.767622 165.270598 362.11627 163.92195 363.779913 163.92195 
C 365.443555 163.92195 366.792203 165.270598 366.792203 166.93424 
" clip-path="url(#pfea91c8a25)" style="fill: none; stroke: #ffffff; stroke-width: 0.48; stroke-linejoin: miter"/>
   </g>
   <g id="patch_14">
    <path d="M 442.099471 166.93424 
C 442.099471 168.597883 440.750823 169.946531 439.08718 169.946531 
C 437.423538 169.946531 436.07489 168.597883 436.07489 166.93424 
C 436.07489 165.270598 437.423538 163.92195 439.08718 163.92195 
C 440.750823 163.92195 442.099471 165.270598 442.099471 166.93424 
" clip-path="url(#pfea91c8a25)" style="fill: none; stroke: #ffffff; stroke-width: 0.48; stroke-linejoin: miter"/>
   </g>
   <g id="patch_15">
    <path d="M 327.356571 177.28899 
L 327.356571 173.523626 
L 326.693909 173.523626 
L 325.794947 176.143456 
Q 325.663956 176.528725 325.594607 176.747045 
L 325.584334 176.747045 
Q 325.561217 176.634032 325.412247 176.189689 
L 324.520991 173.523626 
L 323.776137 173.523626 
L 323.776137 177.28899 
L 324.248734 177.28899 
L 324.248734 174.086119 
L 324.264145 174.086119 
L 325.342898 177.28899 
L 325.78981 177.28899 
L 326.873701 174.137488 
L 326.883975 174.137488 
L 326.883975 177.28899 
L 327.356571 177.28899 
M 311.280576 177.28899 
L 311.280576 173.523626 
L 310.617913 173.523626 
L 309.718952 176.143456 
Q 309.58796 176.528725 309.518612 176.747045 
L 309.508338 176.747045 
Q 309.485222 176.634032 309.336251 176.189689 
L 308.444995 173.523626 
L 307.700142 173.523626 
L 307.700142 177.28899 
L 308.172738 177.28899 
L 308.172738 174.086119 
L 308.188149 174.086119 
L 309.266903 177.28899 
L 309.713815 177.28899 
L 310.797705 174.137488 
L 310.807979 174.137488 
L 310.807979 177.28899 
L 311.280576 177.28899 
M 319.581841 177.28899 
L 318.045901 173.523626 
L 317.509093 173.523626 
L 316.06305 177.28899 
L 316.589584 177.28899 
L 317.005675 176.143456 
L 318.577573 176.143456 
L 319.019348 177.28899 
L 319.581841 177.28899 
M 323.316383 177.28899 
L 322.658857 176.264174 
Q 322.327525 175.745345 321.949962 175.578395 
L 321.949962 175.568121 
Q 322.466222 175.498773 322.735911 175.239358 
Q 323.005599 174.979944 323.005599 174.553579 
Q 323.005599 174.317281 322.91185 174.104098 
Q 322.818101 173.890916 322.643446 173.750935 
Q 322.468791 173.610954 322.237629 173.56729 
Q 322.006468 173.523626 321.664863 173.523626 
L 319.997932 173.523626 
L 319.997932 177.28899 
L 320.496213 177.28899 
L 320.496213 175.627196 
L 321.071548 175.627196 
Q 321.289867 175.627196 321.422143 175.665723 
Q 321.554419 175.704249 321.704674 175.849368 
Q 321.854929 175.994486 321.991057 176.197394 
Q 322.127185 176.400302 322.689678 177.28899 
L 323.316383 177.28899 
M 313.674381 175.2522 
L 313.674381 175.241927 
Q 314.2266 175.044155 314.2266 174.489368 
Q 314.2266 174.080982 313.924806 173.793315 
Q 313.623012 173.505647 313.132436 173.505647 
Q 312.649565 173.505647 312.351624 173.784325 
Q 312.053683 174.063003 312.053683 174.479094 
Q 312.053683 175.067271 312.618744 175.241927 
L 312.618744 175.2522 
Q 312.289981 175.308707 312.096062 175.575826 
Q 311.902143 175.842946 311.902143 176.199962 
Q 311.902143 176.695675 312.247601 177.024438 
Q 312.593059 177.353201 313.14271 177.353201 
Q 313.687224 177.353201 314.033966 177.027007 
Q 314.380708 176.700812 314.380708 176.215373 
Q 314.380708 175.478225 313.674381 175.2522 
M 331.191283 177.28899 
L 331.191283 173.505647 
L 330.890773 173.505647 
Q 330.600537 174.070708 329.801746 174.453409 
L 329.801746 174.900321 
Q 330.382218 174.671728 330.72896 174.342965 
L 330.72896 177.28899 
L 331.191283 177.28899 
M 318.426034 175.747913 
L 317.14694 175.747913 
L 317.568168 174.620359 
Q 317.688885 174.296733 317.760802 173.916601 
L 317.773645 173.916601 
Q 317.845561 174.193995 317.904636 174.35966 
Q 317.963711 174.525326 318.426034 175.747913 
M 320.496213 175.180283 
L 320.496213 173.937149 
L 321.68541 173.937149 
Q 322.116912 173.937149 322.304409 174.116941 
Q 322.491907 174.296733 322.491907 174.553579 
Q 322.491907 174.751351 322.378895 174.910595 
Q 322.265882 175.06984 322.0771 175.125062 
Q 321.888319 175.180283 321.564693 175.180283 
L 320.496213 175.180283 
M 313.14271 176.973069 
Q 312.80881 176.973069 312.591775 176.752181 
Q 312.37474 176.531294 312.37474 176.205099 
Q 312.37474 175.891747 312.585354 175.669575 
Q 312.795968 175.447403 313.132436 175.447403 
Q 313.456062 175.447403 313.680802 175.663154 
Q 313.905543 175.878905 313.905543 176.215373 
Q 313.905543 176.551842 313.687224 176.762455 
Q 313.468904 176.973069 313.14271 176.973069 
M 313.14271 175.06984 
Q 312.883295 175.06984 312.706072 174.906742 
Q 312.528848 174.743645 312.528848 174.463683 
Q 312.528848 174.229953 312.700935 174.057866 
Q 312.873022 173.885779 313.137573 173.885779 
Q 313.396988 173.885779 313.575496 174.060435 
Q 313.754004 174.23509 313.754004 174.489368 
Q 313.754004 174.738508 313.578064 174.904174 
Q 313.402124 175.06984 313.14271 175.06984 
" clip-path="url(#pfea91c8a25)" style="fill: #ff0000"/>
   </g>
   <g id="patch_16">
    <path d="M 269.645828 137.752674 
L 457.913997 137.752674 
L 457.913997 109.512449 
L 269.645828 109.512449 
L 269.645828 137.752674 
" clip-path="url(#pfea91c8a25)" style="fill: none; stroke: #ffffff; stroke-width: 0.48; stroke-linejoin: miter"/>
   </g>
   <g id="patch_17">
    <path d="M 291.484936 123.632561 
C 291.484936 125.296204 290.136287 126.644852 288.472645 126.644852 
C 286.809003 126.644852 285.460354 125.296204 285.460354 123.632561 
C 285.460354 121.968919 286.809003 120.620271 288.472645 120.620271 
C 290.136287 120.620271 291.484936 121.968919 291.484936 123.632561 
" clip-path="url(#pfea91c8a25)" style="fill: none; stroke: #ffffff; stroke-width: 0.48; stroke-linejoin: miter"/>
   </g>
   <g id="patch_18">
    <path d="M 366.792203 123.632561 
C 366.792203 125.296204 365.443555 126.644852 363.779913 126.644852 
C 362.11627 126.644852 360.767622 125.296204 360.767622 123.632561 
C 360.767622 121.968919 362.11627 120.620271 363.779913 120.620271 
C 365.443555 120.620271 366.792203 121.968919 366.792203 123.632561 
" clip-path="url(#pfea91c8a25)" style="fill: none; stroke: #ffffff; stroke-width: 0.48; stroke-linejoin: miter"/>
   </g>
   <g id="patch_19">
    <path d="M 442.099471 123.632561 
C 442.099471 125.296204 440.750823 126.644852 439.08718 126.644852 
C 437.423538 126.644852 436.07489 125.296204 436.07489 123.632561 
C 436.07489 121.968919 437.423538 120.620271 439.08718 120.620271 
C 440.750823 120.620271 442.099471 121.968919 442.099471 123.632561 
" clip-path="url(#pfea91c8a25)" style="fill: none; stroke: #ffffff; stroke-width: 0.48; stroke-linejoin: miter"/>
   </g>
   <g id="patch_20">
    <path d="M 327.356571 133.987311 
L 327.356571 130.221947 
L 326.693909 130.221947 
L 325.794947 132.841777 
Q 325.663956 133.227046 325.594607 133.445366 
L 325.584334 133.445366 
Q 325.561217 133.332353 325.412247 132.88801 
L 324.520991 130.221947 
L 323.776137 130.221947 
L 323.776137 133.987311 
L 324.248734 133.987311 
L 324.248734 130.78444 
L 324.264145 130.78444 
L 325.342898 133.987311 
L 325.78981 133.987311 
L 326.873701 130.83581 
L 326.883975 130.83581 
L 326.883975 133.987311 
L 327.356571 133.987311 
M 311.280576 133.987311 
L 311.280576 130.221947 
L 310.617913 130.221947 
L 309.718952 132.841777 
Q 309.58796 133.227046 309.518612 133.445366 
L 309.508338 133.445366 
Q 309.485222 133.332353 309.336251 132.88801 
L 308.444995 130.221947 
L 307.700142 130.221947 
L 307.700142 133.987311 
L 308.172738 133.987311 
L 308.172738 130.78444 
L 308.188149 130.78444 
L 309.266903 133.987311 
L 309.713815 133.987311 
L 310.797705 130.83581 
L 310.807979 130.83581 
L 310.807979 133.987311 
L 311.280576 133.987311 
M 319.581841 133.987311 
L 318.045901 130.221947 
L 317.509093 130.221947 
L 316.06305 133.987311 
L 316.589584 133.987311 
L 317.005675 132.841777 
L 318.577573 132.841777 
L 319.019348 133.987311 
L 319.581841 133.987311 
M 323.316383 133.987311 
L 322.658857 132.962495 
Q 322.327525 132.443666 321.949962 132.276716 
L 321.949962 132.266442 
Q 322.466222 132.197094 322.735911 131.937679 
Q 323.005599 131.678265 323.005599 131.2519 
Q 323.005599 131.015602 322.91185 130.80242 
Q 322.818101 130.589237 322.643446 130.449256 
Q 322.468791 130.309275 322.237629 130.265611 
Q 322.006468 130.221947 321.664863 130.221947 
L 319.997932 130.221947 
L 319.997932 133.987311 
L 320.496213 133.987311 
L 320.496213 132.325517 
L 321.071548 132.325517 
Q 321.289867 132.325517 321.422143 132.364044 
Q 321.554419 132.402571 321.704674 132.547689 
Q 321.854929 132.692807 321.991057 132.895715 
Q 322.127185 133.098623 322.689678 133.987311 
L 323.316383 133.987311 
M 313.674381 131.950521 
L 313.674381 131.940248 
Q 314.2266 131.742476 314.2266 131.187689 
Q 314.2266 130.779303 313.924806 130.491636 
Q 313.623012 130.203968 313.132436 130.203968 
Q 312.649565 130.203968 312.351624 130.482646 
Q 312.053683 130.761324 312.053683 131.177415 
Q 312.053683 131.765592 312.618744 131.940248 
L 312.618744 131.950521 
Q 312.289981 132.007028 312.096062 132.274148 
Q 311.902143 132.541267 311.902143 132.898283 
Q 311.902143 133.393996 312.247601 133.722759 
Q 312.593059 134.051522 313.14271 134.051522 
Q 313.687224 134.051522 314.033966 133.725328 
Q 314.380708 133.399133 314.380708 132.913694 
Q 314.380708 132.176546 313.674381 131.950521 
M 331.874494 133.987311 
L 331.874494 133.540399 
L 330.022634 133.540399 
Q 330.156194 133.3041 330.564579 132.977906 
Q 331.342822 132.356338 331.603521 131.985196 
Q 331.86422 131.614053 331.86422 131.2519 
Q 331.86422 130.81783 331.55472 130.510899 
Q 331.245221 130.203968 330.690433 130.203968 
Q 330.17931 130.203968 329.846694 130.48393 
Q 329.514078 130.763893 329.470415 131.292996 
L 329.94558 131.346933 
Q 329.948148 130.966801 330.158762 130.775451 
Q 330.369376 130.5841 330.68016 130.5841 
Q 330.988375 130.5841 331.189999 130.770314 
Q 331.391623 130.956527 331.391623 131.241626 
Q 331.391623 131.572958 331.098819 131.900436 
Q 330.806014 132.227915 330.433587 132.525857 
Q 329.824862 133.016433 329.60269 133.342627 
Q 329.380518 133.668822 329.380518 133.987311 
L 331.874494 133.987311 
M 318.426034 132.446234 
L 317.14694 132.446234 
L 317.568168 131.31868 
Q 317.688885 130.995054 317.760802 130.614922 
L 317.773645 130.614922 
Q 317.845561 130.892316 317.904636 131.057981 
Q 317.963711 131.223647 318.426034 132.446234 
M 320.496213 131.878605 
L 320.496213 130.63547 
L 321.68541 130.63547 
Q 322.116912 130.63547 322.304409 130.815262 
Q 322.491907 130.995054 322.491907 131.2519 
Q 322.491907 131.449672 322.378895 131.608916 
Q 322.265882 131.768161 322.0771 131.823383 
Q 321.888319 131.878605 321.564693 131.878605 
L 320.496213 131.878605 
M 313.14271 133.67139 
Q 312.80881 133.67139 312.591775 133.450503 
Q 312.37474 133.229615 312.37474 132.90342 
Q 312.37474 132.590068 312.585354 132.367896 
Q 312.795968 132.145724 313.132436 132.145724 
Q 313.456062 132.145724 313.680802 132.361475 
Q 313.905543 132.577226 313.905543 132.913694 
Q 313.905543 133.250163 313.687224 133.460776 
Q 313.468904 133.67139 313.14271 133.67139 
M 313.14271 131.768161 
Q 312.883295 131.768161 312.706072 131.605063 
Q 312.528848 131.441966 312.528848 131.162004 
Q 312.528848 130.928274 312.700935 130.756187 
Q 312.873022 130.5841 313.137573 130.5841 
Q 313.396988 130.5841 313.575496 130.758756 
Q 313.754004 130.933411 313.754004 131.187689 
Q 313.754004 131.436829 313.578064 131.602495 
Q 313.402124 131.768161 313.14271 131.768161 
" clip-path="url(#pfea91c8a25)" style="fill: #ff0000"/>
   </g>
   <g id="patch_21">
    <path d="M 269.645828 94.450995 
L 457.913997 94.450995 
L 457.913997 66.21077 
L 269.645828 66.21077 
L 269.645828 94.450995 
" clip-path="url(#pfea91c8a25)" style="fill: none; stroke: #ffffff; stroke-width: 0.48; stroke-linejoin: miter"/>
   </g>
   <g id="patch_22">
    <path d="M 291.484936 80.330883 
C 291.484936 81.994525 290.136287 83.343173 288.472645 83.343173 
C 286.809003 83.343173 285.460354 81.994525 285.460354 80.330883 
C 285.460354 78.66724 286.809003 77.318592 288.472645 77.318592 
C 290.136287 77.318592 291.484936 78.66724 291.484936 80.330883 
" clip-path="url(#pfea91c8a25)" style="fill: none; stroke: #ffffff; stroke-width: 0.48; stroke-linejoin: miter"/>
   </g>
   <g id="patch_23">
    <path d="M 366.792203 80.330883 
C 366.792203 81.994525 365.443555 83.343173 363.779913 83.343173 
C 362.11627 83.343173 360.767622 81.994525 360.767622 80.330883 
C 360.767622 78.66724 362.11627 77.318592 363.779913 77.318592 
C 365.443555 77.318592 366.792203 78.66724 366.792203 80.330883 
" clip-path="url(#pfea91c8a25)" style="fill: none; stroke: #ffffff; stroke-width: 0.48; stroke-linejoin: miter"/>
   </g>
   <g id="patch_24">
    <path d="M 442.099471 80.330883 
C 442.099471 81.994525 440.750823 83.343173 439.08718 83.343173 
C 437.423538 83.343173 436.07489 81.994525 436.07489 80.330883 
C 436.07489 78.66724 437.423538 77.318592 439.08718 77.318592 
C 440.750823 77.318592 442.099471 78.66724 442.099471 80.330883 
" clip-path="url(#pfea91c8a25)" style="fill: none; stroke: #ffffff; stroke-width: 0.48; stroke-linejoin: miter"/>
   </g>
   <g id="patch_25">
    <path d="M 327.356571 90.685632 
L 327.356571 86.920268 
L 326.693909 86.920268 
L 325.794947 89.540098 
Q 325.663956 89.925367 325.594607 90.143687 
L 325.584334 90.143687 
Q 325.561217 90.030674 325.412247 89.586331 
L 324.520991 86.920268 
L 323.776137 86.920268 
L 323.776137 90.685632 
L 324.248734 90.685632 
L 324.248734 87.482761 
L 324.264145 87.482761 
L 325.342898 90.685632 
L 325.78981 90.685632 
L 326.873701 87.534131 
L 326.883975 87.534131 
L 326.883975 90.685632 
L 327.356571 90.685632 
M 311.280576 90.685632 
L 311.280576 86.920268 
L 310.617913 86.920268 
L 309.718952 89.540098 
Q 309.58796 89.925367 309.518612 90.143687 
L 309.508338 90.143687 
Q 309.485222 90.030674 309.336251 89.586331 
L 308.444995 86.920268 
L 307.700142 86.920268 
L 307.700142 90.685632 
L 308.172738 90.685632 
L 308.172738 87.482761 
L 308.188149 87.482761 
L 309.266903 90.685632 
L 309.713815 90.685632 
L 310.797705 87.534131 
L 310.807979 87.534131 
L 310.807979 90.685632 
L 311.280576 90.685632 
M 319.581841 90.685632 
L 318.045901 86.920268 
L 317.509093 86.920268 
L 316.06305 90.685632 
L 316.589584 90.685632 
L 317.005675 89.540098 
L 318.577573 89.540098 
L 319.019348 90.685632 
L 319.581841 90.685632 
M 323.316383 90.685632 
L 322.658857 89.660816 
Q 322.327525 89.141987 321.949962 88.975037 
L 321.949962 88.964763 
Q 322.466222 88.895415 322.735911 88.636 
Q 323.005599 88.376586 323.005599 87.950221 
Q 323.005599 87.713923 322.91185 87.500741 
Q 322.818101 87.287558 322.643446 87.147577 
Q 322.468791 87.007596 322.237629 86.963932 
Q 322.006468 86.920268 321.664863 86.920268 
L 319.997932 86.920268 
L 319.997932 90.685632 
L 320.496213 90.685632 
L 320.496213 89.023838 
L 321.071548 89.023838 
Q 321.289867 89.023838 321.422143 89.062365 
Q 321.554419 89.100892 321.704674 89.24601 
Q 321.854929 89.391128 321.991057 89.594036 
Q 322.127185 89.796944 322.689678 90.685632 
L 323.316383 90.685632 
M 313.674381 88.648843 
L 313.674381 88.638569 
Q 314.2266 88.440797 314.2266 87.88601 
Q 314.2266 87.477624 313.924806 87.189957 
Q 313.623012 86.902289 313.132436 86.902289 
Q 312.649565 86.902289 312.351624 87.180967 
Q 312.053683 87.459645 312.053683 87.875736 
Q 312.053683 88.463913 312.618744 88.638569 
L 312.618744 88.648843 
Q 312.289981 88.705349 312.096062 88.972469 
Q 311.902143 89.239588 311.902143 89.596605 
Q 311.902143 90.092317 312.247601 90.42108 
Q 312.593059 90.749843 313.14271 90.749843 
Q 313.687224 90.749843 314.033966 90.423649 
Q 314.380708 90.097454 314.380708 89.612015 
Q 314.380708 88.874867 313.674381 88.648843 
M 331.211831 88.648843 
L 331.211831 88.638569 
Q 331.728092 88.407407 331.728092 87.880873 
Q 331.728092 87.469919 331.413455 87.186104 
Q 331.098819 86.902289 330.62879 86.902289 
Q 330.202426 86.902289 329.895495 87.146293 
Q 329.588564 87.390297 329.498668 87.880873 
L 329.960991 87.965632 
Q 330.007223 87.636869 330.183162 87.459645 
Q 330.359102 87.282421 330.639064 87.282421 
Q 330.883068 87.282421 331.069281 87.436529 
Q 331.255495 87.590637 331.255495 87.870599 
Q 331.255495 88.063233 331.168167 88.192941 
Q 331.080839 88.322648 330.94728 88.391996 
Q 330.81372 88.461345 330.705844 88.479324 
Q 330.597969 88.497303 330.41304 88.497303 
L 330.359102 88.90312 
Q 330.551737 88.854319 330.685297 88.854319 
Q 331.014059 88.854319 331.218252 89.062365 
Q 331.422445 89.27041 331.422445 89.586331 
Q 331.422445 89.915094 331.197704 90.142402 
Q 330.972964 90.369711 330.649338 90.369711 
Q 330.348828 90.369711 330.165183 90.184782 
Q 329.981538 89.999853 329.91219 89.627426 
L 329.449867 89.691638 
Q 329.503805 90.169371 329.827431 90.459607 
Q 330.151057 90.749843 330.649338 90.749843 
Q 331.170736 90.749843 331.544447 90.419796 
Q 331.918158 90.089749 331.918158 89.576057 
Q 331.918158 89.257568 331.73965 88.986595 
Q 331.561142 88.715622 331.211831 88.648843 
M 318.426034 89.144555 
L 317.14694 89.144555 
L 317.568168 88.017001 
Q 317.688885 87.693375 317.760802 87.313243 
L 317.773645 87.313243 
Q 317.845561 87.590637 317.904636 87.756302 
Q 317.963711 87.921968 318.426034 89.144555 
M 320.496213 88.576926 
L 320.496213 87.333791 
L 321.68541 87.333791 
Q 322.116912 87.333791 322.304409 87.513583 
Q 322.491907 87.693375 322.491907 87.950221 
Q 322.491907 88.147993 322.378895 88.307237 
Q 322.265882 88.466482 322.0771 88.521704 
Q 321.888319 88.576926 321.564693 88.576926 
L 320.496213 88.576926 
M 313.14271 90.369711 
Q 312.80881 90.369711 312.591775 90.148824 
Q 312.37474 89.927936 312.37474 89.601741 
Q 312.37474 89.288389 312.585354 89.066217 
Q 312.795968 88.844046 313.132436 88.844046 
Q 313.456062 88.844046 313.680802 89.059796 
Q 313.905543 89.275547 313.905543 89.612015 
Q 313.905543 89.948484 313.687224 90.159097 
Q 313.468904 90.369711 313.14271 90.369711 
M 313.14271 88.466482 
Q 312.883295 88.466482 312.706072 88.303385 
Q 312.528848 88.140287 312.528848 87.860325 
Q 312.528848 87.626595 312.700935 87.454508 
Q 312.873022 87.282421 313.137573 87.282421 
Q 313.396988 87.282421 313.575496 87.457077 
Q 313.754004 87.631732 313.754004 87.88601 
Q 313.754004 88.13515 313.578064 88.300816 
Q 313.402124 88.466482 313.14271 88.466482 
" clip-path="url(#pfea91c8a25)" style="fill: #ff0000"/>
   </g>
   <g id="patch_26">
    <path d="M 269.645828 51.149316 
L 457.913997 51.149316 
L 457.913997 22.909091 
L 269.645828 22.909091 
L 269.645828 51.149316 
" clip-path="url(#pfea91c8a25)" style="fill: none; stroke: #ffffff; stroke-width: 0.48; stroke-linejoin: miter"/>
   </g>
   <g id="patch_27">
    <path d="M 291.484936 37.029204 
C 291.484936 38.692846 290.136287 40.041494 288.472645 40.041494 
C 286.809003 40.041494 285.460354 38.692846 285.460354 37.029204 
C 285.460354 35.365561 286.809003 34.016913 288.472645 34.016913 
C 290.136287 34.016913 291.484936 35.365561 291.484936 37.029204 
" clip-path="url(#pfea91c8a25)" style="fill: none; stroke: #ffffff; stroke-width: 0.48; stroke-linejoin: miter"/>
   </g>
   <g id="patch_28">
    <path d="M 366.792203 37.029204 
C 366.792203 38.692846 365.443555 40.041494 363.779913 40.041494 
C 362.11627 40.041494 360.767622 38.692846 360.767622 37.029204 
C 360.767622 35.365561 362.11627 34.016913 363.779913 34.016913 
C 365.443555 34.016913 366.792203 35.365561 366.792203 37.029204 
" clip-path="url(#pfea91c8a25)" style="fill: none; stroke: #ffffff; stroke-width: 0.48; stroke-linejoin: miter"/>
   </g>
   <g id="patch_29">
    <path d="M 442.099471 37.029204 
C 442.099471 38.692846 440.750823 40.041494 439.08718 40.041494 
C 437.423538 40.041494 436.07489 38.692846 436.07489 37.029204 
C 436.07489 35.365561 437.423538 34.016913 439.08718 34.016913 
C 440.750823 34.016913 442.099471 35.365561 442.099471 37.029204 
" clip-path="url(#pfea91c8a25)" style="fill: none; stroke: #ffffff; stroke-width: 0.48; stroke-linejoin: miter"/>
   </g>
   <g id="patch_30">
    <path d="M 327.356571 47.383953 
L 327.356571 43.61859 
L 326.693909 43.61859 
L 325.794947 46.238419 
Q 325.663956 46.623689 325.594607 46.842008 
L 325.584334 46.842008 
Q 325.561217 46.728995 325.412247 46.284652 
L 324.520991 43.61859 
L 323.776137 43.61859 
L 323.776137 47.383953 
L 324.248734 47.383953 
L 324.248734 44.181082 
L 324.264145 44.181082 
L 325.342898 47.383953 
L 325.78981 47.383953 
L 326.873701 44.232452 
L 326.883975 44.232452 
L 326.883975 47.383953 
L 327.356571 47.383953 
M 311.280576 47.383953 
L 311.280576 43.61859 
L 310.617913 43.61859 
L 309.718952 46.238419 
Q 309.58796 46.623689 309.518612 46.842008 
L 309.508338 46.842008 
Q 309.485222 46.728995 309.336251 46.284652 
L 308.444995 43.61859 
L 307.700142 43.61859 
L 307.700142 47.383953 
L 308.172738 47.383953 
L 308.172738 44.181082 
L 308.188149 44.181082 
L 309.266903 47.383953 
L 309.713815 47.383953 
L 310.797705 44.232452 
L 310.807979 44.232452 
L 310.807979 47.383953 
L 311.280576 47.383953 
M 319.581841 47.383953 
L 318.045901 43.61859 
L 317.509093 43.61859 
L 316.06305 47.383953 
L 316.589584 47.383953 
L 317.005675 46.238419 
L 318.577573 46.238419 
L 319.019348 47.383953 
L 319.581841 47.383953 
M 323.316383 47.383953 
L 322.658857 46.359137 
Q 322.327525 45.840308 321.949962 45.673358 
L 321.949962 45.663084 
Q 322.466222 45.593736 322.735911 45.334321 
Q 323.005599 45.074907 323.005599 44.648542 
Q 323.005599 44.412244 322.91185 44.199062 
Q 322.818101 43.985879 322.643446 43.845898 
Q 322.468791 43.705917 322.237629 43.662253 
Q 322.006468 43.61859 321.664863 43.61859 
L 319.997932 43.61859 
L 319.997932 47.383953 
L 320.496213 47.383953 
L 320.496213 45.722159 
L 321.071548 45.722159 
Q 321.289867 45.722159 321.422143 45.760686 
Q 321.554419 45.799213 321.704674 45.944331 
Q 321.854929 46.089449 321.991057 46.292357 
Q 322.127185 46.495266 322.689678 47.383953 
L 323.316383 47.383953 
M 331.900178 46.484992 
L 331.900178 46.058627 
L 331.391623 46.058627 
L 331.391623 43.61859 
L 331.011491 43.61859 
L 329.298328 46.058627 
L 329.298328 46.484992 
L 330.9293 46.484992 
L 330.9293 47.383953 
L 331.391623 47.383953 
L 331.391623 46.484992 
L 331.900178 46.484992 
M 313.674381 45.347164 
L 313.674381 45.33689 
Q 314.2266 45.139118 314.2266 44.584331 
Q 314.2266 44.175946 313.924806 43.888278 
Q 313.623012 43.60061 313.132436 43.60061 
Q 312.649565 43.60061 312.351624 43.879288 
Q 312.053683 44.157966 312.053683 44.574057 
Q 312.053683 45.162234 312.618744 45.33689 
L 312.618744 45.347164 
Q 312.289981 45.40367 312.096062 45.67079 
Q 311.902143 45.93791 311.902143 46.294926 
Q 311.902143 46.790638 312.247601 47.119401 
Q 312.593059 47.448164 313.14271 47.448164 
Q 313.687224 47.448164 314.033966 47.12197 
Q 314.380708 46.795775 314.380708 46.310336 
Q 314.380708 45.573188 313.674381 45.347164 
M 318.426034 45.842876 
L 317.14694 45.842876 
L 317.568168 44.715322 
Q 317.688885 44.391696 317.760802 44.011564 
L 317.773645 44.011564 
Q 317.845561 44.288958 317.904636 44.454623 
Q 317.963711 44.620289 318.426034 45.842876 
M 320.496213 45.275247 
L 320.496213 44.032112 
L 321.68541 44.032112 
Q 322.116912 44.032112 322.304409 44.211904 
Q 322.491907 44.391696 322.491907 44.648542 
Q 322.491907 44.846314 322.378895 45.005558 
Q 322.265882 45.164803 322.0771 45.220025 
Q 321.888319 45.275247 321.564693 45.275247 
L 320.496213 45.275247 
M 330.9293 46.058627 
L 329.750377 46.058627 
L 330.919026 44.358306 
L 330.9293 44.358306 
L 330.9293 46.058627 
M 313.14271 47.068032 
Q 312.80881 47.068032 312.591775 46.847145 
Q 312.37474 46.626257 312.37474 46.300063 
Q 312.37474 45.98671 312.585354 45.764538 
Q 312.795968 45.542367 313.132436 45.542367 
Q 313.456062 45.542367 313.680802 45.758117 
Q 313.905543 45.973868 313.905543 46.310336 
Q 313.905543 46.646805 313.687224 46.857418 
Q 313.468904 47.068032 313.14271 47.068032 
M 313.14271 45.164803 
Q 312.883295 45.164803 312.706072 45.001706 
Q 312.528848 44.838608 312.528848 44.558646 
Q 312.528848 44.324916 312.700935 44.152829 
Q 312.873022 43.980742 313.137573 43.980742 
Q 313.396988 43.980742 313.575496 44.155398 
Q 313.754004 44.330053 313.754004 44.584331 
Q 313.754004 44.833471 313.578064 44.999137 
Q 313.402124 45.164803 313.14271 45.164803 
" clip-path="url(#pfea91c8a25)" style="fill: #ff0000"/>
   </g>
   <g id="patch_31">
    <path d="M 28.662571 262.009666 
L 122.796656 262.009666 
L 122.796656 205.529215 
L 28.662571 205.529215 
L 28.662571 262.009666 
" clip-path="url(#pfea91c8a25)" style="fill: none; stroke: #ffffff; stroke-width: 0.48; stroke-linejoin: miter"/>
   </g>
   <g id="patch_32">
    <path d="M 50.501679 233.769441 
C 50.501679 235.433083 49.15303 236.781731 47.489388 236.781731 
C 45.825746 236.781731 44.477098 235.433083 44.477098 233.769441 
C 44.477098 232.105798 45.825746 230.75715 47.489388 230.75715 
C 49.15303 230.75715 50.501679 232.105798 50.501679 233.769441 
" clip-path="url(#pfea91c8a25)" style="fill: none; stroke: #ffffff; stroke-width: 0.48; stroke-linejoin: miter"/>
   </g>
   <g id="line2d_1">
    <path d="M 66.316205 252.596257 
L 73.846932 252.596257 
" clip-path="url(#pfea91c8a25)" style="fill: none; stroke: #ff0000; stroke-width: 0.48; stroke-linecap: square"/>
   </g>
   <g id="line2d_2">
    <path d="M 66.316205 214.942624 
L 73.846932 214.942624 
" clip-path="url(#pfea91c8a25)" style="fill: none; stroke: #ff0000; stroke-width: 0.48; stroke-linecap: square"/>
   </g>
   <g id="line2d_3">
    <path d="M 81.377659 252.596257 
L 88.908385 252.596257 
" clip-path="url(#pfea91c8a25)" style="fill: none; stroke: #ff0000; stroke-width: 0.48; stroke-linecap: square"/>
   </g>
   <g id="line2d_4">
    <path d="M 81.377659 214.942624 
L 88.908385 214.942624 
" clip-path="url(#pfea91c8a25)" style="fill: none; stroke: #ff0000; stroke-width: 0.48; stroke-linecap: square"/>
   </g>
   <g id="line2d_5">
    <path d="M 96.439112 252.596257 
L 103.969839 252.596257 
" clip-path="url(#pfea91c8a25)" style="fill: none; stroke: #ff0000; stroke-width: 0.48; stroke-linecap: square"/>
   </g>
   <g id="line2d_6">
    <path d="M 96.439112 214.942624 
L 103.969839 214.942624 
" clip-path="url(#pfea91c8a25)" style="fill: none; stroke: #ff0000; stroke-width: 0.48; stroke-linecap: square"/>
   </g>
   <g id="line2d_7">
    <path d="M 111.500566 252.596257 
L 119.031293 252.596257 
" clip-path="url(#pfea91c8a25)" style="fill: none; stroke: #ff0000; stroke-width: 0.48; stroke-linecap: square"/>
   </g>
   <g id="line2d_8">
    <path d="M 111.500566 214.942624 
L 119.031293 214.942624 
" clip-path="url(#pfea91c8a25)" style="fill: none; stroke: #ff0000; stroke-width: 0.48; stroke-linecap: square"/>
   </g>
   <g id="patch_33">
    <path d="M 86.626308 237.534804 
L 85.875033 237.534804 
L 84.985062 241.164039 
Q 84.79628 241.934577 84.715373 242.393047 
L 84.699963 242.393047 
Q 84.565118 241.452991 84.264609 240.389648 
L 83.463249 237.534804 
L 82.554014 237.534804 
L 81.479113 241.345115 
Q 81.390501 241.661036 81.236393 242.393047 
L 81.220983 242.393047 
Q 81.220983 242.381489 81.213277 242.312141 
Q 81.167045 241.969251 80.993674 241.241093 
L 80.122966 237.534804 
L 79.360133 237.534804 
L 80.866535 243.182849 
L 81.621662 243.182849 
L 82.823702 238.883246 
L 82.981662 238.212878 
L 82.997073 238.212878 
Q 83.024042 238.390101 83.120359 238.732991 
L 84.35322 243.182849 
L 85.069821 243.182849 
L 86.626308 237.534804 
M 62.874468 243.182849 
L 62.874468 237.534804 
L 61.880474 237.534804 
L 60.532032 241.464549 
Q 60.335544 242.042452 60.231522 242.369931 
L 60.216111 242.369931 
Q 60.181437 242.200413 59.957981 241.533897 
L 58.621097 237.534804 
L 57.503816 237.534804 
L 57.503816 243.182849 
L 58.212712 243.182849 
L 58.212712 238.378543 
L 58.235828 238.378543 
L 59.853958 243.182849 
L 60.524326 243.182849 
L 62.150162 238.455597 
L 62.165573 238.455597 
L 62.165573 243.182849 
L 62.874468 243.182849 
M 79.271521 243.182849 
L 76.967612 237.534804 
L 76.162399 237.534804 
L 73.993334 243.182849 
L 74.783136 243.182849 
L 75.407272 241.464549 
L 77.765119 241.464549 
L 78.427782 243.182849 
L 79.271521 243.182849 
M 66.465176 240.127665 
L 66.465176 240.112254 
Q 67.293504 239.815597 67.293504 238.983416 
Q 67.293504 238.370838 66.840813 237.939336 
Q 66.388122 237.507835 65.652258 237.507835 
Q 64.927952 237.507835 64.48104 237.925852 
Q 64.034128 238.343869 64.034128 238.968005 
Q 64.034128 239.850271 64.88172 240.112254 
L 64.88172 240.127665 
Q 64.388575 240.212424 64.097697 240.613104 
Q 63.806819 241.013784 63.806819 241.549308 
Q 63.806819 242.292877 64.325006 242.786022 
Q 64.843193 243.279166 65.667669 243.279166 
Q 66.484439 243.279166 67.004553 242.789874 
Q 67.524666 242.300583 67.524666 241.572424 
Q 67.524666 240.466702 66.465176 240.127665 
M 93.029481 243.182849 
L 93.029481 242.512481 
L 90.243985 242.512481 
L 90.243985 237.534804 
L 89.496563 237.534804 
L 89.496563 243.182849 
L 93.029481 243.182849 
M 73.369198 241.375937 
L 73.369198 237.534804 
L 72.621776 237.534804 
L 72.621776 241.414464 
Q 72.621776 241.768911 72.579397 242.005852 
Q 72.537017 242.242792 72.352088 242.423869 
Q 72.167159 242.604945 71.785742 242.604945 
Q 71.369652 242.604945 71.157754 242.323699 
Q 70.945856 242.042452 70.93815 241.47996 
L 70.267782 241.572424 
Q 70.267782 242.427722 70.647272 242.853444 
Q 71.026762 243.279166 71.785742 243.279166 
Q 72.533164 243.279166 72.951181 242.845739 
Q 73.369198 242.412311 73.369198 241.375937 
M 77.53781 240.871234 
L 75.61917 240.871234 
L 76.251011 239.179903 
Q 76.432088 238.694464 76.539963 238.124266 
L 76.559226 238.124266 
Q 76.667102 238.540356 76.755714 238.788855 
Q 76.844326 239.037353 77.53781 240.871234 
M 65.667669 242.708968 
Q 65.166819 242.708968 64.841267 242.377637 
Q 64.515714 242.046305 64.515714 241.557013 
Q 64.515714 241.086985 64.831635 240.753727 
Q 65.147556 240.42047 65.652258 240.42047 
Q 66.137697 240.42047 66.474808 240.744096 
Q 66.811918 241.067722 66.811918 241.572424 
Q 66.811918 242.077127 66.484439 242.393047 
Q 66.156961 242.708968 65.667669 242.708968 
M 65.667669 239.854124 
Q 65.278547 239.854124 65.012711 239.609478 
Q 64.746876 239.364832 64.746876 238.944889 
Q 64.746876 238.594294 65.005006 238.336164 
Q 65.263136 238.078033 65.659963 238.078033 
Q 66.049085 238.078033 66.316847 238.340016 
Q 66.584609 238.601999 66.584609 238.983416 
Q 66.584609 239.357127 66.3207 239.605625 
Q 66.056791 239.854124 65.667669 239.854124 
" clip-path="url(#pfea91c8a25)" style="fill: #ff0000"/>
   </g>
   <g id="patch_34">
    <path d="M 137.858109 262.009666 
L 231.992194 262.009666 
L 231.992194 205.529215 
L 137.858109 205.529215 
L 137.858109 262.009666 
" clip-path="url(#pfea91c8a25)" style="fill: none; stroke: #ffffff; stroke-width: 0.48; stroke-linejoin: miter"/>
   </g>
   <g id="patch_35">
    <path d="M 159.697217 233.769441 
C 159.697217 235.433083 158.348569 236.781731 156.684926 236.781731 
C 155.021284 236.781731 153.672636 235.433083 153.672636 233.769441 
C 153.672636 232.105798 155.021284 230.75715 156.684926 230.75715 
C 158.348569 230.75715 159.697217 232.105798 159.697217 233.769441 
" clip-path="url(#pfea91c8a25)" style="fill: none; stroke: #ffffff; stroke-width: 0.48; stroke-linejoin: miter"/>
   </g>
   <g id="line2d_9">
    <path d="M 175.511743 252.596257 
L 183.04247 252.596257 
" clip-path="url(#pfea91c8a25)" style="fill: none; stroke: #ff0000; stroke-width: 0.48; stroke-linecap: square"/>
   </g>
   <g id="line2d_10">
    <path d="M 175.511743 214.942624 
L 183.04247 214.942624 
" clip-path="url(#pfea91c8a25)" style="fill: none; stroke: #ff0000; stroke-width: 0.48; stroke-linecap: square"/>
   </g>
   <g id="line2d_11">
    <path d="M 190.573197 252.596257 
L 198.103924 252.596257 
" clip-path="url(#pfea91c8a25)" style="fill: none; stroke: #ff0000; stroke-width: 0.48; stroke-linecap: square"/>
   </g>
   <g id="line2d_12">
    <path d="M 190.573197 214.942624 
L 198.103924 214.942624 
" clip-path="url(#pfea91c8a25)" style="fill: none; stroke: #ff0000; stroke-width: 0.48; stroke-linecap: square"/>
   </g>
   <g id="line2d_13">
    <path d="M 205.63465 252.596257 
L 213.165377 252.596257 
" clip-path="url(#pfea91c8a25)" style="fill: none; stroke: #ff0000; stroke-width: 0.48; stroke-linecap: square"/>
   </g>
   <g id="line2d_14">
    <path d="M 205.63465 214.942624 
L 213.165377 214.942624 
" clip-path="url(#pfea91c8a25)" style="fill: none; stroke: #ff0000; stroke-width: 0.48; stroke-linecap: square"/>
   </g>
   <g id="line2d_15">
    <path d="M 220.696104 252.596257 
L 228.226831 252.596257 
" clip-path="url(#pfea91c8a25)" style="fill: none; stroke: #ff0000; stroke-width: 0.48; stroke-linecap: square"/>
   </g>
   <g id="line2d_16">
    <path d="M 220.696104 214.942624 
L 228.226831 214.942624 
" clip-path="url(#pfea91c8a25)" style="fill: none; stroke: #ff0000; stroke-width: 0.48; stroke-linecap: square"/>
   </g>
   <g id="patch_36">
    <path d="M 195.821846 237.534804 
L 195.070572 237.534804 
L 194.1806 241.164039 
Q 193.991818 241.934577 193.910912 242.393047 
L 193.895501 242.393047 
Q 193.760657 241.452991 193.460147 240.389648 
L 192.658787 237.534804 
L 191.749552 237.534804 
L 190.674651 241.345115 
Q 190.586039 241.661036 190.431932 242.393047 
L 190.416521 242.393047 
Q 190.416521 242.381489 190.408815 242.312141 
Q 190.362583 241.969251 190.189212 241.241093 
L 189.318504 237.534804 
L 188.555671 237.534804 
L 190.062073 243.182849 
L 190.817201 243.182849 
L 192.01924 238.883246 
L 192.177201 238.212878 
L 192.192611 238.212878 
Q 192.21958 238.390101 192.315897 238.732991 
L 193.548759 243.182849 
L 194.265359 243.182849 
L 195.821846 237.534804 
M 172.070006 243.182849 
L 172.070006 237.534804 
L 171.076012 237.534804 
L 169.72757 241.464549 
Q 169.531083 242.042452 169.42706 242.369931 
L 169.411649 242.369931 
Q 169.376975 242.200413 169.153519 241.533897 
L 167.816635 237.534804 
L 166.699355 237.534804 
L 166.699355 243.182849 
L 167.40825 243.182849 
L 167.40825 238.378543 
L 167.431366 238.378543 
L 169.049496 243.182849 
L 169.719864 243.182849 
L 171.3457 238.455597 
L 171.361111 238.455597 
L 171.361111 243.182849 
L 172.070006 243.182849 
M 188.467059 243.182849 
L 186.16315 237.534804 
L 185.357937 237.534804 
L 183.188872 243.182849 
L 183.978674 243.182849 
L 184.60281 241.464549 
L 186.960657 241.464549 
L 187.62332 243.182849 
L 188.467059 243.182849 
M 203.708305 243.182849 
L 202.722016 241.645625 
Q 202.225019 240.867382 201.658673 240.616957 
L 201.658673 240.601546 
Q 202.433064 240.497523 202.837597 240.108402 
Q 203.242129 239.71928 203.242129 239.079733 
Q 203.242129 238.725285 203.101506 238.405512 
Q 202.960883 238.085739 202.6989 237.875767 
Q 202.436917 237.665795 202.090175 237.6003 
Q 201.743432 237.534804 201.231025 237.534804 
L 198.730628 237.534804 
L 198.730628 243.182849 
L 199.47805 243.182849 
L 199.47805 240.690158 
L 200.341053 240.690158 
Q 200.668532 240.690158 200.866945 240.747948 
Q 201.065359 240.805739 201.290741 241.023416 
Q 201.516124 241.241093 201.720316 241.545455 
Q 201.924509 241.849818 202.768248 243.182849 
L 203.708305 243.182849 
M 175.660714 240.127665 
L 175.660714 240.112254 
Q 176.489043 239.815597 176.489043 238.983416 
Q 176.489043 238.370838 176.036351 237.939336 
Q 175.58366 237.507835 174.847796 237.507835 
Q 174.12349 237.507835 173.676578 237.925852 
Q 173.229666 238.343869 173.229666 238.968005 
Q 173.229666 239.850271 174.077258 240.112254 
L 174.077258 240.127665 
Q 173.584114 240.212424 173.293235 240.613104 
Q 173.002357 241.013784 173.002357 241.549308 
Q 173.002357 242.292877 173.520544 242.786022 
Q 174.038731 243.279166 174.863207 243.279166 
Q 175.679978 243.279166 176.200091 242.789874 
Q 176.720204 242.300583 176.720204 241.572424 
Q 176.720204 240.466702 175.660714 240.127665 
M 182.564736 241.375937 
L 182.564736 237.534804 
L 181.817314 237.534804 
L 181.817314 241.414464 
Q 181.817314 241.768911 181.774935 242.005852 
Q 181.732555 242.242792 181.547626 242.423869 
Q 181.362697 242.604945 180.98128 242.604945 
Q 180.56519 242.604945 180.353292 242.323699 
Q 180.141394 242.042452 180.133688 241.47996 
L 179.46332 241.572424 
Q 179.46332 242.427722 179.84281 242.853444 
Q 180.2223 243.279166 180.98128 243.279166 
Q 181.728702 243.279166 182.146719 242.845739 
Q 182.564736 242.412311 182.564736 241.375937 
M 186.733348 240.871234 
L 184.814708 240.871234 
L 185.446549 239.179903 
Q 185.627626 238.694464 185.735501 238.124266 
L 185.754765 238.124266 
Q 185.86264 238.540356 185.951252 238.788855 
Q 186.039864 239.037353 186.733348 240.871234 
M 199.47805 240.01979 
L 199.47805 238.155087 
L 201.261846 238.155087 
Q 201.909098 238.155087 202.190345 238.424776 
Q 202.471591 238.694464 202.471591 239.079733 
Q 202.471591 239.37639 202.302073 239.615257 
Q 202.132554 239.854124 201.849381 239.936957 
Q 201.566209 240.01979 201.08077 240.01979 
L 199.47805 240.01979 
M 174.863207 242.708968 
Q 174.362357 242.708968 174.036805 242.377637 
Q 173.711252 242.046305 173.711252 241.557013 
Q 173.711252 241.086985 174.027173 240.753727 
Q 174.343094 240.42047 174.847796 240.42047 
Q 175.333235 240.42047 175.670346 240.744096 
Q 176.007456 241.067722 176.007456 241.572424 
Q 176.007456 242.077127 175.679978 242.393047 
Q 175.352499 242.708968 174.863207 242.708968 
M 174.863207 239.854124 
Q 174.474085 239.854124 174.20825 239.609478 
Q 173.942414 239.364832 173.942414 238.944889 
Q 173.942414 238.594294 174.200544 238.336164 
Q 174.458674 238.078033 174.855502 238.078033 
Q 175.244623 238.078033 175.512385 238.340016 
Q 175.780147 238.601999 175.780147 238.983416 
Q 175.780147 239.357127 175.516238 239.605625 
Q 175.252329 239.854124 174.863207 239.854124 
" clip-path="url(#pfea91c8a25)" style="fill: #ff0000"/>
   </g>
   <g id="patch_37">
    <path d="M 247.053648 246.948212 
L 303.534098 246.948212 
L 303.534098 218.707987 
L 247.053648 218.707987 
L 247.053648 246.948212 
" clip-path="url(#pfea91c8a25)" style="fill: none; stroke: #ffffff; stroke-width: 0.48; stroke-linejoin: miter"/>
   </g>
   <g id="patch_38">
    <path d="M 259.723864 241.300167 
L 258.187925 237.534804 
L 257.651117 237.534804 
L 256.205073 241.300167 
L 256.731608 241.300167 
L 257.147698 240.154634 
L 258.719596 240.154634 
L 259.161371 241.300167 
L 259.723864 241.300167 
M 260.139955 237.534804 
L 260.139955 241.300167 
L 261.496102 241.300167 
Q 262.461843 241.300167 262.857386 240.764643 
Q 263.252929 240.229119 263.252929 239.396938 
Q 263.252929 238.9603 263.156612 238.653369 
Q 263.060295 238.346437 262.892061 238.110139 
Q 262.723826 237.873841 262.499086 237.738997 
Q 262.274346 237.604152 262.027774 237.569478 
Q 261.781201 237.534804 261.439596 237.534804 
L 260.139955 237.534804 
M 253.10751 237.534804 
L 253.10751 241.300167 
L 253.605791 241.300167 
L 253.605791 239.774502 
L 254.568964 239.774502 
Q 255.30868 239.774502 255.643864 239.459865 
Q 255.979049 239.145229 255.979049 238.623831 
Q 255.979049 238.361848 255.872457 238.121697 
Q 255.765866 237.881546 255.557821 237.741565 
Q 255.349776 237.601584 255.107056 237.568194 
Q 254.864337 237.534804 254.527868 237.534804 
L 253.10751 237.534804 
M 265.490059 241.300167 
L 265.490059 237.516825 
L 265.189549 237.516825 
Q 264.899313 238.081886 264.100521 238.464587 
L 264.100521 238.911499 
Q 264.680993 238.682906 265.027736 238.354143 
L 265.027736 241.300167 
L 265.490059 241.300167 
M 258.568057 239.759091 
L 257.288964 239.759091 
L 257.710191 238.631537 
Q 257.830909 238.307911 257.902826 237.927778 
L 257.915668 237.927778 
Q 257.987585 238.205172 258.046659 238.370838 
Q 258.105734 238.536504 258.568057 239.759091 
M 260.638236 240.853255 
L 260.638236 237.981716 
L 261.429322 237.981716 
Q 261.688737 237.981716 261.854402 238.002264 
Q 262.020068 238.022811 262.194724 238.11656 
Q 262.369379 238.210309 262.504223 238.411933 
Q 262.639067 238.613557 262.689152 238.858845 
Q 262.739237 239.104133 262.739237 239.386664 
Q 262.739237 239.897788 262.608246 240.208571 
Q 262.477254 240.519355 262.278198 240.655484 
Q 262.079143 240.791612 261.885224 240.822434 
Q 261.691305 240.853255 261.444733 240.853255 
L 260.638236 240.853255 
M 253.605791 239.327589 
L 253.605791 237.981716 
L 254.563827 237.981716 
Q 254.895158 237.981716 255.063392 238.024096 
Q 255.231627 238.066475 255.347207 238.239846 
Q 255.462788 238.413217 255.462788 238.639242 
Q 255.462788 239.327589 254.574101 239.327589 
L 253.605791 239.327589 
" clip-path="url(#pfea91c8a25)" style="fill: #ff0000"/>
   </g>
   <g id="patch_39">
    <path d="M 318.595552 246.948212 
L 375.076003 246.948212 
L 375.076003 218.707987 
L 318.595552 218.707987 
L 318.595552 246.948212 
" clip-path="url(#pfea91c8a25)" style="fill: none; stroke: #ffffff; stroke-width: 0.48; stroke-linejoin: miter"/>
   </g>
   <g id="patch_40">
    <path d="M 331.265769 241.300167 
L 329.729829 237.534804 
L 329.193021 237.534804 
L 327.746977 241.300167 
L 328.273512 241.300167 
L 328.689603 240.154634 
L 330.261501 240.154634 
L 330.703276 241.300167 
L 331.265769 241.300167 
M 331.681859 237.534804 
L 331.681859 241.300167 
L 333.038007 241.300167 
Q 334.003748 241.300167 334.399291 240.764643 
Q 334.794834 240.229119 334.794834 239.396938 
Q 334.794834 238.9603 334.698516 238.653369 
Q 334.602199 238.346437 334.433965 238.110139 
Q 334.265731 237.873841 334.04099 237.738997 
Q 333.81625 237.604152 333.569678 237.569478 
Q 333.323106 237.534804 332.9815 237.534804 
L 331.681859 237.534804 
M 324.649414 237.534804 
L 324.649414 241.300167 
L 325.147695 241.300167 
L 325.147695 239.774502 
L 326.110868 239.774502 
Q 326.850585 239.774502 327.185769 239.459865 
Q 327.520953 239.145229 327.520953 238.623831 
Q 327.520953 238.361848 327.414362 238.121697 
Q 327.307771 237.881546 327.099725 237.741565 
Q 326.89168 237.601584 326.648961 237.568194 
Q 326.406241 237.534804 326.069773 237.534804 
L 324.649414 237.534804 
M 337.715173 241.300167 
L 337.715173 240.853255 
L 335.863313 240.853255 
Q 335.996873 240.616957 336.405259 240.290762 
Q 337.183502 239.669195 337.444201 239.298052 
Q 337.7049 238.92691 337.7049 238.564757 
Q 337.7049 238.130687 337.3954 237.823756 
Q 337.085901 237.516825 336.531113 237.516825 
Q 336.019989 237.516825 335.687374 237.796787 
Q 335.354758 238.076749 335.311094 238.605852 
L 335.786259 238.65979 
Q 335.788828 238.279658 335.999442 238.088307 
Q 336.210055 237.896957 336.520839 237.896957 
Q 336.829055 237.896957 337.030679 238.08317 
Q 337.232303 238.269384 337.232303 238.554483 
Q 337.232303 238.885814 336.939498 239.213293 
Q 336.646694 239.540772 336.274267 239.838713 
Q 335.665542 240.329289 335.44337 240.655484 
Q 335.221198 240.981678 335.221198 241.300167 
L 337.715173 241.300167 
M 330.109961 239.759091 
L 328.830868 239.759091 
L 329.252095 238.631537 
Q 329.372813 238.307911 329.44473 237.927778 
L 329.457572 237.927778 
Q 329.529489 238.205172 329.588564 238.370838 
Q 329.647638 238.536504 330.109961 239.759091 
M 332.180141 240.853255 
L 332.180141 237.981716 
L 332.971227 237.981716 
Q 333.230641 237.981716 333.396307 238.002264 
Q 333.561973 238.022811 333.736628 238.11656 
Q 333.911283 238.210309 334.046127 238.411933 
Q 334.180972 238.613557 334.231057 238.858845 
Q 334.281142 239.104133 334.281142 239.386664 
Q 334.281142 239.897788 334.15015 240.208571 
Q 334.019159 240.519355 333.820103 240.655484 
Q 333.621047 240.791612 333.427128 240.822434 
Q 333.23321 240.853255 332.986637 240.853255 
L 332.180141 240.853255 
M 325.147695 239.327589 
L 325.147695 237.981716 
L 326.105731 237.981716 
Q 326.437063 237.981716 326.605297 238.024096 
Q 326.773531 238.066475 326.889112 238.239846 
Q 327.004692 238.413217 327.004692 238.639242 
Q 327.004692 239.327589 326.116005 239.327589 
L 325.147695 239.327589 
" clip-path="url(#pfea91c8a25)" style="fill: #ff0000"/>
   </g>
   <g id="patch_41">
    <path d="M 51.254752 307.194027 
C 51.254752 313.432685 46.19732 318.490117 39.958661 318.490117 
C 33.720003 318.490117 28.662571 313.432685 28.662571 307.194027 
C 28.662571 300.955368 33.720003 295.897936 39.958661 295.897936 
C 46.19732 295.897936 51.254752 300.955368 51.254752 307.194027 
" clip-path="url(#pfea91c8a25)" style="fill: none; stroke: #ffffff; stroke-width: 0.48; stroke-linejoin: miter"/>
   </g>
   <g id="patch_42">
    <path d="M 42.970952 307.194027 
C 42.970952 308.857669 41.622304 310.206317 39.958661 310.206317 
C 38.295019 310.206317 36.946371 308.857669 36.946371 307.194027 
C 36.946371 305.530384 38.295019 304.181736 39.958661 304.181736 
C 41.622304 304.181736 42.970952 305.530384 42.970952 307.194027 
" clip-path="url(#pfea91c8a25)" style="fill: none; stroke: #ffffff; stroke-width: 0.48; stroke-linejoin: miter"/>
   </g>
   <g id="patch_43">
    <path d="M 81.377659 307.194027 
C 81.377659 313.432685 76.320227 318.490117 70.081569 318.490117 
C 63.84291 318.490117 58.785478 313.432685 58.785478 307.194027 
C 58.785478 300.955368 63.84291 295.897936 70.081569 295.897936 
C 76.320227 295.897936 81.377659 300.955368 81.377659 307.194027 
" clip-path="url(#pfea91c8a25)" style="fill: none; stroke: #ffffff; stroke-width: 0.48; stroke-linejoin: miter"/>
   </g>
   <g id="patch_44">
    <path d="M 73.093859 307.194027 
C 73.093859 308.857669 71.745211 310.206317 70.081569 310.206317 
C 68.417926 310.206317 67.069278 308.857669 67.069278 307.194027 
C 67.069278 305.530384 68.417926 304.181736 70.081569 304.181736 
C 71.745211 304.181736 73.093859 305.530384 73.093859 307.194027 
" clip-path="url(#pfea91c8a25)" style="fill: none; stroke: #ffffff; stroke-width: 0.48; stroke-linejoin: miter"/>
   </g>
   <g id="patch_45">
    <path d="M 111.500566 307.194027 
C 111.500566 313.432685 106.443134 318.490117 100.204476 318.490117 
C 93.965817 318.490117 88.908385 313.432685 88.908385 307.194027 
C 88.908385 300.955368 93.965817 295.897936 100.204476 295.897936 
C 106.443134 295.897936 111.500566 300.955368 111.500566 307.194027 
" clip-path="url(#pfea91c8a25)" style="fill: none; stroke: #ffffff; stroke-width: 0.48; stroke-linejoin: miter"/>
   </g>
   <g id="patch_46">
    <path d="M 103.216766 307.194027 
C 103.216766 308.857669 101.868118 310.206317 100.204476 310.206317 
C 98.540833 310.206317 97.192185 308.857669 97.192185 307.194027 
C 97.192185 305.530384 98.540833 304.181736 100.204476 304.181736 
C 101.868118 304.181736 103.216766 305.530384 103.216766 307.194027 
" clip-path="url(#pfea91c8a25)" style="fill: none; stroke: #ffffff; stroke-width: 0.48; stroke-linejoin: miter"/>
   </g>
   <g id="patch_47">
    <path d="M 141.623473 307.194027 
C 141.623473 313.432685 136.566041 318.490117 130.327383 318.490117 
C 124.088724 318.490117 119.031293 313.432685 119.031293 307.194027 
C 119.031293 300.955368 124.088724 295.897936 130.327383 295.897936 
C 136.566041 295.897936 141.623473 300.955368 141.623473 307.194027 
" clip-path="url(#pfea91c8a25)" style="fill: none; stroke: #ffffff; stroke-width: 0.48; stroke-linejoin: miter"/>
   </g>
   <g id="patch_48">
    <path d="M 133.339673 307.194027 
C 133.339673 308.857669 131.991025 310.206317 130.327383 310.206317 
C 128.66374 310.206317 127.315092 308.857669 127.315092 307.194027 
C 127.315092 305.530384 128.66374 304.181736 130.327383 304.181736 
C 131.991025 304.181736 133.339673 305.530384 133.339673 307.194027 
" clip-path="url(#pfea91c8a25)" style="fill: none; stroke: #ffffff; stroke-width: 0.48; stroke-linejoin: miter"/>
   </g>
   <g id="patch_49">
    <path d="M 171.74638 307.194027 
C 171.74638 313.432685 166.688948 318.490117 160.45029 318.490117 
C 154.211631 318.490117 149.1542 313.432685 149.1542 307.194027 
C 149.1542 300.955368 154.211631 295.897936 160.45029 295.897936 
C 166.688948 295.897936 171.74638 300.955368 171.74638 307.194027 
" clip-path="url(#pfea91c8a25)" style="fill: none; stroke: #ffffff; stroke-width: 0.48; stroke-linejoin: miter"/>
   </g>
   <g id="patch_50">
    <path d="M 163.462581 307.194027 
C 163.462581 308.857669 162.113932 310.206317 160.45029 310.206317 
C 158.786648 310.206317 157.437999 308.857669 157.437999 307.194027 
C 157.437999 305.530384 158.786648 304.181736 160.45029 304.181736 
C 162.113932 304.181736 163.462581 305.530384 163.462581 307.194027 
" clip-path="url(#pfea91c8a25)" style="fill: none; stroke: #ffffff; stroke-width: 0.48; stroke-linejoin: miter"/>
   </g>
   <g id="patch_51">
    <path d="M 201.869287 307.194027 
C 201.869287 313.432685 196.811855 318.490117 190.573197 318.490117 
C 184.334539 318.490117 179.277107 313.432685 179.277107 307.194027 
C 179.277107 300.955368 184.334539 295.897936 190.573197 295.897936 
C 196.811855 295.897936 201.869287 300.955368 201.869287 307.194027 
" clip-path="url(#pfea91c8a25)" style="fill: none; stroke: #ffffff; stroke-width: 0.48; stroke-linejoin: miter"/>
   </g>
   <g id="patch_52">
    <path d="M 193.585488 307.194027 
C 193.585488 308.857669 192.236839 310.206317 190.573197 310.206317 
C 188.909555 310.206317 187.560906 308.857669 187.560906 307.194027 
C 187.560906 305.530384 188.909555 304.181736 190.573197 304.181736 
C 192.236839 304.181736 193.585488 305.530384 193.585488 307.194027 
" clip-path="url(#pfea91c8a25)" style="fill: none; stroke: #ffffff; stroke-width: 0.48; stroke-linejoin: miter"/>
   </g>
   <g id="patch_53">
    <path d="M 231.992194 307.194027 
C 231.992194 313.432685 226.934762 318.490117 220.696104 318.490117 
C 214.457446 318.490117 209.400014 313.432685 209.400014 307.194027 
C 209.400014 300.955368 214.457446 295.897936 220.696104 295.897936 
C 226.934762 295.897936 231.992194 300.955368 231.992194 307.194027 
" clip-path="url(#pfea91c8a25)" style="fill: none; stroke: #ffffff; stroke-width: 0.48; stroke-linejoin: miter"/>
   </g>
   <g id="patch_54">
    <path d="M 223.708395 307.194027 
C 223.708395 308.857669 222.359746 310.206317 220.696104 310.206317 
C 219.032462 310.206317 217.683813 308.857669 217.683813 307.194027 
C 217.683813 305.530384 219.032462 304.181736 220.696104 304.181736 
C 222.359746 304.181736 223.708395 305.530384 223.708395 307.194027 
" clip-path="url(#pfea91c8a25)" style="fill: none; stroke: #ffffff; stroke-width: 0.48; stroke-linejoin: miter"/>
   </g>
   <g id="patch_55">
    <path d="M 262.115101 307.194027 
C 262.115101 313.432685 257.057669 318.490117 250.819011 318.490117 
C 244.580353 318.490117 239.522921 313.432685 239.522921 307.194027 
C 239.522921 300.955368 244.580353 295.897936 250.819011 295.897936 
C 257.057669 295.897936 262.115101 300.955368 262.115101 307.194027 
" clip-path="url(#pfea91c8a25)" style="fill: none; stroke: #ffffff; stroke-width: 0.48; stroke-linejoin: miter"/>
   </g>
   <g id="patch_56">
    <path d="M 253.831302 307.194027 
C 253.831302 308.857669 252.482653 310.206317 250.819011 310.206317 
C 249.155369 310.206317 247.80672 308.857669 247.80672 307.194027 
C 247.80672 305.530384 249.155369 304.181736 250.819011 304.181736 
C 252.482653 304.181736 253.831302 305.530384 253.831302 307.194027 
" clip-path="url(#pfea91c8a25)" style="fill: none; stroke: #ffffff; stroke-width: 0.48; stroke-linejoin: miter"/>
   </g>
   <g id="patch_57">
    <path d="M 292.238008 307.194027 
C 292.238008 313.432685 287.180576 318.490117 280.941918 318.490117 
C 274.70326 318.490117 269.645828 313.432685 269.645828 307.194027 
C 269.645828 300.955368 274.70326 295.897936 280.941918 295.897936 
C 287.180576 295.897936 292.238008 300.955368 292.238008 307.194027 
" clip-path="url(#pfea91c8a25)" style="fill: none; stroke: #ffffff; stroke-width: 0.48; stroke-linejoin: miter"/>
   </g>
   <g id="patch_58">
    <path d="M 283.954209 307.194027 
C 283.954209 308.857669 282.60556 310.206317 280.941918 310.206317 
C 279.278276 310.206317 277.929627 308.857669 277.929627 307.194027 
C 277.929627 305.530384 279.278276 304.181736 280.941918 304.181736 
C 282.60556 304.181736 283.954209 305.530384 283.954209 307.194027 
" clip-path="url(#pfea91c8a25)" style="fill: none; stroke: #ffffff; stroke-width: 0.48; stroke-linejoin: miter"/>
   </g>
   <g id="patch_59">
    <path d="M 322.360915 307.194027 
C 322.360915 313.432685 317.303484 318.490117 311.064825 318.490117 
C 304.826167 318.490117 299.768735 313.432685 299.768735 307.194027 
C 299.768735 300.955368 304.826167 295.897936 311.064825 295.897936 
C 317.303484 295.897936 322.360915 300.955368 322.360915 307.194027 
" clip-path="url(#pfea91c8a25)" style="fill: none; stroke: #ffffff; stroke-width: 0.48; stroke-linejoin: miter"/>
   </g>
   <g id="patch_60">
    <path d="M 314.077116 307.194027 
C 314.077116 308.857669 312.728467 310.206317 311.064825 310.206317 
C 309.401183 310.206317 308.052535 308.857669 308.052535 307.194027 
C 308.052535 305.530384 309.401183 304.181736 311.064825 304.181736 
C 312.728467 304.181736 314.077116 305.530384 314.077116 307.194027 
" clip-path="url(#pfea91c8a25)" style="fill: none; stroke: #ffffff; stroke-width: 0.48; stroke-linejoin: miter"/>
   </g>
   <g id="patch_61">
    <path d="M 34.634242 329.786207 
L 34.634242 324.138162 
L 33.640248 324.138162 
L 32.291806 328.067907 
Q 32.095319 328.64581 31.991296 328.973289 
L 31.975886 328.973289 
Q 31.941211 328.803771 31.717755 328.137255 
L 30.380872 324.138162 
L 29.263591 324.138162 
L 29.263591 329.786207 
L 29.972486 329.786207 
L 29.972486 324.981901 
L 29.995602 324.981901 
L 31.613733 329.786207 
L 32.284101 329.786207 
L 33.909937 325.058955 
L 33.925347 325.058955 
L 33.925347 329.786207 
L 34.634242 329.786207 
M 57.611692 329.786207 
L 55.307783 324.138162 
L 54.50257 324.138162 
L 52.333505 329.786207 
L 53.123307 329.786207 
L 53.747443 328.067907 
L 56.10529 328.067907 
L 56.767953 329.786207 
L 57.611692 329.786207 
M 62.993901 327.994706 
L 62.250332 327.805924 
Q 62.084666 328.526377 61.670502 328.884677 
Q 61.256338 329.242977 60.593675 329.242977 
Q 59.78461 329.242977 59.281833 328.668926 
Q 58.779057 328.094875 58.779057 326.915952 
Q 58.779057 325.894989 59.256791 325.28819 
Q 59.734525 324.681391 60.65917 324.681391 
Q 61.225516 324.681391 61.60308 324.978048 
Q 61.980643 325.274706 62.165573 325.864167 
L 62.897584 325.690796 
Q 62.66257 324.881731 62.076961 324.461788 
Q 61.491352 324.041845 60.666876 324.041845 
Q 59.495658 324.041845 58.750162 324.806604 
Q 58.004666 325.571363 58.004666 326.923657 
Q 58.004666 328.14496 58.638434 329.013742 
Q 59.272202 329.882524 60.65917 329.882524 
Q 61.518321 329.882524 62.132825 329.414422 
Q 62.747329 328.94632 62.993901 327.994706 
M 74.174411 329.786207 
L 73.188122 328.248983 
Q 72.691125 327.47074 72.124779 327.220315 
L 72.124779 327.204904 
Q 72.89917 327.100881 73.303702 326.711759 
Q 73.708235 326.322638 73.708235 325.683091 
Q 73.708235 325.328643 73.567612 325.00887 
Q 73.426989 324.689097 73.165006 324.479125 
Q 72.903023 324.269153 72.55628 324.203658 
Q 72.209538 324.138162 71.69713 324.138162 
L 69.196734 324.138162 
L 69.196734 329.786207 
L 69.944156 329.786207 
L 69.944156 327.293516 
L 70.807159 327.293516 
Q 71.134637 327.293516 71.333051 327.351306 
Q 71.531465 327.409096 71.756847 327.626774 
Q 71.982229 327.844451 72.186422 328.148813 
Q 72.390615 328.453176 73.234354 329.786207 
L 74.174411 329.786207 
M 45.776225 325.794819 
L 46.492825 325.737029 
Q 46.458151 324.924111 45.886027 324.482978 
Q 45.313902 324.041845 44.373845 324.041845 
Q 43.456905 324.041845 42.925234 324.484904 
Q 42.393562 324.927963 42.393562 325.606037 
Q 42.393562 326.203204 42.813506 326.576915 
Q 43.233449 326.950626 44.18699 327.156745 
Q 45.140531 327.362864 45.545063 327.574762 
Q 45.949596 327.78666 45.949596 328.248983 
Q 45.949596 328.692043 45.562401 328.950173 
Q 45.175205 329.208303 44.547216 329.208303 
Q 43.876848 329.208303 43.402967 328.898162 
Q 42.929086 328.58802 42.879001 327.909946 
L 42.170106 327.971589 
Q 42.20478 328.819181 42.796168 329.350853 
Q 43.387556 329.882524 44.578038 329.882524 
Q 45.510389 329.882524 46.090219 329.400938 
Q 46.670049 328.919351 46.670049 328.191193 
Q 46.670049 327.617142 46.354129 327.276179 
Q 46.038208 326.935215 45.595148 326.773402 
Q 45.152089 326.611589 44.450899 326.457482 
Q 43.661098 326.280258 43.381777 326.101108 
Q 43.102457 325.921958 43.102457 325.555952 
Q 43.102457 325.143714 43.46461 324.927963 
Q 43.826763 324.712213 44.404667 324.712213 
Q 45.044214 324.712213 45.387103 324.983827 
Q 45.729993 325.255442 45.776225 325.794819 
M 78.223589 325.794819 
L 78.940189 325.737029 
Q 78.905515 324.924111 78.333391 324.482978 
Q 77.761266 324.041845 76.821209 324.041845 
Q 75.904269 324.041845 75.372598 324.484904 
Q 74.840926 324.927963 74.840926 325.606037 
Q 74.840926 326.203204 75.26087 326.576915 
Q 75.680813 326.950626 76.634354 327.156745 
Q 77.587895 327.362864 77.992428 327.574762 
Q 78.39696 327.78666 78.39696 328.248983 
Q 78.39696 328.692043 78.009765 328.950173 
Q 77.622569 329.208303 76.994581 329.208303 
Q 76.324212 329.208303 75.850331 328.898162 
Q 75.37645 328.58802 75.326365 327.909946 
L 74.61747 327.971589 
Q 74.652144 328.819181 75.243532 329.350853 
Q 75.834921 329.882524 77.025402 329.882524 
Q 77.957753 329.882524 78.537583 329.400938 
Q 79.117413 328.919351 79.117413 328.191193 
Q 79.117413 327.617142 78.801493 327.276179 
Q 78.485572 326.935215 78.042512 326.773402 
Q 77.599453 326.611589 76.898263 326.457482 
Q 76.108462 326.280258 75.829141 326.101108 
Q 75.549821 325.921958 75.549821 325.555952 
Q 75.549821 325.143714 75.911974 324.927963 
Q 76.274127 324.712213 76.852031 324.712213 
Q 77.491578 324.712213 77.834467 324.983827 
Q 78.177357 325.255442 78.223589 325.794819 
M 47.68716 324.138162 
L 47.68716 329.786207 
L 48.434582 329.786207 
L 48.434582 327.497708 
L 49.879341 327.497708 
Q 50.988916 327.497708 51.491692 327.025754 
Q 51.994468 326.553799 51.994468 325.771703 
Q 51.994468 325.378728 51.834582 325.018502 
Q 51.674695 324.658275 51.362627 324.448303 
Q 51.050559 324.238332 50.68648 324.188247 
Q 50.3224 324.138162 49.817698 324.138162 
L 47.68716 324.138162 
M 68.144949 329.786207 
L 68.144949 329.115839 
L 64.673675 329.115839 
L 64.673675 327.204904 
L 67.798207 327.204904 
L 67.798207 326.534536 
L 64.673675 326.534536 
L 64.673675 324.80853 
L 68.013958 324.80853 
L 68.013958 324.138162 
L 63.926252 324.138162 
L 63.926252 329.786207 
L 68.144949 329.786207 
M 38.22495 326.731023 
L 38.22495 326.715612 
Q 39.053279 326.418955 39.053279 325.586774 
Q 39.053279 324.974196 38.600588 324.542694 
Q 38.147897 324.111193 37.412033 324.111193 
Q 36.687727 324.111193 36.240815 324.52921 
Q 35.793902 324.947227 35.793902 325.571363 
Q 35.793902 326.453629 36.641494 326.715612 
L 36.641494 326.731023 
Q 36.14835 326.815782 35.857472 327.216462 
Q 35.566594 327.617142 35.566594 328.152666 
Q 35.566594 328.896235 36.084781 329.38938 
Q 36.602968 329.882524 37.427443 329.882524 
Q 38.244214 329.882524 38.764327 329.393232 
Q 39.284441 328.903941 39.284441 328.175782 
Q 39.284441 327.07006 38.22495 326.731023 
M 94.871067 324.111193 
Q 93.984948 324.111193 93.509141 324.825867 
Q 93.033333 325.540541 93.033333 327.000711 
Q 93.033333 329.882524 94.871067 329.882524 
Q 95.761039 329.882524 96.236846 329.171703 
Q 96.712653 328.460881 96.712653 327.000711 
Q 96.712653 324.111193 94.871067 324.111193 
M 88.236733 329.786207 
L 86.711067 327.617142 
L 88.125005 325.698502 
L 87.296676 325.698502 
L 86.294977 327.112439 
Q 86.217923 326.966037 85.378036 325.698502 
L 84.518886 325.698502 
L 85.89815 327.655669 
L 84.399453 329.786207 
L 85.243192 329.786207 
L 86.318093 328.168077 
L 87.381436 329.786207 
L 88.236733 329.786207 
M 84.060416 331.442864 
Q 82.908461 329.597425 82.908461 327.736575 
Q 82.908461 326.862014 83.141549 326.014422 
Q 83.374637 325.16683 84.060416 324.041845 
L 83.563419 324.041845 
Q 82.970104 324.827793 82.580983 325.748587 
Q 82.191861 326.66938 82.191861 327.744281 
Q 82.191861 328.692043 82.557866 329.659068 
Q 82.923872 330.626094 83.563419 331.442864 
L 84.060416 331.442864 
M 97.849197 324.041845 
L 97.3522 324.041845 
Q 98.504155 325.887284 98.504155 327.751986 
Q 98.504155 328.626547 98.271067 329.472213 
Q 98.037979 330.317878 97.3522 331.442864 
L 97.849197 331.442864 
Q 98.442512 330.656915 98.831633 329.736122 
Q 99.220755 328.815329 99.220755 327.744281 
Q 99.220755 326.792666 98.85475 325.82564 
Q 98.488744 324.858615 97.849197 324.041845 
M 91.249537 329.786207 
L 91.249537 324.111193 
L 90.798773 324.111193 
Q 90.363418 324.958785 89.165232 325.532836 
L 89.165232 326.203204 
Q 90.03594 325.860315 90.556053 325.36717 
L 90.556053 329.786207 
L 91.249537 329.786207 
M 55.877981 327.474592 
L 53.959341 327.474592 
L 54.591182 325.783261 
Q 54.772259 325.297822 54.880134 324.727624 
L 54.899397 324.727624 
Q 55.007273 325.143714 55.095885 325.392213 
Q 55.184496 325.640711 55.877981 327.474592 
M 69.944156 326.623148 
L 69.944156 324.758445 
L 71.727952 324.758445 
Q 72.375204 324.758445 72.65645 325.028133 
Q 72.937697 325.297822 72.937697 325.683091 
Q 72.937697 325.979748 72.768178 326.218615 
Q 72.59866 326.457482 72.315487 326.540315 
Q 72.032314 326.623148 71.546875 326.623148 
L 69.944156 326.623148 
M 48.434582 326.82734 
L 48.434582 324.80853 
L 49.871636 324.80853 
Q 50.368633 324.80853 50.620984 324.872099 
Q 50.873335 324.935669 51.046706 325.195725 
Q 51.220077 325.455782 51.220077 325.794819 
Q 51.220077 326.82734 49.887046 326.82734 
L 48.434582 326.82734 
M 37.427443 329.312326 
Q 36.926594 329.312326 36.601041 328.980994 
Q 36.275489 328.649663 36.275489 328.160371 
Q 36.275489 327.690343 36.591409 327.357085 
Q 36.90733 327.023827 37.412033 327.023827 
Q 37.897472 327.023827 38.234582 327.347453 
Q 38.571693 327.671079 38.571693 328.175782 
Q 38.571693 328.680485 38.244214 328.996405 
Q 37.916735 329.312326 37.427443 329.312326 
M 37.427443 326.457482 
Q 37.038322 326.457482 36.772486 326.212836 
Q 36.50665 325.96819 36.50665 325.548247 
Q 36.50665 325.197652 36.764781 324.939522 
Q 37.022911 324.681391 37.419738 324.681391 
Q 37.80886 324.681391 38.076622 324.943374 
Q 38.344384 325.205357 38.344384 325.586774 
Q 38.344384 325.960485 38.080475 326.208983 
Q 37.816565 326.457482 37.427443 326.457482 
M 94.871067 329.312326 
Q 94.497356 329.312326 94.246931 329.071533 
Q 93.996506 328.830739 93.869367 328.337595 
Q 93.742229 327.844451 93.742229 327.000711 
Q 93.742229 325.783261 94.023475 325.232326 
Q 94.304721 324.681391 94.863362 324.681391 
Q 95.244778 324.681391 95.497129 324.922184 
Q 95.749481 325.162978 95.874693 325.654196 
Q 95.999905 326.145414 95.999905 327.000711 
Q 95.999905 328.22972 95.714806 328.771023 
Q 95.429707 329.312326 94.871067 329.312326 
" clip-path="url(#pfea91c8a25)" style="fill: #ff0000"/>
   </g>
   <g id="patch_62">
    <path d="M 344.953096 316.607435 
L 382.60673 316.607435 
L 382.60673 297.780618 
L 344.953096 297.780618 
L 344.953096 316.607435 
" clip-path="url(#pfea91c8a25)" style="fill: none; stroke: #ffffff; stroke-width: 0.48; stroke-linejoin: miter"/>
   </g>
   <g id="patch_63">
    <path d="M 360.014549 297.780618 
L 360.014549 303.428663 
L 367.545276 303.428663 
L 367.545276 297.780618 
" clip-path="url(#pfea91c8a25)" style="fill: none; stroke: #ffffff; stroke-width: 0.48; stroke-linejoin: miter"/>
   </g>
   <g id="patch_64">
    <path d="M 366.792203 310.95939 
C 366.792203 312.623032 365.443555 313.971681 363.779913 313.971681 
C 362.11627 313.971681 360.767622 312.623032 360.767622 310.95939 
C 360.767622 309.295748 362.11627 307.947099 363.779913 307.947099 
C 365.443555 307.947099 366.792203 309.295748 366.792203 310.95939 
" clip-path="url(#pfea91c8a25)" style="fill: none; stroke: #ffffff; stroke-width: 0.48; stroke-linejoin: miter"/>
   </g>
   <g id="patch_65">
    <path d="M 397.668183 316.607435 
L 435.321817 316.607435 
L 435.321817 297.780618 
L 397.668183 297.780618 
L 397.668183 316.607435 
" clip-path="url(#pfea91c8a25)" style="fill: none; stroke: #ffffff; stroke-width: 0.48; stroke-linejoin: miter"/>
   </g>
   <g id="patch_66">
    <path d="M 412.729637 297.780618 
L 412.729637 303.428663 
L 420.260363 303.428663 
L 420.260363 297.780618 
" clip-path="url(#pfea91c8a25)" style="fill: none; stroke: #ffffff; stroke-width: 0.48; stroke-linejoin: miter"/>
   </g>
   <g id="patch_67">
    <path d="M 419.507291 310.95939 
C 419.507291 312.623032 418.158642 313.971681 416.495 313.971681 
C 414.831358 313.971681 413.482709 312.623032 413.482709 310.95939 
C 413.482709 309.295748 414.831358 307.947099 416.495 307.947099 
C 418.158642 307.947099 419.507291 309.295748 419.507291 310.95939 
" clip-path="url(#pfea91c8a25)" style="fill: none; stroke: #ffffff; stroke-width: 0.48; stroke-linejoin: miter"/>
   </g>
   <g id="patch_68">
    <path d="M 373.01995 329.68989 
Q 371.81791 329.68989 371.064709 330.489323 
Q 370.311508 331.288756 370.311508 332.679578 
Q 370.311508 333.873912 371.055078 334.702241 
Q 371.798647 335.530569 373.01995 335.530569 
Q 374.198873 335.530569 374.957854 334.731136 
Q 375.716834 333.931702 375.716834 332.617935 
Q 375.716834 331.300314 374.961706 330.495102 
Q 374.206579 329.68989 373.01995 329.68989 
M 366.882613 329.68989 
Q 365.680574 329.68989 364.927372 330.489323 
Q 364.174171 331.288756 364.174171 332.679578 
Q 364.174171 333.873912 364.917741 334.702241 
Q 365.66131 335.530569 366.882613 335.530569 
Q 368.061537 335.530569 368.820517 334.731136 
Q 369.579497 333.931702 369.579497 332.617935 
Q 369.579497 331.300314 368.824369 330.495102 
Q 368.069242 329.68989 366.882613 329.68989 
M 350.924767 335.434252 
L 350.924767 329.786207 
L 349.930773 329.786207 
L 348.582331 333.715952 
Q 348.385843 334.293855 348.281821 334.621334 
L 348.26641 334.621334 
Q 348.231736 334.451816 348.00828 333.7853 
L 346.671396 329.786207 
L 345.554116 329.786207 
L 345.554116 335.434252 
L 346.263011 335.434252 
L 346.263011 330.629946 
L 346.286127 330.629946 
L 347.904257 335.434252 
L 348.574625 335.434252 
L 350.200461 330.707 
L 350.215872 330.707 
L 350.215872 335.434252 
L 350.924767 335.434252 
M 381.326352 335.434252 
L 378.856777 332.074705 
L 381.222329 329.786207 
L 380.212924 329.786207 
L 377.404312 332.587113 
L 377.404312 329.786207 
L 376.65689 329.786207 
L 376.65689 335.434252 
L 377.404312 335.434252 
L 377.404312 333.477085 
L 378.336664 332.579408 
L 380.340063 335.434252 
L 381.326352 335.434252 
M 385.302329 331.442864 
L 386.01893 331.385074 
Q 385.984255 330.572156 385.412131 330.131023 
Q 384.840006 329.68989 383.89995 329.68989 
Q 382.983009 329.68989 382.451338 330.132949 
Q 381.919666 330.576009 381.919666 331.254082 
Q 381.919666 331.851249 382.33961 332.22496 
Q 382.759553 332.598671 383.713094 332.80479 
Q 384.666635 333.010909 385.071168 333.222807 
Q 385.4757 333.434705 385.4757 333.897028 
Q 385.4757 334.340088 385.088505 334.598218 
Q 384.701309 334.856348 384.073321 334.856348 
Q 383.402952 334.856348 382.929071 334.546207 
Q 382.45519 334.236065 382.405105 333.557991 
L 381.69621 333.619634 
Q 381.730884 334.467226 382.322273 334.998898 
Q 382.913661 335.530569 384.104142 335.530569 
Q 385.036493 335.530569 385.616323 335.048983 
Q 386.196153 334.567396 386.196153 333.839238 
Q 386.196153 333.265187 385.880233 332.924224 
Q 385.564312 332.583261 385.121253 332.421448 
Q 384.678193 332.259635 383.977003 332.105527 
Q 383.187202 331.928303 382.907882 331.749153 
Q 382.628561 331.570003 382.628561 331.203997 
Q 382.628561 330.791759 382.990714 330.576009 
Q 383.352867 330.360258 383.930771 330.360258 
Q 384.570318 330.360258 384.913207 330.631873 
Q 385.256097 330.903487 385.302329 331.442864 
M 363.172472 335.434252 
L 363.172472 329.786207 
L 362.421197 329.786207 
L 362.421197 332.105527 
L 359.485446 332.105527 
L 359.485446 329.786207 
L 358.738024 329.786207 
L 358.738024 335.434252 
L 359.485446 335.434252 
L 359.485446 332.775895 
L 362.421197 332.775895 
L 362.421197 335.434252 
L 363.172472 335.434252 
M 354.515475 332.379068 
L 354.515475 332.363657 
Q 355.343803 332.067 355.343803 331.234819 
Q 355.343803 330.622241 354.891112 330.190739 
Q 354.438421 329.759238 353.702557 329.759238 
Q 352.978251 329.759238 352.531339 330.177255 
Q 352.084427 330.595272 352.084427 331.219408 
Q 352.084427 332.101674 352.932019 332.363657 
L 352.932019 332.379068 
Q 352.438874 332.463827 352.147996 332.864507 
Q 351.857118 333.265187 351.857118 333.800711 
Q 351.857118 334.54428 352.375305 335.037425 
Q 352.893492 335.530569 353.717968 335.530569 
Q 354.534738 335.530569 355.054852 335.041277 
Q 355.574965 334.551986 355.574965 333.823827 
Q 355.574965 332.718105 354.515475 332.379068 
M 399.353093 335.434252 
L 399.353093 334.763884 
L 396.575303 334.763884 
Q 396.775643 334.409436 397.388221 333.920144 
Q 398.555586 332.987793 398.946634 332.431079 
Q 399.337683 331.874365 399.337683 331.331136 
Q 399.337683 330.680031 398.873433 330.219635 
Q 398.409184 329.759238 397.577003 329.759238 
Q 396.810317 329.759238 396.311394 330.179181 
Q 395.81247 330.599125 395.746975 331.392779 
L 396.459722 331.473686 
Q 396.463575 330.903487 396.779496 330.616462 
Q 397.095416 330.329436 397.561592 330.329436 
Q 398.023915 330.329436 398.326351 330.608756 
Q 398.628787 330.888077 398.628787 331.315725 
Q 398.628787 331.812722 398.189581 332.30394 
Q 397.750374 332.795159 397.191734 333.242071 
Q 396.278646 333.977935 395.945388 334.467226 
Q 395.61213 334.956518 395.61213 335.434252 
L 399.353093 335.434252 
M 395.315473 335.434252 
L 393.789807 333.265187 
L 395.203745 331.346547 
L 394.375417 331.346547 
L 393.373717 332.760484 
Q 393.296663 332.614082 392.456776 331.346547 
L 391.597626 331.346547 
L 392.97689 333.303714 
L 391.478193 335.434252 
L 392.321932 335.434252 
L 393.396833 333.816122 
L 394.460176 335.434252 
L 395.315473 335.434252 
M 400.539722 329.68989 
L 400.042725 329.68989 
Q 401.19468 331.535329 401.19468 333.400031 
Q 401.19468 334.274592 400.961592 335.120258 
Q 400.728504 335.965923 400.042725 337.090909 
L 400.539722 337.090909 
Q 401.133037 336.30496 401.522158 335.384167 
Q 401.91128 334.463374 401.91128 333.392326 
Q 401.91128 332.440711 401.545275 331.473686 
Q 401.179269 330.50666 400.539722 329.68989 
M 391.139156 337.090909 
Q 389.987201 335.24547 389.987201 333.38462 
Q 389.987201 332.510059 390.220289 331.662467 
Q 390.453377 330.814875 391.139156 329.68989 
L 390.642159 329.68989 
Q 390.048844 330.475839 389.659723 331.396632 
Q 389.270601 332.317425 389.270601 333.392326 
Q 389.270601 334.340088 389.636607 335.307113 
Q 390.002612 336.274139 390.642159 337.090909 
L 391.139156 337.090909 
M 373.012245 334.891023 
Q 372.156947 334.891023 371.621423 334.284224 
Q 371.085899 333.677425 371.085899 332.694989 
Q 371.085899 331.492949 371.632981 330.911193 
Q 372.180063 330.329436 373.027655 330.329436 
Q 373.852131 330.329436 374.397287 330.922751 
Q 374.942443 331.516065 374.942443 332.617935 
Q 374.93859 333.688983 374.404992 334.290003 
Q 373.871395 334.891023 373.012245 334.891023 
M 366.874908 334.891023 
Q 366.01961 334.891023 365.484086 334.284224 
Q 364.948562 333.677425 364.948562 332.694989 
Q 364.948562 331.492949 365.495644 330.911193 
Q 366.042727 330.329436 366.890319 330.329436 
Q 367.714794 330.329436 368.25995 330.922751 
Q 368.805106 331.516065 368.805106 332.617935 
Q 368.801253 333.688983 368.267656 334.290003 
Q 367.734058 334.891023 366.874908 334.891023 
M 353.717968 334.960371 
Q 353.217118 334.960371 352.891566 334.62904 
Q 352.566013 334.297708 352.566013 333.808416 
Q 352.566013 333.338388 352.881934 333.00513 
Q 353.197855 332.671872 353.702557 332.671872 
Q 354.187996 332.671872 354.525107 332.995499 
Q 354.862217 333.319125 354.862217 333.823827 
Q 354.862217 334.32853 354.534738 334.64445 
Q 354.20726 334.960371 353.717968 334.960371 
M 353.717968 332.105527 
Q 353.328846 332.105527 353.06301 331.860881 
Q 352.797175 331.616235 352.797175 331.196292 
Q 352.797175 330.845697 353.055305 330.587567 
Q 353.313435 330.329436 353.710262 330.329436 
Q 354.099384 330.329436 354.367146 330.591419 
Q 354.634908 330.853402 354.634908 331.234819 
Q 354.634908 331.60853 354.370999 331.857028 
Q 354.10709 332.105527 353.717968 332.105527 
" clip-path="url(#pfea91c8a25)" style="fill: #ff0000"/>
   </g>
  </g>
 </g>
 <defs>
  <clipPath id="pfea91c8a25">
   <rect x="7.2" y="7.2" width="472.176569" height="345.6"/>
  </clipPath>
 </defs>
</svg>
